<?xml version="1.0" encoding="utf-8" standalone="no"?>
<!DOCTYPE svg PUBLIC "-//W3C//DTD SVG 1.1//EN"
  "http://www.w3.org/Graphics/SVG/1.1/DTD/svg11.dtd">
<svg xmlns:xlink="http://www.w3.org/1999/xlink" width="630.866263pt" height="241.997953pt" viewBox="0 0 630.866263 241.997953" xmlns="http://www.w3.org/2000/svg" version="1.1">
 <metadata>
  <rdf:RDF xmlns:dc="http://purl.org/dc/elements/1.1/" xmlns:cc="http://creativecommons.org/ns#" xmlns:rdf="http://www.w3.org/1999/02/22-rdf-syntax-ns#">
   <cc:Work>
    <dc:type rdf:resource="http://purl.org/dc/dcmitype/StillImage"/>
    <dc:date>2026-06-09T08:20:20.039079</dc:date>
    <dc:format>image/svg+xml</dc:format>
    <dc:creator>
     <cc:Agent>
      <dc:title>Matplotlib v3.9.4, https://matplotlib.org/</dc:title>
     </cc:Agent>
    </dc:creator>
   </cc:Work>
  </rdf:RDF>
 </metadata>
 <defs>
  <style type="text/css">*{stroke-linejoin: round; stroke-linecap: butt}</style>
 </defs>
 <g id="figure_1">
  <g id="patch_1">
   <path d="M 0 241.997953 
L 630.866263 241.997953 
L 630.866263 0 
L 0 0 
z
" style="fill: #ffffff"/>
  </g>
  <g id="axes_1">
   <g id="patch_2">
    <path d="M 29.990781 218.45975 
L 603.271461 218.45975 
L 603.271461 7.2 
L 29.990781 7.2 
z
" style="fill: #fafafa"/>
   </g>
   <g id="matplotlib.axis_1">
    <g id="xtick_1">
     <g id="line2d_1">
      <defs>
       <path id="m5bb6b46610" d="M 0 0 
L 0 3.5 
" style="stroke: #333333; stroke-width: 0.8"/>
      </defs>
      <g>
       <use xlink:href="#m5bb6b46610" x="87.547932" y="218.45975" style="fill: #333333; stroke: #333333; stroke-width: 0.8"/>
      </g>
     </g>
     <g id="text_1">
      <!-- 改文档 / 改代码（笼内·可逆） -->
      <g style="fill: #333333" transform="translate(21.347034 233.478344) scale(0.095 -0.095)">
       <defs>
        <path id="STHeitiTC-Medium-6539" d="M 3494 3226 
Q 3546 2970 3622 2698 
Q 3699 2426 3792 2173 
Q 3885 1920 3987 1699 
Q 4090 1478 4198 1331 
Q 4352 1683 4461 2275 
Q 4570 2867 4602 3616 
L 3725 3616 
Q 3648 3456 3494 3226 
z
M 3136 2675 
Q 3008 2496 2925 2394 
Q 2867 2522 2796 2678 
Q 2726 2835 2637 2938 
Q 2835 3181 3001 3421 
Q 3168 3661 3296 3926 
Q 3424 4192 3510 4493 
Q 3597 4794 3642 5165 
Q 3795 5101 3961 5059 
Q 4128 5018 4275 4992 
Q 4358 4979 4364 4937 
Q 4371 4896 4262 4845 
Q 4230 4826 4204 4800 
Q 4179 4774 4144 4700 
Q 4109 4627 4061 4486 
Q 4013 4346 3936 4096 
L 5062 4096 
Q 5344 4096 5555 4115 
Q 5766 4134 5920 4166 
L 5920 3578 
Q 5773 3603 5593 3609 
Q 5414 3616 5171 3616 
Q 5114 3021 5056 2598 
Q 4998 2176 4928 1869 
Q 4858 1562 4768 1334 
Q 4678 1107 4557 902 
Q 4864 608 5267 393 
Q 5670 179 6093 109 
Q 5939 -38 5849 -208 
Q 5760 -378 5715 -550 
Q 5530 -474 5331 -365 
Q 5133 -256 4937 -128 
Q 4742 0 4560 144 
Q 4378 288 4224 442 
Q 3930 115 3469 -160 
Q 3008 -435 2336 -653 
Q 2272 -531 2166 -393 
Q 2061 -256 1933 -166 
Q 2266 -90 2541 3 
Q 2816 96 3053 217 
Q 3290 339 3491 496 
Q 3693 653 3878 858 
Q 3661 1171 3472 1616 
Q 3283 2061 3136 2675 
z
M 614 2451 
Q 614 2573 608 2701 
Q 602 2829 589 2912 
Q 653 2906 723 2899 
Q 794 2893 883 2889 
Q 973 2886 1104 2886 
Q 1235 2886 1427 2886 
L 2029 2886 
L 2074 4090 
L 1350 4090 
Q 1094 4090 857 4080 
Q 621 4070 410 4045 
L 410 4602 
Q 659 4589 912 4582 
Q 1165 4576 1510 4576 
Q 1741 4576 1907 4576 
Q 2074 4576 2202 4582 
Q 2330 4589 2429 4592 
Q 2528 4595 2618 4608 
L 2528 2381 
Q 2419 2387 2304 2387 
Q 2189 2387 2010 2387 
L 1139 2387 
L 1139 557 
Q 1434 736 1747 957 
Q 2061 1178 2387 1440 
Q 2362 1274 2406 1098 
Q 2451 922 2502 832 
L 1402 83 
Q 1184 -64 1021 -198 
Q 858 -333 723 -467 
Q 672 -339 566 -192 
Q 461 -45 307 102 
Q 448 166 614 256 
L 614 2451 
z
" transform="scale(0.015625)"/>
        <path id="STHeitiTC-Medium-6587" d="M 2061 3699 
Q 2093 3456 2173 3158 
Q 2253 2861 2381 2557 
Q 2509 2253 2681 1965 
Q 2854 1677 3078 1459 
Q 3238 1626 3379 1830 
Q 3520 2035 3632 2304 
Q 3744 2573 3827 2915 
Q 3910 3258 3962 3699 
L 2061 3699 
z
M 2995 4192 
Q 2886 4576 2675 4986 
L 3373 5146 
Q 3398 4941 3452 4685 
Q 3507 4429 3578 4192 
Q 4320 4198 4861 4211 
Q 5402 4224 5837 4256 
L 5837 3642 
Q 5568 3661 5261 3670 
Q 4954 3680 4582 3693 
Q 4435 2771 4156 2156 
Q 3878 1542 3494 1126 
Q 4672 294 6067 333 
Q 5939 230 5852 147 
Q 5766 64 5705 -19 
Q 5645 -102 5603 -185 
Q 5562 -269 5530 -371 
Q 5184 -314 4832 -198 
Q 4480 -83 4157 64 
Q 3834 211 3549 377 
Q 3264 544 3046 717 
Q 2822 550 2534 380 
Q 2246 211 1939 60 
Q 1632 -90 1331 -205 
Q 1030 -320 787 -378 
Q 755 -192 646 -38 
Q 538 115 333 243 
Q 992 314 1597 541 
Q 2202 768 2643 1088 
Q 2413 1344 2227 1670 
Q 2042 1997 1898 2342 
Q 1754 2688 1658 3037 
Q 1562 3386 1517 3693 
Q 1190 3686 902 3673 
Q 614 3661 358 3642 
L 358 4256 
Q 851 4224 1475 4208 
Q 2099 4192 2995 4192 
z
" transform="scale(0.015625)"/>
        <path id="STHeitiTC-Medium-6863" d="M 2432 1613 
Q 2349 1792 2205 2025 
Q 2061 2259 1914 2451 
L 2259 2701 
Q 2406 2515 2556 2307 
Q 2707 2099 2816 1933 
L 2432 1613 
z
M 3174 3219 
Q 3136 3373 3091 3539 
Q 3046 3706 2995 3866 
Q 2944 4026 2889 4166 
Q 2835 4307 2784 4403 
L 3277 4557 
Q 3309 4435 3360 4278 
Q 3411 4122 3468 3958 
Q 3526 3795 3584 3641 
Q 3642 3488 3693 3373 
L 3174 3219 
z
M 6003 4454 
Q 6042 4448 6042 4422 
Q 6042 4397 5971 4352 
Q 5914 4307 5760 4028 
Q 5606 3750 5363 3219 
L 4909 3354 
Q 4986 3475 5069 3651 
Q 5152 3827 5225 4019 
Q 5299 4211 5360 4396 
Q 5421 4582 5453 4723 
Q 5517 4685 5600 4637 
Q 5683 4589 5766 4550 
Q 5850 4512 5914 4483 
Q 5978 4454 6003 4454 
z
M 1338 2336 
Q 1210 1958 1056 1641 
Q 902 1325 678 979 
Q 640 1075 608 1145 
Q 576 1216 537 1273 
Q 499 1331 454 1385 
Q 410 1440 352 1510 
Q 480 1638 605 1801 
Q 730 1965 851 2182 
Q 973 2400 1094 2681 
Q 1216 2963 1331 3328 
Q 1190 3328 1081 3321 
Q 973 3315 883 3308 
Q 794 3302 710 3292 
Q 627 3283 544 3277 
L 544 3795 
Q 634 3782 714 3772 
Q 794 3763 886 3760 
Q 979 3757 1088 3750 
Q 1197 3744 1338 3744 
Q 1338 4275 1325 4585 
Q 1312 4896 1286 5107 
Q 1421 5088 1565 5085 
Q 1709 5082 1882 5094 
Q 1978 5107 1994 5062 
Q 2010 5018 1920 4922 
Q 1888 4890 1869 4742 
Q 1850 4595 1850 4339 
L 1850 3744 
Q 2048 3750 2185 3763 
Q 2323 3776 2470 3795 
L 2470 3277 
Q 2323 3296 2185 3305 
Q 2048 3315 1850 3322 
L 1850 557 
Q 1850 301 1859 -16 
Q 1869 -333 1894 -646 
L 1280 -646 
Q 1312 -333 1325 -16 
Q 1338 301 1338 557 
L 1338 2336 
z
M 4531 2816 
Q 5062 2822 5404 2838 
Q 5747 2854 5939 2886 
Q 5926 2707 5923 2505 
Q 5920 2304 5920 1978 
L 5920 320 
Q 5920 51 5926 -185 
Q 5933 -422 5946 -678 
L 5395 -678 
L 5395 -256 
L 3584 -256 
Q 3290 -256 3056 -265 
Q 2822 -275 2637 -301 
L 2637 230 
Q 2822 205 3056 195 
Q 3290 186 3584 186 
L 5395 186 
L 5395 1114 
L 3846 1114 
Q 3565 1114 3325 1104 
Q 3085 1094 2899 1082 
L 2899 1581 
Q 3085 1568 3325 1558 
Q 3565 1549 3846 1549 
L 5395 1549 
L 5395 2406 
L 3430 2406 
Q 3226 2406 3053 2396 
Q 2880 2387 2733 2362 
L 2733 2867 
Q 2931 2848 3235 2835 
Q 3539 2822 4038 2816 
L 4038 4013 
Q 4038 4154 4035 4310 
Q 4032 4467 4025 4611 
Q 4019 4755 4012 4876 
Q 4006 4998 4000 5075 
Q 4064 5062 4157 5052 
Q 4250 5043 4339 5040 
Q 4429 5037 4505 5037 
Q 4582 5037 4621 5037 
Q 4698 5043 4710 5017 
Q 4723 4992 4666 4941 
Q 4614 4902 4572 4777 
Q 4531 4653 4531 4467 
L 4531 2816 
z
" transform="scale(0.015625)"/>
        <path id="STHeitiTC-Medium-20" transform="scale(0.015625)"/>
        <path id="STHeitiTC-Medium-2f" d="M 2675 5504 
L 736 77 
L 160 77 
L 2099 5504 
L 2675 5504 
z
" transform="scale(0.015625)"/>
        <path id="STHeitiTC-Medium-4ee3" d="M 4794 3674 
Q 4672 3917 4544 4128 
Q 4416 4339 4250 4550 
L 4781 4851 
Q 5114 4429 5350 4032 
L 4794 3674 
z
M 3898 2566 
Q 3962 2125 4086 1721 
Q 4211 1318 4380 988 
Q 4550 659 4758 416 
Q 4966 173 5203 58 
Q 5235 38 5270 51 
Q 5306 64 5347 141 
Q 5389 218 5440 384 
Q 5491 550 5562 845 
Q 5658 678 5805 588 
Q 5952 499 6112 474 
Q 6003 122 5920 -99 
Q 5837 -320 5760 -441 
Q 5683 -563 5609 -608 
Q 5536 -653 5453 -653 
Q 5338 -653 5168 -585 
Q 4998 -518 4812 -393 
Q 4627 -269 4448 -83 
Q 4269 102 4134 333 
Q 4006 544 3907 752 
Q 3808 960 3718 1206 
Q 3629 1453 3549 1753 
Q 3469 2054 3392 2451 
Q 3149 2394 2966 2349 
Q 2784 2304 2643 2265 
Q 2502 2227 2393 2195 
Q 2285 2163 2202 2138 
L 2093 2701 
Q 2266 2714 2541 2755 
Q 2816 2797 3309 2912 
Q 3270 3130 3232 3437 
Q 3194 3744 3165 4061 
Q 3136 4378 3117 4666 
Q 3098 4954 3098 5126 
Q 3283 5094 3462 5088 
Q 3642 5082 3782 5094 
Q 3910 5107 3929 5078 
Q 3949 5050 3859 4947 
Q 3814 4902 3785 4806 
Q 3757 4710 3753 4502 
Q 3750 4294 3769 3942 
Q 3789 3590 3840 3034 
L 4346 3155 
Q 4627 3219 4838 3276 
Q 5050 3334 5206 3379 
Q 5363 3424 5475 3462 
Q 5587 3501 5670 3533 
L 5837 2976 
Q 5658 2963 5354 2899 
Q 5050 2835 4493 2707 
L 3898 2566 
z
M 1242 2502 
Q 1114 2259 979 2044 
Q 845 1830 704 1645 
Q 614 1805 515 1929 
Q 416 2054 288 2163 
Q 435 2304 566 2461 
Q 698 2618 813 2810 
Q 928 3002 1037 3238 
Q 1146 3475 1254 3782 
Q 1357 4070 1433 4412 
Q 1510 4755 1542 5030 
Q 1709 4973 1885 4928 
Q 2061 4883 2221 4858 
Q 2336 4838 2339 4800 
Q 2342 4762 2221 4685 
Q 2195 4672 2166 4627 
Q 2138 4582 2090 4476 
Q 2042 4371 1965 4185 
Q 1888 4000 1766 3693 
L 1766 -717 
L 1171 -717 
Q 1210 -371 1226 -80 
Q 1242 211 1242 550 
L 1242 2502 
z
" transform="scale(0.015625)"/>
        <path id="STHeitiTC-Medium-7801" d="M 2246 2477 
L 1491 2477 
L 1491 1011 
L 2246 1011 
L 2246 2477 
z
M 1933 4186 
Q 1894 3968 1856 3795 
Q 1818 3622 1766 3468 
Q 1715 3315 1654 3174 
Q 1594 3034 1510 2893 
Q 2112 2899 2397 2908 
Q 2682 2918 2758 2944 
Q 2746 2874 2739 2774 
Q 2733 2675 2729 2560 
Q 2726 2445 2723 2323 
Q 2720 2202 2720 2086 
L 2720 1011 
Q 2720 621 2758 173 
L 2246 173 
L 2246 589 
L 1491 589 
L 1491 -262 
L 1018 -262 
Q 1030 -6 1033 192 
Q 1037 390 1037 576 
L 1037 2138 
Q 928 1990 813 1827 
Q 698 1664 550 1478 
Q 474 1786 346 2061 
Q 544 2259 707 2480 
Q 870 2701 998 2960 
Q 1126 3219 1228 3523 
Q 1331 3827 1414 4186 
Q 1114 4179 890 4163 
Q 666 4147 518 4122 
L 518 4691 
Q 736 4659 1014 4646 
Q 1293 4634 1696 4634 
Q 2099 4634 2374 4646 
Q 2650 4659 2867 4691 
L 2867 4122 
Q 2688 4147 2464 4163 
Q 2240 4179 1933 4186 
z
M 5043 4314 
L 4256 4314 
Q 4032 4314 3753 4298 
Q 3475 4282 3232 4256 
L 3232 4858 
Q 3501 4826 3827 4816 
Q 4154 4806 4442 4806 
Q 4742 4806 5072 4816 
Q 5402 4826 5632 4858 
L 5344 2202 
Q 5555 2208 5740 2221 
Q 5926 2234 6054 2246 
Q 6042 2138 6032 2006 
Q 6022 1875 6006 1654 
Q 5990 1434 5968 1078 
Q 5946 723 5914 166 
Q 5894 -58 5836 -211 
Q 5779 -365 5651 -467 
Q 5523 -570 5308 -634 
Q 5094 -698 4768 -736 
Q 4723 -563 4659 -412 
Q 4595 -262 4480 -102 
Q 4768 -134 4941 -131 
Q 5114 -128 5210 -80 
Q 5306 -32 5347 70 
Q 5389 173 5414 346 
Q 5434 448 5450 614 
Q 5466 781 5482 973 
Q 5498 1165 5507 1369 
Q 5517 1574 5523 1754 
L 4474 1754 
Q 4320 1754 4166 1750 
Q 4013 1747 3869 1740 
Q 3725 1734 3603 1724 
Q 3482 1715 3398 1702 
Q 3418 1990 3434 2249 
Q 3450 2509 3456 2752 
Q 3462 2995 3462 3232 
Q 3462 3469 3462 3712 
Q 3526 3699 3612 3692 
Q 3699 3686 3785 3676 
Q 3872 3667 3945 3664 
Q 4019 3661 4064 3661 
Q 4250 3661 4102 3514 
Q 4077 3488 4057 3446 
Q 4038 3405 4022 3273 
Q 4006 3142 3984 2892 
Q 3962 2643 3930 2202 
L 4838 2202 
L 5043 4314 
z
M 5075 518 
Q 4909 538 4640 550 
Q 4371 563 4032 563 
Q 3706 563 3472 556 
Q 3238 550 3053 518 
L 3053 1062 
Q 3226 1037 3466 1027 
Q 3706 1018 4032 1018 
Q 4371 1018 4633 1027 
Q 4896 1037 5075 1062 
L 5075 518 
z
" transform="scale(0.015625)"/>
        <path id="STHeitiTC-Medium-ff08" d="M 5651 -749 
L 5274 -749 
Q 4646 173 4409 835 
Q 4173 1498 4173 2266 
Q 4173 3034 4432 3750 
Q 4691 4467 5254 5267 
L 5645 5267 
Q 5082 4237 4928 3606 
Q 4774 2976 4774 2093 
Q 4774 1472 4953 861 
Q 5133 250 5651 -749 
z
" transform="scale(0.015625)"/>
        <path id="STHeitiTC-Medium-7b3c" d="M 4294 2458 
Q 4154 2586 3994 2704 
Q 3834 2822 3667 2918 
L 4128 3226 
Q 4262 3123 4438 3004 
Q 4614 2886 4762 2797 
L 4294 2458 
z
M 3315 1978 
L 2842 1978 
Q 2752 1491 2624 1142 
Q 2496 794 2272 502 
Q 2048 211 1693 -57 
Q 1338 -326 794 -646 
Q 717 -499 621 -390 
Q 525 -282 371 -186 
Q 819 0 1142 189 
Q 1466 378 1690 624 
Q 1914 870 2061 1196 
Q 2208 1523 2298 1978 
Q 2106 1978 1862 1971 
Q 1619 1965 1376 1955 
Q 1133 1946 915 1936 
Q 698 1926 557 1914 
L 557 2464 
Q 704 2451 912 2438 
Q 1120 2426 1360 2419 
Q 1600 2413 1859 2406 
Q 2118 2400 2362 2400 
Q 2381 2586 2387 2771 
Q 2394 2957 2381 3066 
Q 2560 3021 2742 2998 
Q 2925 2976 3053 2982 
Q 3123 2989 3129 2960 
Q 3136 2931 3066 2893 
Q 3040 2880 3001 2752 
Q 2963 2624 2918 2400 
L 4576 2400 
Q 4922 2400 5254 2416 
Q 5587 2432 5894 2464 
L 5894 1914 
Q 5587 1946 5254 1962 
Q 4922 1978 4576 1978 
L 3814 1978 
L 3814 1005 
Q 4211 1235 4422 1417 
Q 4634 1600 4749 1786 
Q 4806 1747 4883 1696 
Q 4960 1645 5037 1600 
Q 5114 1555 5178 1520 
Q 5242 1485 5274 1472 
Q 5350 1440 5353 1411 
Q 5357 1382 5299 1363 
Q 5235 1344 5180 1321 
Q 5126 1299 5056 1260 
Q 4986 1222 4893 1161 
Q 4800 1101 4666 1005 
Q 4518 909 4300 777 
Q 4083 646 3814 499 
Q 3814 320 3824 217 
Q 3834 115 3872 60 
Q 3910 6 3987 -13 
Q 4064 -32 4198 -38 
Q 4410 -51 4643 -44 
Q 4877 -38 5056 -13 
Q 5133 0 5197 29 
Q 5261 58 5315 141 
Q 5370 224 5411 381 
Q 5453 538 5491 806 
Q 5619 653 5756 566 
Q 5894 480 6042 448 
Q 5952 141 5875 -35 
Q 5798 -211 5702 -304 
Q 5606 -397 5478 -432 
Q 5350 -467 5171 -493 
Q 5056 -506 4864 -515 
Q 4672 -525 4464 -525 
Q 4256 -525 4057 -515 
Q 3859 -506 3718 -486 
Q 3616 -467 3539 -435 
Q 3462 -403 3414 -326 
Q 3366 -250 3340 -118 
Q 3315 13 3315 230 
Q 3162 147 3002 64 
Q 2842 -19 2682 -96 
Q 2605 51 2525 144 
Q 2445 237 2330 320 
Q 2490 371 2618 416 
Q 2746 461 2858 509 
Q 2970 557 3078 608 
Q 3187 659 3315 730 
L 3315 1978 
z
M 1472 3872 
Q 1306 3648 1136 3440 
Q 966 3232 832 3085 
Q 666 3251 352 3322 
Q 506 3418 685 3619 
Q 864 3821 1037 4070 
Q 1210 4320 1350 4595 
Q 1491 4870 1562 5114 
Q 1677 5043 1849 4976 
Q 2022 4909 2150 4877 
Q 2227 4858 2236 4832 
Q 2246 4806 2157 4768 
Q 2138 4755 2115 4739 
Q 2093 4723 2051 4672 
Q 2010 4621 1946 4531 
Q 1882 4442 1773 4288 
L 2074 4288 
Q 2342 4288 2515 4291 
Q 2688 4294 2797 4304 
Q 2906 4314 2970 4326 
Q 3034 4339 3078 4358 
L 3078 3789 
Q 3034 3808 2979 3824 
Q 2925 3840 2835 3849 
Q 2746 3859 2614 3865 
Q 2483 3872 2285 3872 
Q 2362 3514 2496 3155 
L 1946 3098 
Q 1933 3290 1897 3491 
Q 1862 3693 1805 3872 
L 1472 3872 
z
M 3846 3891 
Q 3750 3744 3683 3638 
Q 3616 3533 3558 3453 
Q 3501 3373 3453 3302 
Q 3405 3232 3354 3168 
Q 3245 3264 3145 3302 
Q 3046 3341 2880 3373 
Q 3059 3533 3212 3763 
Q 3366 3994 3491 4243 
Q 3616 4493 3702 4742 
Q 3789 4992 3827 5197 
Q 3885 5171 3977 5139 
Q 4070 5107 4169 5075 
Q 4269 5043 4365 5014 
Q 4461 4986 4518 4973 
Q 4659 4941 4538 4883 
Q 4493 4858 4381 4701 
Q 4269 4544 4109 4301 
L 4621 4301 
Q 4934 4301 5155 4307 
Q 5376 4314 5523 4326 
Q 5670 4339 5766 4355 
Q 5862 4371 5926 4397 
L 5926 3834 
Q 5869 3846 5789 3856 
Q 5709 3866 5581 3872 
Q 5453 3878 5267 3884 
Q 5082 3891 4813 3891 
Q 4896 3699 4989 3510 
Q 5082 3322 5146 3232 
L 4595 3098 
Q 4563 3245 4499 3456 
Q 4435 3667 4352 3891 
L 3846 3891 
z
" transform="scale(0.015625)"/>
        <path id="STHeitiTC-Medium-5185" d="M 3277 2669 
Q 3437 2547 3635 2384 
Q 3834 2221 4035 2038 
Q 4237 1856 4425 1670 
Q 4614 1485 4762 1312 
L 4275 928 
Q 4141 1107 3981 1305 
Q 3821 1504 3667 1686 
Q 3514 1869 3376 2019 
Q 3238 2170 3149 2253 
Q 3066 2029 2973 1846 
Q 2880 1664 2755 1485 
Q 2630 1306 2464 1120 
Q 2298 934 2067 717 
Q 1837 902 1555 1024 
Q 1901 1274 2131 1494 
Q 2362 1715 2509 1984 
Q 2656 2253 2736 2608 
Q 2816 2963 2861 3482 
L 1446 3482 
L 1446 -525 
L 864 -525 
Q 896 -314 909 -96 
Q 922 122 922 422 
L 922 3066 
Q 922 3373 909 3600 
Q 896 3827 870 4013 
Q 1056 3994 1264 3981 
Q 1472 3968 1715 3961 
Q 1958 3955 2249 3955 
Q 2541 3955 2893 3955 
Q 2899 4051 2899 4201 
Q 2899 4352 2892 4515 
Q 2886 4678 2876 4832 
Q 2867 4986 2854 5094 
Q 3040 5075 3219 5065 
Q 3398 5056 3565 5069 
Q 3782 5082 3597 4941 
Q 3565 4915 3520 4636 
Q 3475 4358 3450 3955 
Q 3827 3955 4131 3958 
Q 4435 3962 4684 3965 
Q 4934 3968 5142 3981 
Q 5350 3994 5536 4013 
Q 5517 3846 5504 3590 
Q 5491 3334 5491 3066 
L 5491 77 
Q 5491 -102 5459 -224 
Q 5427 -346 5312 -432 
Q 5197 -518 4976 -572 
Q 4755 -627 4384 -672 
Q 4378 -525 4317 -368 
Q 4256 -211 4128 -51 
Q 4384 -77 4544 -67 
Q 4704 -58 4797 -16 
Q 4890 26 4922 96 
Q 4954 166 4954 262 
L 4954 3482 
L 3405 3482 
Q 3373 3264 3341 3043 
Q 3309 2822 3277 2669 
z
" transform="scale(0.015625)"/>
        <path id="STHeitiTC-Medium-b7" d="M 1734 1741 
L 928 1741 
L 928 2560 
L 1734 2560 
L 1734 1741 
z
" transform="scale(0.015625)"/>
        <path id="STHeitiTC-Medium-53ef" d="M 1920 4134 
Q 1594 4134 1373 4131 
Q 1152 4128 992 4121 
Q 832 4115 713 4105 
Q 595 4096 474 4083 
L 474 4685 
Q 595 4666 716 4650 
Q 838 4634 998 4627 
Q 1158 4621 1376 4617 
Q 1594 4614 1920 4614 
L 4486 4614 
Q 4979 4614 5337 4633 
Q 5696 4653 5920 4685 
L 5920 4077 
Q 5754 4096 5526 4109 
Q 5299 4122 5011 4128 
L 5011 38 
Q 5011 -173 4966 -317 
Q 4922 -461 4774 -547 
Q 4627 -634 4352 -662 
Q 4077 -691 3616 -678 
Q 3610 -531 3539 -342 
Q 3469 -154 3322 -6 
Q 3706 -70 3933 -86 
Q 4160 -102 4278 -70 
Q 4397 -38 4429 38 
Q 4461 115 4461 243 
L 4461 4134 
L 1920 4134 
z
M 3136 2899 
L 1670 2899 
L 1670 1664 
L 3136 1664 
L 3136 2899 
z
M 1670 397 
L 1082 397 
Q 1094 518 1104 684 
Q 1114 851 1123 1024 
Q 1133 1197 1136 1357 
Q 1139 1517 1139 1626 
L 1139 2509 
Q 1139 2726 1126 2995 
Q 1114 3264 1094 3450 
Q 1274 3430 1597 3417 
Q 1920 3405 2451 3405 
Q 2982 3405 3260 3417 
Q 3539 3430 3686 3450 
Q 3680 3373 3670 3254 
Q 3661 3136 3654 3005 
Q 3648 2874 3645 2742 
Q 3642 2611 3642 2509 
L 3642 1626 
Q 3642 1408 3654 1171 
Q 3667 934 3699 730 
L 3136 730 
L 3136 1190 
L 1670 1190 
L 1670 397 
z
" transform="scale(0.015625)"/>
        <path id="STHeitiTC-Medium-9006" d="M 4090 1523 
Q 4032 1331 3939 1164 
Q 3846 998 3712 838 
Q 3578 678 3392 521 
Q 3206 365 2950 186 
Q 2822 352 2720 438 
Q 2618 525 2470 589 
Q 2720 698 2905 806 
Q 3091 915 3219 1030 
Q 3347 1146 3433 1267 
Q 3520 1389 3578 1523 
Q 3450 1523 3283 1516 
Q 3117 1510 2947 1500 
Q 2778 1491 2624 1481 
Q 2470 1472 2374 1459 
Q 2432 1766 2432 2016 
L 2432 2368 
Q 2432 2778 2381 2995 
Q 2650 2938 2944 2957 
Q 3034 2963 3034 2921 
Q 3034 2880 2963 2842 
Q 2931 2829 2912 2752 
Q 2893 2675 2893 2630 
L 2893 1946 
L 3699 1946 
Q 3718 2080 3734 2221 
Q 3750 2362 3753 2538 
Q 3757 2714 3753 2950 
Q 3750 3187 3744 3520 
Q 3501 3520 3273 3517 
Q 3046 3514 2844 3507 
Q 2643 3501 2476 3494 
Q 2310 3488 2195 3482 
L 2195 3987 
Q 2464 3968 2957 3958 
Q 3450 3949 4115 3949 
Q 4320 4307 4454 4640 
Q 4589 4973 4640 5203 
Q 4947 5011 5242 4979 
Q 5338 4966 5331 4899 
Q 5325 4832 5184 4774 
Q 5114 4742 4966 4544 
Q 4819 4346 4582 3949 
Q 4768 3949 4963 3952 
Q 5158 3955 5340 3961 
Q 5523 3968 5680 3974 
Q 5837 3981 5946 3987 
L 5946 3482 
Q 5414 3520 4243 3520 
Q 4256 2944 4243 2576 
Q 4230 2208 4186 1946 
L 5075 1946 
L 5075 2349 
Q 5075 2528 5056 2733 
Q 5037 2938 5005 3066 
Q 5146 3021 5309 3001 
Q 5472 2982 5613 2995 
Q 5696 3002 5705 2966 
Q 5715 2931 5626 2861 
Q 5587 2829 5571 2713 
Q 5555 2598 5555 2477 
L 5555 1965 
Q 5555 1677 5600 1459 
Q 5446 1472 5260 1481 
Q 5075 1491 4876 1500 
Q 4678 1510 4476 1516 
Q 4275 1523 4090 1523 
z
M 1254 3795 
Q 1133 4019 995 4227 
Q 858 4435 685 4640 
L 1133 4915 
Q 1306 4710 1443 4518 
Q 1581 4326 1747 4070 
L 1254 3795 
z
M 1562 602 
Q 1728 480 1913 390 
Q 2099 301 2339 240 
Q 2579 179 2899 150 
Q 3219 122 3664 122 
Q 4109 122 4697 154 
Q 5286 186 6061 250 
Q 5933 64 5878 -73 
Q 5824 -211 5805 -403 
Q 5018 -422 4429 -422 
Q 3840 -422 3401 -400 
Q 2963 -378 2649 -333 
Q 2336 -288 2105 -217 
Q 1875 -147 1702 -48 
Q 1530 51 1370 179 
Q 1254 -26 1110 -205 
Q 966 -384 781 -582 
Q 685 -474 573 -394 
Q 461 -314 333 -243 
Q 563 -45 729 153 
Q 896 352 1021 569 
Q 1146 787 1226 1033 
Q 1306 1280 1363 1581 
L 1178 1581 
Q 1037 1581 905 1558 
Q 774 1536 646 1466 
Q 621 1670 585 1792 
Q 550 1914 486 2016 
Q 621 2048 704 2115 
Q 787 2182 864 2317 
L 1229 2982 
L 915 2982 
Q 819 2982 672 2969 
Q 525 2957 429 2938 
L 429 3443 
Q 525 3437 595 3430 
Q 666 3424 749 3421 
Q 832 3418 931 3418 
Q 1030 3418 1184 3418 
Q 1542 3418 1715 3427 
Q 1888 3437 2016 3456 
L 1171 1978 
L 1504 1978 
Q 1600 1978 1718 1984 
Q 1837 1990 1926 2003 
Q 1824 1491 1737 1164 
Q 1651 838 1562 602 
z
M 3258 4147 
Q 3187 4352 3072 4553 
Q 2957 4755 2854 4870 
L 3328 5126 
Q 3418 4986 3536 4778 
Q 3654 4570 3731 4403 
L 3258 4147 
z
" transform="scale(0.015625)"/>
        <path id="STHeitiTC-Medium-ff09" d="M 1120 5267 
Q 1747 4346 1984 3683 
Q 2221 3021 2221 2253 
Q 2221 1485 1961 768 
Q 1702 51 1139 -749 
L 749 -749 
Q 1312 282 1465 912 
Q 1619 1542 1619 2426 
Q 1619 3046 1440 3657 
Q 1261 4269 742 5267 
L 1120 5267 
z
" transform="scale(0.015625)"/>
       </defs>
       <use xlink:href="#STHeitiTC-Medium-6539"/>
       <use xlink:href="#STHeitiTC-Medium-6587" x="99.999985"/>
       <use xlink:href="#STHeitiTC-Medium-6863" x="199.999969"/>
       <use xlink:href="#STHeitiTC-Medium-20" x="299.999954"/>
       <use xlink:href="#STHeitiTC-Medium-2f" x="324.999939"/>
       <use xlink:href="#STHeitiTC-Medium-20" x="368.699936"/>
       <use xlink:href="#STHeitiTC-Medium-6539" x="393.699921"/>
       <use xlink:href="#STHeitiTC-Medium-4ee3" x="493.699905"/>
       <use xlink:href="#STHeitiTC-Medium-7801" x="593.69989"/>
       <use xlink:href="#STHeitiTC-Medium-ff08" x="693.699875"/>
       <use xlink:href="#STHeitiTC-Medium-7b3c" x="793.69986"/>
       <use xlink:href="#STHeitiTC-Medium-5185" x="893.699844"/>
       <use xlink:href="#STHeitiTC-Medium-b7" x="993.699829"/>
       <use xlink:href="#STHeitiTC-Medium-53ef" x="1093.699814"/>
       <use xlink:href="#STHeitiTC-Medium-9006" x="1193.699799"/>
       <use xlink:href="#STHeitiTC-Medium-ff09" x="1293.699783"/>
      </g>
     </g>
    </g>
    <g id="xtick_2">
     <g id="line2d_2">
      <g>
       <use xlink:href="#m5bb6b46610" x="202.089527" y="218.45975" style="fill: #333333; stroke: #333333; stroke-width: 0.8"/>
      </g>
     </g>
     <g id="text_2">
      <!-- 删本地文件 git 可恢复（笼内·可逆） -->
      <g style="fill: #333333" transform="translate(122.707378 233.277953) scale(0.095 -0.095)">
       <defs>
        <path id="STHeitiTC-Medium-5220" d="M 5888 4915 
Q 5856 4890 5843 4813 
Q 5830 4736 5830 4666 
L 5830 269 
Q 5830 -19 5811 -179 
Q 5792 -339 5705 -425 
Q 5619 -512 5443 -544 
Q 5267 -576 4947 -602 
Q 4928 -269 4678 -19 
Q 4902 -45 5036 -45 
Q 5171 -45 5241 -19 
Q 5312 6 5331 54 
Q 5350 102 5350 166 
L 5350 3853 
Q 5350 4038 5347 4224 
Q 5344 4410 5334 4579 
Q 5325 4749 5315 4883 
Q 5306 5018 5299 5101 
Q 5414 5075 5552 5065 
Q 5690 5056 5837 5069 
Q 5939 5075 5955 5030 
Q 5971 4986 5888 4915 
z
M 4941 4307 
Q 4928 4288 4912 4230 
Q 4896 4173 4896 4102 
L 4896 1683 
Q 4896 1485 4902 1209 
Q 4909 934 4928 698 
L 4410 698 
Q 4429 941 4441 1213 
Q 4454 1485 4454 1683 
L 4454 3571 
Q 4454 3693 4451 3830 
Q 4448 3968 4445 4096 
Q 4442 4224 4432 4333 
Q 4422 4442 4410 4512 
Q 4538 4480 4678 4473 
Q 4819 4467 4909 4474 
Q 4986 4480 4998 4441 
Q 5011 4403 4941 4307 
z
M 3546 2771 
L 3546 4435 
L 3091 4435 
L 3091 2771 
L 3546 2771 
z
M 2253 416 
Q 2253 134 2233 -29 
Q 2214 -192 2147 -281 
Q 2080 -371 1949 -412 
Q 1818 -454 1594 -486 
Q 1574 -339 1491 -169 
Q 1408 0 1312 90 
Q 1613 26 1718 86 
Q 1824 147 1824 243 
L 1824 2387 
L 1331 2387 
Q 1318 1350 1180 608 
Q 1043 -134 774 -518 
Q 691 -403 614 -316 
Q 538 -230 429 -122 
Q 550 96 640 339 
Q 730 582 787 880 
Q 845 1178 870 1542 
Q 896 1907 902 2381 
Q 698 2368 518 2342 
L 518 2816 
Q 717 2784 902 2778 
L 902 3834 
Q 902 4128 889 4409 
Q 877 4691 858 4851 
Q 1011 4826 1187 4816 
Q 1363 4806 1568 4806 
Q 1786 4806 1962 4816 
Q 2138 4826 2298 4851 
Q 2278 4698 2265 4413 
Q 2253 4128 2253 3834 
L 2253 2771 
L 2662 2771 
L 2662 3859 
Q 2662 4006 2659 4156 
Q 2656 4307 2649 4444 
Q 2643 4582 2636 4694 
Q 2630 4806 2624 4877 
Q 2784 4851 2950 4841 
Q 3117 4832 3322 4832 
Q 3533 4832 3702 4845 
Q 3872 4858 4019 4877 
Q 4013 4806 4003 4694 
Q 3994 4582 3987 4444 
Q 3981 4307 3977 4156 
Q 3974 4006 3974 3859 
L 3974 2784 
Q 4045 2790 4109 2796 
Q 4173 2803 4237 2816 
L 4237 2342 
Q 4173 2355 4109 2361 
Q 4045 2368 3974 2374 
L 3974 307 
Q 3974 58 3958 -80 
Q 3942 -218 3878 -294 
Q 3814 -371 3680 -403 
Q 3546 -435 3309 -474 
Q 3290 -346 3242 -208 
Q 3194 -70 3085 70 
Q 3238 26 3331 13 
Q 3424 0 3472 16 
Q 3520 32 3533 73 
Q 3546 115 3546 186 
L 3546 2387 
L 3091 2387 
Q 3091 1971 3081 1657 
Q 3072 1344 3049 1101 
Q 3027 858 2992 669 
Q 2957 480 2909 307 
Q 2861 134 2790 -32 
Q 2720 -198 2637 -390 
Q 2586 -301 2502 -201 
Q 2419 -102 2330 -13 
Q 2438 192 2502 377 
Q 2566 563 2601 816 
Q 2637 1069 2649 1440 
Q 2662 1811 2662 2387 
L 2253 2387 
L 2253 416 
z
M 1824 4422 
L 1331 4422 
L 1331 2771 
L 1824 2771 
L 1824 4422 
z
" transform="scale(0.015625)"/>
        <path id="STHeitiTC-Medium-672c" d="M 3507 877 
Q 3885 883 4163 892 
Q 4442 902 4640 928 
L 4640 371 
Q 4442 390 4150 403 
Q 3859 416 3507 422 
Q 3507 307 3513 166 
Q 3520 26 3526 -124 
Q 3533 -275 3542 -422 
Q 3552 -570 3565 -698 
L 2912 -698 
Q 2925 -570 2934 -422 
Q 2944 -275 2947 -124 
Q 2950 26 2953 166 
Q 2957 307 2957 422 
Q 2592 416 2288 403 
Q 1984 390 1779 371 
L 1779 928 
Q 1990 902 2291 892 
Q 2592 883 2957 877 
L 2957 3424 
L 2925 3424 
Q 2803 2970 2588 2512 
Q 2374 2054 2089 1628 
Q 1805 1203 1465 819 
Q 1126 435 755 128 
Q 653 262 496 384 
Q 339 506 218 557 
Q 1011 1056 1587 1750 
Q 2163 2445 2509 3424 
Q 1869 3418 1376 3408 
Q 883 3398 499 3366 
L 499 3962 
Q 960 3930 1552 3914 
Q 2144 3898 2957 3898 
L 2957 4224 
Q 2957 4666 2947 4886 
Q 2938 5107 2906 5229 
Q 2976 5216 3069 5206 
Q 3162 5197 3258 5190 
Q 3354 5184 3440 5184 
Q 3526 5184 3597 5190 
Q 3706 5203 3718 5155 
Q 3731 5107 3635 5050 
Q 3597 5030 3571 5001 
Q 3546 4973 3533 4918 
Q 3520 4864 3513 4777 
Q 3507 4691 3507 4550 
L 3507 3898 
Q 4275 3904 4848 3917 
Q 5421 3930 5856 3962 
L 5856 3366 
Q 5485 3392 5014 3405 
Q 4544 3418 3936 3424 
Q 4218 2464 4755 1824 
Q 5293 1184 6176 877 
Q 5997 755 5872 601 
Q 5747 448 5658 262 
Q 5267 512 4937 809 
Q 4608 1107 4345 1484 
Q 4083 1862 3881 2339 
Q 3680 2816 3552 3424 
L 3507 3424 
L 3507 877 
z
" transform="scale(0.015625)"/>
        <path id="STHeitiTC-Medium-5730" d="M 4282 3546 
Q 4486 3616 4684 3693 
Q 4883 3770 5062 3840 
Q 5242 3910 5386 3977 
Q 5530 4045 5626 4096 
L 5542 1875 
Q 5536 1702 5510 1590 
Q 5485 1478 5401 1392 
Q 5318 1306 5158 1235 
Q 4998 1165 4730 1088 
Q 4704 1254 4643 1411 
Q 4582 1568 4461 1715 
Q 4653 1696 4771 1702 
Q 4890 1709 4954 1741 
Q 5018 1773 5040 1833 
Q 5062 1894 5062 1984 
L 5101 3334 
L 4282 3053 
L 4282 1555 
Q 4282 1389 4291 1149 
Q 4301 909 4320 666 
L 3750 666 
Q 3776 902 3789 1145 
Q 3802 1389 3802 1555 
L 3802 2886 
L 3110 2643 
L 3110 544 
Q 3110 397 3123 310 
Q 3136 224 3184 173 
Q 3232 122 3315 99 
Q 3398 77 3546 70 
Q 3635 64 3801 67 
Q 3968 70 4160 73 
Q 4352 77 4544 86 
Q 4736 96 4877 109 
Q 5037 122 5136 157 
Q 5235 192 5296 285 
Q 5357 378 5395 538 
Q 5434 698 5472 966 
Q 5587 787 5737 700 
Q 5888 614 6067 589 
Q 5958 269 5884 89 
Q 5811 -90 5718 -182 
Q 5626 -275 5494 -310 
Q 5363 -346 5146 -365 
Q 4998 -378 4768 -390 
Q 4538 -403 4275 -409 
Q 4013 -416 3747 -416 
Q 3482 -416 3258 -410 
Q 3059 -403 2937 -368 
Q 2816 -333 2749 -253 
Q 2682 -173 2659 -38 
Q 2637 96 2637 301 
L 2637 2470 
Q 2451 2394 2329 2336 
Q 2208 2278 2138 2234 
L 1984 2797 
Q 2080 2816 2253 2864 
Q 2426 2912 2637 2982 
Q 2637 3206 2630 3446 
Q 2624 3686 2617 3897 
Q 2611 4109 2598 4265 
Q 2586 4422 2579 4486 
Q 2726 4461 2867 4454 
Q 3008 4448 3200 4461 
Q 3302 4474 3312 4416 
Q 3322 4358 3232 4326 
Q 3181 4301 3145 4227 
Q 3110 4154 3110 4096 
L 3110 3142 
L 3802 3379 
L 3802 4435 
Q 3802 4672 3782 4886 
Q 3763 5101 3731 5184 
Q 3917 5158 4057 5148 
Q 4198 5139 4371 5139 
Q 4499 5139 4505 5110 
Q 4512 5082 4416 5037 
Q 4346 5005 4314 4905 
Q 4282 4806 4282 4678 
L 4282 3546 
z
M 1472 902 
Q 1658 973 1837 1053 
Q 2016 1133 2221 1242 
Q 2170 1030 2182 899 
Q 2195 768 2272 646 
Q 2112 614 1885 531 
Q 1658 448 1418 339 
Q 1178 230 947 105 
Q 717 -19 550 -128 
Q 512 38 454 233 
Q 397 429 333 582 
Q 672 653 986 742 
L 986 2893 
Q 781 2893 617 2880 
Q 454 2867 326 2848 
L 326 3411 
Q 467 3386 624 3376 
Q 781 3366 986 3360 
Q 986 4122 970 4512 
Q 954 4902 922 5037 
Q 1184 4992 1530 4992 
Q 1606 4992 1616 4960 
Q 1626 4928 1555 4890 
Q 1510 4864 1491 4822 
Q 1472 4781 1472 4730 
L 1472 3360 
Q 1664 3366 1814 3376 
Q 1965 3386 2093 3411 
L 2093 2848 
Q 1965 2867 1814 2876 
Q 1664 2886 1472 2893 
L 1472 902 
z
" transform="scale(0.015625)"/>
        <path id="STHeitiTC-Medium-4ef6" d="M 1792 -691 
L 1222 -691 
Q 1254 -410 1276 -19 
Q 1299 371 1299 736 
L 1299 3014 
Q 1158 2771 1004 2528 
Q 851 2285 659 1997 
Q 589 2106 493 2221 
Q 397 2336 269 2445 
Q 422 2611 544 2771 
Q 666 2931 774 3100 
Q 883 3270 982 3452 
Q 1082 3635 1178 3846 
Q 1312 4147 1433 4480 
Q 1555 4813 1645 5101 
Q 1805 5030 1939 4982 
Q 2074 4934 2240 4890 
Q 2349 4864 2345 4819 
Q 2342 4774 2214 4691 
Q 2189 4672 2089 4499 
Q 1990 4326 1792 3923 
L 1792 -691 
z
M 2957 3110 
Q 2880 2874 2809 2694 
Q 2739 2515 2637 2278 
Q 2515 2323 2374 2358 
Q 2234 2394 2099 2413 
Q 2368 2874 2563 3482 
Q 2758 4090 2867 4755 
Q 2995 4704 3152 4659 
Q 3309 4614 3456 4582 
Q 3546 4563 3482 4480 
Q 3437 4416 3398 4342 
Q 3360 4269 3318 4166 
Q 3277 4064 3225 3920 
Q 3174 3776 3110 3565 
L 4032 3565 
L 4032 4154 
Q 4032 4486 4019 4742 
Q 4006 4998 3987 5126 
Q 4128 5107 4288 5104 
Q 4448 5101 4608 5114 
Q 4730 5120 4742 5072 
Q 4755 5024 4653 4960 
Q 4614 4934 4595 4816 
Q 4576 4698 4576 4467 
L 4576 3565 
Q 5018 3571 5360 3584 
Q 5702 3597 5882 3616 
L 5882 3046 
Q 5696 3066 5353 3085 
Q 5011 3104 4576 3110 
L 4576 1837 
Q 5075 1843 5452 1859 
Q 5830 1875 6125 1901 
L 6125 1293 
Q 5830 1325 5452 1344 
Q 5075 1363 4576 1370 
L 4576 467 
Q 4576 358 4579 214 
Q 4582 70 4592 -86 
Q 4602 -243 4611 -396 
Q 4621 -550 4634 -685 
L 3974 -685 
Q 4000 -461 4016 -141 
Q 4032 179 4032 467 
L 4032 1370 
Q 3475 1363 3040 1344 
Q 2605 1325 2298 1293 
L 2298 1901 
Q 2611 1875 3043 1859 
Q 3475 1843 4032 1837 
L 4032 3110 
L 2957 3110 
z
" transform="scale(0.015625)"/>
        <path id="STHeitiTC-Medium-67" d="M 3930 1203 
Q 3930 512 3811 179 
Q 3693 -154 3453 -384 
Q 3213 -614 2877 -732 
Q 2541 -851 2138 -851 
Q 774 -851 320 301 
L 883 301 
Q 1254 -365 2118 -365 
Q 2515 -365 2828 -211 
Q 3142 -58 3270 198 
Q 3398 454 3398 986 
L 3398 1018 
Q 3149 736 2797 589 
Q 2445 442 2067 442 
Q 1312 442 803 960 
Q 294 1478 301 2182 
Q 294 2918 832 3440 
Q 1370 3962 2109 3962 
Q 2848 3962 3398 3360 
L 3398 3872 
L 3930 3872 
L 3930 1203 
z
M 3418 2182 
Q 3418 2733 3050 3091 
Q 2682 3450 2150 3450 
Q 1587 3450 1206 3062 
Q 826 2675 826 2163 
Q 826 1651 1190 1296 
Q 1555 941 2124 941 
Q 2694 941 3056 1289 
Q 3418 1638 3418 2182 
z
" transform="scale(0.015625)"/>
        <path id="STHeitiTC-Medium-69" d="M 640 5184 
Q 813 5184 931 5065 
Q 1050 4947 1050 4777 
Q 1050 4608 931 4489 
Q 813 4371 643 4371 
Q 474 4371 355 4492 
Q 237 4614 237 4777 
Q 237 4941 355 5062 
Q 474 5184 640 5184 
z
M 909 384 
L 378 384 
L 378 3872 
L 909 3872 
L 909 384 
z
" transform="scale(0.015625)"/>
        <path id="STHeitiTC-Medium-74" d="M 2048 3411 
L 1357 3411 
L 1357 966 
Q 1357 832 1395 803 
Q 1434 774 1587 774 
L 1894 774 
L 1894 320 
Q 1587 269 1427 269 
Q 1120 269 973 419 
Q 826 570 826 896 
L 826 3411 
L 224 3411 
L 224 3872 
L 826 3872 
L 826 5184 
L 1357 5184 
L 1357 3872 
L 2048 3872 
L 2048 3411 
z
" transform="scale(0.015625)"/>
        <path id="STHeitiTC-Medium-6062" d="M 3782 2445 
Q 3750 2080 3692 1734 
Q 3635 1389 3565 1101 
L 3078 1178 
Q 3206 1478 3286 1814 
Q 3366 2150 3373 2496 
L 3782 2445 
z
M 5856 2586 
Q 5939 2566 5850 2496 
Q 5818 2464 5741 2333 
Q 5664 2202 5574 2019 
Q 5485 1837 5398 1632 
Q 5312 1427 5254 1254 
L 4794 1382 
Q 4864 1530 4934 1715 
Q 5005 1901 5072 2093 
Q 5139 2285 5193 2467 
Q 5248 2650 5280 2797 
Q 5331 2765 5408 2733 
Q 5485 2701 5568 2672 
Q 5651 2643 5728 2617 
Q 5805 2592 5856 2586 
z
M 1875 4819 
Q 1824 4781 1798 4707 
Q 1773 4634 1773 4506 
L 1773 461 
Q 1773 218 1789 -92 
Q 1805 -403 1830 -678 
L 1229 -678 
Q 1261 -416 1280 -109 
Q 1299 198 1299 467 
L 1299 4109 
Q 1299 4326 1280 4582 
Q 1261 4838 1229 5043 
Q 1363 5011 1536 5001 
Q 1709 4992 1824 4998 
Q 1965 5005 1984 4957 
Q 2003 4909 1875 4819 
z
M 979 3635 
Q 954 3450 931 3238 
Q 909 3027 889 2800 
Q 870 2573 854 2349 
Q 838 2125 832 1920 
L 282 1958 
Q 326 2157 364 2374 
Q 403 2592 428 2819 
Q 454 3046 473 3267 
Q 493 3488 499 3693 
L 979 3635 
z
M 2195 2586 
Q 2125 2854 2048 3068 
Q 1971 3283 1856 3533 
L 2278 3706 
Q 2387 3437 2476 3219 
Q 2566 3002 2669 2778 
L 2195 2586 
z
M 3706 3750 
Q 3642 3482 3590 3296 
Q 3539 3110 3507 3014 
Q 3379 2637 3257 2320 
Q 3136 2003 2992 1712 
Q 2848 1421 2675 1139 
Q 2502 858 2272 544 
Q 2099 762 1850 902 
Q 2074 1152 2246 1389 
Q 2419 1626 2560 1888 
Q 2701 2150 2819 2454 
Q 2938 2758 3053 3142 
Q 3098 3283 3136 3433 
Q 3174 3584 3206 3738 
Q 2829 3731 2509 3699 
L 2509 4243 
Q 2682 4224 2874 4214 
Q 3066 4205 3290 4192 
Q 3379 4717 3418 5184 
Q 3584 5120 3776 5081 
Q 3968 5043 4096 5043 
Q 4211 5043 4122 4979 
Q 4051 4928 3977 4739 
Q 3904 4550 3814 4186 
Q 4218 4186 4522 4189 
Q 4826 4192 5069 4198 
Q 5312 4205 5513 4214 
Q 5715 4224 5914 4237 
L 5914 3699 
Q 5715 3718 5532 3728 
Q 5350 3738 5110 3744 
Q 4870 3750 4537 3750 
Q 4205 3750 3706 3750 
z
M 4390 1088 
Q 4275 755 4099 489 
Q 3923 224 3699 6 
Q 3475 -211 3206 -387 
Q 2938 -563 2637 -717 
Q 2496 -442 2246 -269 
Q 2618 -141 2902 9 
Q 3187 160 3401 352 
Q 3616 544 3763 787 
Q 3910 1030 4006 1350 
Q 4064 1549 4096 1779 
Q 4128 2010 4134 2253 
Q 4141 2496 4131 2742 
Q 4122 2989 4102 3226 
Q 4262 3194 4403 3178 
Q 4544 3162 4678 3149 
Q 4838 3136 4717 3014 
Q 4685 2982 4665 2931 
Q 4646 2880 4627 2790 
Q 4608 2701 4595 2560 
Q 4582 2419 4576 2214 
Q 4570 1971 4538 1747 
Q 4698 1024 5091 566 
Q 5485 109 6118 -45 
Q 5984 -128 5881 -313 
Q 5779 -499 5734 -659 
Q 5280 -422 4918 22 
Q 4557 467 4390 1088 
z
" transform="scale(0.015625)"/>
        <path id="STHeitiTC-Medium-590d" d="M 4659 2605 
L 1837 2605 
L 1837 2182 
L 4659 2182 
L 4659 2605 
z
M 4659 3347 
L 1837 3347 
L 1837 2963 
L 4659 2963 
L 4659 3347 
z
M 3379 422 
Q 3648 557 3875 723 
Q 4102 890 4294 1075 
L 2413 1075 
Q 2650 870 2880 710 
Q 3110 550 3379 422 
z
M 1920 1056 
Q 1709 915 1456 777 
Q 1203 640 883 480 
Q 800 595 713 678 
Q 627 762 461 851 
Q 986 1005 1427 1248 
Q 1869 1491 2163 1798 
Q 1926 1786 1753 1782 
Q 1581 1779 1357 1773 
Q 1376 1990 1385 2204 
Q 1395 2419 1382 2726 
L 1382 3718 
L 3110 3718 
Q 3744 3706 4233 3715 
Q 4723 3725 5165 3750 
Q 5158 3661 5155 3536 
Q 5152 3411 5149 3270 
Q 5146 3130 5146 2986 
Q 5146 2842 5146 2714 
Q 5146 2541 5146 2413 
Q 5146 2285 5149 2182 
Q 5152 2080 5155 1984 
Q 5158 1888 5165 1773 
Q 4922 1786 4682 1795 
Q 4442 1805 4163 1808 
Q 3885 1811 3542 1811 
Q 3200 1811 2752 1811 
Q 2675 1715 2595 1625 
Q 2515 1536 2426 1453 
L 5242 1453 
Q 4973 1107 4653 796 
Q 4333 486 3878 218 
Q 4422 32 4934 -16 
Q 5446 -64 6003 -26 
Q 5875 -198 5827 -358 
Q 5779 -518 5779 -666 
Q 5382 -608 5059 -550 
Q 4736 -493 4451 -419 
Q 4166 -346 3904 -253 
Q 3642 -160 3366 -38 
Q 3040 -186 2681 -301 
Q 2323 -416 1974 -499 
Q 1626 -582 1299 -624 
Q 973 -666 710 -666 
Q 678 -538 604 -406 
Q 531 -275 403 -147 
Q 678 -173 988 -160 
Q 1299 -147 1619 -99 
Q 1939 -51 2256 29 
Q 2573 109 2867 211 
Q 2630 365 2396 579 
Q 2163 794 1920 1056 
z
M 4614 4499 
Q 4845 4499 5008 4502 
Q 5171 4506 5296 4509 
Q 5421 4512 5517 4521 
Q 5613 4531 5702 4550 
L 5702 4045 
Q 5613 4058 5517 4067 
Q 5421 4077 5299 4083 
Q 5178 4090 5014 4093 
Q 4851 4096 4621 4096 
L 1696 4096 
Q 1478 3853 1238 3625 
Q 998 3398 774 3213 
Q 691 3334 620 3414 
Q 550 3494 390 3565 
Q 934 3872 1308 4262 
Q 1683 4653 1952 5114 
Q 2080 5069 2224 5024 
Q 2368 4979 2483 4954 
Q 2534 4941 2528 4909 
Q 2522 4877 2470 4864 
Q 2432 4851 2329 4777 
Q 2227 4704 2042 4499 
L 4614 4499 
z
" transform="scale(0.015625)"/>
       </defs>
       <use xlink:href="#STHeitiTC-Medium-5220"/>
       <use xlink:href="#STHeitiTC-Medium-672c" x="99.999985"/>
       <use xlink:href="#STHeitiTC-Medium-5730" x="199.999969"/>
       <use xlink:href="#STHeitiTC-Medium-6587" x="299.999954"/>
       <use xlink:href="#STHeitiTC-Medium-4ef6" x="399.999939"/>
       <use xlink:href="#STHeitiTC-Medium-20" x="499.999924"/>
       <use xlink:href="#STHeitiTC-Medium-67" x="524.999908"/>
       <use xlink:href="#STHeitiTC-Medium-69" x="592.299896"/>
       <use xlink:href="#STHeitiTC-Medium-74" x="612.299881"/>
       <use xlink:href="#STHeitiTC-Medium-20" x="646.199875"/>
       <use xlink:href="#STHeitiTC-Medium-53ef" x="671.19986"/>
       <use xlink:href="#STHeitiTC-Medium-6062" x="771.199844"/>
       <use xlink:href="#STHeitiTC-Medium-590d" x="871.199829"/>
       <use xlink:href="#STHeitiTC-Medium-ff08" x="971.199814"/>
       <use xlink:href="#STHeitiTC-Medium-7b3c" x="1071.199799"/>
       <use xlink:href="#STHeitiTC-Medium-5185" x="1171.199783"/>
       <use xlink:href="#STHeitiTC-Medium-b7" x="1271.199768"/>
       <use xlink:href="#STHeitiTC-Medium-53ef" x="1371.199753"/>
       <use xlink:href="#STHeitiTC-Medium-9006" x="1471.199738"/>
       <use xlink:href="#STHeitiTC-Medium-ff09" x="1571.199722"/>
      </g>
     </g>
    </g>
    <g id="xtick_3">
     <g id="line2d_3">
      <g>
       <use xlink:href="#m5bb6b46610" x="316.631121" y="218.45975" style="fill: #333333; stroke: #333333; stroke-width: 0.8"/>
      </g>
     </g>
     <g id="text_3">
      <!-- 终端 rm 绕过废纸篓（出笼·不可逆） -->
      <g style="fill: #333333" transform="translate(237.121316 233.15475) scale(0.095 -0.095)">
       <defs>
        <path id="STHeitiTC-Medium-7ec8" d="M 5024 -736 
Q 4557 -384 4041 -102 
Q 3526 179 2970 403 
L 3290 800 
Q 3859 576 4371 317 
Q 4883 58 5357 -256 
L 5024 -736 
z
M 2528 832 
Q 2464 685 2448 553 
Q 2432 422 2458 320 
Q 1702 198 1209 83 
Q 717 -32 467 -141 
Q 448 -13 397 163 
Q 346 339 275 486 
Q 410 486 595 499 
Q 781 512 1046 550 
Q 1312 589 1673 656 
Q 2035 723 2528 832 
z
M 5018 653 
Q 4870 749 4688 845 
Q 4506 941 4310 1030 
Q 4115 1120 3923 1197 
Q 3731 1274 3571 1325 
L 3834 1715 
Q 4198 1587 4595 1411 
Q 4992 1235 5306 1069 
L 5018 653 
z
M 1069 2880 
Q 941 2874 781 2848 
Q 621 2822 531 2790 
Q 512 2925 467 3072 
Q 422 3219 371 3315 
Q 474 3366 592 3494 
Q 710 3622 848 3846 
Q 986 4070 1152 4400 
Q 1318 4730 1523 5184 
Q 1670 5056 1811 4973 
Q 1952 4890 2054 4858 
Q 2125 4832 2128 4797 
Q 2131 4762 2061 4730 
Q 1997 4698 1939 4653 
Q 1882 4608 1773 4464 
Q 1664 4320 1481 4035 
Q 1299 3750 986 3251 
L 1818 3264 
Q 1984 3571 2073 3782 
Q 2163 3994 2214 4141 
Q 2349 4019 2480 3929 
Q 2611 3840 2694 3808 
Q 2848 3738 2688 3693 
Q 2650 3680 2582 3609 
Q 2515 3539 2368 3331 
Q 2221 3123 1968 2739 
Q 1715 2355 1312 1715 
Q 1587 1734 1862 1779 
Q 2138 1824 2432 1907 
Q 2406 1798 2406 1673 
Q 2406 1549 2419 1453 
L 1549 1312 
Q 1299 1280 1123 1232 
Q 947 1184 787 1114 
Q 768 1261 723 1421 
Q 678 1581 621 1690 
Q 698 1709 781 1763 
Q 864 1818 979 1946 
Q 1094 2074 1248 2301 
Q 1402 2528 1613 2899 
L 1069 2880 
z
M 4218 2362 
Q 3898 2086 3568 1881 
Q 3238 1677 2874 1517 
Q 2790 1626 2700 1712 
Q 2611 1798 2496 1882 
Q 2912 2003 3286 2211 
Q 3661 2419 3936 2662 
Q 3642 3027 3443 3533 
Q 3315 3334 3168 3126 
Q 3021 2918 2874 2720 
Q 2778 2797 2653 2861 
Q 2528 2925 2406 2970 
Q 2598 3123 2796 3369 
Q 2995 3616 3171 3917 
Q 3347 4218 3491 4547 
Q 3635 4877 3725 5184 
Q 3872 5094 4025 5030 
Q 4179 4966 4307 4941 
Q 4493 4902 4339 4813 
Q 4269 4774 4169 4662 
Q 4070 4550 3942 4346 
L 5728 4346 
Q 5440 3827 5155 3408 
Q 4870 2989 4563 2675 
Q 4838 2464 5209 2329 
Q 5581 2195 6125 2099 
Q 5997 1971 5910 1814 
Q 5824 1658 5786 1504 
Q 5280 1677 4896 1885 
Q 4512 2093 4218 2362 
z
M 4256 2970 
Q 4371 3091 4460 3196 
Q 4550 3302 4630 3414 
Q 4710 3526 4784 3644 
Q 4858 3763 4941 3910 
L 3693 3910 
Q 3731 3789 3792 3657 
Q 3853 3526 3929 3398 
Q 4006 3270 4092 3158 
Q 4179 3046 4256 2970 
z
" transform="scale(0.015625)"/>
        <path id="STHeitiTC-Medium-7aef" d="M 774 1165 
Q 781 1306 768 1526 
Q 755 1747 726 1971 
Q 698 2195 659 2390 
Q 621 2586 576 2675 
L 1037 2778 
Q 1062 2611 1097 2406 
Q 1133 2202 1165 1990 
Q 1197 1779 1222 1580 
Q 1248 1382 1267 1235 
L 774 1165 
z
M 2400 3347 
Q 2214 3373 1987 3382 
Q 1760 3392 1421 3392 
Q 1088 3392 835 3382 
Q 582 3373 397 3347 
L 397 3827 
Q 768 3789 1434 3789 
Q 1766 3789 1996 3798 
Q 2227 3808 2400 3827 
L 2400 3347 
z
M 1229 3904 
Q 1222 4006 1203 4121 
Q 1184 4237 1152 4358 
Q 1120 4480 1078 4592 
Q 1037 4704 992 4800 
L 1581 4928 
Q 1587 4838 1612 4723 
Q 1638 4608 1673 4486 
Q 1709 4365 1744 4243 
Q 1779 4122 1818 4026 
L 1229 3904 
z
M 3968 4557 
Q 3968 4749 3955 4921 
Q 3942 5094 3930 5184 
Q 4058 5158 4198 5148 
Q 4339 5139 4474 5146 
Q 4602 5152 4506 5050 
Q 4474 5011 4454 4912 
Q 4435 4813 4435 4685 
L 4435 3750 
L 5222 3750 
L 5222 4467 
Q 5222 4730 5190 4877 
Q 5306 4864 5446 4854 
Q 5587 4845 5670 4845 
Q 5728 4845 5737 4816 
Q 5747 4787 5696 4717 
Q 5683 4698 5673 4640 
Q 5664 4582 5661 4435 
Q 5658 4288 5658 4032 
Q 5658 3776 5658 3360 
Q 5395 3373 5049 3382 
Q 4704 3392 4186 3392 
Q 3686 3392 3360 3382 
Q 3034 3373 2810 3360 
Q 2829 3450 2838 3606 
Q 2848 3763 2848 3898 
L 2848 4461 
Q 2848 4589 2835 4701 
Q 2822 4813 2810 4858 
Q 2854 4851 2921 4844 
Q 2989 4838 3059 4838 
Q 3130 4838 3194 4838 
Q 3258 4838 3296 4845 
Q 3443 4864 3328 4736 
Q 3315 4717 3305 4662 
Q 3296 4608 3286 4496 
Q 3277 4384 3273 4201 
Q 3270 4019 3270 3750 
L 3968 3750 
L 3968 4557 
z
M 1363 582 
Q 1427 826 1491 1155 
Q 1555 1485 1609 1817 
Q 1664 2150 1699 2451 
Q 1734 2752 1747 2938 
Q 2029 2835 2278 2835 
Q 2317 2835 2326 2819 
Q 2336 2803 2285 2752 
Q 2272 2739 2224 2566 
Q 2176 2394 2105 2112 
Q 2035 1830 1948 1459 
Q 1862 1088 1766 678 
Q 2099 774 2419 909 
Q 2374 762 2364 621 
Q 2355 480 2368 365 
Q 2157 326 1910 256 
Q 1664 186 1417 106 
Q 1171 26 940 -64 
Q 710 -154 531 -237 
Q 518 -102 483 90 
Q 448 282 410 429 
Q 902 486 1363 582 
z
M 3930 2554 
Q 3494 2547 3168 2534 
Q 2842 2522 2598 2496 
L 2598 3002 
Q 2899 2970 3305 2960 
Q 3712 2950 4288 2950 
Q 4870 2950 5280 2960 
Q 5690 2970 5997 3002 
L 5997 2496 
Q 5709 2528 5325 2541 
Q 4941 2554 4410 2554 
Q 4358 2394 4313 2240 
Q 4269 2086 4237 1907 
Q 4685 1907 5078 1920 
Q 5472 1933 5869 1965 
Q 5856 1850 5846 1677 
Q 5837 1504 5837 1408 
L 5837 -109 
Q 5837 -237 5814 -323 
Q 5792 -410 5709 -474 
Q 5626 -538 5469 -589 
Q 5312 -640 5043 -698 
Q 5030 -557 4988 -413 
Q 4947 -269 4858 -134 
Q 5024 -141 5126 -134 
Q 5229 -128 5283 -105 
Q 5338 -83 5354 -41 
Q 5370 0 5370 64 
L 5370 1562 
L 4819 1562 
L 4819 640 
Q 4819 474 4825 298 
Q 4832 122 4845 -26 
L 4390 -26 
Q 4410 141 4416 307 
Q 4422 474 4422 640 
L 4422 1562 
L 3962 1562 
L 3962 614 
Q 3962 448 3968 269 
Q 3974 90 3987 -51 
L 3526 -51 
Q 3539 83 3548 265 
Q 3558 448 3558 614 
L 3558 1562 
L 3104 1562 
L 3104 -576 
L 2611 -576 
Q 2637 -422 2646 -268 
Q 2656 -115 2656 58 
L 2656 1408 
Q 2656 1555 2643 1702 
Q 2630 1850 2611 1958 
Q 2880 1933 3177 1923 
Q 3475 1914 3814 1907 
Q 3853 2093 3878 2249 
Q 3904 2406 3930 2554 
z
" transform="scale(0.015625)"/>
        <path id="STHeitiTC-Medium-72" d="M 1914 3821 
L 1638 3373 
Q 1530 3430 1427 3430 
Q 1229 3430 1069 3235 
Q 909 3040 829 2723 
Q 749 2406 749 1581 
L 749 384 
L 211 384 
L 211 3872 
L 749 3872 
L 749 3494 
Q 909 3731 1072 3846 
Q 1235 3962 1443 3962 
Q 1651 3962 1914 3821 
z
" transform="scale(0.015625)"/>
        <path id="STHeitiTC-Medium-6d" d="M 5613 384 
L 5075 384 
L 5075 2285 
Q 5075 2739 5020 2950 
Q 4966 3162 4784 3306 
Q 4602 3450 4304 3450 
Q 4006 3450 3744 3258 
Q 3482 3066 3379 2736 
Q 3277 2406 3277 1760 
L 3277 384 
L 2758 384 
L 2758 2170 
Q 2758 2694 2704 2924 
Q 2650 3155 2464 3302 
Q 2278 3450 1996 3450 
Q 1715 3450 1462 3274 
Q 1210 3098 1088 2813 
Q 966 2528 966 1869 
L 966 384 
L 442 384 
L 442 3872 
L 966 3872 
L 966 3379 
Q 1414 3962 2086 3962 
Q 2451 3962 2748 3766 
Q 3046 3571 3174 3213 
Q 3392 3578 3718 3770 
Q 4045 3962 4410 3962 
Q 4909 3962 5261 3610 
Q 5613 3258 5613 2285 
L 5613 384 
z
" transform="scale(0.015625)"/>
        <path id="STHeitiTC-Medium-7ed5" d="M 4198 3302 
Q 4512 3488 4749 3683 
Q 4986 3878 5171 4064 
Q 5216 4013 5280 3955 
Q 5344 3898 5411 3846 
Q 5478 3795 5536 3756 
Q 5594 3718 5626 3706 
Q 5696 3674 5696 3638 
Q 5696 3603 5606 3590 
Q 5498 3578 5274 3462 
Q 5050 3347 4806 3181 
Q 4736 3130 4656 3082 
Q 4576 3034 4486 2982 
Q 4698 2797 4934 2720 
Q 5107 2656 5216 2637 
Q 5325 2618 5392 2659 
Q 5459 2701 5500 2819 
Q 5542 2938 5581 3149 
Q 5683 3008 5785 2937 
Q 5888 2867 6054 2816 
Q 5978 2618 5926 2499 
Q 5875 2381 5827 2313 
Q 5779 2246 5728 2214 
Q 5677 2182 5594 2150 
Q 5491 2112 5299 2137 
Q 5107 2163 4886 2243 
Q 4666 2323 4448 2451 
Q 4230 2579 4077 2746 
Q 3725 2560 3373 2403 
Q 3021 2246 2733 2157 
Q 2688 2266 2598 2381 
Q 2509 2496 2368 2592 
Q 2547 2618 2748 2675 
Q 2950 2733 3148 2806 
Q 3347 2880 3523 2957 
Q 3699 3034 3827 3098 
Q 3744 3245 3667 3430 
Q 3590 3616 3501 3846 
Q 3258 3789 3040 3721 
Q 2822 3654 2714 3603 
L 2605 4147 
Q 2662 4147 2752 4160 
Q 2842 4173 2947 4189 
Q 3053 4205 3168 4224 
Q 3283 4243 3386 4262 
Q 3360 4371 3331 4496 
Q 3302 4621 3280 4736 
Q 3258 4851 3235 4950 
Q 3213 5050 3206 5114 
Q 3277 5107 3360 5107 
Q 3443 5107 3526 5110 
Q 3610 5114 3677 5117 
Q 3744 5120 3782 5126 
Q 3891 5139 3904 5116 
Q 3917 5094 3866 5043 
Q 3827 5011 3827 4864 
Q 3827 4717 3878 4378 
L 4691 4557 
Q 4794 4576 4912 4605 
Q 5030 4634 5148 4669 
Q 5267 4704 5372 4736 
Q 5478 4768 5555 4800 
L 5670 4320 
Q 5523 4301 5305 4259 
Q 5088 4218 4749 4141 
L 3955 3955 
Q 4013 3712 4077 3549 
Q 4141 3386 4198 3302 
z
M 877 2675 
Q 730 2656 627 2627 
Q 525 2598 435 2566 
Q 403 2733 352 2864 
Q 301 2995 250 3098 
Q 352 3155 464 3273 
Q 576 3392 704 3613 
Q 832 3834 976 4179 
Q 1120 4525 1293 5043 
Q 1440 4973 1593 4928 
Q 1747 4883 1837 4870 
Q 1933 4858 1936 4822 
Q 1939 4787 1856 4755 
Q 1830 4742 1788 4691 
Q 1747 4640 1654 4473 
Q 1562 4307 1395 3993 
Q 1229 3680 954 3149 
L 1645 3174 
Q 1754 3386 1824 3552 
Q 1894 3718 1926 3808 
Q 2099 3699 2224 3638 
Q 2349 3578 2445 3546 
Q 2515 3526 2512 3500 
Q 2509 3475 2438 3450 
Q 2419 3443 2368 3369 
Q 2317 3296 2192 3104 
Q 2067 2912 1859 2569 
Q 1651 2227 1325 1677 
Q 1530 1690 1747 1706 
Q 1965 1722 2227 1754 
Q 2195 1638 2179 1510 
Q 2163 1382 2170 1267 
L 1286 1210 
Q 1088 1197 921 1165 
Q 755 1133 672 1101 
Q 653 1235 617 1366 
Q 582 1498 531 1606 
Q 672 1632 784 1731 
Q 896 1830 986 1971 
Q 1101 2157 1213 2358 
Q 1325 2560 1434 2758 
L 877 2675 
z
M 3667 1414 
Q 3667 947 3612 630 
Q 3558 314 3408 86 
Q 3258 -141 2989 -310 
Q 2720 -480 2298 -653 
Q 2227 -525 2137 -425 
Q 2048 -326 1901 -218 
Q 2285 -109 2528 6 
Q 2771 122 2912 298 
Q 3053 474 3104 739 
Q 3155 1005 3149 1408 
Q 2918 1402 2768 1389 
Q 2618 1376 2547 1357 
L 2547 1888 
Q 2630 1875 2745 1868 
Q 2861 1862 3049 1856 
Q 3238 1850 3516 1846 
Q 3795 1843 4211 1843 
Q 4710 1843 5017 1846 
Q 5325 1850 5510 1856 
Q 5696 1862 5789 1868 
Q 5882 1875 5952 1888 
L 5952 1357 
Q 5824 1376 5513 1395 
Q 5203 1414 4736 1414 
L 4736 288 
Q 4736 166 4787 105 
Q 4838 45 5030 45 
Q 5184 45 5280 64 
Q 5376 83 5433 150 
Q 5491 218 5523 352 
Q 5555 486 5587 717 
Q 5696 589 5827 528 
Q 5958 467 6144 435 
Q 6054 128 5977 -48 
Q 5901 -224 5782 -313 
Q 5664 -403 5485 -425 
Q 5306 -448 5018 -448 
Q 4762 -448 4608 -429 
Q 4454 -410 4368 -355 
Q 4282 -301 4253 -205 
Q 4224 -109 4224 38 
L 4224 1414 
L 3667 1414 
z
M 2330 742 
Q 2291 640 2294 496 
Q 2298 352 2323 243 
Q 1645 141 1206 16 
Q 768 -109 525 -237 
Q 506 -77 461 89 
Q 416 256 333 467 
Q 474 467 685 480 
Q 896 493 1158 525 
Q 1421 557 1721 611 
Q 2022 666 2330 742 
z
" transform="scale(0.015625)"/>
        <path id="STHeitiTC-Medium-8fc7" d="M 1299 173 
Q 1190 -13 1056 -182 
Q 922 -352 749 -538 
Q 666 -442 560 -362 
Q 454 -282 307 -211 
Q 518 -32 688 160 
Q 858 352 986 569 
Q 1114 787 1203 1046 
Q 1293 1306 1357 1626 
L 1165 1626 
Q 1024 1626 889 1603 
Q 755 1581 627 1510 
Q 608 1677 569 1811 
Q 531 1946 461 2061 
Q 602 2093 685 2160 
Q 768 2227 845 2362 
L 1222 3027 
L 902 3027 
Q 800 3027 649 3014 
Q 499 3002 403 2982 
L 403 3488 
Q 499 3482 572 3475 
Q 646 3469 729 3465 
Q 813 3462 915 3462 
Q 1018 3462 1171 3462 
Q 1357 3462 1488 3465 
Q 1619 3469 1715 3472 
Q 1811 3475 1881 3481 
Q 1952 3488 2022 3501 
L 1158 2022 
L 1504 2022 
Q 1606 2022 1728 2028 
Q 1850 2035 1939 2048 
Q 1830 1562 1724 1210 
Q 1619 858 1504 589 
Q 1651 480 1836 390 
Q 2022 301 2278 233 
Q 2534 166 2876 131 
Q 3219 96 3680 86 
Q 4141 77 4736 102 
Q 5331 128 6093 192 
Q 5965 6 5910 -131 
Q 5856 -269 5837 -461 
Q 4787 -480 4044 -454 
Q 3302 -429 2780 -352 
Q 2259 -275 1910 -144 
Q 1562 -13 1299 173 
z
M 1331 3789 
Q 1030 4339 698 4742 
L 1171 5030 
Q 1325 4826 1494 4573 
Q 1664 4320 1830 4064 
L 1331 3789 
z
M 5075 4160 
Q 5389 4160 5581 4169 
Q 5773 4179 5965 4205 
L 5965 3648 
Q 5779 3667 5580 3676 
Q 5382 3686 5075 3686 
L 5075 1011 
Q 5075 845 5046 729 
Q 5018 614 4899 537 
Q 4781 461 4541 409 
Q 4301 358 3885 320 
Q 3859 448 3801 624 
Q 3744 800 3654 966 
Q 3930 954 4099 960 
Q 4269 966 4365 995 
Q 4461 1024 4493 1072 
Q 4525 1120 4525 1190 
L 4525 3686 
L 3155 3686 
Q 2765 3686 2534 3676 
Q 2304 3667 2106 3654 
L 2106 4205 
Q 2208 4192 2310 4182 
Q 2413 4173 2534 4169 
Q 2656 4166 2806 4163 
Q 2957 4160 3155 4160 
L 4525 4160 
Q 4525 4410 4525 4582 
Q 4525 4755 4521 4876 
Q 4518 4998 4512 5072 
Q 4506 5146 4499 5203 
Q 4646 5178 4819 5168 
Q 4992 5158 5107 5171 
Q 5229 5184 5248 5136 
Q 5267 5088 5165 5024 
Q 5114 4992 5094 4947 
Q 5075 4902 5075 4800 
L 5075 4160 
z
M 3123 1734 
Q 3014 2035 2873 2332 
Q 2733 2630 2579 2906 
L 3091 3117 
Q 3251 2854 3401 2569 
Q 3552 2285 3674 1978 
L 3123 1734 
z
" transform="scale(0.015625)"/>
        <path id="STHeitiTC-Medium-5e9f" d="M 4755 3040 
Q 4666 3168 4570 3296 
Q 4474 3424 4378 3539 
L 4870 3789 
Q 4960 3680 5072 3549 
Q 5184 3418 5286 3315 
L 4755 3040 
z
M 3149 1414 
Q 3277 1254 3501 1072 
Q 3725 890 4058 659 
Q 4179 762 4272 864 
Q 4365 966 4441 1081 
Q 4518 1197 4585 1328 
Q 4653 1459 4717 1632 
L 3264 1632 
Q 3232 1581 3206 1526 
Q 3181 1472 3149 1414 
z
M 3162 2496 
Q 2976 2496 2790 2486 
Q 2605 2477 2441 2464 
Q 2278 2451 2147 2435 
Q 2016 2419 1952 2394 
Q 1939 2522 1916 2614 
Q 1894 2707 1843 2816 
Q 1926 2854 1990 2905 
Q 2054 2957 2096 3056 
Q 2138 3155 2170 3318 
Q 2202 3482 2221 3744 
Q 2406 3699 2563 3683 
Q 2720 3667 2771 3674 
Q 2829 3680 2835 3651 
Q 2842 3622 2790 3571 
Q 2765 3546 2707 3402 
Q 2650 3258 2534 2906 
L 3290 2906 
Q 3341 3104 3376 3331 
Q 3411 3558 3443 3898 
Q 3578 3853 3750 3817 
Q 3923 3782 4032 3789 
Q 4090 3795 4099 3772 
Q 4109 3750 4058 3718 
Q 3987 3674 3920 3491 
Q 3853 3309 3744 2906 
Q 4237 2906 4589 2915 
Q 4941 2925 5184 2937 
Q 5427 2950 5574 2966 
Q 5722 2982 5811 2995 
L 5811 2483 
Q 5645 2496 5379 2499 
Q 5114 2502 4691 2502 
L 3629 2502 
Q 3597 2387 3549 2268 
Q 3501 2150 3450 2022 
L 4557 2022 
Q 4691 2022 4828 2025 
Q 4966 2029 5084 2032 
Q 5203 2035 5289 2041 
Q 5376 2048 5414 2054 
Q 5306 1722 5203 1472 
Q 5101 1222 4989 1027 
Q 4877 832 4755 678 
Q 4634 525 4486 390 
Q 4826 211 5171 163 
Q 5517 115 5990 154 
Q 5894 6 5840 -147 
Q 5786 -301 5741 -538 
Q 5478 -506 5254 -464 
Q 5030 -422 4832 -355 
Q 4634 -288 4445 -192 
Q 4256 -96 4064 51 
Q 3898 -70 3750 -160 
Q 3603 -250 3414 -330 
Q 3226 -410 2966 -499 
Q 2707 -589 2317 -704 
Q 2240 -499 1965 -211 
Q 2298 -154 2557 -93 
Q 2816 -32 3017 35 
Q 3219 102 3379 182 
Q 3539 262 3686 365 
Q 3520 512 3341 697 
Q 3162 883 2957 1107 
Q 2771 819 2556 563 
Q 2342 307 2099 102 
Q 2003 230 1913 297 
Q 1824 365 1658 435 
Q 2234 890 2592 1411 
Q 2950 1933 3162 2496 
z
M 3853 4474 
Q 4339 4474 4697 4477 
Q 5056 4480 5309 4486 
Q 5562 4493 5718 4502 
Q 5875 4512 5952 4525 
L 5952 4026 
Q 5869 4038 5712 4048 
Q 5555 4058 5347 4061 
Q 5139 4064 4892 4067 
Q 4646 4070 4384 4070 
L 1491 4070 
Q 1517 3142 1504 2425 
Q 1491 1709 1433 1139 
Q 1376 570 1267 115 
Q 1158 -339 998 -730 
Q 877 -621 726 -550 
Q 576 -480 410 -461 
Q 582 -243 716 144 
Q 851 531 924 1129 
Q 998 1728 1004 2566 
Q 1011 3405 941 4525 
Q 1101 4493 1648 4483 
Q 2195 4474 3238 4474 
Q 3187 4634 3123 4765 
Q 3059 4896 2950 5037 
L 3552 5210 
Q 3603 5050 3676 4864 
Q 3750 4678 3853 4474 
z
" transform="scale(0.015625)"/>
        <path id="STHeitiTC-Medium-7eb8" d="M 2349 730 
Q 2285 493 2310 250 
Q 1888 173 1590 109 
Q 1293 45 1085 -12 
Q 877 -70 736 -128 
Q 595 -186 486 -250 
Q 461 -77 416 96 
Q 371 269 294 474 
Q 563 467 1068 524 
Q 1574 582 2349 730 
z
M 4608 2765 
Q 4909 2765 5110 2765 
Q 5312 2765 5449 2771 
Q 5587 2778 5673 2787 
Q 5760 2797 5837 2810 
L 5837 2272 
Q 5766 2278 5680 2288 
Q 5594 2298 5459 2304 
Q 5325 2310 5126 2313 
Q 4928 2317 4640 2317 
Q 4659 2054 4694 1840 
Q 4730 1626 4787 1430 
Q 4845 1235 4921 1040 
Q 4998 845 5107 627 
Q 5216 403 5296 294 
Q 5376 186 5433 189 
Q 5491 192 5539 313 
Q 5587 435 5638 666 
Q 5728 499 5840 412 
Q 5952 326 6099 294 
Q 5971 -51 5881 -240 
Q 5792 -429 5705 -502 
Q 5619 -576 5523 -547 
Q 5427 -518 5293 -429 
Q 5126 -320 4944 -67 
Q 4762 186 4598 544 
Q 4435 902 4313 1353 
Q 4192 1805 4147 2317 
L 3251 2317 
L 3251 410 
Q 3315 454 3392 524 
Q 3469 595 3549 672 
Q 3629 749 3702 825 
Q 3776 902 3834 966 
Q 3827 813 3878 672 
Q 3930 531 4013 461 
L 3283 -166 
Q 3174 -256 3040 -377 
Q 2906 -499 2810 -595 
Q 2643 -282 2451 -109 
Q 2598 -58 2656 41 
Q 2714 141 2714 365 
L 2714 3603 
Q 2650 3584 2579 3523 
Q 2509 3462 2355 3273 
Q 2202 3085 1933 2720 
Q 1664 2355 1210 1734 
Q 1370 1741 1514 1750 
Q 1658 1760 1805 1776 
Q 1952 1792 2109 1808 
Q 2266 1824 2451 1850 
Q 2394 1632 2426 1389 
L 1242 1280 
Q 1024 1267 825 1228 
Q 627 1190 544 1158 
Q 544 1299 515 1430 
Q 486 1562 416 1664 
Q 525 1722 630 1798 
Q 736 1875 861 2006 
Q 986 2138 1133 2333 
Q 1280 2528 1472 2822 
L 922 2784 
Q 800 2771 672 2748 
Q 544 2726 454 2688 
Q 429 2848 390 2992 
Q 352 3136 320 3226 
Q 416 3290 512 3402 
Q 608 3514 720 3722 
Q 832 3930 969 4262 
Q 1107 4595 1293 5101 
Q 1453 4992 1629 4905 
Q 1805 4819 1914 4781 
Q 1997 4749 1997 4717 
Q 1997 4685 1926 4659 
Q 1888 4646 1840 4608 
Q 1792 4570 1693 4429 
Q 1594 4288 1408 4000 
Q 1222 3712 909 3200 
L 1722 3226 
Q 1850 3437 1958 3641 
Q 2067 3846 2150 4013 
Q 2330 3866 2445 3792 
Q 2560 3718 2714 3680 
Q 2714 3987 2698 4246 
Q 2682 4506 2656 4634 
Q 3059 4640 3452 4669 
Q 3846 4698 4192 4746 
Q 4538 4794 4819 4858 
Q 5101 4922 5293 4998 
Q 5338 4909 5395 4819 
Q 5453 4730 5507 4653 
Q 5562 4576 5606 4518 
Q 5651 4461 5677 4442 
Q 5747 4384 5724 4355 
Q 5702 4326 5594 4346 
Q 5523 4358 5446 4364 
Q 5370 4371 5258 4371 
Q 5146 4371 4986 4358 
Q 4826 4346 4589 4326 
Q 4576 3488 4608 2765 
z
M 4115 2765 
Q 4090 3206 4077 3558 
Q 4064 3910 4058 4275 
Q 3872 4262 3667 4249 
Q 3462 4237 3251 4230 
L 3251 2765 
L 4115 2765 
z
" transform="scale(0.015625)"/>
        <path id="STHeitiTC-Medium-7bd3" d="M 4416 2931 
Q 4314 2989 4230 3021 
Q 4147 3053 4058 3085 
Q 4224 3200 4368 3347 
Q 4512 3494 4570 3603 
Q 4672 3533 4784 3469 
Q 4896 3405 4986 3373 
Q 5056 3347 5062 3321 
Q 5069 3296 4979 3283 
Q 4915 3270 4777 3187 
Q 4640 3104 4416 2931 
z
M 1856 2944 
Q 1734 3098 1641 3184 
Q 1549 3270 1408 3360 
L 1811 3590 
Q 1920 3482 2029 3389 
Q 2138 3296 2298 3168 
L 1856 2944 
z
M 4973 4211 
Q 5043 4064 5116 3939 
Q 5190 3814 5248 3725 
L 4742 3590 
Q 4704 3718 4637 3881 
Q 4570 4045 4493 4211 
L 4019 4211 
Q 3917 4064 3811 3939 
Q 3706 3814 3584 3686 
Q 3475 3757 3366 3805 
Q 3258 3853 3117 3885 
Q 3251 3974 3385 4124 
Q 3520 4275 3645 4451 
Q 3770 4627 3875 4809 
Q 3981 4992 4058 5146 
Q 4192 5075 4342 5033 
Q 4493 4992 4640 4973 
Q 4710 4960 4713 4934 
Q 4717 4909 4640 4877 
Q 4576 4851 4483 4777 
Q 4390 4704 4275 4563 
L 4934 4563 
Q 5088 4563 5251 4566 
Q 5414 4570 5558 4576 
Q 5702 4582 5820 4595 
Q 5939 4608 6010 4621 
L 6010 4166 
Q 5933 4179 5817 4188 
Q 5702 4198 5561 4201 
Q 5421 4205 5270 4208 
Q 5120 4211 4973 4211 
z
M 1600 4230 
Q 1542 4160 1465 4064 
Q 1389 3968 1305 3865 
Q 1222 3763 1136 3660 
Q 1050 3558 979 3475 
Q 864 3578 739 3642 
Q 614 3706 448 3744 
Q 582 3808 748 3945 
Q 915 4083 1081 4265 
Q 1248 4448 1401 4669 
Q 1555 4890 1677 5133 
Q 1805 5075 1939 5030 
Q 2074 4986 2221 4954 
Q 2362 4922 2227 4864 
Q 2157 4832 2073 4771 
Q 1990 4710 1875 4582 
L 2330 4582 
Q 2963 4582 3251 4640 
L 3251 4179 
Q 3104 4205 2893 4217 
Q 2682 4230 2413 4230 
Q 2464 4064 2512 3942 
Q 2560 3821 2605 3725 
L 2086 3622 
Q 2074 3744 2032 3904 
Q 1990 4064 1926 4230 
L 1600 4230 
z
M 2925 2554 
Q 2522 2131 1990 1856 
Q 1459 1581 806 1434 
Q 774 1523 684 1641 
Q 595 1760 493 1843 
Q 691 1862 960 1926 
Q 1229 1990 1510 2083 
Q 1792 2176 2064 2294 
Q 2336 2413 2541 2547 
Q 1990 2541 1555 2525 
Q 1120 2509 755 2490 
L 755 2944 
Q 1197 2918 1744 2905 
Q 2291 2893 3008 2893 
Q 3008 3181 2995 3337 
Q 2982 3494 2957 3584 
Q 3104 3565 3235 3558 
Q 3366 3552 3501 3558 
Q 3610 3565 3619 3536 
Q 3629 3507 3520 3430 
Q 3462 3392 3462 3232 
L 3462 2893 
Q 3795 2893 4121 2896 
Q 4448 2899 4742 2908 
Q 5037 2918 5286 2924 
Q 5536 2931 5715 2944 
L 5715 2490 
Q 5562 2502 5347 2512 
Q 5133 2522 4873 2531 
Q 4614 2541 4326 2547 
Q 4038 2554 3738 2554 
Q 4083 2266 4652 2131 
Q 5222 1997 5997 1933 
Q 5754 1677 5747 1446 
Q 4922 1555 4326 1801 
Q 3731 2048 3462 2477 
L 3462 2208 
Q 3462 2118 3478 1996 
Q 3494 1875 3526 1754 
L 2963 1754 
Q 2989 1862 2998 1990 
Q 3008 2118 3008 2208 
L 3008 2554 
L 2925 2554 
z
M 4077 275 
Q 4435 186 4822 80 
Q 5210 -26 5683 -160 
Q 5478 -352 5389 -608 
Q 4960 -442 4525 -294 
Q 4090 -147 3648 -19 
Q 3200 -269 2544 -413 
Q 1888 -557 947 -602 
Q 922 -493 851 -355 
Q 781 -218 704 -141 
Q 1485 -147 2048 -80 
Q 2611 -13 3072 134 
Q 2726 218 2387 282 
Q 2048 346 1702 384 
Q 1837 493 1952 608 
Q 2067 723 2202 890 
Q 1818 890 1549 886 
Q 1280 883 1075 876 
Q 870 870 710 857 
Q 550 845 384 832 
L 384 1280 
Q 717 1248 1078 1241 
Q 1440 1235 1811 1235 
L 2470 1235 
Q 2688 1536 2784 1741 
Q 2886 1670 3046 1609 
Q 3206 1549 3334 1530 
Q 3488 1510 3322 1446 
Q 3290 1434 3222 1379 
Q 3155 1325 3066 1235 
L 4563 1235 
Q 4947 1235 5302 1241 
Q 5658 1248 5997 1280 
L 5997 832 
Q 5350 890 4621 890 
Q 4518 723 4380 566 
Q 4243 410 4077 275 
z
M 2483 589 
Q 2771 544 3036 496 
Q 3302 448 3558 390 
Q 3853 595 4090 890 
L 2746 890 
L 2483 589 
z
" transform="scale(0.015625)"/>
        <path id="STHeitiTC-Medium-51fa" d="M 4973 320 
L 4973 1203 
Q 4973 1402 4963 1546 
Q 4954 1690 4934 1824 
Q 5120 1792 5251 1789 
Q 5382 1786 5536 1798 
Q 5606 1805 5616 1773 
Q 5626 1741 5574 1690 
Q 5530 1645 5514 1517 
Q 5498 1389 5498 1197 
L 5498 115 
Q 5498 -70 5504 -236 
Q 5510 -403 5523 -595 
L 4973 -595 
L 4973 -141 
L 1318 -141 
L 1318 -646 
L 768 -646 
Q 794 -480 803 -304 
Q 813 -128 813 141 
L 813 1146 
Q 813 1453 803 1619 
Q 794 1786 768 1888 
Q 934 1856 1094 1849 
Q 1254 1843 1370 1856 
Q 1440 1869 1453 1830 
Q 1466 1792 1402 1741 
Q 1344 1690 1331 1635 
Q 1318 1581 1318 1510 
L 1318 320 
L 2893 320 
L 2893 2387 
Q 2208 2387 1731 2374 
Q 1254 2362 1050 2349 
Q 1075 2496 1088 2637 
Q 1101 2778 1101 2918 
L 1101 3942 
Q 1101 4096 1091 4240 
Q 1082 4384 1050 4512 
Q 1254 4480 1411 4470 
Q 1568 4461 1709 4474 
Q 1798 4480 1804 4435 
Q 1811 4390 1734 4333 
Q 1683 4294 1664 4195 
Q 1645 4096 1645 3949 
L 1645 2848 
L 2893 2848 
L 2893 4262 
Q 2893 4589 2883 4774 
Q 2874 4960 2848 5114 
Q 3034 5082 3190 5072 
Q 3347 5062 3533 5075 
Q 3622 5082 3632 5040 
Q 3642 4998 3578 4947 
Q 3514 4896 3482 4710 
Q 3450 4525 3450 4269 
L 3450 2848 
L 4813 2848 
L 4813 3942 
Q 4813 4141 4800 4285 
Q 4787 4429 4755 4563 
Q 4941 4531 5104 4524 
Q 5267 4518 5414 4531 
Q 5478 4538 5488 4502 
Q 5498 4467 5453 4416 
Q 5402 4365 5379 4253 
Q 5357 4141 5357 3936 
L 5357 2989 
Q 5357 2803 5363 2656 
Q 5370 2509 5382 2349 
Q 5267 2355 5104 2364 
Q 4941 2374 4707 2377 
Q 4474 2381 4163 2384 
Q 3853 2387 3450 2387 
L 3450 320 
L 4973 320 
z
" transform="scale(0.015625)"/>
        <path id="STHeitiTC-Medium-4e0d" d="M 5485 826 
Q 5299 1101 5116 1341 
Q 4934 1581 4742 1798 
Q 4550 2016 4342 2217 
Q 4134 2419 3898 2618 
L 4390 2982 
Q 4627 2758 4828 2560 
Q 5030 2362 5225 2160 
Q 5421 1958 5619 1740 
Q 5818 1523 6048 1261 
L 5485 826 
z
M 3354 4192 
Q 2381 4192 1705 4179 
Q 1030 4166 538 4134 
L 538 4723 
Q 1030 4691 1705 4675 
Q 2381 4659 3296 4659 
Q 4211 4659 4883 4675 
Q 5555 4691 6048 4723 
L 6048 4134 
Q 5645 4166 5133 4176 
Q 4621 4186 3987 4192 
Q 3898 3981 3782 3760 
Q 3667 3539 3520 3315 
L 3520 397 
Q 3520 218 3523 80 
Q 3526 -58 3532 -182 
Q 3539 -307 3548 -432 
Q 3558 -557 3578 -704 
L 2867 -704 
Q 2886 -557 2896 -432 
Q 2906 -307 2912 -182 
Q 2918 -58 2921 80 
Q 2925 218 2925 397 
L 2925 2509 
Q 2547 2067 2044 1612 
Q 1542 1158 883 698 
Q 794 838 646 998 
Q 499 1158 352 1248 
Q 1414 1715 2160 2438 
Q 2906 3162 3354 4192 
z
" transform="scale(0.015625)"/>
       </defs>
       <use xlink:href="#STHeitiTC-Medium-7ec8"/>
       <use xlink:href="#STHeitiTC-Medium-7aef" x="99.999985"/>
       <use xlink:href="#STHeitiTC-Medium-20" x="199.999969"/>
       <use xlink:href="#STHeitiTC-Medium-72" x="224.999954"/>
       <use xlink:href="#STHeitiTC-Medium-6d" x="255.099945"/>
       <use xlink:href="#STHeitiTC-Medium-20" x="348.899933"/>
       <use xlink:href="#STHeitiTC-Medium-7ed5" x="373.899918"/>
       <use xlink:href="#STHeitiTC-Medium-8fc7" x="473.899902"/>
       <use xlink:href="#STHeitiTC-Medium-5e9f" x="573.899887"/>
       <use xlink:href="#STHeitiTC-Medium-7eb8" x="673.899872"/>
       <use xlink:href="#STHeitiTC-Medium-7bd3" x="773.899857"/>
       <use xlink:href="#STHeitiTC-Medium-ff08" x="873.899841"/>
       <use xlink:href="#STHeitiTC-Medium-51fa" x="973.899826"/>
       <use xlink:href="#STHeitiTC-Medium-7b3c" x="1073.899811"/>
       <use xlink:href="#STHeitiTC-Medium-b7" x="1173.899796"/>
       <use xlink:href="#STHeitiTC-Medium-4e0d" x="1273.89978"/>
       <use xlink:href="#STHeitiTC-Medium-53ef" x="1373.899765"/>
       <use xlink:href="#STHeitiTC-Medium-9006" x="1473.89975"/>
       <use xlink:href="#STHeitiTC-Medium-ff09" x="1573.899734"/>
      </g>
     </g>
    </g>
    <g id="xtick_4">
     <g id="line2d_4">
      <g>
       <use xlink:href="#m5bb6b46610" x="431.172715" y="218.45975" style="fill: #333333; stroke: #333333; stroke-width: 0.8"/>
      </g>
     </g>
     <g id="text_4">
      <!-- 替你发邮件 / 付款（出笼·不可逆） -->
      <g style="fill: #333333" transform="translate(355.471817 233.53475) scale(0.095 -0.095)">
       <defs>
        <path id="STHeitiTC-Medium-66ff" d="M 4723 3206 
Q 4934 3066 5104 2950 
Q 5274 2835 5424 2729 
Q 5574 2624 5715 2521 
Q 5856 2419 6010 2298 
L 5677 1882 
Q 5510 2042 5372 2176 
Q 5235 2310 5094 2441 
Q 4954 2573 4794 2717 
Q 4634 2861 4429 3046 
Q 4358 2906 4278 2778 
Q 4198 2650 4089 2525 
Q 3981 2400 3840 2262 
Q 3699 2125 3514 1965 
Q 3424 2061 3328 2137 
Q 3232 2214 3066 2298 
Q 3450 2490 3683 2701 
Q 3917 2912 4045 3200 
Q 3834 3200 3658 3187 
Q 3482 3174 3341 3155 
L 3341 3635 
Q 3514 3610 3706 3600 
Q 3898 3590 4160 3590 
Q 4186 3712 4198 3840 
Q 4211 3968 4224 4115 
Q 3987 4115 3801 4102 
Q 3616 4090 3469 4070 
L 3469 4563 
Q 3616 4544 3805 4531 
Q 3994 4518 4230 4518 
Q 4224 4666 4214 4829 
Q 4205 4992 4192 5146 
Q 4352 5133 4531 5133 
Q 4710 5133 4819 5146 
Q 4896 5158 4905 5113 
Q 4915 5069 4826 4998 
Q 4800 4973 4761 4845 
Q 4723 4717 4704 4518 
Q 4928 4518 5072 4518 
Q 5216 4518 5318 4524 
Q 5421 4531 5504 4540 
Q 5587 4550 5683 4563 
L 5683 4070 
Q 5485 4102 5254 4112 
Q 5024 4122 4678 4122 
Q 4666 3974 4650 3846 
Q 4634 3718 4608 3590 
Q 4934 3590 5155 3590 
Q 5376 3590 5536 3596 
Q 5696 3603 5805 3612 
Q 5914 3622 6022 3635 
L 6022 3155 
Q 5811 3181 5459 3193 
Q 5107 3206 4723 3206 
z
M 4576 1536 
L 1882 1536 
L 1882 1075 
L 4576 1075 
L 4576 1536 
z
M 4576 678 
L 1882 678 
L 1882 128 
L 4576 128 
L 4576 678 
z
M 1882 -704 
L 1318 -704 
Q 1344 -480 1353 -301 
Q 1363 -122 1363 96 
L 1363 1280 
Q 1363 1485 1356 1657 
Q 1350 1830 1325 1984 
Q 1446 1971 1603 1961 
Q 1760 1952 1990 1945 
Q 2221 1939 2541 1936 
Q 2861 1933 3302 1933 
Q 3744 1933 4041 1936 
Q 4339 1939 4547 1945 
Q 4755 1952 4889 1961 
Q 5024 1971 5139 1984 
Q 5126 1926 5116 1846 
Q 5107 1766 5104 1670 
Q 5101 1574 5097 1472 
Q 5094 1370 5094 1280 
L 5094 160 
Q 5094 -58 5107 -246 
Q 5120 -435 5152 -640 
L 4576 -640 
L 4576 -282 
L 1882 -282 
L 1882 -704 
z
M 2118 4096 
Q 2106 3949 2086 3814 
Q 2067 3680 2048 3552 
Q 2330 3552 2544 3561 
Q 2758 3571 2944 3597 
L 2944 3117 
Q 2752 3142 2512 3155 
Q 2272 3168 1965 3168 
L 1952 3130 
Q 2195 2963 2435 2787 
Q 2675 2611 2867 2464 
L 2541 2106 
Q 2259 2426 1811 2752 
Q 1741 2605 1645 2477 
Q 1549 2349 1405 2208 
Q 1261 2067 1053 1900 
Q 845 1734 538 1517 
Q 467 1645 384 1728 
Q 301 1811 134 1920 
Q 454 2067 684 2208 
Q 915 2349 1078 2496 
Q 1242 2643 1344 2806 
Q 1446 2970 1510 3168 
Q 1107 3168 803 3158 
Q 499 3149 275 3117 
L 275 3597 
Q 390 3584 508 3574 
Q 627 3565 777 3558 
Q 928 3552 1126 3552 
Q 1325 3552 1606 3552 
Q 1626 3674 1638 3811 
Q 1651 3949 1658 4102 
Q 1306 4102 1072 4092 
Q 838 4083 634 4051 
L 634 4544 
Q 838 4512 1072 4505 
Q 1306 4499 1664 4499 
Q 1664 4800 1645 5107 
Q 1805 5094 1961 5091 
Q 2118 5088 2227 5101 
Q 2298 5107 2310 5081 
Q 2323 5056 2272 5005 
Q 2240 4979 2208 4841 
Q 2176 4704 2150 4499 
Q 2221 4499 2317 4502 
Q 2413 4506 2515 4512 
Q 2618 4518 2717 4524 
Q 2816 4531 2886 4544 
L 2886 4051 
Q 2739 4070 2547 4083 
Q 2355 4096 2118 4096 
z
" transform="scale(0.015625)"/>
        <path id="STHeitiTC-Medium-4f60" d="M 3264 1690 
Q 3206 1658 3098 1318 
Q 3021 1094 2896 793 
Q 2771 493 2573 58 
Q 2458 109 2314 147 
Q 2170 186 2010 218 
Q 2278 589 2470 1033 
Q 2662 1478 2752 2061 
Q 2880 1997 3008 1949 
Q 3136 1901 3238 1869 
Q 3469 1805 3264 1690 
z
M 5549 179 
Q 5453 467 5363 691 
Q 5274 915 5178 1113 
Q 5082 1312 4976 1491 
Q 4870 1670 4742 1862 
L 5229 2112 
Q 5459 1722 5673 1306 
Q 5888 890 6086 442 
L 5549 179 
z
M 4397 2893 
Q 4326 2822 4326 2637 
L 4326 -70 
Q 4326 -243 4304 -345 
Q 4282 -448 4179 -512 
Q 4077 -576 3862 -617 
Q 3648 -659 3258 -704 
Q 3264 -550 3209 -377 
Q 3155 -205 3046 -58 
Q 3277 -90 3430 -86 
Q 3584 -83 3673 -54 
Q 3763 -26 3798 22 
Q 3834 70 3834 134 
L 3834 2054 
Q 3834 2394 3821 2637 
Q 3808 2880 3776 3053 
Q 4064 2982 4326 2995 
Q 4429 3002 4438 2976 
Q 4448 2950 4397 2893 
z
M 1235 2970 
Q 1107 2758 976 2544 
Q 845 2330 678 2086 
Q 608 2214 515 2336 
Q 422 2458 314 2566 
Q 416 2669 544 2832 
Q 672 2995 800 3187 
Q 928 3379 1043 3580 
Q 1158 3782 1248 3968 
Q 1350 4186 1420 4358 
Q 1491 4531 1542 4668 
Q 1594 4806 1629 4928 
Q 1664 5050 1690 5178 
Q 1837 5107 1981 5056 
Q 2125 5005 2291 4966 
Q 2394 4941 2400 4905 
Q 2406 4870 2285 4781 
Q 2259 4762 2217 4707 
Q 2176 4653 2128 4576 
Q 2080 4499 2029 4409 
Q 1978 4320 1933 4237 
Q 1882 4134 1830 4038 
Q 1779 3942 1728 3853 
L 1728 -570 
L 1165 -570 
Q 1178 -429 1190 -269 
Q 1203 -109 1212 54 
Q 1222 218 1228 368 
Q 1235 518 1235 640 
L 1235 2970 
z
M 3232 3590 
Q 3162 3443 3088 3305 
Q 3014 3168 2937 3030 
Q 2861 2893 2774 2745 
Q 2688 2598 2586 2432 
Q 2458 2522 2339 2573 
Q 2221 2624 2080 2650 
Q 2304 2899 2483 3196 
Q 2662 3494 2806 3817 
Q 2950 4141 3059 4470 
Q 3168 4800 3245 5120 
Q 3418 5030 3584 4976 
Q 3750 4922 3891 4896 
Q 3962 4883 3962 4860 
Q 3962 4838 3885 4787 
Q 3859 4768 3808 4694 
Q 3757 4621 3689 4515 
Q 3622 4410 3555 4285 
Q 3488 4160 3437 4038 
Q 4058 4038 4493 4041 
Q 4928 4045 5232 4054 
Q 5536 4064 5731 4080 
Q 5926 4096 6074 4122 
L 5555 2637 
L 5011 2714 
L 5363 3590 
L 3232 3590 
z
" transform="scale(0.015625)"/>
        <path id="STHeitiTC-Medium-53d1" d="M 4691 3795 
Q 4589 4006 4422 4227 
Q 4256 4448 4090 4582 
L 4512 4934 
Q 4685 4710 4854 4518 
Q 5024 4326 5222 4154 
L 4691 3795 
z
M 2483 2003 
Q 2637 1766 2899 1478 
Q 3162 1190 3635 819 
Q 3878 1024 4092 1341 
Q 4307 1658 4454 2067 
L 2522 2067 
Q 2509 2054 2502 2035 
Q 2496 2016 2483 2003 
z
M 2490 3238 
Q 2163 3232 1926 3213 
Q 1690 3194 1517 3162 
Q 1344 3130 1225 3078 
Q 1107 3027 1011 2963 
Q 1011 3091 966 3216 
Q 922 3341 813 3526 
Q 1037 3712 1200 4064 
Q 1363 4416 1440 4864 
Q 1555 4813 1721 4755 
Q 1888 4698 2010 4672 
Q 2131 4646 2029 4576 
Q 2010 4563 1958 4480 
Q 1907 4397 1836 4272 
Q 1766 4147 1689 3990 
Q 1613 3834 1536 3674 
L 2611 3674 
Q 2739 4141 2800 4470 
Q 2861 4800 2854 5088 
Q 3040 5056 3229 5043 
Q 3418 5030 3584 5043 
Q 3642 5050 3651 5027 
Q 3661 5005 3610 4973 
Q 3571 4941 3520 4838 
Q 3469 4736 3418 4602 
Q 3322 4352 3251 4125 
Q 3181 3898 3123 3674 
Q 3520 3674 3961 3683 
Q 4403 3693 4790 3712 
Q 5178 3731 5462 3756 
Q 5747 3782 5837 3814 
L 5837 3194 
Q 5536 3226 5097 3232 
Q 4659 3238 4006 3238 
L 3014 3238 
Q 2906 2861 2758 2534 
L 4045 2534 
Q 4179 2534 4342 2537 
Q 4506 2541 4672 2544 
Q 4838 2547 4998 2553 
Q 5158 2560 5293 2573 
Q 5139 2176 4998 1872 
Q 4858 1568 4710 1328 
Q 4563 1088 4406 893 
Q 4250 698 4058 525 
Q 4218 429 4397 368 
Q 4576 307 4813 265 
Q 5050 224 5363 198 
Q 5677 173 6118 154 
Q 5997 26 5901 -144 
Q 5805 -314 5754 -518 
Q 5133 -448 4624 -281 
Q 4115 -115 3654 192 
Q 3456 58 3206 -73 
Q 2957 -205 2678 -313 
Q 2400 -422 2105 -512 
Q 1811 -602 1517 -646 
Q 1446 -512 1347 -387 
Q 1248 -262 1146 -166 
Q 1504 -90 1798 -13 
Q 2093 64 2342 147 
Q 2592 230 2806 326 
Q 3021 422 3213 531 
Q 2957 749 2713 1011 
Q 2470 1274 2227 1594 
Q 1920 1152 1555 797 
Q 1190 442 806 160 
Q 704 346 595 451 
Q 486 557 282 653 
Q 627 781 963 1043 
Q 1299 1306 1590 1651 
Q 1882 1997 2115 2406 
Q 2349 2816 2490 3238 
z
" transform="scale(0.015625)"/>
        <path id="STHeitiTC-Medium-90ae" d="M 5901 1056 
Q 5875 806 5820 636 
Q 5766 467 5651 352 
Q 5536 237 5350 166 
Q 5165 96 4877 45 
Q 4845 224 4787 377 
Q 4730 531 4614 698 
Q 4845 691 4985 710 
Q 5126 730 5206 784 
Q 5286 838 5318 937 
Q 5350 1037 5357 1190 
Q 5363 1357 5324 1542 
Q 5286 1728 5209 1913 
Q 5133 2099 5017 2272 
Q 4902 2445 4755 2592 
L 5139 4250 
L 4294 4250 
L 4294 -787 
L 3770 -787 
Q 3795 -467 3804 -179 
Q 3814 109 3814 474 
L 3814 3942 
Q 3814 4218 3804 4403 
Q 3795 4589 3776 4730 
Q 4141 4691 4800 4691 
Q 5139 4691 5369 4700 
Q 5600 4710 5792 4730 
L 5203 2650 
Q 5382 2464 5523 2259 
Q 5664 2054 5753 1843 
Q 5843 1632 5881 1430 
Q 5920 1229 5901 1056 
z
M 2854 1971 
L 2163 1971 
L 2163 717 
L 2854 717 
L 2854 1971 
z
M 1011 -461 
L 474 -461 
Q 506 -198 515 54 
Q 525 307 525 595 
L 525 3322 
Q 525 3546 515 3731 
Q 506 3917 486 4045 
Q 563 4032 656 4022 
Q 749 4013 889 4006 
Q 1030 4000 1225 3993 
Q 1421 3987 1690 3987 
Q 1683 4480 1670 4790 
Q 1658 5101 1638 5229 
Q 1786 5216 1946 5206 
Q 2106 5197 2240 5197 
Q 2298 5197 2307 5161 
Q 2317 5126 2259 5069 
Q 2163 4973 2163 4698 
L 2163 3987 
Q 2477 3987 2688 3993 
Q 2899 4000 3036 4009 
Q 3174 4019 3251 4025 
Q 3328 4032 3373 4045 
Q 3360 3898 3350 3702 
Q 3341 3507 3341 3322 
L 3341 768 
Q 3341 602 3341 467 
Q 3341 333 3347 211 
Q 3354 90 3357 -28 
Q 3360 -147 3373 -288 
L 2854 -288 
L 2854 275 
L 1011 275 
L 1011 -461 
z
M 1011 717 
L 1690 717 
L 1690 1971 
L 1011 1971 
L 1011 717 
z
M 1011 3546 
L 1011 2406 
L 1690 2406 
L 1690 3546 
L 1011 3546 
z
M 2854 3546 
L 2163 3546 
L 2163 2406 
L 2854 2406 
L 2854 3546 
z
" transform="scale(0.015625)"/>
        <path id="STHeitiTC-Medium-4ed8" d="M 3347 1114 
Q 3245 1472 3075 1801 
Q 2906 2131 2752 2355 
L 3309 2605 
Q 3386 2470 3466 2310 
Q 3546 2150 3626 1987 
Q 3706 1824 3776 1667 
Q 3846 1510 3904 1376 
L 3347 1114 
z
M 1286 2950 
Q 1184 2746 1104 2592 
Q 1024 2438 947 2304 
Q 870 2170 800 2048 
Q 730 1926 646 1798 
Q 589 1920 489 2029 
Q 390 2138 250 2214 
Q 365 2355 489 2547 
Q 614 2739 739 2947 
Q 864 3155 976 3369 
Q 1088 3584 1178 3782 
Q 1248 3942 1318 4121 
Q 1389 4301 1449 4477 
Q 1510 4653 1561 4816 
Q 1613 4979 1651 5107 
Q 1818 5024 1965 4973 
Q 2112 4922 2221 4902 
Q 2438 4864 2240 4710 
Q 2227 4698 2182 4637 
Q 2138 4576 2080 4477 
Q 2022 4378 1948 4256 
Q 1875 4134 1805 4000 
L 1805 -640 
L 1216 -640 
Q 1242 -365 1264 12 
Q 1286 390 1286 736 
L 1286 2950 
z
M 5197 26 
Q 5197 -173 5165 -291 
Q 5133 -410 5017 -483 
Q 4902 -557 4672 -601 
Q 4442 -646 4045 -691 
Q 4032 -576 3965 -384 
Q 3898 -192 3770 -6 
Q 4032 -38 4205 -32 
Q 4378 -26 4477 9 
Q 4576 45 4617 112 
Q 4659 179 4659 269 
L 4659 3168 
Q 3770 3168 3216 3152 
Q 2662 3136 2336 3104 
L 2336 3725 
Q 2630 3699 3200 3686 
Q 3770 3674 4659 3674 
Q 4659 3872 4652 4086 
Q 4646 4301 4640 4499 
Q 4634 4698 4621 4854 
Q 4608 5011 4602 5088 
Q 4755 5062 4921 5049 
Q 5088 5037 5165 5037 
Q 5274 5037 5290 5011 
Q 5306 4986 5254 4922 
Q 5242 4909 5232 4851 
Q 5222 4794 5212 4717 
Q 5203 4640 5200 4563 
Q 5197 4486 5197 4435 
L 5197 3680 
Q 5491 3686 5712 3699 
Q 5933 3712 6150 3738 
L 6150 3104 
Q 5946 3130 5725 3142 
Q 5504 3155 5197 3162 
L 5197 26 
z
" transform="scale(0.015625)"/>
        <path id="STHeitiTC-Medium-6b3e" d="M 1357 742 
Q 1325 717 1289 678 
Q 1254 640 1196 547 
Q 1139 454 1040 281 
Q 941 109 781 -179 
Q 653 -109 557 -77 
Q 461 -45 314 -13 
Q 467 192 566 349 
Q 666 506 733 630 
Q 800 755 838 864 
Q 877 973 902 1082 
Q 1018 1030 1123 992 
Q 1229 954 1338 922 
Q 1459 890 1459 851 
Q 1459 813 1357 742 
z
M 2931 141 
Q 2784 557 2534 902 
L 2982 1126 
Q 3078 934 3187 752 
Q 3296 570 3405 442 
L 2931 141 
z
M 3181 2227 
Q 3046 2240 2924 2249 
Q 2803 2259 2665 2262 
Q 2528 2266 2349 2269 
Q 2170 2272 1920 2272 
Q 1664 2272 1488 2269 
Q 1312 2266 1174 2262 
Q 1037 2259 921 2249 
Q 806 2240 672 2227 
L 672 2739 
Q 806 2726 924 2716 
Q 1043 2707 1177 2704 
Q 1312 2701 1488 2697 
Q 1664 2694 1920 2694 
Q 2170 2694 2349 2697 
Q 2528 2701 2665 2704 
Q 2803 2707 2924 2716 
Q 3046 2726 3181 2739 
L 3181 2227 
z
M 2272 -102 
Q 2272 -262 2240 -371 
Q 2208 -480 2112 -547 
Q 2016 -614 1840 -652 
Q 1664 -691 1376 -710 
Q 1357 -557 1305 -429 
Q 1254 -301 1146 -134 
Q 1338 -166 1459 -169 
Q 1581 -173 1651 -147 
Q 1722 -122 1747 -67 
Q 1773 -13 1773 70 
L 1773 1363 
Q 1510 1363 1324 1360 
Q 1139 1357 988 1353 
Q 838 1350 710 1340 
Q 582 1331 435 1318 
L 435 1824 
Q 602 1811 736 1801 
Q 870 1792 1030 1789 
Q 1190 1786 1395 1782 
Q 1600 1779 1907 1779 
Q 2214 1779 2422 1782 
Q 2630 1786 2790 1789 
Q 2950 1792 3084 1801 
Q 3219 1811 3386 1824 
L 3386 1318 
Q 3251 1325 3136 1334 
Q 3021 1344 2896 1347 
Q 2771 1350 2620 1356 
Q 2470 1363 2272 1363 
L 2272 -102 
z
M 1734 4083 
Q 1491 4083 1318 4080 
Q 1146 4077 1002 4073 
Q 858 4070 730 4060 
Q 602 4051 461 4038 
L 461 4525 
Q 608 4512 736 4502 
Q 864 4493 1005 4489 
Q 1146 4486 1318 4483 
Q 1491 4480 1734 4480 
Q 1734 4749 1728 4921 
Q 1722 5094 1709 5184 
Q 1850 5165 1990 5155 
Q 2131 5146 2298 5146 
Q 2464 5146 2323 5043 
Q 2285 5011 2256 4937 
Q 2227 4864 2227 4755 
L 2227 4480 
Q 2458 4480 2624 4486 
Q 2790 4493 2928 4496 
Q 3066 4499 3187 4505 
Q 3309 4512 3456 4525 
L 3456 4038 
Q 3309 4045 3187 4054 
Q 3066 4064 2928 4067 
Q 2790 4070 2624 4076 
Q 2458 4083 2227 4083 
L 2227 3526 
Q 2400 3526 2534 3532 
Q 2669 3539 2784 3542 
Q 2899 3546 3004 3552 
Q 3110 3558 3219 3571 
L 3219 3091 
Q 3085 3104 2960 3113 
Q 2835 3123 2688 3126 
Q 2541 3130 2358 3133 
Q 2176 3136 1933 3136 
Q 1690 3136 1507 3133 
Q 1325 3130 1174 3126 
Q 1024 3123 899 3113 
Q 774 3104 646 3091 
L 646 3571 
Q 762 3558 874 3552 
Q 986 3546 1114 3539 
Q 1242 3533 1392 3529 
Q 1542 3526 1734 3526 
L 1734 4083 
z
M 4742 2362 
Q 4742 1882 4819 1507 
Q 4896 1133 5062 838 
Q 5229 544 5481 323 
Q 5734 102 6080 -64 
Q 5926 -243 5827 -377 
Q 5728 -512 5651 -659 
Q 5414 -486 5235 -291 
Q 5056 -96 4921 141 
Q 4787 378 4700 659 
Q 4614 941 4563 1286 
Q 4486 954 4380 688 
Q 4275 422 4118 192 
Q 3962 -38 3747 -252 
Q 3533 -467 3238 -704 
Q 3142 -608 3040 -531 
Q 2938 -454 2758 -365 
Q 3136 -128 3379 89 
Q 3622 307 3776 547 
Q 3930 787 4016 1072 
Q 4102 1357 4166 1734 
Q 4192 1894 4214 2083 
Q 4237 2272 4246 2457 
Q 4256 2643 4256 2809 
Q 4256 2976 4250 3104 
Q 4429 3072 4605 3062 
Q 4781 3053 4870 3066 
Q 4947 3078 4956 3040 
Q 4966 3002 4896 2938 
Q 4864 2906 4829 2790 
Q 4794 2675 4742 2362 
z
M 5267 4077 
Q 5478 4077 5667 4089 
Q 5856 4102 5990 4128 
L 5677 2835 
L 5146 2893 
L 5331 3610 
L 4134 3610 
Q 4058 3373 3971 3139 
Q 3885 2906 3795 2675 
Q 3680 2733 3542 2781 
Q 3405 2829 3264 2861 
Q 3386 3072 3498 3331 
Q 3610 3590 3696 3881 
Q 3782 4173 3840 4483 
Q 3898 4794 3910 5114 
Q 3994 5094 4093 5078 
Q 4192 5062 4288 5046 
Q 4384 5030 4467 5024 
Q 4550 5018 4608 5018 
Q 4678 5018 4691 4970 
Q 4704 4922 4627 4870 
Q 4582 4838 4547 4793 
Q 4512 4749 4473 4662 
Q 4435 4576 4387 4435 
Q 4339 4294 4275 4077 
L 5267 4077 
z
" transform="scale(0.015625)"/>
       </defs>
       <use xlink:href="#STHeitiTC-Medium-66ff"/>
       <use xlink:href="#STHeitiTC-Medium-4f60" x="99.999985"/>
       <use xlink:href="#STHeitiTC-Medium-53d1" x="199.999969"/>
       <use xlink:href="#STHeitiTC-Medium-90ae" x="299.999954"/>
       <use xlink:href="#STHeitiTC-Medium-4ef6" x="399.999939"/>
       <use xlink:href="#STHeitiTC-Medium-20" x="499.999924"/>
       <use xlink:href="#STHeitiTC-Medium-2f" x="524.999908"/>
       <use xlink:href="#STHeitiTC-Medium-20" x="568.699905"/>
       <use xlink:href="#STHeitiTC-Medium-4ed8" x="593.69989"/>
       <use xlink:href="#STHeitiTC-Medium-6b3e" x="693.699875"/>
       <use xlink:href="#STHeitiTC-Medium-ff08" x="793.69986"/>
       <use xlink:href="#STHeitiTC-Medium-51fa" x="893.699844"/>
       <use xlink:href="#STHeitiTC-Medium-7b3c" x="993.699829"/>
       <use xlink:href="#STHeitiTC-Medium-b7" x="1093.699814"/>
       <use xlink:href="#STHeitiTC-Medium-4e0d" x="1193.699799"/>
       <use xlink:href="#STHeitiTC-Medium-53ef" x="1293.699783"/>
       <use xlink:href="#STHeitiTC-Medium-9006" x="1393.699768"/>
       <use xlink:href="#STHeitiTC-Medium-ff09" x="1493.699753"/>
      </g>
     </g>
    </g>
    <g id="xtick_5">
     <g id="line2d_5">
      <g>
       <use xlink:href="#m5bb6b46610" x="545.714309" y="218.45975" style="fill: #333333; stroke: #333333; stroke-width: 0.8"/>
      </g>
     </g>
     <g id="text_5">
      <!-- iCloud 已同步删除（出笼·不可逆） -->
      <g style="fill: #333333" transform="translate(467.762356 233.15475) scale(0.095 -0.095)">
       <defs>
        <path id="STHeitiTC-Medium-43" d="M 4909 1242 
Q 4154 269 2835 269 
Q 1722 269 1011 973 
Q 301 1677 301 2752 
Q 301 3418 630 3981 
Q 960 4544 1542 4864 
Q 2125 5184 2800 5184 
Q 3475 5184 4009 4925 
Q 4544 4666 4902 4166 
L 4480 3840 
Q 3814 4646 2835 4646 
Q 2035 4646 1456 4083 
Q 877 3520 877 2704 
Q 877 1888 1443 1341 
Q 2010 794 2912 794 
Q 3814 794 4480 1568 
L 4909 1242 
z
" transform="scale(0.015625)"/>
        <path id="STHeitiTC-Medium-6c" d="M 902 384 
L 378 384 
L 378 5184 
L 902 5184 
L 902 384 
z
" transform="scale(0.015625)"/>
        <path id="STHeitiTC-Medium-6f" d="M 2099 3962 
Q 2854 3962 3382 3418 
Q 3910 2874 3910 2112 
Q 3910 1350 3388 809 
Q 2867 269 2099 269 
Q 1331 269 806 809 
Q 282 1350 282 2112 
Q 282 2874 810 3418 
Q 1338 3962 2099 3962 
z
M 2099 774 
Q 2630 774 3004 1161 
Q 3379 1549 3379 2096 
Q 3379 2643 2998 3043 
Q 2618 3443 2096 3443 
Q 1574 3443 1196 3043 
Q 819 2643 819 2092 
Q 819 1542 1184 1158 
Q 1549 774 2099 774 
z
" transform="scale(0.015625)"/>
        <path id="STHeitiTC-Medium-75" d="M 3450 384 
L 2918 384 
L 2918 909 
Q 2400 294 1690 294 
Q 1312 294 1005 489 
Q 698 685 544 1027 
Q 390 1370 390 2080 
L 390 3872 
L 915 3872 
L 915 2208 
Q 915 1632 969 1424 
Q 1024 1216 1129 1072 
Q 1235 928 1398 857 
Q 1562 787 1795 787 
Q 2029 787 2253 902 
Q 2477 1018 2637 1222 
Q 2797 1427 2857 1657 
Q 2918 1888 2918 2579 
L 2918 3872 
L 3450 3872 
L 3450 384 
z
" transform="scale(0.015625)"/>
        <path id="STHeitiTC-Medium-64" d="M 3923 384 
L 3405 384 
L 3405 896 
Q 2835 269 2089 269 
Q 1344 269 819 813 
Q 294 1357 294 2118 
Q 294 2880 825 3421 
Q 1357 3962 2121 3962 
Q 2886 3962 3405 3341 
L 3405 5184 
L 3923 5184 
L 3923 384 
z
M 2131 762 
Q 2637 762 3033 1139 
Q 3430 1517 3430 2096 
Q 3430 2675 3062 3062 
Q 2694 3450 2134 3450 
Q 1574 3450 1200 3050 
Q 826 2650 826 2109 
Q 826 1568 1210 1165 
Q 1594 762 2131 762 
z
" transform="scale(0.015625)"/>
        <path id="STHeitiTC-Medium-5df2" d="M 4461 2822 
L 4461 4269 
L 2790 4269 
Q 2118 4269 1555 4253 
Q 992 4237 672 4205 
L 672 4864 
Q 806 4851 1027 4838 
Q 1248 4826 1533 4816 
Q 1818 4806 2154 4800 
Q 2490 4794 2867 4794 
Q 3693 4794 4246 4813 
Q 4800 4832 5088 4864 
Q 5069 4710 5056 4460 
Q 5043 4211 5043 3878 
L 5043 2893 
Q 5043 2662 5056 2425 
Q 5069 2189 5094 1952 
L 4461 1952 
L 4461 2336 
L 1568 2336 
L 1568 698 
Q 1568 518 1584 419 
Q 1600 320 1670 269 
Q 1741 218 1894 202 
Q 2048 186 2330 179 
Q 2726 166 3113 163 
Q 3501 160 3878 173 
Q 4230 179 4435 208 
Q 4640 237 4765 333 
Q 4890 429 4966 627 
Q 5043 826 5146 1178 
Q 5350 858 5728 762 
Q 5594 365 5478 141 
Q 5363 -83 5177 -198 
Q 4992 -314 4688 -342 
Q 4384 -371 3866 -371 
Q 3501 -371 3081 -371 
Q 2662 -371 2304 -358 
Q 1824 -339 1558 -307 
Q 1293 -275 1165 -176 
Q 1037 -77 1011 115 
Q 986 307 986 640 
L 986 2477 
Q 986 2822 966 3059 
Q 947 3296 922 3405 
Q 1082 3386 1267 3376 
Q 1453 3366 1613 3373 
Q 1702 3379 1715 3331 
Q 1728 3283 1664 3245 
Q 1606 3213 1587 3168 
Q 1568 3123 1568 3027 
L 1568 2822 
L 4461 2822 
z
" transform="scale(0.015625)"/>
        <path id="STHeitiTC-Medium-540c" d="M 4621 3078 
Q 4358 3110 4032 3126 
Q 3706 3142 3213 3142 
Q 2720 3142 2393 3126 
Q 2067 3110 1805 3078 
L 1805 3674 
Q 2067 3635 2393 3619 
Q 2720 3603 3213 3603 
Q 3706 3603 4032 3619 
Q 4358 3635 4621 3674 
L 4621 3078 
z
M 5574 4858 
Q 5568 4781 5561 4643 
Q 5555 4506 5552 4326 
Q 5549 4147 5549 3942 
Q 5549 3738 5549 3533 
L 5549 198 
Q 5549 -64 5529 -208 
Q 5510 -352 5414 -435 
Q 5318 -518 5123 -560 
Q 4928 -602 4576 -653 
Q 4550 -467 4476 -294 
Q 4403 -122 4256 38 
Q 4525 19 4681 16 
Q 4838 13 4915 41 
Q 4992 70 5014 131 
Q 5037 192 5037 301 
L 5037 4262 
L 1434 4262 
L 1434 -467 
L 826 -467 
Q 870 -6 892 515 
Q 915 1037 915 1600 
L 915 3533 
Q 915 3718 915 3923 
Q 915 4128 912 4313 
Q 909 4499 902 4643 
Q 896 4787 890 4858 
Q 1037 4838 1219 4825 
Q 1402 4813 1670 4803 
Q 1939 4794 2316 4790 
Q 2694 4787 3232 4787 
Q 3770 4787 4147 4790 
Q 4525 4794 4797 4800 
Q 5069 4806 5251 4822 
Q 5434 4838 5574 4858 
z
M 4288 672 
Q 4128 685 3827 688 
Q 3526 691 3213 691 
Q 2899 691 2592 691 
Q 2285 691 2125 678 
Q 2138 819 2144 1068 
Q 2150 1318 2150 1594 
Q 2150 1869 2144 2125 
Q 2138 2381 2125 2509 
Q 2291 2496 2595 2489 
Q 2899 2483 3213 2483 
Q 3526 2483 3824 2489 
Q 4122 2496 4288 2509 
Q 4275 2381 4272 2125 
Q 4269 1869 4269 1594 
Q 4269 1312 4272 1059 
Q 4275 806 4288 672 
z
M 3770 2048 
L 2643 2048 
L 2643 1146 
L 3770 1146 
L 3770 2048 
z
" transform="scale(0.015625)"/>
        <path id="STHeitiTC-Medium-6b65" d="M 3520 973 
Q 3520 832 3485 726 
Q 3450 621 3341 553 
Q 3232 486 3033 457 
Q 2835 429 2515 442 
Q 2528 589 2486 758 
Q 2445 928 2317 1069 
Q 2547 998 2688 969 
Q 2829 941 2899 960 
Q 2970 979 2992 1043 
Q 3014 1107 3014 1222 
L 3014 1683 
Q 3014 2003 2998 2204 
Q 2982 2406 2950 2509 
Q 3123 2445 3260 2416 
Q 3398 2387 3539 2394 
Q 3686 2400 3705 2361 
Q 3725 2323 3622 2253 
Q 3558 2208 3539 2179 
Q 3520 2150 3520 2099 
L 3520 973 
z
M 3174 307 
Q 3450 448 3712 653 
Q 3974 858 4204 1107 
Q 4435 1357 4614 1638 
Q 4794 1920 4909 2221 
Q 5024 2112 5177 2013 
Q 5331 1914 5446 1875 
Q 5619 1811 5453 1754 
Q 5434 1747 5392 1708 
Q 5350 1670 5264 1574 
Q 5178 1478 5034 1305 
Q 4890 1133 4666 851 
Q 4122 186 3146 -204 
Q 2170 -595 851 -723 
Q 838 -595 780 -444 
Q 723 -294 614 -147 
Q 979 -147 1350 -115 
Q 1722 -83 2061 -22 
Q 2400 38 2685 121 
Q 2970 205 3174 307 
z
M 2272 1773 
Q 2202 1741 1930 1427 
Q 1658 1114 1222 557 
Q 1005 774 704 896 
Q 845 979 992 1120 
Q 1139 1261 1270 1424 
Q 1402 1587 1510 1763 
Q 1619 1939 1690 2106 
Q 1850 1997 1974 1945 
Q 2099 1894 2246 1869 
Q 2406 1837 2272 1773 
z
M 3475 4397 
Q 3898 4397 4195 4397 
Q 4493 4397 4713 4403 
Q 4934 4410 5100 4416 
Q 5267 4422 5427 4435 
L 5427 3910 
Q 5267 3923 5094 3929 
Q 4922 3936 4694 3942 
Q 4467 3949 4172 3949 
Q 3878 3949 3475 3949 
L 3475 3053 
Q 4218 3053 4861 3065 
Q 5504 3078 5984 3110 
L 5984 2541 
Q 5728 2554 5443 2566 
Q 5158 2579 4822 2588 
Q 4486 2598 4092 2601 
Q 3699 2605 3232 2605 
Q 2291 2605 1609 2585 
Q 928 2566 416 2541 
L 416 3117 
Q 672 3085 934 3072 
Q 1197 3059 1504 3053 
L 1504 3942 
Q 1504 4147 1488 4345 
Q 1472 4544 1459 4653 
Q 1606 4627 1772 4617 
Q 1939 4608 2099 4614 
Q 2170 4614 2173 4588 
Q 2176 4563 2125 4531 
Q 2022 4467 2022 4339 
L 2022 3053 
L 2957 3053 
L 2957 4506 
Q 2957 4685 2944 4889 
Q 2931 5094 2912 5210 
Q 3072 5190 3241 5180 
Q 3411 5171 3514 5171 
Q 3603 5171 3612 5142 
Q 3622 5114 3571 5082 
Q 3475 5030 3475 4902 
L 3475 4397 
z
" transform="scale(0.015625)"/>
        <path id="STHeitiTC-Medium-9664" d="M 5382 -218 
Q 5306 -83 5197 70 
Q 5088 224 4963 387 
Q 4838 550 4704 707 
Q 4570 864 4448 998 
L 4826 1286 
Q 4941 1165 5078 1011 
Q 5216 858 5357 694 
Q 5498 531 5626 377 
Q 5754 224 5850 109 
L 5382 -218 
z
M 3347 915 
Q 3296 902 3203 809 
Q 3110 717 3002 538 
Q 2957 461 2893 361 
Q 2829 262 2752 156 
Q 2675 51 2595 -54 
Q 2515 -160 2432 -250 
Q 2310 -141 2204 -89 
Q 2099 -38 1939 6 
Q 2234 275 2451 579 
Q 2669 883 2854 1286 
Q 2970 1216 3091 1158 
Q 3213 1101 3315 1069 
Q 3424 1043 3424 992 
Q 3424 941 3347 915 
z
M 1683 2778 
Q 2022 2413 2144 2086 
Q 2266 1760 2266 1536 
Q 2266 1082 2035 842 
Q 1805 602 1370 518 
Q 1331 685 1270 809 
Q 1210 934 1082 1101 
Q 1446 1088 1600 1193 
Q 1754 1299 1773 1594 
Q 1786 1766 1642 2089 
Q 1498 2413 1210 2765 
L 1773 4256 
L 922 4256 
L 922 -698 
L 371 -698 
Q 390 -486 400 -304 
Q 410 -122 416 57 
Q 422 237 425 416 
Q 429 595 429 800 
L 429 4109 
Q 429 4294 416 4473 
Q 403 4653 384 4742 
Q 570 4730 832 4720 
Q 1094 4710 1440 4710 
Q 1779 4710 2035 4720 
Q 2291 4730 2477 4742 
L 1683 2778 
z
M 3091 3251 
Q 3258 3232 3453 3222 
Q 3648 3213 3930 3213 
Q 4211 3213 4444 3222 
Q 4678 3232 4838 3251 
Q 4550 3494 4304 3811 
Q 4058 4128 3930 4493 
Q 3706 4090 3517 3808 
Q 3328 3526 3091 3251 
z
M 3686 2816 
Q 3462 2810 3299 2797 
Q 3136 2784 3002 2765 
L 3002 3149 
Q 2886 3021 2755 2886 
Q 2624 2752 2458 2598 
Q 2285 2784 2003 2912 
Q 2650 3424 3034 3993 
Q 3418 4563 3584 5184 
Q 3750 5114 3939 5072 
Q 4128 5030 4275 5018 
Q 4365 5005 4368 4969 
Q 4371 4934 4262 4890 
Q 4211 4870 4160 4819 
Q 4288 4531 4493 4275 
Q 4698 4019 4947 3824 
Q 5197 3629 5475 3494 
Q 5754 3360 6029 3315 
Q 5862 3162 5788 3037 
Q 5715 2912 5664 2746 
Q 5510 2797 5321 2909 
Q 5133 3021 4928 3181 
L 4928 2765 
Q 4800 2778 4617 2790 
Q 4435 2803 4211 2810 
L 4211 2093 
Q 4614 2099 4940 2112 
Q 5267 2125 5491 2157 
L 5491 1581 
Q 5267 1613 4940 1625 
Q 4614 1638 4211 1645 
L 4211 83 
Q 4211 -122 4179 -259 
Q 4147 -397 4044 -486 
Q 3942 -576 3760 -621 
Q 3578 -666 3270 -678 
Q 3238 -531 3177 -374 
Q 3117 -218 3027 -83 
Q 3258 -109 3389 -109 
Q 3520 -109 3587 -67 
Q 3654 -26 3670 67 
Q 3686 160 3686 333 
L 3686 1645 
Q 3290 1638 3002 1625 
Q 2714 1613 2490 1581 
L 2490 2157 
Q 2720 2125 3005 2112 
Q 3290 2099 3686 2093 
L 3686 2816 
z
" transform="scale(0.015625)"/>
       </defs>
       <use xlink:href="#STHeitiTC-Medium-69"/>
       <use xlink:href="#STHeitiTC-Medium-43" x="19.999985"/>
       <use xlink:href="#STHeitiTC-Medium-6c" x="101.299973"/>
       <use xlink:href="#STHeitiTC-Medium-6f" x="121.299957"/>
       <use xlink:href="#STHeitiTC-Medium-75" x="186.799942"/>
       <use xlink:href="#STHeitiTC-Medium-64" x="247.59993"/>
       <use xlink:href="#STHeitiTC-Medium-20" x="316.099915"/>
       <use xlink:href="#STHeitiTC-Medium-5df2" x="341.099899"/>
       <use xlink:href="#STHeitiTC-Medium-540c" x="441.099884"/>
       <use xlink:href="#STHeitiTC-Medium-6b65" x="541.099869"/>
       <use xlink:href="#STHeitiTC-Medium-5220" x="641.099854"/>
       <use xlink:href="#STHeitiTC-Medium-9664" x="741.099838"/>
       <use xlink:href="#STHeitiTC-Medium-ff08" x="841.099823"/>
       <use xlink:href="#STHeitiTC-Medium-51fa" x="941.099808"/>
       <use xlink:href="#STHeitiTC-Medium-7b3c" x="1041.099792"/>
       <use xlink:href="#STHeitiTC-Medium-b7" x="1141.099777"/>
       <use xlink:href="#STHeitiTC-Medium-4e0d" x="1241.099762"/>
       <use xlink:href="#STHeitiTC-Medium-53ef" x="1341.099747"/>
       <use xlink:href="#STHeitiTC-Medium-9006" x="1441.099731"/>
       <use xlink:href="#STHeitiTC-Medium-ff09" x="1541.099716"/>
      </g>
     </g>
    </g>
   </g>
   <g id="matplotlib.axis_2">
    <g id="ytick_1">
     <g id="line2d_6">
      <path d="M 29.990781 218.45975 
L 603.271461 218.45975 
" clip-path="url(#p8388cf4ceb)" style="fill: none; stroke-dasharray: 2.96,1.28; stroke-dashoffset: 0; stroke: #b0b0b0; stroke-opacity: 0.35; stroke-width: 0.8"/>
     </g>
     <g id="line2d_7">
      <defs>
       <path id="mfe2910afdb" d="M 0 0 
L -3.5 0 
" style="stroke: #333333; stroke-width: 0.8"/>
      </defs>
      <g>
       <use xlink:href="#mfe2910afdb" x="29.990781" y="218.45975" style="fill: #333333; stroke: #333333; stroke-width: 0.8"/>
      </g>
     </g>
     <g id="text_6">
      <!-- 0 -->
      <g style="fill: #333333" transform="translate(17.727187 222.30725) scale(0.095 -0.095)">
       <defs>
        <path id="STHeitiTC-Medium-30" d="M 1747 5184 
Q 2502 5184 2944 4547 
Q 3386 3910 3386 2723 
Q 3386 1536 2938 902 
Q 2490 269 1738 269 
Q 986 269 573 893 
Q 160 1517 160 2729 
Q 160 3942 573 4563 
Q 986 5184 1747 5184 
z
M 1760 774 
Q 2285 774 2576 1283 
Q 2867 1792 2867 2726 
Q 2867 3661 2566 4160 
Q 2266 4659 1757 4659 
Q 1248 4659 966 4160 
Q 685 3661 685 2714 
Q 685 774 1760 774 
z
" transform="scale(0.015625)"/>
       </defs>
       <use xlink:href="#STHeitiTC-Medium-30"/>
      </g>
     </g>
    </g>
    <g id="ytick_2">
     <g id="line2d_8">
      <path d="M 29.990781 178.219798 
L 603.271461 178.219798 
" clip-path="url(#p8388cf4ceb)" style="fill: none; stroke-dasharray: 2.96,1.28; stroke-dashoffset: 0; stroke: #b0b0b0; stroke-opacity: 0.35; stroke-width: 0.8"/>
     </g>
     <g id="line2d_9">
      <g>
       <use xlink:href="#mfe2910afdb" x="29.990781" y="178.219798" style="fill: #333333; stroke: #333333; stroke-width: 0.8"/>
      </g>
     </g>
     <g id="text_7">
      <!-- 20 -->
      <g style="fill: #333333" transform="translate(12.463594 182.067298) scale(0.095 -0.095)">
       <defs>
        <path id="STHeitiTC-Medium-32" d="M 3360 384 
L 90 384 
L 1914 2355 
Q 2374 2842 2566 3123 
Q 2758 3405 2758 3763 
Q 2758 4122 2480 4390 
Q 2202 4659 1789 4659 
Q 1376 4659 1101 4368 
Q 826 4077 787 3539 
L 256 3539 
Q 288 4294 736 4739 
Q 1184 5184 1821 5184 
Q 2458 5184 2877 4771 
Q 3296 4358 3296 3763 
Q 3296 3328 3065 2950 
Q 2835 2573 2368 2074 
L 1293 915 
L 3360 915 
L 3360 384 
z
" transform="scale(0.015625)"/>
       </defs>
       <use xlink:href="#STHeitiTC-Medium-32"/>
       <use xlink:href="#STHeitiTC-Medium-30" x="55.399994"/>
      </g>
     </g>
    </g>
    <g id="ytick_3">
     <g id="line2d_10">
      <path d="M 29.990781 137.979845 
L 603.271461 137.979845 
" clip-path="url(#p8388cf4ceb)" style="fill: none; stroke-dasharray: 2.96,1.28; stroke-dashoffset: 0; stroke: #b0b0b0; stroke-opacity: 0.35; stroke-width: 0.8"/>
     </g>
     <g id="line2d_11">
      <g>
       <use xlink:href="#mfe2910afdb" x="29.990781" y="137.979845" style="fill: #333333; stroke: #333333; stroke-width: 0.8"/>
      </g>
     </g>
     <g id="text_8">
      <!-- 40 -->
      <g style="fill: #333333" transform="translate(12.463594 141.827345) scale(0.095 -0.095)">
       <defs>
        <path id="STHeitiTC-Medium-34" d="M 3418 1453 
L 2861 1453 
L 2861 384 
L 2317 384 
L 2317 1453 
L 70 1453 
L 2701 5184 
L 2861 5184 
L 2861 1984 
L 3418 1984 
L 3418 1453 
z
M 2317 1984 
L 2317 3712 
L 1094 1984 
L 2317 1984 
z
" transform="scale(0.015625)"/>
       </defs>
       <use xlink:href="#STHeitiTC-Medium-34"/>
       <use xlink:href="#STHeitiTC-Medium-30" x="55.399994"/>
      </g>
     </g>
    </g>
    <g id="ytick_4">
     <g id="line2d_12">
      <path d="M 29.990781 97.739893 
L 603.271461 97.739893 
" clip-path="url(#p8388cf4ceb)" style="fill: none; stroke-dasharray: 2.96,1.28; stroke-dashoffset: 0; stroke: #b0b0b0; stroke-opacity: 0.35; stroke-width: 0.8"/>
     </g>
     <g id="line2d_13">
      <g>
       <use xlink:href="#mfe2910afdb" x="29.990781" y="97.739893" style="fill: #333333; stroke: #333333; stroke-width: 0.8"/>
      </g>
     </g>
     <g id="text_9">
      <!-- 60 -->
      <g style="fill: #333333" transform="translate(12.463594 101.587393) scale(0.095 -0.095)">
       <defs>
        <path id="STHeitiTC-Medium-36" d="M 1594 3098 
Q 1798 3155 1984 3155 
Q 2515 3155 2912 2732 
Q 3309 2310 3309 1708 
Q 3309 1107 2880 688 
Q 2451 269 1830 269 
Q 1210 269 797 691 
Q 384 1114 384 1722 
Q 384 2016 499 2326 
Q 614 2637 915 3085 
L 2336 5203 
L 2797 4915 
L 1594 3098 
z
M 1843 806 
Q 2221 806 2493 1075 
Q 2765 1344 2765 1728 
Q 2765 2112 2496 2381 
Q 2227 2650 1843 2650 
Q 1459 2650 1190 2381 
Q 922 2112 922 1728 
Q 922 1344 1194 1075 
Q 1466 806 1843 806 
z
" transform="scale(0.015625)"/>
       </defs>
       <use xlink:href="#STHeitiTC-Medium-36"/>
       <use xlink:href="#STHeitiTC-Medium-30" x="55.399994"/>
      </g>
     </g>
    </g>
    <g id="ytick_5">
     <g id="line2d_14">
      <path d="M 29.990781 57.49994 
L 603.271461 57.49994 
" clip-path="url(#p8388cf4ceb)" style="fill: none; stroke-dasharray: 2.96,1.28; stroke-dashoffset: 0; stroke: #b0b0b0; stroke-opacity: 0.35; stroke-width: 0.8"/>
     </g>
     <g id="line2d_15">
      <g>
       <use xlink:href="#mfe2910afdb" x="29.990781" y="57.49994" style="fill: #333333; stroke: #333333; stroke-width: 0.8"/>
      </g>
     </g>
     <g id="text_10">
      <!-- 80 -->
      <g style="fill: #333333" transform="translate(12.463594 61.34744) scale(0.095 -0.095)">
       <defs>
        <path id="STHeitiTC-Medium-38" d="M 2547 2950 
Q 3373 2522 3373 1747 
Q 3373 1114 2928 691 
Q 2483 269 1763 269 
Q 1043 269 608 691 
Q 173 1114 173 1709 
Q 173 2515 1018 2950 
Q 390 3315 390 3942 
Q 390 4435 800 4809 
Q 1210 5184 1782 5184 
Q 2355 5184 2758 4819 
Q 3162 4454 3162 3930 
Q 3162 3322 2547 2950 
z
M 1792 3181 
Q 2118 3181 2364 3411 
Q 2611 3642 2611 3939 
Q 2611 4237 2380 4445 
Q 2150 4653 1785 4653 
Q 1421 4653 1184 4445 
Q 947 4237 947 3939 
Q 947 3642 1203 3411 
Q 1459 3181 1792 3181 
z
M 1773 794 
Q 2234 794 2528 1069 
Q 2822 1344 2822 1728 
Q 2822 2112 2518 2393 
Q 2214 2675 1782 2675 
Q 1350 2675 1036 2384 
Q 723 2093 723 1699 
Q 723 1306 1014 1050 
Q 1306 794 1773 794 
z
" transform="scale(0.015625)"/>
       </defs>
       <use xlink:href="#STHeitiTC-Medium-38"/>
       <use xlink:href="#STHeitiTC-Medium-30" x="55.399994"/>
      </g>
     </g>
    </g>
    <g id="ytick_6">
     <g id="line2d_16">
      <path d="M 29.990781 17.259988 
L 603.271461 17.259988 
" clip-path="url(#p8388cf4ceb)" style="fill: none; stroke-dasharray: 2.96,1.28; stroke-dashoffset: 0; stroke: #b0b0b0; stroke-opacity: 0.35; stroke-width: 0.8"/>
     </g>
     <g id="line2d_17">
      <g>
       <use xlink:href="#mfe2910afdb" x="29.990781" y="17.259988" style="fill: #333333; stroke: #333333; stroke-width: 0.8"/>
      </g>
     </g>
     <g id="text_11">
      <!-- 100 -->
      <g style="fill: #333333" transform="translate(7.2 21.107488) scale(0.095 -0.095)">
       <defs>
        <path id="STHeitiTC-Medium-31" d="M 2131 384 
L 1587 384 
L 1587 4531 
L 826 4531 
L 1158 5069 
L 2131 5069 
L 2131 384 
z
" transform="scale(0.015625)"/>
       </defs>
       <use xlink:href="#STHeitiTC-Medium-31"/>
       <use xlink:href="#STHeitiTC-Medium-30" x="55.399994"/>
       <use xlink:href="#STHeitiTC-Medium-30" x="110.799988"/>
      </g>
     </g>
    </g>
   </g>
   <g id="patch_3">
    <path d="M 29.990781 218.45975 
L 29.990781 7.2 
" style="fill: none; stroke: #000000; stroke-width: 0.8; stroke-linejoin: miter; stroke-linecap: square"/>
   </g>
   <g id="patch_4">
    <path d="M 29.990781 218.45975 
L 603.271461 218.45975 
" style="fill: none; stroke: #000000; stroke-width: 0.8; stroke-linejoin: miter; stroke-linecap: square"/>
   </g>
   <g id="patch_5">
    <path d="M 56.048994 218.45975 
L 119.046871 218.45975 
L 119.046871 17.259988 
L 56.048994 17.259988 
z
" clip-path="url(#p8388cf4ceb)" style="fill: #1a56db"/>
   </g>
   <g id="patch_6">
    <path d="M 170.590588 218.45975 
L 233.588465 218.45975 
L 233.588465 17.259988 
L 170.590588 17.259988 
z
" clip-path="url(#p8388cf4ceb)" style="fill: #1a56db"/>
   </g>
   <g id="patch_7">
    <path d="M 285.132182 218.45975 
L 348.130059 218.45975 
L 348.130059 17.259988 
L 285.132182 17.259988 
z
" clip-path="url(#p8388cf4ceb)" style="fill: #1a56db"/>
   </g>
   <g id="patch_8">
    <path d="M 399.673777 218.45975 
L 462.671654 218.45975 
L 462.671654 17.259988 
L 399.673777 17.259988 
z
" clip-path="url(#p8388cf4ceb)" style="fill: #1a56db"/>
   </g>
   <g id="patch_9">
    <path d="M 514.215371 218.45975 
L 577.213248 218.45975 
L 577.213248 17.259988 
L 514.215371 17.259988 
z
" clip-path="url(#p8388cf4ceb)" style="fill: #1a56db"/>
   </g>
   <g id="text_12">
    <!-- 100 -->
    <g transform="translate(79.652542 14.990786) scale(0.095 -0.095)">
     <use xlink:href="#STHeitiTC-Medium-31"/>
     <use xlink:href="#STHeitiTC-Medium-30" x="55.399994"/>
     <use xlink:href="#STHeitiTC-Medium-30" x="110.799988"/>
    </g>
   </g>
   <g id="text_13">
    <!-- 100 -->
    <g transform="translate(194.194136 14.990786) scale(0.095 -0.095)">
     <use xlink:href="#STHeitiTC-Medium-31"/>
     <use xlink:href="#STHeitiTC-Medium-30" x="55.399994"/>
     <use xlink:href="#STHeitiTC-Medium-30" x="110.799988"/>
    </g>
   </g>
   <g id="text_14">
    <!-- 100 -->
    <g transform="translate(308.73573 14.990786) scale(0.095 -0.095)">
     <use xlink:href="#STHeitiTC-Medium-31"/>
     <use xlink:href="#STHeitiTC-Medium-30" x="55.399994"/>
     <use xlink:href="#STHeitiTC-Medium-30" x="110.799988"/>
    </g>
   </g>
   <g id="text_15">
    <!-- 100 -->
    <g transform="translate(423.277325 14.990786) scale(0.095 -0.095)">
     <use xlink:href="#STHeitiTC-Medium-31"/>
     <use xlink:href="#STHeitiTC-Medium-30" x="55.399994"/>
     <use xlink:href="#STHeitiTC-Medium-30" x="110.799988"/>
    </g>
   </g>
   <g id="text_16">
    <!-- 100 -->
    <g transform="translate(537.818919 14.990786) scale(0.095 -0.095)">
     <use xlink:href="#STHeitiTC-Medium-31"/>
     <use xlink:href="#STHeitiTC-Medium-30" x="55.399994"/>
     <use xlink:href="#STHeitiTC-Medium-30" x="110.799988"/>
    </g>
   </g>
  </g>
 </g>
 <defs>
  <clipPath id="p8388cf4ceb">
   <rect x="29.990781" y="7.2" width="573.280679" height="211.25975"/>
  </clipPath>
 </defs>
</svg>
