<?xml version="1.0" encoding="utf-8" standalone="no"?>
<!DOCTYPE svg PUBLIC "-//W3C//DTD SVG 1.1//EN"
  "http://www.w3.org/Graphics/SVG/1.1/DTD/svg11.dtd">
<svg xmlns:xlink="http://www.w3.org/1999/xlink" width="637.92pt" height="242.718203pt" viewBox="0 0 637.92 242.718203" xmlns="http://www.w3.org/2000/svg" version="1.1">
 <metadata>
  <rdf:RDF xmlns:dc="http://purl.org/dc/elements/1.1/" xmlns:cc="http://creativecommons.org/ns#" xmlns:rdf="http://www.w3.org/1999/02/22-rdf-syntax-ns#">
   <cc:Work>
    <dc:type rdf:resource="http://purl.org/dc/dcmitype/StillImage"/>
    <dc:date>2026-06-09T08:20:20.069831</dc:date>
    <dc:format>image/svg+xml</dc:format>
    <dc:creator>
     <cc:Agent>
      <dc:title>Matplotlib v3.9.4, https://matplotlib.org/</dc:title>
     </cc:Agent>
    </dc:creator>
   </cc:Work>
  </rdf:RDF>
 </metadata>
 <defs>
  <style type="text/css">*{stroke-linejoin: round; stroke-linecap: butt}</style>
 </defs>
 <g id="figure_1">
  <g id="patch_1">
   <path d="M -0 242.718203 
L 637.92 242.718203 
L 637.92 0 
L -0 0 
z
" style="fill: #ffffff"/>
  </g>
  <g id="axes_1">
   <g id="patch_2">
    <path d="M 128.2 219.56 
L 630.72 219.56 
L 630.72 7.2 
L 128.2 7.2 
z
" style="fill: #fafafa"/>
   </g>
   <g id="matplotlib.axis_1">
    <g id="xtick_1">
     <g id="line2d_1">
      <path d="M 128.2 219.56 
L 128.2 7.2 
" clip-path="url(#p3b913f115a)" style="fill: none; stroke-dasharray: 2.96,1.28; stroke-dashoffset: 0; stroke: #b0b0b0; stroke-opacity: 0.35; stroke-width: 0.8"/>
     </g>
     <g id="line2d_2">
      <defs>
       <path id="m9313f3f655" d="M 0 0 
L 0 3.5 
" style="stroke: #333333; stroke-width: 0.8"/>
      </defs>
      <g>
       <use xlink:href="#m9313f3f655" x="128.2" y="219.56" style="fill: #333333; stroke: #333333; stroke-width: 0.8"/>
      </g>
     </g>
     <g id="text_1">
      <!-- 0 -->
      <g style="fill: #333333" transform="translate(125.568203 234.255) scale(0.095 -0.095)">
       <defs>
        <path id="STHeitiTC-Medium-30" d="M 1747 5184 
Q 2502 5184 2944 4547 
Q 3386 3910 3386 2723 
Q 3386 1536 2938 902 
Q 2490 269 1738 269 
Q 986 269 573 893 
Q 160 1517 160 2729 
Q 160 3942 573 4563 
Q 986 5184 1747 5184 
z
M 1760 774 
Q 2285 774 2576 1283 
Q 2867 1792 2867 2726 
Q 2867 3661 2566 4160 
Q 2266 4659 1757 4659 
Q 1248 4659 966 4160 
Q 685 3661 685 2714 
Q 685 774 1760 774 
z
" transform="scale(0.015625)"/>
       </defs>
       <use xlink:href="#STHeitiTC-Medium-30"/>
      </g>
     </g>
    </g>
    <g id="xtick_2">
     <g id="line2d_3">
      <path d="M 231.122683 219.56 
L 231.122683 7.2 
" clip-path="url(#p3b913f115a)" style="fill: none; stroke-dasharray: 2.96,1.28; stroke-dashoffset: 0; stroke: #b0b0b0; stroke-opacity: 0.35; stroke-width: 0.8"/>
     </g>
     <g id="line2d_4">
      <g>
       <use xlink:href="#m9313f3f655" x="231.122683" y="219.56" style="fill: #333333; stroke: #333333; stroke-width: 0.8"/>
      </g>
     </g>
     <g id="text_2">
      <!-- 20 -->
      <g style="fill: #333333" transform="translate(225.859089 234.255) scale(0.095 -0.095)">
       <defs>
        <path id="STHeitiTC-Medium-32" d="M 3360 384 
L 90 384 
L 1914 2355 
Q 2374 2842 2566 3123 
Q 2758 3405 2758 3763 
Q 2758 4122 2480 4390 
Q 2202 4659 1789 4659 
Q 1376 4659 1101 4368 
Q 826 4077 787 3539 
L 256 3539 
Q 288 4294 736 4739 
Q 1184 5184 1821 5184 
Q 2458 5184 2877 4771 
Q 3296 4358 3296 3763 
Q 3296 3328 3065 2950 
Q 2835 2573 2368 2074 
L 1293 915 
L 3360 915 
L 3360 384 
z
" transform="scale(0.015625)"/>
       </defs>
       <use xlink:href="#STHeitiTC-Medium-32"/>
       <use xlink:href="#STHeitiTC-Medium-30" x="55.399994"/>
      </g>
     </g>
    </g>
    <g id="xtick_3">
     <g id="line2d_5">
      <path d="M 334.045366 219.56 
L 334.045366 7.2 
" clip-path="url(#p3b913f115a)" style="fill: none; stroke-dasharray: 2.96,1.28; stroke-dashoffset: 0; stroke: #b0b0b0; stroke-opacity: 0.35; stroke-width: 0.8"/>
     </g>
     <g id="line2d_6">
      <g>
       <use xlink:href="#m9313f3f655" x="334.045366" y="219.56" style="fill: #333333; stroke: #333333; stroke-width: 0.8"/>
      </g>
     </g>
     <g id="text_3">
      <!-- 40 -->
      <g style="fill: #333333" transform="translate(328.781772 234.255) scale(0.095 -0.095)">
       <defs>
        <path id="STHeitiTC-Medium-34" d="M 3418 1453 
L 2861 1453 
L 2861 384 
L 2317 384 
L 2317 1453 
L 70 1453 
L 2701 5184 
L 2861 5184 
L 2861 1984 
L 3418 1984 
L 3418 1453 
z
M 2317 1984 
L 2317 3712 
L 1094 1984 
L 2317 1984 
z
" transform="scale(0.015625)"/>
       </defs>
       <use xlink:href="#STHeitiTC-Medium-34"/>
       <use xlink:href="#STHeitiTC-Medium-30" x="55.399994"/>
      </g>
     </g>
    </g>
    <g id="xtick_4">
     <g id="line2d_7">
      <path d="M 436.968049 219.56 
L 436.968049 7.2 
" clip-path="url(#p3b913f115a)" style="fill: none; stroke-dasharray: 2.96,1.28; stroke-dashoffset: 0; stroke: #b0b0b0; stroke-opacity: 0.35; stroke-width: 0.8"/>
     </g>
     <g id="line2d_8">
      <g>
       <use xlink:href="#m9313f3f655" x="436.968049" y="219.56" style="fill: #333333; stroke: #333333; stroke-width: 0.8"/>
      </g>
     </g>
     <g id="text_4">
      <!-- 60 -->
      <g style="fill: #333333" transform="translate(431.704455 234.255) scale(0.095 -0.095)">
       <defs>
        <path id="STHeitiTC-Medium-36" d="M 1594 3098 
Q 1798 3155 1984 3155 
Q 2515 3155 2912 2732 
Q 3309 2310 3309 1708 
Q 3309 1107 2880 688 
Q 2451 269 1830 269 
Q 1210 269 797 691 
Q 384 1114 384 1722 
Q 384 2016 499 2326 
Q 614 2637 915 3085 
L 2336 5203 
L 2797 4915 
L 1594 3098 
z
M 1843 806 
Q 2221 806 2493 1075 
Q 2765 1344 2765 1728 
Q 2765 2112 2496 2381 
Q 2227 2650 1843 2650 
Q 1459 2650 1190 2381 
Q 922 2112 922 1728 
Q 922 1344 1194 1075 
Q 1466 806 1843 806 
z
" transform="scale(0.015625)"/>
       </defs>
       <use xlink:href="#STHeitiTC-Medium-36"/>
       <use xlink:href="#STHeitiTC-Medium-30" x="55.399994"/>
      </g>
     </g>
    </g>
    <g id="xtick_5">
     <g id="line2d_9">
      <path d="M 539.890732 219.56 
L 539.890732 7.2 
" clip-path="url(#p3b913f115a)" style="fill: none; stroke-dasharray: 2.96,1.28; stroke-dashoffset: 0; stroke: #b0b0b0; stroke-opacity: 0.35; stroke-width: 0.8"/>
     </g>
     <g id="line2d_10">
      <g>
       <use xlink:href="#m9313f3f655" x="539.890732" y="219.56" style="fill: #333333; stroke: #333333; stroke-width: 0.8"/>
      </g>
     </g>
     <g id="text_5">
      <!-- 80 -->
      <g style="fill: #333333" transform="translate(534.627138 234.255) scale(0.095 -0.095)">
       <defs>
        <path id="STHeitiTC-Medium-38" d="M 2547 2950 
Q 3373 2522 3373 1747 
Q 3373 1114 2928 691 
Q 2483 269 1763 269 
Q 1043 269 608 691 
Q 173 1114 173 1709 
Q 173 2515 1018 2950 
Q 390 3315 390 3942 
Q 390 4435 800 4809 
Q 1210 5184 1782 5184 
Q 2355 5184 2758 4819 
Q 3162 4454 3162 3930 
Q 3162 3322 2547 2950 
z
M 1792 3181 
Q 2118 3181 2364 3411 
Q 2611 3642 2611 3939 
Q 2611 4237 2380 4445 
Q 2150 4653 1785 4653 
Q 1421 4653 1184 4445 
Q 947 4237 947 3939 
Q 947 3642 1203 3411 
Q 1459 3181 1792 3181 
z
M 1773 794 
Q 2234 794 2528 1069 
Q 2822 1344 2822 1728 
Q 2822 2112 2518 2393 
Q 2214 2675 1782 2675 
Q 1350 2675 1036 2384 
Q 723 2093 723 1699 
Q 723 1306 1014 1050 
Q 1306 794 1773 794 
z
" transform="scale(0.015625)"/>
       </defs>
       <use xlink:href="#STHeitiTC-Medium-38"/>
       <use xlink:href="#STHeitiTC-Medium-30" x="55.399994"/>
      </g>
     </g>
    </g>
   </g>
   <g id="matplotlib.axis_2">
    <g id="ytick_1">
     <g id="line2d_11">
      <defs>
       <path id="ma45f95c494" d="M 0 0 
L -3.5 0 
" style="stroke: #333333; stroke-width: 0.8"/>
      </defs>
      <g>
       <use xlink:href="#ma45f95c494" x="128.2" y="189.087665" style="fill: #333333; stroke: #333333; stroke-width: 0.8"/>
      </g>
     </g>
     <g id="text_6">
      <!-- AI 操作中不可逆的比例 -->
      <g style="fill: #333333" transform="translate(24.148594 192.935165) scale(0.095 -0.095)">
       <defs>
        <path id="STHeitiTC-Medium-41" d="M 4646 384 
L 4064 384 
L 3341 1952 
L 1408 1952 
L 691 384 
L 83 384 
L 2298 5254 
L 2464 5254 
L 4646 384 
z
M 3091 2509 
L 2381 4090 
L 1664 2509 
L 3091 2509 
z
" transform="scale(0.015625)"/>
        <path id="STHeitiTC-Medium-49" d="M 998 384 
L 448 384 
L 448 5069 
L 998 5069 
L 998 384 
z
" transform="scale(0.015625)"/>
        <path id="STHeitiTC-Medium-20" transform="scale(0.015625)"/>
        <path id="STHeitiTC-Medium-64cd" d="M 3411 2803 
L 2746 2803 
L 2746 2234 
L 3411 2234 
L 3411 2803 
z
M 3808 1843 
Q 3674 1862 3507 1872 
Q 3341 1882 3078 1882 
Q 2816 1882 2640 1872 
Q 2464 1862 2330 1850 
Q 2349 1997 2355 2169 
Q 2362 2342 2355 2534 
Q 2355 2714 2348 2899 
Q 2342 3085 2330 3213 
Q 2464 3194 2640 3184 
Q 2816 3174 3078 3174 
Q 3341 3174 3501 3180 
Q 3661 3187 3808 3213 
Q 3795 3078 3788 2899 
Q 3782 2720 3782 2534 
Q 3782 2349 3788 2163 
Q 3795 1978 3808 1843 
z
M 5350 2803 
L 4608 2803 
L 4608 2234 
L 5350 2234 
L 5350 2803 
z
M 5779 1843 
Q 5632 1862 5453 1872 
Q 5274 1882 4992 1882 
Q 4710 1882 4524 1875 
Q 4339 1869 4192 1850 
Q 4211 1997 4220 2166 
Q 4230 2336 4224 2534 
Q 4224 2707 4214 2899 
Q 4205 3091 4192 3213 
Q 4339 3194 4524 3181 
Q 4710 3168 4992 3168 
Q 5274 3168 5453 3177 
Q 5632 3187 5779 3213 
Q 5760 3085 5753 2902 
Q 5747 2720 5747 2534 
Q 5741 2349 5750 2169 
Q 5760 1990 5779 1843 
z
M 4819 4518 
L 3296 4518 
L 3296 3962 
L 4819 3962 
L 4819 4518 
z
M 5280 3546 
Q 5056 3565 4774 3574 
Q 4493 3584 4045 3584 
Q 3603 3584 3312 3574 
Q 3021 3565 2797 3552 
Q 2822 3706 2828 3878 
Q 2835 4051 2835 4243 
Q 2835 4429 2825 4614 
Q 2816 4800 2797 4928 
Q 3021 4909 3312 4899 
Q 3603 4890 4045 4890 
Q 4493 4890 4771 4899 
Q 5050 4909 5280 4928 
Q 5261 4800 5251 4614 
Q 5242 4429 5242 4243 
Q 5242 4051 5254 3872 
Q 5267 3693 5280 3546 
z
M 3270 979 
Q 2925 973 2621 960 
Q 2317 947 2138 922 
L 2138 1434 
Q 2451 1389 2825 1373 
Q 3200 1357 3738 1357 
Q 3725 1632 3699 1696 
Q 3853 1670 3990 1660 
Q 4128 1651 4205 1664 
Q 4320 1677 4250 1594 
Q 4211 1542 4198 1357 
Q 4755 1357 5145 1373 
Q 5536 1389 5850 1434 
L 5850 922 
Q 5638 941 5299 957 
Q 4960 973 4576 979 
Q 4730 768 4886 611 
Q 5043 454 5216 345 
Q 5389 237 5590 163 
Q 5792 90 6035 38 
Q 5926 -90 5827 -250 
Q 5728 -410 5696 -544 
Q 5446 -442 5238 -307 
Q 5030 -173 4854 6 
Q 4678 186 4524 422 
Q 4371 659 4230 979 
L 4198 979 
L 4198 307 
Q 4198 96 4204 -169 
Q 4211 -435 4243 -704 
L 3693 -704 
Q 3706 -570 3715 -454 
Q 3725 -339 3731 -224 
Q 3738 -109 3741 19 
Q 3744 147 3744 307 
L 3744 979 
L 3642 979 
Q 3462 691 3318 483 
Q 3174 275 3020 112 
Q 2867 -51 2688 -195 
Q 2509 -339 2259 -506 
Q 2163 -403 2080 -320 
Q 1997 -237 1888 -134 
Q 2310 38 2643 313 
Q 2976 589 3270 979 
z
M 1133 3341 
Q 717 3334 454 3283 
L 454 3821 
Q 582 3795 748 3785 
Q 915 3776 1133 3770 
Q 1133 4096 1129 4307 
Q 1126 4518 1120 4659 
Q 1114 4800 1101 4893 
Q 1088 4986 1062 5075 
Q 1235 5056 1356 5049 
Q 1478 5043 1613 5050 
Q 1760 5062 1779 5024 
Q 1798 4986 1709 4883 
Q 1613 4768 1613 4538 
L 1613 3770 
Q 1805 3776 1955 3789 
Q 2106 3802 2227 3821 
L 2227 3283 
Q 2106 3302 1955 3315 
Q 1805 3328 1613 3334 
L 1613 2214 
Q 1779 2266 1907 2310 
Q 2035 2355 2150 2413 
Q 2106 2266 2118 2160 
Q 2131 2054 2182 1933 
Q 2042 1901 1901 1862 
Q 1760 1824 1613 1773 
L 1613 115 
Q 1613 -96 1593 -221 
Q 1574 -346 1484 -419 
Q 1395 -493 1209 -541 
Q 1024 -589 698 -653 
Q 646 -467 585 -332 
Q 525 -198 416 -51 
Q 640 -64 781 -57 
Q 922 -51 998 -19 
Q 1075 13 1104 73 
Q 1133 134 1133 230 
L 1133 1626 
Q 966 1568 803 1510 
Q 640 1453 486 1389 
Q 467 1664 358 1984 
Q 582 2016 774 2045 
Q 966 2074 1133 2106 
L 1133 3341 
z
" transform="scale(0.015625)"/>
        <path id="STHeitiTC-Medium-4f5c" d="M 1779 -621 
L 1184 -621 
Q 1210 -346 1235 32 
Q 1261 410 1261 755 
L 1261 2797 
Q 1126 2547 998 2320 
Q 870 2093 768 1920 
Q 678 2061 585 2169 
Q 493 2278 384 2368 
Q 512 2528 640 2717 
Q 768 2906 883 3101 
Q 998 3296 1094 3478 
Q 1190 3661 1248 3808 
Q 1523 4461 1670 5069 
Q 1984 4902 2182 4883 
Q 2477 4858 2240 4717 
Q 2221 4704 2198 4672 
Q 2176 4640 2128 4550 
Q 2080 4461 1997 4291 
Q 1914 4122 1779 3834 
L 1779 -621 
z
M 3200 3654 
Q 3034 3334 2851 3020 
Q 2669 2707 2502 2477 
Q 2317 2643 1997 2720 
Q 2323 3117 2585 3558 
Q 2848 4000 3034 4448 
Q 3123 4653 3184 4841 
Q 3245 5030 3277 5235 
Q 3405 5165 3584 5104 
Q 3763 5043 3987 5018 
Q 4032 5011 4041 4950 
Q 4051 4890 3968 4851 
Q 3846 4794 3756 4688 
Q 3667 4582 3565 4371 
Q 3533 4307 3501 4243 
Q 3469 4179 3437 4109 
L 5216 4109 
Q 5466 4109 5664 4125 
Q 5862 4141 6016 4166 
L 6016 3597 
Q 5856 3622 5661 3638 
Q 5466 3654 5210 3654 
L 3968 3654 
L 3968 2592 
L 4979 2592 
Q 5184 2592 5369 2601 
Q 5555 2611 5722 2637 
L 5722 2080 
Q 5574 2099 5388 2112 
Q 5203 2125 5005 2125 
L 3968 2125 
L 3968 1024 
L 5088 1024 
Q 5446 1024 5888 1082 
L 5888 480 
Q 5670 512 5465 525 
Q 5261 538 5088 538 
L 3968 538 
L 3968 397 
Q 3968 128 3981 -121 
Q 3994 -371 4026 -704 
L 3398 -704 
Q 3430 -358 3440 -99 
Q 3450 160 3450 397 
L 3450 3654 
L 3200 3654 
z
" transform="scale(0.015625)"/>
        <path id="STHeitiTC-Medium-4e2d" d="M 3443 1453 
L 3443 518 
Q 3443 410 3446 266 
Q 3450 122 3459 -35 
Q 3469 -192 3481 -345 
Q 3494 -499 3507 -634 
L 2822 -634 
Q 2835 -518 2844 -364 
Q 2854 -211 2864 -51 
Q 2874 109 2880 259 
Q 2886 410 2886 518 
L 2886 1453 
L 1402 1453 
L 1402 998 
L 813 998 
Q 832 1203 845 1475 
Q 858 1747 858 1952 
L 858 3334 
Q 858 3501 845 3686 
Q 832 3872 813 3994 
Q 1050 3962 1565 3946 
Q 2080 3930 2886 3923 
L 2886 4224 
Q 2886 4448 2883 4605 
Q 2880 4762 2870 4874 
Q 2861 4986 2851 5056 
Q 2842 5126 2822 5178 
Q 3002 5158 3165 5148 
Q 3328 5139 3501 5139 
Q 3578 5139 3587 5116 
Q 3597 5094 3520 5024 
Q 3443 4954 3443 4672 
L 3443 3923 
Q 4288 3930 4816 3946 
Q 5344 3962 5581 3994 
Q 5574 3930 5568 3830 
Q 5562 3731 5558 3622 
Q 5555 3514 5552 3402 
Q 5549 3290 5549 3206 
L 5549 1978 
Q 5549 1786 5558 1526 
Q 5568 1267 5581 1062 
L 4973 1062 
L 4973 1453 
L 3443 1453 
z
M 4973 1933 
L 4973 3443 
L 3443 3443 
L 3443 1933 
L 4973 1933 
z
M 2886 1933 
L 2886 3443 
L 1402 3443 
L 1402 1933 
L 2886 1933 
z
" transform="scale(0.015625)"/>
        <path id="STHeitiTC-Medium-4e0d" d="M 5485 826 
Q 5299 1101 5116 1341 
Q 4934 1581 4742 1798 
Q 4550 2016 4342 2217 
Q 4134 2419 3898 2618 
L 4390 2982 
Q 4627 2758 4828 2560 
Q 5030 2362 5225 2160 
Q 5421 1958 5619 1740 
Q 5818 1523 6048 1261 
L 5485 826 
z
M 3354 4192 
Q 2381 4192 1705 4179 
Q 1030 4166 538 4134 
L 538 4723 
Q 1030 4691 1705 4675 
Q 2381 4659 3296 4659 
Q 4211 4659 4883 4675 
Q 5555 4691 6048 4723 
L 6048 4134 
Q 5645 4166 5133 4176 
Q 4621 4186 3987 4192 
Q 3898 3981 3782 3760 
Q 3667 3539 3520 3315 
L 3520 397 
Q 3520 218 3523 80 
Q 3526 -58 3532 -182 
Q 3539 -307 3548 -432 
Q 3558 -557 3578 -704 
L 2867 -704 
Q 2886 -557 2896 -432 
Q 2906 -307 2912 -182 
Q 2918 -58 2921 80 
Q 2925 218 2925 397 
L 2925 2509 
Q 2547 2067 2044 1612 
Q 1542 1158 883 698 
Q 794 838 646 998 
Q 499 1158 352 1248 
Q 1414 1715 2160 2438 
Q 2906 3162 3354 4192 
z
" transform="scale(0.015625)"/>
        <path id="STHeitiTC-Medium-53ef" d="M 1920 4134 
Q 1594 4134 1373 4131 
Q 1152 4128 992 4121 
Q 832 4115 713 4105 
Q 595 4096 474 4083 
L 474 4685 
Q 595 4666 716 4650 
Q 838 4634 998 4627 
Q 1158 4621 1376 4617 
Q 1594 4614 1920 4614 
L 4486 4614 
Q 4979 4614 5337 4633 
Q 5696 4653 5920 4685 
L 5920 4077 
Q 5754 4096 5526 4109 
Q 5299 4122 5011 4128 
L 5011 38 
Q 5011 -173 4966 -317 
Q 4922 -461 4774 -547 
Q 4627 -634 4352 -662 
Q 4077 -691 3616 -678 
Q 3610 -531 3539 -342 
Q 3469 -154 3322 -6 
Q 3706 -70 3933 -86 
Q 4160 -102 4278 -70 
Q 4397 -38 4429 38 
Q 4461 115 4461 243 
L 4461 4134 
L 1920 4134 
z
M 3136 2899 
L 1670 2899 
L 1670 1664 
L 3136 1664 
L 3136 2899 
z
M 1670 397 
L 1082 397 
Q 1094 518 1104 684 
Q 1114 851 1123 1024 
Q 1133 1197 1136 1357 
Q 1139 1517 1139 1626 
L 1139 2509 
Q 1139 2726 1126 2995 
Q 1114 3264 1094 3450 
Q 1274 3430 1597 3417 
Q 1920 3405 2451 3405 
Q 2982 3405 3260 3417 
Q 3539 3430 3686 3450 
Q 3680 3373 3670 3254 
Q 3661 3136 3654 3005 
Q 3648 2874 3645 2742 
Q 3642 2611 3642 2509 
L 3642 1626 
Q 3642 1408 3654 1171 
Q 3667 934 3699 730 
L 3136 730 
L 3136 1190 
L 1670 1190 
L 1670 397 
z
" transform="scale(0.015625)"/>
        <path id="STHeitiTC-Medium-9006" d="M 4090 1523 
Q 4032 1331 3939 1164 
Q 3846 998 3712 838 
Q 3578 678 3392 521 
Q 3206 365 2950 186 
Q 2822 352 2720 438 
Q 2618 525 2470 589 
Q 2720 698 2905 806 
Q 3091 915 3219 1030 
Q 3347 1146 3433 1267 
Q 3520 1389 3578 1523 
Q 3450 1523 3283 1516 
Q 3117 1510 2947 1500 
Q 2778 1491 2624 1481 
Q 2470 1472 2374 1459 
Q 2432 1766 2432 2016 
L 2432 2368 
Q 2432 2778 2381 2995 
Q 2650 2938 2944 2957 
Q 3034 2963 3034 2921 
Q 3034 2880 2963 2842 
Q 2931 2829 2912 2752 
Q 2893 2675 2893 2630 
L 2893 1946 
L 3699 1946 
Q 3718 2080 3734 2221 
Q 3750 2362 3753 2538 
Q 3757 2714 3753 2950 
Q 3750 3187 3744 3520 
Q 3501 3520 3273 3517 
Q 3046 3514 2844 3507 
Q 2643 3501 2476 3494 
Q 2310 3488 2195 3482 
L 2195 3987 
Q 2464 3968 2957 3958 
Q 3450 3949 4115 3949 
Q 4320 4307 4454 4640 
Q 4589 4973 4640 5203 
Q 4947 5011 5242 4979 
Q 5338 4966 5331 4899 
Q 5325 4832 5184 4774 
Q 5114 4742 4966 4544 
Q 4819 4346 4582 3949 
Q 4768 3949 4963 3952 
Q 5158 3955 5340 3961 
Q 5523 3968 5680 3974 
Q 5837 3981 5946 3987 
L 5946 3482 
Q 5414 3520 4243 3520 
Q 4256 2944 4243 2576 
Q 4230 2208 4186 1946 
L 5075 1946 
L 5075 2349 
Q 5075 2528 5056 2733 
Q 5037 2938 5005 3066 
Q 5146 3021 5309 3001 
Q 5472 2982 5613 2995 
Q 5696 3002 5705 2966 
Q 5715 2931 5626 2861 
Q 5587 2829 5571 2713 
Q 5555 2598 5555 2477 
L 5555 1965 
Q 5555 1677 5600 1459 
Q 5446 1472 5260 1481 
Q 5075 1491 4876 1500 
Q 4678 1510 4476 1516 
Q 4275 1523 4090 1523 
z
M 1254 3795 
Q 1133 4019 995 4227 
Q 858 4435 685 4640 
L 1133 4915 
Q 1306 4710 1443 4518 
Q 1581 4326 1747 4070 
L 1254 3795 
z
M 1562 602 
Q 1728 480 1913 390 
Q 2099 301 2339 240 
Q 2579 179 2899 150 
Q 3219 122 3664 122 
Q 4109 122 4697 154 
Q 5286 186 6061 250 
Q 5933 64 5878 -73 
Q 5824 -211 5805 -403 
Q 5018 -422 4429 -422 
Q 3840 -422 3401 -400 
Q 2963 -378 2649 -333 
Q 2336 -288 2105 -217 
Q 1875 -147 1702 -48 
Q 1530 51 1370 179 
Q 1254 -26 1110 -205 
Q 966 -384 781 -582 
Q 685 -474 573 -394 
Q 461 -314 333 -243 
Q 563 -45 729 153 
Q 896 352 1021 569 
Q 1146 787 1226 1033 
Q 1306 1280 1363 1581 
L 1178 1581 
Q 1037 1581 905 1558 
Q 774 1536 646 1466 
Q 621 1670 585 1792 
Q 550 1914 486 2016 
Q 621 2048 704 2115 
Q 787 2182 864 2317 
L 1229 2982 
L 915 2982 
Q 819 2982 672 2969 
Q 525 2957 429 2938 
L 429 3443 
Q 525 3437 595 3430 
Q 666 3424 749 3421 
Q 832 3418 931 3418 
Q 1030 3418 1184 3418 
Q 1542 3418 1715 3427 
Q 1888 3437 2016 3456 
L 1171 1978 
L 1504 1978 
Q 1600 1978 1718 1984 
Q 1837 1990 1926 2003 
Q 1824 1491 1737 1164 
Q 1651 838 1562 602 
z
M 3258 4147 
Q 3187 4352 3072 4553 
Q 2957 4755 2854 4870 
L 3328 5126 
Q 3418 4986 3536 4778 
Q 3654 4570 3731 4403 
L 3258 4147 
z
" transform="scale(0.015625)"/>
        <path id="STHeitiTC-Medium-7684" d="M 4032 1120 
Q 3994 1267 3933 1433 
Q 3872 1600 3798 1760 
Q 3725 1920 3648 2064 
Q 3571 2208 3494 2317 
L 4013 2541 
Q 4064 2413 4131 2265 
Q 4198 2118 4275 1971 
Q 4352 1824 4435 1680 
Q 4518 1536 4595 1414 
L 4032 1120 
z
M 5107 3981 
Q 5293 3981 5501 3997 
Q 5709 4013 5830 4032 
Q 5805 3891 5795 3728 
Q 5786 3565 5779 3398 
L 5645 179 
Q 5638 6 5574 -131 
Q 5510 -269 5369 -374 
Q 5229 -480 4995 -547 
Q 4762 -614 4410 -640 
Q 4390 -467 4300 -265 
Q 4211 -64 4058 70 
Q 4384 32 4585 38 
Q 4787 45 4902 93 
Q 5018 141 5062 233 
Q 5107 326 5114 467 
L 5235 3488 
L 3878 3488 
Q 3770 3174 3654 2937 
Q 3539 2701 3398 2445 
Q 3155 2694 2925 2765 
Q 3200 3130 3417 3702 
Q 3635 4275 3770 5056 
Q 3904 5005 4096 4973 
Q 4288 4941 4435 4947 
Q 4525 4954 4531 4906 
Q 4538 4858 4442 4787 
Q 4371 4736 4262 4512 
Q 4154 4288 4045 3981 
L 5107 3981 
z
M 2304 3469 
L 1152 3469 
L 1152 2342 
L 2304 2342 
L 2304 3469 
z
M 2304 1907 
L 1152 1907 
L 1152 634 
L 2304 634 
L 2304 1907 
z
M 1152 -422 
L 563 -422 
Q 582 -275 592 -156 
Q 602 -38 605 67 
Q 608 173 611 278 
Q 614 384 614 518 
L 614 3379 
Q 614 3526 604 3683 
Q 595 3840 570 3962 
Q 698 3949 870 3939 
Q 1043 3930 1235 3917 
Q 1363 4576 1363 5062 
Q 1517 5024 1709 4998 
Q 1901 4973 2054 4966 
Q 2131 4960 2137 4918 
Q 2144 4877 2067 4806 
Q 2029 4774 1997 4723 
Q 1965 4672 1929 4573 
Q 1894 4474 1849 4317 
Q 1805 4160 1741 3910 
Q 2099 3910 2374 3920 
Q 2650 3930 2893 3962 
Q 2867 3834 2857 3677 
Q 2848 3520 2848 3379 
L 2848 563 
Q 2848 429 2851 320 
Q 2854 211 2860 105 
Q 2867 0 2876 -115 
Q 2886 -230 2899 -371 
L 2304 -371 
L 2304 198 
L 1152 198 
L 1152 -422 
z
" transform="scale(0.015625)"/>
        <path id="STHeitiTC-Medium-6bd4" d="M 1370 3245 
Q 1850 3245 2205 3254 
Q 2560 3264 2874 3283 
L 2874 2726 
Q 2554 2746 2208 2758 
Q 1862 2771 1370 2771 
L 1370 288 
L 2848 947 
Q 2854 806 2880 662 
Q 2906 518 2938 461 
L 1325 -262 
Q 1126 -352 963 -457 
Q 800 -563 710 -653 
Q 634 -467 534 -310 
Q 435 -154 346 -70 
Q 608 -13 851 70 
L 851 4230 
Q 851 4442 841 4624 
Q 832 4806 800 4954 
Q 928 4922 1085 4909 
Q 1242 4896 1331 4902 
Q 1472 4915 1491 4880 
Q 1510 4845 1440 4781 
Q 1370 4723 1370 4602 
L 1370 3245 
z
M 3904 403 
Q 3904 294 3923 233 
Q 3942 173 4009 141 
Q 4077 109 4214 99 
Q 4352 90 4589 90 
Q 4813 90 4944 109 
Q 5075 128 5161 221 
Q 5248 314 5312 506 
Q 5376 698 5459 1043 
Q 5581 902 5731 800 
Q 5882 698 6048 653 
Q 5926 282 5811 64 
Q 5696 -154 5526 -269 
Q 5357 -384 5101 -419 
Q 4845 -454 4442 -454 
Q 4070 -454 3856 -422 
Q 3642 -390 3533 -300 
Q 3424 -211 3395 -41 
Q 3366 128 3366 397 
L 3366 4237 
Q 3366 4448 3366 4589 
Q 3366 4730 3360 4832 
Q 3354 4934 3347 5008 
Q 3341 5082 3328 5158 
Q 3488 5126 3673 5116 
Q 3859 5107 3981 5120 
Q 4064 5126 4073 5100 
Q 4083 5075 4019 4986 
Q 3955 4896 3929 4787 
Q 3904 4678 3904 4435 
L 3904 2778 
Q 4115 2912 4326 3059 
Q 4538 3206 4723 3350 
Q 4909 3494 5062 3628 
Q 5216 3763 5325 3872 
Q 5421 3725 5542 3593 
Q 5664 3462 5792 3379 
Q 5914 3302 5728 3258 
Q 5677 3245 5510 3158 
Q 5344 3072 5097 2934 
Q 4851 2797 4540 2614 
Q 4230 2432 3904 2227 
L 3904 403 
z
" transform="scale(0.015625)"/>
        <path id="STHeitiTC-Medium-4f8b" d="M 5958 4819 
Q 5926 4774 5910 4732 
Q 5894 4691 5894 4614 
L 5894 -96 
Q 5894 -237 5872 -329 
Q 5850 -422 5747 -483 
Q 5645 -544 5443 -582 
Q 5242 -621 4877 -646 
Q 4864 -474 4803 -336 
Q 4742 -198 4621 -32 
Q 4896 -51 5049 -51 
Q 5203 -51 5280 -28 
Q 5357 -6 5373 42 
Q 5389 90 5389 166 
L 5389 3949 
Q 5389 4326 5382 4582 
Q 5376 4838 5357 4998 
Q 5485 4947 5635 4931 
Q 5786 4915 5914 4922 
Q 5997 4928 6006 4909 
Q 6016 4890 5958 4819 
z
M 4960 3981 
Q 4909 3930 4909 3789 
L 4909 1594 
Q 4909 1402 4915 1203 
Q 4922 1005 4934 774 
L 4384 774 
Q 4397 1018 4403 1210 
Q 4410 1402 4410 1594 
L 4410 3437 
Q 4410 3674 4403 3840 
Q 4397 4006 4384 4134 
Q 4538 4115 4685 4102 
Q 4832 4090 4928 4090 
Q 5088 4090 4960 3981 
z
M 1139 2822 
Q 1030 2630 924 2451 
Q 819 2272 698 2093 
Q 627 2234 544 2374 
Q 461 2515 384 2611 
Q 512 2771 611 2915 
Q 710 3059 790 3203 
Q 870 3347 934 3497 
Q 998 3648 1069 3827 
Q 1178 4128 1267 4483 
Q 1357 4838 1395 5101 
Q 1568 5024 1734 4960 
Q 1901 4896 2048 4864 
Q 2118 4851 2115 4825 
Q 2112 4800 2035 4710 
Q 2016 4685 1990 4646 
Q 1965 4608 1920 4521 
Q 1875 4435 1808 4278 
Q 1741 4122 1626 3866 
L 1626 -678 
L 1069 -678 
Q 1094 -403 1116 -25 
Q 1139 352 1139 698 
L 1139 2822 
z
M 3302 1702 
Q 3366 1946 3414 2256 
Q 3462 2566 3488 2893 
L 2899 2893 
Q 2784 2560 2621 2217 
Q 2458 1875 2195 1414 
Q 2093 1504 1984 1558 
Q 1875 1613 1747 1645 
Q 2131 2144 2358 2781 
Q 2586 3418 2694 4211 
Q 2528 4205 2403 4195 
Q 2278 4186 2163 4166 
L 2163 4723 
Q 2349 4691 2595 4681 
Q 2842 4672 3187 4672 
Q 3533 4672 3773 4681 
Q 4013 4691 4192 4723 
L 4192 4166 
Q 4026 4192 3776 4205 
Q 3526 4218 3219 4218 
Q 3168 3949 3123 3734 
Q 3078 3520 3027 3328 
L 3610 3328 
Q 3718 3328 3843 3331 
Q 3968 3334 4051 3347 
Q 4019 2989 3987 2697 
Q 3955 2406 3910 2150 
Q 3866 1894 3802 1657 
Q 3738 1421 3648 1178 
Q 3488 762 3155 323 
Q 2822 -115 2291 -544 
Q 2202 -429 2070 -352 
Q 1939 -275 1760 -224 
Q 2029 -45 2243 128 
Q 2458 301 2624 477 
Q 2790 653 2915 841 
Q 3040 1030 3136 1235 
Q 3027 1363 2848 1507 
Q 2669 1651 2515 1754 
L 2810 2106 
Q 2938 1997 3056 1897 
Q 3174 1798 3302 1702 
z
" transform="scale(0.015625)"/>
       </defs>
       <use xlink:href="#STHeitiTC-Medium-41"/>
       <use xlink:href="#STHeitiTC-Medium-49" x="73.999985"/>
       <use xlink:href="#STHeitiTC-Medium-20" x="96.599976"/>
       <use xlink:href="#STHeitiTC-Medium-64cd" x="121.59996"/>
       <use xlink:href="#STHeitiTC-Medium-4f5c" x="221.599945"/>
       <use xlink:href="#STHeitiTC-Medium-4e2d" x="321.59993"/>
       <use xlink:href="#STHeitiTC-Medium-4e0d" x="421.599915"/>
       <use xlink:href="#STHeitiTC-Medium-53ef" x="521.599899"/>
       <use xlink:href="#STHeitiTC-Medium-9006" x="621.599884"/>
       <use xlink:href="#STHeitiTC-Medium-7684" x="721.599869"/>
       <use xlink:href="#STHeitiTC-Medium-6bd4" x="821.599854"/>
       <use xlink:href="#STHeitiTC-Medium-4f8b" x="921.599838"/>
      </g>
     </g>
    </g>
    <g id="ytick_2">
     <g id="line2d_12">
      <g>
       <use xlink:href="#ma45f95c494" x="128.2" y="113.38" style="fill: #333333; stroke: #333333; stroke-width: 0.8"/>
      </g>
     </g>
     <g id="text_7">
      <!-- 资深用户开启全自动的比例 -->
      <g style="fill: #333333" transform="translate(7.2 117.2275) scale(0.095 -0.095)">
       <defs>
        <path id="STHeitiTC-Medium-8d44" d="M 5248 -678 
Q 4826 -410 4333 -160 
Q 3840 90 3354 288 
L 3622 691 
Q 4147 474 4659 246 
Q 5171 19 5606 -192 
L 5248 -678 
z
M 3533 1434 
Q 3469 1382 3421 1296 
Q 3373 1210 3315 1005 
Q 3226 666 3069 390 
Q 2912 115 2643 -99 
Q 2374 -314 1974 -464 
Q 1574 -614 998 -698 
Q 947 -589 864 -477 
Q 781 -365 653 -262 
Q 1370 -198 1830 -19 
Q 2291 160 2477 371 
Q 2662 576 2745 877 
Q 2829 1178 2861 1619 
Q 2989 1587 3155 1558 
Q 3322 1530 3482 1517 
Q 3571 1517 3577 1497 
Q 3584 1478 3533 1434 
z
M 4531 480 
L 4531 1850 
L 1907 1850 
L 1907 442 
L 1357 442 
Q 1376 608 1382 739 
Q 1389 870 1389 1024 
L 1389 1754 
Q 1389 1978 1382 2112 
Q 1376 2246 1357 2317 
Q 1472 2304 1603 2297 
Q 1734 2291 1936 2288 
Q 2138 2285 2445 2285 
Q 2752 2285 3219 2285 
Q 3686 2285 3990 2285 
Q 4294 2285 4496 2291 
Q 4698 2298 4829 2301 
Q 4960 2304 5082 2317 
Q 5056 2189 5056 1754 
L 5056 1062 
Q 5056 909 5062 777 
Q 5069 646 5082 480 
L 4531 480 
z
M 2125 3091 
Q 1651 2810 1308 2598 
Q 966 2387 672 2202 
Q 602 2362 528 2486 
Q 454 2611 358 2739 
Q 742 2874 1164 3078 
Q 1587 3283 1990 3565 
Q 2016 3398 2045 3299 
Q 2074 3200 2125 3091 
z
M 1606 3776 
Q 1184 4128 659 4378 
L 973 4794 
Q 1248 4666 1504 4531 
Q 1760 4397 1971 4262 
L 1606 3776 
z
M 3085 4077 
Q 2970 3930 2845 3792 
Q 2720 3654 2573 3507 
Q 2387 3693 2099 3750 
Q 2522 4115 2768 4457 
Q 3014 4800 3142 5190 
Q 3264 5133 3414 5088 
Q 3565 5043 3686 5030 
Q 3898 5011 3718 4883 
Q 3648 4832 3571 4752 
Q 3494 4672 3386 4506 
L 4646 4506 
Q 4768 4506 4950 4512 
Q 5133 4518 5312 4524 
Q 5491 4531 5641 4540 
Q 5792 4550 5862 4557 
L 5510 3565 
L 4928 3642 
L 5126 4077 
L 4115 4077 
Q 4243 3738 4428 3507 
Q 4614 3277 4854 3126 
Q 5094 2976 5392 2896 
Q 5690 2816 6042 2784 
Q 5914 2643 5837 2502 
Q 5760 2362 5709 2214 
Q 5082 2374 4618 2713 
Q 4154 3053 3949 3603 
Q 3763 3162 3382 2822 
Q 3002 2483 2496 2317 
Q 2432 2394 2339 2474 
Q 2246 2554 2125 2618 
Q 2784 2874 3161 3232 
Q 3539 3590 3686 4077 
L 3085 4077 
z
" transform="scale(0.015625)"/>
        <path id="STHeitiTC-Medium-6df1" d="M 1690 1728 
Q 1632 1574 1549 1292 
Q 1466 1011 1376 694 
Q 1286 378 1206 64 
Q 1126 -250 1082 -480 
Q 742 -275 403 -154 
Q 506 45 621 307 
Q 736 570 841 858 
Q 947 1146 1036 1446 
Q 1126 1747 1190 2029 
Q 1286 1914 1414 1846 
Q 1542 1779 1690 1728 
z
M 1222 2438 
Q 1056 2630 822 2822 
Q 589 3014 384 3142 
L 678 3565 
Q 902 3418 1155 3229 
Q 1408 3040 1587 2880 
L 1222 2438 
z
M 1498 3840 
Q 1306 4090 1126 4282 
Q 947 4474 762 4614 
L 1114 5018 
Q 1318 4851 1510 4659 
Q 1702 4467 1888 4269 
L 1498 3840 
z
M 3078 1734 
Q 2906 1734 2723 1731 
Q 2541 1728 2384 1721 
Q 2227 1715 2112 1712 
Q 1997 1709 1952 1702 
L 1952 2227 
Q 2208 2202 2617 2186 
Q 3027 2170 3507 2170 
Q 3507 2374 3494 2582 
Q 3482 2790 3456 2944 
Q 3616 2918 3773 2908 
Q 3930 2899 4070 2899 
Q 4166 2899 4182 2851 
Q 4198 2803 4109 2739 
Q 4058 2707 4042 2640 
Q 4026 2573 4026 2490 
L 4026 2170 
Q 4608 2170 5110 2182 
Q 5613 2195 5920 2227 
L 5920 1696 
Q 5862 1702 5692 1712 
Q 5523 1722 5305 1728 
Q 5088 1734 4848 1737 
Q 4608 1741 4403 1741 
Q 4653 1171 5040 844 
Q 5427 518 6010 384 
Q 5882 269 5770 121 
Q 5658 -26 5574 -179 
Q 5248 -19 5008 153 
Q 4768 326 4589 550 
Q 4410 774 4285 1065 
Q 4160 1357 4058 1741 
L 4026 1741 
L 4026 205 
Q 4026 0 4038 -230 
Q 4051 -461 4070 -672 
L 3450 -672 
Q 3507 -192 3507 205 
L 3507 1702 
Q 3373 1427 3193 1139 
Q 3014 851 2809 582 
Q 2605 314 2377 80 
Q 2150 -154 1926 -326 
Q 1818 -230 1686 -131 
Q 1555 -32 1408 32 
Q 1606 115 1840 294 
Q 2074 474 2301 707 
Q 2528 941 2729 1206 
Q 2931 1472 3078 1734 
z
M 2618 3680 
L 2093 3680 
L 2093 4909 
Q 2221 4890 2371 4877 
Q 2522 4864 2733 4854 
Q 2944 4845 3241 4841 
Q 3539 4838 3962 4838 
Q 4384 4838 4678 4841 
Q 4973 4845 5184 4854 
Q 5395 4864 5545 4877 
Q 5696 4890 5830 4909 
L 5830 3699 
L 5293 3699 
L 5293 4365 
L 2618 4365 
L 2618 3680 
z
M 3616 4147 
Q 3693 4154 3712 4118 
Q 3731 4083 3680 4045 
Q 3578 3962 3533 3750 
Q 3398 3110 2394 2739 
Q 2336 2867 2240 2979 
Q 2144 3091 2029 3162 
Q 2630 3264 2886 3507 
Q 3142 3750 3142 4205 
Q 3219 4173 3356 4153 
Q 3494 4134 3616 4147 
z
M 4147 3744 
Q 4147 3923 4137 4019 
Q 4128 4115 4109 4211 
Q 4224 4186 4374 4179 
Q 4525 4173 4646 4173 
Q 4717 4173 4736 4134 
Q 4755 4096 4698 4051 
Q 4640 4006 4617 3971 
Q 4595 3936 4595 3866 
L 4595 3482 
Q 4595 3386 4640 3350 
Q 4685 3315 4813 3315 
Q 4979 3315 5190 3350 
Q 5402 3386 5555 3443 
Q 5523 3334 5516 3206 
Q 5510 3078 5523 2957 
Q 5382 2925 5216 2915 
Q 5050 2906 4768 2906 
Q 4397 2906 4272 2992 
Q 4147 3078 4147 3283 
L 4147 3744 
z
" transform="scale(0.015625)"/>
        <path id="STHeitiTC-Medium-7528" d="M 3706 960 
Q 3706 659 3715 406 
Q 3725 154 3750 -134 
L 3136 -134 
Q 3162 160 3171 416 
Q 3181 672 3181 960 
L 3181 1427 
L 1914 1427 
Q 1850 794 1651 256 
Q 1453 -282 1229 -634 
Q 1088 -512 969 -438 
Q 851 -365 666 -294 
Q 1030 122 1219 746 
Q 1408 1370 1408 2246 
L 1408 3891 
Q 1408 4192 1395 4425 
Q 1382 4659 1357 4800 
Q 1606 4787 1849 4777 
Q 2093 4768 2355 4765 
Q 2618 4762 2909 4758 
Q 3200 4755 3539 4755 
Q 3974 4755 4291 4758 
Q 4608 4762 4854 4765 
Q 5101 4768 5305 4777 
Q 5510 4787 5734 4800 
Q 5709 4666 5693 4429 
Q 5677 4192 5677 3891 
L 5677 70 
Q 5677 -102 5657 -208 
Q 5638 -314 5536 -381 
Q 5434 -448 5226 -493 
Q 5018 -538 4640 -595 
Q 4602 -422 4557 -284 
Q 4512 -147 4435 19 
Q 4659 13 4796 25 
Q 4934 38 5011 70 
Q 5088 102 5117 156 
Q 5146 211 5146 294 
L 5146 1427 
L 3706 1427 
L 3706 960 
z
M 1933 2874 
L 1933 1894 
L 3181 1894 
L 3181 2874 
L 1933 2874 
z
M 3181 3341 
L 3181 4282 
L 1933 4282 
L 1933 3341 
L 3181 3341 
z
M 5146 3341 
L 5146 4282 
L 3706 4282 
L 3706 3341 
L 5146 3341 
z
M 3706 2874 
L 3706 1894 
L 5146 1894 
L 5146 2874 
L 3706 2874 
z
" transform="scale(0.015625)"/>
        <path id="STHeitiTC-Medium-6237" d="M 3430 4243 
Q 3366 4467 3289 4646 
Q 3213 4826 3104 5011 
L 3712 5210 
Q 3802 5024 3882 4841 
Q 3962 4659 4070 4454 
L 3430 4243 
z
M 2118 1728 
Q 2086 1011 1843 368 
Q 1600 -275 1216 -730 
Q 1088 -627 915 -547 
Q 742 -467 570 -416 
Q 838 -166 1027 96 
Q 1216 358 1337 678 
Q 1459 998 1516 1395 
Q 1574 1792 1574 2304 
L 1574 3622 
Q 1574 3795 1568 3904 
Q 1562 4013 1536 4122 
Q 1683 4115 1836 4108 
Q 1990 4102 2220 4099 
Q 2451 4096 2800 4096 
Q 3149 4096 3686 4096 
Q 4224 4096 4576 4096 
Q 4928 4096 5161 4099 
Q 5395 4102 5545 4108 
Q 5696 4115 5830 4122 
Q 5805 4032 5792 3923 
Q 5779 3814 5779 3622 
L 5779 2067 
Q 5779 1862 5785 1660 
Q 5792 1459 5824 1235 
L 5216 1235 
L 5216 1728 
L 2118 1728 
z
M 5216 2208 
L 5216 3616 
L 2125 3616 
L 2125 2208 
L 5216 2208 
z
" transform="scale(0.015625)"/>
        <path id="STHeitiTC-Medium-5f00" d="M 4525 2413 
Q 4723 2413 4931 2419 
Q 5139 2426 5334 2432 
Q 5530 2438 5699 2448 
Q 5869 2458 5997 2470 
L 5997 1875 
Q 5869 1882 5699 1888 
Q 5530 1894 5338 1900 
Q 5146 1907 4934 1913 
Q 4723 1920 4525 1920 
L 4525 422 
Q 4525 186 4541 -112 
Q 4557 -410 4589 -698 
L 3885 -698 
Q 3917 -410 3933 -112 
Q 3949 186 3949 422 
L 3949 1926 
L 2624 1926 
Q 2598 1530 2467 1142 
Q 2336 755 2128 409 
Q 1920 64 1641 -227 
Q 1363 -518 1043 -723 
Q 941 -589 752 -464 
Q 563 -339 397 -288 
Q 736 -147 1030 77 
Q 1325 301 1545 585 
Q 1766 870 1900 1209 
Q 2035 1549 2067 1926 
Q 1568 1920 1126 1901 
Q 685 1882 397 1856 
L 397 2451 
Q 717 2426 1123 2416 
Q 1530 2406 2074 2406 
L 2074 4192 
Q 1594 4186 1290 4173 
Q 986 4160 787 4128 
L 787 4730 
Q 1030 4698 1644 4682 
Q 2259 4666 3213 4666 
Q 3795 4666 4211 4669 
Q 4627 4672 4915 4678 
Q 5203 4685 5376 4697 
Q 5549 4710 5645 4730 
L 5645 4128 
Q 5574 4141 5452 4150 
Q 5331 4160 5180 4166 
Q 5030 4173 4860 4179 
Q 4691 4186 4525 4186 
L 4525 2413 
z
M 3949 2406 
L 3949 4192 
L 2630 4192 
L 2630 2406 
L 3949 2406 
z
" transform="scale(0.015625)"/>
        <path id="STHeitiTC-Medium-542f" d="M 5133 3936 
L 1933 3936 
L 1933 3059 
L 5133 3059 
L 5133 3936 
z
M 2938 -141 
L 2938 -691 
L 2304 -691 
Q 2349 -461 2371 -275 
Q 2394 -90 2394 134 
L 2394 1402 
Q 2394 1574 2384 1689 
Q 2374 1805 2355 1914 
Q 2470 1901 2595 1891 
Q 2720 1882 2912 1875 
Q 3104 1869 3385 1869 
Q 3667 1869 4090 1869 
Q 4512 1869 4797 1869 
Q 5082 1869 5274 1875 
Q 5466 1882 5594 1891 
Q 5722 1901 5830 1914 
Q 5811 1830 5798 1712 
Q 5786 1594 5786 1402 
L 5786 294 
Q 5786 70 5808 -125 
Q 5830 -320 5882 -531 
L 5248 -531 
L 5248 -141 
L 2938 -141 
z
M 5248 294 
L 5248 1427 
L 2938 1427 
L 2938 294 
L 5248 294 
z
M 3424 4403 
Q 3309 4749 3098 5062 
L 3680 5242 
Q 3776 5056 3869 4832 
Q 3962 4608 4019 4403 
Q 4698 4410 5126 4422 
Q 5555 4435 5696 4448 
Q 5683 4288 5676 4035 
Q 5670 3782 5670 3501 
Q 5670 3232 5676 2982 
Q 5683 2733 5696 2566 
Q 5587 2579 5296 2588 
Q 5005 2598 4422 2598 
L 1933 2598 
Q 1933 1562 1725 771 
Q 1517 -19 998 -602 
Q 909 -486 784 -368 
Q 659 -250 512 -160 
Q 883 173 1104 675 
Q 1325 1178 1376 1798 
Q 1408 2259 1398 2944 
Q 1389 3629 1344 4448 
Q 1530 4422 2048 4412 
Q 2566 4403 3424 4403 
z
" transform="scale(0.015625)"/>
        <path id="STHeitiTC-Medium-5168" d="M 1549 2829 
Q 1370 2701 1194 2582 
Q 1018 2464 838 2355 
Q 749 2477 611 2595 
Q 474 2714 352 2784 
Q 1088 3072 1731 3539 
Q 2374 4006 2816 4595 
L 1786 4595 
Q 1600 4595 1398 4585 
Q 1197 4576 1011 4557 
L 1011 5050 
Q 1107 5037 1264 5027 
Q 1421 5018 1603 5011 
Q 1786 5005 1978 5005 
Q 2170 5005 2330 5005 
Q 2496 5005 2720 5008 
Q 2944 5011 3155 5017 
Q 3366 5024 3529 5033 
Q 3693 5043 3744 5050 
Q 3878 4691 4057 4393 
Q 4237 4096 4502 3856 
Q 4768 3616 5145 3437 
Q 5523 3258 6048 3149 
Q 5907 3027 5817 2864 
Q 5728 2701 5658 2496 
Q 5414 2611 5212 2723 
Q 5011 2835 4838 2950 
L 4838 2515 
Q 4339 2566 3475 2573 
L 3475 1722 
Q 4026 1728 4438 1741 
Q 4851 1754 5165 1773 
L 5165 1210 
Q 4851 1235 4438 1248 
Q 4026 1261 3475 1267 
L 3475 134 
Q 4192 141 4710 153 
Q 5229 166 5645 198 
L 5645 -397 
Q 5190 -365 4595 -349 
Q 4000 -333 3155 -333 
Q 2310 -333 1718 -349 
Q 1126 -365 672 -397 
L 672 198 
Q 890 179 1130 169 
Q 1370 160 1648 150 
Q 1926 141 2249 137 
Q 2573 134 2950 134 
L 2950 1267 
Q 2387 1261 1971 1248 
Q 1555 1235 1235 1210 
L 1235 1773 
Q 1562 1754 1978 1741 
Q 2394 1728 2950 1722 
L 2950 2573 
Q 2061 2566 1549 2515 
L 1549 2829 
z
M 3405 4595 
Q 3059 4160 2662 3773 
Q 2266 3386 1830 3046 
Q 2099 3034 2435 3024 
Q 2771 3014 3194 3014 
Q 4128 3014 4685 3053 
Q 4422 3245 4230 3433 
Q 4038 3622 3897 3814 
Q 3757 4006 3661 4201 
Q 3565 4397 3488 4595 
L 3405 4595 
z
" transform="scale(0.015625)"/>
        <path id="STHeitiTC-Medium-81ea" d="M 4698 3782 
L 1683 3782 
L 1683 2976 
L 4698 2976 
L 4698 3782 
z
M 4698 2534 
L 1683 2534 
L 1683 1760 
L 4698 1760 
L 4698 2534 
z
M 4698 1325 
L 1683 1325 
L 1683 448 
L 4698 448 
L 4698 1325 
z
M 1683 -666 
L 1069 -666 
Q 1101 -422 1113 -169 
Q 1126 83 1126 371 
L 1126 3712 
Q 1126 3878 1120 4019 
Q 1114 4160 1101 4262 
Q 1229 4250 1542 4240 
Q 1856 4230 2272 4224 
Q 2368 4448 2429 4710 
Q 2490 4973 2522 5216 
Q 2592 5190 2691 5164 
Q 2790 5139 2892 5113 
Q 2995 5088 3088 5069 
Q 3181 5050 3238 5043 
Q 3322 5030 3325 5008 
Q 3328 4986 3245 4915 
Q 3200 4877 3072 4685 
Q 2944 4493 2797 4224 
L 3840 4224 
Q 4096 4224 4329 4227 
Q 4563 4230 4752 4236 
Q 4941 4243 5081 4249 
Q 5222 4256 5299 4262 
Q 5286 4166 5280 4041 
Q 5274 3917 5274 3712 
L 5274 371 
Q 5274 90 5286 -118 
Q 5299 -326 5331 -563 
L 4698 -563 
L 4698 -26 
L 1683 -26 
L 1683 -666 
z
" transform="scale(0.015625)"/>
        <path id="STHeitiTC-Medium-52a8" d="M 4576 3437 
Q 4563 3194 4550 3002 
Q 4538 2810 4522 2640 
Q 4506 2470 4486 2304 
Q 4467 2138 4442 1946 
Q 4384 1530 4291 1197 
Q 4198 864 4028 566 
Q 3859 269 3587 -16 
Q 3315 -301 2893 -621 
Q 2797 -493 2649 -400 
Q 2502 -307 2272 -237 
Q 2650 -38 2918 147 
Q 3187 333 3372 544 
Q 3558 755 3680 1017 
Q 3802 1280 3878 1638 
Q 3949 1965 4006 2445 
Q 4064 2925 4090 3430 
Q 3942 3424 3788 3414 
Q 3635 3405 3488 3395 
Q 3341 3386 3209 3373 
Q 3078 3360 2982 3347 
L 2982 3898 
Q 3187 3872 3465 3862 
Q 3744 3853 4109 3853 
Q 4122 4256 4112 4595 
Q 4102 4934 4064 5158 
Q 4403 5069 4736 5069 
Q 4832 5069 4845 5043 
Q 4858 5018 4787 4941 
Q 4749 4896 4723 4825 
Q 4698 4755 4675 4633 
Q 4653 4512 4637 4323 
Q 4621 4134 4602 3859 
Q 4787 3866 5011 3875 
Q 5235 3885 5443 3901 
Q 5651 3917 5814 3933 
Q 5978 3949 6048 3962 
Q 6010 3776 5981 3558 
Q 5952 3341 5946 3181 
L 5837 742 
Q 5818 371 5770 140 
Q 5722 -90 5600 -224 
Q 5478 -358 5270 -428 
Q 5062 -499 4723 -557 
Q 4659 -173 4371 141 
Q 4640 122 4816 125 
Q 4992 128 5097 173 
Q 5203 218 5248 314 
Q 5293 410 5306 563 
L 5472 3437 
L 4576 3437 
z
M 1523 2618 
Q 1389 2618 1241 2611 
Q 1094 2605 953 2598 
Q 813 2592 685 2582 
Q 557 2573 467 2566 
L 467 3091 
Q 589 3072 720 3062 
Q 851 3053 1011 3046 
Q 1171 3040 1363 3037 
Q 1555 3034 1805 3034 
Q 2170 3034 2467 3043 
Q 2765 3053 3066 3085 
L 3066 2566 
Q 2816 2592 2512 2605 
Q 2208 2618 1830 2618 
Q 1952 2547 2061 2522 
Q 2170 2490 2173 2454 
Q 2176 2419 2093 2387 
Q 2022 2355 1936 2233 
Q 1850 2112 1792 1965 
Q 1754 1869 1706 1773 
Q 1658 1677 1597 1558 
Q 1536 1440 1446 1283 
Q 1357 1126 1229 909 
L 2541 1158 
Q 2445 1395 2381 1526 
Q 2317 1658 2246 1766 
L 2701 1978 
Q 2733 1894 2774 1792 
Q 2816 1690 2883 1542 
Q 2950 1395 3052 1180 
Q 3155 966 3302 659 
L 2790 416 
Q 2765 563 2682 787 
L 1651 525 
Q 1459 480 1286 432 
Q 1114 384 976 336 
Q 838 288 742 249 
Q 646 211 608 186 
Q 518 525 352 806 
Q 429 800 531 809 
Q 634 819 800 838 
Q 1075 1370 1257 1846 
Q 1440 2323 1523 2618 
z
M 2912 3930 
Q 2726 3955 2502 3968 
Q 2278 3981 1926 3981 
Q 1472 3981 1219 3968 
Q 966 3955 806 3930 
L 806 4493 
Q 890 4480 982 4467 
Q 1075 4454 1203 4448 
Q 1331 4442 1507 4438 
Q 1683 4435 1933 4435 
Q 2272 4435 2509 4448 
Q 2746 4461 2912 4486 
L 2912 3930 
z
" transform="scale(0.015625)"/>
       </defs>
       <use xlink:href="#STHeitiTC-Medium-8d44"/>
       <use xlink:href="#STHeitiTC-Medium-6df1" x="99.999985"/>
       <use xlink:href="#STHeitiTC-Medium-7528" x="199.999969"/>
       <use xlink:href="#STHeitiTC-Medium-6237" x="299.999954"/>
       <use xlink:href="#STHeitiTC-Medium-5f00" x="399.999939"/>
       <use xlink:href="#STHeitiTC-Medium-542f" x="499.999924"/>
       <use xlink:href="#STHeitiTC-Medium-5168" x="599.999908"/>
       <use xlink:href="#STHeitiTC-Medium-81ea" x="699.999893"/>
       <use xlink:href="#STHeitiTC-Medium-52a8" x="799.999878"/>
       <use xlink:href="#STHeitiTC-Medium-7684" x="899.999863"/>
       <use xlink:href="#STHeitiTC-Medium-6bd4" x="999.999847"/>
       <use xlink:href="#STHeitiTC-Medium-4f8b" x="1099.999832"/>
      </g>
     </g>
    </g>
    <g id="ytick_3">
     <g id="line2d_13">
      <g>
       <use xlink:href="#ma45f95c494" x="128.2" y="37.672335" style="fill: #333333; stroke: #333333; stroke-width: 0.8"/>
      </g>
     </g>
     <g id="text_8">
      <!-- 权限确认弹窗被批准的比例 -->
      <g style="fill: #333333" transform="translate(7.2 41.534679) scale(0.095 -0.095)">
       <defs>
        <path id="STHeitiTC-Medium-6743" d="M 2330 1453 
Q 2259 1690 2160 1926 
Q 2061 2163 1926 2413 
L 2323 2605 
Q 2470 2374 2588 2156 
Q 2707 1939 2822 1696 
L 2330 1453 
z
M 1376 2342 
Q 1286 2061 1200 1837 
Q 1114 1613 1011 1421 
Q 909 1229 797 1053 
Q 685 877 550 698 
Q 480 883 422 1004 
Q 365 1126 262 1267 
Q 422 1440 560 1635 
Q 698 1830 816 2073 
Q 934 2317 1046 2624 
Q 1158 2931 1274 3334 
Q 992 3322 793 3312 
Q 595 3302 429 3283 
L 429 3827 
Q 614 3802 835 3789 
Q 1056 3776 1376 3776 
Q 1376 4294 1353 4633 
Q 1331 4973 1299 5178 
Q 1466 5158 1616 5155 
Q 1766 5152 1914 5165 
Q 2010 5178 2026 5146 
Q 2042 5114 1952 5030 
Q 1907 4992 1894 4941 
Q 1882 4890 1882 4832 
L 1882 3776 
Q 2118 3782 2297 3795 
Q 2477 3808 2624 3827 
L 2624 3283 
Q 2477 3302 2297 3312 
Q 2118 3322 1882 3328 
L 1882 550 
Q 1882 294 1898 -22 
Q 1914 -339 1946 -653 
L 1318 -653 
Q 1350 -339 1363 -22 
Q 1376 294 1376 550 
L 1376 2342 
z
M 3642 4064 
Q 3642 3558 3677 3190 
Q 3712 2822 3782 2528 
Q 3853 2234 3961 1987 
Q 4070 1741 4224 1485 
Q 4518 1939 4720 2592 
Q 4922 3245 5011 4064 
L 3642 4064 
z
M 3136 4045 
Q 3040 4038 2950 4032 
Q 2861 4026 2778 4019 
L 2778 4576 
Q 3053 4550 3414 4537 
Q 3776 4525 4288 4525 
Q 4538 4525 4723 4528 
Q 4909 4531 5069 4534 
Q 5229 4538 5369 4547 
Q 5510 4557 5670 4576 
Q 5581 3974 5475 3465 
Q 5370 2957 5235 2528 
Q 5101 2099 4928 1737 
Q 4755 1376 4531 1069 
Q 4806 781 5187 585 
Q 5568 390 6131 275 
Q 6022 154 5920 -35 
Q 5818 -224 5747 -429 
Q 5312 -224 4902 29 
Q 4493 282 4173 640 
Q 3827 294 3404 -6 
Q 2982 -307 2592 -518 
Q 2541 -390 2429 -259 
Q 2317 -128 2202 -45 
Q 2752 198 3174 480 
Q 3597 762 3872 1050 
Q 3699 1338 3571 1610 
Q 3443 1882 3356 2218 
Q 3270 2554 3216 2992 
Q 3162 3430 3136 4045 
z
" transform="scale(0.015625)"/>
        <path id="STHeitiTC-Medium-9650" d="M 3232 4390 
L 3232 3814 
L 4806 3814 
L 4806 4390 
L 3232 4390 
z
M 3232 3373 
L 3232 2707 
L 4806 2707 
L 4806 3373 
L 3232 3373 
z
M 1728 2912 
Q 2035 2554 2224 2173 
Q 2413 1792 2413 1440 
Q 2413 1094 2128 844 
Q 1843 595 1338 518 
Q 1331 800 1094 1120 
Q 1510 1088 1689 1193 
Q 1869 1299 1882 1536 
Q 1894 1786 1747 2131 
Q 1600 2477 1299 2816 
L 1773 4384 
L 1037 4384 
L 1037 -550 
L 506 -550 
Q 512 -333 518 -147 
Q 525 38 528 214 
Q 531 390 531 566 
Q 531 742 531 947 
L 531 4237 
Q 531 4422 521 4598 
Q 512 4774 486 4902 
Q 672 4870 909 4860 
Q 1146 4851 1491 4851 
Q 1830 4851 2057 4860 
Q 2285 4870 2470 4902 
L 1728 2912 
z
M 4333 1389 
Q 4602 1594 4803 1805 
Q 5005 2016 5152 2240 
Q 5235 2125 5360 2003 
Q 5485 1882 5574 1824 
Q 5606 1805 5600 1782 
Q 5594 1760 5562 1747 
Q 5453 1715 5209 1545 
Q 4966 1376 4506 1011 
Q 4710 717 5094 486 
Q 5478 256 5907 134 
Q 5638 -230 5574 -480 
Q 5190 -333 4832 -51 
Q 4474 230 4230 614 
Q 4122 781 4038 957 
Q 3955 1133 3891 1334 
Q 3827 1536 3779 1776 
Q 3731 2016 3699 2323 
L 3238 2323 
L 3238 243 
Q 3475 371 3651 470 
Q 3827 570 3878 602 
Q 3885 448 3910 329 
Q 3936 211 3974 83 
L 3168 -378 
Q 2989 -480 2909 -534 
Q 2829 -589 2758 -653 
Q 2707 -525 2646 -419 
Q 2586 -314 2477 -141 
Q 2541 -115 2614 -80 
Q 2688 -45 2733 -19 
L 2733 4250 
Q 2733 4448 2726 4608 
Q 2720 4768 2701 4922 
Q 2784 4909 2928 4899 
Q 3072 4890 3248 4880 
Q 3424 4870 3625 4867 
Q 3827 4864 4032 4864 
Q 4250 4864 4458 4867 
Q 4666 4870 4845 4880 
Q 5024 4890 5158 4899 
Q 5293 4909 5370 4922 
Q 5350 4755 5344 4598 
Q 5338 4442 5338 4250 
L 5338 2989 
Q 5338 2835 5347 2652 
Q 5357 2470 5376 2272 
Q 5306 2278 5203 2288 
Q 5101 2298 4953 2304 
Q 4806 2310 4604 2316 
Q 4403 2323 4128 2323 
Q 4160 2067 4214 1820 
Q 4269 1574 4333 1389 
z
" transform="scale(0.015625)"/>
        <path id="STHeitiTC-Medium-786e" d="M 3526 774 
Q 3456 294 3248 -86 
Q 3040 -467 2771 -698 
Q 2656 -595 2528 -521 
Q 2400 -448 2259 -397 
Q 2733 -83 2918 409 
Q 3104 902 3104 1587 
L 3104 2739 
Q 3104 3021 3094 3197 
Q 3085 3373 3059 3533 
Q 3155 3520 3302 3510 
Q 3450 3501 3622 3494 
Q 3795 3488 3984 3481 
Q 4173 3475 4358 3475 
L 4819 4115 
L 3763 4115 
Q 3674 3987 3530 3833 
Q 3386 3680 3226 3533 
Q 3117 3590 3001 3644 
Q 2886 3699 2765 3738 
Q 3110 3981 3404 4368 
Q 3699 4755 3853 5261 
Q 3981 5190 4112 5132 
Q 4243 5075 4333 5050 
Q 4422 5024 4428 4989 
Q 4435 4954 4326 4890 
Q 4288 4864 4221 4781 
Q 4154 4698 4013 4493 
Q 4397 4493 4656 4499 
Q 4915 4506 5088 4512 
Q 5261 4518 5373 4531 
Q 5485 4544 5581 4557 
L 4877 3475 
Q 5184 3482 5497 3494 
Q 5811 3507 6016 3533 
Q 5984 3366 5974 3187 
Q 5965 3008 5965 2733 
L 5965 96 
Q 5965 -115 5949 -243 
Q 5933 -371 5856 -448 
Q 5779 -525 5616 -569 
Q 5453 -614 5165 -666 
Q 5152 -538 5104 -394 
Q 5056 -250 4966 -102 
Q 5165 -115 5277 -118 
Q 5389 -122 5443 -99 
Q 5498 -77 5510 -32 
Q 5523 13 5523 96 
L 5523 774 
L 3526 774 
z
M 4224 3085 
L 3558 3085 
L 3558 2310 
L 4224 2310 
L 4224 3085 
z
M 4678 2310 
L 5523 2310 
L 5523 3085 
L 4678 3085 
L 4678 2310 
z
M 4224 1920 
L 3558 1920 
L 3558 1158 
L 4224 1158 
L 4224 1920 
z
M 4678 1158 
L 5523 1158 
L 5523 1920 
L 4678 1920 
L 4678 1158 
z
M 2086 2573 
L 1485 2573 
L 1485 954 
L 2086 954 
L 2086 2573 
z
M 1037 1894 
Q 845 1568 653 1299 
Q 602 1427 528 1564 
Q 454 1702 384 1792 
Q 595 2042 758 2298 
Q 922 2554 1040 2835 
Q 1158 3117 1244 3437 
Q 1331 3757 1402 4134 
Q 934 4128 646 4077 
L 646 4614 
Q 845 4582 1117 4569 
Q 1389 4557 1766 4557 
Q 2144 4557 2416 4569 
Q 2688 4582 2886 4614 
L 2886 4077 
Q 2707 4109 2464 4125 
Q 2221 4141 1894 4141 
Q 1792 3578 1574 3002 
Q 1978 3008 2214 3017 
Q 2451 3027 2598 3040 
Q 2566 2886 2553 2723 
Q 2541 2560 2541 2419 
L 2541 870 
Q 2541 685 2550 502 
Q 2560 320 2586 96 
L 2086 96 
L 2086 538 
L 1485 538 
L 1485 -410 
L 966 -410 
Q 998 -186 1017 54 
Q 1037 294 1037 582 
L 1037 1894 
z
" transform="scale(0.015625)"/>
        <path id="STHeitiTC-Medium-8ba4" d="M 1907 371 
Q 1779 218 1635 32 
Q 1491 -154 1376 -320 
Q 1267 -173 1171 -67 
Q 1075 38 960 128 
Q 1082 294 1139 448 
Q 1197 602 1197 800 
L 1197 2733 
Q 896 2733 633 2720 
Q 371 2707 237 2694 
L 237 3251 
Q 371 3238 579 3228 
Q 787 3219 998 3219 
Q 1203 3219 1414 3228 
Q 1626 3238 1754 3251 
Q 1728 3104 1712 2896 
Q 1696 2688 1696 2470 
L 1696 851 
Q 1818 973 1923 1085 
Q 2029 1197 2128 1309 
Q 2227 1421 2329 1539 
Q 2432 1658 2541 1798 
Q 2586 1651 2653 1529 
Q 2720 1408 2790 1344 
L 1907 371 
z
M 1715 3712 
Q 1549 4000 1366 4237 
Q 1184 4474 954 4710 
L 1421 5011 
Q 1658 4787 1862 4547 
Q 2067 4307 2240 4064 
L 1715 3712 
z
M 4224 2534 
Q 4115 1856 3980 1385 
Q 3846 915 3651 566 
Q 3456 218 3187 -60 
Q 2918 -339 2541 -640 
Q 2419 -518 2304 -435 
Q 2189 -352 2022 -262 
Q 2381 -26 2672 265 
Q 2963 557 3180 928 
Q 3398 1299 3542 1763 
Q 3686 2227 3744 2803 
Q 3789 3206 3814 3529 
Q 3840 3853 3849 4128 
Q 3859 4403 3852 4649 
Q 3846 4896 3827 5146 
Q 4013 5114 4185 5094 
Q 4358 5075 4582 5062 
Q 4646 5056 4652 5027 
Q 4659 4998 4608 4954 
Q 4570 4922 4531 4778 
Q 4493 4634 4480 4499 
Q 4467 4352 4451 4182 
Q 4435 4013 4403 3782 
Q 4448 3194 4509 2768 
Q 4570 2342 4650 2022 
Q 4730 1702 4838 1468 
Q 4947 1235 5082 1037 
Q 5267 768 5539 541 
Q 5811 314 6163 147 
Q 6074 64 6006 -6 
Q 5939 -77 5884 -147 
Q 5830 -218 5782 -294 
Q 5734 -371 5690 -467 
Q 5363 -269 5084 44 
Q 4806 358 4621 774 
Q 4493 1050 4393 1478 
Q 4294 1907 4224 2534 
z
" transform="scale(0.015625)"/>
        <path id="STHeitiTC-Medium-5f39" d="M 2150 4691 
Q 2118 4486 2099 4259 
Q 2080 4032 2061 3795 
Q 2048 3565 2035 3334 
Q 2022 3104 2010 2880 
Q 1837 2899 1632 2908 
Q 1427 2918 1062 2918 
L 1011 2016 
L 1632 2016 
Q 1888 2016 2080 2035 
Q 2029 1600 1946 224 
Q 1933 32 1888 -96 
Q 1843 -224 1718 -320 
Q 1594 -416 1363 -493 
Q 1133 -570 762 -646 
Q 730 -499 672 -342 
Q 614 -186 512 -19 
Q 762 -32 918 -22 
Q 1075 -13 1168 19 
Q 1261 51 1309 108 
Q 1357 166 1395 256 
Q 1414 314 1433 403 
Q 1453 493 1472 640 
Q 1491 787 1504 1020 
Q 1517 1254 1530 1600 
L 890 1600 
Q 794 1600 698 1593 
Q 602 1587 512 1574 
Q 531 1779 547 2009 
Q 563 2240 576 2470 
Q 589 2707 592 2934 
Q 595 3162 589 3347 
Q 659 3341 736 3334 
Q 813 3328 918 3325 
Q 1024 3322 1171 3322 
Q 1318 3322 1530 3322 
L 1594 4230 
L 915 4230 
Q 742 4230 617 4220 
Q 493 4211 333 4186 
L 333 4691 
Q 531 4678 768 4668 
Q 1005 4659 1248 4659 
Q 1478 4659 1708 4668 
Q 1939 4678 2150 4691 
z
M 3277 4115 
Q 3226 4326 3136 4531 
Q 3046 4736 2931 4902 
L 3437 5114 
Q 3507 4928 3600 4733 
Q 3693 4538 3834 4314 
L 3277 4115 
z
M 3866 3648 
L 3027 3648 
L 3027 2976 
L 3866 2976 
L 3866 3648 
z
M 4339 2976 
L 5216 2976 
L 5216 3648 
L 4339 3648 
L 4339 2976 
z
M 4339 1869 
L 5216 1869 
L 5216 2592 
L 4339 2592 
L 4339 1869 
z
M 3866 2592 
L 3027 2592 
L 3027 1869 
L 3866 1869 
L 3866 2592 
z
M 4339 813 
Q 4902 813 5321 825 
Q 5741 838 6067 864 
L 6067 314 
Q 5741 346 5321 358 
Q 4902 371 4339 371 
Q 4339 58 4345 -204 
Q 4352 -467 4378 -794 
L 3827 -794 
Q 3840 -634 3846 -490 
Q 3853 -346 3859 -208 
Q 3866 -70 3866 70 
Q 3866 211 3866 371 
Q 3341 365 2947 352 
Q 2554 339 2240 314 
L 2240 864 
Q 2554 845 2947 832 
Q 3341 819 3866 813 
L 3866 1466 
Q 3411 1466 3075 1459 
Q 2739 1453 2541 1440 
Q 2554 1574 2557 1702 
Q 2560 1830 2560 1984 
L 2560 3514 
Q 2560 3674 2560 3808 
Q 2560 3942 2554 4064 
Q 2797 4051 3203 4041 
Q 3610 4032 4179 4032 
Q 4378 4352 4528 4621 
Q 4678 4890 4806 5178 
Q 4934 5107 5075 5046 
Q 5216 4986 5325 4954 
Q 5434 4922 5440 4890 
Q 5446 4858 5370 4845 
Q 5338 4838 5293 4806 
Q 5248 4774 5171 4688 
Q 5094 4602 4969 4445 
Q 4845 4288 4659 4032 
Q 5011 4032 5273 4041 
Q 5536 4051 5709 4064 
Q 5696 3942 5696 3804 
Q 5696 3667 5696 3514 
L 5696 1984 
Q 5696 1818 5699 1693 
Q 5702 1568 5715 1434 
Q 5510 1453 5164 1459 
Q 4819 1466 4339 1466 
L 4339 813 
z
" transform="scale(0.015625)"/>
        <path id="STHeitiTC-Medium-7a97" d="M 2534 1587 
Q 2650 1530 2781 1462 
Q 2912 1395 3043 1328 
Q 3174 1261 3283 1203 
Q 3392 1146 3456 1107 
Q 3603 1235 3712 1379 
Q 3821 1523 3891 1677 
L 2598 1677 
Q 2586 1651 2566 1632 
Q 2547 1613 2534 1587 
z
M 4832 2438 
L 1574 2438 
L 1574 96 
L 4832 96 
L 4832 2438 
z
M 2662 2829 
Q 2752 3053 2790 3190 
Q 2829 3328 2842 3469 
Q 2963 3437 3107 3414 
Q 3251 3392 3366 3386 
Q 3437 3379 3446 3344 
Q 3456 3309 3392 3270 
Q 3354 3245 3296 3158 
Q 3238 3072 3110 2829 
Q 3738 2829 4134 2829 
Q 4531 2829 4771 2835 
Q 5011 2842 5136 2845 
Q 5261 2848 5338 2861 
Q 5325 2778 5321 2630 
Q 5318 2483 5318 2176 
L 5318 160 
Q 5318 -141 5328 -291 
Q 5338 -442 5357 -589 
L 4832 -589 
L 4832 -294 
L 1574 -294 
L 1574 -710 
L 1043 -710 
Q 1056 -627 1062 -560 
Q 1069 -493 1075 -413 
Q 1082 -333 1082 -227 
Q 1082 -122 1082 38 
L 1082 2176 
Q 1082 2483 1078 2630 
Q 1075 2778 1062 2861 
Q 1133 2848 1238 2845 
Q 1344 2842 1523 2835 
Q 1702 2829 1977 2829 
Q 2253 2829 2662 2829 
z
M 2304 1318 
Q 2170 1171 2074 1094 
Q 1933 1229 1670 1286 
Q 1805 1376 1949 1504 
Q 2093 1632 2224 1779 
Q 2355 1926 2457 2083 
Q 2560 2240 2605 2381 
Q 2714 2336 2806 2313 
Q 2899 2291 3021 2278 
Q 3085 2266 3085 2234 
Q 3085 2202 3014 2176 
Q 2957 2157 2931 2131 
Q 2906 2106 2848 2029 
L 3885 2029 
Q 4192 2029 4317 2035 
Q 4442 2042 4506 2054 
Q 4390 1715 4220 1427 
Q 4051 1139 3814 902 
Q 3853 877 3917 838 
Q 3981 800 4054 755 
Q 4128 710 4208 659 
Q 4288 608 4365 563 
L 4109 224 
Q 4064 262 3984 316 
Q 3904 371 3814 428 
Q 3725 486 3638 540 
Q 3552 595 3494 634 
Q 3219 442 2870 320 
Q 2522 198 2086 128 
Q 2035 237 1974 313 
Q 1914 390 1830 474 
Q 2234 525 2550 624 
Q 2867 723 3110 864 
Q 3002 928 2787 1056 
Q 2573 1184 2304 1318 
z
M 2829 4083 
Q 2861 4064 2893 4045 
Q 2925 4026 2957 4006 
Q 3021 3974 3005 3926 
Q 2989 3878 2899 3878 
Q 2816 3878 2755 3852 
Q 2694 3827 2579 3738 
Q 2272 3507 1862 3276 
Q 1453 3046 1030 2886 
Q 973 2995 899 3100 
Q 826 3206 704 3296 
Q 1152 3386 1581 3590 
Q 2010 3795 2323 4083 
L 1037 4083 
L 1037 3437 
L 518 3437 
L 518 4538 
Q 691 4525 896 4518 
Q 1101 4512 1389 4509 
Q 1677 4506 2070 4502 
Q 2464 4499 3014 4499 
Q 2963 4640 2896 4784 
Q 2829 4928 2752 5056 
L 3334 5203 
Q 3424 5011 3488 4841 
Q 3552 4672 3616 4499 
Q 4102 4499 4457 4502 
Q 4813 4506 5072 4509 
Q 5331 4512 5523 4518 
Q 5715 4525 5882 4538 
L 5882 3635 
L 5363 3635 
L 5363 4083 
L 4160 4083 
L 4160 3712 
Q 4160 3590 4240 3539 
Q 4320 3488 4550 3488 
Q 4736 3488 4995 3520 
Q 5254 3552 5440 3603 
Q 5402 3501 5389 3369 
Q 5376 3238 5389 3149 
Q 5248 3117 4982 3104 
Q 4717 3091 4352 3091 
Q 4128 3091 3997 3113 
Q 3866 3136 3798 3181 
Q 3731 3226 3708 3296 
Q 3686 3366 3686 3469 
L 3686 4083 
L 2829 4083 
z
" transform="scale(0.015625)"/>
        <path id="STHeitiTC-Medium-88ab" d="M 1536 4147 
Q 1510 4224 1465 4333 
Q 1421 4442 1369 4554 
Q 1318 4666 1264 4768 
Q 1210 4870 1165 4941 
L 1670 5152 
Q 1760 4966 1878 4764 
Q 1997 4563 2093 4410 
L 1536 4147 
z
M 1568 -563 
L 1024 -563 
Q 1056 -288 1072 -22 
Q 1088 243 1088 493 
L 1088 2022 
Q 915 1850 748 1702 
Q 582 1555 448 1453 
Q 397 1626 349 1754 
Q 301 1882 224 1997 
Q 416 2106 624 2262 
Q 832 2419 1037 2617 
Q 1242 2816 1424 3049 
Q 1606 3283 1754 3546 
Q 1478 3546 1276 3542 
Q 1075 3539 931 3532 
Q 787 3526 688 3516 
Q 589 3507 512 3494 
L 512 4032 
Q 678 4000 915 3990 
Q 1152 3981 1414 3981 
Q 1811 3981 2054 3993 
Q 2298 4006 2477 4032 
Q 2426 3891 2346 3712 
Q 2266 3533 2176 3366 
Q 2086 3200 1926 2985 
Q 1766 2771 1568 2541 
L 1568 2208 
Q 1606 2176 1644 2147 
Q 1683 2118 1722 2086 
Q 1894 2266 2022 2448 
Q 2150 2630 2240 2803 
Q 2310 2714 2403 2624 
Q 2496 2534 2598 2477 
Q 2630 2458 2627 2435 
Q 2624 2413 2573 2400 
Q 2534 2387 2396 2268 
Q 2259 2150 1984 1862 
Q 2138 1722 2266 1584 
Q 2394 1446 2483 1338 
L 2144 960 
Q 2029 1158 1881 1366 
Q 1734 1574 1568 1754 
L 1568 -563 
z
M 4064 2624 
L 4064 3808 
L 3309 3808 
Q 3322 3226 3309 2624 
L 4064 2624 
z
M 3821 2214 
Q 3936 1830 4083 1507 
Q 4230 1184 4378 941 
Q 4589 1229 4713 1536 
Q 4838 1843 4909 2214 
L 3821 2214 
z
M 3296 2214 
Q 3277 1747 3213 1353 
Q 3149 960 3040 611 
Q 2931 262 2764 -45 
Q 2598 -352 2374 -646 
Q 2285 -576 2134 -518 
Q 1984 -461 1862 -435 
Q 2285 38 2534 649 
Q 2784 1261 2816 1920 
Q 2848 2650 2845 3213 
Q 2842 3776 2803 4269 
Q 2989 4250 3270 4240 
Q 3552 4230 4064 4230 
Q 4058 4570 4042 4822 
Q 4026 5075 3994 5203 
Q 4070 5190 4166 5180 
Q 4262 5171 4355 5164 
Q 4448 5158 4528 5158 
Q 4608 5158 4666 5158 
Q 4730 5158 4739 5132 
Q 4749 5107 4691 5069 
Q 4627 5024 4595 4934 
Q 4563 4845 4563 4774 
L 4563 4230 
Q 5037 4230 5408 4240 
Q 5779 4250 6003 4269 
L 5728 3200 
L 5178 3251 
L 5357 3808 
L 4563 3808 
L 4563 2624 
Q 4870 2630 5148 2643 
Q 5427 2656 5568 2669 
Q 5421 1978 5213 1478 
Q 5005 979 4730 602 
Q 4864 486 5008 400 
Q 5152 314 5321 240 
Q 5491 166 5699 105 
Q 5907 45 6176 -13 
Q 6067 -141 5980 -301 
Q 5894 -461 5837 -614 
Q 5587 -518 5392 -425 
Q 5197 -333 5030 -233 
Q 4864 -134 4717 -19 
Q 4570 96 4429 237 
Q 4224 26 3929 -227 
Q 3635 -480 3309 -698 
Q 3238 -602 3084 -496 
Q 2931 -390 2810 -339 
Q 2918 -301 3078 -205 
Q 3238 -109 3417 22 
Q 3597 154 3773 304 
Q 3949 454 4096 602 
Q 3840 909 3664 1315 
Q 3488 1722 3379 2214 
L 3296 2214 
z
" transform="scale(0.015625)"/>
        <path id="STHeitiTC-Medium-6279" d="M 4794 371 
Q 4794 198 4858 153 
Q 4922 109 5088 109 
Q 5222 109 5299 128 
Q 5376 147 5427 224 
Q 5478 301 5510 451 
Q 5542 602 5594 864 
Q 5709 736 5833 656 
Q 5958 576 6131 506 
Q 6048 198 5971 22 
Q 5894 -154 5779 -240 
Q 5664 -326 5485 -348 
Q 5306 -371 5011 -371 
Q 4749 -371 4598 -348 
Q 4448 -326 4374 -252 
Q 4301 -179 4285 -32 
Q 4269 115 4269 365 
L 4269 3949 
Q 4269 4173 4265 4323 
Q 4262 4474 4259 4582 
Q 4256 4691 4246 4771 
Q 4237 4851 4224 4934 
Q 4358 4909 4550 4905 
Q 4742 4902 4870 4928 
Q 4928 4941 4944 4902 
Q 4960 4864 4902 4806 
Q 4851 4755 4822 4582 
Q 4794 4410 4794 4205 
L 4794 2733 
Q 5050 2957 5267 3206 
Q 5485 3456 5626 3648 
Q 5722 3482 5827 3389 
Q 5933 3296 6022 3251 
Q 6080 3219 6073 3196 
Q 6067 3174 5939 3130 
Q 5901 3117 5795 3043 
Q 5690 2970 5536 2848 
Q 5382 2726 5193 2560 
Q 5005 2394 4794 2202 
L 4794 371 
z
M 1254 3232 
Q 966 3226 745 3213 
Q 525 3200 358 3174 
L 358 3738 
Q 525 3712 745 3699 
Q 966 3686 1254 3686 
Q 1254 4192 1235 4461 
Q 1216 4730 1184 4870 
Q 1517 4813 1798 4826 
Q 2106 4838 1894 4666 
Q 1824 4614 1801 4566 
Q 1779 4518 1779 4435 
L 1779 3693 
Q 1965 3693 2115 3702 
Q 2266 3712 2394 3738 
L 2394 3174 
Q 2266 3194 2115 3206 
Q 1965 3219 1779 3226 
L 1779 2259 
Q 1933 2330 2080 2397 
Q 2227 2464 2362 2534 
Q 2349 2426 2361 2291 
Q 2374 2157 2406 2022 
Q 2259 1971 2102 1913 
Q 1946 1856 1779 1786 
L 1779 19 
Q 1779 -160 1763 -265 
Q 1747 -371 1660 -435 
Q 1574 -499 1392 -544 
Q 1210 -589 877 -653 
Q 838 -448 774 -301 
Q 710 -154 563 0 
Q 800 -32 937 -35 
Q 1075 -38 1145 -9 
Q 1216 19 1235 92 
Q 1254 166 1254 294 
L 1254 1555 
Q 1050 1453 845 1344 
Q 640 1235 454 1114 
Q 397 1472 269 1754 
Q 787 1888 1254 2054 
L 1254 3232 
z
M 3974 762 
Q 4000 461 4122 294 
L 3322 -154 
Q 3136 -256 2957 -387 
Q 2778 -518 2688 -608 
Q 2605 -422 2515 -272 
Q 2426 -122 2336 -38 
Q 2464 -6 2566 26 
Q 2669 58 2771 102 
L 2771 4243 
Q 2771 4486 2761 4652 
Q 2752 4819 2720 4966 
Q 2848 4934 3001 4921 
Q 3155 4909 3245 4915 
Q 3386 4928 3405 4893 
Q 3424 4858 3354 4794 
Q 3283 4736 3283 4614 
L 3283 3136 
Q 3501 3136 3709 3145 
Q 3917 3155 4045 3174 
L 4045 2675 
Q 3917 2688 3702 2697 
Q 3488 2707 3283 2707 
L 3283 371 
L 3974 762 
z
" transform="scale(0.015625)"/>
        <path id="STHeitiTC-Medium-51c6" d="M 1805 1882 
Q 1754 1805 1709 1728 
Q 1664 1651 1616 1548 
Q 1568 1446 1504 1312 
Q 1440 1178 1357 979 
Q 1267 755 1174 512 
Q 1082 269 1005 26 
Q 858 154 704 262 
Q 550 371 384 461 
Q 531 646 662 841 
Q 794 1037 928 1299 
Q 986 1421 1037 1533 
Q 1088 1645 1139 1763 
Q 1190 1882 1241 2016 
Q 1293 2150 1350 2323 
Q 1440 2163 1555 2057 
Q 1670 1952 1805 1882 
z
M 1312 3251 
Q 1178 3482 966 3747 
Q 755 4013 518 4243 
L 1011 4608 
Q 1082 4506 1178 4381 
Q 1274 4256 1379 4125 
Q 1485 3994 1593 3872 
Q 1702 3750 1792 3654 
L 1312 3251 
z
M 4282 4192 
Q 4243 4410 4176 4614 
Q 4109 4819 4019 4960 
L 4570 5126 
Q 4621 4941 4704 4736 
Q 4787 4531 4883 4346 
L 4282 4192 
z
M 2925 1626 
L 4064 1626 
L 4064 2355 
L 2925 2355 
L 2925 1626 
z
M 2925 2822 
L 4064 2822 
L 4064 3584 
L 2925 3584 
L 2925 2822 
z
M 2925 -666 
L 2374 -666 
Q 2394 -531 2410 -412 
Q 2426 -294 2435 -147 
Q 2445 0 2448 201 
Q 2451 403 2451 710 
L 2451 2854 
Q 2342 2682 2224 2506 
Q 2106 2330 1971 2144 
Q 1888 2285 1798 2377 
Q 1709 2470 1587 2547 
Q 1830 2816 2064 3171 
Q 2298 3526 2458 3904 
Q 2586 4230 2682 4576 
Q 2778 4922 2822 5190 
Q 2970 5120 3152 5065 
Q 3334 5011 3443 4998 
Q 3552 4986 3555 4950 
Q 3558 4915 3450 4826 
Q 3430 4806 3401 4768 
Q 3373 4730 3325 4643 
Q 3277 4557 3206 4416 
Q 3136 4275 3034 4051 
L 4403 4051 
Q 4787 4051 5043 4054 
Q 5299 4058 5465 4061 
Q 5632 4064 5725 4070 
Q 5818 4077 5875 4083 
L 5875 3552 
Q 5811 3558 5724 3564 
Q 5638 3571 5491 3574 
Q 5344 3578 5120 3581 
Q 4896 3584 4557 3584 
L 4557 2822 
Q 4832 2822 5024 2825 
Q 5216 2829 5347 2832 
Q 5478 2835 5558 2841 
Q 5638 2848 5690 2854 
L 5690 2323 
Q 5632 2330 5552 2336 
Q 5472 2342 5344 2345 
Q 5216 2349 5024 2352 
Q 4832 2355 4557 2355 
L 4557 1626 
Q 4832 1626 5024 1629 
Q 5216 1632 5344 1635 
Q 5472 1638 5552 1644 
Q 5632 1651 5683 1658 
L 5683 1126 
Q 5626 1133 5549 1139 
Q 5472 1146 5344 1149 
Q 5216 1152 5027 1155 
Q 4838 1158 4557 1158 
L 4557 346 
Q 4934 346 5187 349 
Q 5440 352 5603 355 
Q 5766 358 5862 364 
Q 5958 371 6016 378 
L 6016 -154 
Q 5952 -147 5859 -140 
Q 5766 -134 5603 -131 
Q 5440 -128 5184 -125 
Q 4928 -122 4544 -122 
L 2925 -122 
L 2925 -666 
z
M 2925 346 
L 4064 346 
L 4064 1158 
L 2925 1158 
L 2925 346 
z
" transform="scale(0.015625)"/>
       </defs>
       <use xlink:href="#STHeitiTC-Medium-6743"/>
       <use xlink:href="#STHeitiTC-Medium-9650" x="99.999985"/>
       <use xlink:href="#STHeitiTC-Medium-786e" x="199.999969"/>
       <use xlink:href="#STHeitiTC-Medium-8ba4" x="299.999954"/>
       <use xlink:href="#STHeitiTC-Medium-5f39" x="399.999939"/>
       <use xlink:href="#STHeitiTC-Medium-7a97" x="499.999924"/>
       <use xlink:href="#STHeitiTC-Medium-88ab" x="599.999908"/>
       <use xlink:href="#STHeitiTC-Medium-6279" x="699.999893"/>
       <use xlink:href="#STHeitiTC-Medium-51c6" x="799.999878"/>
       <use xlink:href="#STHeitiTC-Medium-7684" x="899.999863"/>
       <use xlink:href="#STHeitiTC-Medium-6bd4" x="999.999847"/>
       <use xlink:href="#STHeitiTC-Medium-4f8b" x="1099.999832"/>
      </g>
     </g>
    </g>
   </g>
   <g id="line2d_14">
    <path d="M 128.2 219.56 
L 128.2 7.2 
" clip-path="url(#p3b913f115a)" style="fill: none; stroke: #cccccc; stroke-width: 0.8; stroke-linecap: square"/>
   </g>
   <g id="patch_3">
    <path d="M 128.2 219.56 
L 630.72 219.56 
" style="fill: none; stroke: #000000; stroke-width: 0.8; stroke-linejoin: miter; stroke-linecap: square"/>
   </g>
   <g id="patch_4">
    <path d="M 128.2 209.907273 
L 132.316907 209.907273 
L 132.316907 168.268057 
L 128.2 168.268057 
z
" clip-path="url(#p3b913f115a)" style="fill: #1a56db"/>
   </g>
   <g id="patch_5">
    <path d="M 128.2 134.199608 
L 334.045366 134.199608 
L 334.045366 92.560392 
L 128.2 92.560392 
z
" clip-path="url(#p3b913f115a)" style="fill: #1a56db"/>
   </g>
   <g id="patch_6">
    <path d="M 128.2 58.491943 
L 606.790476 58.491943 
L 606.790476 16.852727 
L 128.2 16.852727 
z
" clip-path="url(#p3b913f115a)" style="fill: #1a56db"/>
   </g>
   <g id="text_9">
    <!-- 0.8 -->
    <g style="fill: #333333" transform="translate(132.831521 192.303563) scale(0.095 -0.095)">
     <defs>
      <path id="STHeitiTC-Medium-2e" d="M 966 1478 
Q 1146 1478 1270 1353 
Q 1395 1229 1395 1046 
Q 1395 864 1270 739 
Q 1146 614 970 614 
Q 794 614 666 742 
Q 538 870 538 1049 
Q 538 1229 666 1353 
Q 794 1478 966 1478 
z
" transform="scale(0.015625)"/>
     </defs>
     <use xlink:href="#STHeitiTC-Medium-30"/>
     <use xlink:href="#STHeitiTC-Medium-2e" x="55.399994"/>
     <use xlink:href="#STHeitiTC-Medium-38" x="83.099991"/>
    </g>
   </g>
   <g id="text_10">
    <!-- 40 -->
    <g style="fill: #333333" transform="translate(334.55998 116.595898) scale(0.095 -0.095)">
     <use xlink:href="#STHeitiTC-Medium-34"/>
     <use xlink:href="#STHeitiTC-Medium-30" x="55.399994"/>
    </g>
   </g>
   <g id="text_11">
    <!-- 93 -->
    <g style="fill: #333333" transform="translate(607.30509 40.888234) scale(0.095 -0.095)">
     <defs>
      <path id="STHeitiTC-Medium-39" d="M 1984 2355 
Q 1798 2310 1613 2310 
Q 1043 2310 656 2716 
Q 269 3123 269 3737 
Q 269 4352 697 4768 
Q 1126 5184 1747 5184 
Q 2368 5184 2777 4758 
Q 3187 4333 3187 3738 
Q 3187 3411 3052 3081 
Q 2918 2752 2662 2368 
L 1248 250 
L 787 544 
L 1984 2355 
z
M 1728 2803 
Q 2112 2803 2381 3075 
Q 2650 3347 2650 3724 
Q 2650 4102 2381 4374 
Q 2112 4646 1728 4646 
Q 1344 4646 1075 4377 
Q 806 4109 806 3725 
Q 806 3341 1075 3072 
Q 1344 2803 1728 2803 
z
" transform="scale(0.015625)"/>
      <path id="STHeitiTC-Medium-33" d="M 2554 3021 
Q 2931 2835 3139 2508 
Q 3347 2182 3347 1798 
Q 3347 1171 2889 720 
Q 2432 269 1734 269 
Q 1107 269 707 630 
Q 307 992 166 1702 
L 710 1702 
Q 832 1248 1072 1027 
Q 1312 806 1757 806 
Q 2202 806 2502 1084 
Q 2803 1363 2803 1785 
Q 2803 2208 2460 2457 
Q 2118 2707 1453 2720 
L 1453 3232 
Q 1933 3232 2227 3437 
Q 2522 3642 2522 3946 
Q 2522 4250 2294 4451 
Q 2067 4653 1744 4653 
Q 1421 4653 1219 4470 
Q 1018 4288 877 3917 
L 320 3917 
Q 461 4531 832 4857 
Q 1203 5184 1747 5184 
Q 2291 5184 2691 4825 
Q 3091 4467 3091 3955 
Q 3091 3366 2554 3021 
z
" transform="scale(0.015625)"/>
     </defs>
     <use xlink:href="#STHeitiTC-Medium-39"/>
     <use xlink:href="#STHeitiTC-Medium-33" x="55.399994"/>
    </g>
   </g>
  </g>
 </g>
 <defs>
  <clipPath id="p3b913f115a">
   <rect x="128.2" y="7.2" width="502.52" height="212.36"/>
  </clipPath>
 </defs>
</svg>
