<?xml version="1.0" encoding="utf-8" standalone="no"?>
<!DOCTYPE svg PUBLIC "-//W3C//DTD SVG 1.1//EN"
  "http://www.w3.org/Graphics/SVG/1.1/DTD/svg11.dtd">
<svg xmlns:xlink="http://www.w3.org/1999/xlink" width="637.582891pt" height="242.571328pt" viewBox="0 0 637.582891 242.571328" xmlns="http://www.w3.org/2000/svg" version="1.1">
 <metadata>
  <rdf:RDF xmlns:dc="http://purl.org/dc/elements/1.1/" xmlns:cc="http://creativecommons.org/ns#" xmlns:rdf="http://www.w3.org/1999/02/22-rdf-syntax-ns#">
   <cc:Work>
    <dc:type rdf:resource="http://purl.org/dc/dcmitype/StillImage"/>
    <dc:date>2026-05-29T01:26:14.084129</dc:date>
    <dc:format>image/svg+xml</dc:format>
    <dc:creator>
     <cc:Agent>
      <dc:title>Matplotlib v3.10.9, https://matplotlib.org/</dc:title>
     </cc:Agent>
    </dc:creator>
   </cc:Work>
  </rdf:RDF>
 </metadata>
 <defs>
  <style type="text/css">*{stroke-linejoin: round; stroke-linecap: butt}</style>
 </defs>
 <g id="figure_1">
  <g id="patch_1">
   <path d="M 0 242.571328 
L 637.582891 242.571328 
L 637.582891 0 
L 0 0 
z
" style="fill: #ffffff"/>
  </g>
  <g id="axes_1">
   <g id="patch_2">
    <path d="M 158.372891 220.28 
L 630.382891 220.28 
L 630.382891 7.2 
L 158.372891 7.2 
z
" style="fill: #fafafa"/>
   </g>
   <g id="matplotlib.axis_1">
    <g id="xtick_1">
     <g id="line2d_1">
      <path d="M 158.372891 220.28 
L 158.372891 7.2 
" clip-path="url(#p373248291d)" style="fill: none; stroke-dasharray: 2.96,1.28; stroke-dashoffset: 0; stroke: #b0b0b0; stroke-opacity: 0.35; stroke-width: 0.8"/>
     </g>
     <g id="line2d_2">
      <defs>
       <path id="m4daf5ceefb" d="M 0 0 
L 0 3.5 
" style="stroke: #333333; stroke-width: 0.8"/>
      </defs>
      <g>
       <use xlink:href="#m4daf5ceefb" x="158.372891" y="220.28" style="fill: #333333; stroke: #333333; stroke-width: 0.8"/>
      </g>
     </g>
     <g id="text_1">
      <!-- 0 -->
      <g style="fill: #333333" transform="translate(155.524375 233.793437) scale(0.095 -0.095)">
       <defs>
        <path id="WenQuanYiZenHei-30" d="M 3581 2175 
Q 3581 1288 3169 638 
Q 2713 -63 1938 -63 
Q 1025 -63 563 831 
Q 256 1425 256 2188 
Q 256 3188 700 3819 
Q 1138 4456 1888 4456 
Q 2863 4456 3306 3500 
Q 3581 2925 3581 2175 
z
M 3019 2100 
Q 3019 3356 2500 3806 
L 2350 3919 
Q 2144 4031 1888 4031 
Q 1100 4031 888 2956 
Q 819 2625 819 2225 
Q 819 1013 1338 569 
Q 1588 356 1938 356 
Q 2675 356 2925 1294 
Q 3019 1663 3019 2100 
z
" transform="scale(0.015625)"/>
       </defs>
       <use xlink:href="#WenQuanYiZenHei-30"/>
      </g>
     </g>
    </g>
    <g id="xtick_2">
     <g id="line2d_3">
      <path d="M 258.269187 220.28 
L 258.269187 7.2 
" clip-path="url(#p373248291d)" style="fill: none; stroke-dasharray: 2.96,1.28; stroke-dashoffset: 0; stroke: #b0b0b0; stroke-opacity: 0.35; stroke-width: 0.8"/>
     </g>
     <g id="line2d_4">
      <g>
       <use xlink:href="#m4daf5ceefb" x="258.269187" y="220.28" style="fill: #333333; stroke: #333333; stroke-width: 0.8"/>
      </g>
     </g>
     <g id="text_2">
      <!-- 20 -->
      <g style="fill: #333333" transform="translate(252.572156 233.793437) scale(0.095 -0.095)">
       <defs>
        <path id="WenQuanYiZenHei-32" d="M 3488 0 
L 369 0 
L 369 456 
L 2150 1850 
Q 2931 2463 2931 3144 
Q 2931 3619 2488 3863 
Q 2231 4013 1931 4013 
Q 1425 4013 1113 3619 
Q 894 3356 881 3013 
L 369 3169 
Q 531 3981 1213 4300 
Q 1544 4456 1950 4456 
Q 2631 4456 3088 4044 
L 3225 3888 
L 3350 3706 
Q 3481 3444 3481 3144 
Q 3481 2313 2519 1569 
L 1069 456 
L 3488 456 
L 3488 0 
z
" transform="scale(0.015625)"/>
       </defs>
       <use xlink:href="#WenQuanYiZenHei-32"/>
       <use xlink:href="#WenQuanYiZenHei-30" transform="translate(59.960938 0)"/>
      </g>
     </g>
    </g>
    <g id="xtick_3">
     <g id="line2d_5">
      <path d="M 358.165483 220.28 
L 358.165483 7.2 
" clip-path="url(#p373248291d)" style="fill: none; stroke-dasharray: 2.96,1.28; stroke-dashoffset: 0; stroke: #b0b0b0; stroke-opacity: 0.35; stroke-width: 0.8"/>
     </g>
     <g id="line2d_6">
      <g>
       <use xlink:href="#m4daf5ceefb" x="358.165483" y="220.28" style="fill: #333333; stroke: #333333; stroke-width: 0.8"/>
      </g>
     </g>
     <g id="text_3">
      <!-- 40 -->
      <g style="fill: #333333" transform="translate(352.468452 233.793437) scale(0.095 -0.095)">
       <defs>
        <path id="WenQuanYiZenHei-34" d="M 3631 1025 
L 2913 1025 
L 2913 0 
L 2381 0 
L 2381 1025 
L 219 1025 
L 219 1388 
L 2225 4388 
L 2913 4388 
L 2913 1444 
L 3631 1444 
L 3631 1025 
z
M 2381 1444 
L 2381 3963 
L 788 1444 
L 2381 1444 
z
" transform="scale(0.015625)"/>
       </defs>
       <use xlink:href="#WenQuanYiZenHei-34"/>
       <use xlink:href="#WenQuanYiZenHei-30" transform="translate(59.960938 0)"/>
      </g>
     </g>
    </g>
    <g id="xtick_4">
     <g id="line2d_7">
      <path d="M 458.06178 220.28 
L 458.06178 7.2 
" clip-path="url(#p373248291d)" style="fill: none; stroke-dasharray: 2.96,1.28; stroke-dashoffset: 0; stroke: #b0b0b0; stroke-opacity: 0.35; stroke-width: 0.8"/>
     </g>
     <g id="line2d_8">
      <g>
       <use xlink:href="#m4daf5ceefb" x="458.06178" y="220.28" style="fill: #333333; stroke: #333333; stroke-width: 0.8"/>
      </g>
     </g>
     <g id="text_4">
      <!-- 60 -->
      <g style="fill: #333333" transform="translate(452.364748 233.793437) scale(0.095 -0.095)">
       <defs>
        <path id="WenQuanYiZenHei-36" d="M 3550 1431 
Q 3550 725 3006 288 
Q 2581 -63 1994 -63 
Q 1013 -63 563 825 
Q 288 1363 288 2081 
Q 288 3294 856 3938 
Q 1319 4456 2075 4456 
Q 2969 4456 3363 3756 
Q 3431 3631 3481 3481 
L 2988 3350 
Q 2750 3994 2075 4006 
Q 1056 4006 844 2669 
Q 794 2356 794 1981 
L 806 1981 
Q 1006 2506 1544 2744 
Q 1819 2869 2119 2869 
Q 2788 2869 3213 2375 
Q 3550 1975 3550 1431 
z
M 3038 1406 
Q 3038 1906 2656 2213 
Q 2381 2431 2038 2431 
Q 1525 2431 1181 2044 
Q 919 1744 919 1356 
Q 919 881 1344 581 
Q 1631 375 1981 375 
Q 2519 375 2838 781 
Q 3038 1050 3038 1406 
z
" transform="scale(0.015625)"/>
       </defs>
       <use xlink:href="#WenQuanYiZenHei-36"/>
       <use xlink:href="#WenQuanYiZenHei-30" transform="translate(59.960938 0)"/>
      </g>
     </g>
    </g>
    <g id="xtick_5">
     <g id="line2d_9">
      <path d="M 557.958076 220.28 
L 557.958076 7.2 
" clip-path="url(#p373248291d)" style="fill: none; stroke-dasharray: 2.96,1.28; stroke-dashoffset: 0; stroke: #b0b0b0; stroke-opacity: 0.35; stroke-width: 0.8"/>
     </g>
     <g id="line2d_10">
      <g>
       <use xlink:href="#m4daf5ceefb" x="557.958076" y="220.28" style="fill: #333333; stroke: #333333; stroke-width: 0.8"/>
      </g>
     </g>
     <g id="text_5">
      <!-- 80 -->
      <g style="fill: #333333" transform="translate(552.261045 233.793437) scale(0.095 -0.095)">
       <defs>
        <path id="WenQuanYiZenHei-38" d="M 3619 1175 
Q 3619 431 2850 100 
Q 2444 -63 1944 -63 
Q 1231 -63 725 269 
Q 225 594 225 1125 
Q 225 1881 1269 2281 
Q 719 2481 519 2938 
Q 444 3119 444 3319 
Q 444 4000 1144 4294 
Q 1519 4456 1963 4456 
Q 2669 4456 3094 4094 
Q 3425 3813 3425 3369 
Q 3425 2638 2575 2356 
Q 3231 2056 3450 1725 
Q 3619 1488 3619 1175 
z
M 2944 3344 
Q 2944 3906 2288 4019 
Q 2138 4044 1969 4044 
Q 1438 4044 1163 3775 
Q 1000 3613 1000 3375 
Q 1000 2925 1594 2663 
Q 1756 2588 1931 2550 
Q 2581 2725 2788 2956 
Q 2944 3125 2944 3344 
z
M 3075 1094 
Q 3075 1738 1875 2050 
Q 1094 1881 850 1463 
Q 763 1313 763 1131 
Q 763 569 1456 406 
Q 1681 344 1944 344 
Q 2519 344 2850 619 
Q 3075 813 3075 1094 
z
" transform="scale(0.015625)"/>
       </defs>
       <use xlink:href="#WenQuanYiZenHei-38"/>
       <use xlink:href="#WenQuanYiZenHei-30" transform="translate(59.960938 0)"/>
      </g>
     </g>
    </g>
   </g>
   <g id="matplotlib.axis_2">
    <g id="ytick_1">
     <g id="line2d_11">
      <defs>
       <path id="m176769759b" d="M 0 0 
L -3.5 0 
" style="stroke: #333333; stroke-width: 0.8"/>
      </defs>
      <g>
       <use xlink:href="#m176769759b" x="158.372891" y="189.704349" style="fill: #333333; stroke: #333333; stroke-width: 0.8"/>
      </g>
     </g>
     <g id="text_6">
      <!-- 2026 年 1 月渗透率 -->
      <g style="fill: #333333" transform="translate(66.842187 193.675053) scale(0.095 -0.095)">
       <defs>
        <path id="WenQuanYiZenHei-20" transform="scale(0.015625)"/>
        <path id="WenQuanYiZenHei-5e74" d="M 3638 -769 
Q 3388 -744 3138 -769 
Q 3163 -313 3163 150 
L 3163 1044 
L 969 1044 
Q 606 1044 244 1025 
Q 263 1219 244 1419 
Q 606 1400 969 1400 
L 1406 1400 
L 1400 2963 
L 3163 2963 
L 3163 3925 
L 1725 3925 
Q 1131 2881 494 2244 
Q 319 2463 50 2544 
Q 756 3219 1125 3794 
Q 1494 4369 1763 5169 
Q 2006 5044 2269 4969 
L 1925 4281 
L 5044 4281 
Q 5406 4281 5769 4300 
Q 5750 4106 5769 3906 
Q 5406 3925 5044 3925 
L 3613 3925 
L 3613 2963 
L 4769 2963 
Q 5131 2963 5494 2981 
Q 5475 2788 5494 2588 
Q 5131 2606 4769 2606 
L 3613 2606 
L 3613 1400 
L 5406 1400 
Q 5769 1400 6131 1419 
Q 6113 1219 6131 1025 
Q 5769 1044 5406 1044 
L 3613 1044 
L 3613 150 
Q 3613 -313 3638 -769 
z
M 3163 1400 
L 3163 2606 
L 1850 2606 
L 1856 1400 
L 3163 1400 
z
" transform="scale(0.015625)"/>
        <path id="WenQuanYiZenHei-31" d="M 3556 0 
L 488 0 
L 488 406 
L 1800 406 
L 1800 3725 
Q 1231 3125 588 2788 
L 588 3338 
Q 1456 3781 1931 4388 
L 2331 4388 
L 2331 406 
L 3556 406 
L 3556 0 
z
" transform="scale(0.015625)"/>
        <path id="WenQuanYiZenHei-6708" d="M 4519 206 
L 4519 1594 
L 2100 1594 
Q 2113 713 1694 84 
Q 1275 -544 631 -819 
Q 531 -544 269 -425 
Q 875 -263 1259 259 
Q 1644 781 1644 1525 
L 1638 4900 
L 4975 4900 
L 4975 44 
Q 4975 -400 4700 -563 
Q 4406 -738 3788 -731 
Q 3863 -413 3638 -169 
Q 3844 -194 4109 -197 
Q 4375 -200 4444 -147 
Q 4513 -94 4519 206 
z
M 4519 3406 
L 4519 4525 
L 2100 4525 
L 2100 3406 
L 4519 3406 
z
M 4519 1969 
L 4519 3031 
L 2100 3031 
L 2100 1969 
L 4519 1969 
z
" transform="scale(0.015625)"/>
        <path id="WenQuanYiZenHei-6e17" d="M 5325 819 
Q 5456 600 5638 413 
Q 3838 -800 2181 -988 
Q 2181 -725 2031 -506 
Q 3400 -381 4244 94 
Q 4813 425 5325 819 
z
M 4569 1494 
Q 4700 1275 4875 1081 
Q 3806 406 3153 109 
Q 2500 -188 1938 -338 
Q 1900 -75 1719 113 
Q 2675 350 3290 653 
Q 3906 956 4569 1494 
z
M 3838 2225 
Q 3994 2056 4181 1919 
Q 3344 950 1931 413 
Q 1888 631 1719 781 
Q 2369 1013 2847 1353 
Q 3325 1694 3838 2225 
z
M 2775 2788 
Q 2475 2788 2169 2775 
Q 2188 2938 2169 3100 
Q 2475 3088 2775 3088 
L 3338 3088 
Q 3575 3469 3706 3725 
L 2388 3631 
L 2369 3931 
Q 2475 3925 2550 3994 
Q 2719 4156 3056 4581 
Q 3394 5006 3506 5256 
Q 3700 5088 3931 4969 
Q 3831 4825 3506 4475 
L 3038 3975 
L 4731 4069 
L 4400 4450 
L 4744 4763 
Q 5244 4219 5675 3606 
L 5294 3338 
Q 5125 3575 4950 3800 
L 4694 3794 
L 3706 3725 
Q 3919 3581 4156 3488 
Q 4031 3288 3900 3088 
L 5550 3088 
Q 5856 3088 6156 3100 
Q 6138 2938 6156 2775 
Q 5856 2788 5550 2788 
L 4625 2788 
Q 4881 2356 5228 2100 
Q 5575 1844 6119 1744 
Q 5925 1581 5881 1331 
Q 5338 1450 4900 1850 
Q 4463 2250 4188 2788 
L 3694 2788 
Q 2806 1575 1775 963 
Q 1669 1206 1444 1338 
Q 2594 1969 3138 2788 
L 2775 2788 
z
M 869 -738 
Q 631 -588 275 -575 
Q 525 -69 794 581 
Q 1063 1231 1575 2838 
L 1813 2706 
L 1144 338 
L 869 -738 
z
M 1319 2856 
L 956 2550 
L 94 3400 
L 463 3713 
L 1319 2856 
z
M 1425 3913 
Q 1025 4388 563 4800 
L 906 5125 
Q 1400 4688 1819 4188 
L 1425 3913 
z
" transform="scale(0.015625)"/>
        <path id="WenQuanYiZenHei-900f" d="M 3663 -550 
Q 2194 -556 1450 225 
L 425 -500 
Q 325 -288 181 -100 
L 1250 475 
L 1250 3144 
L 838 3144 
Q 525 3144 213 3131 
Q 231 3300 213 3469 
Q 525 3450 838 3450 
L 1681 3450 
L 1681 469 
Q 2169 131 2594 13 
Q 2931 -75 3663 -75 
L 6019 -94 
Q 5788 -263 5806 -544 
L 3663 -550 
z
M 1581 4338 
L 1206 4050 
L 494 4975 
L 869 5263 
L 1581 4338 
z
M 4944 669 
L 4944 1519 
L 4244 1463 
L 3881 1569 
L 4213 2269 
L 3369 2269 
Q 3344 1306 2838 750 
Q 2606 488 2256 256 
Q 2175 450 1988 556 
Q 2869 963 2900 2269 
Q 2613 2263 2331 2250 
Q 2344 2406 2331 2550 
L 1975 2319 
Q 1888 2531 1700 2650 
Q 2469 3100 3119 3844 
L 2675 3844 
Q 2363 3844 2050 3831 
Q 2063 4000 2050 4169 
Q 2363 4156 2675 4156 
L 3688 4156 
L 3688 4706 
Q 2906 4688 2684 4666 
Q 2463 4644 2425 4644 
L 2181 5063 
Q 2781 4981 3540 5031 
Q 4300 5081 4547 5140 
Q 4794 5200 4956 5288 
Q 5000 5056 5094 4838 
Q 4775 4744 4119 4719 
L 4119 4156 
L 5163 4156 
Q 5475 4156 5788 4169 
Q 5769 4000 5788 3831 
Q 5475 3844 5163 3844 
L 4481 3844 
Q 4763 3469 5091 3231 
Q 5419 2994 5975 2806 
Q 5756 2669 5681 2425 
Q 5219 2588 4816 2938 
Q 4413 3288 4119 3688 
L 4119 3419 
Q 4119 3000 4138 2575 
L 4681 2575 
L 4738 2206 
L 4650 2181 
L 4481 1825 
L 5375 1825 
L 5375 613 
Q 5375 431 5194 281 
Q 4913 63 4263 69 
Q 4331 363 4125 588 
Q 4313 569 4603 566 
Q 4894 563 4919 588 
Q 4944 613 4944 669 
z
M 2950 2575 
L 3669 2575 
Q 3688 3000 3688 3419 
L 3688 3825 
Q 3238 3175 2381 2588 
Q 2669 2575 2950 2575 
z
" transform="scale(0.015625)"/>
        <path id="WenQuanYiZenHei-7387" d="M 3356 -763 
Q 3125 -738 2894 -763 
Q 2913 -331 2913 100 
L 2913 688 
L 719 688 
Q 419 688 119 675 
Q 131 838 119 1000 
Q 419 988 719 988 
L 2913 988 
Q 2906 1294 2894 1600 
Q 3125 1575 3356 1600 
Q 3344 1294 3338 988 
L 5531 988 
Q 5831 988 6131 1000 
Q 6119 838 6131 675 
Q 5831 688 5531 688 
L 3338 688 
L 3338 100 
Q 3338 -331 3356 -763 
z
M 5531 1506 
Q 4994 2031 4400 2494 
L 4681 2863 
Q 5300 2388 5856 1838 
L 5531 1506 
z
M 5244 4106 
Q 5413 3938 5606 3806 
Q 5175 3294 4506 2844 
Q 4413 3050 4213 3156 
Q 4575 3381 4938 3769 
L 5244 4106 
z
M 275 1900 
Q 900 2125 1381 2438 
L 1819 2738 
L 1906 2481 
Q 1031 1863 581 1456 
Q 494 1719 275 1900 
z
M 1438 2913 
Q 1006 3338 513 3694 
L 788 4069 
Q 1306 3694 1763 3244 
L 1438 2913 
z
M 1044 4325 
Q 744 4325 438 4313 
Q 456 4475 438 4638 
Q 744 4625 1044 4625 
L 3006 4625 
L 2481 5069 
L 2781 5425 
L 3506 4813 
L 3344 4625 
L 5206 4625 
Q 5506 4625 5813 4638 
Q 5794 4475 5813 4313 
Q 5506 4325 5206 4325 
L 3169 4325 
Q 3288 4250 3413 4194 
Q 3350 4081 3106 3828 
Q 2863 3575 2678 3406 
Q 2494 3238 2463 3213 
L 3131 3200 
Q 3544 3663 3719 3925 
Q 3900 3744 4113 3600 
Q 3944 3400 3375 2838 
L 2556 2050 
L 3794 2269 
Q 3688 2456 3575 2638 
L 3969 2881 
Q 4331 2300 4613 1669 
L 4188 1481 
Q 4069 1744 3931 2006 
L 3775 1988 
L 1819 1606 
L 1763 1900 
Q 1881 1925 1969 2006 
Q 2294 2300 2881 2925 
L 1756 2913 
L 1756 3213 
Q 1856 3213 1987 3297 
Q 2119 3381 2444 3725 
Q 2769 4069 2913 4325 
L 1044 4325 
z
" transform="scale(0.015625)"/>
       </defs>
       <use xlink:href="#WenQuanYiZenHei-32"/>
       <use xlink:href="#WenQuanYiZenHei-30" transform="translate(59.960938 0)"/>
       <use xlink:href="#WenQuanYiZenHei-32" transform="translate(119.921875 0)"/>
       <use xlink:href="#WenQuanYiZenHei-36" transform="translate(179.882812 0)"/>
       <use xlink:href="#WenQuanYiZenHei-20" transform="translate(239.84375 0)"/>
       <use xlink:href="#WenQuanYiZenHei-5e74" transform="translate(269.824219 0)"/>
       <use xlink:href="#WenQuanYiZenHei-20" transform="translate(369.824219 0)"/>
       <use xlink:href="#WenQuanYiZenHei-31" transform="translate(399.804688 0)"/>
       <use xlink:href="#WenQuanYiZenHei-20" transform="translate(459.765625 0)"/>
       <use xlink:href="#WenQuanYiZenHei-6708" transform="translate(489.746094 0)"/>
       <use xlink:href="#WenQuanYiZenHei-6e17" transform="translate(589.746094 0)"/>
       <use xlink:href="#WenQuanYiZenHei-900f" transform="translate(689.746094 0)"/>
       <use xlink:href="#WenQuanYiZenHei-7387" transform="translate(789.746094 0)"/>
      </g>
     </g>
    </g>
    <g id="ytick_2">
     <g id="line2d_12">
      <g>
       <use xlink:href="#m176769759b" x="158.372891" y="113.74" style="fill: #333333; stroke: #333333; stroke-width: 0.8"/>
      </g>
     </g>
     <g id="text_7">
      <!-- 2026 年 5 月渗透率 -->
      <g style="fill: #333333" transform="translate(66.842187 117.710703) scale(0.095 -0.095)">
       <defs>
        <path id="WenQuanYiZenHei-35" d="M 3531 1488 
Q 3531 688 2913 250 
Q 2456 -63 1844 -63 
Q 1175 -63 706 350 
Q 413 613 306 975 
L 781 1131 
Q 1000 538 1569 406 
Q 1706 369 1856 369 
Q 2550 369 2850 869 
Q 3000 1131 3000 1494 
Q 3000 2056 2581 2356 
Q 2319 2538 1969 2538 
Q 1400 2538 1031 2075 
Q 981 2013 938 1938 
L 500 2031 
L 644 4388 
L 3244 4388 
L 3200 3919 
L 1044 3919 
L 950 2500 
Q 1431 2975 2006 2975 
Q 2713 2975 3163 2475 
Q 3531 2063 3531 1488 
z
" transform="scale(0.015625)"/>
       </defs>
       <use xlink:href="#WenQuanYiZenHei-32"/>
       <use xlink:href="#WenQuanYiZenHei-30" transform="translate(59.960938 0)"/>
       <use xlink:href="#WenQuanYiZenHei-32" transform="translate(119.921875 0)"/>
       <use xlink:href="#WenQuanYiZenHei-36" transform="translate(179.882812 0)"/>
       <use xlink:href="#WenQuanYiZenHei-20" transform="translate(239.84375 0)"/>
       <use xlink:href="#WenQuanYiZenHei-5e74" transform="translate(269.824219 0)"/>
       <use xlink:href="#WenQuanYiZenHei-20" transform="translate(369.824219 0)"/>
       <use xlink:href="#WenQuanYiZenHei-35" transform="translate(399.804688 0)"/>
       <use xlink:href="#WenQuanYiZenHei-20" transform="translate(459.765625 0)"/>
       <use xlink:href="#WenQuanYiZenHei-6708" transform="translate(489.746094 0)"/>
       <use xlink:href="#WenQuanYiZenHei-6e17" transform="translate(589.746094 0)"/>
       <use xlink:href="#WenQuanYiZenHei-900f" transform="translate(689.746094 0)"/>
       <use xlink:href="#WenQuanYiZenHei-7387" transform="translate(789.746094 0)"/>
      </g>
     </g>
    </g>
    <g id="ytick_3">
     <g id="line2d_13">
      <g>
       <use xlink:href="#m176769759b" x="158.372891" y="37.775651" style="fill: #333333; stroke: #333333; stroke-width: 0.8"/>
      </g>
     </g>
     <g id="text_8">
      <!-- NBER 论文：受访企业说 AI 无影响 -->
      <g style="fill: #333333" transform="translate(7.2 41.672135) scale(0.095 -0.095)">
       <defs>
        <path id="WenQuanYiZenHei-4e" d="M 3756 0 
L 3219 0 
L 988 3825 
L 988 0 
L 525 0 
L 525 4388 
L 1219 4388 
L 3294 813 
L 3294 4388 
L 3756 4388 
L 3756 0 
z
" transform="scale(0.015625)"/>
        <path id="WenQuanYiZenHei-42" d="M 3675 1213 
Q 3675 613 3250 281 
Q 2913 13 2313 0 
L 2169 0 
L 519 0 
L 519 4388 
L 2175 4388 
Q 2706 4388 2981 4244 
Q 3025 4219 3081 4188 
Q 3531 3881 3538 3319 
Q 3538 2744 3088 2463 
L 2888 2375 
Q 2831 2350 2763 2338 
L 2763 2325 
Q 3313 2206 3550 1725 
Q 3675 1494 3675 1213 
z
M 2994 3250 
Q 2994 3856 2313 3938 
Q 2225 3944 2131 3944 
L 1069 3944 
L 1069 2506 
L 1981 2506 
Q 2994 2506 2994 3250 
z
M 3125 1238 
Q 3125 1638 2838 1894 
Q 2825 1906 2806 1919 
Q 2588 2088 2113 2088 
L 1069 2088 
L 1069 469 
L 2144 469 
Q 2975 469 3106 1038 
Q 3125 1125 3125 1238 
z
" transform="scale(0.015625)"/>
        <path id="WenQuanYiZenHei-45" d="M 3388 0 
L 544 0 
L 544 4388 
L 3319 4388 
L 3319 3919 
L 1094 3919 
L 1094 2519 
L 2863 2519 
L 2863 2081 
L 1094 2081 
L 1094 475 
L 3388 475 
L 3388 0 
z
" transform="scale(0.015625)"/>
        <path id="WenQuanYiZenHei-52" d="M 3675 0 
L 3100 0 
L 2288 1900 
L 1069 1900 
L 1069 0 
L 519 0 
L 519 4388 
L 2163 4388 
Q 3006 4388 3400 3900 
Q 3581 3663 3625 3325 
Q 3631 3250 3631 3163 
Q 3631 2594 3219 2244 
Q 3038 2100 2813 2038 
L 3675 0 
z
M 3081 3169 
Q 3081 3825 2356 3906 
Q 2263 3919 2163 3919 
L 1069 3919 
L 1069 2350 
L 2100 2350 
Q 2906 2350 3044 2919 
Q 3081 3031 3081 3169 
z
" transform="scale(0.015625)"/>
        <path id="WenQuanYiZenHei-8bba" d="M 3656 -688 
Q 3363 -688 3175 -497 
Q 2988 -306 2988 -6 
L 2988 1494 
Q 2988 1950 2969 2406 
Q 3219 2381 3463 2406 
Q 3444 1950 3444 1494 
L 3444 1338 
Q 3881 1569 4313 1881 
L 4944 2369 
Q 5088 2163 5269 1988 
Q 4525 1344 3444 844 
L 3444 -6 
Q 3444 -119 3506 -200 
Q 3569 -281 3663 -281 
L 5094 -281 
Q 5194 -281 5237 -187 
Q 5281 -94 5306 69 
L 5431 881 
Q 5625 750 5863 744 
L 5688 -275 
Q 5625 -688 5425 -688 
L 3656 -688 
z
M 6188 2613 
Q 5938 2506 5813 2269 
Q 4700 2881 3825 4256 
Q 3125 2856 2119 2081 
Q 1975 2325 1719 2438 
Q 2731 3175 3144 3956 
Q 3425 4519 3631 5156 
Q 3888 5044 4156 4988 
L 4031 4700 
Q 4450 3994 4922 3519 
Q 5394 3044 6188 2613 
z
M 38 2613 
Q 56 2775 38 2938 
Q 356 2925 675 2925 
L 1400 2925 
L 1400 506 
L 1838 1006 
L 2006 1250 
L 2231 1013 
L 2056 838 
L 1206 -256 
L 900 -25 
Q 950 81 950 200 
L 950 2625 
L 38 2613 
z
M 1038 3713 
Q 663 4325 219 4881 
L 613 5163 
Q 1075 4588 1469 3944 
L 1038 3713 
z
" transform="scale(0.015625)"/>
        <path id="WenQuanYiZenHei-6587" d="M 2806 856 
Q 1969 1925 1625 3481 
L 988 3481 
Q 588 3481 188 3463 
Q 213 3681 188 3894 
Q 588 3875 988 3875 
L 5106 3875 
Q 5506 3875 5906 3894 
Q 5881 3681 5906 3463 
Q 5506 3481 5106 3481 
L 4506 3481 
Q 4400 2469 3894 1575 
Q 3669 1175 3394 838 
Q 3819 413 4478 87 
Q 5138 -238 5969 -288 
Q 5775 -488 5756 -763 
Q 4919 -694 4250 -334 
Q 3581 25 3106 519 
Q 2625 44 1934 -331 
Q 1244 -706 369 -806 
Q 375 -519 206 -281 
Q 1031 -194 1693 125 
Q 2356 444 2806 856 
z
M 3181 3944 
Q 2769 4506 2281 5006 
L 2644 5363 
Q 3163 4838 3594 4244 
L 3181 3944 
z
M 3100 1169 
Q 3338 1463 3494 1806 
Q 3813 2581 3975 3481 
L 2056 3481 
Q 2363 2138 3100 1169 
z
" transform="scale(0.015625)"/>
        <path id="WenQuanYiZenHei-ff1a" d="M 3556 2525 
L 2844 2525 
L 2844 3250 
L 3556 3250 
L 3556 2525 
z
M 3556 0 
L 2844 0 
L 2844 725 
L 3556 725 
L 3556 0 
z
" transform="scale(0.015625)"/>
        <path id="WenQuanYiZenHei-53d7" d="M 1431 1775 
Q 1450 1963 1431 2144 
Q 1763 2125 2100 2125 
L 4700 2125 
Q 4275 1156 3469 450 
Q 3969 100 4619 -84 
Q 5269 -269 5975 -219 
Q 5819 -431 5838 -688 
Q 4400 -763 3150 194 
Q 1963 -681 481 -731 
Q 406 -475 250 -263 
Q 1650 -319 2800 481 
Q 2206 1031 1738 1788 
Q 1581 1788 1431 1775 
z
M 831 1806 
L 388 1806 
L 394 3131 
L 1806 3125 
Q 1500 3706 1125 4231 
L 1513 4519 
Q 1925 3944 2256 3319 
L 1894 3125 
L 3656 3125 
Q 4000 3438 4203 3791 
Q 4406 4144 4588 4631 
Q 4806 4531 5044 4481 
Q 4838 3781 4263 3125 
L 5831 3125 
L 5831 1806 
L 5388 1806 
L 5388 2794 
L 831 2794 
L 831 1806 
z
M 3194 3256 
Q 2925 3850 2575 4400 
L 2981 4656 
Q 3350 4081 3631 3456 
L 3194 3256 
z
M 5263 4819 
Q 3531 4756 781 4519 
L 550 4950 
Q 1538 4894 3069 5063 
Q 4419 5194 5225 5325 
Q 5219 5069 5263 4819 
z
M 2206 1794 
Q 2631 1163 3119 731 
Q 3656 1188 4006 1794 
L 2206 1794 
z
" transform="scale(0.015625)"/>
        <path id="WenQuanYiZenHei-8bbf" d="M 5194 -13 
L 5194 2425 
L 3813 2425 
Q 3863 1306 3363 469 
Q 2906 -306 2113 -713 
Q 1988 -444 1706 -356 
Q 2438 -94 2900 578 
Q 3363 1250 3363 2175 
L 3363 3544 
L 2950 3544 
Q 2588 3544 2225 3525 
Q 2244 3725 2225 3919 
Q 2588 3900 2950 3900 
L 5438 3900 
Q 5806 3900 6169 3919 
Q 6150 3725 6169 3525 
Q 5806 3544 5438 3544 
L 3813 3544 
L 3813 2794 
Q 4113 2781 4413 2781 
L 5644 2781 
L 5644 -156 
Q 5644 -419 5456 -594 
Q 5194 -831 4475 -819 
Q 4550 -506 4325 -269 
Q 4531 -294 4809 -297 
Q 5088 -300 5141 -256 
Q 5194 -213 5194 -13 
z
M 4144 4100 
Q 3756 4619 3306 5075 
L 3656 5425 
Q 4138 4944 4544 4394 
L 4144 4100 
z
M 38 2613 
Q 63 2775 38 2938 
Q 394 2925 744 2925 
L 1538 2925 
L 1538 506 
L 2025 1006 
L 2206 1250 
L 2456 1013 
L 2269 838 
L 1325 -256 
L 994 -25 
Q 1044 81 1044 200 
L 1044 2625 
L 38 2613 
z
M 1144 3713 
Q 731 4325 244 4881 
L 675 5163 
Q 1188 4588 1619 3944 
L 1144 3713 
z
" transform="scale(0.015625)"/>
        <path id="WenQuanYiZenHei-4f01" d="M 5806 -81 
Q 5788 -275 5806 -475 
Q 5444 -456 5081 -456 
L 1106 -456 
Q 744 -456 381 -475 
Q 400 -275 381 -81 
Q 744 -100 1106 -100 
L 1506 -100 
L 1506 1288 
Q 1506 1744 1481 2206 
Q 1731 2181 1981 2206 
Q 1956 1744 1956 1288 
L 1956 -100 
L 3088 -100 
L 3088 2206 
Q 3088 2669 3069 3125 
Q 3319 3100 3563 3125 
Q 3544 2669 3544 2206 
L 3544 1700 
L 4475 1700 
Q 4844 1700 5206 1719 
Q 5188 1519 5206 1319 
Q 4844 1338 4475 1338 
L 3544 1338 
L 3544 -100 
L 5081 -100 
Q 5444 -100 5806 -81 
z
M 3038 5163 
Q 3269 5031 3531 4938 
L 3381 4669 
Q 3588 4375 3881 4031 
Q 4431 3375 5225 2956 
Q 5663 2713 6131 2544 
Q 5906 2413 5806 2163 
Q 4913 2506 4225 3138 
Q 3594 3694 3144 4300 
Q 2419 3213 1438 2488 
Q 963 2144 419 1900 
Q 331 2175 113 2331 
Q 656 2563 1150 2881 
Q 1950 3394 2369 4000 
Q 2738 4550 3038 5163 
z
" transform="scale(0.015625)"/>
        <path id="WenQuanYiZenHei-4e1a" d="M 4300 19 
L 5375 19 
Q 5756 19 6138 38 
Q 6113 -169 6138 -375 
Q 5756 -356 5375 -356 
L 875 -356 
Q 494 -356 113 -375 
Q 138 -169 113 38 
Q 494 19 875 19 
L 2356 19 
L 2356 4338 
Q 2356 4800 2338 5269 
Q 2588 5244 2838 5269 
Q 2819 4800 2819 4338 
L 2819 19 
L 3844 19 
L 3844 4319 
Q 3844 4788 3819 5250 
Q 4069 5225 4325 5250 
Q 4300 4788 4300 4319 
L 4300 1525 
Q 4856 2194 5075 2741 
Q 5294 3288 5419 3844 
Q 5681 3744 5956 3700 
Q 5319 1881 4475 919 
Q 4400 1000 4300 1069 
L 4300 19 
z
M 1875 1550 
L 1406 1356 
Q 1156 1963 881 2563 
L 306 3738 
L 756 3969 
L 1338 2775 
Q 1619 2169 1875 1550 
z
" transform="scale(0.015625)"/>
        <path id="WenQuanYiZenHei-8bf4" d="M 4919 -675 
Q 4625 -675 4450 -497 
Q 4275 -319 4275 -31 
L 4275 1788 
L 3769 1788 
Q 3763 1138 3513 559 
Q 3263 -19 2803 -412 
Q 2344 -806 1763 -888 
Q 1638 -581 1363 -406 
Q 2213 -375 2656 44 
Q 2913 306 3119 759 
Q 3325 1213 3300 1788 
L 2481 1788 
Q 2556 2769 2481 3750 
L 4156 3750 
L 4269 4075 
Q 4525 4794 4681 5156 
Q 4894 5044 5125 4975 
L 4613 3750 
L 5519 3750 
Q 5431 2769 5506 1788 
L 4713 1788 
L 4713 -31 
Q 4713 -138 4772 -219 
Q 4831 -300 4925 -300 
L 5613 -294 
Q 5669 -294 5697 -256 
Q 5725 -219 5725 -169 
L 5738 81 
L 5856 975 
Q 6044 844 6275 850 
L 6106 -238 
Q 6106 -519 6019 -650 
Q 5988 -675 5938 -675 
L 4919 -675 
z
M 3425 3756 
Q 3013 4363 2525 4913 
L 2881 5225 
Q 3388 4656 3819 4025 
L 3425 3756 
z
M 2913 3431 
L 2913 2106 
L 5069 2106 
L 5081 3431 
L 2913 3431 
z
M 38 2613 
Q 56 2775 38 2938 
Q 375 2925 713 2925 
L 1475 2925 
L 1475 506 
L 1938 1006 
L 2119 1250 
L 2356 1013 
L 2175 838 
L 1269 -256 
L 950 -25 
Q 1000 81 1000 200 
L 1000 2625 
L 38 2613 
z
M 1100 3713 
Q 700 4325 231 4881 
L 644 5163 
Q 1138 4588 1550 3944 
L 1100 3713 
z
" transform="scale(0.015625)"/>
        <path id="WenQuanYiZenHei-41" d="M 3550 0 
L 2988 0 
L 2550 1281 
L 919 1281 
L 531 0 
L 69 0 
L 1494 4388 
L 2125 4388 
L 3550 0 
z
M 2425 1694 
L 1756 3800 
L 1075 1694 
L 2425 1694 
z
" transform="scale(0.015625)"/>
        <path id="WenQuanYiZenHei-49" d="M 1100 0 
L 550 0 
L 550 4388 
L 1100 4388 
L 1100 0 
z
" transform="scale(0.015625)"/>
        <path id="WenQuanYiZenHei-65e0" d="M 4306 -706 
Q 4013 -706 3816 -506 
Q 3619 -306 3619 19 
L 3619 2675 
L 3131 2675 
Q 3150 2013 2944 1456 
Q 2738 900 2394 481 
Q 1731 -344 656 -731 
Q 544 -438 250 -325 
Q 956 -175 1512 259 
Q 2069 694 2369 1288 
Q 2694 1925 2669 2675 
L 1125 2675 
Q 725 2675 325 2656 
Q 344 2875 325 3094 
Q 725 3069 1125 3069 
L 2669 3069 
L 2669 4525 
L 1625 4525 
Q 1225 4525 825 4506 
Q 850 4725 825 4944 
Q 1225 4919 1625 4919 
L 4663 4919 
Q 5063 4919 5463 4944 
Q 5438 4725 5463 4506 
Q 5063 4525 4663 4525 
L 3131 4525 
L 3131 3069 
L 5181 3069 
Q 5581 3069 5981 3094 
Q 5956 2875 5981 2656 
Q 5581 2675 5181 2675 
L 4088 2675 
L 4088 19 
Q 4088 -100 4150 -187 
Q 4213 -275 4313 -275 
L 5525 -275 
Q 5619 -275 5656 -194 
Q 5694 -113 5719 31 
L 5844 756 
Q 6050 625 6294 613 
L 6069 -506 
Q 6050 -575 5997 -640 
Q 5944 -706 5869 -706 
L 4306 -706 
z
" transform="scale(0.015625)"/>
        <path id="WenQuanYiZenHei-5f71" d="M 5744 1781 
Q 5931 1619 6144 1500 
Q 5581 794 4844 225 
Q 4056 -388 2994 -700 
Q 2956 -450 2788 -263 
Q 3388 -113 3953 156 
Q 4519 425 4906 806 
Q 5356 1263 5744 1781 
z
M 5600 3431 
Q 5750 3263 5931 3131 
Q 5088 2169 3681 1413 
Q 3613 1613 3438 1738 
Q 4044 2050 4531 2437 
Q 5019 2825 5600 3431 
z
M 5450 5163 
Q 5581 4981 5756 4838 
Q 5450 4538 5125 4263 
L 3863 3225 
Q 3756 3406 3563 3500 
L 4206 4031 
L 5450 5163 
z
M 3081 -88 
Q 2700 413 2250 850 
L 2563 1169 
Q 3031 706 3438 188 
L 3081 -88 
z
M 1169 1144 
Q 1338 1000 1538 894 
Q 1113 275 456 -388 
Q 331 -213 125 -150 
Q 656 400 1169 1144 
z
M 1794 -156 
L 1794 1244 
L 713 1244 
Q 788 1800 713 2356 
L 3119 2356 
Q 3044 1800 3113 1244 
L 2200 1244 
L 2200 -244 
Q 2181 -475 2019 -600 
Q 1744 -806 1219 -794 
Q 1275 -519 1094 -300 
Q 1431 -344 1744 -306 
Q 1794 -288 1794 -156 
z
M 3700 2944 
Q 3688 2800 3700 2656 
Q 3431 2669 3163 2669 
L 756 2669 
Q 488 2669 219 2656 
Q 231 2800 219 2944 
Q 488 2931 756 2931 
L 1731 2931 
L 1494 3363 
L 688 3363 
Q 763 4175 688 4988 
L 3194 4988 
Q 3113 4175 3181 3363 
L 2006 3363 
L 2244 2931 
L 3163 2931 
Q 3431 2931 3700 2944 
z
M 1119 2088 
L 1119 1513 
L 2706 1513 
L 2713 2088 
L 1119 2088 
z
M 1094 4719 
L 1094 4294 
L 2781 4294 
L 2788 4719 
L 1094 4719 
z
M 1094 4056 
L 1094 3631 
L 2781 3631 
L 2781 4056 
L 1094 4056 
z
" transform="scale(0.015625)"/>
        <path id="WenQuanYiZenHei-54cd" d="M 3269 819 
Q 3344 1781 3269 2744 
L 4881 2744 
Q 4794 1781 4869 819 
L 3269 819 
z
M 5413 3613 
L 2919 3613 
L 2925 113 
Q 2925 -331 2950 -769 
Q 2713 -744 2469 -769 
Q 2494 -331 2488 113 
L 2481 3931 
L 3575 3931 
Q 3494 4019 3394 4069 
Q 3700 4188 3744 4513 
Q 3744 4594 3706 4744 
Q 3669 4894 3669 4969 
Q 3925 5044 4156 5163 
Q 4156 5094 4175 4894 
Q 4194 4694 4188 4575 
Q 4138 4194 3863 3931 
L 5844 3931 
L 5844 -119 
Q 5844 -456 5619 -638 
Q 5375 -825 4806 -819 
Q 4869 -525 4675 -288 
Q 4850 -313 5075 -316 
Q 5300 -319 5356 -262 
Q 5413 -206 5413 88 
L 5413 3613 
z
M 3700 2425 
L 3700 1138 
L 4438 1138 
L 4444 2425 
L 3700 2425 
z
M 681 269 
L 263 269 
L 263 4750 
L 1863 4750 
L 1863 269 
L 1444 269 
L 1444 831 
L 681 831 
L 681 269 
z
M 1444 4481 
L 681 4481 
L 681 1081 
L 1444 1081 
L 1444 4481 
z
" transform="scale(0.015625)"/>
       </defs>
       <use xlink:href="#WenQuanYiZenHei-4e"/>
       <use xlink:href="#WenQuanYiZenHei-42" transform="translate(65.917969 0)"/>
       <use xlink:href="#WenQuanYiZenHei-45" transform="translate(127.832031 0)"/>
       <use xlink:href="#WenQuanYiZenHei-52" transform="translate(183.789062 0)"/>
       <use xlink:href="#WenQuanYiZenHei-20" transform="translate(245.703125 0)"/>
       <use xlink:href="#WenQuanYiZenHei-8bba" transform="translate(275.683594 0)"/>
       <use xlink:href="#WenQuanYiZenHei-6587" transform="translate(375.683594 0)"/>
       <use xlink:href="#WenQuanYiZenHei-ff1a" transform="translate(475.683594 0)"/>
       <use xlink:href="#WenQuanYiZenHei-53d7" transform="translate(575.683594 0)"/>
       <use xlink:href="#WenQuanYiZenHei-8bbf" transform="translate(675.683594 0)"/>
       <use xlink:href="#WenQuanYiZenHei-4f01" transform="translate(775.683594 0)"/>
       <use xlink:href="#WenQuanYiZenHei-4e1a" transform="translate(875.683594 0)"/>
       <use xlink:href="#WenQuanYiZenHei-8bf4" transform="translate(975.683594 0)"/>
       <use xlink:href="#WenQuanYiZenHei-20" transform="translate(1075.683594 0)"/>
       <use xlink:href="#WenQuanYiZenHei-41" transform="translate(1105.664062 0)"/>
       <use xlink:href="#WenQuanYiZenHei-49" transform="translate(1161.621094 0)"/>
       <use xlink:href="#WenQuanYiZenHei-20" transform="translate(1187.597656 0)"/>
       <use xlink:href="#WenQuanYiZenHei-65e0" transform="translate(1217.578125 0)"/>
       <use xlink:href="#WenQuanYiZenHei-5f71" transform="translate(1317.578125 0)"/>
       <use xlink:href="#WenQuanYiZenHei-54cd" transform="translate(1417.578125 0)"/>
      </g>
     </g>
    </g>
   </g>
   <g id="line2d_14">
    <path d="M 158.372891 220.28 
L 158.372891 7.2 
" clip-path="url(#p373248291d)" style="fill: none; stroke: #cccccc; stroke-width: 0.8; stroke-linecap: square"/>
   </g>
   <g id="patch_3">
    <path d="M 158.372891 220.28 
L 630.382891 220.28 
" style="fill: none; stroke: #000000; stroke-width: 0.8; stroke-linejoin: miter; stroke-linecap: square"/>
   </g>
   <g id="patch_4">
    <path d="M 158.372891 210.594545 
L 318.206965 210.594545 
L 318.206965 168.814153 
L 158.372891 168.814153 
z
" clip-path="url(#p373248291d)" style="fill: #1a56db"/>
   </g>
   <g id="patch_5">
    <path d="M 158.372891 134.630196 
L 577.937335 134.630196 
L 577.937335 92.849804 
L 158.372891 92.849804 
z
" clip-path="url(#p373248291d)" style="fill: #1a56db"/>
   </g>
   <g id="patch_6">
    <path d="M 158.372891 58.665847 
L 607.906224 58.665847 
L 607.906224 16.885455 
L 158.372891 16.885455 
z
" clip-path="url(#p373248291d)" style="fill: #1a56db"/>
   </g>
   <g id="text_9">
    <!-- 32 -->
    <g style="fill: #333333" transform="translate(318.706446 192.172123) scale(0.095 -0.095)">
     <defs>
      <path id="WenQuanYiZenHei-33" d="M 3588 1231 
Q 3588 494 2875 144 
Q 2450 -63 1925 -63 
Q 1044 -63 556 488 
Q 356 706 256 1000 
L 769 1169 
Q 994 375 1913 375 
Q 2631 375 2900 788 
Q 3019 975 3019 1231 
Q 3019 1638 2638 1881 
Q 2325 2081 1613 2069 
L 1338 2069 
L 1338 2494 
Q 1969 2494 2094 2506 
Q 2325 2544 2463 2613 
Q 2763 2756 2844 3100 
Q 2863 3169 2863 3244 
Q 2863 3744 2381 3944 
L 2163 4006 
Q 2056 4025 1931 4025 
Q 1388 4025 1075 3631 
Q 969 3488 906 3313 
L 419 3456 
Q 675 4150 1400 4369 
Q 1669 4456 1975 4456 
Q 2694 4456 3106 4050 
Q 3419 3744 3419 3275 
Q 3419 2813 3025 2513 
Q 2825 2356 2575 2319 
L 2575 2306 
Q 3181 2213 3450 1769 
Q 3588 1525 3588 1231 
z
" transform="scale(0.015625)"/>
     </defs>
     <use xlink:href="#WenQuanYiZenHei-33"/>
     <use xlink:href="#WenQuanYiZenHei-32" transform="translate(59.960938 0)"/>
    </g>
   </g>
   <g id="text_10">
    <!-- 84 -->
    <g style="fill: #333333" transform="translate(578.436817 116.207773) scale(0.095 -0.095)">
     <use xlink:href="#WenQuanYiZenHei-38"/>
     <use xlink:href="#WenQuanYiZenHei-34" transform="translate(59.960938 0)"/>
    </g>
   </g>
   <g id="text_11">
    <!-- 90 -->
    <g style="fill: #333333" transform="translate(608.405705 40.243424) scale(0.095 -0.095)">
     <defs>
      <path id="WenQuanYiZenHei-39" d="M 3544 2300 
Q 3544 1163 3019 513 
Q 2563 -63 1775 -63 
Q 956 -63 563 488 
Q 463 631 394 813 
L 838 975 
Q 1025 494 1550 388 
Q 1656 369 1775 369 
Q 2594 369 2900 1325 
Q 3044 1769 3038 2313 
L 3025 2313 
Q 2675 1638 1944 1544 
Q 1844 1531 1744 1531 
Q 1050 1531 625 2031 
Q 294 2419 294 2963 
Q 294 3656 813 4094 
Q 1238 4456 1819 4456 
Q 2988 4456 3381 3363 
Q 3544 2900 3544 2300 
z
M 2925 2994 
Q 2925 3563 2469 3844 
Q 2206 4006 1863 4006 
Q 1275 4006 988 3563 
Q 844 3344 825 3056 
Q 819 3006 819 2956 
Q 819 2413 1269 2131 
Q 1538 1963 1875 1963 
Q 2363 1963 2681 2350 
Q 2925 2638 2925 2994 
z
" transform="scale(0.015625)"/>
     </defs>
     <use xlink:href="#WenQuanYiZenHei-39"/>
     <use xlink:href="#WenQuanYiZenHei-30" transform="translate(59.960938 0)"/>
    </g>
   </g>
  </g>
 </g>
 <defs>
  <clipPath id="p373248291d">
   <rect x="158.372891" y="7.2" width="472.01" height="213.08"/>
  </clipPath>
 </defs>
</svg>
