<?xml version="1.0" encoding="utf-8" standalone="no"?>
<!DOCTYPE svg PUBLIC "-//W3C//DTD SVG 1.1//EN"
  "http://www.w3.org/Graphics/SVG/1.1/DTD/svg11.dtd">
<svg xmlns:xlink="http://www.w3.org/1999/xlink" width="638.415pt" height="241.804632pt" viewBox="0 0 638.415 241.804632" xmlns="http://www.w3.org/2000/svg" version="1.1">
 <metadata>
  <rdf:RDF xmlns:dc="http://purl.org/dc/elements/1.1/" xmlns:cc="http://creativecommons.org/ns#" xmlns:rdf="http://www.w3.org/1999/02/22-rdf-syntax-ns#">
   <cc:Work>
    <dc:type rdf:resource="http://purl.org/dc/dcmitype/StillImage"/>
    <dc:date>2026-06-07T23:51:51.698877</dc:date>
    <dc:format>image/svg+xml</dc:format>
    <dc:creator>
     <cc:Agent>
      <dc:title>Matplotlib v3.10.9, https://matplotlib.org/</dc:title>
     </cc:Agent>
    </dc:creator>
   </cc:Work>
  </rdf:RDF>
 </metadata>
 <defs>
  <style type="text/css">*{stroke-linejoin: round; stroke-linecap: butt}</style>
 </defs>
 <g id="figure_1">
  <g id="patch_1">
   <path d="M 0 241.804632 
L 638.415 241.804632 
L 638.415 0 
L 0 0 
z
" style="fill: #ffffff"/>
  </g>
  <g id="axes_1">
   <g id="patch_2">
    <path d="M 24.745 217.867132 
L 631.215 217.867132 
L 631.215 9.377132 
L 24.745 9.377132 
z
" style="fill: #fafafa"/>
   </g>
   <g id="matplotlib.axis_1">
    <g id="xtick_1">
     <g id="line2d_1">
      <defs>
       <path id="m1888b8f6a8" d="M 0 0 
L 0 3.5 
" style="stroke: #333333; stroke-width: 0.8"/>
      </defs>
      <g>
       <use xlink:href="#m1888b8f6a8" x="150.12956" y="217.867132" style="fill: #333333; stroke: #333333; stroke-width: 0.8"/>
      </g>
     </g>
     <g id="text_1">
      <!-- 五月裁员归因于 AI -->
      <g style="fill: #333333" transform="translate(111.53581 232.428538) scale(0.095 -0.095)">
       <defs>
        <path id="NotoSansCJKjp-Regular-4e94" d="M 1018 2867 
L 1018 2400 
L 2246 2400 
C 2099 1645 1939 902 1792 314 
L 358 314 
L 358 -160 
L 6054 -160 
L 6054 314 
L 4992 314 
L 4992 2867 
L 2854 2867 
L 3123 4282 
L 5600 4282 
L 5600 4755 
L 768 4755 
L 768 4282 
L 2586 4282 
C 2515 3840 2432 3354 2342 2867 
L 1018 2867 
z
M 2330 314 
C 2458 896 2618 1632 2765 2400 
L 4499 2400 
L 4499 314 
L 2330 314 
z
" transform="scale(0.015625)"/>
        <path id="NotoSansCJKjp-Regular-6708" d="M 1325 5037 
L 1325 3066 
C 1325 2035 1222 736 186 -173 
C 294 -237 480 -416 550 -518 
C 1178 32 1498 755 1658 1485 
L 4749 1485 
L 4749 205 
C 4749 64 4704 19 4550 13 
C 4403 6 3885 0 3354 19 
C 3437 -115 3526 -339 3558 -486 
C 4243 -486 4672 -480 4922 -390 
C 5158 -307 5254 -147 5254 198 
L 5254 5037 
L 1325 5037 
z
M 1811 4570 
L 4749 4570 
L 4749 3494 
L 1811 3494 
L 1811 4570 
z
M 1811 3040 
L 4749 3040 
L 4749 1952 
L 1741 1952 
C 1792 2330 1811 2701 1811 3040 
z
" transform="scale(0.015625)"/>
        <path id="NotoSansCJKjp-Regular-88c1" d="M 4608 4998 
C 4979 4717 5408 4294 5594 4006 
L 5952 4294 
C 5747 4582 5318 4979 4941 5261 
L 4608 4998 
z
M 5331 2861 
C 5133 2362 4864 1888 4544 1453 
C 4429 1939 4333 2528 4275 3194 
L 6112 3194 
L 6112 3629 
L 4243 3629 
C 4205 4173 4186 4755 4192 5370 
L 3712 5370 
C 3718 4768 3738 4179 3770 3629 
L 2221 3629 
L 2221 4314 
L 3386 4314 
L 3386 4736 
L 2221 4736 
L 2221 5376 
L 1760 5376 
L 1760 4736 
L 589 4736 
L 589 4314 
L 1760 4314 
L 1760 3629 
L 294 3629 
L 294 3194 
L 3808 3194 
C 3878 2355 4000 1606 4179 1005 
C 3770 544 3296 160 2778 -128 
C 2906 -224 3046 -384 3123 -506 
C 3571 -237 3987 102 4358 493 
C 4627 -141 4986 -512 5459 -512 
C 5926 -512 6093 -218 6176 774 
C 6054 819 5888 915 5786 1018 
C 5741 250 5670 -38 5498 -38 
C 5190 -38 4922 301 4710 896 
C 5146 1434 5504 2048 5773 2701 
L 5331 2861 
z
M 678 38 
L 864 -352 
C 1344 -192 1952 32 2522 243 
L 2451 627 
L 1536 314 
L 1536 1446 
C 1754 1658 1958 1882 2125 2112 
L 3526 2112 
L 3526 2528 
L 2221 2528 
L 2221 3110 
L 1760 3110 
L 1760 2528 
L 422 2528 
L 422 2112 
L 1600 2112 
C 1242 1690 736 1312 250 1056 
C 339 973 499 800 557 710 
C 736 813 922 941 1101 1082 
L 1101 173 
L 678 38 
z
M 3123 1990 
C 3002 1824 2797 1600 2611 1427 
L 2163 1792 
L 1862 1530 
C 2310 1165 2874 653 3149 326 
L 3462 634 
C 3322 787 3117 986 2893 1184 
C 3078 1350 3302 1562 3482 1766 
L 3123 1990 
z
" transform="scale(0.015625)"/>
        <path id="NotoSansCJKjp-Regular-5458" d="M 1715 4672 
L 4704 4672 
L 4704 3942 
L 1715 3942 
L 1715 4672 
z
M 1216 5088 
L 1216 3526 
L 5229 3526 
L 5229 5088 
L 1216 5088 
z
M 2912 2093 
L 2912 1504 
C 2912 998 2733 314 422 -141 
C 531 -243 678 -429 736 -538 
C 3130 0 3424 826 3424 1498 
L 3424 2093 
L 2912 2093 
z
M 3386 416 
C 4166 147 5216 -269 5747 -538 
L 5990 -128 
C 5440 134 4384 525 3622 768 
L 3386 416 
z
M 992 2950 
L 992 589 
L 1485 589 
L 1485 2502 
L 4966 2502 
L 4966 634 
L 5478 634 
L 5478 2950 
L 992 2950 
z
" transform="scale(0.015625)"/>
        <path id="NotoSansCJKjp-Regular-5f52" d="M 582 4595 
L 582 1472 
L 1056 1472 
L 1056 4595 
L 582 4595 
z
M 1882 5370 
L 1882 2829 
C 1882 1664 1754 595 710 -192 
C 826 -262 1005 -435 1088 -538 
C 2214 326 2355 1530 2355 2829 
L 2355 5370 
L 1882 5370 
z
M 2886 4800 
L 2886 4339 
L 5344 4339 
L 5344 2739 
L 3078 2739 
L 3078 2266 
L 5344 2266 
L 5344 512 
L 2758 512 
L 2758 38 
L 5344 38 
L 5344 -410 
L 5830 -410 
L 5830 4800 
L 2886 4800 
z
" transform="scale(0.015625)"/>
        <path id="NotoSansCJKjp-Regular-56e0" d="M 2963 4346 
C 2950 3981 2938 3648 2906 3334 
L 1357 3334 
L 1357 2899 
L 2854 2899 
C 2694 1971 2310 1318 1280 928 
C 1376 838 1510 672 1568 557 
C 2547 954 2995 1581 3213 2426 
C 3494 1530 3987 909 4806 576 
C 4870 704 5005 883 5107 973 
C 4230 1274 3731 1939 3501 2899 
L 5043 2899 
L 5043 3334 
L 3360 3334 
C 3386 3648 3405 3987 3418 4346 
L 2963 4346 
z
M 525 5075 
L 525 -512 
L 1005 -512 
L 1005 -218 
L 5395 -218 
L 5395 -512 
L 5894 -512 
L 5894 5075 
L 525 5075 
z
M 1005 243 
L 1005 4614 
L 5395 4614 
L 5395 243 
L 1005 243 
z
" transform="scale(0.015625)"/>
        <path id="NotoSansCJKjp-Regular-4e8e" d="M 794 4922 
L 794 4442 
L 3008 4442 
L 3008 2822 
L 352 2822 
L 352 2342 
L 3008 2342 
L 3008 192 
C 3008 58 2957 19 2816 19 
C 2675 13 2182 6 1658 26 
C 1734 -115 1824 -339 1856 -480 
C 2515 -480 2938 -474 3174 -390 
C 3418 -314 3514 -160 3514 192 
L 3514 2342 
L 6054 2342 
L 6054 2822 
L 3514 2822 
L 3514 4442 
L 5606 4442 
L 5606 4922 
L 794 4922 
z
" transform="scale(0.015625)"/>
        <path id="NotoSansCJKjp-Regular-20" transform="scale(0.015625)"/>
        <path id="NotoSansCJKjp-Regular-41" d="M 26 0 
L 621 0 
L 1075 1434 
L 2790 1434 
L 3238 0 
L 3866 0 
L 2272 4691 
L 1613 4691 
L 26 0 
z
M 1222 1901 
L 1453 2624 
C 1619 3155 1773 3661 1920 4211 
L 1946 4211 
C 2099 3667 2246 3155 2419 2624 
L 2643 1901 
L 1222 1901 
z
" transform="scale(0.015625)"/>
        <path id="NotoSansCJKjp-Regular-49" d="M 646 0 
L 1235 0 
L 1235 4691 
L 646 4691 
L 646 0 
z
" transform="scale(0.015625)"/>
       </defs>
       <use xlink:href="#NotoSansCJKjp-Regular-4e94"/>
       <use xlink:href="#NotoSansCJKjp-Regular-6708" transform="translate(99.999985 0)"/>
       <use xlink:href="#NotoSansCJKjp-Regular-88c1" transform="translate(199.999969 0)"/>
       <use xlink:href="#NotoSansCJKjp-Regular-5458" transform="translate(299.999954 0)"/>
       <use xlink:href="#NotoSansCJKjp-Regular-5f52" transform="translate(399.999939 0)"/>
       <use xlink:href="#NotoSansCJKjp-Regular-56e0" transform="translate(499.999924 0)"/>
       <use xlink:href="#NotoSansCJKjp-Regular-4e8e" transform="translate(599.999908 0)"/>
       <use xlink:href="#NotoSansCJKjp-Regular-20" transform="translate(699.999893 0)"/>
       <use xlink:href="#NotoSansCJKjp-Regular-41" transform="translate(722.399887 0)"/>
       <use xlink:href="#NotoSansCJKjp-Regular-49" transform="translate(783.199875 0)"/>
      </g>
     </g>
    </g>
    <g id="xtick_2">
     <g id="line2d_2">
      <g>
       <use xlink:href="#m1888b8f6a8" x="505.83044" y="217.867132" style="fill: #333333; stroke: #333333; stroke-width: 0.8"/>
      </g>
     </g>
     <g id="text_2">
      <!-- 企业 AI 试点有可衡量回报 -->
      <g style="fill: #333333" transform="translate(451.922393 232.428538) scale(0.095 -0.095)">
       <defs>
        <path id="NotoSansCJKjp-Regular-4f01" d="M 3174 4915 
C 3757 4045 4877 3059 5882 2477 
C 5965 2611 6086 2778 6208 2893 
C 5190 3411 4064 4384 3392 5395 
L 2899 5395 
C 2406 4506 1331 3450 218 2816 
C 326 2714 461 2547 525 2438 
C 1613 3085 2656 4090 3174 4915 
z
M 1293 2490 
L 1293 109 
L 480 109 
L 480 -326 
L 5939 -326 
L 5939 109 
L 3488 109 
L 3488 1709 
L 5338 1709 
L 5338 2150 
L 3488 2150 
L 3488 3648 
L 2982 3648 
L 2982 109 
L 1766 109 
L 1766 2490 
L 1293 2490 
z
" transform="scale(0.015625)"/>
        <path id="NotoSansCJKjp-Regular-4e1a" d="M 5466 3885 
C 5210 3181 4755 2246 4403 1664 
L 4800 1459 
C 5158 2054 5594 2938 5901 3680 
L 5466 3885 
z
M 525 3770 
C 864 3053 1242 2074 1402 1510 
L 1882 1690 
C 1702 2253 1306 3194 973 3904 
L 525 3770 
z
M 3744 5293 
L 3744 294 
L 2669 294 
L 2669 5299 
L 2176 5299 
L 2176 294 
L 384 294 
L 384 -179 
L 6035 -179 
L 6035 294 
L 4230 294 
L 4230 5293 
L 3744 5293 
z
" transform="scale(0.015625)"/>
        <path id="NotoSansCJKjp-Regular-8bd5" d="M 768 4960 
C 1094 4678 1504 4269 1696 4006 
L 2029 4339 
C 1837 4595 1421 4979 1088 5254 
L 768 4960 
z
M 4973 5094 
C 5242 4813 5536 4422 5664 4166 
L 6016 4403 
C 5875 4653 5574 5024 5306 5299 
L 4973 5094 
z
M 320 3366 
L 320 2906 
L 1210 2906 
L 1210 602 
C 1210 326 1018 141 902 70 
C 986 -26 1101 -230 1146 -346 
C 1242 -230 1414 -115 2509 621 
C 2464 717 2406 902 2374 1030 
L 1664 570 
L 1664 3366 
L 320 3366 
z
M 4294 5344 
L 4333 4045 
L 2214 4045 
L 2214 3584 
L 4352 3584 
C 4467 1171 4768 -474 5562 -493 
C 5805 -493 6061 -224 6189 858 
C 6099 896 5894 1024 5805 1120 
C 5766 493 5690 134 5574 134 
C 5178 154 4928 1606 4826 3584 
L 6138 3584 
L 6138 4045 
L 4806 4045 
C 4794 4461 4781 4896 4781 5344 
L 4294 5344 
z
M 2304 390 
L 2438 -64 
C 2976 96 3674 301 4346 499 
L 4282 928 
L 3533 717 
L 3533 2202 
L 4134 2202 
L 4134 2650 
L 2419 2650 
L 2419 2202 
L 3091 2202 
L 3091 595 
L 2304 390 
z
" transform="scale(0.015625)"/>
        <path id="NotoSansCJKjp-Regular-70b9" d="M 1517 2976 
L 4864 2976 
L 4864 1830 
L 1517 1830 
L 1517 2976 
z
M 2176 819 
C 2259 403 2310 -134 2310 -454 
L 2797 -390 
C 2790 -83 2726 448 2630 858 
L 2176 819 
z
M 3501 813 
C 3686 416 3878 -122 3949 -442 
L 4416 -320 
C 4339 0 4134 518 3936 909 
L 3501 813 
z
M 4806 864 
C 5126 461 5485 -109 5632 -461 
L 6086 -269 
C 5926 83 5555 627 5235 1030 
L 4806 864 
z
M 1133 992 
C 934 518 608 0 269 -294 
L 704 -506 
C 1056 -166 1382 371 1587 870 
L 1133 992 
z
M 1062 3430 
L 1062 1382 
L 5344 1382 
L 5344 3430 
L 3392 3430 
L 3392 4243 
L 5824 4243 
L 5824 4698 
L 3392 4698 
L 3392 5376 
L 2912 5376 
L 2912 3430 
L 1062 3430 
z
" transform="scale(0.015625)"/>
        <path id="NotoSansCJKjp-Regular-6709" d="M 2502 5376 
C 2426 5101 2336 4819 2221 4544 
L 403 4544 
L 403 4096 
L 2022 4096 
C 1613 3251 1024 2470 256 1946 
C 346 1856 499 1683 563 1574 
C 966 1862 1325 2208 1632 2598 
L 1632 -506 
L 2106 -506 
L 2106 762 
L 4787 762 
L 4787 96 
C 4787 0 4755 -38 4646 -38 
C 4525 -45 4134 -51 3712 -32 
C 3776 -166 3846 -365 3872 -493 
C 4422 -493 4774 -493 4986 -422 
C 5197 -339 5261 -192 5261 90 
L 5261 3354 
L 2150 3354 
C 2298 3597 2426 3840 2541 4096 
L 6010 4096 
L 6010 4544 
L 2733 4544 
C 2829 4781 2912 5024 2989 5261 
L 2502 5376 
z
M 2106 1850 
L 4787 1850 
L 4787 1178 
L 2106 1178 
L 2106 1850 
z
M 2106 2259 
L 2106 2918 
L 4787 2918 
L 4787 2259 
L 2106 2259 
z
" transform="scale(0.015625)"/>
        <path id="NotoSansCJKjp-Regular-53ef" d="M 358 4922 
L 358 4442 
L 4781 4442 
L 4781 186 
C 4781 51 4736 13 4595 0 
C 4442 0 3917 -6 3405 19 
C 3482 -122 3571 -358 3603 -499 
C 4237 -499 4685 -499 4941 -416 
C 5190 -333 5280 -166 5280 179 
L 5280 4442 
L 6067 4442 
L 6067 4922 
L 358 4922 
z
M 1478 3040 
L 3162 3040 
L 3162 1568 
L 1478 1568 
L 1478 3040 
z
M 1011 3501 
L 1011 595 
L 1478 595 
L 1478 1107 
L 3635 1107 
L 3635 3501 
L 1011 3501 
z
" transform="scale(0.015625)"/>
        <path id="NotoSansCJKjp-Regular-8861" d="M 1267 5376 
C 1037 4954 582 4435 179 4102 
C 256 4019 378 3840 435 3738 
C 896 4122 1389 4698 1709 5216 
L 1267 5376 
z
M 4589 5005 
L 4589 4563 
L 6067 4563 
L 6067 5005 
L 4589 5005 
z
M 1402 4096 
C 1088 3418 589 2739 109 2278 
C 192 2176 333 1958 384 1862 
C 570 2048 755 2266 941 2509 
L 941 -512 
L 1382 -512 
L 1382 3149 
L 1632 3565 
C 1734 3514 1882 3398 1952 3302 
L 2022 3386 
L 2022 1722 
L 2989 1722 
C 2982 1562 2970 1414 2950 1280 
L 1805 1280 
L 1805 883 
L 2867 883 
C 2720 365 2406 32 1722 -186 
C 1811 -262 1926 -422 1971 -525 
C 2592 -314 2950 -6 3155 429 
C 3520 166 3904 -166 4102 -410 
L 4403 -83 
C 4166 179 3693 550 3296 813 
L 3315 883 
L 4563 883 
L 4563 1280 
L 3386 1280 
C 3405 1421 3418 1568 3424 1722 
L 4390 1722 
L 4390 3872 
L 3648 3872 
C 3776 4122 3904 4416 3994 4672 
L 3693 4858 
L 3622 4838 
L 2861 4838 
C 2925 4992 2976 5139 3021 5286 
L 2586 5350 
C 2432 4813 2125 4134 1658 3610 
L 1830 3949 
L 1402 4096 
z
M 2701 4454 
L 3424 4454 
C 3360 4256 3277 4038 3194 3872 
L 2381 3872 
C 2502 4064 2605 4256 2701 4454 
z
M 2387 2637 
L 3021 2637 
L 3021 2074 
L 2387 2074 
L 2387 2637 
z
M 3386 2637 
L 4006 2637 
L 4006 2074 
L 3386 2074 
L 3386 2637 
z
M 2387 3520 
L 3021 3520 
L 3021 2970 
L 2387 2970 
L 2387 3520 
z
M 3386 3520 
L 4006 3520 
L 4006 2970 
L 3386 2970 
L 3386 3520 
z
M 4506 3360 
L 4506 2912 
L 5178 2912 
L 5178 64 
C 5178 -13 5158 -32 5082 -32 
C 4998 -38 4755 -38 4467 -32 
C 4531 -166 4589 -365 4608 -493 
C 4992 -493 5254 -486 5421 -403 
C 5587 -326 5632 -192 5632 64 
L 5632 2912 
L 6195 2912 
L 6195 3360 
L 4506 3360 
z
" transform="scale(0.015625)"/>
        <path id="NotoSansCJKjp-Regular-91cf" d="M 1600 4256 
L 4781 4256 
L 4781 3904 
L 1600 3904 
L 1600 4256 
z
M 1600 4883 
L 4781 4883 
L 4781 4538 
L 1600 4538 
L 1600 4883 
z
M 1133 5171 
L 1133 3616 
L 5261 3616 
L 5261 5171 
L 1133 5171 
z
M 333 3341 
L 333 2976 
L 6074 2976 
L 6074 3341 
L 333 3341 
z
M 1472 1747 
L 2957 1747 
L 2957 1376 
L 1472 1376 
L 1472 1747 
z
M 3424 1747 
L 4973 1747 
L 4973 1376 
L 3424 1376 
L 3424 1747 
z
M 1472 2387 
L 2957 2387 
L 2957 2029 
L 1472 2029 
L 1472 2387 
z
M 3424 2387 
L 4973 2387 
L 4973 2029 
L 3424 2029 
L 3424 2387 
z
M 301 19 
L 301 -352 
L 6112 -352 
L 6112 19 
L 3424 19 
L 3424 390 
L 5587 390 
L 5587 730 
L 3424 730 
L 3424 1082 
L 5446 1082 
L 5446 2688 
L 1018 2688 
L 1018 1082 
L 2957 1082 
L 2957 730 
L 838 730 
L 838 390 
L 2957 390 
L 2957 19 
L 301 19 
z
" transform="scale(0.015625)"/>
        <path id="NotoSansCJKjp-Regular-56de" d="M 2394 3200 
L 3955 3200 
L 3955 1734 
L 2394 1734 
L 2394 3200 
z
M 1939 3635 
L 1939 1306 
L 4429 1306 
L 4429 3635 
L 1939 3635 
z
M 525 5114 
L 525 -506 
L 1018 -506 
L 1018 -160 
L 5370 -160 
L 5370 -506 
L 5882 -506 
L 5882 5114 
L 525 5114 
z
M 1018 294 
L 1018 4634 
L 5370 4634 
L 5370 294 
L 1018 294 
z
" transform="scale(0.015625)"/>
        <path id="NotoSansCJKjp-Regular-62a5" d="M 2707 5158 
L 2707 -499 
L 3187 -499 
L 3187 2528 
L 3379 2528 
C 3622 1856 3955 1235 4371 710 
C 4051 352 3667 51 3219 -173 
C 3334 -262 3475 -416 3546 -525 
C 3981 -294 4358 6 4685 358 
C 5024 0 5408 -288 5830 -493 
C 5907 -371 6054 -179 6163 -90 
C 5734 96 5338 378 4992 723 
C 5453 1344 5773 2086 5939 2880 
L 5626 2982 
L 5536 2970 
L 3187 2970 
L 3187 4710 
L 5229 4710 
C 5203 4134 5165 3885 5088 3802 
C 5030 3757 4960 3750 4819 3750 
C 4691 3750 4275 3757 3853 3789 
C 3923 3680 3981 3514 3987 3392 
C 4416 3366 4819 3360 5024 3373 
C 5235 3386 5376 3424 5491 3539 
C 5632 3686 5690 4051 5728 4954 
C 5734 5024 5734 5158 5734 5158 
L 2707 5158 
z
M 3834 2528 
L 5363 2528 
C 5216 2016 4986 1517 4672 1082 
C 4320 1510 4038 2003 3834 2528 
z
M 1210 5376 
L 1210 4083 
L 301 4083 
L 301 3616 
L 1210 3616 
L 1210 2253 
L 205 1990 
L 333 1498 
L 1210 1754 
L 1210 83 
C 1210 -26 1171 -51 1062 -58 
C 973 -58 640 -64 282 -51 
C 352 -186 416 -384 435 -512 
C 947 -512 1248 -499 1434 -422 
C 1619 -346 1696 -211 1696 90 
L 1696 1901 
L 2470 2131 
L 2413 2592 
L 1696 2387 
L 1696 3616 
L 2426 3616 
L 2426 4083 
L 1696 4083 
L 1696 5376 
L 1210 5376 
z
" transform="scale(0.015625)"/>
       </defs>
       <use xlink:href="#NotoSansCJKjp-Regular-4f01"/>
       <use xlink:href="#NotoSansCJKjp-Regular-4e1a" transform="translate(99.999985 0)"/>
       <use xlink:href="#NotoSansCJKjp-Regular-20" transform="translate(199.999969 0)"/>
       <use xlink:href="#NotoSansCJKjp-Regular-41" transform="translate(222.399963 0)"/>
       <use xlink:href="#NotoSansCJKjp-Regular-49" transform="translate(283.199951 0)"/>
       <use xlink:href="#NotoSansCJKjp-Regular-20" transform="translate(312.499939 0)"/>
       <use xlink:href="#NotoSansCJKjp-Regular-8bd5" transform="translate(334.899933 0)"/>
       <use xlink:href="#NotoSansCJKjp-Regular-70b9" transform="translate(434.899918 0)"/>
       <use xlink:href="#NotoSansCJKjp-Regular-6709" transform="translate(534.899902 0)"/>
       <use xlink:href="#NotoSansCJKjp-Regular-53ef" transform="translate(634.899887 0)"/>
       <use xlink:href="#NotoSansCJKjp-Regular-8861" transform="translate(734.899872 0)"/>
       <use xlink:href="#NotoSansCJKjp-Regular-91cf" transform="translate(834.899857 0)"/>
       <use xlink:href="#NotoSansCJKjp-Regular-56de" transform="translate(934.899841 0)"/>
       <use xlink:href="#NotoSansCJKjp-Regular-62a5" transform="translate(1034.899826 0)"/>
      </g>
     </g>
    </g>
   </g>
   <g id="matplotlib.axis_2">
    <g id="ytick_1">
     <g id="line2d_3">
      <path d="M 24.745 217.867132 
L 631.215 217.867132 
" clip-path="url(#pf422195435)" style="fill: none; stroke-dasharray: 2.96,1.28; stroke-dashoffset: 0; stroke: #b0b0b0; stroke-opacity: 0.35; stroke-width: 0.8"/>
     </g>
     <g id="line2d_4">
      <defs>
       <path id="md3fb97caca" d="M 0 0 
L -3.5 0 
" style="stroke: #333333; stroke-width: 0.8"/>
      </defs>
      <g>
       <use xlink:href="#md3fb97caca" x="24.745" y="217.867132" style="fill: #333333; stroke: #333333; stroke-width: 0.8"/>
      </g>
     </g>
     <g id="text_3">
      <!-- 0 -->
      <g style="fill: #333333" transform="translate(12.4725 221.647835) scale(0.095 -0.095)">
       <defs>
        <path id="NotoSansCJKjp-Regular-30" d="M 1779 -83 
C 2669 -83 3238 723 3238 2362 
C 3238 3987 2669 4774 1779 4774 
C 883 4774 320 3987 320 2362 
C 320 723 883 -83 1779 -83 
z
M 1779 390 
C 1248 390 883 986 883 2362 
C 883 3731 1248 4314 1779 4314 
C 2310 4314 2675 3731 2675 2362 
C 2675 986 2310 390 1779 390 
z
" transform="scale(0.015625)"/>
       </defs>
       <use xlink:href="#NotoSansCJKjp-Regular-30"/>
      </g>
     </g>
    </g>
    <g id="ytick_2">
     <g id="line2d_5">
      <path d="M 24.745 193.046894 
L 631.215 193.046894 
" clip-path="url(#pf422195435)" style="fill: none; stroke-dasharray: 2.96,1.28; stroke-dashoffset: 0; stroke: #b0b0b0; stroke-opacity: 0.35; stroke-width: 0.8"/>
     </g>
     <g id="line2d_6">
      <g>
       <use xlink:href="#md3fb97caca" x="24.745" y="193.046894" style="fill: #333333; stroke: #333333; stroke-width: 0.8"/>
      </g>
     </g>
     <g id="text_4">
      <!-- 5 -->
      <g style="fill: #333333" transform="translate(12.4725 196.827597) scale(0.095 -0.095)">
       <defs>
        <path id="NotoSansCJKjp-Regular-35" d="M 1677 -83 
C 2464 -83 3213 499 3213 1523 
C 3213 2560 2573 3021 1798 3021 
C 1517 3021 1306 2950 1094 2835 
L 1216 4192 
L 2982 4192 
L 2982 4691 
L 704 4691 
L 550 2502 
L 864 2304 
C 1133 2483 1331 2579 1645 2579 
C 2234 2579 2618 2182 2618 1510 
C 2618 826 2176 403 1619 403 
C 1075 403 730 653 467 922 
L 173 538 
C 493 224 941 -83 1677 -83 
z
" transform="scale(0.015625)"/>
       </defs>
       <use xlink:href="#NotoSansCJKjp-Regular-35"/>
      </g>
     </g>
    </g>
    <g id="ytick_3">
     <g id="line2d_7">
      <path d="M 24.745 168.226656 
L 631.215 168.226656 
" clip-path="url(#pf422195435)" style="fill: none; stroke-dasharray: 2.96,1.28; stroke-dashoffset: 0; stroke: #b0b0b0; stroke-opacity: 0.35; stroke-width: 0.8"/>
     </g>
     <g id="line2d_8">
      <g>
       <use xlink:href="#md3fb97caca" x="24.745" y="168.226656" style="fill: #333333; stroke: #333333; stroke-width: 0.8"/>
      </g>
     </g>
     <g id="text_5">
      <!-- 10 -->
      <g style="fill: #333333" transform="translate(7.2 172.007359) scale(0.095 -0.095)">
       <defs>
        <path id="NotoSansCJKjp-Regular-31" d="M 563 0 
L 3136 0 
L 3136 486 
L 2195 486 
L 2195 4691 
L 1747 4691 
C 1491 4544 1190 4435 774 4358 
L 774 3987 
L 1613 3987 
L 1613 486 
L 563 486 
L 563 0 
z
" transform="scale(0.015625)"/>
       </defs>
       <use xlink:href="#NotoSansCJKjp-Regular-31"/>
       <use xlink:href="#NotoSansCJKjp-Regular-30" transform="translate(55.499985 0)"/>
      </g>
     </g>
    </g>
    <g id="ytick_4">
     <g id="line2d_9">
      <path d="M 24.745 143.406417 
L 631.215 143.406417 
" clip-path="url(#pf422195435)" style="fill: none; stroke-dasharray: 2.96,1.28; stroke-dashoffset: 0; stroke: #b0b0b0; stroke-opacity: 0.35; stroke-width: 0.8"/>
     </g>
     <g id="line2d_10">
      <g>
       <use xlink:href="#md3fb97caca" x="24.745" y="143.406417" style="fill: #333333; stroke: #333333; stroke-width: 0.8"/>
      </g>
     </g>
     <g id="text_6">
      <!-- 15 -->
      <g style="fill: #333333" transform="translate(7.2 147.187121) scale(0.095 -0.095)">
       <use xlink:href="#NotoSansCJKjp-Regular-31"/>
       <use xlink:href="#NotoSansCJKjp-Regular-35" transform="translate(55.499985 0)"/>
      </g>
     </g>
    </g>
    <g id="ytick_5">
     <g id="line2d_11">
      <path d="M 24.745 118.586179 
L 631.215 118.586179 
" clip-path="url(#pf422195435)" style="fill: none; stroke-dasharray: 2.96,1.28; stroke-dashoffset: 0; stroke: #b0b0b0; stroke-opacity: 0.35; stroke-width: 0.8"/>
     </g>
     <g id="line2d_12">
      <g>
       <use xlink:href="#md3fb97caca" x="24.745" y="118.586179" style="fill: #333333; stroke: #333333; stroke-width: 0.8"/>
      </g>
     </g>
     <g id="text_7">
      <!-- 20 -->
      <g style="fill: #333333" transform="translate(7.2 122.366882) scale(0.095 -0.095)">
       <defs>
        <path id="NotoSansCJKjp-Regular-32" d="M 282 0 
L 3232 0 
L 3232 506 
L 1933 506 
C 1696 506 1408 480 1165 461 
C 2266 1504 3008 2458 3008 3398 
C 3008 4230 2477 4774 1638 4774 
C 1043 4774 634 4506 256 4090 
L 595 3757 
C 858 4070 1184 4301 1568 4301 
C 2150 4301 2432 3910 2432 3373 
C 2432 2566 1754 1632 282 346 
L 282 0 
z
" transform="scale(0.015625)"/>
       </defs>
       <use xlink:href="#NotoSansCJKjp-Regular-32"/>
       <use xlink:href="#NotoSansCJKjp-Regular-30" transform="translate(55.499985 0)"/>
      </g>
     </g>
    </g>
    <g id="ytick_6">
     <g id="line2d_13">
      <path d="M 24.745 93.765941 
L 631.215 93.765941 
" clip-path="url(#pf422195435)" style="fill: none; stroke-dasharray: 2.96,1.28; stroke-dashoffset: 0; stroke: #b0b0b0; stroke-opacity: 0.35; stroke-width: 0.8"/>
     </g>
     <g id="line2d_14">
      <g>
       <use xlink:href="#md3fb97caca" x="24.745" y="93.765941" style="fill: #333333; stroke: #333333; stroke-width: 0.8"/>
      </g>
     </g>
     <g id="text_8">
      <!-- 25 -->
      <g style="fill: #333333" transform="translate(7.2 97.546644) scale(0.095 -0.095)">
       <use xlink:href="#NotoSansCJKjp-Regular-32"/>
       <use xlink:href="#NotoSansCJKjp-Regular-35" transform="translate(55.499985 0)"/>
      </g>
     </g>
    </g>
    <g id="ytick_7">
     <g id="line2d_15">
      <path d="M 24.745 68.945703 
L 631.215 68.945703 
" clip-path="url(#pf422195435)" style="fill: none; stroke-dasharray: 2.96,1.28; stroke-dashoffset: 0; stroke: #b0b0b0; stroke-opacity: 0.35; stroke-width: 0.8"/>
     </g>
     <g id="line2d_16">
      <g>
       <use xlink:href="#md3fb97caca" x="24.745" y="68.945703" style="fill: #333333; stroke: #333333; stroke-width: 0.8"/>
      </g>
     </g>
     <g id="text_9">
      <!-- 30 -->
      <g style="fill: #333333" transform="translate(7.2 72.726406) scale(0.095 -0.095)">
       <defs>
        <path id="NotoSansCJKjp-Regular-33" d="M 1683 -83 
C 2522 -83 3194 416 3194 1254 
C 3194 1901 2752 2310 2202 2445 
L 2202 2477 
C 2701 2650 3034 3034 3034 3603 
C 3034 4346 2458 4774 1664 4774 
C 1126 4774 710 4538 358 4218 
L 672 3846 
C 941 4115 1267 4301 1645 4301 
C 2138 4301 2438 4006 2438 3558 
C 2438 3053 2112 2662 1139 2662 
L 1139 2214 
C 2227 2214 2598 1843 2598 1274 
C 2598 736 2208 403 1645 403 
C 1114 403 762 659 486 941 
L 186 563 
C 493 224 954 -83 1683 -83 
z
" transform="scale(0.015625)"/>
       </defs>
       <use xlink:href="#NotoSansCJKjp-Regular-33"/>
       <use xlink:href="#NotoSansCJKjp-Regular-30" transform="translate(55.499985 0)"/>
      </g>
     </g>
    </g>
    <g id="ytick_8">
     <g id="line2d_17">
      <path d="M 24.745 44.125465 
L 631.215 44.125465 
" clip-path="url(#pf422195435)" style="fill: none; stroke-dasharray: 2.96,1.28; stroke-dashoffset: 0; stroke: #b0b0b0; stroke-opacity: 0.35; stroke-width: 0.8"/>
     </g>
     <g id="line2d_18">
      <g>
       <use xlink:href="#md3fb97caca" x="24.745" y="44.125465" style="fill: #333333; stroke: #333333; stroke-width: 0.8"/>
      </g>
     </g>
     <g id="text_10">
      <!-- 35 -->
      <g style="fill: #333333" transform="translate(7.2 47.906168) scale(0.095 -0.095)">
       <use xlink:href="#NotoSansCJKjp-Regular-33"/>
       <use xlink:href="#NotoSansCJKjp-Regular-35" transform="translate(55.499985 0)"/>
      </g>
     </g>
    </g>
    <g id="ytick_9">
     <g id="line2d_19">
      <path d="M 24.745 19.305227 
L 631.215 19.305227 
" clip-path="url(#pf422195435)" style="fill: none; stroke-dasharray: 2.96,1.28; stroke-dashoffset: 0; stroke: #b0b0b0; stroke-opacity: 0.35; stroke-width: 0.8"/>
     </g>
     <g id="line2d_20">
      <g>
       <use xlink:href="#md3fb97caca" x="24.745" y="19.305227" style="fill: #333333; stroke: #333333; stroke-width: 0.8"/>
      </g>
     </g>
     <g id="text_11">
      <!-- 40 -->
      <g style="fill: #333333" transform="translate(7.2 23.08593) scale(0.095 -0.095)">
       <defs>
        <path id="NotoSansCJKjp-Regular-34" d="M 2176 0 
L 2726 0 
L 2726 1293 
L 3354 1293 
L 3354 1760 
L 2726 1760 
L 2726 4691 
L 2080 4691 
L 128 1677 
L 128 1293 
L 2176 1293 
L 2176 0 
z
M 2176 1760 
L 736 1760 
L 1805 3360 
C 1939 3590 2067 3827 2182 4051 
L 2208 4051 
C 2195 3814 2176 3430 2176 3200 
L 2176 1760 
z
" transform="scale(0.015625)"/>
       </defs>
       <use xlink:href="#NotoSansCJKjp-Regular-34"/>
       <use xlink:href="#NotoSansCJKjp-Regular-30" transform="translate(55.499985 0)"/>
      </g>
     </g>
    </g>
   </g>
   <g id="patch_3">
    <path d="M 24.745 217.867132 
L 24.745 9.377132 
" style="fill: none; stroke: #000000; stroke-width: 0.8; stroke-linejoin: miter; stroke-linecap: square"/>
   </g>
   <g id="patch_4">
    <path d="M 24.745 217.867132 
L 631.215 217.867132 
" style="fill: none; stroke: #000000; stroke-width: 0.8; stroke-linejoin: miter; stroke-linecap: square"/>
   </g>
   <g id="patch_5">
    <path d="M 52.311818 217.867132 
L 247.947302 217.867132 
L 247.947302 19.305227 
L 52.311818 19.305227 
z
" clip-path="url(#pf422195435)" style="fill: #1a56db"/>
   </g>
   <g id="patch_6">
    <path d="M 408.012698 217.867132 
L 603.648182 217.867132 
L 603.648182 193.046894 
L 408.012698 193.046894 
z
" clip-path="url(#pf422195435)" style="fill: #1a56db"/>
   </g>
   <g id="text_12">
    <!-- 40 -->
    <g transform="translate(144.52456 14.780703) scale(0.095 -0.095)">
     <defs>
      <path id="NotoSansCJKjp-Bold-34" d="M 2157 0 
L 3034 0 
L 3034 1229 
L 3597 1229 
L 3597 1946 
L 3034 1946 
L 3034 4742 
L 1901 4742 
L 134 1869 
L 134 1229 
L 2157 1229 
L 2157 0 
z
M 2157 1946 
L 1050 1946 
L 1786 3123 
C 1920 3379 2048 3642 2163 3898 
L 2195 3898 
C 2176 3616 2157 3187 2157 2912 
L 2157 1946 
z
" transform="scale(0.015625)"/>
      <path id="NotoSansCJKjp-Bold-30" d="M 1888 -90 
C 2854 -90 3494 755 3494 2394 
C 3494 4019 2854 4826 1888 4826 
C 922 4826 282 4026 282 2394 
C 282 755 922 -90 1888 -90 
z
M 1888 646 
C 1478 646 1171 1056 1171 2394 
C 1171 3712 1478 4102 1888 4102 
C 2298 4102 2598 3712 2598 2394 
C 2598 1056 2298 646 1888 646 
z
" transform="scale(0.015625)"/>
     </defs>
     <use xlink:href="#NotoSansCJKjp-Bold-34"/>
     <use xlink:href="#NotoSansCJKjp-Bold-30" transform="translate(58.999985 0)"/>
    </g>
   </g>
   <g id="text_13">
    <!-- 5 -->
    <g transform="translate(503.02794 188.52237) scale(0.095 -0.095)">
     <defs>
      <path id="NotoSansCJKjp-Bold-35" d="M 1773 -90 
C 2637 -90 3424 518 3424 1574 
C 3424 2605 2765 3072 1965 3072 
C 1747 3072 1581 3034 1395 2944 
L 1485 3949 
L 3206 3949 
L 3206 4742 
L 672 4742 
L 544 2438 
L 973 2163 
C 1254 2342 1408 2406 1683 2406 
C 2157 2406 2483 2099 2483 1549 
C 2483 992 2138 678 1645 678 
C 1210 678 870 896 602 1158 
L 166 557 
C 525 205 1018 -90 1773 -90 
z
" transform="scale(0.015625)"/>
     </defs>
     <use xlink:href="#NotoSansCJKjp-Bold-35"/>
    </g>
   </g>
  </g>
 </g>
 <defs>
  <clipPath id="pf422195435">
   <rect x="24.745" y="9.377132" width="606.47" height="208.49"/>
  </clipPath>
 </defs>
</svg>
