<?xml version="1.0" encoding="utf-8" standalone="no"?>
<!DOCTYPE svg PUBLIC "-//W3C//DTD SVG 1.1//EN"
  "http://www.w3.org/Graphics/SVG/1.1/DTD/svg11.dtd">
<svg xmlns:xlink="http://www.w3.org/1999/xlink" width="638.259375pt" height="242.718203pt" viewBox="0 0 638.259375 242.718203" xmlns="http://www.w3.org/2000/svg" version="1.1">
 <metadata>
  <rdf:RDF xmlns:dc="http://purl.org/dc/elements/1.1/" xmlns:cc="http://creativecommons.org/ns#" xmlns:rdf="http://www.w3.org/1999/02/22-rdf-syntax-ns#">
   <cc:Work>
    <dc:type rdf:resource="http://purl.org/dc/dcmitype/StillImage"/>
    <dc:date>2026-06-14T08:24:13.975347</dc:date>
    <dc:format>image/svg+xml</dc:format>
    <dc:creator>
     <cc:Agent>
      <dc:title>Matplotlib v3.9.4, https://matplotlib.org/</dc:title>
     </cc:Agent>
    </dc:creator>
   </cc:Work>
  </rdf:RDF>
 </metadata>
 <defs>
  <style type="text/css">*{stroke-linejoin: round; stroke-linecap: butt}</style>
 </defs>
 <g id="figure_1">
  <g id="patch_1">
   <path d="M 0 242.718203 
L 638.259375 242.718203 
L 638.259375 0 
L 0 0 
z
" style="fill: #ffffff"/>
  </g>
  <g id="axes_1">
   <g id="patch_2">
    <path d="M 56.629375 219.56 
L 631.059375 219.56 
L 631.059375 7.2 
L 56.629375 7.2 
z
" style="fill: #fafafa"/>
   </g>
   <g id="matplotlib.axis_1">
    <g id="xtick_1">
     <g id="line2d_1">
      <path d="M 56.629375 219.56 
L 56.629375 7.2 
" clip-path="url(#pf969959fd8)" style="fill: none; stroke-dasharray: 2.96,1.28; stroke-dashoffset: 0; stroke: #b0b0b0; stroke-opacity: 0.35; stroke-width: 0.8"/>
     </g>
     <g id="line2d_2">
      <defs>
       <path id="md6928259c6" d="M 0 0 
L 0 3.5 
" style="stroke: #333333; stroke-width: 0.8"/>
      </defs>
      <g>
       <use xlink:href="#md6928259c6" x="56.629375" y="219.56" style="fill: #333333; stroke: #333333; stroke-width: 0.8"/>
      </g>
     </g>
     <g id="text_1">
      <!-- 0 -->
      <g style="fill: #333333" transform="translate(53.997578 234.255) scale(0.095 -0.095)">
       <defs>
        <path id="STHeitiTC-Medium-30" d="M 1747 5184 
Q 2502 5184 2944 4547 
Q 3386 3910 3386 2723 
Q 3386 1536 2938 902 
Q 2490 269 1738 269 
Q 986 269 573 893 
Q 160 1517 160 2729 
Q 160 3942 573 4563 
Q 986 5184 1747 5184 
z
M 1760 774 
Q 2285 774 2576 1283 
Q 2867 1792 2867 2726 
Q 2867 3661 2566 4160 
Q 2266 4659 1757 4659 
Q 1248 4659 966 4160 
Q 685 3661 685 2714 
Q 685 774 1760 774 
z
" transform="scale(0.015625)"/>
       </defs>
       <use xlink:href="#STHeitiTC-Medium-30"/>
      </g>
     </g>
    </g>
    <g id="xtick_2">
     <g id="line2d_3">
      <path d="M 178.201862 219.56 
L 178.201862 7.2 
" clip-path="url(#pf969959fd8)" style="fill: none; stroke-dasharray: 2.96,1.28; stroke-dashoffset: 0; stroke: #b0b0b0; stroke-opacity: 0.35; stroke-width: 0.8"/>
     </g>
     <g id="line2d_4">
      <g>
       <use xlink:href="#md6928259c6" x="178.201862" y="219.56" style="fill: #333333; stroke: #333333; stroke-width: 0.8"/>
      </g>
     </g>
     <g id="text_2">
      <!-- 2 -->
      <g style="fill: #333333" transform="translate(175.570065 234.255) scale(0.095 -0.095)">
       <defs>
        <path id="STHeitiTC-Medium-32" d="M 3360 384 
L 90 384 
L 1914 2355 
Q 2374 2842 2566 3123 
Q 2758 3405 2758 3763 
Q 2758 4122 2480 4390 
Q 2202 4659 1789 4659 
Q 1376 4659 1101 4368 
Q 826 4077 787 3539 
L 256 3539 
Q 288 4294 736 4739 
Q 1184 5184 1821 5184 
Q 2458 5184 2877 4771 
Q 3296 4358 3296 3763 
Q 3296 3328 3065 2950 
Q 2835 2573 2368 2074 
L 1293 915 
L 3360 915 
L 3360 384 
z
" transform="scale(0.015625)"/>
       </defs>
       <use xlink:href="#STHeitiTC-Medium-32"/>
      </g>
     </g>
    </g>
    <g id="xtick_3">
     <g id="line2d_5">
      <path d="M 299.774349 219.56 
L 299.774349 7.2 
" clip-path="url(#pf969959fd8)" style="fill: none; stroke-dasharray: 2.96,1.28; stroke-dashoffset: 0; stroke: #b0b0b0; stroke-opacity: 0.35; stroke-width: 0.8"/>
     </g>
     <g id="line2d_6">
      <g>
       <use xlink:href="#md6928259c6" x="299.774349" y="219.56" style="fill: #333333; stroke: #333333; stroke-width: 0.8"/>
      </g>
     </g>
     <g id="text_3">
      <!-- 4 -->
      <g style="fill: #333333" transform="translate(297.142552 234.255) scale(0.095 -0.095)">
       <defs>
        <path id="STHeitiTC-Medium-34" d="M 3418 1453 
L 2861 1453 
L 2861 384 
L 2317 384 
L 2317 1453 
L 70 1453 
L 2701 5184 
L 2861 5184 
L 2861 1984 
L 3418 1984 
L 3418 1453 
z
M 2317 1984 
L 2317 3712 
L 1094 1984 
L 2317 1984 
z
" transform="scale(0.015625)"/>
       </defs>
       <use xlink:href="#STHeitiTC-Medium-34"/>
      </g>
     </g>
    </g>
    <g id="xtick_4">
     <g id="line2d_7">
      <path d="M 421.346835 219.56 
L 421.346835 7.2 
" clip-path="url(#pf969959fd8)" style="fill: none; stroke-dasharray: 2.96,1.28; stroke-dashoffset: 0; stroke: #b0b0b0; stroke-opacity: 0.35; stroke-width: 0.8"/>
     </g>
     <g id="line2d_8">
      <g>
       <use xlink:href="#md6928259c6" x="421.346835" y="219.56" style="fill: #333333; stroke: #333333; stroke-width: 0.8"/>
      </g>
     </g>
     <g id="text_4">
      <!-- 6 -->
      <g style="fill: #333333" transform="translate(418.715038 234.255) scale(0.095 -0.095)">
       <defs>
        <path id="STHeitiTC-Medium-36" d="M 1594 3098 
Q 1798 3155 1984 3155 
Q 2515 3155 2912 2732 
Q 3309 2310 3309 1708 
Q 3309 1107 2880 688 
Q 2451 269 1830 269 
Q 1210 269 797 691 
Q 384 1114 384 1722 
Q 384 2016 499 2326 
Q 614 2637 915 3085 
L 2336 5203 
L 2797 4915 
L 1594 3098 
z
M 1843 806 
Q 2221 806 2493 1075 
Q 2765 1344 2765 1728 
Q 2765 2112 2496 2381 
Q 2227 2650 1843 2650 
Q 1459 2650 1190 2381 
Q 922 2112 922 1728 
Q 922 1344 1194 1075 
Q 1466 806 1843 806 
z
" transform="scale(0.015625)"/>
       </defs>
       <use xlink:href="#STHeitiTC-Medium-36"/>
      </g>
     </g>
    </g>
    <g id="xtick_5">
     <g id="line2d_9">
      <path d="M 542.919322 219.56 
L 542.919322 7.2 
" clip-path="url(#pf969959fd8)" style="fill: none; stroke-dasharray: 2.96,1.28; stroke-dashoffset: 0; stroke: #b0b0b0; stroke-opacity: 0.35; stroke-width: 0.8"/>
     </g>
     <g id="line2d_10">
      <g>
       <use xlink:href="#md6928259c6" x="542.919322" y="219.56" style="fill: #333333; stroke: #333333; stroke-width: 0.8"/>
      </g>
     </g>
     <g id="text_5">
      <!-- 8 -->
      <g style="fill: #333333" transform="translate(540.287525 234.255) scale(0.095 -0.095)">
       <defs>
        <path id="STHeitiTC-Medium-38" d="M 2547 2950 
Q 3373 2522 3373 1747 
Q 3373 1114 2928 691 
Q 2483 269 1763 269 
Q 1043 269 608 691 
Q 173 1114 173 1709 
Q 173 2515 1018 2950 
Q 390 3315 390 3942 
Q 390 4435 800 4809 
Q 1210 5184 1782 5184 
Q 2355 5184 2758 4819 
Q 3162 4454 3162 3930 
Q 3162 3322 2547 2950 
z
M 1792 3181 
Q 2118 3181 2364 3411 
Q 2611 3642 2611 3939 
Q 2611 4237 2380 4445 
Q 2150 4653 1785 4653 
Q 1421 4653 1184 4445 
Q 947 4237 947 3939 
Q 947 3642 1203 3411 
Q 1459 3181 1792 3181 
z
M 1773 794 
Q 2234 794 2528 1069 
Q 2822 1344 2822 1728 
Q 2822 2112 2518 2393 
Q 2214 2675 1782 2675 
Q 1350 2675 1036 2384 
Q 723 2093 723 1699 
Q 723 1306 1014 1050 
Q 1306 794 1773 794 
z
" transform="scale(0.015625)"/>
       </defs>
       <use xlink:href="#STHeitiTC-Medium-38"/>
      </g>
     </g>
    </g>
   </g>
   <g id="matplotlib.axis_2">
    <g id="ytick_1">
     <g id="line2d_11">
      <defs>
       <path id="m9c486e2aef" d="M 0 0 
L -3.5 0 
" style="stroke: #333333; stroke-width: 0.8"/>
      </defs>
      <g>
       <use xlink:href="#m9c486e2aef" x="56.629375" y="189.087665" style="fill: #333333; stroke: #333333; stroke-width: 0.8"/>
      </g>
     </g>
     <g id="text_6">
      <!-- 2025 年初 -->
      <g style="fill: #333333" transform="translate(7.2 192.935165) scale(0.095 -0.095)">
       <defs>
        <path id="STHeitiTC-Medium-35" d="M 3194 4544 
L 1549 4544 
L 1338 3398 
Q 1613 3469 1856 3469 
Q 2477 3469 2893 3030 
Q 3309 2592 3309 1913 
Q 3309 1235 2861 752 
Q 2413 269 1664 269 
Q 1088 269 691 621 
Q 294 973 211 1587 
L 768 1587 
Q 851 1203 1107 998 
Q 1363 794 1690 794 
Q 2125 794 2438 1123 
Q 2752 1453 2752 1939 
Q 2752 2374 2480 2656 
Q 2208 2938 1747 2938 
Q 1286 2938 672 2675 
L 1120 5069 
L 3194 5069 
L 3194 4544 
z
" transform="scale(0.015625)"/>
        <path id="STHeitiTC-Medium-20" transform="scale(0.015625)"/>
        <path id="STHeitiTC-Medium-5e74" d="M 1958 2394 
L 1958 1274 
L 3200 1274 
L 3200 2394 
L 1958 2394 
z
M 3712 4282 
Q 4397 4282 4857 4291 
Q 5318 4301 5670 4333 
L 5670 3763 
Q 5312 3789 4857 3801 
Q 4403 3814 3744 3814 
L 3744 2822 
Q 4243 2829 4633 2838 
Q 5024 2848 5370 2874 
L 5370 2342 
Q 5005 2362 4605 2374 
Q 4205 2387 3744 2394 
L 3744 1274 
Q 4307 1274 4694 1277 
Q 5082 1280 5341 1286 
Q 5600 1293 5763 1305 
Q 5926 1318 6054 1331 
L 6054 755 
Q 5939 768 5795 777 
Q 5651 787 5398 793 
Q 5146 800 4749 806 
Q 4352 813 3744 813 
Q 3744 371 3753 -3 
Q 3763 -378 3795 -768 
L 3149 -768 
Q 3181 -371 3190 0 
Q 3200 371 3200 813 
Q 2490 813 2006 809 
Q 1523 806 1203 796 
Q 883 787 684 777 
Q 486 768 346 755 
L 346 1331 
Q 563 1306 838 1296 
Q 1114 1286 1440 1280 
L 1440 2285 
Q 1440 2611 1395 2874 
Q 1786 2842 2218 2832 
Q 2650 2822 3200 2822 
L 3200 3814 
L 1837 3814 
Q 1638 3475 1446 3203 
Q 1254 2931 1094 2739 
Q 998 2810 854 2867 
Q 710 2925 538 2976 
Q 742 3168 940 3424 
Q 1139 3680 1318 3968 
Q 1498 4256 1642 4560 
Q 1786 4864 1882 5152 
Q 2067 5082 2204 5037 
Q 2342 4992 2445 4966 
Q 2573 4934 2589 4908 
Q 2605 4883 2509 4832 
Q 2483 4819 2451 4787 
Q 2419 4755 2371 4694 
Q 2323 4634 2256 4534 
Q 2189 4435 2099 4282 
L 3712 4282 
z
" transform="scale(0.015625)"/>
        <path id="STHeitiTC-Medium-521d" d="M 1754 4160 
Q 1728 4230 1683 4336 
Q 1638 4442 1587 4557 
Q 1536 4672 1481 4781 
Q 1427 4890 1382 4966 
L 1939 5146 
Q 2029 4960 2150 4739 
Q 2272 4518 2381 4378 
L 1754 4160 
z
M 2016 2464 
Q 2150 2368 2285 2253 
Q 2650 2618 2874 3059 
Q 2912 2982 2960 2912 
Q 3008 2842 3062 2784 
Q 3117 2726 3161 2684 
Q 3206 2643 3232 2630 
Q 3354 2560 3206 2509 
Q 3130 2483 2941 2345 
Q 2752 2208 2547 2016 
Q 2714 1869 2864 1709 
Q 3014 1549 3168 1370 
L 2758 1011 
Q 2682 1126 2586 1264 
Q 2490 1402 2390 1536 
Q 2291 1670 2195 1795 
Q 2099 1920 2016 2022 
L 2016 -678 
L 1459 -678 
Q 1478 -525 1491 -336 
Q 1504 -147 1513 45 
Q 1523 237 1529 413 
Q 1536 589 1536 717 
L 1536 1978 
Q 1344 1754 1129 1526 
Q 915 1299 704 1088 
Q 646 1254 579 1372 
Q 512 1491 416 1600 
Q 858 1907 1258 2355 
Q 1658 2803 1984 3450 
L 1261 3450 
Q 1114 3450 934 3437 
Q 755 3424 646 3398 
L 646 3949 
Q 800 3936 1037 3929 
Q 1274 3923 1690 3923 
Q 2080 3923 2329 3932 
Q 2579 3942 2746 3955 
Q 2573 3558 2390 3219 
Q 2208 2880 2016 2592 
L 2016 2464 
z
M 3923 3994 
Q 3437 3987 3091 3936 
L 3091 4550 
Q 3187 4538 3308 4528 
Q 3430 4518 3600 4512 
Q 3770 4506 3990 4502 
Q 4211 4499 4506 4499 
Q 4813 4499 5046 4502 
Q 5280 4506 5459 4512 
Q 5638 4518 5766 4528 
Q 5894 4538 5984 4550 
Q 5965 4422 5952 4265 
Q 5939 4109 5933 3949 
L 5811 390 
Q 5805 154 5757 -12 
Q 5709 -179 5581 -297 
Q 5453 -416 5229 -489 
Q 5005 -563 4640 -608 
Q 4595 -454 4505 -259 
Q 4416 -64 4301 102 
Q 4614 70 4806 76 
Q 4998 83 5100 140 
Q 5203 198 5241 323 
Q 5280 448 5286 659 
L 5408 4000 
L 4422 4000 
Q 4416 3379 4384 2838 
Q 4352 2298 4301 1978 
Q 4230 1555 4124 1200 
Q 4019 845 3859 534 
Q 3699 224 3481 -51 
Q 3264 -326 2976 -595 
Q 2778 -378 2438 -314 
Q 3014 141 3350 681 
Q 3686 1222 3782 1920 
Q 3821 2189 3843 2409 
Q 3866 2630 3882 2864 
Q 3898 3098 3907 3366 
Q 3917 3635 3923 3994 
z
" transform="scale(0.015625)"/>
       </defs>
       <use xlink:href="#STHeitiTC-Medium-32"/>
       <use xlink:href="#STHeitiTC-Medium-30" x="55.399994"/>
       <use xlink:href="#STHeitiTC-Medium-32" x="110.799988"/>
       <use xlink:href="#STHeitiTC-Medium-35" x="166.199982"/>
       <use xlink:href="#STHeitiTC-Medium-20" x="221.599976"/>
       <use xlink:href="#STHeitiTC-Medium-5e74" x="246.59996"/>
       <use xlink:href="#STHeitiTC-Medium-521d" x="346.599945"/>
      </g>
     </g>
    </g>
    <g id="ytick_2">
     <g id="line2d_12">
      <g>
       <use xlink:href="#m9c486e2aef" x="56.629375" y="113.38" style="fill: #333333; stroke: #333333; stroke-width: 0.8"/>
      </g>
     </g>
     <g id="text_7">
      <!-- 2025 年中 -->
      <g style="fill: #333333" transform="translate(7.2 117.2275) scale(0.095 -0.095)">
       <defs>
        <path id="STHeitiTC-Medium-4e2d" d="M 3443 1453 
L 3443 518 
Q 3443 410 3446 266 
Q 3450 122 3459 -35 
Q 3469 -192 3481 -345 
Q 3494 -499 3507 -634 
L 2822 -634 
Q 2835 -518 2844 -364 
Q 2854 -211 2864 -51 
Q 2874 109 2880 259 
Q 2886 410 2886 518 
L 2886 1453 
L 1402 1453 
L 1402 998 
L 813 998 
Q 832 1203 845 1475 
Q 858 1747 858 1952 
L 858 3334 
Q 858 3501 845 3686 
Q 832 3872 813 3994 
Q 1050 3962 1565 3946 
Q 2080 3930 2886 3923 
L 2886 4224 
Q 2886 4448 2883 4605 
Q 2880 4762 2870 4874 
Q 2861 4986 2851 5056 
Q 2842 5126 2822 5178 
Q 3002 5158 3165 5148 
Q 3328 5139 3501 5139 
Q 3578 5139 3587 5116 
Q 3597 5094 3520 5024 
Q 3443 4954 3443 4672 
L 3443 3923 
Q 4288 3930 4816 3946 
Q 5344 3962 5581 3994 
Q 5574 3930 5568 3830 
Q 5562 3731 5558 3622 
Q 5555 3514 5552 3402 
Q 5549 3290 5549 3206 
L 5549 1978 
Q 5549 1786 5558 1526 
Q 5568 1267 5581 1062 
L 4973 1062 
L 4973 1453 
L 3443 1453 
z
M 4973 1933 
L 4973 3443 
L 3443 3443 
L 3443 1933 
L 4973 1933 
z
M 2886 1933 
L 2886 3443 
L 1402 3443 
L 1402 1933 
L 2886 1933 
z
" transform="scale(0.015625)"/>
       </defs>
       <use xlink:href="#STHeitiTC-Medium-32"/>
       <use xlink:href="#STHeitiTC-Medium-30" x="55.399994"/>
       <use xlink:href="#STHeitiTC-Medium-32" x="110.799988"/>
       <use xlink:href="#STHeitiTC-Medium-35" x="166.199982"/>
       <use xlink:href="#STHeitiTC-Medium-20" x="221.599976"/>
       <use xlink:href="#STHeitiTC-Medium-5e74" x="246.59996"/>
       <use xlink:href="#STHeitiTC-Medium-4e2d" x="346.599945"/>
      </g>
     </g>
    </g>
    <g id="ytick_3">
     <g id="line2d_13">
      <g>
       <use xlink:href="#m9c486e2aef" x="56.629375" y="37.672335" style="fill: #333333; stroke: #333333; stroke-width: 0.8"/>
      </g>
     </g>
     <g id="text_8">
      <!-- 2026 年 -->
      <g style="fill: #333333" transform="translate(16.7 41.519835) scale(0.095 -0.095)">
       <use xlink:href="#STHeitiTC-Medium-32"/>
       <use xlink:href="#STHeitiTC-Medium-30" x="55.399994"/>
       <use xlink:href="#STHeitiTC-Medium-32" x="110.799988"/>
       <use xlink:href="#STHeitiTC-Medium-36" x="166.199982"/>
       <use xlink:href="#STHeitiTC-Medium-20" x="221.599976"/>
       <use xlink:href="#STHeitiTC-Medium-5e74" x="246.59996"/>
      </g>
     </g>
    </g>
   </g>
   <g id="line2d_14">
    <path d="M 56.629375 219.56 
L 56.629375 7.2 
" clip-path="url(#pf969959fd8)" style="fill: none; stroke: #cccccc; stroke-width: 0.8; stroke-linecap: square"/>
   </g>
   <g id="patch_3">
    <path d="M 56.629375 219.56 
L 631.059375 219.56 
" style="fill: none; stroke: #000000; stroke-width: 0.8; stroke-linejoin: miter; stroke-linecap: square"/>
   </g>
   <g id="patch_4">
    <path d="M 56.629375 209.907273 
L 299.774349 209.907273 
L 299.774349 168.268057 
L 56.629375 168.268057 
z
" clip-path="url(#pf969959fd8)" style="fill: #1a56db"/>
   </g>
   <g id="patch_5">
    <path d="M 56.629375 134.199608 
L 542.919322 134.199608 
L 542.919322 92.560392 
L 56.629375 92.560392 
z
" clip-path="url(#pf969959fd8)" style="fill: #1a56db"/>
   </g>
   <g id="patch_6">
    <path d="M 56.629375 58.491943 
L 603.705565 58.491943 
L 603.705565 16.852727 
L 56.629375 16.852727 
z
" clip-path="url(#pf969959fd8)" style="fill: #1a56db"/>
   </g>
   <g id="text_9">
    <!-- 4 -->
    <g style="fill: #333333" transform="translate(305.852973 192.303563) scale(0.095 -0.095)">
     <use xlink:href="#STHeitiTC-Medium-34"/>
    </g>
   </g>
   <g id="text_10">
    <!-- 8 -->
    <g style="fill: #333333" transform="translate(548.997946 116.595898) scale(0.095 -0.095)">
     <use xlink:href="#STHeitiTC-Medium-38"/>
    </g>
   </g>
   <g id="text_11">
    <!-- 9 -->
    <g style="fill: #333333" transform="translate(609.78419 40.888234) scale(0.095 -0.095)">
     <defs>
      <path id="STHeitiTC-Medium-39" d="M 1984 2355 
Q 1798 2310 1613 2310 
Q 1043 2310 656 2716 
Q 269 3123 269 3737 
Q 269 4352 697 4768 
Q 1126 5184 1747 5184 
Q 2368 5184 2777 4758 
Q 3187 4333 3187 3738 
Q 3187 3411 3052 3081 
Q 2918 2752 2662 2368 
L 1248 250 
L 787 544 
L 1984 2355 
z
M 1728 2803 
Q 2112 2803 2381 3075 
Q 2650 3347 2650 3724 
Q 2650 4102 2381 4374 
Q 2112 4646 1728 4646 
Q 1344 4646 1075 4377 
Q 806 4109 806 3725 
Q 806 3341 1075 3072 
Q 1344 2803 1728 2803 
z
" transform="scale(0.015625)"/>
     </defs>
     <use xlink:href="#STHeitiTC-Medium-39"/>
    </g>
   </g>
  </g>
 </g>
 <defs>
  <clipPath id="pf969959fd8">
   <rect x="56.629375" y="7.2" width="574.43" height="212.36"/>
  </clipPath>
 </defs>
</svg>
