<?xml version="1.0" encoding="utf-8" standalone="no"?>
<!DOCTYPE svg PUBLIC "-//W3C//DTD SVG 1.1//EN"
  "http://www.w3.org/Graphics/SVG/1.1/DTD/svg11.dtd">
<svg xmlns:xlink="http://www.w3.org/1999/xlink" width="637.461719pt" height="271.2pt" viewBox="0 0 637.461719 271.2" xmlns="http://www.w3.org/2000/svg" version="1.1">
 <metadata>
  <rdf:RDF xmlns:dc="http://purl.org/dc/elements/1.1/" xmlns:cc="http://creativecommons.org/ns#" xmlns:rdf="http://www.w3.org/1999/02/22-rdf-syntax-ns#">
   <cc:Work>
    <dc:type rdf:resource="http://purl.org/dc/dcmitype/StillImage"/>
    <dc:date>2026-06-16T23:53:43.292673</dc:date>
    <dc:format>image/svg+xml</dc:format>
    <dc:creator>
     <cc:Agent>
      <dc:title>Matplotlib v3.11.0, https://matplotlib.org/</dc:title>
     </cc:Agent>
    </dc:creator>
   </cc:Work>
  </rdf:RDF>
 </metadata>
 <defs>
  <style type="text/css">*{stroke-linejoin: round; stroke-linecap: butt}</style>
 </defs>
 <g id="figure_1">
  <g id="patch_1">
   <path d="M 0 271.2 
L 637.461719 271.2 
L 637.461719 0 
L 0 0 
z
" style="fill: #ffffff"/>
  </g>
  <g id="axes_1">
   <g id="patch_2">
    <path d="M 96.781719 247.5 
L 630.261719 247.5 
L 630.261719 7.2 
L 96.781719 7.2 
z
" style="fill: #fafafa"/>
   </g>
   <g id="matplotlib.axis_1">
    <g id="xtick_1">
     <g id="line2d_1">
      <path d="M 96.781719 247.5 
L 96.781719 7.2 
" clip-path="url(#pa8db0d130f)" style="fill: none; stroke-dasharray: 2.96,1.28; stroke-dashoffset: 0; stroke: #b0b0b0; stroke-opacity: 0.35; stroke-width: 0.8"/>
     </g>
     <g id="line2d_2">
      <defs>
       <path id="m4c27322a09" d="M 0 0 
L 0 3.5 
" style="stroke: #333333; stroke-width: 0.8"/>
      </defs>
      <g>
       <use xlink:href="#m4c27322a09" x="96.781719" y="247.5" style="fill: #333333; stroke: #333333; stroke-width: 0.8"/>
      </g>
     </g>
     <g id="text_1">
      <!-- 0 -->
      <g style="fill: #333333" transform="translate(93.933203 262.098145) scale(0.095 -0.095)">
       <defs>
        <path id="WenQuanYiZenHei-31" d="M 3581 2175 
Q 3581 1288 3169 638 
Q 2713 -63 1938 -63 
Q 1025 -63 563 831 
Q 256 1425 256 2188 
Q 256 3188 700 3819 
Q 1138 4456 1888 4456 
Q 2863 4456 3306 3500 
Q 3581 2925 3581 2175 
z
M 3019 2100 
Q 3019 3356 2500 3806 
L 2350 3919 
Q 2144 4031 1888 4031 
Q 1100 4031 888 2956 
Q 819 2625 819 2225 
Q 819 1013 1338 569 
Q 1588 356 1938 356 
Q 2675 356 2925 1294 
Q 3019 1663 3019 2100 
z
" transform="scale(0.015625)"/>
       </defs>
       <use xlink:href="#WenQuanYiZenHei-31"/>
      </g>
     </g>
    </g>
    <g id="xtick_2">
     <g id="line2d_3">
      <path d="M 181.461084 247.5 
L 181.461084 7.2 
" clip-path="url(#pa8db0d130f)" style="fill: none; stroke-dasharray: 2.96,1.28; stroke-dashoffset: 0; stroke: #b0b0b0; stroke-opacity: 0.35; stroke-width: 0.8"/>
     </g>
     <g id="line2d_4">
      <g>
       <use xlink:href="#m4c27322a09" x="181.461084" y="247.5" style="fill: #333333; stroke: #333333; stroke-width: 0.8"/>
      </g>
     </g>
     <g id="text_2">
      <!-- 10 -->
      <g style="fill: #333333" transform="translate(175.764053 262.098145) scale(0.095 -0.095)">
       <defs>
        <path id="WenQuanYiZenHei-32" d="M 3556 0 
L 488 0 
L 488 406 
L 1800 406 
L 1800 3725 
Q 1231 3125 588 2788 
L 588 3338 
Q 1456 3781 1931 4388 
L 2331 4388 
L 2331 406 
L 3556 406 
L 3556 0 
z
" transform="scale(0.015625)"/>
       </defs>
       <use xlink:href="#WenQuanYiZenHei-32"/>
       <use xlink:href="#WenQuanYiZenHei-31" transform="translate(59.96875 0)"/>
      </g>
     </g>
    </g>
    <g id="xtick_3">
     <g id="line2d_5">
      <path d="M 266.140449 247.5 
L 266.140449 7.2 
" clip-path="url(#pa8db0d130f)" style="fill: none; stroke-dasharray: 2.96,1.28; stroke-dashoffset: 0; stroke: #b0b0b0; stroke-opacity: 0.35; stroke-width: 0.8"/>
     </g>
     <g id="line2d_6">
      <g>
       <use xlink:href="#m4c27322a09" x="266.140449" y="247.5" style="fill: #333333; stroke: #333333; stroke-width: 0.8"/>
      </g>
     </g>
     <g id="text_3">
      <!-- 20 -->
      <g style="fill: #333333" transform="translate(260.443418 262.098145) scale(0.095 -0.095)">
       <defs>
        <path id="WenQuanYiZenHei-33" d="M 3488 0 
L 369 0 
L 369 456 
L 2150 1850 
Q 2931 2463 2931 3144 
Q 2931 3619 2488 3863 
Q 2231 4013 1931 4013 
Q 1425 4013 1113 3619 
Q 894 3356 881 3013 
L 369 3169 
Q 531 3981 1213 4300 
Q 1544 4456 1950 4456 
Q 2631 4456 3088 4044 
L 3225 3888 
L 3350 3706 
Q 3481 3444 3481 3144 
Q 3481 2313 2519 1569 
L 1069 456 
L 3488 456 
L 3488 0 
z
" transform="scale(0.015625)"/>
       </defs>
       <use xlink:href="#WenQuanYiZenHei-33"/>
       <use xlink:href="#WenQuanYiZenHei-31" transform="translate(59.96875 0)"/>
      </g>
     </g>
    </g>
    <g id="xtick_4">
     <g id="line2d_7">
      <path d="M 350.819814 247.5 
L 350.819814 7.2 
" clip-path="url(#pa8db0d130f)" style="fill: none; stroke-dasharray: 2.96,1.28; stroke-dashoffset: 0; stroke: #b0b0b0; stroke-opacity: 0.35; stroke-width: 0.8"/>
     </g>
     <g id="line2d_8">
      <g>
       <use xlink:href="#m4c27322a09" x="350.819814" y="247.5" style="fill: #333333; stroke: #333333; stroke-width: 0.8"/>
      </g>
     </g>
     <g id="text_4">
      <!-- 30 -->
      <g style="fill: #333333" transform="translate(345.122783 262.098145) scale(0.095 -0.095)">
       <defs>
        <path id="WenQuanYiZenHei-34" d="M 3588 1231 
Q 3588 494 2875 144 
Q 2450 -63 1925 -63 
Q 1044 -63 556 488 
Q 356 706 256 1000 
L 769 1169 
Q 994 375 1913 375 
Q 2631 375 2900 788 
Q 3019 975 3019 1231 
Q 3019 1638 2638 1881 
Q 2325 2081 1613 2069 
L 1338 2069 
L 1338 2494 
Q 1969 2494 2094 2506 
Q 2325 2544 2463 2613 
Q 2763 2756 2844 3100 
Q 2863 3169 2863 3244 
Q 2863 3744 2381 3944 
L 2163 4006 
Q 2056 4025 1931 4025 
Q 1388 4025 1075 3631 
Q 969 3488 906 3313 
L 419 3456 
Q 675 4150 1400 4369 
Q 1669 4456 1975 4456 
Q 2694 4456 3106 4050 
Q 3419 3744 3419 3275 
Q 3419 2813 3025 2513 
Q 2825 2356 2575 2319 
L 2575 2306 
Q 3181 2213 3450 1769 
Q 3588 1525 3588 1231 
z
" transform="scale(0.015625)"/>
       </defs>
       <use xlink:href="#WenQuanYiZenHei-34"/>
       <use xlink:href="#WenQuanYiZenHei-31" transform="translate(59.96875 0)"/>
      </g>
     </g>
    </g>
    <g id="xtick_5">
     <g id="line2d_9">
      <path d="M 435.499179 247.5 
L 435.499179 7.2 
" clip-path="url(#pa8db0d130f)" style="fill: none; stroke-dasharray: 2.96,1.28; stroke-dashoffset: 0; stroke: #b0b0b0; stroke-opacity: 0.35; stroke-width: 0.8"/>
     </g>
     <g id="line2d_10">
      <g>
       <use xlink:href="#m4c27322a09" x="435.499179" y="247.5" style="fill: #333333; stroke: #333333; stroke-width: 0.8"/>
      </g>
     </g>
     <g id="text_5">
      <!-- 40 -->
      <g style="fill: #333333" transform="translate(429.802148 262.098145) scale(0.095 -0.095)">
       <defs>
        <path id="WenQuanYiZenHei-35" d="M 3631 1025 
L 2913 1025 
L 2913 0 
L 2381 0 
L 2381 1025 
L 219 1025 
L 219 1388 
L 2225 4388 
L 2913 4388 
L 2913 1444 
L 3631 1444 
L 3631 1025 
z
M 2381 1444 
L 2381 3963 
L 788 1444 
L 2381 1444 
z
" transform="scale(0.015625)"/>
       </defs>
       <use xlink:href="#WenQuanYiZenHei-35"/>
       <use xlink:href="#WenQuanYiZenHei-31" transform="translate(59.96875 0)"/>
      </g>
     </g>
    </g>
    <g id="xtick_6">
     <g id="line2d_11">
      <path d="M 520.178544 247.5 
L 520.178544 7.2 
" clip-path="url(#pa8db0d130f)" style="fill: none; stroke-dasharray: 2.96,1.28; stroke-dashoffset: 0; stroke: #b0b0b0; stroke-opacity: 0.35; stroke-width: 0.8"/>
     </g>
     <g id="line2d_12">
      <g>
       <use xlink:href="#m4c27322a09" x="520.178544" y="247.5" style="fill: #333333; stroke: #333333; stroke-width: 0.8"/>
      </g>
     </g>
     <g id="text_6">
      <!-- 50 -->
      <g style="fill: #333333" transform="translate(514.481513 262.098145) scale(0.095 -0.095)">
       <defs>
        <path id="WenQuanYiZenHei-36" d="M 3531 1488 
Q 3531 688 2913 250 
Q 2456 -63 1844 -63 
Q 1175 -63 706 350 
Q 413 613 306 975 
L 781 1131 
Q 1000 538 1569 406 
Q 1706 369 1856 369 
Q 2550 369 2850 869 
Q 3000 1131 3000 1494 
Q 3000 2056 2581 2356 
Q 2319 2538 1969 2538 
Q 1400 2538 1031 2075 
Q 981 2013 938 1938 
L 500 2031 
L 644 4388 
L 3244 4388 
L 3200 3919 
L 1044 3919 
L 950 2500 
Q 1431 2975 2006 2975 
Q 2713 2975 3163 2475 
Q 3531 2063 3531 1488 
z
" transform="scale(0.015625)"/>
       </defs>
       <use xlink:href="#WenQuanYiZenHei-36"/>
       <use xlink:href="#WenQuanYiZenHei-31" transform="translate(59.96875 0)"/>
      </g>
     </g>
    </g>
    <g id="xtick_7">
     <g id="line2d_13">
      <path d="M 604.857909 247.5 
L 604.857909 7.2 
" clip-path="url(#pa8db0d130f)" style="fill: none; stroke-dasharray: 2.96,1.28; stroke-dashoffset: 0; stroke: #b0b0b0; stroke-opacity: 0.35; stroke-width: 0.8"/>
     </g>
     <g id="line2d_14">
      <g>
       <use xlink:href="#m4c27322a09" x="604.857909" y="247.5" style="fill: #333333; stroke: #333333; stroke-width: 0.8"/>
      </g>
     </g>
     <g id="text_7">
      <!-- 60 -->
      <g style="fill: #333333" transform="translate(599.160878 262.098145) scale(0.095 -0.095)">
       <defs>
        <path id="WenQuanYiZenHei-37" d="M 3550 1431 
Q 3550 725 3006 288 
Q 2581 -63 1994 -63 
Q 1013 -63 563 825 
Q 288 1363 288 2081 
Q 288 3294 856 3938 
Q 1319 4456 2075 4456 
Q 2969 4456 3363 3756 
Q 3431 3631 3481 3481 
L 2988 3350 
Q 2750 3994 2075 4006 
Q 1056 4006 844 2669 
Q 794 2356 794 1981 
L 806 1981 
Q 1006 2506 1544 2744 
Q 1819 2869 2119 2869 
Q 2788 2869 3213 2375 
Q 3550 1975 3550 1431 
z
M 3038 1406 
Q 3038 1906 2656 2213 
Q 2381 2431 2038 2431 
Q 1525 2431 1181 2044 
Q 919 1744 919 1356 
Q 919 881 1344 581 
Q 1631 375 1981 375 
Q 2519 375 2838 781 
Q 3038 1050 3038 1406 
z
" transform="scale(0.015625)"/>
       </defs>
       <use xlink:href="#WenQuanYiZenHei-37"/>
       <use xlink:href="#WenQuanYiZenHei-31" transform="translate(59.96875 0)"/>
      </g>
     </g>
    </g>
   </g>
   <g id="matplotlib.axis_2">
    <g id="ytick_1">
     <g id="line2d_15">
      <defs>
       <path id="m5660481209" d="M 0 0 
L -3.5 0 
" style="stroke: #333333; stroke-width: 0.8"/>
      </defs>
      <g>
       <use xlink:href="#m5660481209" x="96.781719" y="225.752948" style="fill: #333333; stroke: #333333; stroke-width: 0.8"/>
      </g>
     </g>
     <g id="text_8">
      <!-- GPT-5.5 + Codex -->
      <g style="fill: #333333" transform="translate(19.547031 229.552021) scale(0.095 -0.095)">
       <defs>
        <path id="WenQuanYiZenHei-48" d="M 3838 -31 
L 3500 -31 
L 3356 513 
Q 2981 -31 2219 -63 
Q 2175 -63 2138 -63 
Q 1150 -63 650 781 
Q 306 1363 306 2150 
Q 306 3163 831 3813 
Q 1350 4456 2206 4456 
Q 3181 4456 3619 3656 
Q 3731 3450 3794 3194 
L 3275 3063 
Q 3163 3650 2675 3888 
Q 2444 3994 2169 3994 
Q 1319 3994 1025 3050 
Q 900 2663 900 2175 
Q 900 1263 1325 769 
Q 1650 381 2175 381 
Q 2831 381 3125 881 
Q 3275 1150 3275 1513 
L 3275 1756 
L 2181 1756 
L 2181 2213 
L 3838 2213 
L 3838 -31 
z
" transform="scale(0.015625)"/>
        <path id="WenQuanYiZenHei-51" d="M 3388 3075 
Q 3388 2550 3031 2175 
L 3000 2144 
Q 2638 1788 1944 1788 
L 963 1788 
L 963 0 
L 413 0 
L 413 4388 
L 1881 4388 
Q 2588 4388 2938 4094 
Q 3313 3781 3381 3219 
Q 3388 3144 3388 3075 
z
M 2831 3075 
Q 2831 3688 2313 3875 
Q 2138 3931 1925 3931 
L 963 3931 
L 963 2238 
L 1888 2238 
Q 2575 2238 2763 2719 
Q 2831 2875 2831 3075 
z
" transform="scale(0.015625)"/>
        <path id="WenQuanYiZenHei-55" d="M 3119 3913 
L 1869 3913 
L 1869 0 
L 1319 0 
L 1319 3913 
L 69 3913 
L 69 4388 
L 3119 4388 
L 3119 3913 
z
" transform="scale(0.015625)"/>
        <path id="WenQuanYiZenHei-2e" d="M 1363 1444 
L 0 1444 
L 0 1844 
L 1363 1844 
L 1363 1444 
z
" transform="scale(0.015625)"/>
        <path id="WenQuanYiZenHei-2f" d="M 1344 0 
L 631 0 
L 631 725 
L 1344 725 
L 1344 0 
z
" transform="scale(0.015625)"/>
        <path id="WenQuanYiZenHei-21" transform="scale(0.015625)"/>
        <path id="WenQuanYiZenHei-2c" d="M 3569 1638 
L 2125 1638 
L 2125 194 
L 1706 194 
L 1706 1638 
L 263 1638 
L 263 2056 
L 1706 2056 
L 1706 3500 
L 2125 3500 
L 2125 2056 
L 3569 2056 
L 3569 1638 
z
" transform="scale(0.015625)"/>
        <path id="WenQuanYiZenHei-44" d="M 3681 1369 
Q 3388 163 2413 -31 
Q 2238 -63 2056 -63 
Q 1075 -63 588 844 
Q 269 1444 269 2238 
Q 269 3294 819 3913 
Q 1306 4456 2100 4456 
Q 3031 4456 3469 3638 
Q 3613 3375 3681 3050 
L 3163 2956 
Q 2906 3894 2244 3981 
Q 2163 3994 2081 3994 
Q 1281 3994 994 3075 
Q 869 2675 869 2194 
Q 869 1350 1231 838 
Q 1544 394 2056 394 
Q 2888 394 3163 1406 
Q 3175 1444 3181 1481 
L 3681 1369 
z
" transform="scale(0.015625)"/>
        <path id="WenQuanYiZenHei-70" d="M 3175 1644 
Q 3175 813 2681 331 
Q 2281 -63 1663 -63 
Q 856 -63 481 656 
Q 256 1088 256 1650 
Q 256 2494 763 2969 
Q 1150 3338 1750 3338 
Q 2525 3338 2919 2656 
Q 3175 2219 3175 1644 
z
M 2619 1650 
Q 2619 2481 2181 2788 
Q 1981 2925 1706 2925 
Q 1069 2925 875 2188 
Q 813 1938 813 1650 
Q 813 750 1288 463 
Q 1463 350 1706 350 
Q 2400 350 2575 1169 
Q 2619 1394 2619 1650 
z
" transform="scale(0.015625)"/>
        <path id="WenQuanYiZenHei-65" d="M 3025 0 
L 2575 0 
L 2575 575 
L 2563 575 
Q 2244 -63 1544 -63 
Q 806 -63 456 663 
Q 244 1094 244 1625 
Q 244 2425 663 2919 
Q 1025 3338 1588 3338 
Q 2156 3338 2525 2813 
L 2525 4388 
L 3025 4388 
L 3025 0 
z
M 2525 1406 
L 2525 1925 
Q 2525 2550 2119 2813 
Q 1913 2938 1631 2938 
Q 1075 2938 869 2275 
Q 781 1994 781 1681 
Q 781 775 1213 475 
Q 1381 350 1619 350 
Q 2119 350 2381 819 
Q 2525 1088 2525 1406 
z
" transform="scale(0.015625)"/>
        <path id="WenQuanYiZenHei-66" d="M 3163 1588 
L 800 1588 
Q 794 963 1088 631 
Q 1331 356 1769 356 
Q 2313 356 2569 831 
Q 2606 900 2638 988 
L 3113 888 
Q 2931 325 2363 69 
Q 2063 -63 1725 -63 
Q 888 -63 488 625 
Q 238 1050 238 1625 
Q 238 2431 725 2925 
Q 1125 3338 1744 3338 
Q 2588 3338 2956 2606 
Q 3163 2200 3163 1663 
L 3163 1588 
z
M 2613 1956 
Q 2619 2488 2288 2763 
Q 2063 2950 1744 2950 
Q 1250 2950 988 2500 
Q 838 2256 825 1956 
L 2613 1956 
z
" transform="scale(0.015625)"/>
        <path id="WenQuanYiZenHei-79" d="M 2806 0 
L 2213 0 
L 1394 1319 
L 544 0 
L 50 0 
L 1144 1681 
L 163 3250 
L 744 3250 
L 1431 2138 
L 2144 3250 
L 2631 3250 
L 1681 1794 
L 2806 0 
z
" transform="scale(0.015625)"/>
       </defs>
       <use xlink:href="#WenQuanYiZenHei-48"/>
       <use xlink:href="#WenQuanYiZenHei-51" transform="translate(65.921875 0)"/>
       <use xlink:href="#WenQuanYiZenHei-55" transform="translate(121.875 0)"/>
       <use xlink:href="#WenQuanYiZenHei-2e" transform="translate(171.875 0)"/>
       <use xlink:href="#WenQuanYiZenHei-36" transform="translate(201.859375 0)"/>
       <use xlink:href="#WenQuanYiZenHei-2f" transform="translate(261.828125 0)"/>
       <use xlink:href="#WenQuanYiZenHei-36" transform="translate(291.8125 0)"/>
       <use xlink:href="#WenQuanYiZenHei-21" transform="translate(351.78125 0)"/>
       <use xlink:href="#WenQuanYiZenHei-2c" transform="translate(381.765625 0)"/>
       <use xlink:href="#WenQuanYiZenHei-21" transform="translate(441.734375 0)"/>
       <use xlink:href="#WenQuanYiZenHei-44" transform="translate(471.71875 0)"/>
       <use xlink:href="#WenQuanYiZenHei-70" transform="translate(533.640625 0)"/>
       <use xlink:href="#WenQuanYiZenHei-65" transform="translate(587.546875 0)"/>
       <use xlink:href="#WenQuanYiZenHei-66" transform="translate(641.453125 0)"/>
       <use xlink:href="#WenQuanYiZenHei-79" transform="translate(695.359375 0)"/>
      </g>
     </g>
    </g>
    <g id="ytick_2">
     <g id="line2d_16">
      <g>
       <use xlink:href="#m5660481209" x="96.781719" y="186.391769" style="fill: #333333; stroke: #333333; stroke-width: 0.8"/>
      </g>
     </g>
     <g id="text_9">
      <!-- GPT-5.5 + ALE-Claw -->
      <g style="fill: #333333" transform="translate(7.2 190.190841) scale(0.095 -0.095)">
       <defs>
        <path id="WenQuanYiZenHei-42" d="M 3550 0 
L 2988 0 
L 2550 1281 
L 919 1281 
L 531 0 
L 69 0 
L 1494 4388 
L 2125 4388 
L 3550 0 
z
M 2425 1694 
L 1756 3800 
L 1075 1694 
L 2425 1694 
z
" transform="scale(0.015625)"/>
        <path id="WenQuanYiZenHei-4d" d="M 3131 0 
L 538 0 
L 538 4388 
L 1088 4388 
L 1088 488 
L 3131 488 
L 3131 0 
z
" transform="scale(0.015625)"/>
        <path id="WenQuanYiZenHei-46" d="M 3388 0 
L 544 0 
L 544 4388 
L 3319 4388 
L 3319 3919 
L 1094 3919 
L 1094 2519 
L 2863 2519 
L 2863 2081 
L 1094 2081 
L 1094 475 
L 3388 475 
L 3388 0 
z
" transform="scale(0.015625)"/>
        <path id="WenQuanYiZenHei-6d" d="M 1019 0 
L 519 0 
L 519 4388 
L 1019 4388 
L 1019 0 
z
" transform="scale(0.015625)"/>
        <path id="WenQuanYiZenHei-62" d="M 3181 0 
L 2681 0 
L 2625 606 
Q 2294 -63 1488 -63 
Q 856 -63 544 331 
Q 350 575 350 919 
Q 350 1400 763 1706 
Q 850 1781 956 1825 
Q 1375 2025 2344 2019 
L 2625 2019 
L 2625 2156 
Q 2625 2756 2200 2894 
L 1975 2938 
Q 1894 2944 1800 2944 
Q 1025 2944 906 2369 
L 444 2444 
Q 525 3075 1281 3263 
Q 1544 3338 1844 3338 
Q 2675 3338 2931 2894 
Q 3113 2594 3113 1944 
L 3113 688 
Q 3113 244 3181 0 
z
M 2625 1425 
L 2625 1638 
L 2206 1638 
Q 888 1638 888 894 
Q 888 488 1319 363 
Q 1444 325 1594 325 
Q 2125 325 2425 769 
Q 2625 1063 2625 1425 
z
" transform="scale(0.015625)"/>
        <path id="WenQuanYiZenHei-78" d="M 4150 3250 
L 3213 0 
L 2806 0 
L 2081 2413 
L 1413 0 
L 1000 0 
L 25 3250 
L 531 3250 
L 1238 825 
L 1913 3250 
L 2281 3250 
L 3006 819 
L 3738 3250 
L 4150 3250 
z
" transform="scale(0.015625)"/>
       </defs>
       <use xlink:href="#WenQuanYiZenHei-48"/>
       <use xlink:href="#WenQuanYiZenHei-51" transform="translate(65.921875 0)"/>
       <use xlink:href="#WenQuanYiZenHei-55" transform="translate(121.875 0)"/>
       <use xlink:href="#WenQuanYiZenHei-2e" transform="translate(171.875 0)"/>
       <use xlink:href="#WenQuanYiZenHei-36" transform="translate(201.859375 0)"/>
       <use xlink:href="#WenQuanYiZenHei-2f" transform="translate(261.828125 0)"/>
       <use xlink:href="#WenQuanYiZenHei-36" transform="translate(291.8125 0)"/>
       <use xlink:href="#WenQuanYiZenHei-21" transform="translate(351.78125 0)"/>
       <use xlink:href="#WenQuanYiZenHei-2c" transform="translate(381.765625 0)"/>
       <use xlink:href="#WenQuanYiZenHei-21" transform="translate(441.734375 0)"/>
       <use xlink:href="#WenQuanYiZenHei-42" transform="translate(471.71875 0)"/>
       <use xlink:href="#WenQuanYiZenHei-4d" transform="translate(527.671875 0)"/>
       <use xlink:href="#WenQuanYiZenHei-46" transform="translate(577.671875 0)"/>
       <use xlink:href="#WenQuanYiZenHei-2e" transform="translate(633.625 0)"/>
       <use xlink:href="#WenQuanYiZenHei-44" transform="translate(663.609375 0)"/>
       <use xlink:href="#WenQuanYiZenHei-6d" transform="translate(725.53125 0)"/>
       <use xlink:href="#WenQuanYiZenHei-62" transform="translate(749.453125 0)"/>
       <use xlink:href="#WenQuanYiZenHei-78" transform="translate(803.359375 0)"/>
      </g>
     </g>
    </g>
    <g id="ytick_3">
     <g id="line2d_17">
      <g>
       <use xlink:href="#m5660481209" x="96.781719" y="147.03059" style="fill: #333333; stroke: #333333; stroke-width: 0.8"/>
      </g>
     </g>
     <g id="text_10">
      <!-- Claude Fable 5 -->
      <g style="fill: #333333" transform="translate(27.556719 150.829662) scale(0.095 -0.095)">
       <defs>
        <path id="WenQuanYiZenHei-76" d="M 2994 0 
L 2544 0 
L 2544 644 
L 2525 644 
Q 2356 219 1938 25 
Q 1744 -63 1531 -63 
Q 581 -63 463 975 
Q 444 1113 444 1275 
L 444 3250 
L 944 3250 
L 944 1275 
Q 944 425 1513 369 
Q 1513 369 1575 369 
Q 2131 369 2375 925 
Q 2494 1194 2494 1525 
L 2494 3250 
L 2994 3250 
L 2994 0 
z
" transform="scale(0.015625)"/>
        <path id="WenQuanYiZenHei-47" d="M 3213 3919 
L 1075 3919 
L 1075 2519 
L 2850 2519 
L 2850 2081 
L 1075 2081 
L 1075 0 
L 525 0 
L 525 4388 
L 3213 4388 
L 3213 3919 
z
" transform="scale(0.015625)"/>
        <path id="WenQuanYiZenHei-63" d="M 3181 1669 
Q 3181 850 2756 356 
Q 2400 -63 1825 -63 
Q 1306 -63 956 363 
Q 881 456 825 556 
L 638 0 
L 394 0 
L 394 4388 
L 894 4388 
L 894 2713 
L 919 2713 
Q 1250 3338 1875 3338 
Q 2625 3338 2975 2619 
Q 3181 2194 3181 1669 
z
M 2644 1588 
Q 2644 2388 2281 2738 
L 2150 2838 
Q 1988 2931 1788 2931 
Q 1363 2931 1081 2525 
Q 894 2250 894 1938 
L 894 1363 
Q 894 831 1244 538 
Q 1463 338 1788 338 
Q 2375 338 2575 1031 
Q 2644 1288 2644 1588 
z
" transform="scale(0.015625)"/>
       </defs>
       <use xlink:href="#WenQuanYiZenHei-44"/>
       <use xlink:href="#WenQuanYiZenHei-6d" transform="translate(61.921875 0)"/>
       <use xlink:href="#WenQuanYiZenHei-62" transform="translate(85.84375 0)"/>
       <use xlink:href="#WenQuanYiZenHei-76" transform="translate(139.75 0)"/>
       <use xlink:href="#WenQuanYiZenHei-65" transform="translate(193.65625 0)"/>
       <use xlink:href="#WenQuanYiZenHei-66" transform="translate(247.5625 0)"/>
       <use xlink:href="#WenQuanYiZenHei-21" transform="translate(301.46875 0)"/>
       <use xlink:href="#WenQuanYiZenHei-47" transform="translate(331.453125 0)"/>
       <use xlink:href="#WenQuanYiZenHei-62" transform="translate(379.40625 0)"/>
       <use xlink:href="#WenQuanYiZenHei-63" transform="translate(433.3125 0)"/>
       <use xlink:href="#WenQuanYiZenHei-6d" transform="translate(487.21875 0)"/>
       <use xlink:href="#WenQuanYiZenHei-66" transform="translate(511.140625 0)"/>
       <use xlink:href="#WenQuanYiZenHei-21" transform="translate(565.046875 0)"/>
       <use xlink:href="#WenQuanYiZenHei-36" transform="translate(595.03125 0)"/>
      </g>
     </g>
    </g>
    <g id="ytick_4">
     <g id="line2d_18">
      <g>
       <use xlink:href="#m5660481209" x="96.781719" y="107.66941" style="fill: #333333; stroke: #333333; stroke-width: 0.8"/>
      </g>
     </g>
     <g id="text_11">
      <!-- Claude Opus 4.7 -->
      <g style="fill: #333333" transform="translate(19.762266 111.468483) scale(0.095 -0.095)">
       <defs>
        <path id="WenQuanYiZenHei-50" d="M 3894 2244 
Q 3894 1300 3425 638 
Q 2931 -63 2094 -63 
Q 1106 -63 613 800 
Q 281 1375 281 2163 
Q 281 3163 775 3806 
Q 1263 4456 2088 4456 
Q 3038 4456 3538 3625 
Q 3894 3031 3894 2244 
z
M 3313 2213 
Q 3313 3100 2925 3594 
Q 2619 4000 2106 4000 
Q 1294 4000 994 3075 
Q 856 2663 856 2156 
Q 856 1338 1231 831 
Q 1556 381 2094 381 
Q 2863 381 3169 1269 
Q 3313 1694 3313 2213 
z
" transform="scale(0.015625)"/>
        <path id="WenQuanYiZenHei-71" d="M 3256 1650 
Q 3256 838 2856 350 
Q 2513 -63 1969 -63 
Q 1344 -63 1000 513 
L 1000 -1063 
L 500 -1063 
L 500 3250 
L 956 3250 
L 956 2625 
L 969 2625 
Q 1169 3163 1688 3294 
Q 1825 3338 1969 3338 
Q 2713 3338 3056 2600 
Q 3256 2175 3256 1650 
z
M 2694 1631 
Q 2694 2419 2319 2731 
L 2181 2825 
Q 2038 2894 1856 2894 
Q 1419 2894 1150 2463 
Q 1106 2400 1075 2325 
Q 1000 2169 1000 2100 
L 1000 1275 
Q 1000 875 1319 581 
Q 1563 356 1856 356 
Q 2525 356 2669 1238 
Q 2694 1419 2694 1631 
z
" transform="scale(0.015625)"/>
        <path id="WenQuanYiZenHei-74" d="M 3031 944 
Q 3031 294 2350 44 
Q 2050 -63 1681 -63 
Q 863 -63 475 425 
Q 319 613 256 863 
L 744 963 
Q 806 544 1344 406 
Q 1531 350 1719 350 
Q 2250 350 2438 631 
Q 2506 744 2506 888 
Q 2506 1206 2081 1331 
L 1638 1425 
Q 988 1544 750 1688 
Q 388 1919 388 2381 
Q 388 2975 994 3219 
Q 1269 3338 1606 3338 
Q 2463 3338 2781 2781 
Q 2856 2663 2894 2513 
L 2431 2419 
Q 2275 2869 1725 2925 
Q 1663 2931 1600 2931 
Q 1150 2931 981 2688 
Q 906 2594 906 2456 
Q 906 2138 1356 2013 
Q 1413 1988 2038 1881 
Q 2456 1806 2644 1675 
Q 3031 1413 3031 944 
z
" transform="scale(0.015625)"/>
        <path id="WenQuanYiZenHei-38" d="M 3400 4056 
Q 1838 2175 1838 0 
L 1275 0 
Q 1269 1438 2056 2825 
Q 2381 3400 2825 3913 
L 444 3913 
L 500 4388 
L 3400 4388 
L 3400 4056 
z
" transform="scale(0.015625)"/>
       </defs>
       <use xlink:href="#WenQuanYiZenHei-44"/>
       <use xlink:href="#WenQuanYiZenHei-6d" transform="translate(61.921875 0)"/>
       <use xlink:href="#WenQuanYiZenHei-62" transform="translate(85.84375 0)"/>
       <use xlink:href="#WenQuanYiZenHei-76" transform="translate(139.75 0)"/>
       <use xlink:href="#WenQuanYiZenHei-65" transform="translate(193.65625 0)"/>
       <use xlink:href="#WenQuanYiZenHei-66" transform="translate(247.5625 0)"/>
       <use xlink:href="#WenQuanYiZenHei-21" transform="translate(301.46875 0)"/>
       <use xlink:href="#WenQuanYiZenHei-50" transform="translate(331.453125 0)"/>
       <use xlink:href="#WenQuanYiZenHei-71" transform="translate(397.375 0)"/>
       <use xlink:href="#WenQuanYiZenHei-76" transform="translate(451.28125 0)"/>
       <use xlink:href="#WenQuanYiZenHei-74" transform="translate(505.1875 0)"/>
       <use xlink:href="#WenQuanYiZenHei-21" transform="translate(557.140625 0)"/>
       <use xlink:href="#WenQuanYiZenHei-35" transform="translate(587.125 0)"/>
       <use xlink:href="#WenQuanYiZenHei-2f" transform="translate(647.09375 0)"/>
       <use xlink:href="#WenQuanYiZenHei-38" transform="translate(677.078125 0)"/>
      </g>
     </g>
    </g>
    <g id="ytick_5">
     <g id="line2d_19">
      <g>
       <use xlink:href="#m5660481209" x="96.781719" y="68.308231" style="fill: #333333; stroke: #333333; stroke-width: 0.8"/>
      </g>
     </g>
     <g id="text_12">
      <!-- Claude Opus 4.8 -->
      <g style="fill: #333333" transform="translate(19.762266 72.107303) scale(0.095 -0.095)">
       <defs>
        <path id="WenQuanYiZenHei-39" d="M 3619 1175 
Q 3619 431 2850 100 
Q 2444 -63 1944 -63 
Q 1231 -63 725 269 
Q 225 594 225 1125 
Q 225 1881 1269 2281 
Q 719 2481 519 2938 
Q 444 3119 444 3319 
Q 444 4000 1144 4294 
Q 1519 4456 1963 4456 
Q 2669 4456 3094 4094 
Q 3425 3813 3425 3369 
Q 3425 2638 2575 2356 
Q 3231 2056 3450 1725 
Q 3619 1488 3619 1175 
z
M 2944 3344 
Q 2944 3906 2288 4019 
Q 2138 4044 1969 4044 
Q 1438 4044 1163 3775 
Q 1000 3613 1000 3375 
Q 1000 2925 1594 2663 
Q 1756 2588 1931 2550 
Q 2581 2725 2788 2956 
Q 2944 3125 2944 3344 
z
M 3075 1094 
Q 3075 1738 1875 2050 
Q 1094 1881 850 1463 
Q 763 1313 763 1131 
Q 763 569 1456 406 
Q 1681 344 1944 344 
Q 2519 344 2850 619 
Q 3075 813 3075 1094 
z
" transform="scale(0.015625)"/>
       </defs>
       <use xlink:href="#WenQuanYiZenHei-44"/>
       <use xlink:href="#WenQuanYiZenHei-6d" transform="translate(61.921875 0)"/>
       <use xlink:href="#WenQuanYiZenHei-62" transform="translate(85.84375 0)"/>
       <use xlink:href="#WenQuanYiZenHei-76" transform="translate(139.75 0)"/>
       <use xlink:href="#WenQuanYiZenHei-65" transform="translate(193.65625 0)"/>
       <use xlink:href="#WenQuanYiZenHei-66" transform="translate(247.5625 0)"/>
       <use xlink:href="#WenQuanYiZenHei-21" transform="translate(301.46875 0)"/>
       <use xlink:href="#WenQuanYiZenHei-50" transform="translate(331.453125 0)"/>
       <use xlink:href="#WenQuanYiZenHei-71" transform="translate(397.375 0)"/>
       <use xlink:href="#WenQuanYiZenHei-76" transform="translate(451.28125 0)"/>
       <use xlink:href="#WenQuanYiZenHei-74" transform="translate(505.1875 0)"/>
       <use xlink:href="#WenQuanYiZenHei-21" transform="translate(557.140625 0)"/>
       <use xlink:href="#WenQuanYiZenHei-35" transform="translate(587.125 0)"/>
       <use xlink:href="#WenQuanYiZenHei-2f" transform="translate(647.09375 0)"/>
       <use xlink:href="#WenQuanYiZenHei-39" transform="translate(677.078125 0)"/>
      </g>
     </g>
    </g>
    <g id="ytick_6">
     <g id="line2d_20">
      <g>
       <use xlink:href="#m5660481209" x="96.781719" y="28.947052" style="fill: #333333; stroke: #333333; stroke-width: 0.8"/>
      </g>
     </g>
     <g id="text_13">
      <!-- 及格线 -->
      <g style="fill: #333333" transform="translate(61.281719 32.847989) scale(0.095 -0.095)">
       <defs>
        <path id="WenQuanYiZenHei-2896" d="M 1725 4575 
Q 1300 4575 881 4550 
Q 906 4781 881 5006 
Q 1300 4988 1725 4988 
L 4794 4988 
L 3894 3113 
L 5181 3113 
Q 4938 1769 4006 756 
Q 4881 38 6119 -269 
Q 5894 -438 5831 -713 
Q 4650 -425 3688 444 
Q 2663 -488 1294 -725 
Q 1181 -469 994 -269 
Q 1663 -213 2269 56 
Q 2875 325 3356 763 
Q 2669 1488 2175 2475 
Q 1669 594 506 -681 
Q 319 -456 31 -388 
Q 1494 1163 1844 3225 
L 1806 3319 
L 1863 3338 
Q 1950 3919 1963 4575 
L 1725 4575 
z
M 2331 3156 
Q 2869 1875 3656 1075 
Q 4281 1781 4513 2700 
L 3169 2700 
L 4069 4575 
L 2481 4575 
Q 2463 3869 2331 3156 
z
" transform="scale(0.015625)"/>
        <path id="WenQuanYiZenHei-3d08" d="M 3494 -769 
Q 3262 -744 3025 -769 
Q 3044 -331 3044 100 
L 3044 1344 
Q 2837 1256 2619 1188 
Q 2487 1413 2281 1575 
Q 3319 1800 4056 2563 
Q 3700 3063 3494 3688 
Q 3250 3219 2900 2719 
Q 2737 2875 2512 2906 
Q 2856 3375 3087 3875 
Q 3319 4375 3556 5131 
Q 3775 5044 4012 5006 
Q 3912 4625 3787 4319 
L 5400 4319 
Q 5219 3319 4587 2531 
Q 5200 1894 6137 1769 
Q 5944 1594 5912 1344 
Q 5000 1494 4325 2231 
Q 3787 1675 3087 1363 
L 5419 1363 
L 5419 -756 
L 4994 -756 
L 4994 -338 
L 3481 -338 
Q 3487 -556 3494 -769 
z
M 4994 1056 
L 3475 1056 
L 3475 -31 
L 4994 -31 
L 4994 1056 
z
M 3806 4006 
Q 3987 3344 4312 2869 
Q 4700 3381 4881 4006 
L 3806 4006 
z
M 394 263 
Q 231 431 -25 469 
Q 181 825 443 1337 
Q 706 1850 887 2406 
Q 1069 2963 1206 3519 
L 800 3519 
Q 487 3519 181 3500 
Q 200 3700 181 3900 
Q 487 3881 800 3881 
L 1312 3881 
L 1312 4263 
Q 1312 4719 1294 5175 
Q 1500 5150 1712 5175 
Q 1694 4719 1694 4263 
L 1694 3881 
L 2431 3900 
Q 2412 3700 2431 3500 
L 1694 3519 
L 1694 2738 
L 1862 2881 
Q 2219 2300 2519 1650 
L 2150 1413 
Q 2006 1725 1850 2019 
L 1694 2300 
L 1694 69 
Q 1694 -388 1712 -850 
Q 1500 -825 1294 -850 
Q 1312 -388 1312 69 
L 1312 2438 
Q 887 1144 394 263 
z
" transform="scale(0.015625)"/>
        <path id="WenQuanYiZenHei-538b" d="M 5356 4444 
L 5019 4094 
L 4338 4763 
L 4675 5106 
L 5356 4444 
z
M 3544 3706 
L 3525 5256 
Q 3763 5231 4006 5256 
L 3988 3769 
L 4838 3888 
Q 5169 3938 5500 4000 
Q 5506 3819 5550 3638 
Q 5219 3613 4881 3563 
L 3988 3438 
Q 3994 2994 4025 2663 
L 5088 2806 
Q 5425 2856 5750 2919 
Q 5756 2731 5800 2556 
Q 5469 2525 5138 2481 
L 4069 2338 
Q 4163 1738 4388 1250 
Q 4738 1688 4925 1988 
Q 5138 1825 5381 1713 
Q 5050 1225 4638 806 
Q 5025 219 5619 -163 
Q 5644 375 5644 919 
Q 5856 756 6119 750 
Q 6144 100 6031 -544 
Q 6025 -644 5950 -700 
Q 5844 -806 5700 -744 
Q 4856 -294 4319 506 
Q 3219 -456 1913 -706 
Q 1900 -431 1725 -219 
Q 2556 -88 3275 294 
Q 3756 550 4081 894 
Q 3750 1519 3631 2275 
L 3063 2200 
Q 2731 2150 2400 2088 
Q 2394 2275 2350 2450 
Q 2688 2481 3019 2525 
L 3588 2600 
Q 3556 2931 3550 3375 
L 3331 3344 
Q 3000 3300 2669 3238 
Q 2663 3419 2619 3594 
Q 2950 3625 3288 3675 
L 3544 3706 
z
M 288 -256 
Q 269 69 106 281 
Q 519 300 1022 378 
Q 1525 456 2681 788 
L 2688 475 
Q 1581 181 1118 31 
Q 656 -119 288 -256 
z
M 1438 5131 
Q 1681 4994 1975 4900 
Q 1769 4544 1344 3944 
L 781 3169 
L 1481 3231 
L 1694 3281 
Q 1900 3588 2044 3919 
Q 2288 3775 2575 3675 
Q 2481 3506 2343 3312 
Q 2206 3119 1678 2456 
Q 1150 1794 963 1581 
L 2150 1713 
L 2569 1800 
L 2550 1425 
L 2194 1406 
L 231 1144 
L 181 1488 
Q 319 1494 413 1594 
Q 875 2094 1444 2913 
L 113 2738 
L 63 3081 
Q 194 3088 275 3181 
Q 856 3975 1331 4881 
Q 1394 5006 1438 5131 
z
" transform="scale(0.015625)"/>
       </defs>
       <use xlink:href="#WenQuanYiZenHei-2896"/>
       <use xlink:href="#WenQuanYiZenHei-3d08" transform="translate(100 0)"/>
       <use xlink:href="#WenQuanYiZenHei-538b" transform="translate(200 0)"/>
      </g>
     </g>
    </g>
   </g>
   <g id="line2d_21">
    <path d="M 96.781719 247.5 
L 96.781719 7.2 
" clip-path="url(#pa8db0d130f)" style="fill: none; stroke: #cccccc; stroke-width: 0.8; stroke-linecap: square"/>
   </g>
   <g id="patch_3">
    <path d="M 96.781719 247.5 
L 630.261719 247.5 
" style="fill: none; stroke: #000000; stroke-width: 0.8; stroke-linejoin: miter; stroke-linecap: square"/>
   </g>
   <g id="patch_4">
    <path d="M 96.781719 236.577273 
L 300.012195 236.577273 
L 300.012195 214.928624 
L 96.781719 214.928624 
z
" clip-path="url(#pa8db0d130f)" style="fill: #1a56db"/>
   </g>
   <g id="patch_5">
    <path d="M 96.781719 197.216093 
L 291.544258 197.216093 
L 291.544258 175.567445 
L 96.781719 175.567445 
z
" clip-path="url(#pa8db0d130f)" style="fill: #1a56db"/>
   </g>
   <g id="patch_6">
    <path d="M 96.781719 157.854914 
L 283.076322 157.854914 
L 283.076322 136.206265 
L 96.781719 136.206265 
z
" clip-path="url(#pa8db0d130f)" style="fill: #1a56db"/>
   </g>
   <g id="patch_7">
    <path d="M 96.781719 118.493735 
L 252.59175 118.493735 
L 252.59175 96.845086 
L 96.781719 96.845086 
z
" clip-path="url(#pa8db0d130f)" style="fill: #1a56db"/>
   </g>
   <g id="patch_8">
    <path d="M 96.781719 79.132555 
L 230.575116 79.132555 
L 230.575116 57.483907 
L 96.781719 57.483907 
z
" clip-path="url(#pa8db0d130f)" style="fill: #1a56db"/>
   </g>
   <g id="patch_9">
    <path d="M 96.781719 39.771376 
L 604.857909 39.771376 
L 604.857909 18.122727 
L 96.781719 18.122727 
z
" clip-path="url(#pa8db0d130f)" style="fill: #1a56db"/>
   </g>
   <g id="text_14">
    <!-- 24.0 -->
    <g style="fill: #333333" transform="translate(300.858989 228.601093) scale(0.095 -0.095)">
     <use xlink:href="#WenQuanYiZenHei-33"/>
     <use xlink:href="#WenQuanYiZenHei-35" transform="translate(59.96875 0)"/>
     <use xlink:href="#WenQuanYiZenHei-2f" transform="translate(119.9375 0)"/>
     <use xlink:href="#WenQuanYiZenHei-31" transform="translate(149.921875 0)"/>
    </g>
   </g>
   <g id="text_15">
    <!-- 23.0 -->
    <g style="fill: #333333" transform="translate(292.391052 189.239914) scale(0.095 -0.095)">
     <use xlink:href="#WenQuanYiZenHei-33"/>
     <use xlink:href="#WenQuanYiZenHei-34" transform="translate(59.96875 0)"/>
     <use xlink:href="#WenQuanYiZenHei-2f" transform="translate(119.9375 0)"/>
     <use xlink:href="#WenQuanYiZenHei-31" transform="translate(149.921875 0)"/>
    </g>
   </g>
   <g id="text_16">
    <!-- 22.0 -->
    <g style="fill: #333333" transform="translate(283.923116 149.878734) scale(0.095 -0.095)">
     <use xlink:href="#WenQuanYiZenHei-33"/>
     <use xlink:href="#WenQuanYiZenHei-33" transform="translate(59.96875 0)"/>
     <use xlink:href="#WenQuanYiZenHei-2f" transform="translate(119.9375 0)"/>
     <use xlink:href="#WenQuanYiZenHei-31" transform="translate(149.921875 0)"/>
    </g>
   </g>
   <g id="text_17">
    <!-- 18.4 -->
    <g style="fill: #333333" transform="translate(253.438544 110.517555) scale(0.095 -0.095)">
     <use xlink:href="#WenQuanYiZenHei-32"/>
     <use xlink:href="#WenQuanYiZenHei-39" transform="translate(59.96875 0)"/>
     <use xlink:href="#WenQuanYiZenHei-2f" transform="translate(119.9375 0)"/>
     <use xlink:href="#WenQuanYiZenHei-35" transform="translate(149.921875 0)"/>
    </g>
   </g>
   <g id="text_18">
    <!-- 15.8 -->
    <g style="fill: #333333" transform="translate(231.421909 71.156375) scale(0.095 -0.095)">
     <use xlink:href="#WenQuanYiZenHei-32"/>
     <use xlink:href="#WenQuanYiZenHei-36" transform="translate(59.96875 0)"/>
     <use xlink:href="#WenQuanYiZenHei-2f" transform="translate(119.9375 0)"/>
     <use xlink:href="#WenQuanYiZenHei-39" transform="translate(149.921875 0)"/>
    </g>
   </g>
   <g id="text_19">
    <!-- 60 -->
    <g style="fill: #333333" transform="translate(605.704703 31.795196) scale(0.095 -0.095)">
     <use xlink:href="#WenQuanYiZenHei-37"/>
     <use xlink:href="#WenQuanYiZenHei-31" transform="translate(59.96875 0)"/>
    </g>
   </g>
  </g>
 </g>
 <defs>
  <clipPath id="pa8db0d130f">
   <rect x="96.781719" y="7.2" width="533.48" height="240.3"/>
  </clipPath>
 </defs>
</svg>
