<?xml version="1.0" encoding="utf-8" standalone="no"?>
<!DOCTYPE svg PUBLIC "-//W3C//DTD SVG 1.1//EN"
  "http://www.w3.org/Graphics/SVG/1.1/DTD/svg11.dtd">
<svg xmlns:xlink="http://www.w3.org/1999/xlink" width="637.84pt" height="242.718203pt" viewBox="0 0 637.84 242.718203" xmlns="http://www.w3.org/2000/svg" version="1.1">
 <metadata>
  <rdf:RDF xmlns:dc="http://purl.org/dc/elements/1.1/" xmlns:cc="http://creativecommons.org/ns#" xmlns:rdf="http://www.w3.org/1999/02/22-rdf-syntax-ns#">
   <cc:Work>
    <dc:type rdf:resource="http://purl.org/dc/dcmitype/StillImage"/>
    <dc:date>2026-06-11T08:53:31.081419</dc:date>
    <dc:format>image/svg+xml</dc:format>
    <dc:creator>
     <cc:Agent>
      <dc:title>Matplotlib v3.9.4, https://matplotlib.org/</dc:title>
     </cc:Agent>
    </dc:creator>
   </cc:Work>
  </rdf:RDF>
 </metadata>
 <defs>
  <style type="text/css">*{stroke-linejoin: round; stroke-linecap: butt}</style>
 </defs>
 <g id="figure_1">
  <g id="patch_1">
   <path d="M -0 242.718203 
L 637.84 242.718203 
L 637.84 0 
L -0 0 
z
" style="fill: #ffffff"/>
  </g>
  <g id="axes_1">
   <g id="patch_2">
    <path d="M 147.2 219.56 
L 630.64 219.56 
L 630.64 7.2 
L 147.2 7.2 
z
" style="fill: #fafafa"/>
   </g>
   <g id="matplotlib.axis_1">
    <g id="xtick_1">
     <g id="line2d_1">
      <path d="M 147.2 219.56 
L 147.2 7.2 
" clip-path="url(#pecbe8ffa86)" style="fill: none; stroke-dasharray: 2.96,1.28; stroke-dashoffset: 0; stroke: #b0b0b0; stroke-opacity: 0.35; stroke-width: 0.8"/>
     </g>
     <g id="line2d_2">
      <defs>
       <path id="m50da57180f" d="M 0 0 
L 0 3.5 
" style="stroke: #333333; stroke-width: 0.8"/>
      </defs>
      <g>
       <use xlink:href="#m50da57180f" x="147.2" y="219.56" style="fill: #333333; stroke: #333333; stroke-width: 0.8"/>
      </g>
     </g>
     <g id="text_1">
      <!-- 0 -->
      <g style="fill: #333333" transform="translate(144.568203 234.255) scale(0.095 -0.095)">
       <defs>
        <path id="STHeitiTC-Medium-30" d="M 1747 5184 
Q 2502 5184 2944 4547 
Q 3386 3910 3386 2723 
Q 3386 1536 2938 902 
Q 2490 269 1738 269 
Q 986 269 573 893 
Q 160 1517 160 2729 
Q 160 3942 573 4563 
Q 986 5184 1747 5184 
z
M 1760 774 
Q 2285 774 2576 1283 
Q 2867 1792 2867 2726 
Q 2867 3661 2566 4160 
Q 2266 4659 1757 4659 
Q 1248 4659 966 4160 
Q 685 3661 685 2714 
Q 685 774 1760 774 
z
" transform="scale(0.015625)"/>
       </defs>
       <use xlink:href="#STHeitiTC-Medium-30"/>
      </g>
     </g>
    </g>
    <g id="xtick_2">
     <g id="line2d_3">
      <path d="M 239.28381 219.56 
L 239.28381 7.2 
" clip-path="url(#pecbe8ffa86)" style="fill: none; stroke-dasharray: 2.96,1.28; stroke-dashoffset: 0; stroke: #b0b0b0; stroke-opacity: 0.35; stroke-width: 0.8"/>
     </g>
     <g id="line2d_4">
      <g>
       <use xlink:href="#m50da57180f" x="239.28381" y="219.56" style="fill: #333333; stroke: #333333; stroke-width: 0.8"/>
      </g>
     </g>
     <g id="text_2">
      <!-- 2 -->
      <g style="fill: #333333" transform="translate(236.652013 234.255) scale(0.095 -0.095)">
       <defs>
        <path id="STHeitiTC-Medium-32" d="M 3360 384 
L 90 384 
L 1914 2355 
Q 2374 2842 2566 3123 
Q 2758 3405 2758 3763 
Q 2758 4122 2480 4390 
Q 2202 4659 1789 4659 
Q 1376 4659 1101 4368 
Q 826 4077 787 3539 
L 256 3539 
Q 288 4294 736 4739 
Q 1184 5184 1821 5184 
Q 2458 5184 2877 4771 
Q 3296 4358 3296 3763 
Q 3296 3328 3065 2950 
Q 2835 2573 2368 2074 
L 1293 915 
L 3360 915 
L 3360 384 
z
" transform="scale(0.015625)"/>
       </defs>
       <use xlink:href="#STHeitiTC-Medium-32"/>
      </g>
     </g>
    </g>
    <g id="xtick_3">
     <g id="line2d_5">
      <path d="M 331.367619 219.56 
L 331.367619 7.2 
" clip-path="url(#pecbe8ffa86)" style="fill: none; stroke-dasharray: 2.96,1.28; stroke-dashoffset: 0; stroke: #b0b0b0; stroke-opacity: 0.35; stroke-width: 0.8"/>
     </g>
     <g id="line2d_6">
      <g>
       <use xlink:href="#m50da57180f" x="331.367619" y="219.56" style="fill: #333333; stroke: #333333; stroke-width: 0.8"/>
      </g>
     </g>
     <g id="text_3">
      <!-- 4 -->
      <g style="fill: #333333" transform="translate(328.735822 234.255) scale(0.095 -0.095)">
       <defs>
        <path id="STHeitiTC-Medium-34" d="M 3418 1453 
L 2861 1453 
L 2861 384 
L 2317 384 
L 2317 1453 
L 70 1453 
L 2701 5184 
L 2861 5184 
L 2861 1984 
L 3418 1984 
L 3418 1453 
z
M 2317 1984 
L 2317 3712 
L 1094 1984 
L 2317 1984 
z
" transform="scale(0.015625)"/>
       </defs>
       <use xlink:href="#STHeitiTC-Medium-34"/>
      </g>
     </g>
    </g>
    <g id="xtick_4">
     <g id="line2d_7">
      <path d="M 423.451429 219.56 
L 423.451429 7.2 
" clip-path="url(#pecbe8ffa86)" style="fill: none; stroke-dasharray: 2.96,1.28; stroke-dashoffset: 0; stroke: #b0b0b0; stroke-opacity: 0.35; stroke-width: 0.8"/>
     </g>
     <g id="line2d_8">
      <g>
       <use xlink:href="#m50da57180f" x="423.451429" y="219.56" style="fill: #333333; stroke: #333333; stroke-width: 0.8"/>
      </g>
     </g>
     <g id="text_4">
      <!-- 6 -->
      <g style="fill: #333333" transform="translate(420.819632 234.255) scale(0.095 -0.095)">
       <defs>
        <path id="STHeitiTC-Medium-36" d="M 1594 3098 
Q 1798 3155 1984 3155 
Q 2515 3155 2912 2732 
Q 3309 2310 3309 1708 
Q 3309 1107 2880 688 
Q 2451 269 1830 269 
Q 1210 269 797 691 
Q 384 1114 384 1722 
Q 384 2016 499 2326 
Q 614 2637 915 3085 
L 2336 5203 
L 2797 4915 
L 1594 3098 
z
M 1843 806 
Q 2221 806 2493 1075 
Q 2765 1344 2765 1728 
Q 2765 2112 2496 2381 
Q 2227 2650 1843 2650 
Q 1459 2650 1190 2381 
Q 922 2112 922 1728 
Q 922 1344 1194 1075 
Q 1466 806 1843 806 
z
" transform="scale(0.015625)"/>
       </defs>
       <use xlink:href="#STHeitiTC-Medium-36"/>
      </g>
     </g>
    </g>
    <g id="xtick_5">
     <g id="line2d_9">
      <path d="M 515.535238 219.56 
L 515.535238 7.2 
" clip-path="url(#pecbe8ffa86)" style="fill: none; stroke-dasharray: 2.96,1.28; stroke-dashoffset: 0; stroke: #b0b0b0; stroke-opacity: 0.35; stroke-width: 0.8"/>
     </g>
     <g id="line2d_10">
      <g>
       <use xlink:href="#m50da57180f" x="515.535238" y="219.56" style="fill: #333333; stroke: #333333; stroke-width: 0.8"/>
      </g>
     </g>
     <g id="text_5">
      <!-- 8 -->
      <g style="fill: #333333" transform="translate(512.903441 234.255) scale(0.095 -0.095)">
       <defs>
        <path id="STHeitiTC-Medium-38" d="M 2547 2950 
Q 3373 2522 3373 1747 
Q 3373 1114 2928 691 
Q 2483 269 1763 269 
Q 1043 269 608 691 
Q 173 1114 173 1709 
Q 173 2515 1018 2950 
Q 390 3315 390 3942 
Q 390 4435 800 4809 
Q 1210 5184 1782 5184 
Q 2355 5184 2758 4819 
Q 3162 4454 3162 3930 
Q 3162 3322 2547 2950 
z
M 1792 3181 
Q 2118 3181 2364 3411 
Q 2611 3642 2611 3939 
Q 2611 4237 2380 4445 
Q 2150 4653 1785 4653 
Q 1421 4653 1184 4445 
Q 947 4237 947 3939 
Q 947 3642 1203 3411 
Q 1459 3181 1792 3181 
z
M 1773 794 
Q 2234 794 2528 1069 
Q 2822 1344 2822 1728 
Q 2822 2112 2518 2393 
Q 2214 2675 1782 2675 
Q 1350 2675 1036 2384 
Q 723 2093 723 1699 
Q 723 1306 1014 1050 
Q 1306 794 1773 794 
z
" transform="scale(0.015625)"/>
       </defs>
       <use xlink:href="#STHeitiTC-Medium-38"/>
      </g>
     </g>
    </g>
    <g id="xtick_6">
     <g id="line2d_11">
      <path d="M 607.619048 219.56 
L 607.619048 7.2 
" clip-path="url(#pecbe8ffa86)" style="fill: none; stroke-dasharray: 2.96,1.28; stroke-dashoffset: 0; stroke: #b0b0b0; stroke-opacity: 0.35; stroke-width: 0.8"/>
     </g>
     <g id="line2d_12">
      <g>
       <use xlink:href="#m50da57180f" x="607.619048" y="219.56" style="fill: #333333; stroke: #333333; stroke-width: 0.8"/>
      </g>
     </g>
     <g id="text_6">
      <!-- 10 -->
      <g style="fill: #333333" transform="translate(602.355454 234.255) scale(0.095 -0.095)">
       <defs>
        <path id="STHeitiTC-Medium-31" d="M 2131 384 
L 1587 384 
L 1587 4531 
L 826 4531 
L 1158 5069 
L 2131 5069 
L 2131 384 
z
" transform="scale(0.015625)"/>
       </defs>
       <use xlink:href="#STHeitiTC-Medium-31"/>
       <use xlink:href="#STHeitiTC-Medium-30" x="55.399994"/>
      </g>
     </g>
    </g>
   </g>
   <g id="matplotlib.axis_2">
    <g id="ytick_1">
     <g id="line2d_13">
      <defs>
       <path id="m3c15ebf56b" d="M 0 0 
L -3.5 0 
" style="stroke: #333333; stroke-width: 0.8"/>
      </defs>
      <g>
       <use xlink:href="#m3c15ebf56b" x="147.2" y="194.952343" style="fill: #333333; stroke: #333333; stroke-width: 0.8"/>
      </g>
     </g>
     <g id="text_7">
      <!-- 英语（基准） -->
      <g style="fill: #333333" transform="translate(83.2 198.799843) scale(0.095 -0.095)">
       <defs>
        <path id="STHeitiTC-Medium-82f1" d="M 1350 2554 
Q 1350 2880 1312 3034 
Q 1427 3027 1552 3020 
Q 1677 3014 1862 3011 
Q 2048 3008 2313 3008 
Q 2579 3008 2976 3008 
Q 2976 3194 2969 3363 
Q 2963 3533 2950 3661 
Q 3283 3603 3622 3622 
Q 3680 3629 3689 3593 
Q 3699 3558 3648 3526 
Q 3584 3482 3545 3338 
Q 3507 3194 3494 3008 
Q 3891 3008 4153 3008 
Q 4416 3008 4595 3011 
Q 4774 3014 4896 3020 
Q 5018 3027 5133 3034 
Q 5114 2950 5104 2838 
Q 5094 2726 5094 2554 
L 5094 1594 
Q 5382 1600 5568 1609 
Q 5754 1619 5914 1645 
L 5914 1088 
Q 5824 1101 5657 1110 
Q 5491 1120 5225 1129 
Q 4960 1139 4576 1142 
Q 4192 1146 3661 1146 
Q 3840 890 4032 698 
Q 4224 506 4480 371 
Q 4736 237 5088 157 
Q 5440 77 5946 45 
Q 5818 -122 5760 -282 
Q 5702 -442 5670 -614 
Q 5101 -480 4704 -320 
Q 4307 -160 4032 48 
Q 3757 256 3581 525 
Q 3405 794 3270 1146 
Q 3187 890 3024 646 
Q 2861 403 2582 172 
Q 2304 -58 1894 -275 
Q 1485 -493 902 -698 
Q 755 -403 467 -186 
Q 992 -51 1385 96 
Q 1779 243 2054 406 
Q 2330 570 2502 752 
Q 2675 934 2771 1146 
Q 2227 1146 1830 1142 
Q 1434 1139 1158 1129 
Q 883 1120 713 1110 
Q 544 1101 454 1088 
L 454 1645 
Q 621 1619 838 1606 
Q 1056 1594 1350 1587 
L 1350 2554 
z
M 1837 2598 
L 1837 1587 
L 2886 1587 
Q 2925 1830 2944 2086 
Q 2963 2342 2970 2598 
L 1837 2598 
z
M 4602 2598 
L 3469 2598 
Q 3450 2310 3424 2060 
Q 3398 1811 3366 1587 
L 4602 1587 
L 4602 2598 
z
M 3930 4448 
Q 3942 4646 3929 4825 
Q 3917 5005 3891 5133 
Q 4019 5120 4182 5107 
Q 4346 5094 4467 5094 
Q 4525 5094 4534 5065 
Q 4544 5037 4493 5005 
Q 4448 4979 4435 4953 
Q 4422 4928 4422 4870 
L 4422 4448 
Q 4883 4448 5273 4461 
Q 5664 4474 5946 4499 
L 5946 3955 
Q 5664 3981 5273 3993 
Q 4883 4006 4422 4013 
L 4422 3443 
L 3930 3443 
L 3930 4013 
L 2522 4013 
L 2522 3443 
L 2035 3443 
L 2035 4013 
Q 1594 4006 1213 3993 
Q 832 3981 563 3955 
L 563 4499 
Q 845 4467 1219 4457 
Q 1594 4448 2035 4448 
Q 2048 4646 2035 4825 
Q 2022 5005 1997 5133 
Q 2125 5120 2285 5107 
Q 2445 5094 2566 5094 
Q 2624 5094 2633 5065 
Q 2643 5037 2592 5005 
Q 2547 4979 2534 4953 
Q 2522 4928 2522 4870 
L 2522 4448 
L 3930 4448 
z
" transform="scale(0.015625)"/>
        <path id="STHeitiTC-Medium-8bed" d="M 1600 -115 
Q 1523 -198 1468 -259 
Q 1414 -320 1372 -371 
Q 1331 -422 1299 -470 
Q 1267 -518 1235 -576 
Q 1146 -429 1037 -291 
Q 928 -154 832 -58 
Q 890 6 925 57 
Q 960 109 979 166 
Q 998 224 1001 310 
Q 1005 397 1005 531 
L 1005 2618 
Q 723 2618 569 2611 
Q 416 2605 282 2592 
L 282 3174 
Q 416 3162 573 3152 
Q 730 3142 928 3142 
Q 1126 3142 1296 3152 
Q 1466 3162 1587 3174 
Q 1555 3027 1539 2803 
Q 1523 2579 1523 2355 
L 1523 512 
Q 1696 685 1843 864 
Q 1990 1043 2125 1242 
Q 2163 1082 2243 931 
Q 2323 781 2394 710 
L 1600 -115 
z
M 1216 3674 
Q 1114 3923 979 4150 
Q 845 4378 640 4621 
L 1146 4915 
Q 1293 4685 1443 4473 
Q 1594 4262 1779 4019 
L 1216 3674 
z
M 4774 3302 
L 3757 3302 
L 3610 2509 
L 4698 2509 
L 4774 3302 
z
M 3443 4403 
Q 3053 4397 2749 4381 
Q 2445 4365 2202 4339 
L 2202 4934 
Q 2528 4902 2947 4883 
Q 3366 4864 3955 4864 
Q 4550 4864 4976 4880 
Q 5402 4896 5722 4934 
L 5722 4339 
Q 5395 4371 4976 4390 
Q 4557 4410 3962 4410 
L 3846 3770 
Q 4160 3770 4387 3773 
Q 4614 3776 4780 3779 
Q 4947 3782 5075 3792 
Q 5203 3802 5331 3814 
L 5203 2515 
Q 5491 2522 5747 2538 
Q 6003 2554 6118 2573 
L 6118 1978 
Q 6035 1990 5916 2003 
Q 5798 2016 5571 2022 
Q 5344 2029 4976 2032 
Q 4608 2035 4019 2035 
Q 3187 2035 2694 2019 
Q 2202 2003 1997 1978 
L 1997 2573 
Q 2163 2547 2432 2531 
Q 2701 2515 3085 2509 
L 3232 3296 
Q 3021 3283 2819 3270 
Q 2618 3258 2413 3245 
L 2413 3814 
Q 2592 3795 2793 3785 
Q 2995 3776 3322 3770 
Q 3341 3885 3366 4000 
Q 3386 4096 3405 4205 
Q 3424 4314 3443 4403 
z
M 4928 230 
L 4928 1088 
L 3168 1088 
L 3168 230 
L 4928 230 
z
M 3168 -218 
L 3168 -698 
L 2592 -698 
Q 2624 -467 2637 -278 
Q 2650 -90 2650 134 
L 2650 1082 
Q 2650 1254 2646 1363 
Q 2643 1472 2624 1581 
Q 2720 1568 2825 1565 
Q 2931 1562 3084 1555 
Q 3238 1549 3468 1549 
Q 3699 1549 4058 1549 
Q 4410 1549 4643 1549 
Q 4877 1549 5030 1555 
Q 5184 1562 5286 1565 
Q 5389 1568 5478 1581 
Q 5459 1491 5452 1382 
Q 5446 1274 5446 1082 
L 5446 294 
Q 5446 70 5459 -125 
Q 5472 -320 5504 -538 
L 4928 -538 
L 4928 -218 
L 3168 -218 
z
" transform="scale(0.015625)"/>
        <path id="STHeitiTC-Medium-ff08" d="M 5651 -749 
L 5274 -749 
Q 4646 173 4409 835 
Q 4173 1498 4173 2266 
Q 4173 3034 4432 3750 
Q 4691 4467 5254 5267 
L 5645 5267 
Q 5082 4237 4928 3606 
Q 4774 2976 4774 2093 
Q 4774 1472 4953 861 
Q 5133 250 5651 -749 
z
" transform="scale(0.015625)"/>
        <path id="STHeitiTC-Medium-57fa" d="M 3546 934 
Q 3891 941 4137 950 
Q 4384 960 4582 979 
L 4582 525 
Q 4384 544 4137 557 
Q 3891 570 3546 570 
L 3546 26 
Q 4230 26 4729 38 
Q 5229 51 5606 77 
L 5606 -429 
Q 5203 -403 4652 -390 
Q 4102 -378 3328 -378 
Q 2554 -378 2003 -390 
Q 1453 -403 1050 -429 
L 1050 77 
Q 1427 51 1920 38 
Q 2413 26 3091 26 
L 3091 576 
Q 2746 570 2496 557 
Q 2246 544 2042 525 
L 2042 979 
Q 2246 960 2496 950 
Q 2746 941 3091 934 
Q 3091 1120 3078 1293 
Q 3066 1466 3040 1587 
Q 3181 1568 3309 1558 
Q 3437 1549 3603 1549 
Q 3770 1549 3629 1446 
Q 3590 1414 3568 1347 
Q 3546 1280 3546 1222 
L 3546 934 
z
M 2310 2227 
L 4243 2227 
L 4243 2643 
L 2310 2643 
L 2310 2227 
z
M 4243 3725 
L 4243 4115 
L 2310 4115 
L 2310 3725 
L 4243 3725 
z
M 2310 3398 
L 2310 2970 
L 4243 2970 
L 4243 3398 
L 2310 3398 
z
M 2669 1856 
Q 2560 1670 2371 1472 
Q 2182 1274 1939 1072 
Q 1696 870 1405 678 
Q 1114 486 794 314 
Q 685 634 378 742 
Q 864 890 1299 1168 
Q 1734 1446 2182 1850 
Q 1843 1850 1600 1843 
Q 1357 1837 1171 1827 
Q 986 1818 845 1808 
Q 704 1798 570 1786 
L 570 2285 
Q 1171 2234 1837 2227 
L 1837 4115 
Q 1568 4109 1305 4099 
Q 1043 4090 794 4064 
L 794 4576 
Q 1293 4538 1830 4518 
Q 1824 4704 1811 4832 
Q 1798 4960 1766 5069 
Q 1914 5037 2054 5024 
Q 2195 5011 2330 5018 
Q 2400 5024 2416 4992 
Q 2432 4960 2381 4915 
Q 2336 4870 2323 4812 
Q 2310 4755 2310 4653 
L 2310 4518 
L 4237 4518 
Q 4237 4742 4224 4896 
Q 4211 5050 4192 5139 
Q 4499 5082 4781 5082 
Q 4851 5082 4867 5050 
Q 4883 5018 4832 4973 
Q 4755 4915 4729 4854 
Q 4704 4794 4704 4710 
L 4704 4518 
Q 5293 4531 5830 4576 
L 5830 4064 
Q 5562 4090 5280 4099 
Q 4998 4109 4704 4115 
L 4704 2227 
Q 5043 2234 5366 2250 
Q 5690 2266 5997 2285 
L 5997 1786 
Q 5875 1798 5747 1808 
Q 5619 1818 5456 1824 
Q 5293 1830 5081 1836 
Q 4870 1843 4582 1850 
Q 4698 1690 4832 1562 
Q 4966 1434 5136 1328 
Q 5306 1222 5520 1145 
Q 5734 1069 6016 1011 
Q 5741 762 5690 416 
Q 5434 550 5184 713 
Q 4934 877 4720 1059 
Q 4506 1242 4349 1440 
Q 4192 1638 4115 1856 
L 2669 1856 
z
" transform="scale(0.015625)"/>
        <path id="STHeitiTC-Medium-51c6" d="M 1805 1882 
Q 1754 1805 1709 1728 
Q 1664 1651 1616 1548 
Q 1568 1446 1504 1312 
Q 1440 1178 1357 979 
Q 1267 755 1174 512 
Q 1082 269 1005 26 
Q 858 154 704 262 
Q 550 371 384 461 
Q 531 646 662 841 
Q 794 1037 928 1299 
Q 986 1421 1037 1533 
Q 1088 1645 1139 1763 
Q 1190 1882 1241 2016 
Q 1293 2150 1350 2323 
Q 1440 2163 1555 2057 
Q 1670 1952 1805 1882 
z
M 1312 3251 
Q 1178 3482 966 3747 
Q 755 4013 518 4243 
L 1011 4608 
Q 1082 4506 1178 4381 
Q 1274 4256 1379 4125 
Q 1485 3994 1593 3872 
Q 1702 3750 1792 3654 
L 1312 3251 
z
M 4282 4192 
Q 4243 4410 4176 4614 
Q 4109 4819 4019 4960 
L 4570 5126 
Q 4621 4941 4704 4736 
Q 4787 4531 4883 4346 
L 4282 4192 
z
M 2925 1626 
L 4064 1626 
L 4064 2355 
L 2925 2355 
L 2925 1626 
z
M 2925 2822 
L 4064 2822 
L 4064 3584 
L 2925 3584 
L 2925 2822 
z
M 2925 -666 
L 2374 -666 
Q 2394 -531 2410 -412 
Q 2426 -294 2435 -147 
Q 2445 0 2448 201 
Q 2451 403 2451 710 
L 2451 2854 
Q 2342 2682 2224 2506 
Q 2106 2330 1971 2144 
Q 1888 2285 1798 2377 
Q 1709 2470 1587 2547 
Q 1830 2816 2064 3171 
Q 2298 3526 2458 3904 
Q 2586 4230 2682 4576 
Q 2778 4922 2822 5190 
Q 2970 5120 3152 5065 
Q 3334 5011 3443 4998 
Q 3552 4986 3555 4950 
Q 3558 4915 3450 4826 
Q 3430 4806 3401 4768 
Q 3373 4730 3325 4643 
Q 3277 4557 3206 4416 
Q 3136 4275 3034 4051 
L 4403 4051 
Q 4787 4051 5043 4054 
Q 5299 4058 5465 4061 
Q 5632 4064 5725 4070 
Q 5818 4077 5875 4083 
L 5875 3552 
Q 5811 3558 5724 3564 
Q 5638 3571 5491 3574 
Q 5344 3578 5120 3581 
Q 4896 3584 4557 3584 
L 4557 2822 
Q 4832 2822 5024 2825 
Q 5216 2829 5347 2832 
Q 5478 2835 5558 2841 
Q 5638 2848 5690 2854 
L 5690 2323 
Q 5632 2330 5552 2336 
Q 5472 2342 5344 2345 
Q 5216 2349 5024 2352 
Q 4832 2355 4557 2355 
L 4557 1626 
Q 4832 1626 5024 1629 
Q 5216 1632 5344 1635 
Q 5472 1638 5552 1644 
Q 5632 1651 5683 1658 
L 5683 1126 
Q 5626 1133 5549 1139 
Q 5472 1146 5344 1149 
Q 5216 1152 5027 1155 
Q 4838 1158 4557 1158 
L 4557 346 
Q 4934 346 5187 349 
Q 5440 352 5603 355 
Q 5766 358 5862 364 
Q 5958 371 6016 378 
L 6016 -154 
Q 5952 -147 5859 -140 
Q 5766 -134 5603 -131 
Q 5440 -128 5184 -125 
Q 4928 -122 4544 -122 
L 2925 -122 
L 2925 -666 
z
M 2925 346 
L 4064 346 
L 4064 1158 
L 2925 1158 
L 2925 346 
z
" transform="scale(0.015625)"/>
        <path id="STHeitiTC-Medium-ff09" d="M 1120 5267 
Q 1747 4346 1984 3683 
Q 2221 3021 2221 2253 
Q 2221 1485 1961 768 
Q 1702 51 1139 -749 
L 749 -749 
Q 1312 282 1465 912 
Q 1619 1542 1619 2426 
Q 1619 3046 1440 3657 
Q 1261 4269 742 5267 
L 1120 5267 
z
" transform="scale(0.015625)"/>
       </defs>
       <use xlink:href="#STHeitiTC-Medium-82f1"/>
       <use xlink:href="#STHeitiTC-Medium-8bed" x="99.999985"/>
       <use xlink:href="#STHeitiTC-Medium-ff08" x="199.999969"/>
       <use xlink:href="#STHeitiTC-Medium-57fa" x="299.999954"/>
       <use xlink:href="#STHeitiTC-Medium-51c6" x="399.999939"/>
       <use xlink:href="#STHeitiTC-Medium-ff09" x="499.999924"/>
      </g>
     </g>
    </g>
    <g id="ytick_2">
     <g id="line2d_14">
      <g>
       <use xlink:href="#m3c15ebf56b" x="147.2" y="140.570781" style="fill: #333333; stroke: #333333; stroke-width: 0.8"/>
      </g>
     </g>
     <g id="text_8">
      <!-- 中文（旧词表，多源综合估计） -->
      <g style="fill: #333333" transform="translate(7.2 144.451679) scale(0.095 -0.095)">
       <defs>
        <path id="STHeitiTC-Medium-4e2d" d="M 3443 1453 
L 3443 518 
Q 3443 410 3446 266 
Q 3450 122 3459 -35 
Q 3469 -192 3481 -345 
Q 3494 -499 3507 -634 
L 2822 -634 
Q 2835 -518 2844 -364 
Q 2854 -211 2864 -51 
Q 2874 109 2880 259 
Q 2886 410 2886 518 
L 2886 1453 
L 1402 1453 
L 1402 998 
L 813 998 
Q 832 1203 845 1475 
Q 858 1747 858 1952 
L 858 3334 
Q 858 3501 845 3686 
Q 832 3872 813 3994 
Q 1050 3962 1565 3946 
Q 2080 3930 2886 3923 
L 2886 4224 
Q 2886 4448 2883 4605 
Q 2880 4762 2870 4874 
Q 2861 4986 2851 5056 
Q 2842 5126 2822 5178 
Q 3002 5158 3165 5148 
Q 3328 5139 3501 5139 
Q 3578 5139 3587 5116 
Q 3597 5094 3520 5024 
Q 3443 4954 3443 4672 
L 3443 3923 
Q 4288 3930 4816 3946 
Q 5344 3962 5581 3994 
Q 5574 3930 5568 3830 
Q 5562 3731 5558 3622 
Q 5555 3514 5552 3402 
Q 5549 3290 5549 3206 
L 5549 1978 
Q 5549 1786 5558 1526 
Q 5568 1267 5581 1062 
L 4973 1062 
L 4973 1453 
L 3443 1453 
z
M 4973 1933 
L 4973 3443 
L 3443 3443 
L 3443 1933 
L 4973 1933 
z
M 2886 1933 
L 2886 3443 
L 1402 3443 
L 1402 1933 
L 2886 1933 
z
" transform="scale(0.015625)"/>
        <path id="STHeitiTC-Medium-6587" d="M 2061 3699 
Q 2093 3456 2173 3158 
Q 2253 2861 2381 2557 
Q 2509 2253 2681 1965 
Q 2854 1677 3078 1459 
Q 3238 1626 3379 1830 
Q 3520 2035 3632 2304 
Q 3744 2573 3827 2915 
Q 3910 3258 3962 3699 
L 2061 3699 
z
M 2995 4192 
Q 2886 4576 2675 4986 
L 3373 5146 
Q 3398 4941 3452 4685 
Q 3507 4429 3578 4192 
Q 4320 4198 4861 4211 
Q 5402 4224 5837 4256 
L 5837 3642 
Q 5568 3661 5261 3670 
Q 4954 3680 4582 3693 
Q 4435 2771 4156 2156 
Q 3878 1542 3494 1126 
Q 4672 294 6067 333 
Q 5939 230 5852 147 
Q 5766 64 5705 -19 
Q 5645 -102 5603 -185 
Q 5562 -269 5530 -371 
Q 5184 -314 4832 -198 
Q 4480 -83 4157 64 
Q 3834 211 3549 377 
Q 3264 544 3046 717 
Q 2822 550 2534 380 
Q 2246 211 1939 60 
Q 1632 -90 1331 -205 
Q 1030 -320 787 -378 
Q 755 -192 646 -38 
Q 538 115 333 243 
Q 992 314 1597 541 
Q 2202 768 2643 1088 
Q 2413 1344 2227 1670 
Q 2042 1997 1898 2342 
Q 1754 2688 1658 3037 
Q 1562 3386 1517 3693 
Q 1190 3686 902 3673 
Q 614 3661 358 3642 
L 358 4256 
Q 851 4224 1475 4208 
Q 2099 4192 2995 4192 
z
" transform="scale(0.015625)"/>
        <path id="STHeitiTC-Medium-65e7" d="M 1498 4525 
Q 1446 4493 1424 4387 
Q 1402 4282 1402 4038 
L 1402 640 
Q 1402 365 1421 83 
Q 1440 -198 1472 -544 
L 806 -544 
Q 838 -198 851 77 
Q 864 352 864 640 
L 864 3718 
Q 864 4416 806 4678 
Q 973 4659 1126 4652 
Q 1280 4646 1453 4659 
Q 1562 4666 1578 4630 
Q 1594 4595 1498 4525 
z
M 2784 -646 
L 2195 -646 
Q 2227 -339 2236 -73 
Q 2246 192 2246 493 
L 2246 3821 
Q 2246 4058 2230 4291 
Q 2214 4525 2189 4646 
Q 2291 4634 2432 4624 
Q 2573 4614 2774 4611 
Q 2976 4608 3248 4605 
Q 3520 4602 3891 4602 
Q 4262 4602 4537 4605 
Q 4813 4608 5014 4614 
Q 5216 4621 5353 4627 
Q 5491 4634 5587 4646 
Q 5562 4531 5546 4294 
Q 5530 4058 5530 3821 
L 5530 442 
Q 5530 179 5542 -48 
Q 5555 -275 5587 -544 
L 4979 -544 
L 4979 -70 
L 2784 -70 
L 2784 -646 
z
M 4979 4115 
L 2784 4115 
L 2784 2586 
L 4979 2586 
L 4979 4115 
z
M 2784 410 
L 4979 410 
L 4979 2106 
L 2784 2106 
L 2784 410 
z
" transform="scale(0.015625)"/>
        <path id="STHeitiTC-Medium-8bcd" d="M 3194 653 
L 3194 51 
L 2618 51 
Q 2662 256 2678 483 
Q 2694 710 2694 954 
L 2694 1869 
Q 2694 2054 2681 2252 
Q 2669 2451 2650 2560 
Q 2726 2547 2816 2537 
Q 2906 2528 3024 2525 
Q 3142 2522 3302 2518 
Q 3462 2515 3680 2515 
Q 3891 2515 4038 2515 
Q 4186 2515 4291 2521 
Q 4397 2528 4470 2537 
Q 4544 2547 4614 2560 
Q 4589 2458 4573 2269 
Q 4557 2080 4557 1875 
L 4557 1062 
Q 4557 998 4560 905 
Q 4563 813 4572 713 
Q 4582 614 4592 515 
Q 4602 416 4614 333 
L 4058 333 
L 4058 653 
L 3194 653 
z
M 4058 1062 
L 4058 2054 
L 3194 2054 
L 3194 1062 
L 4058 1062 
z
M 1728 -32 
Q 1658 -102 1600 -163 
Q 1542 -224 1494 -285 
Q 1446 -346 1398 -413 
Q 1350 -480 1293 -563 
Q 1203 -397 1110 -269 
Q 1018 -141 902 -32 
Q 1075 134 1148 355 
Q 1222 576 1222 826 
L 1222 2778 
Q 915 2778 742 2768 
Q 570 2758 448 2739 
L 448 3334 
Q 582 3302 736 3292 
Q 890 3283 1107 3283 
Q 1325 3283 1497 3292 
Q 1670 3302 1811 3334 
Q 1779 3174 1763 2969 
Q 1747 2765 1747 2534 
L 1747 627 
Q 1914 794 2045 931 
Q 2176 1069 2298 1216 
Q 2330 1030 2374 921 
Q 2419 813 2502 736 
L 1728 -32 
z
M 5946 4762 
Q 5933 4685 5929 4614 
Q 5926 4544 5920 4461 
Q 5914 4378 5914 4269 
Q 5914 4160 5914 4006 
L 5914 64 
Q 5914 -128 5885 -253 
Q 5856 -378 5747 -454 
Q 5638 -531 5427 -582 
Q 5216 -634 4845 -678 
Q 4845 -506 4774 -304 
Q 4704 -102 4557 70 
Q 4819 38 4976 25 
Q 5133 13 5216 29 
Q 5299 45 5324 93 
Q 5350 141 5350 237 
L 5350 4250 
L 4000 4250 
Q 3776 4250 3593 4243 
Q 3411 4237 3244 4227 
Q 3078 4218 2921 4202 
Q 2765 4186 2598 4160 
L 2598 4742 
Q 2752 4730 2889 4720 
Q 3027 4710 3196 4707 
Q 3366 4704 3577 4704 
Q 3789 4704 4090 4704 
Q 4467 4704 4736 4707 
Q 5005 4710 5209 4713 
Q 5414 4717 5587 4729 
Q 5760 4742 5946 4762 
z
M 4915 3046 
Q 4781 3059 4665 3068 
Q 4550 3078 4422 3081 
Q 4294 3085 4124 3088 
Q 3955 3091 3712 3091 
Q 3475 3091 3302 3088 
Q 3130 3085 2986 3081 
Q 2842 3078 2701 3068 
Q 2560 3059 2387 3046 
L 2387 3616 
Q 2566 3603 2710 3590 
Q 2854 3578 3004 3571 
Q 3155 3565 3321 3561 
Q 3488 3558 3712 3558 
Q 3949 3558 4115 3561 
Q 4282 3565 4413 3568 
Q 4544 3571 4659 3584 
Q 4774 3597 4915 3616 
L 4915 3046 
z
M 1517 3866 
Q 1370 4154 1229 4390 
Q 1088 4627 947 4819 
L 1472 5126 
Q 1619 4922 1766 4691 
Q 1914 4461 2080 4192 
L 1517 3866 
z
" transform="scale(0.015625)"/>
        <path id="STHeitiTC-Medium-8868" d="M 4070 1062 
Q 4301 1203 4461 1308 
Q 4621 1414 4736 1510 
Q 4851 1606 4934 1692 
Q 5018 1779 5094 1882 
Q 5139 1843 5206 1788 
Q 5274 1734 5344 1683 
Q 5414 1632 5478 1587 
Q 5542 1542 5581 1517 
Q 5658 1466 5645 1430 
Q 5632 1395 5523 1402 
Q 5478 1402 5408 1382 
Q 5338 1363 5203 1296 
Q 5069 1229 4851 1110 
Q 4634 992 4288 794 
Q 4563 512 5004 291 
Q 5446 70 5997 19 
Q 5824 -115 5696 -294 
Q 5568 -474 5542 -589 
Q 5024 -403 4611 -124 
Q 4198 154 3891 550 
Q 3680 819 3510 1110 
Q 3341 1402 3181 1715 
L 3629 1946 
Q 3699 1754 3801 1539 
Q 3904 1325 4070 1062 
z
M 2989 3981 
Q 2573 3981 2243 3977 
Q 1914 3974 1638 3968 
Q 1363 3962 1126 3952 
Q 890 3942 666 3930 
L 666 4461 
Q 896 4448 1136 4438 
Q 1376 4429 1648 4425 
Q 1920 4422 2246 4419 
Q 2573 4416 2989 4416 
Q 2982 4672 2969 4861 
Q 2957 5050 2944 5152 
Q 3027 5139 3123 5126 
Q 3219 5114 3305 5107 
Q 3392 5101 3465 5097 
Q 3539 5094 3578 5094 
Q 3648 5101 3670 5072 
Q 3693 5043 3616 4986 
Q 3565 4954 3536 4848 
Q 3507 4742 3507 4653 
L 3507 4416 
Q 4262 4416 4841 4429 
Q 5421 4442 5843 4461 
L 5843 3930 
Q 5421 3955 4841 3968 
Q 4262 3981 3507 3981 
L 3507 3456 
Q 3866 3456 4134 3459 
Q 4403 3462 4624 3468 
Q 4845 3475 5037 3488 
Q 5229 3501 5440 3514 
L 5440 3008 
Q 5229 3021 5037 3030 
Q 4845 3040 4624 3043 
Q 4403 3046 4134 3049 
Q 3866 3053 3507 3053 
L 3507 2554 
Q 4045 2554 4397 2557 
Q 4749 2560 5011 2566 
Q 5274 2573 5510 2582 
Q 5747 2592 6054 2611 
L 6054 2099 
Q 5715 2112 5468 2121 
Q 5222 2131 4944 2134 
Q 4666 2138 4288 2141 
Q 3910 2144 3302 2144 
Q 3142 1920 2908 1677 
Q 2675 1434 2387 1190 
L 2387 -32 
L 3571 454 
Q 3552 173 3654 -19 
Q 3328 -141 3027 -259 
Q 2726 -378 2480 -483 
Q 2234 -589 2051 -675 
Q 1869 -762 1773 -813 
Q 1734 -685 1660 -544 
Q 1587 -403 1504 -301 
Q 1702 -269 1914 -205 
L 1914 838 
Q 1581 614 1254 438 
Q 928 262 704 173 
Q 621 378 541 499 
Q 461 621 339 723 
Q 634 768 950 893 
Q 1267 1018 1574 1200 
Q 1882 1382 2163 1622 
Q 2445 1862 2675 2144 
Q 2195 2144 1888 2141 
Q 1581 2138 1353 2134 
Q 1126 2131 924 2121 
Q 723 2112 448 2099 
L 448 2611 
Q 646 2598 806 2588 
Q 966 2579 1116 2572 
Q 1267 2566 1433 2563 
Q 1600 2560 1814 2557 
Q 2029 2554 2313 2554 
Q 2598 2554 2989 2554 
L 2989 3053 
Q 2643 3053 2374 3049 
Q 2106 3046 1882 3043 
Q 1658 3040 1459 3030 
Q 1261 3021 1056 3008 
L 1056 3514 
Q 1267 3501 1462 3488 
Q 1658 3475 1882 3468 
Q 2106 3462 2374 3459 
Q 2643 3456 2989 3456 
L 2989 3981 
z
" transform="scale(0.015625)"/>
        <path id="STHeitiTC-Medium-ff0c" d="M 3578 2285 
Q 3578 1850 3402 1597 
Q 3226 1344 2912 1293 
L 2912 1587 
Q 3251 1626 3251 2234 
L 2912 2234 
L 2912 2912 
L 3578 2912 
L 3578 2285 
z
" transform="scale(0.015625)"/>
        <path id="STHeitiTC-Medium-591a" d="M 3002 1645 
Q 2957 1600 2912 1558 
Q 2867 1517 2816 1472 
Q 3130 1248 3427 1011 
Q 3725 774 3974 563 
Q 4326 781 4585 1081 
Q 4845 1382 4934 1645 
L 3002 1645 
z
M 1882 3386 
Q 1760 3277 1619 3158 
Q 1478 3040 1318 2925 
Q 1267 3040 1177 3120 
Q 1088 3200 870 3296 
Q 1184 3456 1453 3677 
Q 1722 3898 1936 4147 
Q 2150 4397 2300 4656 
Q 2451 4915 2522 5146 
Q 2694 5075 2860 5017 
Q 3027 4960 3181 4934 
Q 3264 4922 3270 4883 
Q 3277 4845 3181 4806 
Q 3034 4749 2778 4442 
L 3859 4442 
Q 4422 4442 4822 4451 
Q 5222 4461 5491 4493 
Q 5229 4109 5001 3840 
Q 4774 3571 4521 3353 
Q 4269 3136 3952 2937 
Q 3635 2739 3194 2509 
Q 3322 2458 3459 2422 
Q 3597 2387 3699 2374 
Q 3770 2368 3773 2339 
Q 3776 2310 3706 2266 
Q 3578 2189 3430 2074 
L 4422 2074 
Q 4902 2074 5235 2083 
Q 5568 2093 5792 2125 
Q 5581 1664 5373 1312 
Q 5165 960 4925 697 
Q 4685 435 4403 246 
Q 4122 58 3770 -83 
Q 3091 -352 2409 -480 
Q 1728 -608 915 -614 
Q 870 -435 803 -300 
Q 736 -166 602 -19 
Q 774 -70 1126 -67 
Q 1478 -64 1894 -16 
Q 2310 32 2739 121 
Q 3168 211 3501 333 
Q 3302 525 3030 742 
Q 2758 960 2464 1165 
Q 2010 800 1478 525 
Q 1414 634 1299 733 
Q 1184 832 979 928 
Q 1274 1030 1587 1203 
Q 1901 1376 2195 1587 
Q 2490 1798 2736 2032 
Q 2982 2266 3142 2483 
Q 2957 2381 2720 2272 
Q 2483 2163 2208 2064 
Q 1933 1965 1641 1875 
Q 1350 1786 1062 1722 
Q 1018 1875 950 1984 
Q 883 2093 723 2227 
Q 1165 2298 1661 2438 
Q 2157 2579 2637 2778 
Q 2477 2925 2288 3081 
Q 2099 3238 1882 3386 
z
M 2470 4038 
Q 2413 3955 2342 3868 
Q 2272 3782 2189 3693 
Q 2432 3526 2659 3356 
Q 2886 3187 3123 2995 
Q 3322 3098 3530 3232 
Q 3738 3366 3923 3510 
Q 4109 3654 4249 3792 
Q 4390 3930 4461 4038 
L 2470 4038 
z
" transform="scale(0.015625)"/>
        <path id="STHeitiTC-Medium-6e90" d="M 5075 2368 
L 3546 2368 
L 3546 1811 
L 5075 1811 
L 5075 2368 
z
M 5075 3290 
L 3546 3290 
L 3546 2758 
L 5075 2758 
L 5075 3290 
z
M 1542 1619 
Q 1478 1446 1417 1235 
Q 1357 1024 1267 666 
Q 1190 384 1113 77 
Q 1037 -230 973 -518 
Q 794 -403 662 -326 
Q 531 -250 365 -179 
Q 486 45 579 278 
Q 672 512 781 826 
Q 870 1075 937 1350 
Q 1005 1626 1043 1914 
Q 1114 1856 1171 1811 
Q 1229 1766 1286 1734 
Q 1344 1702 1405 1673 
Q 1466 1645 1542 1619 
z
M 3558 762 
Q 3507 749 3440 691 
Q 3373 634 3302 525 
Q 3187 358 3056 150 
Q 2925 -58 2758 -288 
Q 2547 -90 2323 0 
Q 2547 224 2736 499 
Q 2925 774 3078 1082 
Q 3206 1024 3321 973 
Q 3437 922 3552 890 
Q 3654 864 3660 829 
Q 3667 794 3558 762 
z
M 5530 -192 
Q 5389 51 5213 304 
Q 5037 557 4813 800 
L 5248 1075 
Q 5434 826 5635 586 
Q 5837 346 6035 122 
L 5530 -192 
z
M 5952 4294 
Q 5869 4307 5757 4316 
Q 5645 4326 5437 4332 
Q 5229 4339 4889 4342 
Q 4550 4346 4019 4346 
L 2605 4346 
Q 2611 3603 2604 3040 
Q 2598 2477 2563 2041 
Q 2528 1606 2464 1276 
Q 2400 947 2294 662 
Q 2189 378 2045 112 
Q 1901 -154 1702 -448 
Q 1619 -301 1536 -217 
Q 1453 -134 1331 -83 
Q 1606 275 1766 681 
Q 1926 1088 2003 1648 
Q 2080 2208 2089 2976 
Q 2099 3744 2074 4826 
Q 2157 4813 2262 4809 
Q 2368 4806 2569 4800 
Q 2771 4794 3113 4794 
Q 3456 4794 4013 4794 
Q 4550 4794 4889 4797 
Q 5229 4800 5440 4803 
Q 5651 4806 5763 4812 
Q 5875 4819 5952 4826 
L 5952 4294 
z
M 1389 2419 
Q 1018 2733 403 3053 
L 666 3501 
Q 909 3373 1184 3219 
Q 1459 3066 1670 2925 
L 1389 2419 
z
M 1574 3872 
Q 1402 4038 1171 4227 
Q 941 4416 717 4570 
L 1043 5011 
Q 1286 4845 1507 4681 
Q 1728 4518 1920 4358 
L 1574 3872 
z
M 3834 3680 
Q 3910 3891 3945 4038 
Q 3981 4186 3994 4333 
Q 4166 4262 4310 4211 
Q 4454 4160 4576 4128 
Q 4646 4109 4649 4089 
Q 4653 4070 4595 4038 
Q 4538 4006 4486 3939 
Q 4435 3872 4339 3680 
Q 4640 3680 4838 3680 
Q 5037 3680 5174 3683 
Q 5312 3686 5401 3689 
Q 5491 3693 5581 3699 
Q 5568 3603 5565 3392 
Q 5562 3181 5562 2938 
L 5562 2189 
Q 5562 1926 5568 1734 
Q 5574 1542 5587 1414 
Q 5530 1421 5450 1424 
Q 5370 1427 5248 1427 
Q 5126 1427 4944 1427 
Q 4762 1427 4493 1427 
L 4493 -96 
Q 4493 -243 4467 -342 
Q 4442 -442 4346 -502 
Q 4250 -563 4064 -604 
Q 3878 -646 3558 -678 
Q 3546 -512 3510 -387 
Q 3475 -262 3379 -115 
Q 3584 -134 3705 -131 
Q 3827 -128 3894 -93 
Q 3962 -58 3981 16 
Q 4000 90 4000 205 
L 4000 1427 
Q 3776 1427 3622 1427 
Q 3469 1427 3357 1427 
Q 3245 1427 3171 1424 
Q 3098 1421 3040 1414 
Q 3053 1542 3059 1744 
Q 3066 1946 3066 2189 
L 3066 2938 
Q 3066 3181 3062 3385 
Q 3059 3590 3046 3699 
Q 3149 3686 3321 3686 
Q 3494 3686 3834 3680 
z
" transform="scale(0.015625)"/>
        <path id="STHeitiTC-Medium-7efc" d="M 3085 1274 
Q 3136 1235 3203 1196 
Q 3270 1158 3337 1126 
Q 3405 1094 3469 1072 
Q 3533 1050 3578 1043 
Q 3667 1030 3667 985 
Q 3667 941 3597 915 
Q 3565 902 3497 838 
Q 3430 774 3392 704 
Q 3347 627 3264 502 
Q 3181 378 3078 234 
Q 2976 90 2861 -64 
Q 2746 -218 2630 -365 
Q 2522 -282 2394 -218 
Q 2266 -154 2138 -122 
Q 2438 96 2659 451 
Q 2880 806 3085 1274 
z
M 4064 4320 
Q 4013 4678 3917 5005 
L 4461 5094 
Q 4493 4922 4534 4723 
Q 4576 4525 4627 4320 
Q 4902 4320 5094 4323 
Q 5286 4326 5430 4329 
Q 5574 4333 5683 4339 
Q 5792 4346 5888 4358 
L 5888 3277 
L 5363 3277 
L 5363 3898 
L 3206 3898 
L 3206 3258 
L 2733 3258 
L 2733 4358 
Q 2835 4346 2944 4339 
Q 3053 4333 3206 4329 
Q 3360 4326 3565 4323 
Q 3770 4320 4064 4320 
z
M 4237 2643 
Q 3834 2643 3539 2630 
Q 3245 2618 3034 2579 
L 3034 3130 
Q 3258 3091 3546 3078 
Q 3834 3066 4237 3066 
Q 4646 3066 4937 3082 
Q 5229 3098 5440 3130 
L 5440 2579 
Q 5229 2618 4937 2630 
Q 4646 2643 4237 2643 
z
M 5504 -179 
Q 5357 147 5181 448 
Q 5005 749 4832 973 
L 5261 1203 
Q 5466 960 5670 662 
Q 5875 365 5997 109 
L 5504 -179 
z
M 3987 1638 
Q 3584 1632 3293 1619 
Q 3002 1606 2758 1581 
L 2758 2106 
Q 3040 2067 3411 2051 
Q 3782 2035 4326 2035 
Q 4851 2035 5222 2054 
Q 5594 2074 5882 2106 
L 5882 1581 
Q 5613 1613 5283 1622 
Q 4954 1632 4493 1638 
L 4493 32 
Q 4493 -173 4464 -304 
Q 4435 -435 4339 -512 
Q 4243 -589 4057 -624 
Q 3872 -659 3558 -685 
Q 3565 -557 3526 -403 
Q 3488 -250 3379 -58 
Q 3584 -90 3705 -93 
Q 3827 -96 3888 -77 
Q 3949 -58 3968 -10 
Q 3987 38 3987 115 
L 3987 1638 
z
M 2451 800 
Q 2413 672 2406 534 
Q 2400 397 2413 269 
Q 1690 147 1226 25 
Q 762 -96 550 -211 
Q 538 -51 502 125 
Q 467 301 397 512 
Q 666 486 1190 553 
Q 1715 621 2451 800 
z
M 1510 2816 
Q 1133 2784 915 2742 
Q 698 2701 570 2662 
Q 544 2790 502 2924 
Q 461 3059 416 3149 
Q 506 3206 611 3324 
Q 717 3443 835 3660 
Q 954 3878 1085 4204 
Q 1216 4531 1357 4998 
Q 1510 4922 1664 4861 
Q 1818 4800 1933 4768 
Q 2022 4742 2022 4707 
Q 2022 4672 1952 4646 
Q 1914 4634 1866 4586 
Q 1818 4538 1722 4387 
Q 1626 4237 1459 3942 
Q 1293 3648 1005 3142 
L 1734 3194 
Q 1843 3398 1939 3603 
Q 2035 3808 2099 3974 
Q 2227 3885 2364 3801 
Q 2502 3718 2592 3686 
Q 2669 3654 2665 3622 
Q 2662 3590 2586 3571 
Q 2566 3565 2512 3501 
Q 2458 3437 2320 3241 
Q 2182 3046 1936 2684 
Q 1690 2323 1293 1722 
Q 1459 1728 1596 1737 
Q 1734 1747 1868 1763 
Q 2003 1779 2144 1798 
Q 2285 1818 2451 1850 
Q 2445 1728 2457 1613 
Q 2470 1498 2490 1382 
L 1261 1274 
Q 1037 1254 899 1219 
Q 762 1184 678 1152 
Q 678 1286 627 1427 
Q 576 1568 506 1664 
Q 582 1683 675 1750 
Q 768 1818 889 1949 
Q 1011 2080 1161 2291 
Q 1312 2502 1510 2816 
z
" transform="scale(0.015625)"/>
        <path id="STHeitiTC-Medium-5408" d="M 4614 2502 
Q 4499 2515 4374 2524 
Q 4250 2534 4086 2537 
Q 3923 2541 3705 2544 
Q 3488 2547 3187 2547 
Q 2886 2547 2665 2544 
Q 2445 2541 2275 2537 
Q 2106 2534 1981 2524 
Q 1856 2515 1741 2502 
L 1741 3046 
Q 1856 3034 1984 3027 
Q 2112 3021 2278 3014 
Q 2445 3008 2665 3005 
Q 2886 3002 3187 3002 
Q 3488 3002 3705 3005 
Q 3923 3008 4086 3011 
Q 4250 3014 4374 3024 
Q 4499 3034 4614 3046 
L 4614 2502 
z
M 3149 4518 
Q 2918 4224 2630 3926 
Q 2342 3629 2028 3341 
Q 1715 3053 1385 2787 
Q 1056 2522 749 2298 
Q 717 2342 662 2403 
Q 608 2464 541 2521 
Q 474 2579 400 2630 
Q 326 2682 262 2720 
Q 493 2816 790 3008 
Q 1088 3200 1392 3443 
Q 1696 3686 1974 3952 
Q 2253 4218 2438 4467 
Q 2675 4774 2771 4937 
Q 2867 5101 2880 5203 
Q 2944 5178 3037 5146 
Q 3130 5114 3226 5085 
Q 3322 5056 3405 5037 
Q 3488 5018 3539 5011 
Q 3610 4998 3616 4960 
Q 3622 4922 3565 4909 
Q 3488 4883 3430 4838 
Q 3648 4486 3981 4185 
Q 4314 3885 4688 3657 
Q 5062 3430 5440 3286 
Q 5818 3142 6131 3104 
Q 6022 2995 5910 2819 
Q 5798 2643 5747 2496 
Q 5338 2675 4957 2889 
Q 4576 3104 4240 3357 
Q 3904 3610 3625 3901 
Q 3347 4192 3149 4518 
z
M 4550 358 
L 4550 1376 
L 1843 1376 
L 1843 358 
L 4550 358 
z
M 1843 -83 
L 1843 -659 
L 1235 -659 
Q 1267 -435 1280 -256 
Q 1293 -77 1293 141 
L 1293 1350 
Q 1293 1517 1286 1638 
Q 1280 1760 1267 1862 
Q 1344 1856 1526 1849 
Q 1709 1843 1965 1840 
Q 2221 1837 2537 1837 
Q 2854 1837 3194 1837 
Q 3507 1837 3820 1837 
Q 4134 1837 4403 1840 
Q 4672 1843 4864 1849 
Q 5056 1856 5126 1862 
Q 5114 1779 5107 1667 
Q 5101 1555 5101 1370 
L 5101 160 
Q 5101 -58 5113 -246 
Q 5126 -435 5158 -640 
L 4550 -640 
L 4550 -83 
L 1843 -83 
z
" transform="scale(0.015625)"/>
        <path id="STHeitiTC-Medium-4f30" d="M 1203 2720 
Q 1101 2573 998 2432 
Q 896 2291 800 2163 
Q 742 2285 640 2390 
Q 538 2496 403 2592 
Q 538 2739 675 2915 
Q 813 3091 937 3283 
Q 1062 3475 1168 3673 
Q 1274 3872 1350 4058 
Q 1427 4256 1484 4409 
Q 1542 4563 1584 4694 
Q 1626 4826 1658 4947 
Q 1690 5069 1722 5197 
Q 1869 5088 2025 5017 
Q 2182 4947 2304 4928 
Q 2374 4915 2377 4889 
Q 2381 4864 2304 4781 
Q 2259 4730 2211 4656 
Q 2163 4582 2096 4451 
Q 2029 4320 1936 4128 
Q 1843 3936 1715 3648 
L 1715 -621 
L 1133 -621 
Q 1165 -352 1184 -9 
Q 1203 333 1203 672 
L 1203 2720 
z
M 3091 -64 
L 3091 -608 
L 2522 -608 
Q 2534 -442 2540 -282 
Q 2547 -122 2547 58 
L 2547 1920 
Q 2547 2150 2522 2278 
Q 2598 2272 2704 2269 
Q 2810 2266 2957 2262 
Q 3104 2259 3302 2259 
Q 3501 2259 3763 2259 
L 3763 3373 
Q 3437 3373 3197 3366 
Q 2957 3360 2771 3350 
Q 2586 3341 2438 3331 
Q 2291 3322 2144 3309 
L 2144 3885 
Q 2298 3872 2448 3862 
Q 2598 3853 2780 3846 
Q 2963 3840 3200 3833 
Q 3437 3827 3763 3827 
L 3763 4397 
Q 3763 4608 3753 4813 
Q 3744 5018 3725 5139 
Q 3789 5126 3885 5116 
Q 3981 5107 4077 5104 
Q 4173 5101 4256 5101 
Q 4339 5101 4378 5101 
Q 4448 5107 4461 5075 
Q 4474 5043 4416 4992 
Q 4301 4896 4301 4634 
L 4301 3827 
Q 4653 3827 4896 3830 
Q 5139 3834 5324 3840 
Q 5510 3846 5664 3859 
Q 5818 3872 5990 3885 
L 5990 3309 
Q 5818 3328 5664 3337 
Q 5510 3347 5321 3356 
Q 5133 3366 4889 3369 
Q 4646 3373 4301 3373 
L 4301 2259 
Q 4595 2259 4806 2259 
Q 5018 2259 5168 2262 
Q 5318 2266 5417 2269 
Q 5517 2272 5587 2278 
Q 5568 2202 5561 2118 
Q 5555 2035 5555 1920 
L 5555 45 
Q 5555 -128 5558 -243 
Q 5562 -358 5574 -518 
L 5011 -518 
L 5011 -64 
L 3091 -64 
z
M 5011 390 
L 5011 1805 
L 3091 1805 
L 3091 390 
L 5011 390 
z
" transform="scale(0.015625)"/>
        <path id="STHeitiTC-Medium-8ba1" d="M 1946 109 
Q 1869 32 1782 -67 
Q 1696 -166 1616 -265 
Q 1536 -365 1472 -454 
Q 1408 -544 1370 -602 
Q 1280 -474 1161 -330 
Q 1043 -186 922 -77 
Q 1043 64 1091 208 
Q 1139 352 1139 595 
L 1139 2675 
Q 832 2675 621 2662 
Q 410 2650 262 2630 
L 262 3251 
Q 429 3226 617 3216 
Q 806 3206 1018 3206 
Q 1210 3206 1411 3219 
Q 1613 3232 1766 3251 
Q 1728 3085 1705 2867 
Q 1683 2650 1683 2419 
L 1683 550 
Q 1773 640 1875 752 
Q 1978 864 2080 985 
Q 2182 1107 2272 1228 
Q 2362 1350 2432 1459 
Q 2470 1293 2544 1117 
Q 2618 941 2688 845 
L 1946 109 
z
M 1523 3750 
Q 1414 4006 1254 4284 
Q 1094 4563 890 4832 
L 1427 5133 
Q 1581 4858 1757 4582 
Q 1933 4307 2099 4083 
L 1523 3750 
z
M 4646 3245 
Q 5126 3251 5488 3264 
Q 5850 3277 6138 3302 
L 6138 2662 
Q 5850 2682 5488 2698 
Q 5126 2714 4646 2714 
L 4646 442 
Q 4646 198 4659 -74 
Q 4672 -346 4704 -710 
L 3994 -710 
Q 4026 -365 4038 -86 
Q 4051 192 4051 442 
L 4051 2720 
Q 3475 2714 3068 2701 
Q 2662 2688 2336 2662 
L 2336 3302 
Q 2662 3277 3068 3264 
Q 3475 3251 4051 3245 
L 4051 4224 
Q 4051 4557 4032 4825 
Q 4013 5094 3981 5203 
Q 4166 5171 4339 5155 
Q 4512 5139 4691 5152 
Q 4813 5158 4829 5120 
Q 4845 5082 4736 5018 
Q 4685 4986 4665 4896 
Q 4646 4806 4646 4544 
L 4646 3245 
z
" transform="scale(0.015625)"/>
       </defs>
       <use xlink:href="#STHeitiTC-Medium-4e2d"/>
       <use xlink:href="#STHeitiTC-Medium-6587" x="99.999985"/>
       <use xlink:href="#STHeitiTC-Medium-ff08" x="199.999969"/>
       <use xlink:href="#STHeitiTC-Medium-65e7" x="299.999954"/>
       <use xlink:href="#STHeitiTC-Medium-8bcd" x="399.999939"/>
       <use xlink:href="#STHeitiTC-Medium-8868" x="499.999924"/>
       <use xlink:href="#STHeitiTC-Medium-ff0c" x="599.999908"/>
       <use xlink:href="#STHeitiTC-Medium-591a" x="699.999893"/>
       <use xlink:href="#STHeitiTC-Medium-6e90" x="799.999878"/>
       <use xlink:href="#STHeitiTC-Medium-7efc" x="899.999863"/>
       <use xlink:href="#STHeitiTC-Medium-5408" x="999.999847"/>
       <use xlink:href="#STHeitiTC-Medium-4f30" x="1099.999832"/>
       <use xlink:href="#STHeitiTC-Medium-8ba1" x="1199.999817"/>
       <use xlink:href="#STHeitiTC-Medium-ff09" x="1299.999802"/>
      </g>
     </g>
    </g>
    <g id="ytick_3">
     <g id="line2d_15">
      <g>
       <use xlink:href="#m3c15ebf56b" x="147.2" y="86.189219" style="fill: #333333; stroke: #333333; stroke-width: 0.8"/>
      </g>
     </g>
     <g id="text_9">
      <!-- 印地语 -->
      <g style="fill: #333333" transform="translate(111.7 90.036719) scale(0.095 -0.095)">
       <defs>
        <path id="STHeitiTC-Medium-5370" d="M 979 4058 
Q 979 4230 972 4358 
Q 966 4486 954 4595 
Q 1171 4614 1414 4662 
Q 1658 4710 1907 4780 
Q 2157 4851 2400 4937 
Q 2643 5024 2861 5120 
Q 2886 5056 2931 4973 
Q 2976 4890 3024 4813 
Q 3072 4736 3117 4672 
Q 3162 4608 3194 4576 
Q 3334 4435 3181 4454 
Q 3078 4467 2665 4419 
Q 2253 4371 1498 4205 
L 1498 3027 
Q 1805 3027 2035 3030 
Q 2266 3034 2445 3040 
Q 2624 3046 2761 3056 
Q 2899 3066 3021 3078 
L 3021 2490 
Q 2893 2502 2755 2512 
Q 2618 2522 2438 2528 
Q 2259 2534 2032 2537 
Q 1805 2541 1498 2541 
L 1498 800 
Q 1709 902 1923 1011 
Q 2138 1120 2326 1225 
Q 2515 1331 2668 1420 
Q 2822 1510 2918 1574 
Q 2912 1427 2941 1286 
Q 2970 1146 3021 1056 
L 1645 314 
Q 1517 243 1353 131 
Q 1190 19 1043 -134 
Q 1005 6 893 169 
Q 781 333 640 422 
Q 717 454 803 486 
Q 890 518 979 563 
L 979 4058 
z
M 5760 4768 
Q 5734 4621 5724 4467 
Q 5715 4314 5715 4141 
L 5715 954 
Q 5715 806 5676 697 
Q 5638 589 5523 512 
Q 5408 435 5190 374 
Q 4973 314 4621 262 
Q 4608 442 4544 630 
Q 4480 819 4339 986 
Q 4614 947 4777 940 
Q 4941 934 5024 963 
Q 5107 992 5129 1056 
Q 5152 1120 5152 1216 
L 5152 4198 
L 3994 4198 
L 3994 -717 
L 3392 -717 
Q 3405 -538 3414 -390 
Q 3424 -243 3430 -92 
Q 3437 58 3440 221 
Q 3443 384 3443 595 
L 3443 4141 
Q 3443 4506 3398 4768 
Q 3802 4710 4659 4710 
Q 5024 4710 5289 4723 
Q 5555 4736 5760 4768 
z
" transform="scale(0.015625)"/>
        <path id="STHeitiTC-Medium-5730" d="M 4282 3546 
Q 4486 3616 4684 3693 
Q 4883 3770 5062 3840 
Q 5242 3910 5386 3977 
Q 5530 4045 5626 4096 
L 5542 1875 
Q 5536 1702 5510 1590 
Q 5485 1478 5401 1392 
Q 5318 1306 5158 1235 
Q 4998 1165 4730 1088 
Q 4704 1254 4643 1411 
Q 4582 1568 4461 1715 
Q 4653 1696 4771 1702 
Q 4890 1709 4954 1741 
Q 5018 1773 5040 1833 
Q 5062 1894 5062 1984 
L 5101 3334 
L 4282 3053 
L 4282 1555 
Q 4282 1389 4291 1149 
Q 4301 909 4320 666 
L 3750 666 
Q 3776 902 3789 1145 
Q 3802 1389 3802 1555 
L 3802 2886 
L 3110 2643 
L 3110 544 
Q 3110 397 3123 310 
Q 3136 224 3184 173 
Q 3232 122 3315 99 
Q 3398 77 3546 70 
Q 3635 64 3801 67 
Q 3968 70 4160 73 
Q 4352 77 4544 86 
Q 4736 96 4877 109 
Q 5037 122 5136 157 
Q 5235 192 5296 285 
Q 5357 378 5395 538 
Q 5434 698 5472 966 
Q 5587 787 5737 700 
Q 5888 614 6067 589 
Q 5958 269 5884 89 
Q 5811 -90 5718 -182 
Q 5626 -275 5494 -310 
Q 5363 -346 5146 -365 
Q 4998 -378 4768 -390 
Q 4538 -403 4275 -409 
Q 4013 -416 3747 -416 
Q 3482 -416 3258 -410 
Q 3059 -403 2937 -368 
Q 2816 -333 2749 -253 
Q 2682 -173 2659 -38 
Q 2637 96 2637 301 
L 2637 2470 
Q 2451 2394 2329 2336 
Q 2208 2278 2138 2234 
L 1984 2797 
Q 2080 2816 2253 2864 
Q 2426 2912 2637 2982 
Q 2637 3206 2630 3446 
Q 2624 3686 2617 3897 
Q 2611 4109 2598 4265 
Q 2586 4422 2579 4486 
Q 2726 4461 2867 4454 
Q 3008 4448 3200 4461 
Q 3302 4474 3312 4416 
Q 3322 4358 3232 4326 
Q 3181 4301 3145 4227 
Q 3110 4154 3110 4096 
L 3110 3142 
L 3802 3379 
L 3802 4435 
Q 3802 4672 3782 4886 
Q 3763 5101 3731 5184 
Q 3917 5158 4057 5148 
Q 4198 5139 4371 5139 
Q 4499 5139 4505 5110 
Q 4512 5082 4416 5037 
Q 4346 5005 4314 4905 
Q 4282 4806 4282 4678 
L 4282 3546 
z
M 1472 902 
Q 1658 973 1837 1053 
Q 2016 1133 2221 1242 
Q 2170 1030 2182 899 
Q 2195 768 2272 646 
Q 2112 614 1885 531 
Q 1658 448 1418 339 
Q 1178 230 947 105 
Q 717 -19 550 -128 
Q 512 38 454 233 
Q 397 429 333 582 
Q 672 653 986 742 
L 986 2893 
Q 781 2893 617 2880 
Q 454 2867 326 2848 
L 326 3411 
Q 467 3386 624 3376 
Q 781 3366 986 3360 
Q 986 4122 970 4512 
Q 954 4902 922 5037 
Q 1184 4992 1530 4992 
Q 1606 4992 1616 4960 
Q 1626 4928 1555 4890 
Q 1510 4864 1491 4822 
Q 1472 4781 1472 4730 
L 1472 3360 
Q 1664 3366 1814 3376 
Q 1965 3386 2093 3411 
L 2093 2848 
Q 1965 2867 1814 2876 
Q 1664 2886 1472 2893 
L 1472 902 
z
" transform="scale(0.015625)"/>
       </defs>
       <use xlink:href="#STHeitiTC-Medium-5370"/>
       <use xlink:href="#STHeitiTC-Medium-5730" x="99.999985"/>
       <use xlink:href="#STHeitiTC-Medium-8bed" x="199.999969"/>
      </g>
     </g>
    </g>
    <g id="ytick_4">
     <g id="line2d_16">
      <g>
       <use xlink:href="#m3c15ebf56b" x="147.2" y="31.807657" style="fill: #333333; stroke: #333333; stroke-width: 0.8"/>
      </g>
     </g>
     <g id="text_10">
      <!-- 缅甸语等极端语言 -->
      <g style="fill: #333333" transform="translate(64.2 35.655157) scale(0.095 -0.095)">
       <defs>
        <path id="STHeitiTC-Medium-7f05" d="M 2208 166 
Q 1830 83 1571 22 
Q 1312 -38 1126 -89 
Q 941 -141 806 -189 
Q 672 -237 538 -294 
Q 538 6 378 326 
Q 525 333 678 349 
Q 832 365 1037 403 
Q 1242 442 1523 506 
Q 1805 570 2208 678 
Q 2157 576 2166 438 
Q 2176 301 2208 166 
z
M 3821 1331 
L 4397 1331 
L 4397 2067 
L 3821 2067 
L 3821 1331 
z
M 4397 173 
L 4397 947 
L 3821 947 
L 3821 173 
L 4397 173 
z
M 5235 3200 
L 4845 3200 
L 4845 173 
L 5235 173 
L 5235 3200 
z
M 2957 3200 
L 2957 173 
L 3373 173 
L 3373 3200 
L 2957 3200 
z
M 3821 3200 
L 3821 2438 
L 4397 2438 
L 4397 3200 
L 3821 3200 
z
M 3808 4288 
Q 3360 4282 3017 4269 
Q 2675 4256 2406 4224 
L 2406 4755 
Q 2746 4723 3190 4707 
Q 3635 4691 4256 4691 
Q 4870 4691 5296 4707 
Q 5722 4723 6061 4755 
L 6061 4224 
Q 5741 4256 5344 4272 
Q 4947 4288 4390 4288 
Q 4339 4096 4300 3920 
Q 4262 3744 4211 3558 
Q 4512 3558 4745 3561 
Q 4979 3565 5168 3571 
Q 5357 3578 5507 3590 
Q 5658 3603 5792 3616 
Q 5766 3430 5753 3206 
Q 5741 2982 5741 2797 
L 5741 333 
Q 5741 45 5753 -163 
Q 5766 -371 5798 -595 
L 5235 -595 
L 5235 -218 
L 2957 -218 
L 2957 -659 
L 2400 -659 
Q 2432 -454 2448 -230 
Q 2464 -6 2464 211 
L 2464 2784 
Q 2464 2867 2461 2982 
Q 2458 3098 2451 3216 
Q 2445 3334 2435 3443 
Q 2426 3552 2419 3622 
Q 2547 3603 2678 3593 
Q 2810 3584 2960 3577 
Q 3110 3571 3296 3564 
Q 3482 3558 3712 3558 
Q 3789 3942 3808 4288 
z
M 979 2701 
Q 845 2688 742 2659 
Q 640 2630 544 2592 
Q 480 2854 333 3066 
Q 416 3136 518 3280 
Q 621 3424 742 3657 
Q 864 3891 1008 4224 
Q 1152 4557 1325 5011 
Q 1632 4826 1850 4781 
Q 1946 4762 1949 4726 
Q 1952 4691 1869 4659 
Q 1856 4653 1840 4637 
Q 1824 4621 1785 4563 
Q 1747 4506 1680 4403 
Q 1613 4301 1507 4131 
Q 1402 3962 1254 3709 
Q 1107 3456 902 3104 
L 1632 3181 
Q 1741 3379 1814 3539 
Q 1888 3699 1939 3840 
Q 2208 3590 2349 3539 
Q 2426 3507 2419 3475 
Q 2413 3443 2342 3418 
Q 2323 3411 2268 3337 
Q 2214 3264 2086 3059 
Q 1958 2854 1740 2496 
Q 1523 2138 1184 1568 
Q 1472 1587 1744 1619 
Q 2016 1651 2195 1696 
Q 2144 1587 2128 1468 
Q 2112 1350 2125 1242 
L 1158 1139 
Q 1082 1126 941 1097 
Q 800 1069 691 1024 
Q 672 1190 630 1302 
Q 589 1414 518 1510 
Q 595 1542 659 1590 
Q 723 1638 812 1763 
Q 902 1888 1036 2118 
Q 1171 2349 1395 2746 
L 979 2701 
z
" transform="scale(0.015625)"/>
        <path id="STHeitiTC-Medium-7538" d="M 1888 915 
L 2726 915 
L 2726 1651 
L 1888 1651 
L 1888 915 
z
M 1888 2746 
L 1888 2061 
L 2726 2061 
L 2726 2746 
L 1888 2746 
z
M 4038 2746 
L 3181 2746 
L 3181 2061 
L 4038 2061 
L 4038 2746 
z
M 4038 1651 
L 3181 1651 
L 3181 915 
L 4038 915 
L 4038 1651 
z
M 1414 2976 
Q 1235 2733 1062 2528 
Q 954 2618 803 2691 
Q 653 2765 499 2803 
Q 762 2989 1014 3305 
Q 1267 3622 1536 4122 
Q 1664 4365 1773 4633 
Q 1882 4902 1952 5158 
Q 2125 5088 2320 5037 
Q 2515 4986 2701 4954 
Q 2771 4941 2774 4896 
Q 2778 4851 2694 4832 
Q 2637 4819 2531 4691 
Q 2426 4563 2285 4339 
L 4051 4339 
Q 4794 4339 5238 4352 
Q 5683 4365 5901 4384 
Q 5888 3738 5875 3085 
Q 5862 2432 5846 1869 
Q 5830 1306 5811 890 
Q 5792 474 5773 301 
Q 5741 26 5693 -144 
Q 5645 -314 5526 -416 
Q 5408 -518 5197 -576 
Q 4986 -634 4627 -685 
Q 4538 -314 4275 -13 
Q 4557 -38 4742 -41 
Q 4928 -45 5040 -6 
Q 5152 32 5203 115 
Q 5254 198 5267 339 
Q 5280 506 5293 666 
Q 5306 826 5315 1021 
Q 5325 1216 5328 1462 
Q 5331 1709 5337 2048 
Q 5344 2387 5347 2828 
Q 5350 3270 5350 3859 
L 2003 3859 
Q 1907 3693 1795 3523 
Q 1683 3354 1555 3181 
Q 1798 3168 2134 3161 
Q 2470 3155 2963 3155 
Q 3539 3155 3900 3164 
Q 4262 3174 4525 3194 
Q 4512 3117 4512 2989 
Q 4512 2861 4512 2688 
L 4512 1120 
Q 4512 954 4515 826 
Q 4518 698 4521 592 
Q 4525 486 4531 393 
Q 4538 301 4544 198 
L 4038 198 
L 4038 506 
L 1888 506 
L 1888 -70 
L 1382 -70 
Q 1389 32 1395 125 
Q 1402 218 1408 323 
Q 1414 429 1414 557 
Q 1414 685 1414 851 
L 1414 2976 
z
" transform="scale(0.015625)"/>
        <path id="STHeitiTC-Medium-7b49" d="M 2342 -250 
Q 2234 -51 2122 102 
Q 2010 256 1850 416 
L 2330 685 
Q 2464 550 2585 406 
Q 2707 262 2854 58 
L 2342 -250 
z
M 1594 4090 
Q 1395 3827 1219 3632 
Q 1043 3437 915 3309 
Q 838 3398 729 3462 
Q 621 3526 435 3565 
Q 570 3629 755 3808 
Q 941 3987 1120 4220 
Q 1299 4454 1449 4707 
Q 1600 4960 1670 5184 
Q 1792 5120 1952 5062 
Q 2112 5005 2246 4973 
Q 2317 4960 2320 4937 
Q 2323 4915 2253 4883 
Q 2138 4826 1894 4506 
L 2253 4506 
Q 2470 4506 2633 4509 
Q 2797 4512 2912 4521 
Q 3027 4531 3104 4540 
Q 3181 4550 3232 4570 
L 3232 4026 
Q 3168 4038 3104 4048 
Q 3040 4058 2953 4064 
Q 2867 4070 2758 4076 
Q 2650 4083 2496 4090 
Q 2534 3891 2579 3708 
Q 2624 3526 2669 3424 
L 2074 3373 
Q 2080 3501 2064 3699 
Q 2048 3898 2016 4090 
L 1594 4090 
z
M 3891 4096 
Q 3808 3955 3741 3836 
Q 3674 3718 3603 3590 
Q 3347 3731 3110 3802 
Q 3226 3872 3363 4054 
Q 3501 4237 3619 4454 
Q 3738 4672 3824 4886 
Q 3910 5101 3930 5235 
Q 4045 5178 4221 5133 
Q 4397 5088 4531 5075 
Q 4602 5069 4605 5040 
Q 4608 5011 4538 4979 
Q 4480 4954 4393 4854 
Q 4307 4755 4147 4512 
L 4749 4512 
Q 5037 4512 5238 4525 
Q 5440 4538 5577 4557 
Q 5715 4576 5798 4598 
Q 5882 4621 5933 4640 
L 5933 4045 
Q 5805 4058 5581 4074 
Q 5357 4090 5018 4096 
Q 5050 3904 5101 3725 
Q 5152 3546 5222 3418 
L 4640 3322 
Q 4646 3456 4614 3664 
Q 4582 3872 4531 4096 
L 3891 4096 
z
M 3002 2637 
Q 2432 2630 2022 2614 
Q 1613 2598 1280 2573 
L 1280 3117 
Q 1619 3091 2025 3078 
Q 2432 3066 3002 3059 
Q 2995 3219 2985 3328 
Q 2976 3437 2963 3520 
Q 3104 3494 3261 3488 
Q 3418 3482 3584 3488 
Q 3750 3488 3610 3386 
Q 3571 3354 3548 3283 
Q 3526 3213 3526 3059 
Q 4096 3066 4509 3078 
Q 4922 3091 5248 3117 
L 5248 2573 
Q 4922 2598 4509 2614 
Q 4096 2630 3526 2637 
L 3526 2144 
Q 3942 2144 4288 2147 
Q 4634 2150 4928 2156 
Q 5222 2163 5478 2176 
Q 5734 2189 5965 2202 
L 5965 1664 
Q 5690 1677 5386 1689 
Q 5082 1702 4717 1709 
L 4717 1210 
Q 4858 1210 5011 1216 
Q 5165 1222 5302 1232 
Q 5440 1242 5545 1254 
Q 5651 1267 5696 1280 
L 5696 730 
Q 5651 736 5545 745 
Q 5440 755 5302 758 
Q 5165 762 5011 768 
Q 4858 774 4717 774 
L 4717 13 
Q 4717 -179 4688 -297 
Q 4659 -416 4544 -489 
Q 4429 -563 4208 -601 
Q 3987 -640 3603 -672 
Q 3584 -493 3529 -361 
Q 3475 -230 3366 -83 
Q 3635 -122 3798 -122 
Q 3962 -122 4048 -83 
Q 4134 -45 4163 32 
Q 4192 109 4192 224 
L 4192 774 
L 1926 774 
Q 1786 774 1626 771 
Q 1466 768 1315 758 
Q 1165 749 1040 739 
Q 915 730 845 723 
L 845 1280 
Q 915 1261 1040 1248 
Q 1165 1235 1315 1225 
Q 1466 1216 1626 1213 
Q 1786 1210 1926 1210 
L 4192 1210 
L 4192 1715 
Q 3590 1715 3145 1715 
Q 2701 1715 2368 1712 
Q 2035 1709 1788 1702 
Q 1542 1696 1344 1689 
Q 1146 1683 966 1670 
Q 787 1658 582 1645 
L 582 2202 
Q 813 2189 1065 2176 
Q 1318 2163 1609 2156 
Q 1901 2150 2243 2147 
Q 2586 2144 3002 2144 
L 3002 2637 
z
" transform="scale(0.015625)"/>
        <path id="STHeitiTC-Medium-6781" d="M 2163 1549 
Q 2080 1760 1993 1945 
Q 1907 2131 1786 2330 
L 2157 2554 
Q 2298 2330 2394 2163 
Q 2490 1997 2586 1798 
L 2163 1549 
z
M 1248 2221 
Q 1120 1830 960 1481 
Q 800 1133 582 749 
Q 493 896 416 1021 
Q 339 1146 237 1280 
Q 538 1594 778 2077 
Q 1018 2560 1210 3315 
Q 941 3309 733 3293 
Q 525 3277 365 3251 
L 365 3808 
Q 538 3776 752 3763 
Q 966 3750 1248 3744 
L 1248 3776 
Q 1248 4051 1245 4262 
Q 1242 4474 1235 4634 
Q 1229 4794 1219 4918 
Q 1210 5043 1197 5152 
Q 1357 5120 1488 5110 
Q 1619 5101 1766 5101 
Q 1888 5101 1897 5049 
Q 1907 4998 1805 4941 
Q 1722 4890 1722 4768 
L 1722 3744 
Q 2010 3750 2230 3763 
Q 2451 3776 2618 3808 
L 2618 3251 
Q 2451 3277 2230 3293 
Q 2010 3309 1722 3309 
L 1722 544 
Q 1722 288 1738 -29 
Q 1754 -346 1786 -659 
L 1184 -659 
Q 1216 -346 1232 -29 
Q 1248 288 1248 544 
L 1248 2221 
z
M 3130 4294 
Q 2970 4282 2810 4269 
Q 2650 4256 2509 4237 
L 2509 4806 
Q 2784 4787 3158 4774 
Q 3533 4762 3974 4762 
Q 4339 4762 4691 4771 
Q 5043 4781 5446 4806 
L 4992 3194 
L 5363 3194 
Q 5549 3194 5805 3245 
Q 5728 2810 5641 2451 
Q 5555 2093 5446 1789 
Q 5338 1485 5206 1232 
Q 5075 979 4915 749 
Q 5203 403 5516 230 
Q 5830 58 6157 13 
Q 6067 -128 5996 -288 
Q 5926 -448 5862 -640 
Q 5715 -576 5542 -470 
Q 5370 -365 5197 -237 
Q 5024 -109 4867 38 
Q 4710 186 4595 339 
Q 4365 83 4035 -185 
Q 3706 -454 3360 -659 
Q 3264 -538 3133 -435 
Q 3002 -333 2854 -243 
Q 3283 -77 3644 179 
Q 4006 435 4326 762 
Q 4237 928 4160 1101 
Q 4083 1274 4016 1459 
Q 3949 1645 3891 1859 
Q 3834 2074 3782 2323 
L 4262 2413 
Q 4307 2035 4390 1737 
Q 4474 1440 4621 1171 
Q 4813 1498 4969 1914 
Q 5126 2330 5184 2771 
L 4768 2771 
Q 4602 2771 4352 2733 
L 4774 4307 
L 3661 4307 
Q 3661 3680 3645 3197 
Q 3629 2714 3597 2349 
Q 3565 1984 3523 1728 
Q 3482 1472 3437 1299 
Q 3366 1056 3276 829 
Q 3187 602 3065 381 
Q 2944 160 2777 -57 
Q 2611 -275 2394 -499 
Q 2285 -410 2144 -333 
Q 2003 -256 1856 -211 
Q 2067 -19 2224 153 
Q 2381 326 2505 515 
Q 2630 704 2732 934 
Q 2835 1165 2944 1485 
Q 3046 1798 3104 2486 
Q 3162 3174 3130 4294 
z
" transform="scale(0.015625)"/>
        <path id="STHeitiTC-Medium-7aef" d="M 774 1165 
Q 781 1306 768 1526 
Q 755 1747 726 1971 
Q 698 2195 659 2390 
Q 621 2586 576 2675 
L 1037 2778 
Q 1062 2611 1097 2406 
Q 1133 2202 1165 1990 
Q 1197 1779 1222 1580 
Q 1248 1382 1267 1235 
L 774 1165 
z
M 2400 3347 
Q 2214 3373 1987 3382 
Q 1760 3392 1421 3392 
Q 1088 3392 835 3382 
Q 582 3373 397 3347 
L 397 3827 
Q 768 3789 1434 3789 
Q 1766 3789 1996 3798 
Q 2227 3808 2400 3827 
L 2400 3347 
z
M 1229 3904 
Q 1222 4006 1203 4121 
Q 1184 4237 1152 4358 
Q 1120 4480 1078 4592 
Q 1037 4704 992 4800 
L 1581 4928 
Q 1587 4838 1612 4723 
Q 1638 4608 1673 4486 
Q 1709 4365 1744 4243 
Q 1779 4122 1818 4026 
L 1229 3904 
z
M 3968 4557 
Q 3968 4749 3955 4921 
Q 3942 5094 3930 5184 
Q 4058 5158 4198 5148 
Q 4339 5139 4474 5146 
Q 4602 5152 4506 5050 
Q 4474 5011 4454 4912 
Q 4435 4813 4435 4685 
L 4435 3750 
L 5222 3750 
L 5222 4467 
Q 5222 4730 5190 4877 
Q 5306 4864 5446 4854 
Q 5587 4845 5670 4845 
Q 5728 4845 5737 4816 
Q 5747 4787 5696 4717 
Q 5683 4698 5673 4640 
Q 5664 4582 5661 4435 
Q 5658 4288 5658 4032 
Q 5658 3776 5658 3360 
Q 5395 3373 5049 3382 
Q 4704 3392 4186 3392 
Q 3686 3392 3360 3382 
Q 3034 3373 2810 3360 
Q 2829 3450 2838 3606 
Q 2848 3763 2848 3898 
L 2848 4461 
Q 2848 4589 2835 4701 
Q 2822 4813 2810 4858 
Q 2854 4851 2921 4844 
Q 2989 4838 3059 4838 
Q 3130 4838 3194 4838 
Q 3258 4838 3296 4845 
Q 3443 4864 3328 4736 
Q 3315 4717 3305 4662 
Q 3296 4608 3286 4496 
Q 3277 4384 3273 4201 
Q 3270 4019 3270 3750 
L 3968 3750 
L 3968 4557 
z
M 1363 582 
Q 1427 826 1491 1155 
Q 1555 1485 1609 1817 
Q 1664 2150 1699 2451 
Q 1734 2752 1747 2938 
Q 2029 2835 2278 2835 
Q 2317 2835 2326 2819 
Q 2336 2803 2285 2752 
Q 2272 2739 2224 2566 
Q 2176 2394 2105 2112 
Q 2035 1830 1948 1459 
Q 1862 1088 1766 678 
Q 2099 774 2419 909 
Q 2374 762 2364 621 
Q 2355 480 2368 365 
Q 2157 326 1910 256 
Q 1664 186 1417 106 
Q 1171 26 940 -64 
Q 710 -154 531 -237 
Q 518 -102 483 90 
Q 448 282 410 429 
Q 902 486 1363 582 
z
M 3930 2554 
Q 3494 2547 3168 2534 
Q 2842 2522 2598 2496 
L 2598 3002 
Q 2899 2970 3305 2960 
Q 3712 2950 4288 2950 
Q 4870 2950 5280 2960 
Q 5690 2970 5997 3002 
L 5997 2496 
Q 5709 2528 5325 2541 
Q 4941 2554 4410 2554 
Q 4358 2394 4313 2240 
Q 4269 2086 4237 1907 
Q 4685 1907 5078 1920 
Q 5472 1933 5869 1965 
Q 5856 1850 5846 1677 
Q 5837 1504 5837 1408 
L 5837 -109 
Q 5837 -237 5814 -323 
Q 5792 -410 5709 -474 
Q 5626 -538 5469 -589 
Q 5312 -640 5043 -698 
Q 5030 -557 4988 -413 
Q 4947 -269 4858 -134 
Q 5024 -141 5126 -134 
Q 5229 -128 5283 -105 
Q 5338 -83 5354 -41 
Q 5370 0 5370 64 
L 5370 1562 
L 4819 1562 
L 4819 640 
Q 4819 474 4825 298 
Q 4832 122 4845 -26 
L 4390 -26 
Q 4410 141 4416 307 
Q 4422 474 4422 640 
L 4422 1562 
L 3962 1562 
L 3962 614 
Q 3962 448 3968 269 
Q 3974 90 3987 -51 
L 3526 -51 
Q 3539 83 3548 265 
Q 3558 448 3558 614 
L 3558 1562 
L 3104 1562 
L 3104 -576 
L 2611 -576 
Q 2637 -422 2646 -268 
Q 2656 -115 2656 58 
L 2656 1408 
Q 2656 1555 2643 1702 
Q 2630 1850 2611 1958 
Q 2880 1933 3177 1923 
Q 3475 1914 3814 1907 
Q 3853 2093 3878 2249 
Q 3904 2406 3930 2554 
z
" transform="scale(0.015625)"/>
        <path id="STHeitiTC-Medium-8a00" d="M 4531 1152 
L 1843 1152 
L 1843 371 
L 4531 371 
L 4531 1152 
z
M 1843 -512 
L 1254 -512 
Q 1274 -365 1280 -240 
Q 1286 -115 1286 51 
L 1286 1082 
Q 1286 1254 1276 1401 
Q 1267 1549 1254 1606 
Q 1331 1594 1443 1590 
Q 1555 1587 1763 1580 
Q 1971 1574 2310 1574 
Q 2650 1574 3181 1574 
Q 3712 1574 4051 1574 
Q 4390 1574 4601 1580 
Q 4813 1587 4928 1590 
Q 5043 1594 5120 1606 
Q 5107 1549 5097 1398 
Q 5088 1248 5088 1082 
L 5088 122 
Q 5088 -38 5097 -166 
Q 5107 -294 5120 -442 
L 4531 -442 
L 4531 -58 
L 1843 -58 
L 1843 -512 
z
M 5075 2074 
Q 4896 2080 4697 2089 
Q 4499 2099 4268 2105 
Q 4038 2112 3769 2115 
Q 3501 2118 3174 2118 
Q 2528 2118 2080 2105 
Q 1632 2093 1280 2074 
L 1280 2592 
Q 1459 2579 1657 2569 
Q 1856 2560 2086 2557 
Q 2317 2554 2585 2550 
Q 2854 2547 3174 2547 
Q 3501 2547 3769 2550 
Q 4038 2554 4268 2557 
Q 4499 2560 4697 2569 
Q 4896 2579 5075 2592 
L 5075 2074 
z
M 5088 3014 
Q 4909 3021 4710 3030 
Q 4512 3040 4281 3046 
Q 4051 3053 3782 3056 
Q 3514 3059 3187 3059 
Q 2541 3059 2093 3046 
Q 1645 3034 1293 3014 
L 1293 3533 
Q 1472 3520 1670 3510 
Q 1869 3501 2099 3497 
Q 2330 3494 2598 3491 
Q 2867 3488 3187 3488 
Q 3514 3488 3782 3491 
Q 4051 3494 4281 3497 
Q 4512 3501 4710 3510 
Q 4909 3520 5088 3533 
L 5088 3014 
z
M 2989 4448 
Q 2944 4576 2873 4752 
Q 2803 4928 2739 5037 
L 3424 5165 
Q 3475 5037 3552 4829 
Q 3629 4621 3686 4448 
Q 4429 4448 4979 4461 
Q 5530 4474 5958 4506 
L 5958 3962 
Q 5702 3974 5417 3984 
Q 5133 3994 4800 4000 
Q 4467 4006 4070 4009 
Q 3674 4013 3200 4013 
Q 2726 4013 2329 4009 
Q 1933 4006 1600 4000 
Q 1267 3994 982 3984 
Q 698 3974 442 3962 
L 442 4506 
Q 902 4474 1516 4461 
Q 2131 4448 2989 4448 
z
" transform="scale(0.015625)"/>
       </defs>
       <use xlink:href="#STHeitiTC-Medium-7f05"/>
       <use xlink:href="#STHeitiTC-Medium-7538" x="99.999985"/>
       <use xlink:href="#STHeitiTC-Medium-8bed" x="199.999969"/>
       <use xlink:href="#STHeitiTC-Medium-7b49" x="299.999954"/>
       <use xlink:href="#STHeitiTC-Medium-6781" x="399.999939"/>
       <use xlink:href="#STHeitiTC-Medium-7aef" x="499.999924"/>
       <use xlink:href="#STHeitiTC-Medium-8bed" x="599.999908"/>
       <use xlink:href="#STHeitiTC-Medium-8a00" x="699.999893"/>
      </g>
     </g>
    </g>
   </g>
   <g id="line2d_17">
    <path d="M 147.2 219.56 
L 147.2 7.2 
" clip-path="url(#pecbe8ffa86)" style="fill: none; stroke: #cccccc; stroke-width: 0.8; stroke-linecap: square"/>
   </g>
   <g id="patch_3">
    <path d="M 147.2 219.56 
L 630.64 219.56 
" style="fill: none; stroke: #000000; stroke-width: 0.8; stroke-linejoin: miter; stroke-linecap: square"/>
   </g>
   <g id="patch_4">
    <path d="M 147.2 209.907273 
L 193.241905 209.907273 
L 193.241905 179.997414 
L 147.2 179.997414 
z
" clip-path="url(#pecbe8ffa86)" style="fill: #1a56db"/>
   </g>
   <g id="patch_5">
    <path d="M 147.2 155.525711 
L 239.28381 155.525711 
L 239.28381 125.615851 
L 147.2 125.615851 
z
" clip-path="url(#pecbe8ffa86)" style="fill: #1a56db"/>
   </g>
   <g id="patch_6">
    <path d="M 147.2 101.144149 
L 285.325714 101.144149 
L 285.325714 71.234289 
L 147.2 71.234289 
z
" clip-path="url(#pecbe8ffa86)" style="fill: #1a56db"/>
   </g>
   <g id="patch_7">
    <path d="M 147.2 46.762586 
L 607.619048 46.762586 
L 607.619048 16.852727 
L 147.2 16.852727 
z
" clip-path="url(#pecbe8ffa86)" style="fill: #1a56db"/>
   </g>
   <g id="text_11">
    <!-- 1 -->
    <g style="fill: #333333" transform="translate(197.846095 198.168242) scale(0.095 -0.095)">
     <use xlink:href="#STHeitiTC-Medium-31"/>
    </g>
   </g>
   <g id="text_12">
    <!-- 2 -->
    <g style="fill: #333333" transform="translate(243.888 143.786679) scale(0.095 -0.095)">
     <use xlink:href="#STHeitiTC-Medium-32"/>
    </g>
   </g>
   <g id="text_13">
    <!-- 3 -->
    <g style="fill: #333333" transform="translate(289.929905 89.405117) scale(0.095 -0.095)">
     <defs>
      <path id="STHeitiTC-Medium-33" d="M 2554 3021 
Q 2931 2835 3139 2508 
Q 3347 2182 3347 1798 
Q 3347 1171 2889 720 
Q 2432 269 1734 269 
Q 1107 269 707 630 
Q 307 992 166 1702 
L 710 1702 
Q 832 1248 1072 1027 
Q 1312 806 1757 806 
Q 2202 806 2502 1084 
Q 2803 1363 2803 1785 
Q 2803 2208 2460 2457 
Q 2118 2707 1453 2720 
L 1453 3232 
Q 1933 3232 2227 3437 
Q 2522 3642 2522 3946 
Q 2522 4250 2294 4451 
Q 2067 4653 1744 4653 
Q 1421 4653 1219 4470 
Q 1018 4288 877 3917 
L 320 3917 
Q 461 4531 832 4857 
Q 1203 5184 1747 5184 
Q 2291 5184 2691 4825 
Q 3091 4467 3091 3955 
Q 3091 3366 2554 3021 
z
" transform="scale(0.015625)"/>
     </defs>
     <use xlink:href="#STHeitiTC-Medium-33"/>
    </g>
   </g>
   <g id="text_14">
    <!-- 10 -->
    <g style="fill: #333333" transform="translate(612.223238 35.023555) scale(0.095 -0.095)">
     <use xlink:href="#STHeitiTC-Medium-31"/>
     <use xlink:href="#STHeitiTC-Medium-30" x="55.399994"/>
    </g>
   </g>
  </g>
 </g>
 <defs>
  <clipPath id="pecbe8ffa86">
   <rect x="147.2" y="7.2" width="483.44" height="212.36"/>
  </clipPath>
 </defs>
</svg>
