<?xml version="1.0" encoding="utf-8" standalone="no"?>
<!DOCTYPE svg PUBLIC "-//W3C//DTD SVG 1.1//EN"
  "http://www.w3.org/Graphics/SVG/1.1/DTD/svg11.dtd">
<svg xmlns:xlink="http://www.w3.org/1999/xlink" width="637.743594pt" height="242.718203pt" viewBox="0 0 637.743594 242.718203" xmlns="http://www.w3.org/2000/svg" version="1.1">
 <metadata>
  <rdf:RDF xmlns:dc="http://purl.org/dc/elements/1.1/" xmlns:cc="http://creativecommons.org/ns#" xmlns:rdf="http://www.w3.org/1999/02/22-rdf-syntax-ns#">
   <cc:Work>
    <dc:type rdf:resource="http://purl.org/dc/dcmitype/StillImage"/>
    <dc:date>2026-06-11T08:53:31.119040</dc:date>
    <dc:format>image/svg+xml</dc:format>
    <dc:creator>
     <cc:Agent>
      <dc:title>Matplotlib v3.9.4, https://matplotlib.org/</dc:title>
     </cc:Agent>
    </dc:creator>
   </cc:Work>
  </rdf:RDF>
 </metadata>
 <defs>
  <style type="text/css">*{stroke-linejoin: round; stroke-linecap: butt}</style>
 </defs>
 <g id="figure_1">
  <g id="patch_1">
   <path d="M 0 242.718203 
L 637.743594 242.718203 
L 637.743594 0 
L 0 0 
z
" style="fill: #ffffff"/>
  </g>
  <g id="axes_1">
   <g id="patch_2">
    <path d="M 180.45 219.56 
L 625.28 219.56 
L 625.28 7.2 
L 180.45 7.2 
z
" style="fill: #fafafa"/>
   </g>
   <g id="matplotlib.axis_1">
    <g id="xtick_1">
     <g id="line2d_1">
      <path d="M 180.45 219.56 
L 180.45 7.2 
" clip-path="url(#pa69bbf513b)" style="fill: none; stroke-dasharray: 2.96,1.28; stroke-dashoffset: 0; stroke: #b0b0b0; stroke-opacity: 0.35; stroke-width: 0.8"/>
     </g>
     <g id="line2d_2">
      <defs>
       <path id="m227f9cd85b" d="M 0 0 
L 0 3.5 
" style="stroke: #333333; stroke-width: 0.8"/>
      </defs>
      <g>
       <use xlink:href="#m227f9cd85b" x="180.45" y="219.56" style="fill: #333333; stroke: #333333; stroke-width: 0.8"/>
      </g>
     </g>
     <g id="text_1">
      <!-- 0.00 -->
      <g style="fill: #333333" transform="translate(171.238711 234.255) scale(0.095 -0.095)">
       <defs>
        <path id="STHeitiTC-Medium-30" d="M 1747 5184 
Q 2502 5184 2944 4547 
Q 3386 3910 3386 2723 
Q 3386 1536 2938 902 
Q 2490 269 1738 269 
Q 986 269 573 893 
Q 160 1517 160 2729 
Q 160 3942 573 4563 
Q 986 5184 1747 5184 
z
M 1760 774 
Q 2285 774 2576 1283 
Q 2867 1792 2867 2726 
Q 2867 3661 2566 4160 
Q 2266 4659 1757 4659 
Q 1248 4659 966 4160 
Q 685 3661 685 2714 
Q 685 774 1760 774 
z
" transform="scale(0.015625)"/>
        <path id="STHeitiTC-Medium-2e" d="M 966 1478 
Q 1146 1478 1270 1353 
Q 1395 1229 1395 1046 
Q 1395 864 1270 739 
Q 1146 614 970 614 
Q 794 614 666 742 
Q 538 870 538 1049 
Q 538 1229 666 1353 
Q 794 1478 966 1478 
z
" transform="scale(0.015625)"/>
       </defs>
       <use xlink:href="#STHeitiTC-Medium-30"/>
       <use xlink:href="#STHeitiTC-Medium-2e" x="55.399994"/>
       <use xlink:href="#STHeitiTC-Medium-30" x="83.099991"/>
       <use xlink:href="#STHeitiTC-Medium-30" x="138.499985"/>
      </g>
     </g>
    </g>
    <g id="xtick_2">
     <g id="line2d_3">
      <path d="M 233.405952 219.56 
L 233.405952 7.2 
" clip-path="url(#pa69bbf513b)" style="fill: none; stroke-dasharray: 2.96,1.28; stroke-dashoffset: 0; stroke: #b0b0b0; stroke-opacity: 0.35; stroke-width: 0.8"/>
     </g>
     <g id="line2d_4">
      <g>
       <use xlink:href="#m227f9cd85b" x="233.405952" y="219.56" style="fill: #333333; stroke: #333333; stroke-width: 0.8"/>
      </g>
     </g>
     <g id="text_2">
      <!-- 0.25 -->
      <g style="fill: #333333" transform="translate(224.194663 234.255) scale(0.095 -0.095)">
       <defs>
        <path id="STHeitiTC-Medium-32" d="M 3360 384 
L 90 384 
L 1914 2355 
Q 2374 2842 2566 3123 
Q 2758 3405 2758 3763 
Q 2758 4122 2480 4390 
Q 2202 4659 1789 4659 
Q 1376 4659 1101 4368 
Q 826 4077 787 3539 
L 256 3539 
Q 288 4294 736 4739 
Q 1184 5184 1821 5184 
Q 2458 5184 2877 4771 
Q 3296 4358 3296 3763 
Q 3296 3328 3065 2950 
Q 2835 2573 2368 2074 
L 1293 915 
L 3360 915 
L 3360 384 
z
" transform="scale(0.015625)"/>
        <path id="STHeitiTC-Medium-35" d="M 3194 4544 
L 1549 4544 
L 1338 3398 
Q 1613 3469 1856 3469 
Q 2477 3469 2893 3030 
Q 3309 2592 3309 1913 
Q 3309 1235 2861 752 
Q 2413 269 1664 269 
Q 1088 269 691 621 
Q 294 973 211 1587 
L 768 1587 
Q 851 1203 1107 998 
Q 1363 794 1690 794 
Q 2125 794 2438 1123 
Q 2752 1453 2752 1939 
Q 2752 2374 2480 2656 
Q 2208 2938 1747 2938 
Q 1286 2938 672 2675 
L 1120 5069 
L 3194 5069 
L 3194 4544 
z
" transform="scale(0.015625)"/>
       </defs>
       <use xlink:href="#STHeitiTC-Medium-30"/>
       <use xlink:href="#STHeitiTC-Medium-2e" x="55.399994"/>
       <use xlink:href="#STHeitiTC-Medium-32" x="83.099991"/>
       <use xlink:href="#STHeitiTC-Medium-35" x="138.499985"/>
      </g>
     </g>
    </g>
    <g id="xtick_3">
     <g id="line2d_5">
      <path d="M 286.361905 219.56 
L 286.361905 7.2 
" clip-path="url(#pa69bbf513b)" style="fill: none; stroke-dasharray: 2.96,1.28; stroke-dashoffset: 0; stroke: #b0b0b0; stroke-opacity: 0.35; stroke-width: 0.8"/>
     </g>
     <g id="line2d_6">
      <g>
       <use xlink:href="#m227f9cd85b" x="286.361905" y="219.56" style="fill: #333333; stroke: #333333; stroke-width: 0.8"/>
      </g>
     </g>
     <g id="text_3">
      <!-- 0.50 -->
      <g style="fill: #333333" transform="translate(277.150616 234.255) scale(0.095 -0.095)">
       <use xlink:href="#STHeitiTC-Medium-30"/>
       <use xlink:href="#STHeitiTC-Medium-2e" x="55.399994"/>
       <use xlink:href="#STHeitiTC-Medium-35" x="83.099991"/>
       <use xlink:href="#STHeitiTC-Medium-30" x="138.499985"/>
      </g>
     </g>
    </g>
    <g id="xtick_4">
     <g id="line2d_7">
      <path d="M 339.317857 219.56 
L 339.317857 7.2 
" clip-path="url(#pa69bbf513b)" style="fill: none; stroke-dasharray: 2.96,1.28; stroke-dashoffset: 0; stroke: #b0b0b0; stroke-opacity: 0.35; stroke-width: 0.8"/>
     </g>
     <g id="line2d_8">
      <g>
       <use xlink:href="#m227f9cd85b" x="339.317857" y="219.56" style="fill: #333333; stroke: #333333; stroke-width: 0.8"/>
      </g>
     </g>
     <g id="text_4">
      <!-- 0.75 -->
      <g style="fill: #333333" transform="translate(330.106568 234.255) scale(0.095 -0.095)">
       <defs>
        <path id="STHeitiTC-Medium-37" d="M 3443 5069 
L 934 250 
L 480 493 
L 2592 4544 
L 416 4544 
L 416 5069 
L 3443 5069 
z
" transform="scale(0.015625)"/>
       </defs>
       <use xlink:href="#STHeitiTC-Medium-30"/>
       <use xlink:href="#STHeitiTC-Medium-2e" x="55.399994"/>
       <use xlink:href="#STHeitiTC-Medium-37" x="83.099991"/>
       <use xlink:href="#STHeitiTC-Medium-35" x="138.499985"/>
      </g>
     </g>
    </g>
    <g id="xtick_5">
     <g id="line2d_9">
      <path d="M 392.27381 219.56 
L 392.27381 7.2 
" clip-path="url(#pa69bbf513b)" style="fill: none; stroke-dasharray: 2.96,1.28; stroke-dashoffset: 0; stroke: #b0b0b0; stroke-opacity: 0.35; stroke-width: 0.8"/>
     </g>
     <g id="line2d_10">
      <g>
       <use xlink:href="#m227f9cd85b" x="392.27381" y="219.56" style="fill: #333333; stroke: #333333; stroke-width: 0.8"/>
      </g>
     </g>
     <g id="text_5">
      <!-- 1.00 -->
      <g style="fill: #333333" transform="translate(383.06252 234.255) scale(0.095 -0.095)">
       <defs>
        <path id="STHeitiTC-Medium-31" d="M 2131 384 
L 1587 384 
L 1587 4531 
L 826 4531 
L 1158 5069 
L 2131 5069 
L 2131 384 
z
" transform="scale(0.015625)"/>
       </defs>
       <use xlink:href="#STHeitiTC-Medium-31"/>
       <use xlink:href="#STHeitiTC-Medium-2e" x="55.399994"/>
       <use xlink:href="#STHeitiTC-Medium-30" x="83.099991"/>
       <use xlink:href="#STHeitiTC-Medium-30" x="138.499985"/>
      </g>
     </g>
    </g>
    <g id="xtick_6">
     <g id="line2d_11">
      <path d="M 445.229762 219.56 
L 445.229762 7.2 
" clip-path="url(#pa69bbf513b)" style="fill: none; stroke-dasharray: 2.96,1.28; stroke-dashoffset: 0; stroke: #b0b0b0; stroke-opacity: 0.35; stroke-width: 0.8"/>
     </g>
     <g id="line2d_12">
      <g>
       <use xlink:href="#m227f9cd85b" x="445.229762" y="219.56" style="fill: #333333; stroke: #333333; stroke-width: 0.8"/>
      </g>
     </g>
     <g id="text_6">
      <!-- 1.25 -->
      <g style="fill: #333333" transform="translate(436.018473 234.255) scale(0.095 -0.095)">
       <use xlink:href="#STHeitiTC-Medium-31"/>
       <use xlink:href="#STHeitiTC-Medium-2e" x="55.399994"/>
       <use xlink:href="#STHeitiTC-Medium-32" x="83.099991"/>
       <use xlink:href="#STHeitiTC-Medium-35" x="138.499985"/>
      </g>
     </g>
    </g>
    <g id="xtick_7">
     <g id="line2d_13">
      <path d="M 498.185714 219.56 
L 498.185714 7.2 
" clip-path="url(#pa69bbf513b)" style="fill: none; stroke-dasharray: 2.96,1.28; stroke-dashoffset: 0; stroke: #b0b0b0; stroke-opacity: 0.35; stroke-width: 0.8"/>
     </g>
     <g id="line2d_14">
      <g>
       <use xlink:href="#m227f9cd85b" x="498.185714" y="219.56" style="fill: #333333; stroke: #333333; stroke-width: 0.8"/>
      </g>
     </g>
     <g id="text_7">
      <!-- 1.50 -->
      <g style="fill: #333333" transform="translate(488.974425 234.255) scale(0.095 -0.095)">
       <use xlink:href="#STHeitiTC-Medium-31"/>
       <use xlink:href="#STHeitiTC-Medium-2e" x="55.399994"/>
       <use xlink:href="#STHeitiTC-Medium-35" x="83.099991"/>
       <use xlink:href="#STHeitiTC-Medium-30" x="138.499985"/>
      </g>
     </g>
    </g>
    <g id="xtick_8">
     <g id="line2d_15">
      <path d="M 551.141667 219.56 
L 551.141667 7.2 
" clip-path="url(#pa69bbf513b)" style="fill: none; stroke-dasharray: 2.96,1.28; stroke-dashoffset: 0; stroke: #b0b0b0; stroke-opacity: 0.35; stroke-width: 0.8"/>
     </g>
     <g id="line2d_16">
      <g>
       <use xlink:href="#m227f9cd85b" x="551.141667" y="219.56" style="fill: #333333; stroke: #333333; stroke-width: 0.8"/>
      </g>
     </g>
     <g id="text_8">
      <!-- 1.75 -->
      <g style="fill: #333333" transform="translate(541.930378 234.255) scale(0.095 -0.095)">
       <use xlink:href="#STHeitiTC-Medium-31"/>
       <use xlink:href="#STHeitiTC-Medium-2e" x="55.399994"/>
       <use xlink:href="#STHeitiTC-Medium-37" x="83.099991"/>
       <use xlink:href="#STHeitiTC-Medium-35" x="138.499985"/>
      </g>
     </g>
    </g>
    <g id="xtick_9">
     <g id="line2d_17">
      <path d="M 604.097619 219.56 
L 604.097619 7.2 
" clip-path="url(#pa69bbf513b)" style="fill: none; stroke-dasharray: 2.96,1.28; stroke-dashoffset: 0; stroke: #b0b0b0; stroke-opacity: 0.35; stroke-width: 0.8"/>
     </g>
     <g id="line2d_18">
      <g>
       <use xlink:href="#m227f9cd85b" x="604.097619" y="219.56" style="fill: #333333; stroke: #333333; stroke-width: 0.8"/>
      </g>
     </g>
     <g id="text_9">
      <!-- 2.00 -->
      <g style="fill: #333333" transform="translate(594.88633 234.255) scale(0.095 -0.095)">
       <use xlink:href="#STHeitiTC-Medium-32"/>
       <use xlink:href="#STHeitiTC-Medium-2e" x="55.399994"/>
       <use xlink:href="#STHeitiTC-Medium-30" x="83.099991"/>
       <use xlink:href="#STHeitiTC-Medium-30" x="138.499985"/>
      </g>
     </g>
    </g>
   </g>
   <g id="matplotlib.axis_2">
    <g id="ytick_1">
     <g id="line2d_19">
      <defs>
       <path id="m64265a2906" d="M 0 0 
L -3.5 0 
" style="stroke: #333333; stroke-width: 0.8"/>
      </defs>
      <g>
       <use xlink:href="#m64265a2906" x="180.45" y="194.952343" style="fill: #333333; stroke: #333333; stroke-width: 0.8"/>
      </g>
     </g>
     <g id="text_10">
      <!-- 英语（基准） -->
      <g style="fill: #333333" transform="translate(116.45 198.799843) scale(0.095 -0.095)">
       <defs>
        <path id="STHeitiTC-Medium-82f1" d="M 1350 2554 
Q 1350 2880 1312 3034 
Q 1427 3027 1552 3020 
Q 1677 3014 1862 3011 
Q 2048 3008 2313 3008 
Q 2579 3008 2976 3008 
Q 2976 3194 2969 3363 
Q 2963 3533 2950 3661 
Q 3283 3603 3622 3622 
Q 3680 3629 3689 3593 
Q 3699 3558 3648 3526 
Q 3584 3482 3545 3338 
Q 3507 3194 3494 3008 
Q 3891 3008 4153 3008 
Q 4416 3008 4595 3011 
Q 4774 3014 4896 3020 
Q 5018 3027 5133 3034 
Q 5114 2950 5104 2838 
Q 5094 2726 5094 2554 
L 5094 1594 
Q 5382 1600 5568 1609 
Q 5754 1619 5914 1645 
L 5914 1088 
Q 5824 1101 5657 1110 
Q 5491 1120 5225 1129 
Q 4960 1139 4576 1142 
Q 4192 1146 3661 1146 
Q 3840 890 4032 698 
Q 4224 506 4480 371 
Q 4736 237 5088 157 
Q 5440 77 5946 45 
Q 5818 -122 5760 -282 
Q 5702 -442 5670 -614 
Q 5101 -480 4704 -320 
Q 4307 -160 4032 48 
Q 3757 256 3581 525 
Q 3405 794 3270 1146 
Q 3187 890 3024 646 
Q 2861 403 2582 172 
Q 2304 -58 1894 -275 
Q 1485 -493 902 -698 
Q 755 -403 467 -186 
Q 992 -51 1385 96 
Q 1779 243 2054 406 
Q 2330 570 2502 752 
Q 2675 934 2771 1146 
Q 2227 1146 1830 1142 
Q 1434 1139 1158 1129 
Q 883 1120 713 1110 
Q 544 1101 454 1088 
L 454 1645 
Q 621 1619 838 1606 
Q 1056 1594 1350 1587 
L 1350 2554 
z
M 1837 2598 
L 1837 1587 
L 2886 1587 
Q 2925 1830 2944 2086 
Q 2963 2342 2970 2598 
L 1837 2598 
z
M 4602 2598 
L 3469 2598 
Q 3450 2310 3424 2060 
Q 3398 1811 3366 1587 
L 4602 1587 
L 4602 2598 
z
M 3930 4448 
Q 3942 4646 3929 4825 
Q 3917 5005 3891 5133 
Q 4019 5120 4182 5107 
Q 4346 5094 4467 5094 
Q 4525 5094 4534 5065 
Q 4544 5037 4493 5005 
Q 4448 4979 4435 4953 
Q 4422 4928 4422 4870 
L 4422 4448 
Q 4883 4448 5273 4461 
Q 5664 4474 5946 4499 
L 5946 3955 
Q 5664 3981 5273 3993 
Q 4883 4006 4422 4013 
L 4422 3443 
L 3930 3443 
L 3930 4013 
L 2522 4013 
L 2522 3443 
L 2035 3443 
L 2035 4013 
Q 1594 4006 1213 3993 
Q 832 3981 563 3955 
L 563 4499 
Q 845 4467 1219 4457 
Q 1594 4448 2035 4448 
Q 2048 4646 2035 4825 
Q 2022 5005 1997 5133 
Q 2125 5120 2285 5107 
Q 2445 5094 2566 5094 
Q 2624 5094 2633 5065 
Q 2643 5037 2592 5005 
Q 2547 4979 2534 4953 
Q 2522 4928 2522 4870 
L 2522 4448 
L 3930 4448 
z
" transform="scale(0.015625)"/>
        <path id="STHeitiTC-Medium-8bed" d="M 1600 -115 
Q 1523 -198 1468 -259 
Q 1414 -320 1372 -371 
Q 1331 -422 1299 -470 
Q 1267 -518 1235 -576 
Q 1146 -429 1037 -291 
Q 928 -154 832 -58 
Q 890 6 925 57 
Q 960 109 979 166 
Q 998 224 1001 310 
Q 1005 397 1005 531 
L 1005 2618 
Q 723 2618 569 2611 
Q 416 2605 282 2592 
L 282 3174 
Q 416 3162 573 3152 
Q 730 3142 928 3142 
Q 1126 3142 1296 3152 
Q 1466 3162 1587 3174 
Q 1555 3027 1539 2803 
Q 1523 2579 1523 2355 
L 1523 512 
Q 1696 685 1843 864 
Q 1990 1043 2125 1242 
Q 2163 1082 2243 931 
Q 2323 781 2394 710 
L 1600 -115 
z
M 1216 3674 
Q 1114 3923 979 4150 
Q 845 4378 640 4621 
L 1146 4915 
Q 1293 4685 1443 4473 
Q 1594 4262 1779 4019 
L 1216 3674 
z
M 4774 3302 
L 3757 3302 
L 3610 2509 
L 4698 2509 
L 4774 3302 
z
M 3443 4403 
Q 3053 4397 2749 4381 
Q 2445 4365 2202 4339 
L 2202 4934 
Q 2528 4902 2947 4883 
Q 3366 4864 3955 4864 
Q 4550 4864 4976 4880 
Q 5402 4896 5722 4934 
L 5722 4339 
Q 5395 4371 4976 4390 
Q 4557 4410 3962 4410 
L 3846 3770 
Q 4160 3770 4387 3773 
Q 4614 3776 4780 3779 
Q 4947 3782 5075 3792 
Q 5203 3802 5331 3814 
L 5203 2515 
Q 5491 2522 5747 2538 
Q 6003 2554 6118 2573 
L 6118 1978 
Q 6035 1990 5916 2003 
Q 5798 2016 5571 2022 
Q 5344 2029 4976 2032 
Q 4608 2035 4019 2035 
Q 3187 2035 2694 2019 
Q 2202 2003 1997 1978 
L 1997 2573 
Q 2163 2547 2432 2531 
Q 2701 2515 3085 2509 
L 3232 3296 
Q 3021 3283 2819 3270 
Q 2618 3258 2413 3245 
L 2413 3814 
Q 2592 3795 2793 3785 
Q 2995 3776 3322 3770 
Q 3341 3885 3366 4000 
Q 3386 4096 3405 4205 
Q 3424 4314 3443 4403 
z
M 4928 230 
L 4928 1088 
L 3168 1088 
L 3168 230 
L 4928 230 
z
M 3168 -218 
L 3168 -698 
L 2592 -698 
Q 2624 -467 2637 -278 
Q 2650 -90 2650 134 
L 2650 1082 
Q 2650 1254 2646 1363 
Q 2643 1472 2624 1581 
Q 2720 1568 2825 1565 
Q 2931 1562 3084 1555 
Q 3238 1549 3468 1549 
Q 3699 1549 4058 1549 
Q 4410 1549 4643 1549 
Q 4877 1549 5030 1555 
Q 5184 1562 5286 1565 
Q 5389 1568 5478 1581 
Q 5459 1491 5452 1382 
Q 5446 1274 5446 1082 
L 5446 294 
Q 5446 70 5459 -125 
Q 5472 -320 5504 -538 
L 4928 -538 
L 4928 -218 
L 3168 -218 
z
" transform="scale(0.015625)"/>
        <path id="STHeitiTC-Medium-ff08" d="M 5651 -749 
L 5274 -749 
Q 4646 173 4409 835 
Q 4173 1498 4173 2266 
Q 4173 3034 4432 3750 
Q 4691 4467 5254 5267 
L 5645 5267 
Q 5082 4237 4928 3606 
Q 4774 2976 4774 2093 
Q 4774 1472 4953 861 
Q 5133 250 5651 -749 
z
" transform="scale(0.015625)"/>
        <path id="STHeitiTC-Medium-57fa" d="M 3546 934 
Q 3891 941 4137 950 
Q 4384 960 4582 979 
L 4582 525 
Q 4384 544 4137 557 
Q 3891 570 3546 570 
L 3546 26 
Q 4230 26 4729 38 
Q 5229 51 5606 77 
L 5606 -429 
Q 5203 -403 4652 -390 
Q 4102 -378 3328 -378 
Q 2554 -378 2003 -390 
Q 1453 -403 1050 -429 
L 1050 77 
Q 1427 51 1920 38 
Q 2413 26 3091 26 
L 3091 576 
Q 2746 570 2496 557 
Q 2246 544 2042 525 
L 2042 979 
Q 2246 960 2496 950 
Q 2746 941 3091 934 
Q 3091 1120 3078 1293 
Q 3066 1466 3040 1587 
Q 3181 1568 3309 1558 
Q 3437 1549 3603 1549 
Q 3770 1549 3629 1446 
Q 3590 1414 3568 1347 
Q 3546 1280 3546 1222 
L 3546 934 
z
M 2310 2227 
L 4243 2227 
L 4243 2643 
L 2310 2643 
L 2310 2227 
z
M 4243 3725 
L 4243 4115 
L 2310 4115 
L 2310 3725 
L 4243 3725 
z
M 2310 3398 
L 2310 2970 
L 4243 2970 
L 4243 3398 
L 2310 3398 
z
M 2669 1856 
Q 2560 1670 2371 1472 
Q 2182 1274 1939 1072 
Q 1696 870 1405 678 
Q 1114 486 794 314 
Q 685 634 378 742 
Q 864 890 1299 1168 
Q 1734 1446 2182 1850 
Q 1843 1850 1600 1843 
Q 1357 1837 1171 1827 
Q 986 1818 845 1808 
Q 704 1798 570 1786 
L 570 2285 
Q 1171 2234 1837 2227 
L 1837 4115 
Q 1568 4109 1305 4099 
Q 1043 4090 794 4064 
L 794 4576 
Q 1293 4538 1830 4518 
Q 1824 4704 1811 4832 
Q 1798 4960 1766 5069 
Q 1914 5037 2054 5024 
Q 2195 5011 2330 5018 
Q 2400 5024 2416 4992 
Q 2432 4960 2381 4915 
Q 2336 4870 2323 4812 
Q 2310 4755 2310 4653 
L 2310 4518 
L 4237 4518 
Q 4237 4742 4224 4896 
Q 4211 5050 4192 5139 
Q 4499 5082 4781 5082 
Q 4851 5082 4867 5050 
Q 4883 5018 4832 4973 
Q 4755 4915 4729 4854 
Q 4704 4794 4704 4710 
L 4704 4518 
Q 5293 4531 5830 4576 
L 5830 4064 
Q 5562 4090 5280 4099 
Q 4998 4109 4704 4115 
L 4704 2227 
Q 5043 2234 5366 2250 
Q 5690 2266 5997 2285 
L 5997 1786 
Q 5875 1798 5747 1808 
Q 5619 1818 5456 1824 
Q 5293 1830 5081 1836 
Q 4870 1843 4582 1850 
Q 4698 1690 4832 1562 
Q 4966 1434 5136 1328 
Q 5306 1222 5520 1145 
Q 5734 1069 6016 1011 
Q 5741 762 5690 416 
Q 5434 550 5184 713 
Q 4934 877 4720 1059 
Q 4506 1242 4349 1440 
Q 4192 1638 4115 1856 
L 2669 1856 
z
" transform="scale(0.015625)"/>
        <path id="STHeitiTC-Medium-51c6" d="M 1805 1882 
Q 1754 1805 1709 1728 
Q 1664 1651 1616 1548 
Q 1568 1446 1504 1312 
Q 1440 1178 1357 979 
Q 1267 755 1174 512 
Q 1082 269 1005 26 
Q 858 154 704 262 
Q 550 371 384 461 
Q 531 646 662 841 
Q 794 1037 928 1299 
Q 986 1421 1037 1533 
Q 1088 1645 1139 1763 
Q 1190 1882 1241 2016 
Q 1293 2150 1350 2323 
Q 1440 2163 1555 2057 
Q 1670 1952 1805 1882 
z
M 1312 3251 
Q 1178 3482 966 3747 
Q 755 4013 518 4243 
L 1011 4608 
Q 1082 4506 1178 4381 
Q 1274 4256 1379 4125 
Q 1485 3994 1593 3872 
Q 1702 3750 1792 3654 
L 1312 3251 
z
M 4282 4192 
Q 4243 4410 4176 4614 
Q 4109 4819 4019 4960 
L 4570 5126 
Q 4621 4941 4704 4736 
Q 4787 4531 4883 4346 
L 4282 4192 
z
M 2925 1626 
L 4064 1626 
L 4064 2355 
L 2925 2355 
L 2925 1626 
z
M 2925 2822 
L 4064 2822 
L 4064 3584 
L 2925 3584 
L 2925 2822 
z
M 2925 -666 
L 2374 -666 
Q 2394 -531 2410 -412 
Q 2426 -294 2435 -147 
Q 2445 0 2448 201 
Q 2451 403 2451 710 
L 2451 2854 
Q 2342 2682 2224 2506 
Q 2106 2330 1971 2144 
Q 1888 2285 1798 2377 
Q 1709 2470 1587 2547 
Q 1830 2816 2064 3171 
Q 2298 3526 2458 3904 
Q 2586 4230 2682 4576 
Q 2778 4922 2822 5190 
Q 2970 5120 3152 5065 
Q 3334 5011 3443 4998 
Q 3552 4986 3555 4950 
Q 3558 4915 3450 4826 
Q 3430 4806 3401 4768 
Q 3373 4730 3325 4643 
Q 3277 4557 3206 4416 
Q 3136 4275 3034 4051 
L 4403 4051 
Q 4787 4051 5043 4054 
Q 5299 4058 5465 4061 
Q 5632 4064 5725 4070 
Q 5818 4077 5875 4083 
L 5875 3552 
Q 5811 3558 5724 3564 
Q 5638 3571 5491 3574 
Q 5344 3578 5120 3581 
Q 4896 3584 4557 3584 
L 4557 2822 
Q 4832 2822 5024 2825 
Q 5216 2829 5347 2832 
Q 5478 2835 5558 2841 
Q 5638 2848 5690 2854 
L 5690 2323 
Q 5632 2330 5552 2336 
Q 5472 2342 5344 2345 
Q 5216 2349 5024 2352 
Q 4832 2355 4557 2355 
L 4557 1626 
Q 4832 1626 5024 1629 
Q 5216 1632 5344 1635 
Q 5472 1638 5552 1644 
Q 5632 1651 5683 1658 
L 5683 1126 
Q 5626 1133 5549 1139 
Q 5472 1146 5344 1149 
Q 5216 1152 5027 1155 
Q 4838 1158 4557 1158 
L 4557 346 
Q 4934 346 5187 349 
Q 5440 352 5603 355 
Q 5766 358 5862 364 
Q 5958 371 6016 378 
L 6016 -154 
Q 5952 -147 5859 -140 
Q 5766 -134 5603 -131 
Q 5440 -128 5184 -125 
Q 4928 -122 4544 -122 
L 2925 -122 
L 2925 -666 
z
M 2925 346 
L 4064 346 
L 4064 1158 
L 2925 1158 
L 2925 346 
z
" transform="scale(0.015625)"/>
        <path id="STHeitiTC-Medium-ff09" d="M 1120 5267 
Q 1747 4346 1984 3683 
Q 2221 3021 2221 2253 
Q 2221 1485 1961 768 
Q 1702 51 1139 -749 
L 749 -749 
Q 1312 282 1465 912 
Q 1619 1542 1619 2426 
Q 1619 3046 1440 3657 
Q 1261 4269 742 5267 
L 1120 5267 
z
" transform="scale(0.015625)"/>
       </defs>
       <use xlink:href="#STHeitiTC-Medium-82f1"/>
       <use xlink:href="#STHeitiTC-Medium-8bed" x="99.999985"/>
       <use xlink:href="#STHeitiTC-Medium-ff08" x="199.999969"/>
       <use xlink:href="#STHeitiTC-Medium-57fa" x="299.999954"/>
       <use xlink:href="#STHeitiTC-Medium-51c6" x="399.999939"/>
       <use xlink:href="#STHeitiTC-Medium-ff09" x="499.999924"/>
      </g>
     </g>
    </g>
    <g id="ytick_2">
     <g id="line2d_20">
      <g>
       <use xlink:href="#m64265a2906" x="180.45" y="140.570781" style="fill: #333333; stroke: #333333; stroke-width: 0.8"/>
      </g>
     </g>
     <g id="text_11">
      <!-- 中文 · 英语为主的旧词表 -->
      <g style="fill: #333333" transform="translate(64.2 144.447226) scale(0.095 -0.095)">
       <defs>
        <path id="STHeitiTC-Medium-4e2d" d="M 3443 1453 
L 3443 518 
Q 3443 410 3446 266 
Q 3450 122 3459 -35 
Q 3469 -192 3481 -345 
Q 3494 -499 3507 -634 
L 2822 -634 
Q 2835 -518 2844 -364 
Q 2854 -211 2864 -51 
Q 2874 109 2880 259 
Q 2886 410 2886 518 
L 2886 1453 
L 1402 1453 
L 1402 998 
L 813 998 
Q 832 1203 845 1475 
Q 858 1747 858 1952 
L 858 3334 
Q 858 3501 845 3686 
Q 832 3872 813 3994 
Q 1050 3962 1565 3946 
Q 2080 3930 2886 3923 
L 2886 4224 
Q 2886 4448 2883 4605 
Q 2880 4762 2870 4874 
Q 2861 4986 2851 5056 
Q 2842 5126 2822 5178 
Q 3002 5158 3165 5148 
Q 3328 5139 3501 5139 
Q 3578 5139 3587 5116 
Q 3597 5094 3520 5024 
Q 3443 4954 3443 4672 
L 3443 3923 
Q 4288 3930 4816 3946 
Q 5344 3962 5581 3994 
Q 5574 3930 5568 3830 
Q 5562 3731 5558 3622 
Q 5555 3514 5552 3402 
Q 5549 3290 5549 3206 
L 5549 1978 
Q 5549 1786 5558 1526 
Q 5568 1267 5581 1062 
L 4973 1062 
L 4973 1453 
L 3443 1453 
z
M 4973 1933 
L 4973 3443 
L 3443 3443 
L 3443 1933 
L 4973 1933 
z
M 2886 1933 
L 2886 3443 
L 1402 3443 
L 1402 1933 
L 2886 1933 
z
" transform="scale(0.015625)"/>
        <path id="STHeitiTC-Medium-6587" d="M 2061 3699 
Q 2093 3456 2173 3158 
Q 2253 2861 2381 2557 
Q 2509 2253 2681 1965 
Q 2854 1677 3078 1459 
Q 3238 1626 3379 1830 
Q 3520 2035 3632 2304 
Q 3744 2573 3827 2915 
Q 3910 3258 3962 3699 
L 2061 3699 
z
M 2995 4192 
Q 2886 4576 2675 4986 
L 3373 5146 
Q 3398 4941 3452 4685 
Q 3507 4429 3578 4192 
Q 4320 4198 4861 4211 
Q 5402 4224 5837 4256 
L 5837 3642 
Q 5568 3661 5261 3670 
Q 4954 3680 4582 3693 
Q 4435 2771 4156 2156 
Q 3878 1542 3494 1126 
Q 4672 294 6067 333 
Q 5939 230 5852 147 
Q 5766 64 5705 -19 
Q 5645 -102 5603 -185 
Q 5562 -269 5530 -371 
Q 5184 -314 4832 -198 
Q 4480 -83 4157 64 
Q 3834 211 3549 377 
Q 3264 544 3046 717 
Q 2822 550 2534 380 
Q 2246 211 1939 60 
Q 1632 -90 1331 -205 
Q 1030 -320 787 -378 
Q 755 -192 646 -38 
Q 538 115 333 243 
Q 992 314 1597 541 
Q 2202 768 2643 1088 
Q 2413 1344 2227 1670 
Q 2042 1997 1898 2342 
Q 1754 2688 1658 3037 
Q 1562 3386 1517 3693 
Q 1190 3686 902 3673 
Q 614 3661 358 3642 
L 358 4256 
Q 851 4224 1475 4208 
Q 2099 4192 2995 4192 
z
" transform="scale(0.015625)"/>
        <path id="STHeitiTC-Medium-20" transform="scale(0.015625)"/>
        <path id="STHeitiTC-Medium-b7" d="M 1734 1741 
L 928 1741 
L 928 2560 
L 1734 2560 
L 1734 1741 
z
" transform="scale(0.015625)"/>
        <path id="STHeitiTC-Medium-4e3a" d="M 4083 858 
Q 3955 1082 3785 1286 
Q 3616 1491 3418 1677 
L 3891 2022 
Q 4045 1811 4208 1625 
Q 4371 1440 4576 1248 
L 4083 858 
z
M 2112 3706 
Q 2016 3994 1891 4227 
Q 1766 4461 1594 4666 
L 2189 4954 
Q 2266 4806 2333 4688 
Q 2400 4570 2464 4458 
Q 2528 4346 2595 4230 
Q 2662 4115 2746 3974 
L 2112 3706 
z
M 3699 2995 
Q 3533 2349 3331 1869 
Q 3130 1389 2845 985 
Q 2560 582 2160 214 
Q 1760 -154 1197 -563 
Q 1082 -435 934 -326 
Q 787 -218 589 -128 
Q 1050 77 1456 377 
Q 1862 678 2195 1068 
Q 2528 1459 2774 1939 
Q 3021 2419 3168 2995 
Q 2432 2989 1888 2976 
Q 1344 2963 960 2944 
L 960 3533 
Q 1344 3501 1910 3491 
Q 2477 3482 3270 3482 
Q 3309 3731 3341 3977 
Q 3373 4224 3389 4445 
Q 3405 4666 3408 4851 
Q 3411 5037 3405 5165 
Q 3475 5139 3574 5113 
Q 3674 5088 3779 5062 
Q 3885 5037 3987 5017 
Q 4090 4998 4179 4992 
Q 4211 4986 4217 4963 
Q 4224 4941 4205 4928 
Q 4115 4877 4073 4771 
Q 4032 4666 3987 4397 
Q 3974 4333 3958 4227 
Q 3942 4122 3916 3997 
Q 3891 3872 3865 3737 
Q 3840 3603 3814 3482 
Q 4454 3488 4956 3501 
Q 5459 3514 5805 3539 
Q 5779 3136 5744 2707 
Q 5709 2278 5670 1881 
Q 5632 1485 5593 1142 
Q 5555 800 5523 570 
Q 5478 301 5411 86 
Q 5344 -128 5197 -275 
Q 5050 -422 4784 -508 
Q 4518 -595 4083 -608 
Q 4070 -403 3996 -214 
Q 3923 -26 3795 122 
Q 4115 83 4323 96 
Q 4531 109 4656 169 
Q 4781 230 4845 345 
Q 4909 461 4947 627 
Q 4979 774 5011 1030 
Q 5043 1286 5072 1606 
Q 5101 1926 5126 2284 
Q 5152 2643 5171 2995 
L 3699 2995 
z
" transform="scale(0.015625)"/>
        <path id="STHeitiTC-Medium-4e3b" d="M 3130 4218 
Q 3021 4461 2915 4640 
Q 2810 4819 2669 4998 
L 3290 5261 
Q 3437 5056 3549 4886 
Q 3661 4717 3770 4518 
L 3130 4218 
z
M 3494 352 
Q 4262 358 4816 371 
Q 5370 384 5811 416 
L 5811 -230 
Q 5338 -198 4710 -182 
Q 4083 -166 3200 -166 
Q 2317 -166 1689 -182 
Q 1062 -198 589 -230 
L 589 416 
Q 1030 384 1580 371 
Q 2131 358 2899 352 
L 2899 1907 
Q 2317 1901 1901 1888 
Q 1485 1875 1146 1843 
L 1146 2438 
Q 1485 2406 1901 2393 
Q 2317 2381 2899 2374 
L 2899 3642 
Q 2246 3635 1772 3622 
Q 1299 3610 915 3578 
L 915 4186 
Q 1338 4154 1888 4138 
Q 2438 4122 3219 4122 
Q 4000 4122 4550 4138 
Q 5101 4154 5523 4186 
L 5523 3578 
Q 5139 3610 4652 3622 
Q 4166 3635 3494 3642 
L 3494 2374 
Q 4058 2381 4464 2393 
Q 4870 2406 5203 2438 
L 5203 1843 
Q 4870 1875 4464 1888 
Q 4058 1901 3494 1907 
L 3494 352 
z
" transform="scale(0.015625)"/>
        <path id="STHeitiTC-Medium-7684" d="M 4032 1120 
Q 3994 1267 3933 1433 
Q 3872 1600 3798 1760 
Q 3725 1920 3648 2064 
Q 3571 2208 3494 2317 
L 4013 2541 
Q 4064 2413 4131 2265 
Q 4198 2118 4275 1971 
Q 4352 1824 4435 1680 
Q 4518 1536 4595 1414 
L 4032 1120 
z
M 5107 3981 
Q 5293 3981 5501 3997 
Q 5709 4013 5830 4032 
Q 5805 3891 5795 3728 
Q 5786 3565 5779 3398 
L 5645 179 
Q 5638 6 5574 -131 
Q 5510 -269 5369 -374 
Q 5229 -480 4995 -547 
Q 4762 -614 4410 -640 
Q 4390 -467 4300 -265 
Q 4211 -64 4058 70 
Q 4384 32 4585 38 
Q 4787 45 4902 93 
Q 5018 141 5062 233 
Q 5107 326 5114 467 
L 5235 3488 
L 3878 3488 
Q 3770 3174 3654 2937 
Q 3539 2701 3398 2445 
Q 3155 2694 2925 2765 
Q 3200 3130 3417 3702 
Q 3635 4275 3770 5056 
Q 3904 5005 4096 4973 
Q 4288 4941 4435 4947 
Q 4525 4954 4531 4906 
Q 4538 4858 4442 4787 
Q 4371 4736 4262 4512 
Q 4154 4288 4045 3981 
L 5107 3981 
z
M 2304 3469 
L 1152 3469 
L 1152 2342 
L 2304 2342 
L 2304 3469 
z
M 2304 1907 
L 1152 1907 
L 1152 634 
L 2304 634 
L 2304 1907 
z
M 1152 -422 
L 563 -422 
Q 582 -275 592 -156 
Q 602 -38 605 67 
Q 608 173 611 278 
Q 614 384 614 518 
L 614 3379 
Q 614 3526 604 3683 
Q 595 3840 570 3962 
Q 698 3949 870 3939 
Q 1043 3930 1235 3917 
Q 1363 4576 1363 5062 
Q 1517 5024 1709 4998 
Q 1901 4973 2054 4966 
Q 2131 4960 2137 4918 
Q 2144 4877 2067 4806 
Q 2029 4774 1997 4723 
Q 1965 4672 1929 4573 
Q 1894 4474 1849 4317 
Q 1805 4160 1741 3910 
Q 2099 3910 2374 3920 
Q 2650 3930 2893 3962 
Q 2867 3834 2857 3677 
Q 2848 3520 2848 3379 
L 2848 563 
Q 2848 429 2851 320 
Q 2854 211 2860 105 
Q 2867 0 2876 -115 
Q 2886 -230 2899 -371 
L 2304 -371 
L 2304 198 
L 1152 198 
L 1152 -422 
z
" transform="scale(0.015625)"/>
        <path id="STHeitiTC-Medium-65e7" d="M 1498 4525 
Q 1446 4493 1424 4387 
Q 1402 4282 1402 4038 
L 1402 640 
Q 1402 365 1421 83 
Q 1440 -198 1472 -544 
L 806 -544 
Q 838 -198 851 77 
Q 864 352 864 640 
L 864 3718 
Q 864 4416 806 4678 
Q 973 4659 1126 4652 
Q 1280 4646 1453 4659 
Q 1562 4666 1578 4630 
Q 1594 4595 1498 4525 
z
M 2784 -646 
L 2195 -646 
Q 2227 -339 2236 -73 
Q 2246 192 2246 493 
L 2246 3821 
Q 2246 4058 2230 4291 
Q 2214 4525 2189 4646 
Q 2291 4634 2432 4624 
Q 2573 4614 2774 4611 
Q 2976 4608 3248 4605 
Q 3520 4602 3891 4602 
Q 4262 4602 4537 4605 
Q 4813 4608 5014 4614 
Q 5216 4621 5353 4627 
Q 5491 4634 5587 4646 
Q 5562 4531 5546 4294 
Q 5530 4058 5530 3821 
L 5530 442 
Q 5530 179 5542 -48 
Q 5555 -275 5587 -544 
L 4979 -544 
L 4979 -70 
L 2784 -70 
L 2784 -646 
z
M 4979 4115 
L 2784 4115 
L 2784 2586 
L 4979 2586 
L 4979 4115 
z
M 2784 410 
L 4979 410 
L 4979 2106 
L 2784 2106 
L 2784 410 
z
" transform="scale(0.015625)"/>
        <path id="STHeitiTC-Medium-8bcd" d="M 3194 653 
L 3194 51 
L 2618 51 
Q 2662 256 2678 483 
Q 2694 710 2694 954 
L 2694 1869 
Q 2694 2054 2681 2252 
Q 2669 2451 2650 2560 
Q 2726 2547 2816 2537 
Q 2906 2528 3024 2525 
Q 3142 2522 3302 2518 
Q 3462 2515 3680 2515 
Q 3891 2515 4038 2515 
Q 4186 2515 4291 2521 
Q 4397 2528 4470 2537 
Q 4544 2547 4614 2560 
Q 4589 2458 4573 2269 
Q 4557 2080 4557 1875 
L 4557 1062 
Q 4557 998 4560 905 
Q 4563 813 4572 713 
Q 4582 614 4592 515 
Q 4602 416 4614 333 
L 4058 333 
L 4058 653 
L 3194 653 
z
M 4058 1062 
L 4058 2054 
L 3194 2054 
L 3194 1062 
L 4058 1062 
z
M 1728 -32 
Q 1658 -102 1600 -163 
Q 1542 -224 1494 -285 
Q 1446 -346 1398 -413 
Q 1350 -480 1293 -563 
Q 1203 -397 1110 -269 
Q 1018 -141 902 -32 
Q 1075 134 1148 355 
Q 1222 576 1222 826 
L 1222 2778 
Q 915 2778 742 2768 
Q 570 2758 448 2739 
L 448 3334 
Q 582 3302 736 3292 
Q 890 3283 1107 3283 
Q 1325 3283 1497 3292 
Q 1670 3302 1811 3334 
Q 1779 3174 1763 2969 
Q 1747 2765 1747 2534 
L 1747 627 
Q 1914 794 2045 931 
Q 2176 1069 2298 1216 
Q 2330 1030 2374 921 
Q 2419 813 2502 736 
L 1728 -32 
z
M 5946 4762 
Q 5933 4685 5929 4614 
Q 5926 4544 5920 4461 
Q 5914 4378 5914 4269 
Q 5914 4160 5914 4006 
L 5914 64 
Q 5914 -128 5885 -253 
Q 5856 -378 5747 -454 
Q 5638 -531 5427 -582 
Q 5216 -634 4845 -678 
Q 4845 -506 4774 -304 
Q 4704 -102 4557 70 
Q 4819 38 4976 25 
Q 5133 13 5216 29 
Q 5299 45 5324 93 
Q 5350 141 5350 237 
L 5350 4250 
L 4000 4250 
Q 3776 4250 3593 4243 
Q 3411 4237 3244 4227 
Q 3078 4218 2921 4202 
Q 2765 4186 2598 4160 
L 2598 4742 
Q 2752 4730 2889 4720 
Q 3027 4710 3196 4707 
Q 3366 4704 3577 4704 
Q 3789 4704 4090 4704 
Q 4467 4704 4736 4707 
Q 5005 4710 5209 4713 
Q 5414 4717 5587 4729 
Q 5760 4742 5946 4762 
z
M 4915 3046 
Q 4781 3059 4665 3068 
Q 4550 3078 4422 3081 
Q 4294 3085 4124 3088 
Q 3955 3091 3712 3091 
Q 3475 3091 3302 3088 
Q 3130 3085 2986 3081 
Q 2842 3078 2701 3068 
Q 2560 3059 2387 3046 
L 2387 3616 
Q 2566 3603 2710 3590 
Q 2854 3578 3004 3571 
Q 3155 3565 3321 3561 
Q 3488 3558 3712 3558 
Q 3949 3558 4115 3561 
Q 4282 3565 4413 3568 
Q 4544 3571 4659 3584 
Q 4774 3597 4915 3616 
L 4915 3046 
z
M 1517 3866 
Q 1370 4154 1229 4390 
Q 1088 4627 947 4819 
L 1472 5126 
Q 1619 4922 1766 4691 
Q 1914 4461 2080 4192 
L 1517 3866 
z
" transform="scale(0.015625)"/>
        <path id="STHeitiTC-Medium-8868" d="M 4070 1062 
Q 4301 1203 4461 1308 
Q 4621 1414 4736 1510 
Q 4851 1606 4934 1692 
Q 5018 1779 5094 1882 
Q 5139 1843 5206 1788 
Q 5274 1734 5344 1683 
Q 5414 1632 5478 1587 
Q 5542 1542 5581 1517 
Q 5658 1466 5645 1430 
Q 5632 1395 5523 1402 
Q 5478 1402 5408 1382 
Q 5338 1363 5203 1296 
Q 5069 1229 4851 1110 
Q 4634 992 4288 794 
Q 4563 512 5004 291 
Q 5446 70 5997 19 
Q 5824 -115 5696 -294 
Q 5568 -474 5542 -589 
Q 5024 -403 4611 -124 
Q 4198 154 3891 550 
Q 3680 819 3510 1110 
Q 3341 1402 3181 1715 
L 3629 1946 
Q 3699 1754 3801 1539 
Q 3904 1325 4070 1062 
z
M 2989 3981 
Q 2573 3981 2243 3977 
Q 1914 3974 1638 3968 
Q 1363 3962 1126 3952 
Q 890 3942 666 3930 
L 666 4461 
Q 896 4448 1136 4438 
Q 1376 4429 1648 4425 
Q 1920 4422 2246 4419 
Q 2573 4416 2989 4416 
Q 2982 4672 2969 4861 
Q 2957 5050 2944 5152 
Q 3027 5139 3123 5126 
Q 3219 5114 3305 5107 
Q 3392 5101 3465 5097 
Q 3539 5094 3578 5094 
Q 3648 5101 3670 5072 
Q 3693 5043 3616 4986 
Q 3565 4954 3536 4848 
Q 3507 4742 3507 4653 
L 3507 4416 
Q 4262 4416 4841 4429 
Q 5421 4442 5843 4461 
L 5843 3930 
Q 5421 3955 4841 3968 
Q 4262 3981 3507 3981 
L 3507 3456 
Q 3866 3456 4134 3459 
Q 4403 3462 4624 3468 
Q 4845 3475 5037 3488 
Q 5229 3501 5440 3514 
L 5440 3008 
Q 5229 3021 5037 3030 
Q 4845 3040 4624 3043 
Q 4403 3046 4134 3049 
Q 3866 3053 3507 3053 
L 3507 2554 
Q 4045 2554 4397 2557 
Q 4749 2560 5011 2566 
Q 5274 2573 5510 2582 
Q 5747 2592 6054 2611 
L 6054 2099 
Q 5715 2112 5468 2121 
Q 5222 2131 4944 2134 
Q 4666 2138 4288 2141 
Q 3910 2144 3302 2144 
Q 3142 1920 2908 1677 
Q 2675 1434 2387 1190 
L 2387 -32 
L 3571 454 
Q 3552 173 3654 -19 
Q 3328 -141 3027 -259 
Q 2726 -378 2480 -483 
Q 2234 -589 2051 -675 
Q 1869 -762 1773 -813 
Q 1734 -685 1660 -544 
Q 1587 -403 1504 -301 
Q 1702 -269 1914 -205 
L 1914 838 
Q 1581 614 1254 438 
Q 928 262 704 173 
Q 621 378 541 499 
Q 461 621 339 723 
Q 634 768 950 893 
Q 1267 1018 1574 1200 
Q 1882 1382 2163 1622 
Q 2445 1862 2675 2144 
Q 2195 2144 1888 2141 
Q 1581 2138 1353 2134 
Q 1126 2131 924 2121 
Q 723 2112 448 2099 
L 448 2611 
Q 646 2598 806 2588 
Q 966 2579 1116 2572 
Q 1267 2566 1433 2563 
Q 1600 2560 1814 2557 
Q 2029 2554 2313 2554 
Q 2598 2554 2989 2554 
L 2989 3053 
Q 2643 3053 2374 3049 
Q 2106 3046 1882 3043 
Q 1658 3040 1459 3030 
Q 1261 3021 1056 3008 
L 1056 3514 
Q 1267 3501 1462 3488 
Q 1658 3475 1882 3468 
Q 2106 3462 2374 3459 
Q 2643 3456 2989 3456 
L 2989 3981 
z
" transform="scale(0.015625)"/>
       </defs>
       <use xlink:href="#STHeitiTC-Medium-4e2d"/>
       <use xlink:href="#STHeitiTC-Medium-6587" x="99.999985"/>
       <use xlink:href="#STHeitiTC-Medium-20" x="199.999969"/>
       <use xlink:href="#STHeitiTC-Medium-b7" x="224.999954"/>
       <use xlink:href="#STHeitiTC-Medium-20" x="324.999939"/>
       <use xlink:href="#STHeitiTC-Medium-82f1" x="349.999924"/>
       <use xlink:href="#STHeitiTC-Medium-8bed" x="449.999908"/>
       <use xlink:href="#STHeitiTC-Medium-4e3a" x="549.999893"/>
       <use xlink:href="#STHeitiTC-Medium-4e3b" x="649.999878"/>
       <use xlink:href="#STHeitiTC-Medium-7684" x="749.999863"/>
       <use xlink:href="#STHeitiTC-Medium-65e7" x="849.999847"/>
       <use xlink:href="#STHeitiTC-Medium-8bcd" x="949.999832"/>
       <use xlink:href="#STHeitiTC-Medium-8868" x="1049.999817"/>
      </g>
     </g>
    </g>
    <g id="ytick_3">
     <g id="line2d_21">
      <g>
       <use xlink:href="#m64265a2906" x="180.45" y="86.189219" style="fill: #333333; stroke: #333333; stroke-width: 0.8"/>
      </g>
     </g>
     <g id="text_12">
      <!-- 中文 · 前沿模型换新词表后 -->
      <g style="fill: #333333" transform="translate(54.7 90.036719) scale(0.095 -0.095)">
       <defs>
        <path id="STHeitiTC-Medium-524d" d="M 5440 3213 
Q 5395 3181 5382 3155 
Q 5370 3130 5370 3066 
L 5370 -70 
Q 5370 -230 5341 -342 
Q 5312 -454 5209 -528 
Q 5107 -602 4908 -650 
Q 4710 -698 4365 -730 
Q 4346 -544 4294 -393 
Q 4243 -243 4134 -58 
Q 4538 -128 4698 -102 
Q 4858 -77 4858 51 
L 4858 2547 
Q 4858 2835 4842 3033 
Q 4826 3232 4794 3341 
Q 4934 3322 5078 3315 
Q 5222 3309 5382 3322 
Q 5485 3328 5497 3289 
Q 5510 3251 5440 3213 
z
M 4294 2848 
Q 4243 2803 4243 2675 
L 4243 1274 
Q 4243 915 4282 467 
L 3712 467 
Q 3731 710 3740 899 
Q 3750 1088 3750 1274 
L 3750 2317 
Q 3750 2778 3712 3021 
Q 3859 2989 4006 2976 
Q 4154 2963 4262 2970 
Q 4346 2976 4355 2934 
Q 4365 2893 4294 2848 
z
M 2086 4269 
Q 2016 4467 1929 4614 
Q 1843 4762 1702 4928 
L 2272 5190 
Q 2362 5037 2467 4873 
Q 2573 4710 2707 4512 
L 2086 4269 
z
M 1370 -627 
L 832 -627 
Q 864 -275 877 -25 
Q 890 224 890 486 
L 890 2528 
Q 890 2752 877 2934 
Q 864 3117 845 3219 
Q 954 3206 1101 3200 
Q 1248 3194 1411 3187 
Q 1574 3181 1744 3177 
Q 1914 3174 2067 3174 
Q 2381 3174 2688 3187 
Q 2995 3200 3219 3219 
Q 3206 3117 3190 2934 
Q 3174 2752 3174 2528 
L 3174 -6 
Q 3174 -192 3158 -307 
Q 3142 -422 3062 -489 
Q 2982 -557 2816 -595 
Q 2650 -634 2355 -666 
Q 2317 -506 2253 -358 
Q 2189 -211 2080 -38 
Q 2272 -70 2390 -80 
Q 2509 -90 2569 -70 
Q 2630 -51 2652 0 
Q 2675 51 2675 141 
L 2675 698 
L 1370 698 
L 1370 -627 
z
M 2675 2739 
L 1370 2739 
L 1370 2138 
L 2675 2138 
L 2675 2739 
z
M 1370 1120 
L 2675 1120 
L 2675 1722 
L 1370 1722 
L 1370 1120 
z
M 4090 4154 
Q 4691 4166 5155 4179 
Q 5619 4192 5997 4218 
L 5997 3654 
Q 5491 3686 4816 3702 
Q 4141 3718 3200 3718 
Q 2259 3718 1584 3702 
Q 909 3686 403 3654 
L 403 4218 
Q 659 4198 896 4188 
Q 1133 4179 1373 4169 
Q 1613 4160 1869 4157 
Q 2125 4154 2419 4154 
L 3526 4154 
Q 3686 4435 3801 4684 
Q 3917 4934 4019 5190 
Q 4224 5094 4387 5036 
Q 4550 4979 4672 4947 
Q 4723 4934 4723 4905 
Q 4723 4877 4634 4838 
Q 4595 4819 4547 4780 
Q 4499 4742 4435 4668 
Q 4371 4595 4288 4470 
Q 4205 4346 4090 4154 
z
" transform="scale(0.015625)"/>
        <path id="STHeitiTC-Medium-6cbf" d="M 4890 1651 
L 2918 1651 
L 2918 384 
L 4890 384 
L 4890 1651 
z
M 2918 -704 
L 2330 -704 
Q 2355 -448 2364 -265 
Q 2374 -83 2374 147 
L 2374 1568 
Q 2374 1798 2364 1923 
Q 2355 2048 2330 2176 
Q 2432 2163 2557 2150 
Q 2682 2138 2867 2131 
Q 3053 2125 3315 2121 
Q 3578 2118 3955 2118 
Q 4314 2118 4560 2121 
Q 4806 2125 4976 2131 
Q 5146 2138 5261 2150 
Q 5376 2163 5472 2176 
Q 5427 1958 5427 1568 
L 5427 192 
Q 5427 -38 5436 -230 
Q 5446 -422 5472 -653 
L 4890 -653 
L 4890 -77 
L 2918 -77 
L 2918 -704 
z
M 1741 1843 
Q 1632 1510 1542 1209 
Q 1453 909 1373 617 
Q 1293 326 1222 32 
Q 1152 -262 1082 -576 
Q 902 -454 755 -371 
Q 608 -288 435 -218 
Q 653 166 848 739 
Q 1043 1312 1210 2112 
Q 1427 1894 1741 1843 
z
M 1376 2483 
Q 1286 2560 1161 2640 
Q 1037 2720 899 2797 
Q 762 2874 627 2938 
Q 493 3002 378 3046 
L 666 3539 
Q 922 3424 1194 3283 
Q 1466 3142 1664 3027 
L 1376 2483 
z
M 1651 3891 
Q 1581 3981 1481 4080 
Q 1382 4179 1260 4281 
Q 1139 4384 1011 4477 
Q 883 4570 762 4640 
L 1146 5107 
Q 1376 4934 1629 4739 
Q 1882 4544 2054 4403 
L 1651 3891 
z
M 4403 4570 
Q 4403 4723 4393 4825 
Q 4384 4928 4365 5018 
Q 4525 4992 4688 4979 
Q 4851 4966 4992 4973 
Q 5075 4979 5081 4921 
Q 5088 4864 4998 4826 
Q 4909 4787 4909 4634 
L 4909 3539 
Q 4909 3373 4941 3277 
Q 4973 3181 5088 3152 
Q 5203 3123 5424 3158 
Q 5645 3194 6016 3290 
Q 5933 3104 5920 2947 
Q 5907 2790 5939 2662 
Q 5395 2643 5088 2656 
Q 4781 2669 4627 2723 
Q 4474 2778 4438 2886 
Q 4403 2995 4403 3174 
L 4403 4570 
z
M 2765 4941 
Q 2918 4909 3078 4902 
Q 3238 4896 3386 4909 
Q 3501 4922 3517 4870 
Q 3533 4819 3450 4762 
Q 3379 4717 3360 4346 
Q 3341 3930 3296 3651 
Q 3251 3373 3145 3161 
Q 3040 2950 2864 2774 
Q 2688 2598 2419 2394 
Q 2310 2522 2179 2608 
Q 2048 2694 1862 2758 
Q 2125 2867 2310 2998 
Q 2496 3130 2611 3302 
Q 2726 3475 2780 3696 
Q 2835 3917 2835 4205 
Q 2835 4410 2819 4582 
Q 2803 4755 2765 4941 
z
" transform="scale(0.015625)"/>
        <path id="STHeitiTC-Medium-6a21" d="M 5165 3117 
L 3194 3117 
L 3194 2720 
L 5165 2720 
L 5165 3117 
z
M 3194 1952 
L 5165 1952 
L 5165 2355 
L 3194 2355 
L 3194 1952 
z
M 3808 4013 
L 3808 3482 
L 4506 3482 
L 4506 4013 
L 3808 4013 
z
M 4954 4397 
Q 5299 4397 5593 4406 
Q 5888 4416 6093 4448 
L 6093 3955 
Q 5888 3987 5593 4000 
Q 5299 4013 4954 4013 
L 4954 3482 
Q 5152 3488 5318 3494 
Q 5485 3501 5645 3514 
Q 5632 3322 5625 3078 
Q 5619 2835 5619 2560 
Q 5619 2310 5625 2054 
Q 5632 1798 5645 1562 
Q 5510 1568 5372 1574 
Q 5235 1581 5072 1584 
Q 4909 1587 4710 1587 
Q 4512 1587 4262 1587 
Q 4250 1466 4234 1360 
Q 4218 1254 4192 1152 
Q 4570 1152 4848 1155 
Q 5126 1158 5340 1168 
Q 5555 1178 5731 1187 
Q 5907 1197 6080 1216 
L 6080 717 
Q 5914 736 5744 749 
Q 5574 762 5382 768 
Q 5190 774 4963 777 
Q 4736 781 4461 781 
Q 4762 365 5165 189 
Q 5568 13 6131 -26 
Q 5984 -173 5913 -310 
Q 5843 -448 5830 -634 
Q 5530 -544 5267 -425 
Q 5005 -307 4784 -144 
Q 4563 19 4387 240 
Q 4211 461 4083 762 
Q 3994 525 3853 329 
Q 3712 134 3501 -29 
Q 3290 -192 2998 -336 
Q 2707 -480 2323 -614 
Q 2272 -486 2198 -364 
Q 2125 -243 1997 -115 
Q 2349 -38 2614 48 
Q 2880 134 3075 240 
Q 3270 346 3401 480 
Q 3533 614 3610 781 
Q 3117 781 2790 761 
Q 2464 742 2202 717 
L 2202 1216 
Q 2330 1203 2467 1190 
Q 2605 1178 2777 1171 
Q 2950 1165 3180 1158 
Q 3411 1152 3718 1152 
Q 3731 1254 3740 1360 
Q 3750 1466 3750 1587 
Q 3411 1587 3171 1584 
Q 2931 1581 2726 1568 
Q 2739 1798 2742 2054 
Q 2746 2310 2746 2560 
Q 2746 3091 2726 3514 
Q 2874 3501 3024 3494 
Q 3174 3488 3360 3482 
L 3360 4013 
Q 3091 4000 2864 3990 
Q 2637 3981 2470 3955 
L 2470 4448 
Q 2643 4422 2867 4412 
Q 3091 4403 3360 4397 
Q 3360 4787 3322 5050 
Q 3450 5037 3590 5024 
Q 3731 5011 3853 5011 
Q 3910 5011 3920 4982 
Q 3930 4954 3878 4922 
Q 3834 4896 3821 4870 
Q 3808 4845 3808 4787 
L 3808 4397 
L 4506 4397 
Q 4506 4582 4496 4752 
Q 4486 4922 4467 5050 
Q 4595 5037 4736 5024 
Q 4877 5011 4998 5011 
Q 5056 5011 5065 4982 
Q 5075 4954 5024 4922 
Q 4979 4896 4966 4870 
Q 4954 4845 4954 4787 
L 4954 4397 
z
M 2093 2707 
Q 2362 2240 2566 1786 
L 2150 1568 
Q 2093 1792 1977 2048 
Q 1862 2304 1734 2502 
L 2093 2707 
z
M 1235 2253 
Q 1107 1843 966 1523 
Q 826 1203 659 928 
Q 589 1088 496 1174 
Q 403 1261 262 1344 
Q 422 1517 553 1699 
Q 685 1882 800 2112 
Q 915 2342 1017 2633 
Q 1120 2925 1229 3309 
Q 1005 3302 838 3289 
Q 672 3277 525 3258 
L 525 3750 
Q 672 3725 841 3715 
Q 1011 3706 1235 3699 
Q 1235 3962 1232 4163 
Q 1229 4365 1222 4521 
Q 1216 4678 1206 4800 
Q 1197 4922 1184 5030 
Q 1350 5011 1475 5008 
Q 1600 5005 1747 5018 
Q 1843 5030 1859 4985 
Q 1875 4941 1786 4858 
Q 1741 4819 1728 4780 
Q 1715 4742 1715 4685 
L 1715 3699 
Q 1952 3706 2125 3715 
Q 2298 3725 2445 3750 
L 2445 3258 
Q 2298 3277 2125 3289 
Q 1952 3302 1715 3302 
L 1715 595 
Q 1715 339 1731 22 
Q 1747 -294 1779 -608 
L 1171 -608 
Q 1203 -294 1219 22 
Q 1235 339 1235 595 
L 1235 2253 
z
" transform="scale(0.015625)"/>
        <path id="STHeitiTC-Medium-578b" d="M 3008 768 
Q 2381 768 1926 761 
Q 1472 755 1120 723 
L 1120 1248 
Q 1485 1216 1933 1209 
Q 2381 1203 3008 1203 
Q 3002 1382 2992 1529 
Q 2982 1677 2970 1760 
Q 3110 1741 3251 1731 
Q 3392 1722 3558 1722 
Q 3648 1722 3657 1690 
Q 3667 1658 3590 1606 
Q 3558 1581 3529 1513 
Q 3501 1446 3501 1389 
L 3501 1203 
Q 4109 1203 4550 1212 
Q 4992 1222 5338 1248 
L 5338 723 
Q 4992 749 4550 758 
Q 4109 768 3501 768 
L 3501 58 
Q 4346 58 4954 67 
Q 5562 77 6035 102 
L 6035 -416 
Q 5530 -390 4864 -380 
Q 4198 -371 3251 -371 
Q 2310 -371 1641 -384 
Q 973 -397 474 -416 
L 474 102 
Q 922 77 1539 67 
Q 2157 58 3008 58 
L 3008 768 
z
M 5702 4909 
Q 5670 4877 5657 4841 
Q 5645 4806 5645 4723 
L 5645 2208 
Q 5645 2016 5606 1897 
Q 5568 1779 5462 1708 
Q 5357 1638 5174 1603 
Q 4992 1568 4698 1536 
Q 4685 1715 4637 1852 
Q 4589 1990 4461 2138 
Q 4826 2067 4989 2131 
Q 5152 2195 5152 2374 
L 5152 4038 
Q 5152 4198 5149 4355 
Q 5146 4512 5136 4649 
Q 5126 4787 5116 4899 
Q 5107 5011 5101 5082 
Q 5350 5030 5658 5050 
Q 5747 5056 5756 5011 
Q 5766 4966 5702 4909 
z
M 4557 4525 
Q 4518 4493 4518 4352 
L 4518 3226 
Q 4518 3034 4524 2835 
Q 4531 2637 4550 2419 
L 4019 2419 
Q 4038 2650 4044 2842 
Q 4051 3034 4051 3226 
L 4051 3994 
Q 4051 4237 4038 4406 
Q 4026 4576 4000 4698 
Q 4147 4666 4291 4653 
Q 4435 4640 4531 4646 
Q 4602 4653 4614 4611 
Q 4627 4570 4557 4525 
z
M 1894 4410 
L 1894 3405 
L 2605 3405 
L 2605 4410 
L 1894 4410 
z
M 1408 4410 
Q 1197 4416 1005 4403 
Q 813 4390 710 4365 
L 710 4864 
Q 787 4851 899 4844 
Q 1011 4838 1180 4832 
Q 1350 4826 1590 4822 
Q 1830 4819 2163 4819 
Q 2509 4819 2752 4822 
Q 2995 4826 3161 4829 
Q 3328 4832 3433 4841 
Q 3539 4851 3610 4864 
L 3610 4365 
Q 3520 4378 3382 4387 
Q 3245 4397 3078 4403 
L 3078 3405 
Q 3283 3411 3465 3420 
Q 3648 3430 3731 3443 
L 3731 2950 
Q 3642 2963 3462 2969 
Q 3283 2976 3078 2976 
Q 3072 2746 3085 2461 
Q 3098 2176 3123 1901 
L 2560 1901 
Q 2592 2176 2601 2464 
Q 2611 2752 2605 2982 
L 1875 2982 
Q 1818 2541 1542 2137 
Q 1267 1734 710 1402 
Q 582 1670 358 1786 
Q 870 2118 1100 2400 
Q 1331 2682 1389 2982 
Q 1062 2982 825 2972 
Q 589 2963 480 2950 
L 480 3443 
Q 589 3430 838 3417 
Q 1088 3405 1408 3405 
L 1408 4410 
z
" transform="scale(0.015625)"/>
        <path id="STHeitiTC-Medium-6362" d="M 1139 3194 
Q 890 3187 682 3174 
Q 474 3162 333 3136 
L 333 3667 
Q 474 3642 682 3632 
Q 890 3622 1139 3616 
Q 1139 4154 1120 4554 
Q 1101 4954 1069 5094 
Q 1242 5062 1370 5052 
Q 1498 5043 1632 5050 
Q 1939 5062 1728 4890 
Q 1658 4838 1635 4790 
Q 1613 4742 1613 4659 
L 1613 3616 
Q 1798 3622 1948 3635 
Q 2099 3648 2221 3667 
L 2221 3136 
Q 2099 3155 1948 3168 
Q 1798 3181 1613 3187 
L 1613 2125 
Q 1754 2202 1891 2288 
Q 2029 2374 2176 2464 
Q 2157 2317 2182 2185 
Q 2208 2054 2278 1971 
Q 2112 1894 1945 1808 
Q 1779 1722 1613 1632 
L 1613 -115 
Q 1613 -256 1590 -345 
Q 1568 -435 1481 -496 
Q 1395 -557 1219 -601 
Q 1043 -646 736 -704 
Q 698 -538 640 -390 
Q 582 -243 480 -96 
Q 794 -160 966 -105 
Q 1139 -51 1139 96 
L 1139 1376 
Q 941 1261 768 1152 
Q 595 1043 448 934 
Q 429 1120 387 1280 
Q 346 1440 294 1568 
Q 512 1638 723 1715 
Q 934 1792 1139 1888 
L 1139 3194 
z
M 3808 1658 
Q 3846 1926 3856 2249 
Q 3866 2573 3853 2963 
L 3085 2963 
L 3085 1658 
L 3808 1658 
z
M 4339 2963 
Q 4339 2867 4336 2720 
Q 4333 2573 4323 2400 
Q 4314 2227 4301 2038 
Q 4288 1850 4269 1658 
L 5114 1658 
L 5114 2963 
L 4339 2963 
z
M 4294 4525 
Q 4416 4525 4569 4531 
Q 4723 4538 4873 4544 
Q 5024 4550 5145 4560 
Q 5267 4570 5338 4576 
L 4608 3341 
Q 4819 3341 4969 3344 
Q 5120 3347 5235 3353 
Q 5350 3360 5436 3366 
Q 5523 3373 5613 3386 
Q 5594 3200 5594 2893 
L 5594 1664 
Q 5696 1670 5792 1676 
Q 5888 1683 6016 1696 
L 6016 1229 
Q 5894 1242 5798 1251 
Q 5702 1261 5606 1264 
Q 5510 1267 5404 1267 
Q 5299 1267 5165 1267 
L 4499 1267 
Q 4608 966 4736 755 
Q 4864 544 5049 393 
Q 5235 243 5491 140 
Q 5747 38 6106 -38 
Q 6035 -128 5987 -201 
Q 5939 -275 5900 -342 
Q 5862 -410 5830 -477 
Q 5798 -544 5773 -627 
Q 5139 -422 4761 -9 
Q 4384 403 4166 1062 
Q 4109 858 3984 624 
Q 3859 390 3654 156 
Q 3450 -77 3149 -288 
Q 2848 -499 2438 -653 
Q 2355 -506 2265 -400 
Q 2176 -294 2042 -173 
Q 2419 -51 2704 83 
Q 2989 218 3190 387 
Q 3392 557 3523 771 
Q 3654 986 3731 1267 
L 2989 1267 
Q 2790 1267 2569 1260 
Q 2349 1254 2150 1229 
L 2150 1696 
Q 2266 1683 2384 1673 
Q 2502 1664 2624 1664 
L 2624 2893 
Q 2624 3200 2605 3386 
Q 2720 3373 2841 3363 
Q 2963 3354 3129 3347 
Q 3296 3341 3529 3341 
Q 3763 3341 4109 3341 
L 4544 4141 
L 3462 4141 
Q 3334 3885 3209 3705 
Q 3085 3526 2963 3392 
Q 2835 3482 2729 3546 
Q 2624 3610 2515 3642 
Q 2669 3782 2819 3984 
Q 2970 4186 3094 4400 
Q 3219 4614 3305 4822 
Q 3392 5030 3418 5197 
Q 3539 5146 3715 5094 
Q 3891 5043 4019 5011 
Q 4090 4992 4099 4957 
Q 4109 4922 4032 4877 
Q 3962 4838 3869 4748 
Q 3776 4659 3674 4525 
L 4294 4525 
z
" transform="scale(0.015625)"/>
        <path id="STHeitiTC-Medium-65b0" d="M 2157 2982 
Q 2234 3123 2298 3244 
Q 2362 3366 2416 3484 
Q 2470 3603 2521 3731 
Q 2573 3859 2630 4019 
Q 2381 4032 2067 4035 
Q 1754 4038 1478 4026 
Q 1587 3712 1686 3481 
Q 1786 3251 1862 3104 
L 1536 2982 
L 2157 2982 
z
M 2701 4019 
Q 2970 3859 3162 3814 
Q 3213 3802 3219 3770 
Q 3226 3738 3149 3706 
Q 3123 3693 3088 3661 
Q 3053 3629 2992 3549 
Q 2931 3469 2832 3334 
Q 2733 3200 2579 2989 
Q 2662 2989 2771 2992 
Q 2880 2995 2995 3004 
Q 3110 3014 3219 3020 
Q 3328 3027 3418 3040 
L 3418 2528 
Q 3187 2560 2902 2576 
Q 2618 2592 2214 2592 
L 2214 1952 
Q 2496 1952 2749 1965 
Q 3002 1978 3334 2010 
L 3334 1478 
Q 3213 1491 3069 1504 
Q 2925 1517 2777 1526 
Q 2630 1536 2483 1539 
Q 2336 1542 2214 1542 
L 2214 378 
Q 2214 122 2230 -115 
Q 2246 -352 2278 -595 
L 1664 -595 
Q 1696 -346 1709 -112 
Q 1722 122 1722 378 
L 1722 1254 
Q 1523 730 1280 346 
Q 1037 -38 730 -326 
Q 614 -192 496 -102 
Q 378 -13 262 19 
Q 685 326 976 704 
Q 1267 1082 1453 1536 
Q 1165 1536 957 1520 
Q 749 1504 557 1478 
L 557 2010 
Q 794 1978 1088 1965 
Q 1382 1952 1722 1952 
L 1722 2592 
Q 1574 2592 1398 2589 
Q 1222 2586 1049 2576 
Q 877 2566 717 2553 
Q 557 2541 442 2528 
L 442 3040 
Q 634 3014 893 3001 
Q 1152 2989 1357 2989 
Q 1325 3091 1280 3225 
Q 1235 3360 1184 3488 
Q 1133 3616 1085 3725 
Q 1037 3834 1005 3898 
L 1338 4019 
Q 1299 4019 1212 4012 
Q 1126 4006 1027 4000 
Q 928 3994 825 3981 
Q 723 3968 659 3962 
L 659 4506 
Q 883 4474 1184 4458 
Q 1485 4442 1882 4442 
Q 1837 4589 1789 4729 
Q 1741 4870 1690 4998 
L 2266 5114 
Q 2304 4947 2339 4796 
Q 2374 4646 2426 4442 
Q 2534 4442 2659 4448 
Q 2784 4454 2909 4464 
Q 3034 4474 3152 4483 
Q 3270 4493 3366 4506 
L 3366 3962 
Q 3226 3981 3027 4000 
Q 2829 4019 2701 4019 
z
M 5094 2912 
Q 5267 2912 5398 2915 
Q 5530 2918 5638 2928 
Q 5747 2938 5843 2950 
Q 5939 2963 6042 2989 
L 6042 2387 
Q 5882 2426 5690 2448 
Q 5498 2470 5363 2470 
L 5363 307 
Q 5363 19 5372 -217 
Q 5382 -454 5414 -710 
L 4794 -710 
Q 4819 -442 4832 -211 
Q 4845 19 4845 307 
L 4845 2470 
L 4262 2470 
Q 4250 1862 4205 1414 
Q 4160 966 4067 608 
Q 3974 250 3833 -48 
Q 3693 -346 3494 -646 
Q 3437 -602 3382 -566 
Q 3328 -531 3264 -502 
Q 3200 -474 3117 -445 
Q 3034 -416 2912 -384 
Q 3142 -141 3292 121 
Q 3443 384 3539 739 
Q 3635 1094 3683 1580 
Q 3731 2067 3750 2758 
Q 3763 3328 3756 3801 
Q 3750 4275 3725 4518 
Q 3955 4518 4208 4544 
Q 4461 4570 4713 4618 
Q 4966 4666 5203 4736 
Q 5440 4806 5632 4883 
Q 5658 4826 5699 4749 
Q 5741 4672 5789 4601 
Q 5837 4531 5881 4470 
Q 5926 4410 5958 4378 
Q 6138 4205 5888 4256 
Q 5811 4269 5577 4253 
Q 5344 4237 5075 4198 
Q 4870 4166 4668 4150 
Q 4467 4134 4262 4122 
L 4262 2912 
L 5094 2912 
z
M 2906 198 
Q 2784 474 2662 659 
Q 2541 845 2374 1024 
L 2752 1280 
Q 2925 1075 3053 905 
Q 3181 736 3347 518 
L 2906 198 
z
" transform="scale(0.015625)"/>
        <path id="STHeitiTC-Medium-540e" d="M 4851 454 
L 4851 1555 
L 2669 1555 
L 2669 454 
L 4851 454 
z
M 2669 -6 
L 2669 -685 
L 2086 -685 
Q 2106 -467 2112 -278 
Q 2118 -90 2118 134 
L 2118 1446 
Q 2118 1619 2112 1779 
Q 2106 1939 2093 2048 
Q 2259 2035 2672 2028 
Q 3085 2022 3750 2022 
Q 4416 2022 4845 2028 
Q 5274 2035 5414 2048 
Q 5395 1958 5388 1798 
Q 5382 1638 5382 1446 
L 5382 173 
Q 5382 -51 5395 -246 
Q 5408 -442 5421 -646 
L 4851 -646 
L 4851 -6 
L 2669 -6 
z
M 1747 2842 
Q 1734 2246 1673 1766 
Q 1613 1286 1507 889 
Q 1402 493 1258 169 
Q 1114 -154 947 -435 
Q 736 -192 358 -115 
Q 781 307 976 1014 
Q 1171 1722 1197 2650 
Q 1203 2925 1200 3209 
Q 1197 3494 1184 3753 
Q 1171 4013 1155 4240 
Q 1139 4467 1120 4634 
Q 1638 4621 2214 4646 
Q 2790 4672 3340 4736 
Q 3891 4800 4374 4889 
Q 4858 4979 5190 5088 
Q 5254 4922 5347 4746 
Q 5440 4570 5510 4480 
Q 5562 4416 5549 4387 
Q 5536 4358 5478 4371 
Q 5357 4390 5136 4384 
Q 4915 4378 4467 4339 
Q 4205 4320 3843 4294 
Q 3482 4269 3098 4249 
Q 2714 4230 2355 4211 
Q 1997 4192 1747 4186 
L 1747 3322 
L 4896 3322 
Q 5229 3322 5529 3334 
Q 5830 3347 6035 3366 
L 6035 2797 
Q 5830 2816 5529 2829 
Q 5229 2842 4896 2842 
L 1747 2842 
z
" transform="scale(0.015625)"/>
       </defs>
       <use xlink:href="#STHeitiTC-Medium-4e2d"/>
       <use xlink:href="#STHeitiTC-Medium-6587" x="99.999985"/>
       <use xlink:href="#STHeitiTC-Medium-20" x="199.999969"/>
       <use xlink:href="#STHeitiTC-Medium-b7" x="224.999954"/>
       <use xlink:href="#STHeitiTC-Medium-20" x="324.999939"/>
       <use xlink:href="#STHeitiTC-Medium-524d" x="349.999924"/>
       <use xlink:href="#STHeitiTC-Medium-6cbf" x="449.999908"/>
       <use xlink:href="#STHeitiTC-Medium-6a21" x="549.999893"/>
       <use xlink:href="#STHeitiTC-Medium-578b" x="649.999878"/>
       <use xlink:href="#STHeitiTC-Medium-6362" x="749.999863"/>
       <use xlink:href="#STHeitiTC-Medium-65b0" x="849.999847"/>
       <use xlink:href="#STHeitiTC-Medium-8bcd" x="949.999832"/>
       <use xlink:href="#STHeitiTC-Medium-8868" x="1049.999817"/>
       <use xlink:href="#STHeitiTC-Medium-540e" x="1149.999802"/>
      </g>
     </g>
    </g>
    <g id="ytick_4">
     <g id="line2d_22">
      <g>
       <use xlink:href="#m64265a2906" x="180.45" y="31.807657" style="fill: #333333; stroke: #333333; stroke-width: 0.8"/>
      </g>
     </g>
     <g id="text_13">
      <!-- 中文 · 国产中文优化模型（有测试称） -->
      <g style="fill: #333333" transform="translate(7.2 35.655157) scale(0.095 -0.095)">
       <defs>
        <path id="STHeitiTC-Medium-56fd" d="M 4045 1235 
Q 3930 1510 3674 1779 
L 4090 2042 
Q 4192 1894 4291 1766 
Q 4390 1638 4499 1523 
L 4045 1235 
z
M 3347 1107 
Q 3846 1107 4211 1116 
Q 4576 1126 4851 1152 
L 4851 634 
Q 4563 666 4188 672 
Q 3814 678 3290 678 
Q 2918 678 2652 675 
Q 2387 672 2185 669 
Q 1984 666 1833 656 
Q 1683 646 1549 634 
L 1549 1152 
Q 1664 1139 1785 1129 
Q 1907 1120 2060 1117 
Q 2214 1114 2406 1110 
Q 2598 1107 2861 1107 
L 2861 2150 
Q 2515 2150 2268 2140 
Q 2022 2131 1818 2112 
L 1818 2605 
Q 2035 2586 2275 2576 
Q 2515 2566 2861 2560 
L 2861 3309 
Q 2406 3302 2128 3289 
Q 1850 3277 1702 3264 
L 1702 3795 
Q 1888 3776 2259 3763 
Q 2630 3750 3270 3750 
Q 3776 3750 4160 3760 
Q 4544 3770 4704 3795 
L 4704 3264 
Q 4550 3277 4182 3293 
Q 3814 3309 3347 3309 
L 3347 2560 
Q 3763 2560 4048 2569 
Q 4333 2579 4570 2605 
L 4570 2112 
Q 4333 2138 4048 2144 
Q 3763 2150 3347 2150 
L 3347 1107 
z
M 5184 4326 
L 1216 4326 
L 1216 122 
L 5184 122 
L 5184 4326 
z
M 1216 -730 
L 640 -730 
Q 672 -448 685 -208 
Q 698 32 698 320 
L 698 4109 
Q 698 4301 685 4477 
Q 672 4653 640 4838 
Q 736 4826 893 4813 
Q 1050 4800 1334 4790 
Q 1619 4781 2067 4777 
Q 2515 4774 3200 4774 
Q 3885 4774 4329 4777 
Q 4774 4781 5056 4790 
Q 5338 4800 5494 4813 
Q 5651 4826 5760 4838 
Q 5728 4685 5715 4489 
Q 5702 4294 5702 4109 
L 5702 333 
Q 5702 90 5715 -137 
Q 5728 -365 5760 -634 
L 5184 -634 
L 5184 -326 
L 1216 -326 
L 1216 -730 
z
" transform="scale(0.015625)"/>
        <path id="STHeitiTC-Medium-4ea7" d="M 2368 2778 
Q 2317 2963 2240 3155 
Q 2163 3347 2054 3533 
L 2618 3725 
Q 2726 3526 2809 3337 
Q 2893 3149 2963 2950 
L 2368 2778 
z
M 3962 2650 
Q 4115 2944 4204 3133 
Q 4294 3322 4345 3450 
Q 4397 3578 4419 3664 
Q 4442 3750 4454 3840 
Q 4506 3802 4595 3757 
Q 4685 3712 4777 3667 
Q 4870 3622 4950 3587 
Q 5030 3552 5062 3539 
Q 5152 3507 5149 3472 
Q 5146 3437 5056 3411 
Q 5018 3398 4973 3363 
Q 4928 3328 4867 3248 
Q 4806 3168 4710 3024 
Q 4614 2880 4474 2650 
Q 4838 2650 5104 2650 
Q 5370 2650 5562 2656 
Q 5754 2662 5875 2668 
Q 5997 2675 6067 2688 
L 6067 2189 
Q 5978 2195 5818 2204 
Q 5658 2214 5446 2220 
Q 5235 2227 4985 2230 
Q 4736 2234 4467 2234 
L 1741 2234 
Q 1747 1677 1702 1273 
Q 1658 870 1549 537 
Q 1440 205 1251 -92 
Q 1062 -390 787 -736 
Q 614 -461 326 -282 
Q 563 -102 748 128 
Q 934 358 1046 694 
Q 1158 1030 1193 1513 
Q 1229 1997 1171 2688 
Q 1254 2675 1401 2668 
Q 1549 2662 1846 2659 
Q 2144 2656 2649 2653 
Q 3155 2650 3962 2650 
z
M 3238 4352 
Q 3187 4531 3113 4713 
Q 3040 4896 2970 5030 
L 3661 5146 
Q 3712 4973 3760 4765 
Q 3808 4557 3853 4352 
Q 4525 4358 5014 4371 
Q 5504 4384 5907 4416 
L 5907 3866 
Q 5670 3885 5404 3894 
Q 5139 3904 4825 3913 
Q 4512 3923 4144 3926 
Q 3776 3930 3334 3930 
Q 2893 3930 2528 3926 
Q 2163 3923 1849 3913 
Q 1536 3904 1270 3894 
Q 1005 3885 768 3866 
L 768 4416 
Q 998 4397 1257 4387 
Q 1517 4378 1817 4368 
Q 2118 4358 2467 4355 
Q 2816 4352 3238 4352 
z
" transform="scale(0.015625)"/>
        <path id="STHeitiTC-Medium-4f18" d="M 5056 3693 
Q 4973 3782 4870 3888 
Q 4768 3994 4656 4096 
Q 4544 4198 4425 4294 
Q 4307 4390 4205 4467 
L 4582 4826 
Q 4787 4685 5017 4502 
Q 5248 4320 5440 4147 
L 5056 3693 
z
M 1728 -691 
L 1139 -691 
Q 1171 -403 1193 -22 
Q 1216 358 1216 717 
L 1216 2899 
Q 1088 2669 950 2441 
Q 813 2214 640 1952 
Q 589 2074 480 2208 
Q 371 2342 275 2413 
Q 544 2720 758 3078 
Q 973 3437 1126 3802 
Q 1261 4115 1363 4470 
Q 1466 4826 1510 5114 
Q 1664 5043 1814 4992 
Q 1965 4941 2074 4915 
Q 2176 4883 2179 4848 
Q 2182 4813 2086 4736 
Q 1971 4646 1728 4000 
L 1728 -691 
z
M 3770 2963 
Q 3712 2336 3603 1833 
Q 3494 1331 3321 915 
Q 3149 499 2905 150 
Q 2662 -198 2336 -525 
Q 2246 -422 2099 -323 
Q 1952 -224 1798 -173 
Q 2099 64 2345 339 
Q 2592 614 2774 982 
Q 2957 1350 3081 1833 
Q 3206 2317 3264 2963 
Q 2899 2957 2576 2941 
Q 2253 2925 2010 2899 
L 2010 3514 
Q 2221 3482 2547 3466 
Q 2874 3450 3296 3443 
Q 3328 3910 3315 4358 
Q 3302 4806 3251 5133 
Q 3334 5114 3440 5101 
Q 3546 5088 3645 5078 
Q 3744 5069 3833 5065 
Q 3923 5062 3981 5069 
Q 4051 5075 4060 5027 
Q 4070 4979 4000 4941 
Q 3904 4890 3885 4659 
Q 3872 4435 3853 4144 
Q 3834 3853 3802 3443 
L 4346 3443 
Q 4845 3437 5203 3456 
Q 5562 3475 5862 3514 
L 5862 2899 
Q 5594 2931 5270 2947 
Q 4947 2963 4525 2963 
L 4525 454 
Q 4525 326 4534 249 
Q 4544 173 4589 134 
Q 4634 96 4723 83 
Q 4813 70 4973 70 
Q 5120 70 5213 89 
Q 5306 109 5366 195 
Q 5427 282 5462 448 
Q 5498 614 5536 915 
Q 5651 774 5820 688 
Q 5990 602 6118 595 
Q 6016 237 5933 32 
Q 5850 -173 5731 -272 
Q 5613 -371 5421 -396 
Q 5229 -422 4915 -422 
Q 4595 -422 4416 -403 
Q 4237 -384 4150 -317 
Q 4064 -250 4041 -118 
Q 4019 13 4019 243 
L 4019 2963 
L 3770 2963 
z
" transform="scale(0.015625)"/>
        <path id="STHeitiTC-Medium-5316" d="M 1325 2899 
Q 1178 2656 1021 2432 
Q 864 2208 730 2022 
Q 666 2138 557 2256 
Q 448 2374 314 2464 
Q 442 2566 570 2713 
Q 698 2861 819 3027 
Q 941 3194 1043 3376 
Q 1146 3558 1229 3725 
Q 1427 4141 1539 4541 
Q 1651 4941 1683 5210 
Q 1843 5139 2003 5078 
Q 2163 5018 2317 4986 
Q 2445 4960 2461 4915 
Q 2477 4870 2362 4781 
Q 2342 4768 2316 4729 
Q 2291 4691 2233 4595 
Q 2176 4499 2086 4323 
Q 1997 4147 1856 3859 
L 1856 -595 
L 1254 -595 
Q 1286 -390 1305 -108 
Q 1325 173 1325 435 
L 1325 2899 
z
M 3750 2445 
Q 4122 2797 4464 3225 
Q 4806 3654 5158 4243 
Q 5286 4134 5452 4019 
Q 5619 3904 5766 3827 
Q 5837 3789 5837 3753 
Q 5837 3718 5754 3706 
Q 5722 3699 5664 3657 
Q 5606 3616 5539 3555 
Q 5472 3494 5401 3427 
Q 5331 3360 5280 3302 
Q 5082 3078 4915 2899 
Q 4749 2720 4576 2550 
Q 4403 2381 4204 2205 
Q 4006 2029 3750 1811 
L 3750 384 
Q 3750 262 3782 188 
Q 3814 115 3897 76 
Q 3981 38 4131 28 
Q 4282 19 4518 19 
Q 4774 19 4937 38 
Q 5101 58 5203 150 
Q 5306 243 5363 428 
Q 5421 614 5472 941 
Q 5549 845 5613 781 
Q 5677 717 5747 669 
Q 5818 621 5894 585 
Q 5971 550 6080 512 
Q 5971 147 5881 -54 
Q 5792 -256 5641 -355 
Q 5491 -454 5232 -473 
Q 4973 -493 4518 -493 
Q 4083 -493 3827 -467 
Q 3571 -442 3430 -374 
Q 3290 -307 3248 -182 
Q 3206 -58 3206 134 
L 3206 4358 
Q 3206 4589 3196 4813 
Q 3187 5037 3155 5165 
Q 3226 5146 3318 5133 
Q 3411 5120 3507 5110 
Q 3603 5101 3692 5094 
Q 3782 5088 3840 5088 
Q 3930 5088 3939 5043 
Q 3949 4998 3878 4947 
Q 3827 4915 3788 4825 
Q 3750 4736 3750 4672 
L 3750 2445 
z
" transform="scale(0.015625)"/>
        <path id="STHeitiTC-Medium-6709" d="M 4608 2790 
L 2266 2790 
L 2266 2227 
L 4608 2227 
L 4608 2790 
z
M 2266 1178 
L 4608 1178 
L 4608 1805 
L 2266 1805 
L 2266 1178 
z
M 2189 3904 
Q 1907 3904 1673 3901 
Q 1440 3898 1238 3891 
Q 1037 3885 854 3872 
Q 672 3859 486 3846 
L 486 4397 
Q 691 4384 892 4374 
Q 1094 4365 1318 4358 
Q 1542 4352 1801 4345 
Q 2061 4339 2387 4339 
Q 2490 4595 2560 4841 
Q 2630 5088 2662 5235 
Q 2854 5165 3017 5129 
Q 3181 5094 3366 5069 
Q 3558 5037 3386 4934 
Q 3264 4858 3171 4717 
Q 3078 4576 2989 4339 
Q 3757 4339 4237 4339 
Q 4717 4339 5030 4345 
Q 5344 4352 5561 4365 
Q 5779 4378 6022 4397 
L 6022 3846 
Q 5843 3859 5673 3868 
Q 5504 3878 5315 3884 
Q 5126 3891 4896 3897 
Q 4666 3904 4365 3907 
Q 4064 3910 3673 3910 
Q 3283 3910 2771 3910 
Q 2675 3725 2569 3552 
Q 2464 3379 2355 3206 
L 3488 3206 
Q 3974 3206 4419 3222 
Q 4864 3238 5203 3270 
Q 5184 3136 5168 2902 
Q 5152 2669 5152 2400 
L 5152 230 
Q 5152 0 5133 -137 
Q 5114 -275 5018 -358 
Q 4922 -442 4717 -496 
Q 4512 -550 4141 -614 
Q 4128 -467 4070 -294 
Q 4013 -122 3904 38 
Q 4128 0 4265 -3 
Q 4403 -6 4480 32 
Q 4557 70 4582 156 
Q 4608 243 4608 390 
L 4608 755 
L 2266 755 
L 2266 -582 
L 1670 -582 
Q 1702 -339 1715 -99 
Q 1728 141 1728 333 
L 1728 2349 
Q 1517 2080 1296 1840 
Q 1075 1600 858 1376 
Q 762 1485 621 1577 
Q 480 1670 371 1709 
Q 896 2080 1360 2633 
Q 1824 3187 2189 3904 
z
" transform="scale(0.015625)"/>
        <path id="STHeitiTC-Medium-6d4b" d="M 1446 4013 
Q 1261 4186 1072 4320 
Q 883 4454 653 4582 
L 954 4973 
Q 1152 4858 1360 4726 
Q 1568 4595 1773 4461 
L 1446 4013 
z
M 3590 1171 
L 3590 4218 
L 2336 4218 
L 2336 1088 
L 1850 1088 
Q 1875 1299 1888 1577 
Q 1901 1856 1901 2099 
L 1901 3770 
Q 1901 4019 1888 4281 
Q 1875 4544 1862 4730 
Q 1946 4710 2038 4697 
Q 2131 4685 2252 4675 
Q 2374 4666 2537 4662 
Q 2701 4659 2931 4659 
Q 3168 4659 3341 4662 
Q 3514 4666 3642 4675 
Q 3770 4685 3869 4697 
Q 3968 4710 4070 4730 
Q 4064 4653 4057 4541 
Q 4051 4429 4044 4297 
Q 4038 4166 4035 4028 
Q 4032 3891 4032 3770 
L 4032 2131 
Q 4032 1862 4048 1603 
Q 4064 1344 4083 1171 
L 3590 1171 
z
M 1318 2400 
Q 1146 2534 896 2675 
Q 646 2816 416 2912 
L 710 3405 
Q 941 3283 1184 3152 
Q 1427 3021 1619 2912 
L 1318 2400 
z
M 4378 941 
Q 4390 1043 4403 1171 
Q 4416 1299 4425 1430 
Q 4435 1562 4438 1690 
Q 4442 1818 4442 1926 
L 4442 3520 
Q 4442 3635 4435 3760 
Q 4429 3885 4419 4009 
Q 4410 4134 4397 4246 
Q 4384 4358 4371 4435 
Q 4499 4403 4633 4403 
Q 4768 4403 4890 4416 
Q 4954 4429 4960 4393 
Q 4966 4358 4909 4307 
Q 4877 4275 4877 4122 
L 4877 1933 
Q 4877 1722 4889 1440 
Q 4902 1158 4922 941 
L 4378 941 
z
M 5914 4922 
Q 5875 4890 5862 4851 
Q 5850 4813 5850 4736 
L 5850 77 
Q 5850 -122 5830 -237 
Q 5811 -352 5721 -429 
Q 5632 -506 5440 -557 
Q 5248 -608 4902 -672 
Q 4870 -512 4812 -352 
Q 4755 -192 4646 -13 
Q 4890 -38 5040 -35 
Q 5190 -32 5273 6 
Q 5357 45 5385 134 
Q 5414 224 5414 371 
L 5414 4102 
Q 5414 4397 5398 4669 
Q 5382 4941 5363 5094 
Q 5491 5069 5603 5062 
Q 5715 5056 5862 5062 
Q 5958 5069 5971 5021 
Q 5984 4973 5914 4922 
z
M 3232 3578 
Q 3187 3514 3187 3002 
Q 3187 2611 3184 2323 
Q 3181 2035 3168 1814 
Q 3155 1594 3136 1421 
Q 3117 1248 3085 1088 
Q 3014 749 2787 345 
Q 2560 -58 2067 -550 
Q 1952 -429 1814 -342 
Q 1677 -256 1536 -205 
Q 1856 13 2070 233 
Q 2285 454 2419 681 
Q 2554 909 2621 1149 
Q 2688 1389 2720 1651 
Q 2752 1978 2749 2483 
Q 2746 2989 2714 3725 
Q 2810 3699 2957 3692 
Q 3104 3686 3187 3699 
Q 3258 3712 3270 3673 
Q 3283 3635 3232 3578 
z
M 1594 1568 
Q 1568 1472 1545 1376 
Q 1523 1280 1494 1171 
Q 1466 1062 1427 928 
Q 1389 794 1338 614 
Q 1261 333 1184 25 
Q 1107 -282 1043 -602 
Q 877 -474 745 -400 
Q 614 -326 454 -256 
Q 563 -51 684 214 
Q 806 480 915 845 
Q 941 934 976 1056 
Q 1011 1178 1043 1306 
Q 1075 1434 1104 1565 
Q 1133 1696 1152 1811 
Q 1242 1715 1344 1657 
Q 1446 1600 1594 1568 
z
M 4058 -294 
Q 3827 32 3622 265 
Q 3418 499 3181 685 
L 3526 1030 
Q 3750 838 4000 595 
Q 4250 352 4454 102 
L 4058 -294 
z
" transform="scale(0.015625)"/>
        <path id="STHeitiTC-Medium-8bd5" d="M 1510 -147 
Q 1370 -314 1299 -419 
Q 1229 -525 1184 -634 
Q 1094 -506 960 -384 
Q 826 -262 710 -186 
Q 838 -58 892 80 
Q 947 218 947 429 
L 947 2618 
Q 800 2618 694 2614 
Q 589 2611 509 2608 
Q 429 2605 365 2598 
Q 301 2592 237 2586 
L 237 3168 
Q 365 3155 521 3145 
Q 678 3136 890 3136 
Q 1094 3136 1241 3145 
Q 1389 3155 1523 3168 
Q 1491 3021 1472 2803 
Q 1453 2586 1453 2368 
L 1453 531 
Q 1606 704 1715 851 
Q 1824 998 1952 1203 
Q 1997 1050 2073 928 
Q 2150 806 2253 717 
L 1510 -147 
z
M 1293 3635 
Q 1165 3878 998 4131 
Q 832 4384 627 4646 
L 1133 4960 
Q 1299 4736 1478 4483 
Q 1658 4230 1798 4006 
L 1293 3635 
z
M 5120 4051 
Q 5069 4218 4973 4400 
Q 4877 4582 4774 4710 
L 5280 4941 
Q 5402 4794 5501 4621 
Q 5600 4448 5664 4314 
L 5120 4051 
z
M 3283 653 
Q 3475 698 3670 746 
Q 3866 794 4077 858 
Q 4058 704 4048 595 
Q 4038 486 4051 339 
Q 3571 256 3129 131 
Q 2688 6 2285 -179 
Q 2259 6 2233 150 
Q 2208 294 2157 461 
Q 2330 486 2483 508 
Q 2637 531 2784 557 
L 2784 2163 
Q 2598 2157 2457 2150 
Q 2317 2144 2208 2112 
L 2208 2675 
Q 2355 2643 2531 2633 
Q 2707 2624 2976 2624 
Q 3245 2624 3427 2633 
Q 3610 2643 3750 2675 
L 3750 2112 
Q 3571 2157 3283 2157 
L 3283 653 
z
M 3904 3834 
Q 3872 4288 3849 4605 
Q 3827 4922 3821 5139 
Q 3891 5120 3984 5113 
Q 4077 5107 4169 5104 
Q 4262 5101 4345 5107 
Q 4429 5114 4486 5126 
Q 4589 5146 4601 5107 
Q 4614 5069 4518 4979 
Q 4448 4915 4432 4611 
Q 4416 4307 4442 3846 
Q 4922 3859 5264 3884 
Q 5606 3910 5824 3942 
L 5837 3334 
Q 5626 3366 5283 3369 
Q 4941 3373 4474 3360 
Q 4525 2637 4614 2086 
Q 4704 1536 4832 1203 
Q 4947 902 5040 697 
Q 5133 493 5206 371 
Q 5280 250 5337 198 
Q 5395 147 5440 154 
Q 5510 166 5568 323 
Q 5626 480 5664 883 
Q 5792 678 5910 569 
Q 6029 461 6157 371 
Q 6035 -51 5920 -278 
Q 5805 -506 5686 -582 
Q 5568 -659 5440 -614 
Q 5312 -570 5165 -442 
Q 4896 -211 4675 192 
Q 4454 595 4301 1088 
Q 4256 1235 4205 1468 
Q 4154 1702 4106 1996 
Q 4058 2291 4016 2636 
Q 3974 2982 3942 3354 
L 3450 3341 
Q 2470 3309 2022 3245 
L 2010 3853 
Q 2234 3821 2589 3817 
Q 2944 3814 3443 3827 
L 3904 3834 
z
" transform="scale(0.015625)"/>
        <path id="STHeitiTC-Medium-79f0" d="M 3635 1779 
Q 3616 1766 3590 1721 
Q 3565 1677 3533 1613 
Q 3501 1549 3472 1475 
Q 3443 1402 3418 1338 
Q 3283 960 3145 653 
Q 3008 346 2829 6 
Q 2707 96 2604 128 
Q 2502 160 2336 160 
Q 2490 403 2630 659 
Q 2771 915 2880 1168 
Q 2989 1421 3059 1664 
Q 3130 1907 3149 2131 
Q 3277 2054 3385 2006 
Q 3494 1958 3603 1946 
Q 3802 1920 3635 1779 
z
M 5568 179 
Q 5427 634 5244 1046 
Q 5062 1459 4858 1818 
L 5274 2042 
Q 5504 1664 5718 1293 
Q 5933 922 6138 499 
L 5568 179 
z
M 4602 3021 
Q 4544 2950 4544 2784 
L 4544 -51 
Q 4544 -211 4518 -316 
Q 4493 -422 4400 -492 
Q 4307 -563 4121 -601 
Q 3936 -640 3622 -666 
Q 3603 -474 3548 -314 
Q 3494 -154 3398 13 
Q 3610 -32 3738 -45 
Q 3866 -58 3933 -32 
Q 4000 -6 4022 54 
Q 4045 115 4045 218 
L 4045 2144 
Q 4045 2483 4029 2758 
Q 4013 3034 3987 3181 
Q 4141 3149 4262 3136 
Q 4384 3123 4512 3130 
Q 4717 3136 4602 3021 
z
M 2355 1274 
Q 2272 1427 2163 1603 
Q 2054 1779 1946 1933 
L 2253 2202 
Q 2387 2054 2515 1884 
Q 2643 1715 2733 1587 
L 2355 1274 
z
M 4518 4115 
Q 4813 4115 5033 4118 
Q 5254 4122 5414 4125 
Q 5574 4128 5692 4134 
Q 5811 4141 5907 4154 
L 5485 2694 
L 4979 2784 
L 5280 3680 
L 3686 3680 
Q 3629 3507 3581 3366 
Q 3533 3226 3485 3101 
Q 3437 2976 3389 2851 
Q 3341 2726 3277 2573 
Q 3174 2630 3072 2656 
Q 2970 2682 2803 2694 
Q 2950 2963 3075 3289 
Q 3200 3616 3296 3949 
Q 3392 4282 3453 4602 
Q 3514 4922 3533 5178 
Q 3699 5120 3881 5062 
Q 4064 5005 4147 4992 
Q 4237 4979 4237 4944 
Q 4237 4909 4160 4864 
Q 4134 4845 4105 4809 
Q 4077 4774 4041 4691 
Q 4006 4608 3955 4470 
Q 3904 4333 3827 4115 
L 4518 4115 
z
M 1440 2189 
Q 1363 1882 1280 1642 
Q 1197 1402 1097 1190 
Q 998 979 876 777 
Q 755 576 595 352 
Q 544 544 464 678 
Q 384 813 256 941 
Q 582 1254 844 1699 
Q 1107 2144 1267 2765 
Q 1011 2752 819 2742 
Q 627 2733 467 2714 
L 467 3226 
Q 653 3200 883 3187 
Q 1114 3174 1440 3174 
L 1440 4141 
Q 1248 4102 1043 4060 
Q 838 4019 710 4000 
Q 698 4128 646 4233 
Q 595 4339 499 4448 
Q 614 4454 748 4473 
Q 883 4493 1020 4515 
Q 1158 4538 1286 4566 
Q 1414 4595 1510 4614 
Q 1626 4640 1760 4681 
Q 1894 4723 2028 4771 
Q 2163 4819 2284 4870 
Q 2406 4922 2502 4973 
Q 2560 4826 2630 4710 
Q 2701 4595 2784 4525 
Q 2867 4454 2857 4428 
Q 2848 4403 2771 4416 
Q 2675 4435 1926 4250 
L 1926 3174 
Q 2170 3181 2352 3193 
Q 2534 3206 2682 3226 
L 2682 2714 
Q 2534 2733 2352 2742 
Q 2170 2752 1926 2758 
L 1926 474 
Q 1926 237 1939 -51 
Q 1952 -339 1978 -627 
L 1389 -627 
Q 1414 -339 1427 -51 
Q 1440 237 1440 474 
L 1440 2189 
z
" transform="scale(0.015625)"/>
       </defs>
       <use xlink:href="#STHeitiTC-Medium-4e2d"/>
       <use xlink:href="#STHeitiTC-Medium-6587" x="99.999985"/>
       <use xlink:href="#STHeitiTC-Medium-20" x="199.999969"/>
       <use xlink:href="#STHeitiTC-Medium-b7" x="224.999954"/>
       <use xlink:href="#STHeitiTC-Medium-20" x="324.999939"/>
       <use xlink:href="#STHeitiTC-Medium-56fd" x="349.999924"/>
       <use xlink:href="#STHeitiTC-Medium-4ea7" x="449.999908"/>
       <use xlink:href="#STHeitiTC-Medium-4e2d" x="549.999893"/>
       <use xlink:href="#STHeitiTC-Medium-6587" x="649.999878"/>
       <use xlink:href="#STHeitiTC-Medium-4f18" x="749.999863"/>
       <use xlink:href="#STHeitiTC-Medium-5316" x="849.999847"/>
       <use xlink:href="#STHeitiTC-Medium-6a21" x="949.999832"/>
       <use xlink:href="#STHeitiTC-Medium-578b" x="1049.999817"/>
       <use xlink:href="#STHeitiTC-Medium-ff08" x="1149.999802"/>
       <use xlink:href="#STHeitiTC-Medium-6709" x="1249.999786"/>
       <use xlink:href="#STHeitiTC-Medium-6d4b" x="1349.999771"/>
       <use xlink:href="#STHeitiTC-Medium-8bd5" x="1449.999756"/>
       <use xlink:href="#STHeitiTC-Medium-79f0" x="1549.999741"/>
       <use xlink:href="#STHeitiTC-Medium-ff09" x="1649.999725"/>
      </g>
     </g>
    </g>
   </g>
   <g id="line2d_23">
    <path d="M 180.45 219.56 
L 180.45 7.2 
" clip-path="url(#pa69bbf513b)" style="fill: none; stroke: #cccccc; stroke-width: 0.8; stroke-linecap: square"/>
   </g>
   <g id="patch_3">
    <path d="M 180.45 219.56 
L 625.28 219.56 
" style="fill: none; stroke: #000000; stroke-width: 0.8; stroke-linejoin: miter; stroke-linecap: square"/>
   </g>
   <g id="patch_4">
    <path d="M 180.45 209.907273 
L 392.27381 209.907273 
L 392.27381 179.997414 
L 180.45 179.997414 
z
" clip-path="url(#pa69bbf513b)" style="fill: #1a56db"/>
   </g>
   <g id="patch_5">
    <path d="M 180.45 155.525711 
L 604.097619 155.525711 
L 604.097619 125.615851 
L 180.45 125.615851 
z
" clip-path="url(#pa69bbf513b)" style="fill: #1a56db"/>
   </g>
   <g id="patch_6">
    <path d="M 180.45 101.144149 
L 477.003333 101.144149 
L 477.003333 71.234289 
L 180.45 71.234289 
z
" clip-path="url(#pa69bbf513b)" style="fill: #1a56db"/>
   </g>
   <g id="patch_7">
    <path d="M 180.45 46.762586 
L 328.726667 46.762586 
L 328.726667 16.852727 
L 180.45 16.852727 
z
" clip-path="url(#pa69bbf513b)" style="fill: #1a56db"/>
   </g>
   <g id="text_14">
    <!-- 1 -->
    <g style="fill: #333333" transform="translate(413.45619 198.168242) scale(0.095 -0.095)">
     <use xlink:href="#STHeitiTC-Medium-31"/>
    </g>
   </g>
   <g id="text_15">
    <!-- 2 -->
    <g style="fill: #333333" transform="translate(625.28 143.786679) scale(0.095 -0.095)">
     <use xlink:href="#STHeitiTC-Medium-32"/>
    </g>
   </g>
   <g id="text_16">
    <!-- 1.4 -->
    <g style="fill: #333333" transform="translate(498.185714 89.405117) scale(0.095 -0.095)">
     <defs>
      <path id="STHeitiTC-Medium-34" d="M 3418 1453 
L 2861 1453 
L 2861 384 
L 2317 384 
L 2317 1453 
L 70 1453 
L 2701 5184 
L 2861 5184 
L 2861 1984 
L 3418 1984 
L 3418 1453 
z
M 2317 1984 
L 2317 3712 
L 1094 1984 
L 2317 1984 
z
" transform="scale(0.015625)"/>
     </defs>
     <use xlink:href="#STHeitiTC-Medium-31"/>
     <use xlink:href="#STHeitiTC-Medium-2e" x="55.399994"/>
     <use xlink:href="#STHeitiTC-Medium-34" x="83.099991"/>
    </g>
   </g>
   <g id="text_17">
    <!-- 0.7 -->
    <g style="fill: #333333" transform="translate(349.909048 35.023555) scale(0.095 -0.095)">
     <use xlink:href="#STHeitiTC-Medium-30"/>
     <use xlink:href="#STHeitiTC-Medium-2e" x="55.399994"/>
     <use xlink:href="#STHeitiTC-Medium-37" x="83.099991"/>
    </g>
   </g>
  </g>
 </g>
 <defs>
  <clipPath id="pa69bbf513b">
   <rect x="180.45" y="7.2" width="444.83" height="212.36"/>
  </clipPath>
 </defs>
</svg>
