<?xml version="1.0" encoding="utf-8" standalone="no"?>
<!DOCTYPE svg PUBLIC "-//W3C//DTD SVG 1.1//EN"
  "http://www.w3.org/Graphics/SVG/1.1/DTD/svg11.dtd">
<svg xmlns:xlink="http://www.w3.org/1999/xlink" width="628.815812pt" height="242.931801pt" viewBox="0 0 628.815812 242.931801" xmlns="http://www.w3.org/2000/svg" version="1.1">
 <metadata>
  <rdf:RDF xmlns:dc="http://purl.org/dc/elements/1.1/" xmlns:cc="http://creativecommons.org/ns#" xmlns:rdf="http://www.w3.org/1999/02/22-rdf-syntax-ns#">
   <cc:Work>
    <dc:type rdf:resource="http://purl.org/dc/dcmitype/StillImage"/>
    <dc:date>2026-06-06T23:53:57.877518</dc:date>
    <dc:format>image/svg+xml</dc:format>
    <dc:creator>
     <cc:Agent>
      <dc:title>Matplotlib v3.10.9, https://matplotlib.org/</dc:title>
     </cc:Agent>
    </dc:creator>
   </cc:Work>
  </rdf:RDF>
 </metadata>
 <defs>
  <style type="text/css">*{stroke-linejoin: round; stroke-linecap: butt}</style>
 </defs>
 <g id="figure_1">
  <g id="patch_1">
   <path d="M 0 242.931801 
L 628.815812 242.931801 
L 628.815812 0 
L 0 0 
z
" style="fill: #ffffff"/>
  </g>
  <g id="axes_1">
   <g id="patch_2">
    <path d="M 33.191094 218.614301 
L 613.884564 218.614301 
L 613.884564 12.535551 
L 33.191094 12.535551 
z
" style="fill: #fafafa"/>
   </g>
   <g id="matplotlib.axis_1">
    <g id="xtick_1">
     <g id="line2d_1">
      <defs>
       <path id="m57b9de3af7" d="M 0 0 
L 0 3.5 
" style="stroke: #333333; stroke-width: 0.8"/>
      </defs>
      <g>
       <use xlink:href="#m57b9de3af7" x="100.480158" y="218.614301" style="fill: #333333; stroke: #333333; stroke-width: 0.8"/>
      </g>
     </g>
     <g id="text_1">
      <!-- 承诺投入安全的算力 -->
      <g style="fill: #333333" transform="translate(57.730158 233.261801) scale(0.095 -0.095)">
       <defs>
        <path id="NotoSerifCJKjp-Regular-627f" d="M 1158 5005 
L 1216 4819 
L 4448 4819 
C 4166 4582 3770 4288 3392 4083 
L 2982 4128 
L 2982 3072 
L 2163 3072 
L 2214 2880 
L 2982 2880 
L 2982 2182 
L 1978 2182 
L 2029 1990 
L 2982 1990 
L 2982 1216 
L 1542 1216 
L 1594 1037 
L 2982 1037 
L 2982 141 
C 2982 26 2938 -13 2797 -13 
C 2637 -13 1805 45 1805 45 
L 1805 -51 
C 2157 -90 2355 -141 2477 -211 
C 2586 -275 2624 -371 2650 -499 
C 3315 -435 3398 -218 3398 115 
L 3398 1037 
L 4710 1037 
C 4800 1037 4864 1069 4877 1133 
C 4678 1318 4365 1568 4365 1568 
L 4090 1216 
L 3398 1216 
L 3398 1990 
L 4352 1990 
C 4435 1990 4493 2022 4506 2093 
C 4333 2266 4045 2496 4045 2496 
L 3795 2182 
L 3398 2182 
L 3398 2880 
L 4141 2880 
C 4230 2880 4288 2912 4307 2982 
C 4134 3149 3866 3366 3866 3366 
L 3629 3072 
L 3398 3072 
L 3398 3891 
C 3552 3910 3610 3968 3629 4058 
L 3584 4064 
C 4128 4256 4685 4544 5082 4774 
C 5222 4781 5306 4794 5350 4838 
L 4864 5280 
L 4582 5005 
L 1158 5005 
z
M 5562 3962 
C 5363 3654 4986 3200 4634 2861 
C 4480 3270 4365 3706 4275 4141 
L 4160 4109 
C 4410 2336 4896 941 5850 134 
C 5920 339 6074 461 6234 486 
L 6253 550 
C 5574 973 5050 1779 4685 2726 
C 5133 2963 5600 3302 5888 3539 
C 6029 3501 6086 3533 6131 3590 
L 5562 3962 
z
M 320 3501 
L 378 3315 
L 1638 3315 
C 1485 2138 1024 986 186 115 
L 262 38 
C 1312 813 1856 1965 2080 3232 
C 2221 3245 2298 3258 2349 3309 
L 1856 3782 
L 1581 3501 
L 320 3501 
z
" transform="scale(0.015625)"/>
        <path id="NotoSerifCJKjp-Regular-8bfa" d="M 710 5280 
L 634 5235 
C 896 4947 1222 4480 1312 4128 
C 1734 3827 2061 4723 710 5280 
z
M 1446 3296 
C 1568 3322 1651 3366 1677 3411 
L 1261 3763 
L 1050 3539 
L 154 3539 
L 211 3354 
L 1043 3354 
L 1043 666 
C 1043 557 1011 518 813 410 
L 1094 -109 
C 1152 -83 1222 -13 1261 102 
C 1690 640 2074 1178 2253 1434 
L 2182 1510 
C 1926 1267 1670 1030 1446 832 
L 1446 3296 
z
M 5677 4710 
L 5414 4365 
L 5050 4365 
L 5050 5088 
C 5190 5101 5248 5158 5261 5242 
L 4653 5306 
L 4653 4365 
L 3437 4365 
L 3437 5088 
C 3578 5101 3635 5158 3648 5242 
L 3040 5306 
L 3040 4365 
L 2016 4365 
L 2067 4179 
L 3040 4179 
L 3040 3360 
L 3110 3360 
C 3264 3360 3437 3450 3437 3501 
L 3437 4179 
L 4653 4179 
L 4653 3366 
L 4723 3366 
C 4877 3366 5050 3456 5050 3507 
L 5050 4179 
L 5997 4179 
C 6086 4179 6138 4211 6157 4282 
C 5978 4461 5677 4710 5677 4710 
z
M 5709 3174 
L 5421 2803 
L 3930 2803 
C 4006 3002 4083 3213 4154 3430 
C 4301 3424 4378 3482 4403 3552 
L 3744 3770 
C 3667 3437 3571 3110 3456 2803 
L 1914 2803 
L 1965 2611 
L 3379 2611 
C 2976 1587 2387 742 1747 173 
L 1824 96 
C 2246 371 2630 723 2970 1146 
L 2970 -480 
L 3040 -480 
C 3238 -480 3373 -378 3373 -339 
L 3373 -19 
L 5120 -19 
L 5120 -429 
L 5184 -429 
C 5325 -429 5523 -333 5530 -288 
L 5530 1517 
C 5658 1542 5760 1587 5805 1638 
L 5293 2035 
L 5056 1779 
L 3456 1779 
L 3424 1792 
C 3578 2048 3718 2317 3846 2611 
L 6080 2611 
C 6170 2611 6234 2643 6246 2714 
C 6042 2912 5709 3174 5709 3174 
z
M 3373 1587 
L 5120 1587 
L 5120 166 
L 3373 166 
L 3373 1587 
z
" transform="scale(0.015625)"/>
        <path id="NotoSerifCJKjp-Regular-6295" d="M 3149 5050 
L 3149 4506 
C 3149 3917 3053 3270 2394 2733 
L 2464 2650 
C 3443 3155 3552 3962 3552 4506 
L 3552 4864 
L 4614 4864 
L 4614 3386 
C 4614 3130 4672 3021 5037 3021 
L 5408 3021 
C 6003 3021 6170 3104 6170 3264 
C 6170 3347 6150 3392 6035 3437 
L 6016 4218 
L 5926 4218 
C 5869 3898 5798 3552 5760 3462 
C 5741 3405 5722 3398 5683 3392 
C 5645 3392 5542 3392 5421 3392 
L 5146 3392 
C 5030 3392 5018 3405 5018 3475 
L 5018 4806 
C 5133 4819 5197 4858 5235 4890 
L 4781 5293 
L 4563 5050 
L 3629 5050 
L 3149 5261 
L 3149 5050 
z
M 4992 2330 
C 4794 1811 4506 1350 4122 947 
C 3712 1312 3398 1773 3194 2330 
L 4992 2330 
z
M 2515 2515 
L 2573 2330 
L 3053 2330 
C 3238 1677 3514 1146 3885 717 
C 3366 250 2701 -122 1888 -384 
L 1939 -493 
C 2835 -275 3546 51 4109 480 
C 4557 51 5120 -269 5798 -493 
C 5869 -288 6016 -154 6202 -128 
L 6208 -70 
C 5517 96 4902 358 4397 723 
C 4870 1158 5222 1677 5472 2266 
C 5626 2272 5696 2291 5741 2342 
L 5274 2784 
L 4986 2515 
L 2515 2515 
z
M 166 2067 
L 416 1536 
C 474 1568 518 1638 531 1715 
L 1222 2144 
L 1222 154 
C 1222 58 1190 26 1082 26 
C 966 26 410 64 410 64 
L 410 -38 
C 653 -70 800 -115 883 -186 
C 960 -256 992 -371 1011 -499 
C 1562 -435 1626 -230 1626 115 
L 1626 2400 
L 2406 2918 
L 2374 3008 
L 1626 2675 
L 1626 3712 
L 2413 3712 
C 2502 3712 2560 3744 2579 3814 
C 2400 4006 2099 4256 2099 4256 
L 1837 3898 
L 1626 3898 
L 1626 5120 
C 1779 5139 1843 5203 1862 5293 
L 1222 5363 
L 1222 3898 
L 262 3898 
L 314 3712 
L 1222 3712 
L 1222 2496 
C 755 2298 371 2138 166 2067 
z
" transform="scale(0.015625)"/>
        <path id="NotoSerifCJKjp-Regular-5165" d="M 2835 4819 
L 1472 4819 
L 1510 4634 
L 2976 4634 
L 2976 4154 
C 2765 1914 1690 352 262 -410 
L 333 -506 
C 1786 166 2790 1338 3206 2970 
C 3501 1331 4614 90 5690 -506 
C 5786 -269 5920 -147 6144 -141 
L 6170 -64 
C 4371 672 3386 2170 3174 4173 
L 3168 4480 
C 3494 4512 3718 4582 3814 4704 
L 3104 5229 
L 2835 4819 
z
" transform="scale(0.015625)"/>
        <path id="NotoSerifCJKjp-Regular-5b89" d="M 4211 2688 
C 4070 2010 3834 1466 3456 1037 
C 3040 1146 2554 1254 1990 1344 
C 2189 1766 2413 2246 2611 2688 
L 4211 2688 
z
M 2694 4051 
C 2605 3763 2438 3334 2246 2874 
L 301 2874 
L 352 2688 
L 2170 2688 
C 1856 1971 1491 1210 1235 774 
C 1408 704 1587 691 1690 742 
L 1926 1222 
C 2394 1094 2829 947 3219 794 
C 2586 211 1632 -147 237 -371 
L 262 -486 
C 1888 -320 2931 19 3616 627 
C 4416 262 5024 -141 5357 -467 
C 5862 -672 6016 211 3891 902 
C 4282 1363 4531 1952 4698 2688 
L 5939 2688 
C 6029 2688 6093 2720 6106 2790 
C 5888 2995 5530 3270 5530 3270 
L 5216 2874 
L 2688 2874 
C 2848 3232 2982 3558 3066 3782 
C 3232 3782 3290 3846 3315 3930 
L 2694 4051 
z
M 992 4800 
C 1030 4365 800 3968 544 3827 
C 410 3744 326 3616 384 3475 
C 461 3322 698 3328 858 3450 
C 1030 3571 1197 3840 1197 4250 
L 5370 4250 
C 5286 4006 5165 3699 5069 3501 
L 5146 3456 
C 5389 3635 5709 3949 5882 4166 
C 6010 4173 6080 4192 6125 4237 
L 5638 4717 
L 5357 4435 
L 3405 4435 
L 3405 5139 
C 3565 5158 3629 5222 3642 5312 
L 2982 5376 
L 2982 4435 
L 1184 4435 
C 1171 4550 1139 4672 1101 4800 
L 992 4800 
z
" transform="scale(0.015625)"/>
        <path id="NotoSerifCJKjp-Regular-5168" d="M 3354 5018 
C 3814 4058 4800 3174 5837 2624 
C 5882 2784 6035 2931 6227 2970 
L 6240 3059 
C 5120 3546 4051 4262 3475 5094 
C 3635 5114 3712 5139 3731 5216 
L 2970 5408 
C 2618 4467 1306 3117 224 2477 
L 275 2381 
C 1478 2970 2746 4064 3354 5018 
z
M 422 -77 
L 474 -262 
L 5875 -262 
C 5965 -262 6029 -230 6048 -166 
C 5818 45 5453 326 5453 326 
L 5133 -77 
L 3398 -77 
L 3398 1293 
L 5229 1293 
C 5318 1293 5376 1325 5395 1395 
C 5178 1587 4832 1843 4832 1843 
L 4525 1485 
L 3398 1485 
L 3398 2694 
L 4992 2694 
C 5082 2694 5152 2726 5165 2790 
C 4954 2982 4627 3226 4627 3226 
L 4333 2880 
L 1338 2880 
L 1389 2694 
L 2970 2694 
L 2970 1485 
L 1235 1485 
L 1286 1293 
L 2970 1293 
L 2970 -77 
L 422 -77 
z
" transform="scale(0.015625)"/>
        <path id="NotoSerifCJKjp-Regular-7684" d="M 3488 2912 
L 3418 2867 
C 3738 2528 4122 1971 4192 1536 
C 4659 1178 5030 2221 3488 2912 
z
M 2131 5203 
L 1459 5357 
C 1402 5018 1293 4557 1216 4230 
L 1005 4230 
L 576 4435 
L 576 -301 
L 646 -301 
C 826 -301 973 -205 973 -154 
L 973 371 
L 2310 371 
L 2310 -115 
L 2368 -115 
C 2515 -115 2707 -6 2714 38 
L 2714 3962 
C 2842 3987 2950 4038 2989 4090 
L 2483 4486 
L 2246 4230 
L 1434 4230 
C 1581 4486 1766 4819 1894 5069 
C 2022 5069 2106 5114 2131 5203 
z
M 2310 4038 
L 2310 2438 
L 973 2438 
L 973 4038 
L 2310 4038 
z
M 973 2253 
L 2310 2253 
L 2310 557 
L 973 557 
L 973 2253 
z
M 4518 5165 
L 3859 5357 
C 3648 4371 3245 3392 2835 2758 
L 2925 2694 
C 3277 3046 3590 3514 3859 4045 
L 5421 4045 
C 5376 1856 5280 397 5043 160 
C 4973 90 4922 70 4794 70 
C 4646 70 4186 115 3891 147 
L 3885 32 
C 4147 -13 4422 -90 4518 -160 
C 4614 -230 4646 -352 4646 -486 
C 4954 -486 5210 -397 5382 -179 
C 5690 192 5798 1619 5843 3987 
C 5990 4000 6067 4032 6118 4090 
L 5613 4518 
L 5350 4230 
L 3949 4230 
C 4070 4486 4179 4762 4275 5037 
C 4416 5030 4493 5094 4518 5165 
z
" transform="scale(0.015625)"/>
        <path id="NotoSerifCJKjp-Regular-7b97" d="M 1786 2899 
L 4666 2899 
L 4666 2419 
L 1786 2419 
L 1786 2899 
z
M 1786 3085 
L 1786 3565 
L 4666 3565 
L 4666 3085 
L 1786 3085 
z
M 1786 2240 
L 4666 2240 
L 4666 1741 
L 1786 1741 
L 1786 2240 
z
M 1376 3750 
L 1376 1254 
L 1446 1254 
C 1613 1254 1786 1350 1786 1395 
L 1786 1555 
L 4666 1555 
L 4666 1312 
L 4730 1312 
C 4858 1312 5069 1408 5075 1446 
L 5075 3488 
C 5203 3514 5299 3565 5338 3610 
L 4832 4000 
L 4602 3750 
L 1818 3750 
L 1376 3955 
L 1376 3750 
z
M 3891 1466 
L 3891 915 
L 2541 915 
L 2586 1248 
C 2726 1261 2784 1331 2803 1408 
L 2195 1485 
C 2189 1274 2176 1082 2144 915 
L 294 915 
L 352 723 
L 2099 723 
C 1946 211 1517 -102 282 -371 
L 333 -506 
C 1933 -256 2349 128 2502 723 
L 3891 723 
L 3891 -518 
L 3968 -518 
C 4115 -518 4294 -435 4294 -384 
L 4294 723 
L 5958 723 
C 6048 723 6112 755 6125 826 
C 5914 1024 5581 1280 5581 1280 
L 5286 915 
L 4294 915 
L 4294 1222 
C 4454 1248 4512 1306 4525 1402 
L 3891 1466 
z
M 1376 5370 
C 1126 4653 710 4013 301 3616 
L 390 3546 
C 755 3770 1101 4096 1395 4506 
L 1850 4506 
C 1958 4333 2067 4096 2080 3904 
C 2368 3642 2707 4134 2131 4506 
L 3270 4506 
C 3354 4506 3418 4538 3430 4608 
C 3251 4787 2950 5024 2950 5024 
L 2694 4691 
L 1517 4691 
C 1587 4800 1651 4915 1715 5037 
C 1850 5018 1939 5069 1965 5146 
L 1376 5370 
z
M 3814 5370 
C 3597 4794 3258 4243 2944 3910 
L 3027 3834 
C 3290 4000 3546 4230 3776 4506 
L 4096 4506 
C 4230 4333 4358 4090 4384 3898 
C 4698 3648 5018 4160 4435 4506 
L 5830 4506 
C 5920 4506 5978 4538 5997 4608 
C 5792 4800 5459 5050 5459 5050 
L 5178 4691 
L 3923 4691 
C 4006 4806 4083 4922 4154 5050 
C 4288 5030 4365 5088 4390 5152 
L 3814 5370 
z
" transform="scale(0.015625)"/>
        <path id="NotoSerifCJKjp-Regular-529b" d="M 2739 5350 
C 2739 4787 2739 4250 2714 3731 
L 621 3731 
L 672 3546 
L 2701 3546 
C 2592 1990 2150 653 301 -384 
L 378 -499 
C 2560 512 3034 1926 3162 3546 
L 5062 3546 
C 5005 1811 4883 416 4640 192 
C 4563 128 4512 109 4378 109 
C 4211 109 3642 160 3296 192 
L 3290 77 
C 3590 32 3930 -51 4045 -122 
C 4154 -198 4186 -320 4186 -454 
C 4518 -454 4787 -365 4973 -160 
C 5293 192 5434 1606 5491 3482 
C 5638 3507 5715 3539 5766 3590 
L 5261 4019 
L 4998 3731 
L 3174 3731 
C 3200 4173 3206 4634 3213 5101 
C 3366 5120 3418 5190 3437 5280 
L 2739 5350 
z
" transform="scale(0.015625)"/>
       </defs>
       <use xlink:href="#NotoSerifCJKjp-Regular-627f"/>
       <use xlink:href="#NotoSerifCJKjp-Regular-8bfa" transform="translate(99.999985 0)"/>
       <use xlink:href="#NotoSerifCJKjp-Regular-6295" transform="translate(199.999969 0)"/>
       <use xlink:href="#NotoSerifCJKjp-Regular-5165" transform="translate(299.999954 0)"/>
       <use xlink:href="#NotoSerifCJKjp-Regular-5b89" transform="translate(399.999939 0)"/>
       <use xlink:href="#NotoSerifCJKjp-Regular-5168" transform="translate(499.999924 0)"/>
       <use xlink:href="#NotoSerifCJKjp-Regular-7684" transform="translate(599.999908 0)"/>
       <use xlink:href="#NotoSerifCJKjp-Regular-7b97" transform="translate(699.999893 0)"/>
       <use xlink:href="#NotoSerifCJKjp-Regular-529b" transform="translate(799.999878 0)"/>
      </g>
     </g>
    </g>
    <g id="xtick_2">
     <g id="line2d_2">
      <g>
       <use xlink:href="#m57b9de3af7" x="249.185272" y="218.614301" style="fill: #333333; stroke: #333333; stroke-width: 0.8"/>
      </g>
     </g>
     <g id="text_2">
      <!-- 实际投入安全的算力 -->
      <g style="fill: #333333" transform="translate(206.435272 233.261801) scale(0.095 -0.095)">
       <defs>
        <path id="NotoSerifCJKjp-Regular-5b9e" d="M 2797 5370 
L 2733 5325 
C 2963 5126 3187 4774 3226 4486 
C 3667 4160 4070 5082 2797 5370 
z
M 1171 2893 
L 1114 2835 
C 1427 2611 1850 2208 1997 1894 
C 2477 1645 2726 2579 1171 2893 
z
M 1683 3840 
L 1619 3782 
C 1894 3571 2278 3194 2426 2925 
C 2886 2688 3136 3546 1683 3840 
z
M 1082 4691 
L 973 4685 
C 1005 4275 755 3910 499 3776 
C 358 3693 269 3558 320 3411 
C 397 3245 640 3238 806 3354 
C 998 3482 1171 3750 1171 4160 
L 5363 4160 
C 5293 3917 5184 3610 5107 3411 
L 5184 3360 
C 5421 3546 5728 3859 5888 4090 
C 6022 4096 6086 4102 6138 4147 
L 5626 4634 
L 5344 4352 
L 1152 4352 
C 1139 4454 1120 4570 1082 4691 
z
M 5459 2035 
L 5139 1619 
L 3514 1619 
C 3686 2202 3686 2893 3706 3693 
C 3853 3712 3910 3776 3923 3866 
L 3258 3930 
C 3258 3014 3277 2253 3078 1619 
L 429 1619 
L 486 1427 
L 3008 1427 
C 2688 634 1946 51 256 -390 
L 307 -512 
C 1984 -147 2822 352 3245 1018 
C 4301 595 5075 -13 5389 -416 
C 5914 -672 6118 506 3309 1120 
C 3360 1222 3411 1325 3450 1427 
L 5875 1427 
C 5971 1427 6035 1459 6048 1530 
C 5824 1741 5459 2035 5459 2035 
z
" transform="scale(0.015625)"/>
        <path id="NotoSerifCJKjp-Regular-9645" d="M 3584 2246 
L 2918 2477 
C 2797 1766 2483 749 2016 83 
L 2093 6 
C 2714 602 3117 1498 3341 2150 
C 3501 2138 3552 2176 3584 2246 
z
M 4858 2406 
L 4762 2362 
C 5139 1779 5600 883 5645 205 
C 6131 -243 6490 1024 4858 2406 
z
M 5280 5126 
L 4979 4749 
L 2752 4749 
L 2803 4557 
L 5658 4557 
C 5754 4557 5811 4589 5830 4659 
C 5613 4864 5280 5126 5280 5126 
z
M 5600 3648 
L 5286 3245 
L 2240 3245 
L 2291 3059 
L 3936 3059 
L 3936 128 
C 3936 38 3910 13 3795 13 
C 3674 13 3046 58 3046 58 
L 3046 -45 
C 3328 -77 3482 -134 3578 -205 
C 3654 -269 3693 -378 3706 -512 
C 4275 -448 4358 -211 4358 115 
L 4358 3059 
L 6003 3059 
C 6093 3059 6157 3091 6176 3162 
C 5958 3366 5600 3648 5600 3648 
z
M 525 5190 
L 525 -493 
L 595 -493 
C 794 -493 922 -378 922 -346 
L 922 4794 
L 1843 4794 
C 1715 4294 1498 3565 1350 3174 
C 1766 2694 1914 2234 1914 1773 
C 1914 1530 1862 1395 1766 1338 
C 1722 1306 1683 1299 1613 1299 
C 1523 1299 1306 1299 1178 1299 
L 1178 1203 
C 1318 1184 1427 1139 1478 1094 
C 1530 1043 1555 909 1555 774 
C 2150 800 2349 1069 2342 1677 
C 2342 2176 2118 2701 1510 3194 
C 1766 3571 2118 4301 2310 4691 
C 2451 4691 2541 4704 2592 4755 
L 2093 5248 
L 1818 4986 
L 998 4986 
L 525 5190 
z
" transform="scale(0.015625)"/>
       </defs>
       <use xlink:href="#NotoSerifCJKjp-Regular-5b9e"/>
       <use xlink:href="#NotoSerifCJKjp-Regular-9645" transform="translate(99.999985 0)"/>
       <use xlink:href="#NotoSerifCJKjp-Regular-6295" transform="translate(199.999969 0)"/>
       <use xlink:href="#NotoSerifCJKjp-Regular-5165" transform="translate(299.999954 0)"/>
       <use xlink:href="#NotoSerifCJKjp-Regular-5b89" transform="translate(399.999939 0)"/>
       <use xlink:href="#NotoSerifCJKjp-Regular-5168" transform="translate(499.999924 0)"/>
       <use xlink:href="#NotoSerifCJKjp-Regular-7684" transform="translate(599.999908 0)"/>
       <use xlink:href="#NotoSerifCJKjp-Regular-7b97" transform="translate(699.999893 0)"/>
       <use xlink:href="#NotoSerifCJKjp-Regular-529b" transform="translate(799.999878 0)"/>
      </g>
     </g>
    </g>
    <g id="xtick_3">
     <g id="line2d_3">
      <g>
       <use xlink:href="#m57b9de3af7" x="397.890386" y="218.614301" style="fill: #333333; stroke: #333333; stroke-width: 0.8"/>
      </g>
     </g>
     <g id="text_3">
      <!-- 规定的安全测试时长（月） -->
      <g style="fill: #333333" transform="translate(340.890386 233.261801) scale(0.095 -0.095)">
       <defs>
        <path id="NotoSerifCJKjp-Regular-89c4" d="M 4954 2144 
L 4422 2208 
L 4422 58 
C 4422 -198 4493 -294 4877 -294 
L 5325 -294 
C 6022 -294 6182 -211 6182 -58 
C 6182 13 6163 58 6035 102 
L 6022 973 
L 5939 973 
C 5882 614 5818 224 5779 128 
C 5754 70 5741 58 5683 51 
C 5632 45 5504 45 5318 45 
L 4941 45 
C 4781 45 4762 70 4762 154 
L 4762 1997 
C 4883 2010 4947 2067 4954 2144 
z
M 4678 4186 
L 4077 4250 
C 4070 2253 4134 685 1990 -390 
L 2067 -499 
C 4454 518 4416 2099 4461 4019 
C 4608 4032 4666 4102 4678 4186 
z
M 1862 5299 
L 1229 5363 
L 1229 4000 
L 294 4000 
L 346 3808 
L 1229 3808 
L 1229 3398 
C 1229 3142 1222 2886 1210 2624 
L 166 2624 
L 218 2438 
L 1197 2438 
C 1120 1395 883 358 192 -416 
L 282 -486 
C 998 102 1344 928 1504 1792 
C 1856 1440 2195 909 2227 474 
C 2669 96 3014 1216 1530 1946 
C 1555 2106 1574 2272 1594 2438 
L 2726 2438 
C 2816 2438 2874 2470 2886 2541 
C 2701 2720 2394 2957 2394 2957 
L 2125 2624 
L 1606 2624 
C 1626 2880 1632 3142 1632 3392 
L 1632 3808 
L 2605 3808 
C 2694 3808 2746 3840 2758 3910 
C 2586 4090 2285 4314 2285 4314 
L 2029 4000 
L 1632 4000 
L 1632 5120 
C 1798 5146 1843 5210 1862 5299 
z
M 3411 1792 
L 3411 4698 
L 5210 4698 
L 5210 1664 
L 5274 1664 
C 5414 1664 5606 1773 5613 1811 
L 5613 4646 
C 5722 4666 5811 4710 5843 4755 
L 5376 5126 
L 5152 4883 
L 3443 4883 
L 3008 5088 
L 3008 1645 
L 3078 1645 
C 3258 1645 3411 1741 3411 1792 
z
" transform="scale(0.015625)"/>
        <path id="NotoSerifCJKjp-Regular-5b9a" d="M 1587 2438 
C 1453 1427 1075 269 211 -429 
L 275 -499 
C 979 -83 1421 525 1696 1171 
C 2214 -96 3027 -371 4512 -371 
C 4864 -371 5606 -371 5914 -371 
C 5926 -192 6016 -64 6176 -32 
L 6176 64 
C 5766 51 4922 51 4544 51 
C 4109 51 3731 70 3405 122 
L 3405 1702 
L 5242 1702 
C 5331 1702 5395 1734 5414 1805 
C 5197 1997 4858 2266 4858 2266 
L 4557 1888 
L 3405 1888 
L 3405 3130 
L 5248 3130 
C 5331 3130 5395 3162 5414 3226 
C 5197 3418 4851 3667 4851 3667 
L 4550 3315 
L 979 3315 
L 1030 3130 
L 2982 3130 
L 2982 218 
C 2438 384 2048 717 1766 1331 
C 1869 1606 1952 1888 2010 2157 
C 2144 2163 2221 2208 2246 2298 
L 1587 2438 
z
M 998 4800 
C 1037 4333 781 3917 499 3763 
C 365 3686 275 3552 339 3411 
C 416 3264 653 3270 813 3392 
C 1005 3526 1197 3821 1190 4269 
L 5370 4269 
C 5286 4032 5158 3725 5056 3533 
L 5139 3482 
C 5382 3661 5709 3974 5882 4186 
C 6010 4198 6080 4205 6131 4256 
L 5638 4730 
L 5357 4448 
L 3405 4448 
L 3405 5152 
C 3565 5171 3629 5235 3642 5318 
L 2982 5389 
L 2982 4448 
L 1184 4448 
C 1171 4557 1146 4678 1107 4806 
L 998 4800 
z
" transform="scale(0.015625)"/>
        <path id="NotoSerifCJKjp-Regular-6d4b" d="M 3462 4000 
L 2848 4160 
C 2842 1600 2874 429 1485 -403 
L 1574 -518 
C 3238 250 3181 1523 3226 3859 
C 3373 3859 3437 3923 3462 4000 
z
M 3162 1178 
L 3091 1126 
C 3398 838 3770 339 3866 -51 
C 4314 -371 4621 602 3162 1178 
z
M 2003 5094 
L 2003 1274 
L 2054 1274 
C 2246 1274 2362 1357 2362 1389 
L 2362 4710 
L 3744 4710 
L 3744 1402 
L 3802 1402 
C 3968 1402 4115 1498 4115 1530 
L 4115 4685 
C 4256 4698 4326 4736 4378 4787 
L 3923 5146 
L 3718 4902 
L 2438 4902 
L 2003 5094 
z
M 6080 5171 
L 5466 5242 
L 5466 134 
C 5466 38 5440 0 5325 0 
C 5210 0 4640 51 4640 51 
L 4640 -51 
C 4890 -83 5043 -134 5120 -198 
C 5203 -269 5235 -378 5248 -499 
C 5786 -442 5843 -237 5843 96 
L 5843 5005 
C 5997 5024 6061 5082 6080 5171 
z
M 5197 4442 
L 4614 4512 
L 4614 915 
L 4685 915 
C 4819 915 4966 1005 4966 1056 
L 4966 4275 
C 5126 4301 5178 4358 5197 4442 
z
M 621 1299 
C 550 1299 352 1299 352 1299 
L 352 1158 
C 486 1146 570 1133 659 1069 
C 781 979 826 461 730 -186 
C 742 -384 819 -499 934 -499 
C 1152 -499 1274 -333 1286 -64 
C 1306 467 1126 768 1120 1056 
C 1114 1210 1152 1408 1197 1606 
C 1254 1907 1632 3315 1830 4090 
L 1709 4109 
C 864 1658 864 1658 768 1440 
C 717 1299 691 1299 621 1299 
z
M 307 3853 
L 243 3795 
C 467 3610 736 3270 819 3002 
C 1242 2733 1555 3578 307 3853 
z
M 730 5299 
L 666 5242 
C 928 5056 1248 4710 1331 4422 
C 1786 4147 2074 5069 730 5299 
z
" transform="scale(0.015625)"/>
        <path id="NotoSerifCJKjp-Regular-8bd5" d="M 5075 5165 
L 5005 5126 
C 5184 4922 5395 4570 5446 4301 
C 5830 4000 6227 4768 5075 5165 
z
M 685 5338 
L 608 5286 
C 877 4992 1222 4486 1318 4109 
C 1754 3808 2067 4717 685 5338 
z
M 1459 3398 
C 1581 3424 1670 3469 1696 3514 
L 1280 3866 
L 1069 3642 
L 250 3642 
L 307 3450 
L 1062 3450 
L 1062 576 
C 1062 461 1030 422 832 314 
L 1107 -198 
C 1165 -173 1242 -96 1280 26 
C 1734 499 2131 966 2336 1210 
L 2266 1286 
L 1459 672 
L 1459 3398 
z
M 3802 2963 
L 3546 2643 
L 2042 2643 
L 2093 2451 
L 2925 2451 
L 2925 627 
C 2483 512 2118 422 1907 384 
L 2157 -90 
C 2214 -64 2259 -13 2285 58 
C 3168 410 3840 698 4320 909 
L 4294 998 
L 3322 736 
L 3322 2451 
L 4102 2451 
C 4192 2451 4250 2483 4262 2554 
C 4090 2733 3802 2963 3802 2963 
z
M 5664 4211 
L 5370 3840 
L 4634 3840 
C 4627 4237 4627 4653 4634 5069 
C 4794 5088 4851 5158 4858 5242 
L 4192 5325 
C 4192 4806 4198 4314 4211 3840 
L 1952 3840 
L 2003 3654 
L 4224 3654 
C 4301 1894 4563 518 5421 -198 
C 5645 -416 6010 -589 6163 -410 
C 6221 -346 6202 -230 6042 6 
L 6138 973 
L 6061 986 
C 5984 723 5882 429 5811 262 
C 5760 141 5728 134 5638 224 
C 4902 806 4685 2118 4640 3654 
L 6035 3654 
C 6125 3654 6189 3686 6208 3757 
C 5997 3949 5664 4211 5664 4211 
z
" transform="scale(0.015625)"/>
        <path id="NotoSerifCJKjp-Regular-65f6" d="M 2880 2861 
L 2803 2816 
C 3149 2426 3526 1805 3546 1286 
C 4006 870 4442 2035 2880 2861 
z
M 1907 1069 
L 922 1069 
L 922 2733 
L 1907 2733 
L 1907 1069 
z
M 525 4992 
L 525 13 
L 582 13 
C 794 13 922 128 922 160 
L 922 877 
L 1907 877 
L 1907 326 
L 1971 326 
C 2112 326 2304 429 2310 474 
L 2310 4518 
C 2438 4544 2547 4589 2592 4640 
L 2080 5043 
L 1843 4781 
L 998 4781 
L 525 4992 
z
M 1907 2925 
L 922 2925 
L 922 4589 
L 1907 4589 
L 1907 2925 
z
M 5664 4211 
L 5363 3802 
L 5069 3802 
L 5069 5043 
C 5229 5062 5293 5120 5306 5216 
L 4646 5286 
L 4646 3802 
L 2464 3802 
L 2515 3610 
L 4646 3610 
L 4646 179 
C 4646 64 4602 26 4461 26 
C 4301 26 3456 83 3456 83 
L 3456 -13 
C 3821 -58 4013 -115 4134 -192 
C 4243 -256 4288 -365 4314 -499 
C 4992 -435 5069 -198 5069 147 
L 5069 3610 
L 6048 3610 
C 6138 3610 6195 3642 6214 3712 
C 6016 3923 5664 4211 5664 4211 
z
" transform="scale(0.015625)"/>
        <path id="NotoSerifCJKjp-Regular-957f" d="M 2278 5216 
L 1587 5312 
L 1587 2739 
L 346 2739 
L 403 2547 
L 1587 2547 
L 1587 346 
C 1587 205 1555 166 1331 38 
L 1670 -525 
C 1709 -506 1754 -461 1792 -397 
C 2586 -6 3283 371 3686 589 
L 3654 678 
C 3053 480 2458 288 2016 160 
L 2016 2547 
L 3002 2547 
C 3450 1126 4410 192 5722 -333 
C 5786 -128 5939 -6 6131 13 
L 6144 83 
C 4800 474 3654 1306 3149 2547 
L 5907 2547 
C 5997 2547 6061 2579 6080 2650 
C 5856 2861 5498 3136 5498 3136 
L 5184 2739 
L 2016 2739 
L 2016 3066 
C 3142 3494 4320 4154 4998 4678 
C 5126 4621 5190 4634 5242 4691 
L 4730 5094 
C 4134 4506 3027 3744 2016 3213 
L 2016 5075 
C 2202 5094 2266 5146 2278 5216 
z
" transform="scale(0.015625)"/>
        <path id="NotoSerifCJKjp-Regular-ff08" d="M 5997 5299 
L 5888 5427 
C 5024 4877 4166 3974 4166 2432 
C 4166 890 5024 -13 5888 -563 
L 5997 -435 
C 5254 166 4589 1088 4589 2432 
C 4589 3776 5254 4698 5997 5299 
z
" transform="scale(0.015625)"/>
        <path id="NotoSerifCJKjp-Regular-6708" d="M 4531 4678 
L 4531 3430 
L 2022 3430 
L 2022 4678 
L 4531 4678 
z
M 1606 4870 
L 1606 2861 
C 1606 1568 1408 448 301 -422 
L 390 -499 
C 1408 90 1805 909 1946 1773 
L 4531 1773 
L 4531 192 
C 4531 83 4493 38 4358 38 
C 4205 38 3424 96 3424 96 
L 3424 -6 
C 3757 -51 3949 -102 4058 -179 
C 4154 -250 4198 -358 4224 -499 
C 4883 -435 4954 -205 4954 141 
L 4954 4595 
C 5088 4614 5190 4672 5235 4723 
L 4691 5139 
L 4467 4870 
L 2106 4870 
L 1606 5082 
L 1606 4870 
z
M 4531 3245 
L 4531 1958 
L 1971 1958 
C 2010 2259 2022 2566 2022 2867 
L 2022 3245 
L 4531 3245 
z
" transform="scale(0.015625)"/>
        <path id="NotoSerifCJKjp-Regular-ff09" d="M 512 5427 
L 403 5299 
C 1146 4698 1811 3776 1811 2432 
C 1811 1088 1146 166 403 -435 
L 512 -563 
C 1376 -13 2234 890 2234 2432 
C 2234 3974 1376 4877 512 5427 
z
" transform="scale(0.015625)"/>
       </defs>
       <use xlink:href="#NotoSerifCJKjp-Regular-89c4"/>
       <use xlink:href="#NotoSerifCJKjp-Regular-5b9a" transform="translate(99.999985 0)"/>
       <use xlink:href="#NotoSerifCJKjp-Regular-7684" transform="translate(199.999969 0)"/>
       <use xlink:href="#NotoSerifCJKjp-Regular-5b89" transform="translate(299.999954 0)"/>
       <use xlink:href="#NotoSerifCJKjp-Regular-5168" transform="translate(399.999939 0)"/>
       <use xlink:href="#NotoSerifCJKjp-Regular-6d4b" transform="translate(499.999924 0)"/>
       <use xlink:href="#NotoSerifCJKjp-Regular-8bd5" transform="translate(599.999908 0)"/>
       <use xlink:href="#NotoSerifCJKjp-Regular-65f6" transform="translate(699.999893 0)"/>
       <use xlink:href="#NotoSerifCJKjp-Regular-957f" transform="translate(799.999878 0)"/>
       <use xlink:href="#NotoSerifCJKjp-Regular-ff08" transform="translate(899.999863 0)"/>
       <use xlink:href="#NotoSerifCJKjp-Regular-6708" transform="translate(999.999847 0)"/>
       <use xlink:href="#NotoSerifCJKjp-Regular-ff09" transform="translate(1099.999832 0)"/>
      </g>
     </g>
    </g>
    <g id="xtick_4">
     <g id="line2d_4">
      <g>
       <use xlink:href="#m57b9de3af7" x="546.5955" y="218.614301" style="fill: #333333; stroke: #333333; stroke-width: 0.8"/>
      </g>
     </g>
     <g id="text_4">
      <!-- GPT-4o 实际测试时长（约0.25月） -->
      <g style="fill: #333333" transform="translate(471.575187 233.261801) scale(0.095 -0.095)">
       <defs>
        <path id="NotoSerifCJKjp-Regular-47" d="M 2874 2042 
L 3629 1978 
C 3642 1530 3648 1094 3648 646 
L 3648 301 
C 3366 179 3085 122 2765 122 
C 1690 122 966 966 966 2330 
C 966 3725 1722 4538 2790 4538 
C 3123 4538 3379 4474 3642 4326 
L 3827 3373 
L 4122 3373 
L 4102 4397 
C 3706 4634 3302 4768 2726 4768 
C 1325 4768 358 3789 358 2336 
C 358 877 1299 -102 2701 -102 
C 3264 -102 3693 19 4186 307 
L 4186 640 
C 4186 1146 4192 1581 4198 1990 
L 4666 2042 
L 4666 2234 
L 2874 2234 
L 2874 2042 
z
" transform="scale(0.015625)"/>
        <path id="NotoSerifCJKjp-Regular-50" d="M 339 4467 
L 998 4416 
C 1005 3782 1005 3142 1005 2502 
L 1005 2157 
C 1005 1510 1005 877 998 250 
L 339 192 
L 339 0 
L 2310 0 
L 2310 192 
L 1581 256 
L 1574 1907 
L 1958 1907 
C 3302 1907 3866 2515 3866 3302 
C 3866 4141 3322 4659 2150 4659 
L 339 4659 
L 339 4467 
z
M 1574 2118 
L 1574 2502 
C 1574 3162 1574 3808 1581 4448 
L 2106 4448 
C 2938 4448 3315 4051 3315 3309 
C 3315 2605 2918 2118 1946 2118 
L 1574 2118 
z
" transform="scale(0.015625)"/>
        <path id="NotoSerifCJKjp-Regular-54" d="M 141 3443 
L 416 3443 
L 602 4435 
L 1818 4435 
C 1830 3795 1830 3149 1830 2502 
L 1830 2157 
C 1830 1510 1830 877 1818 250 
L 1088 192 
L 1088 0 
L 3136 0 
L 3136 192 
L 2400 250 
C 2394 883 2394 1517 2394 2157 
L 2394 2502 
C 2394 3155 2394 3802 2400 4435 
L 3622 4435 
L 3808 3443 
L 4083 3443 
L 4026 4659 
L 192 4659 
L 141 3443 
z
" transform="scale(0.015625)"/>
        <path id="NotoSerifCJKjp-Regular-2d" d="M 275 1549 
L 1933 1549 
L 1933 1875 
L 275 1875 
L 275 1549 
z
" transform="scale(0.015625)"/>
        <path id="NotoSerifCJKjp-Regular-34" d="M 2170 -115 
L 2650 -115 
L 2650 1229 
L 3418 1229 
L 3418 1600 
L 2650 1600 
L 2650 4730 
L 2291 4730 
L 218 1530 
L 218 1229 
L 2170 1229 
L 2170 -115 
z
M 493 1600 
L 1389 2989 
L 2170 4211 
L 2170 1600 
L 493 1600 
z
" transform="scale(0.015625)"/>
        <path id="NotoSerifCJKjp-Regular-6f" d="M 1901 -96 
C 2752 -96 3501 493 3501 1651 
C 3501 2803 2726 3398 1901 3398 
C 1082 3398 307 2797 307 1651 
C 307 499 1056 -96 1901 -96 
z
M 1901 102 
C 1267 102 877 646 877 1645 
C 877 2643 1267 3194 1901 3194 
C 2534 3194 2925 2643 2925 1645 
C 2925 646 2534 102 1901 102 
z
" transform="scale(0.015625)"/>
        <path id="NotoSerifCJKjp-Regular-20" transform="scale(0.015625)"/>
        <path id="NotoSerifCJKjp-Regular-7ea6" d="M 3533 2950 
L 3456 2912 
C 3725 2554 4058 1978 4102 1530 
C 4550 1152 4947 2163 3533 2950 
z
M 301 275 
L 627 -294 
C 691 -269 742 -211 768 -134 
C 1734 269 2438 614 2957 883 
L 2931 973 
C 1862 666 794 378 301 275 
z
M 2253 5018 
L 1632 5318 
C 1427 4787 858 3802 416 3386 
C 365 3354 243 3322 243 3328 
L 474 2739 
C 531 2758 582 2810 627 2880 
C 1018 2982 1395 3085 1690 3168 
C 1306 2624 845 2067 461 1741 
C 410 1696 269 1677 269 1677 
L 499 1088 
C 544 1107 589 1139 627 1190 
C 1536 1434 2330 1696 2778 1830 
L 2765 1933 
C 1990 1830 1222 1728 710 1670 
C 1446 2278 2266 3187 2682 3802 
C 2803 3763 2893 3808 2931 3866 
L 2349 4243 
C 2227 4000 2048 3693 1824 3366 
C 1395 3347 973 3328 666 3322 
C 1165 3782 1715 4448 2016 4922 
C 2144 4909 2221 4960 2253 5018 
z
M 4358 5152 
L 3680 5357 
C 3424 4262 2970 3149 2502 2451 
L 2598 2381 
C 3002 2790 3366 3334 3674 3962 
L 5485 3962 
C 5434 1747 5318 365 5075 128 
C 5005 58 4960 38 4832 38 
C 4691 38 4256 83 3994 109 
L 3981 -13 
C 4230 -51 4480 -122 4576 -192 
C 4659 -256 4685 -371 4685 -506 
C 4973 -506 5229 -416 5402 -198 
C 5709 154 5843 1523 5888 3910 
C 6035 3923 6112 3955 6163 4013 
L 5670 4429 
L 5421 4154 
L 3763 4154 
C 3891 4435 4006 4730 4109 5030 
C 4256 5024 4333 5088 4358 5152 
z
" transform="scale(0.015625)"/>
        <path id="NotoSerifCJKjp-Regular-30" d="M 1779 -96 
C 2547 -96 3258 602 3258 2342 
C 3258 4058 2547 4755 1779 4755 
C 1011 4755 301 4058 301 2342 
C 301 602 1011 -96 1779 -96 
z
M 1779 102 
C 1299 102 832 640 832 2342 
C 832 4019 1299 4550 1779 4550 
C 2253 4550 2726 4019 2726 2342 
C 2726 640 2253 102 1779 102 
z
" transform="scale(0.015625)"/>
        <path id="NotoSerifCJKjp-Regular-2e" d="M 1043 -96 
C 1267 -96 1440 90 1440 294 
C 1440 518 1267 691 1043 691 
C 813 691 653 518 653 294 
C 653 90 813 -96 1043 -96 
z
" transform="scale(0.015625)"/>
        <path id="NotoSerifCJKjp-Regular-32" d="M 410 0 
L 3270 0 
L 3270 448 
L 762 448 
C 1152 877 1530 1293 1715 1485 
C 2688 2483 3078 2950 3078 3539 
C 3078 4294 2637 4755 1779 4755 
C 1126 4755 512 4422 410 3770 
C 448 3642 550 3571 672 3571 
C 819 3571 922 3654 986 3904 
L 1139 4461 
C 1306 4531 1466 4557 1626 4557 
C 2195 4557 2534 4192 2534 3552 
C 2534 2989 2253 2541 1574 1722 
C 1261 1350 832 845 410 346 
L 410 0 
z
" transform="scale(0.015625)"/>
        <path id="NotoSerifCJKjp-Regular-35" d="M 1574 -96 
C 2573 -96 3213 499 3213 1408 
C 3213 2317 2624 2803 1709 2803 
C 1421 2803 1158 2765 902 2656 
L 1005 4211 
L 3091 4211 
L 3091 4659 
L 800 4659 
L 653 2458 
L 813 2394 
C 1037 2496 1286 2547 1562 2547 
C 2221 2547 2650 2176 2650 1382 
C 2650 563 2234 102 1498 102 
C 1293 102 1146 134 998 198 
L 845 691 
C 794 928 710 1005 550 1005 
C 429 1005 326 941 282 819 
C 397 230 883 -96 1574 -96 
z
" transform="scale(0.015625)"/>
       </defs>
       <use xlink:href="#NotoSerifCJKjp-Regular-47"/>
       <use xlink:href="#NotoSerifCJKjp-Regular-50" transform="translate(74.099991 0)"/>
       <use xlink:href="#NotoSerifCJKjp-Regular-54" transform="translate(138.199982 0)"/>
       <use xlink:href="#NotoSerifCJKjp-Regular-2d" transform="translate(204.099976 0)"/>
       <use xlink:href="#NotoSerifCJKjp-Regular-34" transform="translate(238.699966 0)"/>
       <use xlink:href="#NotoSerifCJKjp-Regular-6f" transform="translate(294.199951 0)"/>
       <use xlink:href="#NotoSerifCJKjp-Regular-20" transform="translate(353.799942 0)"/>
       <use xlink:href="#NotoSerifCJKjp-Regular-5b9e" transform="translate(379.399933 0)"/>
       <use xlink:href="#NotoSerifCJKjp-Regular-9645" transform="translate(479.399918 0)"/>
       <use xlink:href="#NotoSerifCJKjp-Regular-6d4b" transform="translate(579.399902 0)"/>
       <use xlink:href="#NotoSerifCJKjp-Regular-8bd5" transform="translate(679.399887 0)"/>
       <use xlink:href="#NotoSerifCJKjp-Regular-65f6" transform="translate(779.399872 0)"/>
       <use xlink:href="#NotoSerifCJKjp-Regular-957f" transform="translate(879.399857 0)"/>
       <use xlink:href="#NotoSerifCJKjp-Regular-ff08" transform="translate(979.399841 0)"/>
       <use xlink:href="#NotoSerifCJKjp-Regular-7ea6" transform="translate(1079.399826 0)"/>
       <use xlink:href="#NotoSerifCJKjp-Regular-30" transform="translate(1179.399811 0)"/>
       <use xlink:href="#NotoSerifCJKjp-Regular-2e" transform="translate(1235.099808 0)"/>
       <use xlink:href="#NotoSerifCJKjp-Regular-32" transform="translate(1267.799805 0)"/>
       <use xlink:href="#NotoSerifCJKjp-Regular-35" transform="translate(1323.599792 0)"/>
       <use xlink:href="#NotoSerifCJKjp-Regular-6708" transform="translate(1379.39978 0)"/>
       <use xlink:href="#NotoSerifCJKjp-Regular-ff09" transform="translate(1479.399765 0)"/>
      </g>
     </g>
    </g>
   </g>
   <g id="matplotlib.axis_2">
    <g id="ytick_1">
     <g id="line2d_5">
      <path d="M 33.191094 218.614301 
L 613.884564 218.614301 
" clip-path="url(#p3310412ce8)" style="fill: none; stroke-dasharray: 2.96,1.28; stroke-dashoffset: 0; stroke: #b0b0b0; stroke-opacity: 0.35; stroke-width: 0.8"/>
     </g>
     <g id="line2d_6">
      <defs>
       <path id="m24e1fb2a99" d="M 0 0 
L -3.5 0 
" style="stroke: #333333; stroke-width: 0.8"/>
      </defs>
      <g>
       <use xlink:href="#m24e1fb2a99" x="33.191094" y="218.614301" style="fill: #333333; stroke: #333333; stroke-width: 0.8"/>
      </g>
     </g>
     <g id="text_5">
      <!-- 0.0 -->
      <g style="fill: #333333" transform="translate(12.500703 222.438051) scale(0.095 -0.095)">
       <use xlink:href="#NotoSerifCJKjp-Regular-30"/>
       <use xlink:href="#NotoSerifCJKjp-Regular-2e" transform="translate(55.699997 0)"/>
       <use xlink:href="#NotoSerifCJKjp-Regular-30" transform="translate(88.399994 0)"/>
      </g>
     </g>
    </g>
    <g id="ytick_2">
     <g id="line2d_7">
      <path d="M 33.191094 194.081116 
L 613.884564 194.081116 
" clip-path="url(#p3310412ce8)" style="fill: none; stroke-dasharray: 2.96,1.28; stroke-dashoffset: 0; stroke: #b0b0b0; stroke-opacity: 0.35; stroke-width: 0.8"/>
     </g>
     <g id="line2d_8">
      <g>
       <use xlink:href="#m24e1fb2a99" x="33.191094" y="194.081116" style="fill: #333333; stroke: #333333; stroke-width: 0.8"/>
      </g>
     </g>
     <g id="text_6">
      <!-- 2.5 -->
      <g style="fill: #333333" transform="translate(12.482891 197.904866) scale(0.095 -0.095)">
       <use xlink:href="#NotoSerifCJKjp-Regular-32"/>
       <use xlink:href="#NotoSerifCJKjp-Regular-2e" transform="translate(55.799988 0)"/>
       <use xlink:href="#NotoSerifCJKjp-Regular-35" transform="translate(88.499985 0)"/>
      </g>
     </g>
    </g>
    <g id="ytick_3">
     <g id="line2d_9">
      <path d="M 33.191094 169.547932 
L 613.884564 169.547932 
" clip-path="url(#p3310412ce8)" style="fill: none; stroke-dasharray: 2.96,1.28; stroke-dashoffset: 0; stroke: #b0b0b0; stroke-opacity: 0.35; stroke-width: 0.8"/>
     </g>
     <g id="line2d_10">
      <g>
       <use xlink:href="#m24e1fb2a99" x="33.191094" y="169.547932" style="fill: #333333; stroke: #333333; stroke-width: 0.8"/>
      </g>
     </g>
     <g id="text_7">
      <!-- 5.0 -->
      <g style="fill: #333333" transform="translate(12.491797 173.371682) scale(0.095 -0.095)">
       <use xlink:href="#NotoSerifCJKjp-Regular-35"/>
       <use xlink:href="#NotoSerifCJKjp-Regular-2e" transform="translate(55.799988 0)"/>
       <use xlink:href="#NotoSerifCJKjp-Regular-30" transform="translate(88.499985 0)"/>
      </g>
     </g>
    </g>
    <g id="ytick_4">
     <g id="line2d_11">
      <path d="M 33.191094 145.014747 
L 613.884564 145.014747 
" clip-path="url(#p3310412ce8)" style="fill: none; stroke-dasharray: 2.96,1.28; stroke-dashoffset: 0; stroke: #b0b0b0; stroke-opacity: 0.35; stroke-width: 0.8"/>
     </g>
     <g id="line2d_12">
      <g>
       <use xlink:href="#m24e1fb2a99" x="33.191094" y="145.014747" style="fill: #333333; stroke: #333333; stroke-width: 0.8"/>
      </g>
     </g>
     <g id="text_8">
      <!-- 7.5 -->
      <g style="fill: #333333" transform="translate(12.5675 148.838497) scale(0.095 -0.095)">
       <defs>
        <path id="NotoSerifCJKjp-Regular-37" d="M 986 0 
L 1453 0 
L 3123 4371 
L 3123 4659 
L 352 4659 
L 352 4211 
L 2829 4211 
L 934 45 
L 986 0 
z
" transform="scale(0.015625)"/>
       </defs>
       <use xlink:href="#NotoSerifCJKjp-Regular-37"/>
       <use xlink:href="#NotoSerifCJKjp-Regular-2e" transform="translate(54.899994 0)"/>
       <use xlink:href="#NotoSerifCJKjp-Regular-35" transform="translate(87.599991 0)"/>
      </g>
     </g>
    </g>
    <g id="ytick_5">
     <g id="line2d_13">
      <path d="M 33.191094 120.481563 
L 613.884564 120.481563 
" clip-path="url(#p3310412ce8)" style="fill: none; stroke-dasharray: 2.96,1.28; stroke-dashoffset: 0; stroke: #b0b0b0; stroke-opacity: 0.35; stroke-width: 0.8"/>
     </g>
     <g id="line2d_14">
      <g>
       <use xlink:href="#m24e1fb2a99" x="33.191094" y="120.481563" style="fill: #333333; stroke: #333333; stroke-width: 0.8"/>
      </g>
     </g>
     <g id="text_9">
      <!-- 10.0 -->
      <g style="fill: #333333" transform="translate(8.026797 124.305313) scale(0.095 -0.095)">
       <defs>
        <path id="NotoSerifCJKjp-Regular-31" d="M 480 0 
L 2733 -6 
L 2733 173 
L 1907 269 
L 1894 1472 
L 1894 3642 
L 1920 4653 
L 1824 4723 
L 448 4371 
L 448 4179 
L 1370 4333 
L 1370 1472 
L 1357 269 
L 480 179 
L 480 0 
z
" transform="scale(0.015625)"/>
       </defs>
       <use xlink:href="#NotoSerifCJKjp-Regular-31"/>
       <use xlink:href="#NotoSerifCJKjp-Regular-30" transform="translate(47.099991 0)"/>
       <use xlink:href="#NotoSerifCJKjp-Regular-2e" transform="translate(102.799988 0)"/>
       <use xlink:href="#NotoSerifCJKjp-Regular-30" transform="translate(135.499985 0)"/>
      </g>
     </g>
    </g>
    <g id="ytick_6">
     <g id="line2d_15">
      <path d="M 33.191094 95.948378 
L 613.884564 95.948378 
" clip-path="url(#p3310412ce8)" style="fill: none; stroke-dasharray: 2.96,1.28; stroke-dashoffset: 0; stroke: #b0b0b0; stroke-opacity: 0.35; stroke-width: 0.8"/>
     </g>
     <g id="line2d_16">
      <g>
       <use xlink:href="#m24e1fb2a99" x="33.191094" y="95.948378" style="fill: #333333; stroke: #333333; stroke-width: 0.8"/>
      </g>
     </g>
     <g id="text_10">
      <!-- 12.5 -->
      <g style="fill: #333333" transform="translate(8.008984 99.772128) scale(0.095 -0.095)">
       <use xlink:href="#NotoSerifCJKjp-Regular-31"/>
       <use xlink:href="#NotoSerifCJKjp-Regular-32" transform="translate(47.099991 0)"/>
       <use xlink:href="#NotoSerifCJKjp-Regular-2e" transform="translate(102.899979 0)"/>
       <use xlink:href="#NotoSerifCJKjp-Regular-35" transform="translate(135.599976 0)"/>
      </g>
     </g>
    </g>
    <g id="ytick_7">
     <g id="line2d_17">
      <path d="M 33.191094 71.415193 
L 613.884564 71.415193 
" clip-path="url(#p3310412ce8)" style="fill: none; stroke-dasharray: 2.96,1.28; stroke-dashoffset: 0; stroke: #b0b0b0; stroke-opacity: 0.35; stroke-width: 0.8"/>
     </g>
     <g id="line2d_18">
      <g>
       <use xlink:href="#m24e1fb2a99" x="33.191094" y="71.415193" style="fill: #333333; stroke: #333333; stroke-width: 0.8"/>
      </g>
     </g>
     <g id="text_11">
      <!-- 15.0 -->
      <g style="fill: #333333" transform="translate(8.017891 75.238943) scale(0.095 -0.095)">
       <use xlink:href="#NotoSerifCJKjp-Regular-31"/>
       <use xlink:href="#NotoSerifCJKjp-Regular-35" transform="translate(47.099991 0)"/>
       <use xlink:href="#NotoSerifCJKjp-Regular-2e" transform="translate(102.899979 0)"/>
       <use xlink:href="#NotoSerifCJKjp-Regular-30" transform="translate(135.599976 0)"/>
      </g>
     </g>
    </g>
    <g id="ytick_8">
     <g id="line2d_19">
      <path d="M 33.191094 46.882009 
L 613.884564 46.882009 
" clip-path="url(#p3310412ce8)" style="fill: none; stroke-dasharray: 2.96,1.28; stroke-dashoffset: 0; stroke: #b0b0b0; stroke-opacity: 0.35; stroke-width: 0.8"/>
     </g>
     <g id="line2d_20">
      <g>
       <use xlink:href="#m24e1fb2a99" x="33.191094" y="46.882009" style="fill: #333333; stroke: #333333; stroke-width: 0.8"/>
      </g>
     </g>
     <g id="text_12">
      <!-- 17.5 -->
      <g style="fill: #333333" transform="translate(8.093594 50.705759) scale(0.095 -0.095)">
       <use xlink:href="#NotoSerifCJKjp-Regular-31"/>
       <use xlink:href="#NotoSerifCJKjp-Regular-37" transform="translate(47.099991 0)"/>
       <use xlink:href="#NotoSerifCJKjp-Regular-2e" transform="translate(101.999985 0)"/>
       <use xlink:href="#NotoSerifCJKjp-Regular-35" transform="translate(134.699982 0)"/>
      </g>
     </g>
    </g>
    <g id="ytick_9">
     <g id="line2d_21">
      <path d="M 33.191094 22.348824 
L 613.884564 22.348824 
" clip-path="url(#p3310412ce8)" style="fill: none; stroke-dasharray: 2.96,1.28; stroke-dashoffset: 0; stroke: #b0b0b0; stroke-opacity: 0.35; stroke-width: 0.8"/>
     </g>
     <g id="line2d_22">
      <g>
       <use xlink:href="#m24e1fb2a99" x="33.191094" y="22.348824" style="fill: #333333; stroke: #333333; stroke-width: 0.8"/>
      </g>
     </g>
     <g id="text_13">
      <!-- 20.0 -->
      <g style="fill: #333333" transform="translate(7.2 26.172574) scale(0.095 -0.095)">
       <use xlink:href="#NotoSerifCJKjp-Regular-32"/>
       <use xlink:href="#NotoSerifCJKjp-Regular-30" transform="translate(55.799988 0)"/>
       <use xlink:href="#NotoSerifCJKjp-Regular-2e" transform="translate(111.499985 0)"/>
       <use xlink:href="#NotoSerifCJKjp-Regular-30" transform="translate(144.199982 0)"/>
      </g>
     </g>
    </g>
   </g>
   <g id="patch_3">
    <path d="M 33.191094 218.614301 
L 33.191094 12.535551 
" style="fill: none; stroke: #000000; stroke-width: 0.8; stroke-linejoin: miter; stroke-linecap: square"/>
   </g>
   <g id="patch_4">
    <path d="M 33.191094 218.614301 
L 613.884564 218.614301 
" style="fill: none; stroke: #000000; stroke-width: 0.8; stroke-linejoin: miter; stroke-linecap: square"/>
   </g>
   <g id="patch_5">
    <path d="M 59.586251 218.614301 
L 141.374064 218.614301 
L 141.374064 22.348824 
L 59.586251 22.348824 
z
" clip-path="url(#p3310412ce8)" style="fill: #1a56db"/>
   </g>
   <g id="patch_6">
    <path d="M 208.291365 218.614301 
L 290.079178 218.614301 
L 290.079178 198.987753 
L 208.291365 198.987753 
z
" clip-path="url(#p3310412ce8)" style="fill: #1a56db"/>
   </g>
   <g id="patch_7">
    <path d="M 356.996479 218.614301 
L 438.784292 218.614301 
L 438.784292 189.174479 
L 356.996479 189.174479 
z
" clip-path="url(#p3310412ce8)" style="fill: #1a56db"/>
   </g>
   <g id="patch_8">
    <path d="M 505.701593 218.614301 
L 587.489406 218.614301 
L 587.489406 208.801027 
L 505.701593 208.801027 
z
" clip-path="url(#p3310412ce8)" style="fill: #1a56db"/>
   </g>
   <g id="text_14">
    <!-- 20 -->
    <g transform="translate(94.841759 14.981094) scale(0.095 -0.095)">
     <defs>
      <path id="NotoSerifCJKjp-Bold-32" d="M 390 0 
L 3482 0 
L 3482 672 
L 845 672 
C 1178 986 1504 1293 1702 1466 
C 2816 2426 3341 2912 3341 3571 
C 3341 4326 2880 4845 1920 4845 
C 1139 4845 442 4461 378 3738 
C 442 3590 582 3488 742 3488 
C 922 3488 1101 3584 1165 3955 
L 1306 4589 
C 1414 4621 1523 4634 1632 4634 
C 2157 4634 2464 4262 2464 3616 
C 2464 2963 2163 2534 1472 1734 
C 1158 1370 781 934 390 499 
L 390 0 
z
" transform="scale(0.015625)"/>
      <path id="NotoSerifCJKjp-Bold-30" d="M 1901 -102 
C 2739 -102 3514 634 3514 2381 
C 3514 4109 2739 4845 1901 4845 
C 1050 4845 282 4109 282 2381 
C 282 634 1050 -102 1901 -102 
z
M 1901 109 
C 1478 109 1114 614 1114 2381 
C 1114 4128 1478 4627 1901 4627 
C 2310 4627 2688 4122 2688 2381 
C 2688 621 2310 109 1901 109 
z
" transform="scale(0.015625)"/>
     </defs>
     <use xlink:href="#NotoSerifCJKjp-Bold-32"/>
     <use xlink:href="#NotoSerifCJKjp-Bold-30" transform="translate(59.399994 0)"/>
    </g>
   </g>
   <g id="text_15">
    <!-- 2 -->
    <g transform="translate(246.363475 191.620022) scale(0.095 -0.095)">
     <use xlink:href="#NotoSerifCJKjp-Bold-32"/>
    </g>
   </g>
   <g id="text_16">
    <!-- 3 -->
    <g transform="translate(395.073784 181.806749) scale(0.095 -0.095)">
     <defs>
      <path id="NotoSerifCJKjp-Bold-33" d="M 1754 -102 
C 2778 -102 3437 422 3437 1210 
C 3437 1882 3072 2362 2125 2496 
C 2950 2675 3290 3142 3290 3712 
C 3290 4378 2810 4845 1869 4845 
C 1146 4845 512 4538 461 3821 
C 518 3699 634 3635 774 3635 
C 979 3635 1146 3731 1203 4019 
L 1331 4602 
C 1434 4621 1530 4634 1626 4634 
C 2138 4634 2438 4301 2438 3680 
C 2438 2944 2035 2592 1453 2592 
L 1222 2592 
L 1222 2349 
L 1485 2349 
C 2176 2349 2541 1946 2541 1210 
C 2541 506 2163 109 1485 109 
C 1363 109 1261 122 1171 154 
L 1043 736 
C 986 1101 851 1216 634 1216 
C 480 1216 339 1133 275 954 
C 358 282 864 -102 1754 -102 
z
" transform="scale(0.015625)"/>
     </defs>
     <use xlink:href="#NotoSerifCJKjp-Bold-33"/>
    </g>
   </g>
   <g id="text_17">
    <!-- 1 -->
    <g transform="translate(544.382296 201.433296) scale(0.095 -0.095)">
     <defs>
      <path id="NotoSerifCJKjp-Bold-31" d="M 365 0 
L 2765 -13 
L 2765 173 
L 2042 301 
C 2029 704 2022 1107 2022 1504 
L 2022 3712 
L 2048 4742 
L 1952 4813 
L 346 4435 
L 346 4218 
L 1158 4326 
L 1158 1504 
L 1146 301 
L 365 192 
L 365 0 
z
" transform="scale(0.015625)"/>
     </defs>
     <use xlink:href="#NotoSerifCJKjp-Bold-31"/>
    </g>
   </g>
  </g>
 </g>
 <defs>
  <clipPath id="p3310412ce8">
   <rect x="33.191094" y="12.535551" width="580.69347" height="206.07875"/>
  </clipPath>
 </defs>
</svg>
