<?xml version="1.0" encoding="utf-8" standalone="no"?>
<!DOCTYPE svg PUBLIC "-//W3C//DTD SVG 1.1//EN"
  "http://www.w3.org/Graphics/SVG/1.1/DTD/svg11.dtd">
<svg xmlns:xlink="http://www.w3.org/1999/xlink" width="629.317947pt" height="242.394766pt" viewBox="0 0 629.317947 242.394766" xmlns="http://www.w3.org/2000/svg" version="1.1">
 <metadata>
  <rdf:RDF xmlns:dc="http://purl.org/dc/elements/1.1/" xmlns:cc="http://creativecommons.org/ns#" xmlns:rdf="http://www.w3.org/1999/02/22-rdf-syntax-ns#">
   <cc:Work>
    <dc:type rdf:resource="http://purl.org/dc/dcmitype/StillImage"/>
    <dc:date>2026-06-06T01:24:09.887191</dc:date>
    <dc:format>image/svg+xml</dc:format>
    <dc:creator>
     <cc:Agent>
      <dc:title>Matplotlib v3.10.9, https://matplotlib.org/</dc:title>
     </cc:Agent>
    </dc:creator>
   </cc:Work>
  </rdf:RDF>
 </metadata>
 <defs>
  <style type="text/css">*{stroke-linejoin: round; stroke-linecap: butt}</style>
 </defs>
 <g id="figure_1">
  <g id="patch_1">
   <path d="M 0 242.394766 
L 629.317947 242.394766 
L 629.317947 0 
L 0 0 
z
" style="fill: #ffffff"/>
  </g>
  <g id="axes_1">
   <g id="patch_2">
    <path d="M 31.291094 218.435 
L 619.691773 218.435 
L 619.691773 7.2 
L 31.291094 7.2 
z
" style="fill: #fafafa"/>
   </g>
   <g id="matplotlib.axis_1">
    <g id="xtick_1">
     <g id="line2d_1">
      <defs>
       <path id="meaf445def7" d="M 0 0 
L 0 3.5 
" style="stroke: #333333; stroke-width: 0.8"/>
      </defs>
      <g>
       <use xlink:href="#meaf445def7" x="90.366287" y="218.435" style="fill: #333333; stroke: #333333; stroke-width: 0.8"/>
      </g>
     </g>
     <g id="text_1">
      <!-- ATM 股票发行计划（Q3 启动） -->
      <g style="fill: #333333" transform="translate(25.113162 233.496641) scale(0.095 -0.095)">
       <defs>
        <path id="WenQuanYiZenHei-41" d="M 3550 0 
L 2988 0 
L 2550 1281 
L 919 1281 
L 531 0 
L 69 0 
L 1494 4388 
L 2125 4388 
L 3550 0 
z
M 2425 1694 
L 1756 3800 
L 1075 1694 
L 2425 1694 
z
" transform="scale(0.015625)"/>
        <path id="WenQuanYiZenHei-54" d="M 3119 3913 
L 1869 3913 
L 1869 0 
L 1319 0 
L 1319 3913 
L 69 3913 
L 69 4388 
L 3119 4388 
L 3119 3913 
z
" transform="scale(0.015625)"/>
        <path id="WenQuanYiZenHei-4d" d="M 4756 0 
L 4206 0 
L 4206 3831 
L 4181 3831 
L 2788 0 
L 2419 0 
L 1000 3831 
L 975 3831 
L 975 0 
L 513 0 
L 513 4388 
L 1331 4388 
L 2656 875 
L 3950 4388 
L 4756 4388 
L 4756 0 
z
" transform="scale(0.015625)"/>
        <path id="WenQuanYiZenHei-20" transform="scale(0.015625)"/>
        <path id="WenQuanYiZenHei-80a1" d="M 3456 5069 
L 5250 5069 
L 5188 3500 
Q 5194 3450 5250 3450 
L 6050 3463 
Q 6038 3288 6050 3119 
L 5244 3119 
Q 5050 3119 4928 3284 
Q 4806 3450 4806 3675 
L 4806 4738 
L 3900 4738 
Q 3950 3763 3744 3138 
Q 3656 2894 3500 2688 
Q 3763 2681 4019 2681 
L 5563 2681 
Q 5513 1438 4725 488 
Q 5294 -106 6163 -344 
Q 5950 -494 5881 -750 
Q 5019 -506 4438 181 
Q 3756 -469 2850 -713 
Q 2725 -475 2519 -300 
Q 3475 -138 4169 538 
Q 3663 1313 3506 2338 
Q 3431 2338 3350 2331 
Q 3356 2419 3356 2513 
L 3281 2438 
Q 3125 2650 2875 2713 
Q 3456 3113 3456 4025 
Q 3456 4550 3456 5069 
z
M 5088 2350 
L 3906 2350 
Q 4050 1450 4450 844 
Q 4975 1513 5088 2350 
z
M 2250 3600 
L 2250 4625 
L 1300 4625 
L 1300 3600 
L 2250 3600 
z
M 2250 2038 
L 2250 3256 
L 1300 3256 
L 1300 2038 
L 2250 2038 
z
M 1744 -894 
Q 1794 -531 1600 -313 
Q 1731 -350 1881 -369 
Q 2144 -375 2194 -325 
Q 2250 -231 2250 138 
L 2250 1694 
L 1300 1694 
L 1300 1119 
Q 1294 -181 513 -738 
Q 381 -513 125 -425 
Q 869 -50 856 1119 
L 856 4975 
L 2694 4975 
L 2694 -119 
Q 2694 -463 2531 -650 
Q 2300 -881 1744 -894 
z
" transform="scale(0.015625)"/>
        <path id="WenQuanYiZenHei-7968" d="M 5944 -181 
L 5650 -538 
L 4875 75 
L 4075 650 
L 4338 1031 
L 5156 450 
L 5944 -181 
z
M 2044 994 
Q 2213 831 2406 706 
Q 1688 -238 381 -669 
Q 344 -444 188 -281 
Q 763 -113 1184 190 
Q 1606 494 2044 994 
z
M 3056 -175 
L 3056 1044 
L 1006 1044 
Q 706 1044 406 1025 
Q 425 1188 406 1356 
Q 706 1338 1006 1338 
L 5531 1338 
Q 5831 1338 6138 1356 
Q 6119 1188 6138 1025 
Q 5831 1044 5531 1044 
L 3481 1044 
L 3481 -250 
Q 3481 -450 3306 -600 
Q 3038 -819 2388 -813 
Q 2456 -519 2244 -294 
Q 2438 -319 2716 -322 
Q 2994 -325 3025 -294 
Q 3056 -263 3056 -175 
z
M 5444 2188 
Q 5431 2019 5444 1856 
Q 5144 1875 4844 1875 
L 1631 1875 
Q 1331 1875 1031 1856 
Q 1044 2019 1031 2188 
Q 1331 2169 1631 2169 
L 4844 2169 
Q 5144 2169 5444 2188 
z
M 875 2700 
Q 950 3375 875 4050 
L 2388 4050 
L 2388 4650 
L 975 4650 
Q 675 4650 375 4638 
Q 388 4800 375 4963 
Q 675 4950 975 4950 
L 5463 4950 
Q 5769 4950 6069 4963 
Q 6050 4800 6069 4638 
Q 5769 4650 5463 4650 
L 4106 4650 
L 4106 4050 
L 5550 4050 
Q 5475 3375 5544 2700 
L 875 2700 
z
M 3681 4050 
L 3681 4650 
L 2813 4650 
L 2813 4050 
L 3681 4050 
z
M 4106 3750 
L 4106 2994 
L 5125 2994 
L 5125 3750 
L 4106 3750 
z
M 3681 3750 
L 2813 3750 
L 2813 2994 
L 3681 2994 
L 3681 3750 
z
M 2388 3750 
L 1300 3750 
L 1300 2994 
L 2388 2994 
L 2388 3750 
z
" transform="scale(0.015625)"/>
        <path id="WenQuanYiZenHei-53d1" d="M 4850 3606 
Q 4425 4125 3925 4575 
L 4269 4950 
Q 4794 4475 5244 3925 
L 4850 3606 
z
M 6125 3463 
L 6125 3088 
L 2756 3088 
Q 2638 2750 2494 2431 
L 5019 2431 
Q 4813 1356 4088 550 
Q 4388 313 4866 103 
Q 5344 -106 5969 -150 
Q 5781 -344 5763 -619 
Q 4669 -519 3781 244 
Q 2825 -613 1538 -744 
Q 1444 -481 1263 -269 
Q 1875 -263 2437 -44 
Q 3000 175 3450 569 
Q 2875 1188 2500 2056 
L 2313 2056 
Q 1606 669 475 -269 
Q 325 -25 63 81 
Q 650 556 1181 1169 
Q 1900 1963 2244 3088 
L 544 3088 
L 925 3925 
Q 1119 4350 1294 4781 
Q 1513 4650 1750 4569 
Q 1538 4156 1344 3731 
L 1219 3463 
L 2350 3463 
Q 2588 4425 2650 5088 
Q 2925 5038 3200 5050 
Q 3113 4244 2881 3463 
L 6125 3463 
z
M 2950 2056 
Q 3294 1338 3744 856 
Q 4219 1388 4431 2056 
L 2950 2056 
z
" transform="scale(0.015625)"/>
        <path id="WenQuanYiZenHei-884c" d="M 4413 -6 
L 4413 2606 
L 3263 2606 
Q 2900 2606 2538 2588 
Q 2556 2788 2538 2981 
Q 2900 2963 3263 2963 
L 5456 2963 
Q 5819 2963 6188 2981 
Q 6163 2788 6188 2588 
Q 5819 2606 5456 2606 
L 4863 2606 
L 4863 -163 
Q 4863 -431 4675 -606 
Q 4413 -844 3694 -838 
Q 3769 -519 3544 -288 
Q 3750 -313 4025 -313 
Q 4300 -313 4356 -272 
Q 4413 -231 4413 -6 
z
M 5825 4675 
Q 5800 4475 5825 4281 
Q 5463 4294 5094 4294 
L 3656 4294 
Q 3294 4294 2925 4281 
Q 2950 4475 2925 4675 
Q 3294 4656 3656 4656 
L 5094 4656 
Q 5463 4656 5825 4675 
z
M 1944 3663 
Q 2156 3519 2400 3419 
Q 2069 2919 1663 2469 
L 1663 13 
Q 1663 -419 1688 -850 
Q 1419 -825 1150 -850 
Q 1175 -419 1175 13 
L 1175 1956 
L 438 1263 
Q 294 1438 38 1513 
Q 788 2144 1431 2981 
L 1944 3663 
z
M 1750 5094 
Q 1963 4969 2219 4875 
Q 1763 4119 1019 3525 
Q 769 3325 506 3138 
Q 375 3331 144 3425 
Q 794 3850 1300 4488 
Q 1538 4788 1750 5094 
z
" transform="scale(0.015625)"/>
        <path id="WenQuanYiZenHei-8ba1" d="M 4569 -769 
Q 4313 -738 4056 -769 
Q 4081 -294 4081 175 
L 4081 2806 
L 3213 2806 
Q 2813 2806 2413 2788 
Q 2438 3000 2413 3219 
Q 2813 3200 3213 3200 
L 4081 3200 
L 4081 4313 
Q 4081 4788 4056 5263 
Q 4313 5231 4569 5263 
Q 4550 4788 4550 4313 
L 4550 3200 
L 5381 3200 
Q 5781 3200 6181 3219 
Q 6163 3000 6181 2788 
Q 5781 2806 5381 2806 
L 4550 2806 
L 4550 175 
Q 4550 -294 4569 -769 
z
M 38 2725 
Q 63 2931 38 3138 
Q 419 3119 800 3119 
L 1481 3119 
L 1481 425 
L 2044 1150 
L 2250 1488 
L 2525 1188 
L 2313 950 
L 1294 -488 
L 963 -231 
Q 1025 -94 1025 63 
L 1025 2744 
L 800 2744 
Q 419 2744 38 2725 
z
M 1450 3913 
Q 1094 4438 600 4831 
L 913 5225 
Q 1488 4769 1869 4194 
L 1450 3913 
z
" transform="scale(0.015625)"/>
        <path id="WenQuanYiZenHei-5212" d="M 3113 4138 
L 2663 3919 
L 2163 4956 
L 2613 5169 
L 3113 4138 
z
M 1913 1050 
Q 1500 1931 1456 3181 
L 944 3125 
Q 581 3081 219 3025 
Q 219 3219 175 3413 
Q 538 3438 900 3481 
L 1444 3544 
L 1419 5244 
Q 1669 5219 1919 5244 
L 1894 3956 
Q 1894 3756 1894 3594 
L 2906 3713 
Q 3269 3756 3625 3813 
Q 3625 3613 3669 3419 
Q 3306 3400 2944 3356 
L 1906 3238 
Q 1950 2175 2225 1450 
Q 2619 2031 2763 2725 
Q 3019 2625 3288 2588 
Q 3006 1700 2444 981 
Q 2781 356 3338 -113 
Q 3400 475 3438 1081 
Q 3638 894 3913 869 
Q 3894 150 3744 -556 
Q 3713 -738 3531 -769 
Q 3450 -775 3375 -738 
Q 2619 -200 2138 619 
Q 1363 -206 350 -531 
Q 300 -256 94 -63 
Q 1175 231 1913 1050 
z
M 4894 -888 
Q 4944 -544 4763 -350 
Q 4944 -375 5175 -378 
Q 5406 -381 5472 -325 
Q 5538 -269 5544 38 
L 5544 4181 
Q 5544 4631 5525 5075 
Q 5750 5050 5969 5075 
Q 5950 4631 5950 4181 
L 5950 -106 
Q 5950 -656 5575 -800 
Q 5256 -913 4894 -888 
z
M 4763 756 
Q 4538 781 4313 756 
Q 4331 1200 4331 1650 
L 4331 3269 
Q 4331 3713 4313 4163 
Q 4538 4138 4763 4163 
Q 4744 3713 4744 3269 
L 4744 1650 
Q 4744 1200 4763 756 
z
" transform="scale(0.015625)"/>
        <path id="WenQuanYiZenHei-ff08" d="M 5438 -1094 
L 5106 -1094 
Q 4306 -100 4175 1231 
Q 4156 1438 4156 1656 
Q 4156 3031 4994 4244 
Q 5044 4313 5100 4388 
L 5431 4388 
Q 4638 3169 4625 1681 
Q 4625 188 5438 -1094 
z
" transform="scale(0.015625)"/>
        <path id="WenQuanYiZenHei-51" d="M 3913 2194 
Q 3913 1194 3413 569 
Q 3063 144 2544 6 
L 2544 -88 
Q 2544 -475 2881 -550 
Q 2950 -569 3031 -569 
Q 3175 -569 3625 -525 
L 3625 -963 
Q 3375 -1044 3150 -1044 
Q 2288 -1044 2125 -344 
Q 2094 -213 2094 -63 
Q 1050 -38 569 844 
Q 263 1406 263 2163 
Q 263 3194 775 3831 
Q 1269 4456 2088 4456 
Q 3088 4456 3575 3575 
Q 3913 2988 3913 2194 
z
M 3313 2181 
Q 3313 3425 2675 3813 
Q 2425 3969 2081 3969 
Q 1150 3969 919 2869 
Q 850 2544 850 2150 
Q 850 1163 1294 700 
Q 1588 388 2044 388 
Q 2963 388 3225 1406 
Q 3313 1763 3313 2181 
z
" transform="scale(0.015625)"/>
        <path id="WenQuanYiZenHei-33" d="M 3588 1231 
Q 3588 494 2875 144 
Q 2450 -63 1925 -63 
Q 1044 -63 556 488 
Q 356 706 256 1000 
L 769 1169 
Q 994 375 1913 375 
Q 2631 375 2900 788 
Q 3019 975 3019 1231 
Q 3019 1638 2638 1881 
Q 2325 2081 1613 2069 
L 1338 2069 
L 1338 2494 
Q 1969 2494 2094 2506 
Q 2325 2544 2463 2613 
Q 2763 2756 2844 3100 
Q 2863 3169 2863 3244 
Q 2863 3744 2381 3944 
L 2163 4006 
Q 2056 4025 1931 4025 
Q 1388 4025 1075 3631 
Q 969 3488 906 3313 
L 419 3456 
Q 675 4150 1400 4369 
Q 1669 4456 1975 4456 
Q 2694 4456 3106 4050 
Q 3419 3744 3419 3275 
Q 3419 2813 3025 2513 
Q 2825 2356 2575 2319 
L 2575 2306 
Q 3181 2213 3450 1769 
Q 3588 1525 3588 1231 
z
" transform="scale(0.015625)"/>
        <path id="WenQuanYiZenHei-542f" d="M 2738 -763 
Q 2494 -738 2250 -763 
Q 2275 -313 2275 144 
L 2275 1844 
L 5788 1844 
L 5788 -750 
L 5344 -750 
L 5344 -325 
L 2725 -325 
Q 2731 -544 2738 -763 
z
M 1300 4694 
L 3156 4694 
L 2738 5063 
L 3056 5431 
L 3800 4781 
L 3719 4694 
L 5769 4694 
L 5769 2613 
L 5325 2613 
L 5325 2894 
L 1744 2894 
L 1738 1325 
Q 1738 575 1419 28 
Q 1100 -519 569 -794 
Q 463 -544 213 -431 
Q 713 -263 1000 193 
Q 1288 650 1294 1325 
L 1300 4694 
z
M 5344 1500 
L 2719 1500 
L 2719 19 
L 5344 19 
L 5344 1500 
z
M 5325 3238 
L 5325 4350 
L 1744 4350 
L 1744 3238 
L 5325 3238 
z
" transform="scale(0.015625)"/>
        <path id="WenQuanYiZenHei-52a8" d="M 3244 3131 
Q 3225 2931 3244 2738 
Q 2881 2756 2519 2756 
L 1519 2756 
Q 1725 2631 1956 2550 
Q 1856 2375 1000 956 
L 2244 1088 
L 2475 1138 
Q 2269 1544 2038 1925 
L 2463 2188 
Q 2875 1500 3206 775 
L 2750 569 
L 2631 825 
L 2631 788 
L 2281 769 
L 400 525 
L 356 881 
Q 488 894 556 1000 
Q 706 1225 1028 1825 
Q 1350 2425 1456 2756 
L 781 2756 
Q 419 2756 56 2738 
Q 75 2931 56 3131 
Q 419 3113 781 3113 
L 2519 3113 
Q 2881 3113 3244 3131 
z
M 3019 4531 
Q 3000 4331 3019 4138 
Q 2656 4156 2288 4156 
L 1300 4156 
Q 938 4156 569 4138 
Q 594 4331 569 4531 
Q 938 4513 1300 4513 
L 2288 4513 
Q 2656 4513 3019 4531 
z
M 4669 -694 
Q 4719 -350 4513 -156 
Q 4719 -175 5000 -178 
Q 5281 -181 5344 -138 
Q 5406 -63 5406 175 
L 5406 3200 
Q 4881 3200 4513 3200 
L 4513 2331 
Q 4513 1056 3738 106 
Q 3213 -531 2438 -863 
Q 2319 -606 2019 -513 
Q 2838 -256 3375 388 
Q 4044 1200 4044 2331 
L 4044 3200 
Q 3413 3194 3150 3181 
Q 3169 3375 3150 3563 
L 4044 3544 
L 4044 4200 
Q 4044 4650 4019 5100 
Q 4275 5075 4531 5100 
Q 4513 4650 4513 4200 
L 4513 3544 
L 5875 3544 
L 5875 -6 
Q 5856 -463 5444 -606 
Q 5075 -725 4669 -694 
z
" transform="scale(0.015625)"/>
        <path id="WenQuanYiZenHei-ff09" d="M 2244 1656 
Q 2244 306 1519 -788 
Q 1413 -950 1294 -1094 
L 963 -1094 
Q 1775 188 1775 1681 
Q 1775 3169 988 4363 
Q 975 4375 969 4388 
L 1300 4388 
Q 2169 3231 2238 1863 
Q 2244 1763 2244 1656 
z
" transform="scale(0.015625)"/>
       </defs>
       <use xlink:href="#WenQuanYiZenHei-41"/>
       <use xlink:href="#WenQuanYiZenHei-54" transform="translate(55.957031 0)"/>
       <use xlink:href="#WenQuanYiZenHei-4d" transform="translate(105.957031 0)"/>
       <use xlink:href="#WenQuanYiZenHei-20" transform="translate(187.890625 0)"/>
       <use xlink:href="#WenQuanYiZenHei-80a1" transform="translate(217.871094 0)"/>
       <use xlink:href="#WenQuanYiZenHei-7968" transform="translate(317.871094 0)"/>
       <use xlink:href="#WenQuanYiZenHei-53d1" transform="translate(417.871094 0)"/>
       <use xlink:href="#WenQuanYiZenHei-884c" transform="translate(517.871094 0)"/>
       <use xlink:href="#WenQuanYiZenHei-8ba1" transform="translate(617.871094 0)"/>
       <use xlink:href="#WenQuanYiZenHei-5212" transform="translate(717.871094 0)"/>
       <use xlink:href="#WenQuanYiZenHei-ff08" transform="translate(817.871094 0)"/>
       <use xlink:href="#WenQuanYiZenHei-51" transform="translate(917.871094 0)"/>
       <use xlink:href="#WenQuanYiZenHei-33" transform="translate(983.789062 0)"/>
       <use xlink:href="#WenQuanYiZenHei-20" transform="translate(1043.75 0)"/>
       <use xlink:href="#WenQuanYiZenHei-542f" transform="translate(1073.730469 0)"/>
       <use xlink:href="#WenQuanYiZenHei-52a8" transform="translate(1173.730469 0)"/>
       <use xlink:href="#WenQuanYiZenHei-ff09" transform="translate(1273.730469 0)"/>
      </g>
     </g>
    </g>
    <g id="xtick_2">
     <g id="line2d_2">
      <g>
       <use xlink:href="#meaf445def7" x="207.92886" y="218.435" style="fill: #333333; stroke: #333333; stroke-width: 0.8"/>
      </g>
     </g>
     <g id="text_2">
      <!-- A/C 股公开发行 -->
      <g style="fill: #333333" transform="translate(174.687766 233.088437) scale(0.095 -0.095)">
       <defs>
        <path id="WenQuanYiZenHei-2f" d="M 3213 4388 
L 563 -1094 
L 138 -1094 
L 2775 4388 
L 3213 4388 
z
" transform="scale(0.015625)"/>
        <path id="WenQuanYiZenHei-43" d="M 3681 1369 
Q 3388 163 2413 -31 
Q 2238 -63 2056 -63 
Q 1075 -63 588 844 
Q 269 1444 269 2238 
Q 269 3294 819 3913 
Q 1306 4456 2100 4456 
Q 3031 4456 3469 3638 
Q 3613 3375 3681 3050 
L 3163 2956 
Q 2906 3894 2244 3981 
Q 2163 3994 2081 3994 
Q 1281 3994 994 3075 
Q 869 2675 869 2194 
Q 869 1350 1231 838 
Q 1544 394 2056 394 
Q 2888 394 3163 1406 
Q 3175 1444 3181 1481 
L 3681 1369 
z
" transform="scale(0.015625)"/>
        <path id="WenQuanYiZenHei-516c" d="M 4188 1194 
Q 4813 313 5356 -631 
L 4913 -888 
L 4469 -150 
L 4100 -188 
L 1038 -650 
L 981 -256 
Q 1144 -219 1244 -88 
Q 1544 288 2081 1238 
Q 2619 2188 2756 2694 
Q 3006 2563 3275 2481 
Q 3138 2138 2506 1122 
Q 1875 106 1694 -156 
L 4050 163 
L 4244 206 
L 3769 900 
L 4188 1194 
z
M 6156 2100 
Q 5900 1994 5775 1750 
Q 4825 2300 4244 3231 
Q 3719 4050 3444 5056 
L 3850 5156 
Q 4169 4019 4706 3303 
Q 5244 2588 6156 2100 
z
M 2063 4913 
Q 2331 4813 2606 4775 
Q 2144 3338 1244 2256 
Q 888 1838 475 1513 
Q 325 1763 63 1875 
Q 544 2238 978 2703 
Q 1413 3169 1638 3675 
Q 1888 4263 2063 4913 
z
" transform="scale(0.015625)"/>
        <path id="WenQuanYiZenHei-5f00" d="M 4331 -775 
Q 4075 -750 3819 -775 
Q 3844 -306 3844 169 
L 3844 2181 
L 2419 2181 
L 2419 1581 
Q 2419 744 1900 78 
Q 1381 -588 594 -831 
Q 519 -544 250 -406 
Q 975 -288 1465 278 
Q 1956 844 1956 1581 
L 1956 2181 
L 1031 2181 
Q 631 2181 231 2163 
Q 250 2381 231 2600 
Q 631 2575 1031 2575 
L 1956 2575 
L 1956 4488 
L 1450 4488 
Q 1050 4488 650 4469 
Q 675 4688 650 4906 
Q 1050 4881 1450 4881 
L 4994 4881 
Q 5394 4881 5794 4906 
Q 5769 4688 5794 4469 
Q 5394 4488 4994 4488 
L 4306 4488 
L 4306 2575 
L 5338 2575 
Q 5738 2575 6138 2600 
Q 6119 2381 6138 2163 
Q 5738 2181 5338 2181 
L 4306 2181 
L 4306 169 
Q 4306 -306 4331 -775 
z
M 3844 2575 
L 3844 4488 
L 2419 4488 
L 2419 2575 
L 3844 2575 
z
" transform="scale(0.015625)"/>
       </defs>
       <use xlink:href="#WenQuanYiZenHei-41"/>
       <use xlink:href="#WenQuanYiZenHei-2f" transform="translate(55.957031 0)"/>
       <use xlink:href="#WenQuanYiZenHei-43" transform="translate(107.910156 0)"/>
       <use xlink:href="#WenQuanYiZenHei-20" transform="translate(169.824219 0)"/>
       <use xlink:href="#WenQuanYiZenHei-80a1" transform="translate(199.804688 0)"/>
       <use xlink:href="#WenQuanYiZenHei-516c" transform="translate(299.804688 0)"/>
       <use xlink:href="#WenQuanYiZenHei-5f00" transform="translate(399.804688 0)"/>
       <use xlink:href="#WenQuanYiZenHei-53d1" transform="translate(499.804688 0)"/>
       <use xlink:href="#WenQuanYiZenHei-884c" transform="translate(599.804688 0)"/>
      </g>
     </g>
    </g>
    <g id="xtick_3">
     <g id="line2d_3">
      <g>
       <use xlink:href="#meaf445def7" x="325.491433" y="218.435" style="fill: #333333; stroke: #333333; stroke-width: 0.8"/>
      </g>
     </g>
     <g id="text_3">
      <!-- 强制可转优先股 -->
      <g style="fill: #333333" transform="translate(292.241433 233.033516) scale(0.095 -0.095)">
       <defs>
        <path id="WenQuanYiZenHei-5f3a" d="M 4038 1413 
L 2556 1413 
Q 2631 2125 2556 2844 
L 4038 2844 
L 4019 3650 
L 3369 3650 
L 3369 3344 
L 2950 3344 
L 2950 5050 
L 5500 5050 
L 5500 3344 
L 5081 3344 
L 5081 3650 
L 4475 3650 
L 4456 2844 
L 5994 2844 
Q 5906 2125 5981 1413 
L 4456 1413 
L 4456 81 
Q 4813 131 5319 219 
L 4981 675 
L 5350 950 
Q 5869 269 6313 -469 
L 5919 -713 
Q 5706 -356 5475 -13 
Q 3581 -344 2438 -606 
Q 2469 -338 2350 -88 
Q 3150 -81 4038 25 
L 4038 1413 
z
M 4456 2556 
L 4456 1700 
L 5563 1700 
L 5569 2556 
L 4456 2556 
z
M 4038 2556 
L 2975 2556 
L 2975 1700 
L 4038 1700 
L 4038 2556 
z
M 5081 4763 
L 3369 4763 
L 3369 3919 
L 5081 3919 
L 5081 4763 
z
M 988 -700 
Q 1038 -363 863 -169 
Q 1038 -194 1281 -197 
Q 1525 -200 1562 -165 
Q 1600 -131 1600 -6 
L 1600 1575 
L 256 1575 
L 519 3169 
L 519 3300 
L 544 3300 
L 550 3338 
L 719 3306 
L 1656 3313 
L 1656 4463 
L 744 4463 
Q 456 4463 169 4450 
Q 188 4625 169 4800 
Q 456 4781 744 4781 
L 2038 4781 
L 2038 2994 
L 881 2988 
L 700 1894 
L 1988 1894 
L 1988 -100 
Q 1988 -319 1813 -494 
Q 1556 -706 988 -700 
z
" transform="scale(0.015625)"/>
        <path id="WenQuanYiZenHei-5236" d="M 56 3388 
Q 638 4000 894 5050 
Q 1125 4975 1369 4944 
Q 1288 4531 1094 4138 
L 1838 4138 
L 1838 4350 
Q 1838 4800 1813 5244 
Q 2056 5219 2294 5244 
Q 2275 4800 2275 4350 
L 2275 4138 
L 2881 4138 
Q 3219 4138 3556 4156 
Q 3538 3975 3556 3794 
Q 3219 3806 2881 3806 
L 2275 3806 
L 2275 3031 
L 3075 3031 
Q 3406 3031 3744 3050 
Q 3725 2869 3744 2688 
Q 3406 2700 3075 2700 
L 2275 2700 
L 2275 2075 
L 3688 2075 
L 3688 456 
Q 3688 194 3413 31 
Q 3131 -131 2669 -125 
Q 2731 169 2538 413 
Q 2881 363 3194 400 
Q 3250 419 3250 531 
L 3250 1744 
L 2275 1744 
L 2275 125 
Q 2275 -319 2294 -769 
Q 2056 -744 1813 -769 
Q 1838 -319 1838 125 
L 1838 1744 
L 1031 1744 
L 1031 813 
Q 1031 369 1056 -75 
Q 813 -56 575 -81 
Q 594 369 594 813 
L 588 2075 
L 1838 2075 
L 1838 2700 
L 925 2700 
Q 594 2700 256 2688 
Q 275 2869 256 3050 
Q 588 3031 925 3031 
L 1838 3031 
L 1838 3806 
L 913 3806 
Q 719 3488 431 3150 
Q 281 3331 56 3388 
z
M 4806 -888 
Q 4856 -544 4663 -350 
Q 4856 -375 5100 -378 
Q 5344 -381 5416 -325 
Q 5488 -269 5494 38 
L 5494 4181 
Q 5494 4631 5469 5075 
Q 5706 5050 5944 5075 
Q 5925 4631 5925 4181 
L 5925 -106 
Q 5925 -656 5525 -800 
Q 5188 -913 4806 -888 
z
M 4663 756 
Q 4425 781 4188 756 
Q 4213 1200 4213 1650 
L 4213 3269 
Q 4213 3713 4188 4163 
Q 4425 4138 4663 4163 
Q 4644 3713 4644 3269 
L 4644 1650 
Q 4644 1200 4663 756 
z
" transform="scale(0.015625)"/>
        <path id="WenQuanYiZenHei-53ef" d="M 4456 106 
L 4456 4469 
L 875 4469 
Q 494 4469 113 4450 
Q 138 4656 113 4863 
Q 494 4844 875 4844 
L 5375 4844 
Q 5756 4844 6138 4863 
Q 6113 4656 6138 4450 
Q 5756 4469 5375 4469 
L 4913 4469 
L 4913 -63 
Q 4913 -506 4638 -669 
Q 4350 -844 3725 -838 
Q 3800 -519 3575 -275 
Q 3781 -300 4047 -303 
Q 4313 -306 4384 -250 
Q 4456 -194 4456 106 
z
M 1494 869 
L 1038 869 
L 1038 3581 
L 3256 3581 
L 3256 869 
L 2800 869 
L 2800 1275 
L 1494 1275 
L 1494 869 
z
M 2800 3206 
L 1494 3206 
L 1494 1650 
L 2800 1650 
L 2800 3206 
z
" transform="scale(0.015625)"/>
        <path id="WenQuanYiZenHei-8f6c" d="M 3581 2519 
L 2881 2506 
Q 2900 2688 2881 2869 
L 3669 2850 
L 3894 3694 
L 3144 3681 
Q 3163 3863 3144 4044 
L 3981 4025 
L 4050 4288 
Q 4163 4719 4256 5156 
Q 4488 5069 4725 5031 
Q 4588 4606 4475 4175 
L 4438 4025 
L 5306 4025 
Q 5638 4025 5975 4044 
Q 5956 3863 5975 3681 
Q 5638 3694 5306 3694 
L 4350 3694 
L 4125 2850 
L 5519 2850 
Q 5856 2850 6194 2869 
Q 6175 2688 6194 2506 
Q 5856 2519 5519 2519 
L 4038 2519 
L 3819 1706 
L 5531 1706 
L 5531 1375 
Q 5438 1250 5344 1113 
L 4619 6 
L 5363 -538 
L 5063 -919 
L 4206 -294 
L 3331 288 
L 3588 700 
L 4256 256 
L 4994 1375 
L 3281 1375 
L 3581 2519 
z
M 1231 5200 
Q 1444 5113 1694 5063 
Q 1538 4675 1406 4275 
L 1375 4194 
L 1931 4194 
Q 2231 4194 2525 4206 
Q 2506 4056 2525 3906 
Q 2231 3919 1931 3919 
L 1281 3919 
L 788 2456 
L 1388 2456 
L 1388 2594 
Q 1388 3013 1363 3425 
Q 1606 3406 1844 3425 
Q 1825 3013 1825 2594 
L 1825 2456 
L 2744 2456 
L 2744 2181 
L 1825 2181 
L 1825 1206 
Q 2263 1288 2819 1406 
L 2813 1163 
L 1825 931 
L 1825 -13 
Q 1825 -431 1844 -844 
Q 1606 -825 1363 -844 
Q 1388 -431 1388 -13 
L 1388 825 
L 1006 731 
Q 594 619 188 500 
Q 194 794 63 1000 
Q 744 1025 1388 1131 
L 1388 2181 
L 238 2181 
L 825 3919 
L 50 3906 
Q 69 4056 50 4206 
L 913 4194 
L 988 4400 
Q 1119 4800 1231 5200 
z
" transform="scale(0.015625)"/>
        <path id="WenQuanYiZenHei-4f18" d="M 5250 3731 
Q 4819 4244 4319 4694 
L 4650 5063 
Q 5181 4594 5631 4050 
L 5250 3731 
z
M 4756 -688 
Q 4469 -688 4281 -494 
Q 4094 -300 4094 25 
L 4094 3181 
L 3875 3181 
Q 3813 681 2306 -663 
Q 2106 -438 1806 -444 
Q 2613 156 3003 1059 
Q 3394 1963 3425 3181 
L 2831 3181 
Q 2469 3181 2100 3163 
Q 2125 3363 2100 3563 
Q 2469 3544 2831 3544 
L 3425 3544 
L 3425 4194 
Q 3425 4656 3406 5113 
Q 3656 5088 3900 5113 
Q 3881 4656 3881 4194 
L 3881 3544 
L 5450 3544 
Q 5813 3544 6175 3563 
Q 6156 3363 6175 3163 
Q 5813 3181 5450 3181 
L 4544 3181 
L 4544 25 
Q 4544 -100 4603 -190 
Q 4663 -281 4769 -281 
L 5513 -281 
Q 5569 -281 5600 -240 
Q 5631 -200 5631 -150 
L 5650 106 
L 5775 1006 
Q 5969 869 6213 869 
L 6038 -244 
Q 6031 -525 5938 -663 
Q 5906 -688 5850 -688 
L 4756 -688 
z
M 2206 4925 
Q 1944 4075 1531 3338 
L 1531 31 
Q 1531 -413 1550 -850 
Q 1313 -825 1075 -850 
Q 1100 -413 1100 31 
L 1100 2681 
Q 781 2269 394 1931 
Q 250 2156 0 2256 
Q 344 2544 644 2875 
Q 1150 3425 1363 3950 
Q 1563 4469 1700 5050 
Q 1938 4963 2206 4925 
z
" transform="scale(0.015625)"/>
        <path id="WenQuanYiZenHei-5148" d="M 4350 -688 
Q 4050 -688 3865 -497 
Q 3681 -306 3681 -6 
L 3681 1975 
L 2788 1975 
Q 2769 1338 2519 766 
Q 2269 194 1794 -215 
Q 1319 -625 706 -731 
Q 531 -419 219 -250 
Q 888 -194 1263 6 
Q 1744 256 2031 797 
Q 2319 1338 2300 1975 
L 1113 1975 
Q 750 1975 381 1956 
Q 406 2150 381 2350 
Q 750 2331 1113 2331 
L 3013 2331 
Q 3025 2738 3025 3150 
L 3025 3581 
L 1650 3581 
Q 1369 3019 963 2413 
Q 788 2575 550 2606 
Q 881 3081 1118 3578 
Q 1356 4075 1619 4844 
Q 1850 4744 2094 4694 
Q 1981 4306 1819 3938 
L 3025 3938 
L 3025 4344 
Q 3025 4800 3006 5263 
Q 3256 5231 3500 5263 
Q 3481 4800 3481 4344 
L 3481 3938 
L 4894 3938 
Q 5256 3938 5625 3956 
Q 5600 3763 5625 3563 
Q 5256 3581 4894 3581 
L 3481 3581 
L 3481 3150 
Q 3481 2738 3500 2331 
L 5413 2331 
Q 5775 2331 6138 2350 
Q 6119 2150 6138 1956 
Q 5775 1975 5413 1975 
L 4138 1975 
L 4138 -6 
Q 4138 -119 4200 -200 
Q 4263 -281 4356 -281 
L 5494 -275 
Q 5619 -275 5669 -6 
L 5788 638 
Q 5994 513 6225 500 
L 6044 -344 
Q 5975 -688 5813 -688 
L 4350 -688 
z
" transform="scale(0.015625)"/>
       </defs>
       <use xlink:href="#WenQuanYiZenHei-5f3a"/>
       <use xlink:href="#WenQuanYiZenHei-5236" transform="translate(100 0)"/>
       <use xlink:href="#WenQuanYiZenHei-53ef" transform="translate(200 0)"/>
       <use xlink:href="#WenQuanYiZenHei-8f6c" transform="translate(300 0)"/>
       <use xlink:href="#WenQuanYiZenHei-4f18" transform="translate(400 0)"/>
       <use xlink:href="#WenQuanYiZenHei-5148" transform="translate(500 0)"/>
       <use xlink:href="#WenQuanYiZenHei-80a1" transform="translate(600 0)"/>
      </g>
     </g>
    </g>
    <g id="xtick_4">
     <g id="line2d_4">
      <g>
       <use xlink:href="#meaf445def7" x="443.054007" y="218.435" style="fill: #333333; stroke: #333333; stroke-width: 0.8"/>
      </g>
     </g>
     <g id="text_4">
      <!-- 上调超募额度 -->
      <g style="fill: #333333" transform="translate(414.554007 233.263594) scale(0.095 -0.095)">
       <defs>
        <path id="WenQuanYiZenHei-4e0a" d="M 6138 125 
Q 6113 -100 6138 -331 
Q 5719 -313 5294 -313 
L 956 -313 
Q 531 -313 113 -331 
Q 138 -100 113 125 
Q 531 106 956 106 
L 2888 106 
L 2888 4313 
Q 2888 4788 2863 5269 
Q 3125 5244 3388 5269 
Q 3363 4788 3363 4313 
L 3363 2963 
L 4725 2963 
Q 5150 2963 5569 2988 
Q 5544 2756 5569 2531 
Q 5150 2550 4725 2550 
L 3363 2550 
L 3363 106 
L 5294 106 
Q 5719 106 6138 125 
z
" transform="scale(0.015625)"/>
        <path id="WenQuanYiZenHei-8c03" d="M 3550 338 
L 3125 338 
L 3125 2181 
L 4806 2181 
L 4806 338 
L 4375 338 
L 4375 731 
L 3550 731 
L 3550 338 
z
M 5319 2925 
Q 5300 2756 5319 2588 
Q 5006 2600 4694 2600 
L 3438 2600 
Q 3125 2600 2813 2588 
Q 2831 2756 2813 2925 
Q 3125 2906 3438 2906 
L 3781 2906 
L 3781 3663 
L 3425 3663 
Q 3113 3663 2800 3650 
Q 2819 3819 2800 3988 
Q 3113 3969 3425 3969 
L 3781 3969 
L 3781 4694 
L 2663 4694 
L 2669 1313 
Q 2675 556 2378 21 
Q 2081 -513 1569 -794 
Q 1463 -550 1219 -450 
Q 1688 -275 1966 165 
Q 2244 606 2244 1306 
L 2238 5000 
L 5844 5000 
L 5844 19 
Q 5844 -406 5594 -569 
Q 5325 -731 4750 -725 
Q 4819 -431 4613 -206 
Q 4800 -225 5040 -228 
Q 5281 -231 5347 -175 
Q 5413 -119 5413 213 
L 5413 4694 
L 4206 4694 
L 4206 3969 
L 4538 3969 
Q 4850 3969 5163 3988 
Q 5144 3819 5163 3650 
Q 4850 3663 4538 3663 
L 4206 3663 
L 4206 2906 
L 4694 2906 
Q 5006 2906 5319 2925 
z
M 4375 1875 
L 3550 1869 
L 3550 1038 
L 4375 1038 
L 4375 1875 
z
M 31 2613 
Q 50 2775 31 2938 
Q 313 2925 594 2925 
L 1231 2925 
L 1231 506 
L 1619 1006 
L 1763 1250 
L 1963 1013 
L 1813 838 
L 1063 -256 
L 794 -25 
Q 838 81 838 200 
L 838 2625 
L 31 2613 
z
M 919 3713 
Q 588 4325 194 4881 
L 538 5163 
Q 944 4588 1294 3944 
L 919 3713 
z
" transform="scale(0.015625)"/>
        <path id="WenQuanYiZenHei-8d85" d="M 3700 106 
L 3281 106 
L 3281 2194 
L 5413 2194 
L 5413 106 
L 4994 106 
L 4994 500 
L 3700 500 
L 3700 106 
z
M 5106 3138 
L 5106 4381 
L 4344 4381 
Q 4294 3663 3944 3063 
Q 3594 2463 3094 2013 
Q 2975 2206 2769 2288 
Q 3256 2694 3512 3187 
Q 3769 3681 3900 4381 
L 3144 4369 
Q 3163 4525 3144 4688 
Q 3438 4675 3731 4675 
L 5525 4675 
L 5525 3056 
Q 5506 2825 5331 2694 
Q 5044 2488 4488 2500 
Q 4556 2788 4356 3013 
Q 4531 2988 4790 2984 
Q 5050 2981 5078 3012 
Q 5106 3044 5106 3138 
z
M 4994 1906 
L 3700 1906 
L 3700 763 
L 4994 763 
L 4994 1906 
z
M 175 -588 
Q 844 -75 794 1150 
Q 794 1575 775 2000 
Q 1000 1975 1231 2000 
Q 1213 1575 1213 1150 
L 1213 881 
Q 1363 550 1631 300 
L 1631 2494 
L 1019 2494 
Q 725 2494 431 2481 
Q 450 2638 431 2794 
Q 725 2781 1019 2781 
L 1638 2781 
L 1638 3725 
L 1169 3725 
Q 881 3725 588 3713 
Q 600 3869 588 4031 
Q 881 4013 1169 4013 
L 1638 4013 
L 1638 4325 
Q 1638 4750 1619 5175 
Q 1850 5150 2081 5175 
Q 2056 4750 2056 4325 
L 2056 4013 
L 2900 4031 
Q 2881 3869 2900 3713 
L 2056 3725 
L 2056 2781 
L 2344 2781 
Q 2638 2781 2931 2794 
Q 2913 2638 2931 2481 
Q 2638 2494 2344 2494 
L 2050 2494 
L 2050 1563 
Q 2606 1569 2875 1581 
Q 2856 1419 2875 1263 
Q 2719 1269 2050 1275 
L 2050 19 
L 2031 19 
Q 2550 -256 3438 -331 
Q 3681 -350 4718 -387 
Q 5756 -425 5981 -425 
Q 5825 -594 5813 -869 
Q 5219 -844 4484 -822 
Q 3750 -800 3419 -769 
Q 1850 -650 1131 219 
Q 988 -394 581 -819 
Q 438 -638 175 -588 
z
" transform="scale(0.015625)"/>
        <path id="WenQuanYiZenHei-52df" d="M 4419 1694 
Q 5031 1088 6069 1013 
Q 5894 831 5881 581 
Q 5050 663 4250 1344 
Q 4056 1506 3888 1694 
L 2988 1694 
L 2981 900 
L 4738 900 
L 4738 -269 
Q 4738 -450 4519 -625 
Q 4288 -806 3656 -800 
Q 3725 -513 3519 -294 
Q 3706 -313 3990 -316 
Q 4275 -319 4297 -294 
Q 4319 -269 4319 -213 
L 4319 613 
L 2919 613 
Q 2750 131 2165 -281 
Q 1581 -694 863 -825 
Q 819 -550 575 -413 
Q 1319 -344 1938 69 
Q 2313 325 2469 613 
L 1925 613 
Q 1631 613 1338 594 
Q 1350 731 1344 863 
Q 844 600 369 488 
Q 344 744 169 944 
Q 594 1025 1028 1215 
Q 1463 1406 1775 1694 
L 769 1694 
Q 481 1694 188 1681 
Q 200 1838 188 2000 
Q 481 1981 769 1981 
L 2044 1981 
Q 2181 2150 2306 2331 
L 1306 2331 
Q 1381 3106 1306 3888 
L 1706 3888 
L 1706 4375 
L 788 4375 
Q 494 4375 200 4363 
Q 219 4519 200 4681 
Q 494 4669 788 4669 
L 1700 4669 
Q 1700 4963 1681 5256 
Q 1913 5231 2144 5256 
Q 2131 4963 2125 4669 
L 3856 4669 
Q 3850 4963 3838 5256 
Q 4069 5231 4294 5256 
Q 4281 4963 4275 4669 
L 5375 4669 
Q 5669 4669 5956 4681 
Q 5944 4519 5956 4363 
Q 5669 4375 5375 4375 
L 4275 4375 
L 4275 3888 
L 4788 3888 
Q 4706 3113 4775 2331 
L 2850 2331 
Q 2738 2156 2600 1981 
L 5375 1981 
Q 5669 1981 5956 2000 
Q 5944 1838 5956 1681 
Q 5669 1694 5375 1694 
L 4419 1694 
z
M 2569 1694 
L 2356 1694 
Q 1938 1219 1425 906 
Q 1675 900 1925 900 
L 2563 900 
Q 2569 950 2569 1000 
L 2569 1694 
z
M 1725 3600 
L 1725 3244 
L 4363 3244 
L 4363 3600 
L 1725 3600 
z
M 1725 2975 
L 1725 2619 
L 4356 2619 
L 4363 2975 
L 1725 2975 
z
M 3856 3888 
L 3856 4375 
L 2125 4375 
L 2125 3888 
L 3856 3888 
z
" transform="scale(0.015625)"/>
        <path id="WenQuanYiZenHei-989d" d="M 1450 -763 
Q 1231 -738 1006 -763 
Q 1025 -350 1025 63 
L 1025 1375 
Q 744 1181 438 1031 
Q 275 1219 56 1338 
Q 931 1706 1588 2381 
Q 1313 2538 1019 2656 
Q 925 2556 806 2438 
Q 688 2619 481 2688 
Q 775 2950 969 3262 
Q 1163 3575 1356 4063 
Q 1556 3969 1775 3919 
Q 1744 3819 1706 3719 
L 2931 3719 
Q 2663 3069 2231 2513 
Q 2750 2163 3188 1738 
L 2875 1419 
L 2838 1450 
L 2838 -144 
L 1431 -144 
Q 1438 -450 1450 -763 
z
M 900 3838 
L 494 3838 
L 494 4656 
L 1888 4656 
L 1381 5044 
L 1650 5400 
L 2288 4913 
L 2094 4656 
L 3400 4656 
L 3400 3838 
L 2994 3838 
L 2994 4388 
L 900 4388 
L 900 3838 
z
M 2431 1319 
L 1431 1319 
L 1431 125 
L 2431 125 
L 2431 1319 
z
M 1313 1588 
L 2694 1588 
Q 2344 1906 1938 2169 
Q 1650 1850 1313 1588 
z
M 1888 2725 
Q 2163 3069 2363 3450 
L 1588 3450 
Q 1469 3231 1319 3019 
Q 1606 2881 1888 2725 
z
M 5919 -888 
Q 5325 -225 4675 375 
L 4975 719 
Q 5644 106 6250 -575 
L 5919 -888 
z
M 3081 -906 
Q 3013 -631 2794 -506 
Q 3406 -431 3887 19 
Q 4369 469 4369 1069 
L 4369 2200 
Q 4369 2625 4350 3050 
Q 4575 3025 4800 3050 
Q 4781 2625 4781 2200 
L 4781 1069 
Q 4781 681 4606 319 
Q 4131 -606 3081 -906 
z
M 3963 488 
Q 3738 513 3513 488 
Q 3531 913 3531 1338 
L 3525 3675 
Q 3781 3675 4031 3675 
Q 4219 4013 4363 4525 
L 3788 4525 
Q 3500 4525 3213 4513 
Q 3231 4669 3213 4831 
Q 3500 4813 3788 4813 
L 5500 4813 
Q 5788 4813 6075 4831 
Q 6063 4669 6075 4513 
Q 5788 4525 5500 4525 
L 4813 4525 
Q 4738 4088 4494 3675 
L 5775 3675 
L 5775 513 
L 5363 513 
L 5363 3388 
L 4331 3388 
L 4319 3363 
Q 4306 3375 4294 3388 
Q 4119 3388 3938 3388 
L 3944 1338 
Q 3944 913 3963 488 
z
" transform="scale(0.015625)"/>
        <path id="WenQuanYiZenHei-5ea6" d="M 1863 1488 
Q 1881 1663 1863 1838 
Q 2181 1819 2506 1819 
L 5231 1819 
Q 4863 869 4081 213 
Q 4381 25 4763 -94 
Q 5388 -294 6044 -238 
Q 5894 -450 5913 -706 
Q 4731 -769 3744 -44 
Q 2731 -725 1519 -731 
Q 1450 -475 1300 -256 
Q 2431 -356 3388 244 
Q 2825 763 2413 1500 
Q 2138 1500 1863 1488 
z
M 5400 3613 
Q 5725 3613 6050 3631 
Q 6031 3456 6050 3281 
Q 5725 3294 5400 3294 
L 4800 3294 
Q 4794 2600 4794 2275 
L 2531 2275 
Q 2531 2781 2531 3294 
L 2213 3294 
Q 1894 3294 1569 3281 
Q 1588 3456 1569 3631 
Q 1894 3613 2213 3613 
L 2531 3613 
Q 2531 3963 2513 4306 
Q 2750 4281 2988 4306 
Q 2975 3963 2969 3613 
L 4363 3613 
Q 4363 3944 4350 4275 
Q 4588 4250 4825 4275 
Q 4806 3944 4800 3613 
L 5400 3613 
z
M 1013 4738 
L 3413 4738 
L 3025 5069 
L 3331 5431 
L 3856 4981 
L 3650 4738 
L 5444 4738 
Q 5769 4738 6094 4750 
Q 6075 4575 6094 4400 
Q 5769 4419 5444 4419 
L 1444 4419 
L 1456 1550 
Q 1463 44 600 -738 
Q 444 -525 181 -481 
Q 1044 100 1019 1550 
L 1013 4738 
z
M 2863 1500 
Q 3250 869 3719 475 
Q 4256 906 4581 1500 
L 2863 1500 
z
M 2969 3294 
Q 2969 2956 2969 2594 
L 4356 2594 
Q 4363 2931 4363 3294 
L 2969 3294 
z
" transform="scale(0.015625)"/>
       </defs>
       <use xlink:href="#WenQuanYiZenHei-4e0a"/>
       <use xlink:href="#WenQuanYiZenHei-8c03" transform="translate(100 0)"/>
       <use xlink:href="#WenQuanYiZenHei-8d85" transform="translate(200 0)"/>
       <use xlink:href="#WenQuanYiZenHei-52df" transform="translate(300 0)"/>
       <use xlink:href="#WenQuanYiZenHei-989d" transform="translate(400 0)"/>
       <use xlink:href="#WenQuanYiZenHei-5ea6" transform="translate(500 0)"/>
      </g>
     </g>
    </g>
    <g id="xtick_5">
     <g id="line2d_5">
      <g>
       <use xlink:href="#meaf445def7" x="560.61658" y="218.435" style="fill: #333333; stroke: #333333; stroke-width: 0.8"/>
      </g>
     </g>
     <g id="text_5">
      <!-- Berkshire Hathaway 定向私募 -->
      <g style="fill: #333333" transform="translate(499.115213 233.478828) scale(0.095 -0.095)">
       <defs>
        <path id="WenQuanYiZenHei-42" d="M 3675 1213 
Q 3675 613 3250 281 
Q 2913 13 2313 0 
L 2169 0 
L 519 0 
L 519 4388 
L 2175 4388 
Q 2706 4388 2981 4244 
Q 3025 4219 3081 4188 
Q 3531 3881 3538 3319 
Q 3538 2744 3088 2463 
L 2888 2375 
Q 2831 2350 2763 2338 
L 2763 2325 
Q 3313 2206 3550 1725 
Q 3675 1494 3675 1213 
z
M 2994 3250 
Q 2994 3856 2313 3938 
Q 2225 3944 2131 3944 
L 1069 3944 
L 1069 2506 
L 1981 2506 
Q 2994 2506 2994 3250 
z
M 3125 1238 
Q 3125 1638 2838 1894 
Q 2825 1906 2806 1919 
Q 2588 2088 2113 2088 
L 1069 2088 
L 1069 469 
L 2144 469 
Q 2975 469 3106 1038 
Q 3125 1125 3125 1238 
z
" transform="scale(0.015625)"/>
        <path id="WenQuanYiZenHei-65" d="M 3163 1588 
L 800 1588 
Q 794 963 1088 631 
Q 1331 356 1769 356 
Q 2313 356 2569 831 
Q 2606 900 2638 988 
L 3113 888 
Q 2931 325 2363 69 
Q 2063 -63 1725 -63 
Q 888 -63 488 625 
Q 238 1050 238 1625 
Q 238 2431 725 2925 
Q 1125 3338 1744 3338 
Q 2588 3338 2956 2606 
Q 3163 2200 3163 1663 
L 3163 1588 
z
M 2613 1956 
Q 2619 2488 2288 2763 
Q 2063 2950 1744 2950 
Q 1250 2950 988 2500 
Q 838 2256 825 1956 
L 2613 1956 
z
" transform="scale(0.015625)"/>
        <path id="WenQuanYiZenHei-72" d="M 2063 2850 
L 1956 2850 
Q 1356 2850 1094 2281 
Q 963 1988 963 1638 
L 963 0 
L 463 0 
L 463 3250 
L 906 3250 
L 906 2488 
L 919 2488 
Q 1219 3344 1819 3344 
Q 1894 3344 2063 3325 
L 2063 2850 
z
" transform="scale(0.015625)"/>
        <path id="WenQuanYiZenHei-6b" d="M 3150 0 
L 2619 0 
L 1669 1813 
L 975 1006 
L 975 0 
L 475 0 
L 475 4388 
L 975 4388 
L 975 1581 
L 2475 3238 
L 3013 3238 
L 2006 2100 
L 3150 0 
z
" transform="scale(0.015625)"/>
        <path id="WenQuanYiZenHei-73" d="M 3031 944 
Q 3031 294 2350 44 
Q 2050 -63 1681 -63 
Q 863 -63 475 425 
Q 319 613 256 863 
L 744 963 
Q 806 544 1344 406 
Q 1531 350 1719 350 
Q 2250 350 2438 631 
Q 2506 744 2506 888 
Q 2506 1206 2081 1331 
L 1638 1425 
Q 988 1544 750 1688 
Q 388 1919 388 2381 
Q 388 2975 994 3219 
Q 1269 3338 1606 3338 
Q 2463 3338 2781 2781 
Q 2856 2663 2894 2513 
L 2431 2419 
Q 2275 2869 1725 2925 
Q 1663 2931 1600 2931 
Q 1150 2931 981 2688 
Q 906 2594 906 2456 
Q 906 2138 1356 2013 
Q 1413 1988 2038 1881 
Q 2456 1806 2644 1675 
Q 3031 1413 3031 944 
z
" transform="scale(0.015625)"/>
        <path id="WenQuanYiZenHei-68" d="M 3006 0 
L 2506 0 
L 2506 1894 
Q 2506 2538 2313 2750 
L 2206 2844 
L 2063 2900 
Q 1969 2925 1856 2925 
Q 1488 2925 1194 2581 
Q 956 2231 950 1669 
L 950 0 
L 450 0 
L 450 4388 
L 950 4388 
L 950 2650 
L 969 2650 
Q 1288 3338 1975 3338 
Q 2706 3338 2931 2650 
Q 3006 2413 3006 2119 
L 3006 0 
z
" transform="scale(0.015625)"/>
        <path id="WenQuanYiZenHei-69" d="M 1044 3825 
L 494 3825 
L 494 4388 
L 1044 4388 
L 1044 3825 
z
M 1019 0 
L 519 0 
L 519 3250 
L 1019 3250 
L 1019 0 
z
" transform="scale(0.015625)"/>
        <path id="WenQuanYiZenHei-48" d="M 3656 0 
L 3106 0 
L 3106 2088 
L 1069 2088 
L 1069 0 
L 519 0 
L 519 4388 
L 1069 4388 
L 1069 2569 
L 3106 2569 
L 3106 4388 
L 3656 4388 
L 3656 0 
z
" transform="scale(0.015625)"/>
        <path id="WenQuanYiZenHei-61" d="M 3181 0 
L 2681 0 
L 2625 606 
Q 2294 -63 1488 -63 
Q 856 -63 544 331 
Q 350 575 350 919 
Q 350 1400 763 1706 
Q 850 1781 956 1825 
Q 1375 2025 2344 2019 
L 2625 2019 
L 2625 2156 
Q 2625 2756 2200 2894 
L 1975 2938 
Q 1894 2944 1800 2944 
Q 1025 2944 906 2369 
L 444 2444 
Q 525 3075 1281 3263 
Q 1544 3338 1844 3338 
Q 2675 3338 2931 2894 
Q 3113 2594 3113 1944 
L 3113 688 
Q 3113 244 3181 0 
z
M 2625 1425 
L 2625 1638 
L 2206 1638 
Q 888 1638 888 894 
Q 888 488 1319 363 
Q 1444 325 1594 325 
Q 2125 325 2425 769 
Q 2625 1063 2625 1425 
z
" transform="scale(0.015625)"/>
        <path id="WenQuanYiZenHei-74" d="M 1994 -25 
L 1406 -69 
Q 594 -69 594 1000 
L 594 2881 
L 19 2881 
L 19 3275 
L 594 3275 
L 594 4081 
L 1094 4138 
L 1094 3275 
L 1819 3275 
L 1819 2881 
L 1094 2881 
L 1094 913 
Q 1150 363 1538 331 
Q 1538 331 1994 369 
L 1994 -25 
z
" transform="scale(0.015625)"/>
        <path id="WenQuanYiZenHei-77" d="M 4150 3250 
L 3213 0 
L 2806 0 
L 2081 2413 
L 1413 0 
L 1000 0 
L 25 3250 
L 531 3250 
L 1238 825 
L 1913 3250 
L 2281 3250 
L 3006 819 
L 3738 3250 
L 4150 3250 
z
" transform="scale(0.015625)"/>
        <path id="WenQuanYiZenHei-79" d="M 2719 3250 
L 1444 -306 
Q 1250 -863 969 -1031 
Q 763 -1156 456 -1156 
Q 300 -1156 81 -1100 
L 81 -700 
Q 275 -744 419 -744 
Q 813 -744 1000 -344 
Q 1038 -269 1144 56 
L 19 3250 
L 538 3250 
L 1406 806 
L 2300 3250 
L 2719 3250 
z
" transform="scale(0.015625)"/>
        <path id="WenQuanYiZenHei-5b9a" d="M 2963 2850 
L 1469 2850 
Q 1138 2850 800 2831 
Q 819 3013 800 3194 
Q 1138 3181 1469 3181 
L 4944 3181 
Q 5281 3181 5619 3194 
Q 5600 3013 5619 2831 
Q 5281 2850 4944 2850 
L 3400 2850 
L 3400 1638 
L 4538 1638 
Q 4875 1638 5206 1656 
Q 5188 1469 5206 1288 
Q 4875 1306 4538 1306 
L 3400 1306 
L 3400 -181 
Q 3744 -269 4450 -288 
L 5981 -338 
Q 5813 -538 5806 -806 
Q 5156 -756 4575 -750 
Q 3113 -775 2331 -206 
Q 1806 175 1531 706 
Q 1119 -263 481 -888 
Q 319 -669 56 -588 
Q 913 200 1175 981 
Q 1338 1519 1425 2113 
Q 1688 2050 1950 2044 
Q 1875 1675 1763 1319 
Q 2031 356 2963 -38 
L 2963 2850 
z
M 963 3350 
L 519 3350 
L 519 4538 
L 3013 4531 
L 2456 5069 
L 2794 5419 
L 3431 4806 
L 3169 4531 
L 5675 4531 
L 5675 3350 
L 5238 3350 
L 5238 4206 
L 963 4200 
L 963 3350 
z
" transform="scale(0.015625)"/>
        <path id="WenQuanYiZenHei-5411" d="M 2269 588 
L 1813 588 
L 1819 2806 
L 3888 2800 
L 3888 588 
L 3431 588 
L 3431 906 
L 2269 906 
L 2269 588 
z
M 4913 3544 
L 913 3538 
L 919 181 
Q 919 -281 944 -738 
Q 694 -713 450 -738 
Q 469 -281 469 175 
L 456 3900 
L 1925 3900 
Q 2225 4413 2569 5169 
Q 2781 5044 3019 4969 
Q 2831 4525 2444 3900 
L 5363 3900 
L 5363 -81 
Q 5350 -569 4975 -700 
Q 4663 -819 4306 -800 
Q 4369 -494 4169 -250 
Q 4344 -275 4572 -278 
Q 4800 -281 4856 -231 
Q 4913 -169 4913 119 
L 4913 3544 
z
M 3431 2444 
L 2269 2444 
L 2269 1263 
L 3431 1263 
L 3431 2444 
z
" transform="scale(0.015625)"/>
        <path id="WenQuanYiZenHei-79c1" d="M 5925 631 
L 6413 -425 
L 5963 -625 
Q 5781 -206 5588 200 
L 5463 181 
L 3094 -319 
L 3025 25 
Q 3163 131 3238 294 
Q 3563 981 3997 2618 
Q 4431 4256 4438 5063 
Q 4700 5006 4975 5013 
Q 4956 4738 4868 4328 
Q 4781 3919 4293 2294 
Q 3806 669 3600 138 
L 5438 500 
L 5031 1275 
L 5463 1513 
Q 5700 1075 5925 625 
L 5925 631 
z
M 3313 4763 
Q 2781 4575 2194 4444 
L 2194 3475 
L 2631 3475 
Q 3050 3475 3469 3488 
Q 3444 3313 3469 3138 
Q 3050 3156 2631 3156 
L 2194 3156 
L 2194 2806 
L 2444 2950 
Q 3050 2331 3563 1644 
L 3031 1406 
Q 2788 1738 2513 2050 
L 2194 2413 
L 2194 81 
Q 2194 -356 2225 -794 
Q 1919 -769 1606 -794 
Q 1638 -356 1638 81 
L 1638 1719 
Q 1163 1056 513 569 
Q 344 750 56 831 
Q 363 1050 700 1394 
Q 1038 1738 1256 2206 
Q 1475 2675 1606 3156 
L 1156 3156 
Q 744 3156 325 3138 
Q 350 3313 325 3488 
Q 744 3475 1156 3475 
L 1638 3475 
L 1638 4331 
L 544 4150 
Q 525 4406 356 4563 
Q 1331 4688 2263 4963 
L 3075 5200 
Q 3169 4963 3313 4763 
z
" transform="scale(0.015625)"/>
       </defs>
       <use xlink:href="#WenQuanYiZenHei-42"/>
       <use xlink:href="#WenQuanYiZenHei-65" transform="translate(61.914062 0)"/>
       <use xlink:href="#WenQuanYiZenHei-72" transform="translate(115.820312 0)"/>
       <use xlink:href="#WenQuanYiZenHei-6b" transform="translate(147.753906 0)"/>
       <use xlink:href="#WenQuanYiZenHei-73" transform="translate(197.753906 0)"/>
       <use xlink:href="#WenQuanYiZenHei-68" transform="translate(249.707031 0)"/>
       <use xlink:href="#WenQuanYiZenHei-69" transform="translate(303.613281 0)"/>
       <use xlink:href="#WenQuanYiZenHei-72" transform="translate(327.539062 0)"/>
       <use xlink:href="#WenQuanYiZenHei-65" transform="translate(359.472656 0)"/>
       <use xlink:href="#WenQuanYiZenHei-20" transform="translate(413.378906 0)"/>
       <use xlink:href="#WenQuanYiZenHei-48" transform="translate(443.359375 0)"/>
       <use xlink:href="#WenQuanYiZenHei-61" transform="translate(509.277344 0)"/>
       <use xlink:href="#WenQuanYiZenHei-74" transform="translate(563.183594 0)"/>
       <use xlink:href="#WenQuanYiZenHei-68" transform="translate(595.117188 0)"/>
       <use xlink:href="#WenQuanYiZenHei-61" transform="translate(649.023438 0)"/>
       <use xlink:href="#WenQuanYiZenHei-77" transform="translate(702.929688 0)"/>
       <use xlink:href="#WenQuanYiZenHei-61" transform="translate(768.847656 0)"/>
       <use xlink:href="#WenQuanYiZenHei-79" transform="translate(822.753906 0)"/>
       <use xlink:href="#WenQuanYiZenHei-20" transform="translate(864.746094 0)"/>
       <use xlink:href="#WenQuanYiZenHei-5b9a" transform="translate(894.726562 0)"/>
       <use xlink:href="#WenQuanYiZenHei-5411" transform="translate(994.726562 0)"/>
       <use xlink:href="#WenQuanYiZenHei-79c1" transform="translate(1094.726562 0)"/>
       <use xlink:href="#WenQuanYiZenHei-52df" transform="translate(1194.726562 0)"/>
      </g>
     </g>
    </g>
   </g>
   <g id="matplotlib.axis_2">
    <g id="ytick_1">
     <g id="line2d_6">
      <path d="M 31.291094 218.435 
L 619.691773 218.435 
" clip-path="url(#p482eb2a1d1)" style="fill: none; stroke-dasharray: 2.96,1.28; stroke-dashoffset: 0; stroke: #b0b0b0; stroke-opacity: 0.35; stroke-width: 0.8"/>
     </g>
     <g id="line2d_7">
      <defs>
       <path id="m197977b2fe" d="M 0 0 
L -3.5 0 
" style="stroke: #333333; stroke-width: 0.8"/>
      </defs>
      <g>
       <use xlink:href="#m197977b2fe" x="31.291094" y="218.435" style="fill: #333333; stroke: #333333; stroke-width: 0.8"/>
      </g>
     </g>
     <g id="text_6">
      <!-- 0 -->
      <g style="fill: #333333" transform="translate(18.594062 221.691719) scale(0.095 -0.095)">
       <defs>
        <path id="WenQuanYiZenHei-30" d="M 3581 2175 
Q 3581 1288 3169 638 
Q 2713 -63 1938 -63 
Q 1025 -63 563 831 
Q 256 1425 256 2188 
Q 256 3188 700 3819 
Q 1138 4456 1888 4456 
Q 2863 4456 3306 3500 
Q 3581 2925 3581 2175 
z
M 3019 2100 
Q 3019 3356 2500 3806 
L 2350 3919 
Q 2144 4031 1888 4031 
Q 1100 4031 888 2956 
Q 819 2625 819 2225 
Q 819 1013 1338 569 
Q 1588 356 1938 356 
Q 2675 356 2925 1294 
Q 3019 1663 3019 2100 
z
" transform="scale(0.015625)"/>
       </defs>
       <use xlink:href="#WenQuanYiZenHei-30"/>
      </g>
     </g>
    </g>
    <g id="ytick_2">
     <g id="line2d_8">
      <path d="M 31.291094 193.287976 
L 619.691773 193.287976 
" clip-path="url(#p482eb2a1d1)" style="fill: none; stroke-dasharray: 2.96,1.28; stroke-dashoffset: 0; stroke: #b0b0b0; stroke-opacity: 0.35; stroke-width: 0.8"/>
     </g>
     <g id="line2d_9">
      <g>
       <use xlink:href="#m197977b2fe" x="31.291094" y="193.287976" style="fill: #333333; stroke: #333333; stroke-width: 0.8"/>
      </g>
     </g>
     <g id="text_7">
      <!-- 50 -->
      <g style="fill: #333333" transform="translate(12.897031 196.544695) scale(0.095 -0.095)">
       <defs>
        <path id="WenQuanYiZenHei-35" d="M 3531 1488 
Q 3531 688 2913 250 
Q 2456 -63 1844 -63 
Q 1175 -63 706 350 
Q 413 613 306 975 
L 781 1131 
Q 1000 538 1569 406 
Q 1706 369 1856 369 
Q 2550 369 2850 869 
Q 3000 1131 3000 1494 
Q 3000 2056 2581 2356 
Q 2319 2538 1969 2538 
Q 1400 2538 1031 2075 
Q 981 2013 938 1938 
L 500 2031 
L 644 4388 
L 3244 4388 
L 3200 3919 
L 1044 3919 
L 950 2500 
Q 1431 2975 2006 2975 
Q 2713 2975 3163 2475 
Q 3531 2063 3531 1488 
z
" transform="scale(0.015625)"/>
       </defs>
       <use xlink:href="#WenQuanYiZenHei-35"/>
       <use xlink:href="#WenQuanYiZenHei-30" transform="translate(59.960938 0)"/>
      </g>
     </g>
    </g>
    <g id="ytick_3">
     <g id="line2d_10">
      <path d="M 31.291094 168.140952 
L 619.691773 168.140952 
" clip-path="url(#p482eb2a1d1)" style="fill: none; stroke-dasharray: 2.96,1.28; stroke-dashoffset: 0; stroke: #b0b0b0; stroke-opacity: 0.35; stroke-width: 0.8"/>
     </g>
     <g id="line2d_11">
      <g>
       <use xlink:href="#m197977b2fe" x="31.291094" y="168.140952" style="fill: #333333; stroke: #333333; stroke-width: 0.8"/>
      </g>
     </g>
     <g id="text_8">
      <!-- 100 -->
      <g style="fill: #333333" transform="translate(7.2 171.397671) scale(0.095 -0.095)">
       <defs>
        <path id="WenQuanYiZenHei-31" d="M 3556 0 
L 488 0 
L 488 406 
L 1800 406 
L 1800 3725 
Q 1231 3125 588 2788 
L 588 3338 
Q 1456 3781 1931 4388 
L 2331 4388 
L 2331 406 
L 3556 406 
L 3556 0 
z
" transform="scale(0.015625)"/>
       </defs>
       <use xlink:href="#WenQuanYiZenHei-31"/>
       <use xlink:href="#WenQuanYiZenHei-30" transform="translate(59.960938 0)"/>
       <use xlink:href="#WenQuanYiZenHei-30" transform="translate(119.921875 0)"/>
      </g>
     </g>
    </g>
    <g id="ytick_4">
     <g id="line2d_12">
      <path d="M 31.291094 142.993929 
L 619.691773 142.993929 
" clip-path="url(#p482eb2a1d1)" style="fill: none; stroke-dasharray: 2.96,1.28; stroke-dashoffset: 0; stroke: #b0b0b0; stroke-opacity: 0.35; stroke-width: 0.8"/>
     </g>
     <g id="line2d_13">
      <g>
       <use xlink:href="#m197977b2fe" x="31.291094" y="142.993929" style="fill: #333333; stroke: #333333; stroke-width: 0.8"/>
      </g>
     </g>
     <g id="text_9">
      <!-- 150 -->
      <g style="fill: #333333" transform="translate(7.2 146.250647) scale(0.095 -0.095)">
       <use xlink:href="#WenQuanYiZenHei-31"/>
       <use xlink:href="#WenQuanYiZenHei-35" transform="translate(59.960938 0)"/>
       <use xlink:href="#WenQuanYiZenHei-30" transform="translate(119.921875 0)"/>
      </g>
     </g>
    </g>
    <g id="ytick_5">
     <g id="line2d_14">
      <path d="M 31.291094 117.846905 
L 619.691773 117.846905 
" clip-path="url(#p482eb2a1d1)" style="fill: none; stroke-dasharray: 2.96,1.28; stroke-dashoffset: 0; stroke: #b0b0b0; stroke-opacity: 0.35; stroke-width: 0.8"/>
     </g>
     <g id="line2d_15">
      <g>
       <use xlink:href="#m197977b2fe" x="31.291094" y="117.846905" style="fill: #333333; stroke: #333333; stroke-width: 0.8"/>
      </g>
     </g>
     <g id="text_10">
      <!-- 200 -->
      <g style="fill: #333333" transform="translate(7.2 121.103624) scale(0.095 -0.095)">
       <defs>
        <path id="WenQuanYiZenHei-32" d="M 3488 0 
L 369 0 
L 369 456 
L 2150 1850 
Q 2931 2463 2931 3144 
Q 2931 3619 2488 3863 
Q 2231 4013 1931 4013 
Q 1425 4013 1113 3619 
Q 894 3356 881 3013 
L 369 3169 
Q 531 3981 1213 4300 
Q 1544 4456 1950 4456 
Q 2631 4456 3088 4044 
L 3225 3888 
L 3350 3706 
Q 3481 3444 3481 3144 
Q 3481 2313 2519 1569 
L 1069 456 
L 3488 456 
L 3488 0 
z
" transform="scale(0.015625)"/>
       </defs>
       <use xlink:href="#WenQuanYiZenHei-32"/>
       <use xlink:href="#WenQuanYiZenHei-30" transform="translate(59.960938 0)"/>
       <use xlink:href="#WenQuanYiZenHei-30" transform="translate(119.921875 0)"/>
      </g>
     </g>
    </g>
    <g id="ytick_6">
     <g id="line2d_16">
      <path d="M 31.291094 92.699881 
L 619.691773 92.699881 
" clip-path="url(#p482eb2a1d1)" style="fill: none; stroke-dasharray: 2.96,1.28; stroke-dashoffset: 0; stroke: #b0b0b0; stroke-opacity: 0.35; stroke-width: 0.8"/>
     </g>
     <g id="line2d_17">
      <g>
       <use xlink:href="#m197977b2fe" x="31.291094" y="92.699881" style="fill: #333333; stroke: #333333; stroke-width: 0.8"/>
      </g>
     </g>
     <g id="text_11">
      <!-- 250 -->
      <g style="fill: #333333" transform="translate(7.2 95.9566) scale(0.095 -0.095)">
       <use xlink:href="#WenQuanYiZenHei-32"/>
       <use xlink:href="#WenQuanYiZenHei-35" transform="translate(59.960938 0)"/>
       <use xlink:href="#WenQuanYiZenHei-30" transform="translate(119.921875 0)"/>
      </g>
     </g>
    </g>
    <g id="ytick_7">
     <g id="line2d_18">
      <path d="M 31.291094 67.552857 
L 619.691773 67.552857 
" clip-path="url(#p482eb2a1d1)" style="fill: none; stroke-dasharray: 2.96,1.28; stroke-dashoffset: 0; stroke: #b0b0b0; stroke-opacity: 0.35; stroke-width: 0.8"/>
     </g>
     <g id="line2d_19">
      <g>
       <use xlink:href="#m197977b2fe" x="31.291094" y="67.552857" style="fill: #333333; stroke: #333333; stroke-width: 0.8"/>
      </g>
     </g>
     <g id="text_12">
      <!-- 300 -->
      <g style="fill: #333333" transform="translate(7.2 70.809576) scale(0.095 -0.095)">
       <use xlink:href="#WenQuanYiZenHei-33"/>
       <use xlink:href="#WenQuanYiZenHei-30" transform="translate(59.960938 0)"/>
       <use xlink:href="#WenQuanYiZenHei-30" transform="translate(119.921875 0)"/>
      </g>
     </g>
    </g>
    <g id="ytick_8">
     <g id="line2d_20">
      <path d="M 31.291094 42.405833 
L 619.691773 42.405833 
" clip-path="url(#p482eb2a1d1)" style="fill: none; stroke-dasharray: 2.96,1.28; stroke-dashoffset: 0; stroke: #b0b0b0; stroke-opacity: 0.35; stroke-width: 0.8"/>
     </g>
     <g id="line2d_21">
      <g>
       <use xlink:href="#m197977b2fe" x="31.291094" y="42.405833" style="fill: #333333; stroke: #333333; stroke-width: 0.8"/>
      </g>
     </g>
     <g id="text_13">
      <!-- 350 -->
      <g style="fill: #333333" transform="translate(7.2 45.662552) scale(0.095 -0.095)">
       <use xlink:href="#WenQuanYiZenHei-33"/>
       <use xlink:href="#WenQuanYiZenHei-35" transform="translate(59.960938 0)"/>
       <use xlink:href="#WenQuanYiZenHei-30" transform="translate(119.921875 0)"/>
      </g>
     </g>
    </g>
    <g id="ytick_9">
     <g id="line2d_22">
      <path d="M 31.291094 17.25881 
L 619.691773 17.25881 
" clip-path="url(#p482eb2a1d1)" style="fill: none; stroke-dasharray: 2.96,1.28; stroke-dashoffset: 0; stroke: #b0b0b0; stroke-opacity: 0.35; stroke-width: 0.8"/>
     </g>
     <g id="line2d_23">
      <g>
       <use xlink:href="#m197977b2fe" x="31.291094" y="17.25881" style="fill: #333333; stroke: #333333; stroke-width: 0.8"/>
      </g>
     </g>
     <g id="text_14">
      <!-- 400 -->
      <g style="fill: #333333" transform="translate(7.2 20.515528) scale(0.095 -0.095)">
       <defs>
        <path id="WenQuanYiZenHei-34" d="M 3631 1025 
L 2913 1025 
L 2913 0 
L 2381 0 
L 2381 1025 
L 219 1025 
L 219 1388 
L 2225 4388 
L 2913 4388 
L 2913 1444 
L 3631 1444 
L 3631 1025 
z
M 2381 1444 
L 2381 3963 
L 788 1444 
L 2381 1444 
z
" transform="scale(0.015625)"/>
       </defs>
       <use xlink:href="#WenQuanYiZenHei-34"/>
       <use xlink:href="#WenQuanYiZenHei-30" transform="translate(59.960938 0)"/>
       <use xlink:href="#WenQuanYiZenHei-30" transform="translate(119.921875 0)"/>
      </g>
     </g>
    </g>
   </g>
   <g id="patch_3">
    <path d="M 31.291094 218.435 
L 31.291094 7.2 
" style="fill: none; stroke: #000000; stroke-width: 0.8; stroke-linejoin: miter; stroke-linecap: square"/>
   </g>
   <g id="patch_4">
    <path d="M 31.291094 218.435 
L 619.691773 218.435 
" style="fill: none; stroke: #000000; stroke-width: 0.8; stroke-linejoin: miter; stroke-linecap: square"/>
   </g>
   <g id="patch_5">
    <path d="M 58.036579 218.435 
L 122.695994 218.435 
L 122.695994 17.25881 
L 58.036579 17.25881 
z
" clip-path="url(#p482eb2a1d1)" style="fill: #1a56db"/>
   </g>
   <g id="patch_6">
    <path d="M 175.599152 218.435 
L 240.258568 218.435 
L 240.258568 142.993929 
L 175.599152 142.993929 
z
" clip-path="url(#p482eb2a1d1)" style="fill: #1a56db"/>
   </g>
   <g id="patch_7">
    <path d="M 293.161726 218.435 
L 357.821141 218.435 
L 357.821141 142.993929 
L 293.161726 142.993929 
z
" clip-path="url(#p482eb2a1d1)" style="fill: #1a56db"/>
   </g>
   <g id="patch_8">
    <path d="M 410.724299 218.435 
L 475.383714 218.435 
L 475.383714 194.545327 
L 410.724299 194.545327 
z
" clip-path="url(#p482eb2a1d1)" style="fill: #1a56db"/>
   </g>
   <g id="patch_9">
    <path d="M 528.286872 218.435 
L 592.946288 218.435 
L 592.946288 168.140952 
L 528.286872 168.140952 
z
" clip-path="url(#p482eb2a1d1)" style="fill: #1a56db"/>
   </g>
   <g id="text_15">
    <!-- 400 -->
    <g transform="translate(81.82074 15.429449) scale(0.095 -0.095)">
     <use xlink:href="#WenQuanYiZenHei-34"/>
     <use xlink:href="#WenQuanYiZenHei-30" transform="translate(59.960938 0)"/>
     <use xlink:href="#WenQuanYiZenHei-30" transform="translate(119.921875 0)"/>
    </g>
   </g>
   <g id="text_16">
    <!-- 150 -->
    <g transform="translate(199.383313 141.164568) scale(0.095 -0.095)">
     <use xlink:href="#WenQuanYiZenHei-31"/>
     <use xlink:href="#WenQuanYiZenHei-35" transform="translate(59.960938 0)"/>
     <use xlink:href="#WenQuanYiZenHei-30" transform="translate(119.921875 0)"/>
    </g>
   </g>
   <g id="text_17">
    <!-- 150 -->
    <g transform="translate(316.945887 141.164568) scale(0.095 -0.095)">
     <use xlink:href="#WenQuanYiZenHei-31"/>
     <use xlink:href="#WenQuanYiZenHei-35" transform="translate(59.960938 0)"/>
     <use xlink:href="#WenQuanYiZenHei-30" transform="translate(119.921875 0)"/>
    </g>
   </g>
   <g id="text_18">
    <!-- 47.5 -->
    <g transform="translate(433.084202 192.715967) scale(0.095 -0.095)">
     <defs>
      <path id="WenQuanYiZenHei-37" d="M 3400 4056 
Q 1838 2175 1838 0 
L 1275 0 
Q 1269 1438 2056 2825 
Q 2381 3400 2825 3913 
L 444 3913 
L 500 4388 
L 3400 4388 
L 3400 4056 
z
" transform="scale(0.015625)"/>
      <path id="WenQuanYiZenHei-2e" d="M 1344 0 
L 631 0 
L 631 725 
L 1344 725 
L 1344 0 
z
" transform="scale(0.015625)"/>
     </defs>
     <use xlink:href="#WenQuanYiZenHei-34"/>
     <use xlink:href="#WenQuanYiZenHei-37" transform="translate(59.960938 0)"/>
     <use xlink:href="#WenQuanYiZenHei-2e" transform="translate(119.921875 0)"/>
     <use xlink:href="#WenQuanYiZenHei-35" transform="translate(149.902344 0)"/>
    </g>
   </g>
   <g id="text_19">
    <!-- 100 -->
    <g transform="translate(552.071033 166.311592) scale(0.095 -0.095)">
     <use xlink:href="#WenQuanYiZenHei-31"/>
     <use xlink:href="#WenQuanYiZenHei-30" transform="translate(59.960938 0)"/>
     <use xlink:href="#WenQuanYiZenHei-30" transform="translate(119.921875 0)"/>
    </g>
   </g>
  </g>
 </g>
 <defs>
  <clipPath id="p482eb2a1d1">
   <rect x="31.291094" y="7.2" width="588.400679" height="211.235"/>
  </clipPath>
 </defs>
</svg>
