<?xml version="1.0" encoding="utf-8" standalone="no"?>
<!DOCTYPE svg PUBLIC "-//W3C//DTD SVG 1.1//EN"
  "http://www.w3.org/Graphics/SVG/1.1/DTD/svg11.dtd">
<svg xmlns:xlink="http://www.w3.org/1999/xlink" width="638.417808pt" height="242.571328pt" viewBox="0 0 638.417808 242.571328" xmlns="http://www.w3.org/2000/svg" version="1.1">
 <metadata>
  <rdf:RDF xmlns:dc="http://purl.org/dc/elements/1.1/" xmlns:cc="http://creativecommons.org/ns#" xmlns:rdf="http://www.w3.org/1999/02/22-rdf-syntax-ns#">
   <cc:Work>
    <dc:type rdf:resource="http://purl.org/dc/dcmitype/StillImage"/>
    <dc:date>2026-06-06T01:24:09.771549</dc:date>
    <dc:format>image/svg+xml</dc:format>
    <dc:creator>
     <cc:Agent>
      <dc:title>Matplotlib v3.10.9, https://matplotlib.org/</dc:title>
     </cc:Agent>
    </dc:creator>
   </cc:Work>
  </rdf:RDF>
 </metadata>
 <defs>
  <style type="text/css">*{stroke-linejoin: round; stroke-linecap: butt}</style>
 </defs>
 <g id="figure_1">
  <g id="patch_1">
   <path d="M 0 242.571328 
L 638.417808 242.571328 
L 638.417808 0 
L 0 0 
z
" style="fill: #ffffff"/>
  </g>
  <g id="axes_1">
   <g id="patch_2">
    <path d="M 173.108281 220.28 
L 630.178281 220.28 
L 630.178281 7.2 
L 173.108281 7.2 
z
" style="fill: #fafafa"/>
   </g>
   <g id="matplotlib.axis_1">
    <g id="xtick_1">
     <g id="line2d_1">
      <path d="M 173.108281 220.28 
L 173.108281 7.2 
" clip-path="url(#pdf7845524f)" style="fill: none; stroke-dasharray: 2.96,1.28; stroke-dashoffset: 0; stroke: #b0b0b0; stroke-opacity: 0.35; stroke-width: 0.8"/>
     </g>
     <g id="line2d_2">
      <defs>
       <path id="me82ae83fb3" d="M 0 0 
L 0 3.5 
" style="stroke: #333333; stroke-width: 0.8"/>
      </defs>
      <g>
       <use xlink:href="#me82ae83fb3" x="173.108281" y="220.28" style="fill: #333333; stroke: #333333; stroke-width: 0.8"/>
      </g>
     </g>
     <g id="text_1">
      <!-- 0 -->
      <g style="fill: #333333" transform="translate(170.259766 233.793437) scale(0.095 -0.095)">
       <defs>
        <path id="WenQuanYiZenHei-30" d="M 3581 2175 
Q 3581 1288 3169 638 
Q 2713 -63 1938 -63 
Q 1025 -63 563 831 
Q 256 1425 256 2188 
Q 256 3188 700 3819 
Q 1138 4456 1888 4456 
Q 2863 4456 3306 3500 
Q 3581 2925 3581 2175 
z
M 3019 2100 
Q 3019 3356 2500 3806 
L 2350 3919 
Q 2144 4031 1888 4031 
Q 1100 4031 888 2956 
Q 819 2625 819 2225 
Q 819 1013 1338 569 
Q 1588 356 1938 356 
Q 2675 356 2925 1294 
Q 3019 1663 3019 2100 
z
" transform="scale(0.015625)"/>
       </defs>
       <use xlink:href="#WenQuanYiZenHei-30"/>
      </g>
     </g>
    </g>
    <g id="xtick_2">
     <g id="line2d_3">
      <path d="M 256.308733 220.28 
L 256.308733 7.2 
" clip-path="url(#pdf7845524f)" style="fill: none; stroke-dasharray: 2.96,1.28; stroke-dashoffset: 0; stroke: #b0b0b0; stroke-opacity: 0.35; stroke-width: 0.8"/>
     </g>
     <g id="line2d_4">
      <g>
       <use xlink:href="#me82ae83fb3" x="256.308733" y="220.28" style="fill: #333333; stroke: #333333; stroke-width: 0.8"/>
      </g>
     </g>
     <g id="text_2">
      <!-- 500 -->
      <g style="fill: #333333" transform="translate(247.763186 233.793437) scale(0.095 -0.095)">
       <defs>
        <path id="WenQuanYiZenHei-35" d="M 3531 1488 
Q 3531 688 2913 250 
Q 2456 -63 1844 -63 
Q 1175 -63 706 350 
Q 413 613 306 975 
L 781 1131 
Q 1000 538 1569 406 
Q 1706 369 1856 369 
Q 2550 369 2850 869 
Q 3000 1131 3000 1494 
Q 3000 2056 2581 2356 
Q 2319 2538 1969 2538 
Q 1400 2538 1031 2075 
Q 981 2013 938 1938 
L 500 2031 
L 644 4388 
L 3244 4388 
L 3200 3919 
L 1044 3919 
L 950 2500 
Q 1431 2975 2006 2975 
Q 2713 2975 3163 2475 
Q 3531 2063 3531 1488 
z
" transform="scale(0.015625)"/>
       </defs>
       <use xlink:href="#WenQuanYiZenHei-35"/>
       <use xlink:href="#WenQuanYiZenHei-30" transform="translate(59.960938 0)"/>
       <use xlink:href="#WenQuanYiZenHei-30" transform="translate(119.921875 0)"/>
      </g>
     </g>
    </g>
    <g id="xtick_3">
     <g id="line2d_5">
      <path d="M 339.509184 220.28 
L 339.509184 7.2 
" clip-path="url(#pdf7845524f)" style="fill: none; stroke-dasharray: 2.96,1.28; stroke-dashoffset: 0; stroke: #b0b0b0; stroke-opacity: 0.35; stroke-width: 0.8"/>
     </g>
     <g id="line2d_6">
      <g>
       <use xlink:href="#me82ae83fb3" x="339.509184" y="220.28" style="fill: #333333; stroke: #333333; stroke-width: 0.8"/>
      </g>
     </g>
     <g id="text_3">
      <!-- 1000 -->
      <g style="fill: #333333" transform="translate(328.115122 233.793437) scale(0.095 -0.095)">
       <defs>
        <path id="WenQuanYiZenHei-31" d="M 3556 0 
L 488 0 
L 488 406 
L 1800 406 
L 1800 3725 
Q 1231 3125 588 2788 
L 588 3338 
Q 1456 3781 1931 4388 
L 2331 4388 
L 2331 406 
L 3556 406 
L 3556 0 
z
" transform="scale(0.015625)"/>
       </defs>
       <use xlink:href="#WenQuanYiZenHei-31"/>
       <use xlink:href="#WenQuanYiZenHei-30" transform="translate(59.960938 0)"/>
       <use xlink:href="#WenQuanYiZenHei-30" transform="translate(119.921875 0)"/>
       <use xlink:href="#WenQuanYiZenHei-30" transform="translate(179.882812 0)"/>
      </g>
     </g>
    </g>
    <g id="xtick_4">
     <g id="line2d_7">
      <path d="M 422.709636 220.28 
L 422.709636 7.2 
" clip-path="url(#pdf7845524f)" style="fill: none; stroke-dasharray: 2.96,1.28; stroke-dashoffset: 0; stroke: #b0b0b0; stroke-opacity: 0.35; stroke-width: 0.8"/>
     </g>
     <g id="line2d_8">
      <g>
       <use xlink:href="#me82ae83fb3" x="422.709636" y="220.28" style="fill: #333333; stroke: #333333; stroke-width: 0.8"/>
      </g>
     </g>
     <g id="text_4">
      <!-- 1500 -->
      <g style="fill: #333333" transform="translate(411.315573 233.793437) scale(0.095 -0.095)">
       <use xlink:href="#WenQuanYiZenHei-31"/>
       <use xlink:href="#WenQuanYiZenHei-35" transform="translate(59.960938 0)"/>
       <use xlink:href="#WenQuanYiZenHei-30" transform="translate(119.921875 0)"/>
       <use xlink:href="#WenQuanYiZenHei-30" transform="translate(179.882812 0)"/>
      </g>
     </g>
    </g>
    <g id="xtick_5">
     <g id="line2d_9">
      <path d="M 505.910087 220.28 
L 505.910087 7.2 
" clip-path="url(#pdf7845524f)" style="fill: none; stroke-dasharray: 2.96,1.28; stroke-dashoffset: 0; stroke: #b0b0b0; stroke-opacity: 0.35; stroke-width: 0.8"/>
     </g>
     <g id="line2d_10">
      <g>
       <use xlink:href="#me82ae83fb3" x="505.910087" y="220.28" style="fill: #333333; stroke: #333333; stroke-width: 0.8"/>
      </g>
     </g>
     <g id="text_5">
      <!-- 2000 -->
      <g style="fill: #333333" transform="translate(494.516024 233.793437) scale(0.095 -0.095)">
       <defs>
        <path id="WenQuanYiZenHei-32" d="M 3488 0 
L 369 0 
L 369 456 
L 2150 1850 
Q 2931 2463 2931 3144 
Q 2931 3619 2488 3863 
Q 2231 4013 1931 4013 
Q 1425 4013 1113 3619 
Q 894 3356 881 3013 
L 369 3169 
Q 531 3981 1213 4300 
Q 1544 4456 1950 4456 
Q 2631 4456 3088 4044 
L 3225 3888 
L 3350 3706 
Q 3481 3444 3481 3144 
Q 3481 2313 2519 1569 
L 1069 456 
L 3488 456 
L 3488 0 
z
" transform="scale(0.015625)"/>
       </defs>
       <use xlink:href="#WenQuanYiZenHei-32"/>
       <use xlink:href="#WenQuanYiZenHei-30" transform="translate(59.960938 0)"/>
       <use xlink:href="#WenQuanYiZenHei-30" transform="translate(119.921875 0)"/>
       <use xlink:href="#WenQuanYiZenHei-30" transform="translate(179.882812 0)"/>
      </g>
     </g>
    </g>
    <g id="xtick_6">
     <g id="line2d_11">
      <path d="M 589.110538 220.28 
L 589.110538 7.2 
" clip-path="url(#pdf7845524f)" style="fill: none; stroke-dasharray: 2.96,1.28; stroke-dashoffset: 0; stroke: #b0b0b0; stroke-opacity: 0.35; stroke-width: 0.8"/>
     </g>
     <g id="line2d_12">
      <g>
       <use xlink:href="#me82ae83fb3" x="589.110538" y="220.28" style="fill: #333333; stroke: #333333; stroke-width: 0.8"/>
      </g>
     </g>
     <g id="text_6">
      <!-- 2500 -->
      <g style="fill: #333333" transform="translate(577.716476 233.793437) scale(0.095 -0.095)">
       <use xlink:href="#WenQuanYiZenHei-32"/>
       <use xlink:href="#WenQuanYiZenHei-35" transform="translate(59.960938 0)"/>
       <use xlink:href="#WenQuanYiZenHei-30" transform="translate(119.921875 0)"/>
       <use xlink:href="#WenQuanYiZenHei-30" transform="translate(179.882812 0)"/>
      </g>
     </g>
    </g>
   </g>
   <g id="matplotlib.axis_2">
    <g id="ytick_1">
     <g id="line2d_13">
      <defs>
       <path id="m16c0ea8470" d="M 0 0 
L -3.5 0 
" style="stroke: #333333; stroke-width: 0.8"/>
      </defs>
      <g>
       <use xlink:href="#m16c0ea8470" x="173.108281" y="195.588912" style="fill: #333333; stroke: #333333; stroke-width: 0.8"/>
      </g>
     </g>
     <g id="text_7">
      <!-- 2019/7 首次投 10 亿（起点） -->
      <g style="fill: #333333" transform="translate(36.747969 199.518052) scale(0.095 -0.095)">
       <defs>
        <path id="WenQuanYiZenHei-39" d="M 3544 2300 
Q 3544 1163 3019 513 
Q 2563 -63 1775 -63 
Q 956 -63 563 488 
Q 463 631 394 813 
L 838 975 
Q 1025 494 1550 388 
Q 1656 369 1775 369 
Q 2594 369 2900 1325 
Q 3044 1769 3038 2313 
L 3025 2313 
Q 2675 1638 1944 1544 
Q 1844 1531 1744 1531 
Q 1050 1531 625 2031 
Q 294 2419 294 2963 
Q 294 3656 813 4094 
Q 1238 4456 1819 4456 
Q 2988 4456 3381 3363 
Q 3544 2900 3544 2300 
z
M 2925 2994 
Q 2925 3563 2469 3844 
Q 2206 4006 1863 4006 
Q 1275 4006 988 3563 
Q 844 3344 825 3056 
Q 819 3006 819 2956 
Q 819 2413 1269 2131 
Q 1538 1963 1875 1963 
Q 2363 1963 2681 2350 
Q 2925 2638 2925 2994 
z
" transform="scale(0.015625)"/>
        <path id="WenQuanYiZenHei-2f" d="M 3213 4388 
L 563 -1094 
L 138 -1094 
L 2775 4388 
L 3213 4388 
z
" transform="scale(0.015625)"/>
        <path id="WenQuanYiZenHei-37" d="M 3400 4056 
Q 1838 2175 1838 0 
L 1275 0 
Q 1269 1438 2056 2825 
Q 2381 3400 2825 3913 
L 444 3913 
L 500 4388 
L 3400 4388 
L 3400 4056 
z
" transform="scale(0.015625)"/>
        <path id="WenQuanYiZenHei-20" transform="scale(0.015625)"/>
        <path id="WenQuanYiZenHei-9996" d="M 1681 -769 
Q 1444 -744 1200 -769 
Q 1225 -325 1225 113 
L 1225 3019 
L 2425 3019 
Q 2625 3369 2775 3719 
L 763 3719 
Q 438 3719 119 3706 
Q 131 3881 119 4056 
Q 438 4038 763 4038 
L 2219 4038 
Q 1856 4488 1444 4888 
L 1781 5225 
Q 2275 4744 2706 4194 
L 2506 4038 
L 3556 4038 
Q 3725 4250 4075 4794 
L 4338 5194 
Q 4531 5044 4744 4944 
Q 4563 4631 4100 4038 
L 5488 4038 
Q 5813 4038 6131 4056 
Q 6119 3881 6131 3706 
Q 5813 3719 5488 3719 
L 3850 3719 
Q 3831 3688 3813 3719 
L 3281 3719 
Q 3200 3456 2925 3019 
L 5075 3019 
L 5075 -756 
L 4644 -756 
L 4644 -313 
L 1663 -313 
Q 1669 -538 1681 -769 
z
M 4644 2019 
L 4644 2700 
L 2725 2700 
Q 2719 2675 2700 2700 
L 1656 2700 
Q 1656 2363 1656 2019 
L 4644 2019 
z
M 4644 1013 
L 4644 1700 
L 1656 1700 
L 1656 1013 
L 4644 1013 
z
M 4644 694 
L 1656 694 
L 1656 6 
L 4644 6 
L 4644 694 
z
" transform="scale(0.015625)"/>
        <path id="WenQuanYiZenHei-6b21" d="M 1325 -413 
Q 1944 -281 2459 94 
Q 2975 469 3290 1028 
Q 3606 1588 3600 2219 
Q 3600 2681 3575 3138 
Q 3825 3113 4075 3138 
L 4050 2131 
Q 4281 806 5056 75 
Q 5525 -331 6138 -563 
Q 5900 -694 5813 -950 
Q 5100 -669 4615 -94 
Q 4131 481 3869 1219 
Q 3613 538 3047 -6 
Q 2481 -550 1706 -813 
Q 1613 -519 1325 -413 
z
M 3150 3775 
L 5706 3775 
L 5756 3369 
Q 5663 3356 5619 3294 
L 5156 2438 
L 4756 2656 
L 5175 3413 
L 3044 3413 
Q 2731 2444 2225 1725 
Q 2019 1919 1738 1950 
Q 2531 3019 2719 3919 
Q 2838 4494 2863 5081 
Q 3138 5038 3413 5044 
Q 3313 4369 3150 3775 
z
M 250 -363 
Q 625 363 897 1069 
Q 1169 1775 1563 3006 
L 1831 2831 
Q 1350 1288 1125 506 
L 831 -556 
Q 569 -375 250 -363 
z
M 1181 3188 
Q 800 3775 338 4313 
L 713 4638 
Q 1194 4075 1600 3456 
L 1181 3188 
z
" transform="scale(0.015625)"/>
        <path id="WenQuanYiZenHei-6295" d="M 2944 2163 
Q 2963 2350 2944 2538 
Q 3294 2525 3644 2525 
L 5350 2525 
Q 5250 1381 4506 519 
Q 5156 -25 6138 -169 
Q 5938 -350 5906 -613 
Q 4950 -469 4206 219 
Q 3413 -506 2344 -663 
Q 2244 -413 2063 -219 
Q 2569 -188 3044 9 
Q 3519 206 3900 544 
Q 3331 1219 3038 2169 
Q 2994 2163 2944 2163 
z
M 3075 4931 
L 5131 4931 
L 5081 3494 
Q 5081 3406 5113 3406 
L 5369 3406 
Q 5719 3406 6063 3425 
Q 6044 3244 6063 3063 
L 5106 3063 
Q 4931 3063 4809 3188 
Q 4688 3313 4688 3494 
L 4688 4588 
L 3525 4588 
L 3531 4069 
Q 3538 3569 3331 3131 
Q 3125 2694 2738 2406 
Q 2606 2644 2356 2738 
Q 2694 2906 2894 3247 
Q 3094 3588 3088 4063 
L 3075 4931 
z
M 4838 2181 
L 3456 2175 
Q 3731 1356 4188 831 
Q 4688 1419 4838 2181 
z
M -13 2088 
Q 625 2200 1213 2406 
L 1213 3569 
L 788 3569 
Q 419 3569 56 3550 
Q 75 3756 56 3963 
Q 419 3944 788 3944 
L 1213 3944 
L 1213 4244 
Q 1213 4713 1188 5175 
Q 1431 5150 1669 5175 
Q 1650 4713 1650 4244 
L 1650 3944 
L 1925 3944 
Q 2294 3944 2663 3963 
Q 2638 3756 2663 3550 
Q 2294 3569 1925 3569 
L 1650 3569 
L 1650 2569 
Q 2088 2738 2644 2975 
L 2681 2644 
L 1650 2219 
L 1650 -94 
Q 1644 -700 1188 -831 
Q 881 -900 556 -894 
Q 606 -544 419 -338 
Q 606 -363 840 -366 
Q 1075 -369 1140 -309 
Q 1206 -250 1213 75 
L 1213 2031 
L 963 1925 
Q 575 1744 188 1550 
Q 150 1875 -13 2088 
z
" transform="scale(0.015625)"/>
        <path id="WenQuanYiZenHei-4ebf" d="M 3313 4181 
Q 2888 4181 2469 4163 
Q 2494 4388 2469 4619 
Q 2888 4600 3313 4600 
L 5369 4600 
L 5338 4156 
Q 5156 3994 5044 3838 
L 2969 631 
Q 2838 444 2847 266 
Q 2856 88 3006 88 
L 5456 88 
Q 5581 88 5668 188 
Q 5756 288 5781 431 
L 5881 1388 
Q 6031 1163 6300 1163 
L 6156 125 
Q 6125 -63 6028 -194 
Q 5931 -325 5781 -325 
L 2988 -325 
Q 2756 -325 2590 -153 
Q 2425 19 2406 284 
Q 2388 550 2563 875 
Q 2688 1081 3628 2531 
Q 4569 3981 4713 4181 
L 3313 4181 
z
M 2238 4919 
Q 1963 4006 1513 3219 
L 1513 94 
Q 1513 -381 1531 -850 
Q 1294 -825 1050 -850 
Q 1075 -381 1075 94 
L 1075 2550 
Q 763 2150 381 1819 
Q 244 2063 -13 2181 
Q 306 2438 588 2738 
Q 1094 3269 1319 3800 
Q 1563 4394 1725 5056 
Q 1963 4963 2238 4919 
z
" transform="scale(0.015625)"/>
        <path id="WenQuanYiZenHei-ff08" d="M 5438 -1094 
L 5106 -1094 
Q 4306 -100 4175 1231 
Q 4156 1438 4156 1656 
Q 4156 3031 4994 4244 
Q 5044 4313 5100 4388 
L 5431 4388 
Q 4638 3169 4625 1681 
Q 4625 188 5438 -1094 
z
" transform="scale(0.015625)"/>
        <path id="WenQuanYiZenHei-8d77" d="M 3325 3125 
L 4931 3125 
L 4931 4544 
L 4013 4544 
Q 3700 4544 3388 4525 
Q 3406 4694 3388 4863 
Q 3700 4850 4013 4850 
L 5363 4850 
L 5363 2819 
L 3756 2819 
L 3763 1213 
Q 3769 1106 3825 1028 
Q 3881 950 3975 950 
L 5050 950 
Q 5144 950 5169 1038 
Q 5213 1175 5219 1325 
L 5331 2194 
Q 5519 2063 5750 2069 
L 5538 750 
Q 5506 619 5419 588 
Q 5394 581 5369 581 
L 3969 581 
Q 3688 581 3513 753 
Q 3338 925 3338 1213 
L 3325 3125 
z
M 175 -588 
Q 844 -75 794 1150 
Q 794 1575 775 2000 
Q 1000 1975 1231 2000 
Q 1213 1575 1213 1150 
L 1213 881 
Q 1363 550 1631 300 
L 1631 2494 
L 1019 2494 
Q 725 2494 431 2481 
Q 450 2638 431 2794 
Q 725 2781 1019 2781 
L 1638 2781 
L 1638 3725 
L 1169 3725 
Q 881 3725 588 3713 
Q 600 3869 588 4031 
Q 881 4013 1169 4013 
L 1638 4013 
L 1638 4325 
Q 1638 4750 1619 5175 
Q 1850 5150 2081 5175 
Q 2056 4750 2056 4325 
L 2056 4013 
L 2900 4031 
Q 2881 3869 2900 3713 
L 2056 3725 
L 2056 2781 
L 2344 2781 
Q 2638 2781 2931 2794 
Q 2913 2638 2931 2481 
Q 2638 2494 2344 2494 
L 2050 2494 
L 2050 1563 
Q 2606 1569 2875 1581 
Q 2856 1419 2875 1263 
Q 2719 1269 2050 1275 
L 2050 19 
L 2031 19 
Q 2550 -256 3438 -331 
Q 3681 -350 4718 -387 
Q 5756 -425 5981 -425 
Q 5825 -594 5813 -869 
Q 5219 -844 4484 -822 
Q 3750 -800 3419 -769 
Q 1850 -650 1131 219 
Q 988 -394 581 -819 
Q 438 -638 175 -588 
z
" transform="scale(0.015625)"/>
        <path id="WenQuanYiZenHei-70b9" d="M 1463 913 
L 1031 913 
L 1031 3113 
L 2619 3113 
L 2619 4413 
Q 2619 4850 2600 5294 
Q 2838 5269 3075 5294 
L 3056 4381 
L 5106 4381 
Q 5431 4381 5750 4400 
Q 5731 4225 5750 4050 
Q 5431 4063 5106 4063 
L 3056 4063 
L 3056 3113 
L 5038 3113 
L 5038 913 
L 4600 913 
L 4600 1206 
L 1463 1206 
L 1463 913 
z
M 4600 2794 
L 1463 2794 
L 1463 1525 
L 4600 1525 
L 4600 2794 
z
M 5663 -1063 
Q 5288 -206 4756 463 
L 5088 856 
Q 5694 94 6069 -794 
L 5663 -1063 
z
M 4500 -581 
L 4106 -881 
L 3488 338 
L 3875 638 
L 4500 -581 
z
M 3006 -700 
L 2594 -956 
L 2075 319 
L 2488 575 
L 3006 -700 
z
M 475 -788 
Q 775 -125 1006 606 
L 1431 400 
Q 1194 -369 875 -1063 
L 475 -788 
z
" transform="scale(0.015625)"/>
        <path id="WenQuanYiZenHei-ff09" d="M 2244 1656 
Q 2244 306 1519 -788 
Q 1413 -950 1294 -1094 
L 963 -1094 
Q 1775 188 1775 1681 
Q 1775 3169 988 4363 
Q 975 4375 969 4388 
L 1300 4388 
Q 2169 3231 2238 1863 
Q 2244 1763 2244 1656 
z
" transform="scale(0.015625)"/>
       </defs>
       <use xlink:href="#WenQuanYiZenHei-32"/>
       <use xlink:href="#WenQuanYiZenHei-30" transform="translate(59.960938 0)"/>
       <use xlink:href="#WenQuanYiZenHei-31" transform="translate(119.921875 0)"/>
       <use xlink:href="#WenQuanYiZenHei-39" transform="translate(179.882812 0)"/>
       <use xlink:href="#WenQuanYiZenHei-2f" transform="translate(239.84375 0)"/>
       <use xlink:href="#WenQuanYiZenHei-37" transform="translate(291.796875 0)"/>
       <use xlink:href="#WenQuanYiZenHei-20" transform="translate(351.757812 0)"/>
       <use xlink:href="#WenQuanYiZenHei-9996" transform="translate(381.738281 0)"/>
       <use xlink:href="#WenQuanYiZenHei-6b21" transform="translate(481.738281 0)"/>
       <use xlink:href="#WenQuanYiZenHei-6295" transform="translate(581.738281 0)"/>
       <use xlink:href="#WenQuanYiZenHei-20" transform="translate(681.738281 0)"/>
       <use xlink:href="#WenQuanYiZenHei-31" transform="translate(711.71875 0)"/>
       <use xlink:href="#WenQuanYiZenHei-30" transform="translate(771.679688 0)"/>
       <use xlink:href="#WenQuanYiZenHei-20" transform="translate(831.640625 0)"/>
       <use xlink:href="#WenQuanYiZenHei-4ebf" transform="translate(861.621094 0)"/>
       <use xlink:href="#WenQuanYiZenHei-ff08" transform="translate(961.621094 0)"/>
       <use xlink:href="#WenQuanYiZenHei-8d77" transform="translate(1061.621094 0)"/>
       <use xlink:href="#WenQuanYiZenHei-70b9" transform="translate(1161.621094 0)"/>
       <use xlink:href="#WenQuanYiZenHei-ff09" transform="translate(1261.621094 0)"/>
      </g>
     </g>
    </g>
    <g id="ytick_2">
     <g id="line2d_14">
      <g>
       <use xlink:href="#m16c0ea8470" x="173.108281" y="141.022971" style="fill: #333333; stroke: #333333; stroke-width: 0.8"/>
      </g>
     </g>
     <g id="text_8">
      <!-- 2023/1 累计 130 亿 / 续 7 年独家 -->
      <g style="fill: #333333" transform="translate(18.524297 145.058986) scale(0.095 -0.095)">
       <defs>
        <path id="WenQuanYiZenHei-33" d="M 3588 1231 
Q 3588 494 2875 144 
Q 2450 -63 1925 -63 
Q 1044 -63 556 488 
Q 356 706 256 1000 
L 769 1169 
Q 994 375 1913 375 
Q 2631 375 2900 788 
Q 3019 975 3019 1231 
Q 3019 1638 2638 1881 
Q 2325 2081 1613 2069 
L 1338 2069 
L 1338 2494 
Q 1969 2494 2094 2506 
Q 2325 2544 2463 2613 
Q 2763 2756 2844 3100 
Q 2863 3169 2863 3244 
Q 2863 3744 2381 3944 
L 2163 4006 
Q 2056 4025 1931 4025 
Q 1388 4025 1075 3631 
Q 969 3488 906 3313 
L 419 3456 
Q 675 4150 1400 4369 
Q 1669 4456 1975 4456 
Q 2694 4456 3106 4050 
Q 3419 3744 3419 3275 
Q 3419 2813 3025 2513 
Q 2825 2356 2575 2319 
L 2575 2306 
Q 3181 2213 3450 1769 
Q 3588 1525 3588 1231 
z
" transform="scale(0.015625)"/>
        <path id="WenQuanYiZenHei-7d2f" d="M 5963 -681 
Q 5363 -81 4706 456 
L 5000 819 
Q 5675 269 6294 -350 
L 5963 -681 
z
M 1944 738 
Q 2094 556 2281 413 
Q 1575 -356 375 -706 
Q 350 -481 200 -319 
Q 725 -181 1122 69 
Q 1519 319 1944 738 
z
M 3244 -169 
L 3244 1063 
L 869 881 
L 850 1181 
Q 1431 1325 2969 1988 
L 1119 1931 
L 1113 2231 
Q 1350 2263 1862 2497 
Q 2375 2731 2800 2988 
L 1094 2988 
Q 1169 4006 1094 5019 
L 5506 5019 
Q 5425 4006 5500 2988 
L 3431 2988 
Q 3475 2931 3525 2875 
Q 2856 2494 2281 2256 
L 3388 2269 
L 3650 2288 
Q 4338 2606 4650 2800 
Q 4744 2563 4881 2344 
Q 4644 2225 3975 1956 
L 2269 1281 
L 4444 1425 
L 4813 1469 
L 4681 1588 
L 4988 1938 
Q 5481 1500 5863 963 
L 5481 694 
Q 5300 950 5081 1188 
L 4463 1163 
L 3669 1100 
L 3669 -250 
Q 3669 -444 3488 -594 
Q 3225 -819 2569 -813 
Q 2638 -513 2431 -294 
Q 2619 -319 2900 -322 
Q 3181 -325 3212 -294 
Q 3244 -263 3244 -169 
z
M 3513 4131 
L 5081 4131 
L 5081 4725 
L 3513 4725 
L 3513 4131 
z
M 3088 4131 
L 3088 4725 
L 1519 4725 
L 1519 4131 
L 3088 4131 
z
M 3513 3856 
L 3513 3288 
L 5081 3288 
L 5081 3856 
L 3513 3856 
z
M 3088 3856 
L 1519 3856 
L 1519 3288 
L 3088 3288 
L 3088 3856 
z
" transform="scale(0.015625)"/>
        <path id="WenQuanYiZenHei-8ba1" d="M 4569 -769 
Q 4313 -738 4056 -769 
Q 4081 -294 4081 175 
L 4081 2806 
L 3213 2806 
Q 2813 2806 2413 2788 
Q 2438 3000 2413 3219 
Q 2813 3200 3213 3200 
L 4081 3200 
L 4081 4313 
Q 4081 4788 4056 5263 
Q 4313 5231 4569 5263 
Q 4550 4788 4550 4313 
L 4550 3200 
L 5381 3200 
Q 5781 3200 6181 3219 
Q 6163 3000 6181 2788 
Q 5781 2806 5381 2806 
L 4550 2806 
L 4550 175 
Q 4550 -294 4569 -769 
z
M 38 2725 
Q 63 2931 38 3138 
Q 419 3119 800 3119 
L 1481 3119 
L 1481 425 
L 2044 1150 
L 2250 1488 
L 2525 1188 
L 2313 950 
L 1294 -488 
L 963 -231 
Q 1025 -94 1025 63 
L 1025 2744 
L 800 2744 
Q 419 2744 38 2725 
z
M 1450 3913 
Q 1094 4438 600 4831 
L 913 5225 
Q 1488 4769 1869 4194 
L 1450 3913 
z
" transform="scale(0.015625)"/>
        <path id="WenQuanYiZenHei-7eed" d="M 6175 1200 
Q 6156 1038 6175 869 
Q 5875 888 5569 888 
L 4956 888 
Q 5694 281 6238 -506 
L 5856 -769 
Q 5294 38 4519 638 
Q 4375 269 4019 -50 
Q 3363 -644 2369 -825 
Q 2325 -550 2075 -413 
Q 3100 -306 3738 256 
Q 4069 550 4156 888 
L 2738 888 
Q 2438 888 2131 869 
Q 2150 1038 2131 1200 
Q 2438 1181 2738 1181 
L 4188 1181 
L 4188 1844 
Q 4188 2275 4169 2706 
Q 4400 2681 4631 2706 
Q 4613 2275 4613 1844 
L 4613 1181 
L 5569 1181 
Q 5875 1181 6175 1200 
z
M 3631 1525 
L 3313 1188 
L 2444 2006 
L 2769 2344 
L 3631 1525 
z
M 3981 2431 
L 3681 2069 
L 2875 2738 
L 3175 3100 
L 3981 2431 
z
M 2506 3138 
Q 2525 3300 2506 3463 
Q 2813 3450 3113 3450 
L 3950 3450 
L 3950 4156 
L 3369 4156 
Q 3063 4156 2763 4138 
Q 2781 4300 2763 4469 
Q 3063 4450 3369 4450 
L 3950 4450 
Q 3950 4856 3931 5256 
Q 4163 5231 4394 5256 
Q 4375 4856 4375 4450 
L 5094 4450 
Q 5394 4450 5694 4469 
Q 5681 4300 5694 4138 
Q 5394 4156 5094 4156 
L 4375 4156 
L 4375 3450 
L 5850 3450 
L 5913 3088 
Q 5825 3100 5781 3050 
L 5350 2475 
L 5006 2725 
L 5325 3150 
L 3113 3150 
Q 2806 3150 2506 3138 
z
M 4569 775 
L 4650 888 
L 4594 888 
Q 4581 831 4569 775 
z
M 244 -256 
Q 231 69 94 281 
Q 444 300 872 378 
Q 1300 456 2288 788 
L 2294 475 
Q 1350 181 956 31 
Q 563 -119 244 -256 
z
M 1225 5131 
Q 1438 4994 1688 4900 
Q 1513 4544 1150 3944 
L 669 3169 
L 1269 3231 
L 1450 3281 
Q 1625 3588 1750 3919 
Q 1956 3775 2200 3675 
Q 2119 3506 2000 3312 
Q 1881 3119 1431 2456 
Q 981 1794 825 1581 
L 1838 1713 
L 2194 1800 
L 2181 1425 
L 1875 1406 
L 200 1144 
L 156 1488 
Q 275 1494 356 1594 
Q 744 2094 1238 2913 
L 94 2738 
L 50 3081 
Q 169 3088 231 3181 
Q 731 3975 1138 4881 
Q 1188 5006 1225 5131 
z
" transform="scale(0.015625)"/>
        <path id="WenQuanYiZenHei-5e74" d="M 3638 -769 
Q 3388 -744 3138 -769 
Q 3163 -313 3163 150 
L 3163 1044 
L 969 1044 
Q 606 1044 244 1025 
Q 263 1219 244 1419 
Q 606 1400 969 1400 
L 1406 1400 
L 1400 2963 
L 3163 2963 
L 3163 3925 
L 1725 3925 
Q 1131 2881 494 2244 
Q 319 2463 50 2544 
Q 756 3219 1125 3794 
Q 1494 4369 1763 5169 
Q 2006 5044 2269 4969 
L 1925 4281 
L 5044 4281 
Q 5406 4281 5769 4300 
Q 5750 4106 5769 3906 
Q 5406 3925 5044 3925 
L 3613 3925 
L 3613 2963 
L 4769 2963 
Q 5131 2963 5494 2981 
Q 5475 2788 5494 2588 
Q 5131 2606 4769 2606 
L 3613 2606 
L 3613 1400 
L 5406 1400 
Q 5769 1400 6131 1419 
Q 6113 1219 6131 1025 
Q 5769 1044 5406 1044 
L 3613 1044 
L 3613 150 
Q 3613 -313 3638 -769 
z
M 3163 1400 
L 3163 2606 
L 1850 2606 
L 1856 1400 
L 3163 1400 
z
" transform="scale(0.015625)"/>
        <path id="WenQuanYiZenHei-72ec" d="M 4169 1619 
L 3388 1619 
L 3388 1269 
L 2950 1269 
L 2950 3875 
L 4169 3875 
L 4169 4381 
Q 4169 4825 4150 5263 
Q 4388 5238 4625 5263 
Q 4606 4825 4606 4381 
L 4606 3875 
L 5838 3875 
L 5838 1269 
L 5406 1269 
L 5406 1619 
L 4606 1619 
L 4606 900 
Q 4606 506 4619 113 
Q 4950 163 5400 244 
Q 5225 531 5031 813 
L 5425 1081 
Q 5881 419 6256 -300 
L 5831 -519 
Q 5700 -263 5550 -13 
Q 3763 -325 2681 -588 
Q 2706 -306 2581 -50 
Q 3331 -50 4150 50 
Q 4169 475 4169 900 
L 4169 1619 
z
M 4606 1938 
L 5406 1938 
L 5406 3556 
L 4606 3556 
L 4606 1938 
z
M 4169 1938 
L 4169 3556 
L 3388 3556 
L 3388 1938 
L 4169 1938 
z
M 2319 4775 
Q 2488 4581 2688 4425 
Q 2325 4081 1944 3756 
L 1769 3613 
Q 2000 3163 2144 2563 
Q 2488 1113 2119 69 
Q 1881 -731 1038 -856 
Q 950 -575 650 -450 
Q 800 -444 1009 -409 
Q 1219 -375 1375 -262 
Q 1531 -150 1663 175 
Q 1969 1056 1763 2100 
L 1525 1813 
L 894 1081 
L 513 619 
Q 350 775 88 831 
L 1113 2113 
L 1631 2694 
Q 1544 3044 1419 3325 
L 406 2506 
Q 281 2706 44 2800 
L 700 3331 
L 1181 3750 
Q 869 4175 300 4338 
Q 413 4550 481 4794 
Q 1125 4556 1506 4038 
L 2319 4775 
z
" transform="scale(0.015625)"/>
        <path id="WenQuanYiZenHei-5bb6" d="M 1750 3363 
Q 1438 3363 1125 3344 
Q 1144 3513 1125 3681 
Q 1438 3669 1750 3669 
L 4469 3669 
Q 4781 3669 5094 3681 
Q 5075 3513 5094 3344 
Q 4781 3363 4469 3363 
L 3294 3363 
L 3319 3338 
L 2994 3050 
Q 3488 2794 3706 2075 
Q 4088 2256 4431 2512 
Q 4775 2769 5200 3169 
Q 5350 2981 5531 2838 
Q 5069 2350 4419 1969 
Q 4663 881 5394 350 
Q 5713 119 6075 -25 
Q 5850 -150 5763 -388 
Q 5138 -125 4700 456 
Q 4263 1038 4063 1775 
L 3800 1650 
Q 3931 669 3613 -238 
Q 3550 -388 3444 -538 
Q 3219 -850 2744 -925 
Q 2675 -638 2406 -525 
Q 3038 -531 3213 -106 
Q 3419 488 3413 1181 
Q 1988 -113 431 -544 
Q 394 -275 206 -81 
Q 869 88 1512 384 
Q 2156 681 2575 1040 
Q 2994 1400 3331 1756 
L 3356 1731 
Q 3306 2000 3219 2219 
Q 1938 956 538 606 
Q 506 869 325 1069 
Q 869 1194 1387 1419 
Q 1906 1644 2256 1941 
Q 2606 2238 2894 2556 
L 3188 2281 
Q 3025 2613 2750 2694 
Q 2663 2719 2575 2706 
Q 1606 1963 638 1638 
Q 581 1900 388 2081 
Q 1575 2450 2281 3025 
Q 2431 3150 2663 3363 
L 1750 3363 
z
M 781 3469 
L 350 3469 
L 350 4669 
L 3006 4669 
L 2463 5050 
L 2731 5438 
L 3406 4963 
L 3200 4669 
L 5863 4669 
L 5863 3469 
L 5431 3469 
L 5431 4363 
L 781 4363 
L 781 3469 
z
" transform="scale(0.015625)"/>
       </defs>
       <use xlink:href="#WenQuanYiZenHei-32"/>
       <use xlink:href="#WenQuanYiZenHei-30" transform="translate(59.960938 0)"/>
       <use xlink:href="#WenQuanYiZenHei-32" transform="translate(119.921875 0)"/>
       <use xlink:href="#WenQuanYiZenHei-33" transform="translate(179.882812 0)"/>
       <use xlink:href="#WenQuanYiZenHei-2f" transform="translate(239.84375 0)"/>
       <use xlink:href="#WenQuanYiZenHei-31" transform="translate(291.796875 0)"/>
       <use xlink:href="#WenQuanYiZenHei-20" transform="translate(351.757812 0)"/>
       <use xlink:href="#WenQuanYiZenHei-7d2f" transform="translate(381.738281 0)"/>
       <use xlink:href="#WenQuanYiZenHei-8ba1" transform="translate(481.738281 0)"/>
       <use xlink:href="#WenQuanYiZenHei-20" transform="translate(581.738281 0)"/>
       <use xlink:href="#WenQuanYiZenHei-31" transform="translate(611.71875 0)"/>
       <use xlink:href="#WenQuanYiZenHei-33" transform="translate(671.679688 0)"/>
       <use xlink:href="#WenQuanYiZenHei-30" transform="translate(731.640625 0)"/>
       <use xlink:href="#WenQuanYiZenHei-20" transform="translate(791.601562 0)"/>
       <use xlink:href="#WenQuanYiZenHei-4ebf" transform="translate(821.582031 0)"/>
       <use xlink:href="#WenQuanYiZenHei-20" transform="translate(921.582031 0)"/>
       <use xlink:href="#WenQuanYiZenHei-2f" transform="translate(951.5625 0)"/>
       <use xlink:href="#WenQuanYiZenHei-20" transform="translate(1003.515625 0)"/>
       <use xlink:href="#WenQuanYiZenHei-7eed" transform="translate(1033.496094 0)"/>
       <use xlink:href="#WenQuanYiZenHei-20" transform="translate(1133.496094 0)"/>
       <use xlink:href="#WenQuanYiZenHei-37" transform="translate(1163.476562 0)"/>
       <use xlink:href="#WenQuanYiZenHei-20" transform="translate(1223.4375 0)"/>
       <use xlink:href="#WenQuanYiZenHei-5e74" transform="translate(1253.417969 0)"/>
       <use xlink:href="#WenQuanYiZenHei-72ec" transform="translate(1353.417969 0)"/>
       <use xlink:href="#WenQuanYiZenHei-5bb6" transform="translate(1453.417969 0)"/>
      </g>
     </g>
    </g>
    <g id="ytick_3">
     <g id="line2d_15">
      <g>
       <use xlink:href="#m16c0ea8470" x="173.108281" y="86.457029" style="fill: #333333; stroke: #333333; stroke-width: 0.8"/>
      </g>
     </g>
     <g id="text_9">
      <!-- 2026/4 7 年独家正式终结 -->
      <g style="fill: #333333" transform="translate(54.793516 90.493045) scale(0.095 -0.095)">
       <defs>
        <path id="WenQuanYiZenHei-36" d="M 3550 1431 
Q 3550 725 3006 288 
Q 2581 -63 1994 -63 
Q 1013 -63 563 825 
Q 288 1363 288 2081 
Q 288 3294 856 3938 
Q 1319 4456 2075 4456 
Q 2969 4456 3363 3756 
Q 3431 3631 3481 3481 
L 2988 3350 
Q 2750 3994 2075 4006 
Q 1056 4006 844 2669 
Q 794 2356 794 1981 
L 806 1981 
Q 1006 2506 1544 2744 
Q 1819 2869 2119 2869 
Q 2788 2869 3213 2375 
Q 3550 1975 3550 1431 
z
M 3038 1406 
Q 3038 1906 2656 2213 
Q 2381 2431 2038 2431 
Q 1525 2431 1181 2044 
Q 919 1744 919 1356 
Q 919 881 1344 581 
Q 1631 375 1981 375 
Q 2519 375 2838 781 
Q 3038 1050 3038 1406 
z
" transform="scale(0.015625)"/>
        <path id="WenQuanYiZenHei-34" d="M 3631 1025 
L 2913 1025 
L 2913 0 
L 2381 0 
L 2381 1025 
L 219 1025 
L 219 1388 
L 2225 4388 
L 2913 4388 
L 2913 1444 
L 3631 1444 
L 3631 1025 
z
M 2381 1444 
L 2381 3963 
L 788 1444 
L 2381 1444 
z
" transform="scale(0.015625)"/>
        <path id="WenQuanYiZenHei-6b63" d="M 6138 31 
Q 6113 -175 6138 -381 
Q 5756 -363 5375 -363 
L 875 -363 
Q 494 -363 113 -381 
Q 138 -175 113 31 
Q 494 13 875 13 
L 1138 13 
L 1138 2169 
Q 1138 2631 1113 3100 
Q 1369 3075 1619 3100 
Q 1594 2631 1594 2169 
L 1594 13 
L 3019 13 
L 3019 4513 
L 1144 4513 
Q 763 4513 381 4494 
Q 400 4700 381 4906 
Q 763 4888 1144 4888 
L 5138 4888 
Q 5519 4888 5900 4906 
Q 5881 4700 5900 4494 
Q 5519 4513 5138 4513 
L 3475 4513 
L 3475 2594 
L 4744 2594 
Q 5125 2594 5506 2606 
Q 5488 2400 5506 2194 
Q 5125 2213 4744 2213 
L 3475 2213 
L 3475 13 
L 5375 13 
Q 5756 13 6138 31 
z
" transform="scale(0.015625)"/>
        <path id="WenQuanYiZenHei-5f0f" d="M 5069 4006 
Q 4700 4481 4263 4894 
L 4606 5256 
Q 5069 4813 5463 4306 
L 5069 4006 
z
M 1606 2250 
L 1050 2250 
Q 688 2250 325 2231 
Q 344 2425 325 2625 
Q 688 2606 1050 2606 
L 2500 2606 
Q 2869 2606 3231 2625 
Q 3213 2425 3231 2231 
Q 2869 2250 2500 2250 
L 2056 2250 
L 2056 481 
Q 2588 613 3619 913 
L 3625 588 
Q 1431 -6 238 -419 
Q 238 -125 81 125 
Q 813 206 1606 381 
L 1606 2250 
z
M 969 3606 
Q 606 3606 244 3588 
Q 263 3781 244 3981 
Q 606 3963 969 3963 
L 3519 3963 
L 3500 5256 
Q 3750 5231 3994 5256 
L 3975 3963 
L 5406 3963 
Q 5769 3963 6138 3981 
Q 6113 3781 6138 3588 
Q 5769 3606 5406 3606 
L 3975 3606 
Q 3963 1531 4981 425 
Q 5269 100 5631 -138 
Q 5631 363 5606 856 
Q 5831 706 6100 719 
Q 6156 94 6081 -531 
Q 6081 -625 6006 -694 
Q 5894 -819 5738 -750 
Q 4963 -325 4419 406 
Q 3875 1138 3669 2088 
Q 3538 2688 3525 3606 
L 969 3606 
z
" transform="scale(0.015625)"/>
        <path id="WenQuanYiZenHei-7ec8" d="M 4731 -706 
Q 3950 -219 3119 181 
L 3331 619 
Q 4181 206 4988 -294 
L 4731 -706 
z
M 4413 563 
Q 3931 1038 3388 1444 
L 3675 1831 
Q 4244 1406 4756 913 
L 4413 563 
z
M 6169 1400 
Q 5938 1269 5844 1025 
Q 4838 1431 4131 2388 
Q 3388 1519 2381 975 
Q 2200 1169 1963 1294 
Q 3088 1819 3881 2769 
Q 3588 3244 3381 3813 
Q 3056 3175 2525 2513 
Q 2369 2688 2144 2738 
Q 2556 3231 2834 3772 
Q 3113 4313 3369 5131 
Q 3600 5044 3838 5006 
Q 3763 4706 3650 4413 
L 5288 4413 
Q 4975 3494 4394 2713 
Q 5044 1844 6169 1400 
z
M 3706 4081 
Q 3894 3538 4138 3106 
Q 4463 3563 4694 4081 
L 3706 4081 
z
M 263 -256 
Q 250 69 100 281 
Q 475 300 937 378 
Q 1400 456 2456 788 
L 2469 475 
Q 1450 181 1028 31 
Q 606 -119 263 -256 
z
M 1319 5131 
Q 1544 4994 1813 4900 
Q 1625 4544 1231 3944 
L 719 3169 
L 1363 3231 
L 1556 3281 
Q 1744 3588 1875 3919 
Q 2100 3775 2363 3675 
Q 2275 3506 2147 3312 
Q 2019 3119 1537 2456 
Q 1056 1794 881 1581 
L 1969 1713 
L 2356 1800 
L 2344 1425 
L 2013 1406 
L 213 1144 
L 163 1488 
Q 294 1494 381 1594 
Q 800 2094 1325 2913 
L 100 2738 
L 56 3081 
Q 181 3088 250 3181 
Q 788 3975 1219 4881 
Q 1275 5006 1319 5131 
z
" transform="scale(0.015625)"/>
        <path id="WenQuanYiZenHei-7ed3" d="M 3519 -769 
Q 3281 -744 3044 -769 
Q 3063 -325 3063 113 
L 3063 1838 
L 5706 1838 
L 5706 -756 
L 5275 -756 
L 5275 -363 
L 3506 -363 
Q 3506 -563 3519 -769 
z
M 6013 2844 
Q 5994 2669 6013 2494 
Q 5694 2513 5369 2513 
L 3469 2513 
Q 3144 2513 2819 2494 
Q 2838 2669 2819 2844 
Q 3144 2831 3469 2831 
L 4106 2831 
L 4106 3775 
L 3263 3775 
Q 2938 3775 2619 3763 
Q 2638 3938 2619 4113 
Q 2938 4094 3263 4094 
L 4106 4094 
L 4106 4375 
Q 4106 4819 4088 5256 
Q 4325 5231 4563 5256 
Q 4538 4819 4538 4375 
L 4538 4094 
L 5538 4094 
Q 5863 4094 6188 4113 
Q 6169 3938 6188 3763 
Q 5863 3775 5538 3775 
L 4538 3775 
L 4538 2831 
L 5369 2831 
Q 5694 2831 6013 2844 
z
M 5275 1519 
L 3500 1519 
L 3500 -44 
L 5275 -44 
L 5275 1519 
z
M 256 -256 
Q 238 69 94 281 
Q 463 300 909 378 
Q 1356 456 2388 788 
L 2394 475 
Q 1413 181 1000 31 
Q 588 -119 256 -256 
z
M 1281 5131 
Q 1500 4994 1756 4900 
Q 1581 4544 1200 3944 
L 700 3169 
L 1319 3231 
L 1513 3281 
Q 1694 3588 1825 3919 
Q 2038 3775 2294 3675 
Q 2213 3506 2088 3312 
Q 1963 3119 1494 2456 
Q 1025 1794 856 1581 
L 1913 1713 
L 2288 1800 
L 2275 1425 
L 1956 1406 
L 206 1144 
L 163 1488 
Q 288 1494 369 1594 
Q 781 2094 1288 2913 
L 100 2738 
L 56 3081 
Q 175 3088 244 3181 
Q 763 3975 1188 4881 
Q 1238 5006 1281 5131 
z
" transform="scale(0.015625)"/>
       </defs>
       <use xlink:href="#WenQuanYiZenHei-32"/>
       <use xlink:href="#WenQuanYiZenHei-30" transform="translate(59.960938 0)"/>
       <use xlink:href="#WenQuanYiZenHei-32" transform="translate(119.921875 0)"/>
       <use xlink:href="#WenQuanYiZenHei-36" transform="translate(179.882812 0)"/>
       <use xlink:href="#WenQuanYiZenHei-2f" transform="translate(239.84375 0)"/>
       <use xlink:href="#WenQuanYiZenHei-34" transform="translate(291.796875 0)"/>
       <use xlink:href="#WenQuanYiZenHei-20" transform="translate(351.757812 0)"/>
       <use xlink:href="#WenQuanYiZenHei-37" transform="translate(381.738281 0)"/>
       <use xlink:href="#WenQuanYiZenHei-20" transform="translate(441.699219 0)"/>
       <use xlink:href="#WenQuanYiZenHei-5e74" transform="translate(471.679688 0)"/>
       <use xlink:href="#WenQuanYiZenHei-72ec" transform="translate(571.679688 0)"/>
       <use xlink:href="#WenQuanYiZenHei-5bb6" transform="translate(671.679688 0)"/>
       <use xlink:href="#WenQuanYiZenHei-6b63" transform="translate(771.679688 0)"/>
       <use xlink:href="#WenQuanYiZenHei-5f0f" transform="translate(871.679688 0)"/>
       <use xlink:href="#WenQuanYiZenHei-7ec8" transform="translate(971.679688 0)"/>
       <use xlink:href="#WenQuanYiZenHei-7ed3" transform="translate(1071.679688 0)"/>
      </g>
     </g>
    </g>
    <g id="ytick_4">
     <g id="line2d_16">
      <g>
       <use xlink:href="#m16c0ea8470" x="173.108281" y="31.891088" style="fill: #333333; stroke: #333333; stroke-width: 0.8"/>
      </g>
     </g>
     <g id="text_10">
      <!-- 2026/8 Polaris 默认替换 GPT-4 Turbo -->
      <g style="fill: #333333" transform="translate(7.2 35.792026) scale(0.095 -0.095)">
       <defs>
        <path id="WenQuanYiZenHei-38" d="M 3619 1175 
Q 3619 431 2850 100 
Q 2444 -63 1944 -63 
Q 1231 -63 725 269 
Q 225 594 225 1125 
Q 225 1881 1269 2281 
Q 719 2481 519 2938 
Q 444 3119 444 3319 
Q 444 4000 1144 4294 
Q 1519 4456 1963 4456 
Q 2669 4456 3094 4094 
Q 3425 3813 3425 3369 
Q 3425 2638 2575 2356 
Q 3231 2056 3450 1725 
Q 3619 1488 3619 1175 
z
M 2944 3344 
Q 2944 3906 2288 4019 
Q 2138 4044 1969 4044 
Q 1438 4044 1163 3775 
Q 1000 3613 1000 3375 
Q 1000 2925 1594 2663 
Q 1756 2588 1931 2550 
Q 2581 2725 2788 2956 
Q 2944 3125 2944 3344 
z
M 3075 1094 
Q 3075 1738 1875 2050 
Q 1094 1881 850 1463 
Q 763 1313 763 1131 
Q 763 569 1456 406 
Q 1681 344 1944 344 
Q 2519 344 2850 619 
Q 3075 813 3075 1094 
z
" transform="scale(0.015625)"/>
        <path id="WenQuanYiZenHei-50" d="M 3388 3075 
Q 3388 2550 3031 2175 
L 3000 2144 
Q 2638 1788 1944 1788 
L 963 1788 
L 963 0 
L 413 0 
L 413 4388 
L 1881 4388 
Q 2588 4388 2938 4094 
Q 3313 3781 3381 3219 
Q 3388 3144 3388 3075 
z
M 2831 3075 
Q 2831 3688 2313 3875 
Q 2138 3931 1925 3931 
L 963 3931 
L 963 2238 
L 1888 2238 
Q 2575 2238 2763 2719 
Q 2831 2875 2831 3075 
z
" transform="scale(0.015625)"/>
        <path id="WenQuanYiZenHei-6f" d="M 3175 1644 
Q 3175 813 2681 331 
Q 2281 -63 1663 -63 
Q 856 -63 481 656 
Q 256 1088 256 1650 
Q 256 2494 763 2969 
Q 1150 3338 1750 3338 
Q 2525 3338 2919 2656 
Q 3175 2219 3175 1644 
z
M 2619 1650 
Q 2619 2481 2181 2788 
Q 1981 2925 1706 2925 
Q 1069 2925 875 2188 
Q 813 1938 813 1650 
Q 813 750 1288 463 
Q 1463 350 1706 350 
Q 2400 350 2575 1169 
Q 2619 1394 2619 1650 
z
" transform="scale(0.015625)"/>
        <path id="WenQuanYiZenHei-6c" d="M 1019 0 
L 519 0 
L 519 4388 
L 1019 4388 
L 1019 0 
z
" transform="scale(0.015625)"/>
        <path id="WenQuanYiZenHei-61" d="M 3181 0 
L 2681 0 
L 2625 606 
Q 2294 -63 1488 -63 
Q 856 -63 544 331 
Q 350 575 350 919 
Q 350 1400 763 1706 
Q 850 1781 956 1825 
Q 1375 2025 2344 2019 
L 2625 2019 
L 2625 2156 
Q 2625 2756 2200 2894 
L 1975 2938 
Q 1894 2944 1800 2944 
Q 1025 2944 906 2369 
L 444 2444 
Q 525 3075 1281 3263 
Q 1544 3338 1844 3338 
Q 2675 3338 2931 2894 
Q 3113 2594 3113 1944 
L 3113 688 
Q 3113 244 3181 0 
z
M 2625 1425 
L 2625 1638 
L 2206 1638 
Q 888 1638 888 894 
Q 888 488 1319 363 
Q 1444 325 1594 325 
Q 2125 325 2425 769 
Q 2625 1063 2625 1425 
z
" transform="scale(0.015625)"/>
        <path id="WenQuanYiZenHei-72" d="M 2063 2850 
L 1956 2850 
Q 1356 2850 1094 2281 
Q 963 1988 963 1638 
L 963 0 
L 463 0 
L 463 3250 
L 906 3250 
L 906 2488 
L 919 2488 
Q 1219 3344 1819 3344 
Q 1894 3344 2063 3325 
L 2063 2850 
z
" transform="scale(0.015625)"/>
        <path id="WenQuanYiZenHei-69" d="M 1044 3825 
L 494 3825 
L 494 4388 
L 1044 4388 
L 1044 3825 
z
M 1019 0 
L 519 0 
L 519 3250 
L 1019 3250 
L 1019 0 
z
" transform="scale(0.015625)"/>
        <path id="WenQuanYiZenHei-73" d="M 3031 944 
Q 3031 294 2350 44 
Q 2050 -63 1681 -63 
Q 863 -63 475 425 
Q 319 613 256 863 
L 744 963 
Q 806 544 1344 406 
Q 1531 350 1719 350 
Q 2250 350 2438 631 
Q 2506 744 2506 888 
Q 2506 1206 2081 1331 
L 1638 1425 
Q 988 1544 750 1688 
Q 388 1919 388 2381 
Q 388 2975 994 3219 
Q 1269 3338 1606 3338 
Q 2463 3338 2781 2781 
Q 2856 2663 2894 2513 
L 2431 2419 
Q 2275 2869 1725 2925 
Q 1663 2931 1600 2931 
Q 1150 2931 981 2688 
Q 906 2594 906 2456 
Q 906 2138 1356 2013 
Q 1413 1988 2038 1881 
Q 2456 1806 2644 1675 
Q 3031 1413 3031 944 
z
" transform="scale(0.015625)"/>
        <path id="WenQuanYiZenHei-9ed8" d="M 5738 3913 
L 5406 3619 
L 4669 4463 
L 5000 4750 
L 5738 3913 
z
M 4244 3025 
L 3369 3013 
Q 3381 3156 3369 3300 
L 4244 3288 
L 4244 4319 
Q 4244 4725 4225 5131 
Q 4444 5106 4663 5131 
Q 4644 4725 4644 4319 
L 4644 3288 
L 5513 3288 
Q 5775 3288 6038 3300 
Q 6019 3156 6038 3013 
Q 5775 3025 5513 3025 
L 4806 3025 
Q 4775 1238 5513 244 
Q 5819 -200 6213 -556 
Q 5975 -594 5819 -769 
Q 4806 175 4538 1750 
Q 4269 250 3256 -688 
Q 3081 -488 2813 -506 
Q 4250 575 4244 3025 
z
M 2900 -588 
Q 2638 -44 2306 444 
L 2669 694 
Q 3013 181 3294 -394 
L 2900 -588 
z
M 2531 -369 
L 2150 -581 
L 1600 413 
L 1981 631 
L 2531 -369 
z
M 1800 -531 
L 1406 -719 
L 925 325 
L 1325 513 
L 1800 -531 
z
M -13 -756 
Q 275 -131 500 544 
L 913 406 
Q 681 -294 381 -944 
L -13 -756 
z
M 3019 4600 
Q 2944 3531 3013 2456 
L 1956 2456 
L 1956 1963 
L 2381 1963 
Q 2644 1963 2900 1975 
Q 2888 1831 2900 1694 
Q 2644 1706 2381 1706 
L 1956 1706 
L 1956 1131 
L 2700 1131 
Q 2963 1131 3219 1144 
Q 3206 1000 3219 856 
Q 2963 869 2700 869 
L 619 869 
Q 363 869 100 856 
Q 119 1000 100 1144 
Q 363 1131 619 1131 
L 1563 1131 
L 1563 1706 
L 881 1706 
Q 625 1706 363 1694 
Q 381 1831 363 1975 
Q 625 1963 881 1963 
L 1563 1963 
L 1563 2456 
L 425 2456 
Q 500 3525 425 4600 
L 3019 4600 
z
M 825 2713 
L 1563 2713 
L 1563 4338 
L 825 4338 
L 825 3925 
L 1081 4025 
L 1431 3075 
L 1019 2919 
L 825 3469 
L 825 2713 
z
M 1956 4338 
L 1956 3475 
Q 2106 3806 2263 4063 
Q 2431 3944 2619 3863 
L 2625 4338 
L 1956 4338 
z
M 1956 2713 
L 2613 2713 
L 2619 3813 
L 2263 3181 
Q 2188 3050 2131 2913 
Q 2050 2963 1956 2994 
L 1956 2713 
z
" transform="scale(0.015625)"/>
        <path id="WenQuanYiZenHei-8ba4" d="M 3875 5063 
Q 4156 5031 4438 5063 
Q 4438 3950 4344 3175 
Q 4513 1906 4963 1028 
Q 5413 150 6219 -600 
Q 5944 -638 5756 -844 
Q 4638 219 4138 2075 
Q 3788 744 2950 -138 
Q 2450 -663 1813 -988 
Q 1713 -713 1475 -550 
Q 2900 131 3513 1625 
Q 3744 2238 3806 2894 
Q 3875 3519 3875 3900 
L 3875 5063 
z
M 38 2725 
Q 63 2931 38 3138 
Q 413 3119 781 3119 
L 1450 3119 
L 1450 425 
L 2000 1150 
L 2194 1488 
L 2463 1188 
L 2263 950 
L 1263 -488 
L 938 -231 
Q 1000 -94 1000 63 
L 1000 2744 
L 781 2744 
Q 413 2744 38 2725 
z
M 1419 3913 
Q 1069 4438 588 4831 
L 894 5225 
Q 1450 4769 1825 4194 
L 1419 3913 
z
" transform="scale(0.015625)"/>
        <path id="WenQuanYiZenHei-66ff" d="M 5831 1763 
Q 4969 2075 4406 3044 
Q 4288 2650 3959 2306 
Q 3631 1963 3181 1806 
L 5044 1806 
L 5044 -756 
L 4625 -756 
L 4625 -281 
L 1963 -281 
Q 1969 -525 1981 -769 
Q 1750 -744 1519 -769 
Q 1538 -344 1538 81 
L 1544 1806 
L 3125 1806 
Q 3056 2044 2844 2175 
Q 3325 2256 3694 2631 
Q 3981 2925 4044 3313 
L 3425 3294 
Q 3438 3456 3425 3613 
L 4063 3600 
L 4063 4263 
L 3269 4244 
Q 3281 4406 3269 4563 
L 4063 4550 
Q 4056 4906 4044 5256 
Q 4275 5231 4500 5256 
Q 4488 4906 4481 4550 
L 5313 4550 
Q 5606 4550 5900 4563 
Q 5881 4406 5900 4244 
Q 5606 4263 5313 4263 
L 4481 4263 
L 4481 3600 
L 5550 3600 
Q 5844 3600 6131 3613 
Q 6119 3456 6131 3294 
Q 5844 3313 5550 3313 
L 4694 3313 
Q 4906 2906 5144 2681 
Q 5500 2331 6113 2138 
Q 5906 2000 5831 1763 
z
M 944 3313 
Q 650 3313 356 3294 
Q 375 3456 356 3613 
Q 650 3600 944 3600 
L 1725 3600 
L 1725 4263 
L 1188 4263 
Q 900 4263 606 4244 
Q 619 4406 606 4563 
Q 900 4550 1188 4550 
L 1725 4550 
Q 1725 4906 1706 5256 
Q 1938 5231 2169 5256 
Q 2150 4906 2144 4550 
L 2450 4550 
Q 2744 4550 3038 4563 
Q 3019 4406 3038 4244 
Q 2744 4263 2450 4263 
L 2144 4263 
L 2144 3600 
L 2556 3600 
Q 2850 3600 3144 3613 
Q 3125 3456 3144 3294 
Q 2850 3313 2556 3313 
L 2138 3313 
Q 2131 3250 2119 3188 
L 2913 2613 
L 2644 2238 
L 1981 2725 
Q 1538 1838 556 1506 
Q 494 1769 263 1894 
Q 838 1988 1247 2400 
Q 1656 2813 1719 3313 
L 944 3313 
z
M 4625 894 
L 4625 1519 
L 1956 1519 
Q 1956 1206 1956 894 
L 4625 894 
z
M 4625 631 
L 1956 631 
L 1963 -19 
L 4625 -19 
L 4625 631 
z
" transform="scale(0.015625)"/>
        <path id="WenQuanYiZenHei-6362" d="M 2419 1200 
Q 2106 1200 1794 1181 
Q 1813 1356 1794 1525 
Q 2106 1506 2413 1506 
Q 2431 1856 2431 2193 
Q 2431 2531 2431 2881 
L 2319 2763 
Q 2188 2944 1969 3013 
Q 2450 3481 2740 3978 
Q 3031 4475 3300 5144 
Q 3513 5044 3744 4988 
Q 3656 4738 3544 4500 
L 4856 4500 
L 4913 4131 
Q 4775 4075 4687 3965 
Q 4600 3856 4113 3194 
L 5194 3194 
L 5194 1506 
L 5938 1525 
Q 5925 1356 5938 1181 
Q 5625 1200 5313 1200 
L 4281 1200 
Q 4388 869 4572 578 
Q 4756 288 4994 125 
Q 5444 -181 6063 -113 
Q 5919 -325 5944 -581 
Q 5244 -619 4684 -122 
Q 4125 375 3900 1106 
Q 3381 -238 2031 -750 
Q 1769 -481 1400 -400 
Q 2044 -344 2612 100 
Q 3181 544 3469 1200 
L 2419 1200 
z
M 4763 1506 
L 4763 2881 
L 4050 2881 
Q 4188 2188 4025 1506 
L 4763 1506 
z
M 3575 2881 
L 2863 2881 
Q 2863 2600 2863 2259 
Q 2863 1919 2881 1506 
L 3575 1506 
Q 3775 2200 3575 2881 
z
M 2706 3194 
L 3588 3194 
L 4319 4188 
L 3394 4188 
Q 3119 3681 2706 3194 
z
M 31 1769 
Q 606 1881 1131 2094 
L 1131 3425 
L 738 3425 
Q 438 3425 138 3413 
Q 156 3569 138 3731 
Q 438 3719 738 3719 
L 1131 3719 
L 1131 4275 
Q 1131 4700 1113 5125 
Q 1344 5100 1581 5125 
Q 1556 4700 1556 4275 
L 1556 3719 
L 2281 3731 
Q 2263 3569 2281 3413 
L 1556 3425 
L 1556 2269 
L 2163 2538 
L 2206 2281 
L 1556 1975 
L 1556 -113 
Q 1563 -650 1163 -788 
Q 831 -900 456 -869 
Q 506 -544 313 -363 
Q 506 -381 747 -384 
Q 988 -388 1059 -331 
Q 1131 -275 1131 50 
L 1131 1763 
L 863 1625 
L 256 1294 
Q 206 1581 31 1769 
z
" transform="scale(0.015625)"/>
        <path id="WenQuanYiZenHei-47" d="M 3838 -31 
L 3500 -31 
L 3356 513 
Q 2981 -31 2219 -63 
Q 2175 -63 2138 -63 
Q 1150 -63 650 781 
Q 306 1363 306 2150 
Q 306 3163 831 3813 
Q 1350 4456 2206 4456 
Q 3181 4456 3619 3656 
Q 3731 3450 3794 3194 
L 3275 3063 
Q 3163 3650 2675 3888 
Q 2444 3994 2169 3994 
Q 1319 3994 1025 3050 
Q 900 2663 900 2175 
Q 900 1263 1325 769 
Q 1650 381 2175 381 
Q 2831 381 3125 881 
Q 3275 1150 3275 1513 
L 3275 1756 
L 2181 1756 
L 2181 2213 
L 3838 2213 
L 3838 -31 
z
" transform="scale(0.015625)"/>
        <path id="WenQuanYiZenHei-54" d="M 3119 3913 
L 1869 3913 
L 1869 0 
L 1319 0 
L 1319 3913 
L 69 3913 
L 69 4388 
L 3119 4388 
L 3119 3913 
z
" transform="scale(0.015625)"/>
        <path id="WenQuanYiZenHei-2d" d="M 1363 1444 
L 0 1444 
L 0 1844 
L 1363 1844 
L 1363 1444 
z
" transform="scale(0.015625)"/>
        <path id="WenQuanYiZenHei-75" d="M 2994 0 
L 2544 0 
L 2544 644 
L 2525 644 
Q 2356 219 1938 25 
Q 1744 -63 1531 -63 
Q 581 -63 463 975 
Q 444 1113 444 1275 
L 444 3250 
L 944 3250 
L 944 1275 
Q 944 425 1513 369 
Q 1513 369 1575 369 
Q 2131 369 2375 925 
Q 2494 1194 2494 1525 
L 2494 3250 
L 2994 3250 
L 2994 0 
z
" transform="scale(0.015625)"/>
        <path id="WenQuanYiZenHei-62" d="M 3181 1669 
Q 3181 850 2756 356 
Q 2400 -63 1825 -63 
Q 1306 -63 956 363 
Q 881 456 825 556 
L 638 0 
L 394 0 
L 394 4388 
L 894 4388 
L 894 2713 
L 919 2713 
Q 1250 3338 1875 3338 
Q 2625 3338 2975 2619 
Q 3181 2194 3181 1669 
z
M 2644 1588 
Q 2644 2388 2281 2738 
L 2150 2838 
Q 1988 2931 1788 2931 
Q 1363 2931 1081 2525 
Q 894 2250 894 1938 
L 894 1363 
Q 894 831 1244 538 
Q 1463 338 1788 338 
Q 2375 338 2575 1031 
Q 2644 1288 2644 1588 
z
" transform="scale(0.015625)"/>
       </defs>
       <use xlink:href="#WenQuanYiZenHei-32"/>
       <use xlink:href="#WenQuanYiZenHei-30" transform="translate(59.960938 0)"/>
       <use xlink:href="#WenQuanYiZenHei-32" transform="translate(119.921875 0)"/>
       <use xlink:href="#WenQuanYiZenHei-36" transform="translate(179.882812 0)"/>
       <use xlink:href="#WenQuanYiZenHei-2f" transform="translate(239.84375 0)"/>
       <use xlink:href="#WenQuanYiZenHei-38" transform="translate(291.796875 0)"/>
       <use xlink:href="#WenQuanYiZenHei-20" transform="translate(351.757812 0)"/>
       <use xlink:href="#WenQuanYiZenHei-50" transform="translate(381.738281 0)"/>
       <use xlink:href="#WenQuanYiZenHei-6f" transform="translate(437.695312 0)"/>
       <use xlink:href="#WenQuanYiZenHei-6c" transform="translate(491.601562 0)"/>
       <use xlink:href="#WenQuanYiZenHei-61" transform="translate(515.527344 0)"/>
       <use xlink:href="#WenQuanYiZenHei-72" transform="translate(569.433594 0)"/>
       <use xlink:href="#WenQuanYiZenHei-69" transform="translate(601.367188 0)"/>
       <use xlink:href="#WenQuanYiZenHei-73" transform="translate(625.292969 0)"/>
       <use xlink:href="#WenQuanYiZenHei-20" transform="translate(677.246094 0)"/>
       <use xlink:href="#WenQuanYiZenHei-9ed8" transform="translate(707.226562 0)"/>
       <use xlink:href="#WenQuanYiZenHei-8ba4" transform="translate(807.226562 0)"/>
       <use xlink:href="#WenQuanYiZenHei-66ff" transform="translate(907.226562 0)"/>
       <use xlink:href="#WenQuanYiZenHei-6362" transform="translate(1007.226562 0)"/>
       <use xlink:href="#WenQuanYiZenHei-20" transform="translate(1107.226562 0)"/>
       <use xlink:href="#WenQuanYiZenHei-47" transform="translate(1137.207031 0)"/>
       <use xlink:href="#WenQuanYiZenHei-50" transform="translate(1203.125 0)"/>
       <use xlink:href="#WenQuanYiZenHei-54" transform="translate(1259.082031 0)"/>
       <use xlink:href="#WenQuanYiZenHei-2d" transform="translate(1309.082031 0)"/>
       <use xlink:href="#WenQuanYiZenHei-34" transform="translate(1339.0625 0)"/>
       <use xlink:href="#WenQuanYiZenHei-20" transform="translate(1399.023438 0)"/>
       <use xlink:href="#WenQuanYiZenHei-54" transform="translate(1429.003906 0)"/>
       <use xlink:href="#WenQuanYiZenHei-75" transform="translate(1479.003906 0)"/>
       <use xlink:href="#WenQuanYiZenHei-72" transform="translate(1532.910156 0)"/>
       <use xlink:href="#WenQuanYiZenHei-62" transform="translate(1564.84375 0)"/>
       <use xlink:href="#WenQuanYiZenHei-6f" transform="translate(1618.75 0)"/>
      </g>
     </g>
    </g>
   </g>
   <g id="line2d_17">
    <path d="M 173.108281 220.28 
L 173.108281 7.2 
" clip-path="url(#pdf7845524f)" style="fill: none; stroke: #cccccc; stroke-width: 0.8; stroke-linecap: square"/>
   </g>
   <g id="patch_3">
    <path d="M 173.108281 220.28 
L 630.178281 220.28 
" style="fill: none; stroke: #000000; stroke-width: 0.8; stroke-linejoin: miter; stroke-linecap: square"/>
   </g>
   <g id="patch_4">
    <path d="M 173.108281 210.594545 
L 173.108281 210.594545 
L 173.108281 180.583278 
L 173.108281 180.583278 
z
" clip-path="url(#pdf7845524f)" style="fill: #1a56db"/>
   </g>
   <g id="patch_5">
    <path d="M 173.108281 156.028604 
L 388.43105 156.028604 
L 388.43105 126.017337 
L 173.108281 126.017337 
z
" clip-path="url(#pdf7845524f)" style="fill: #1a56db"/>
   </g>
   <g id="patch_6">
    <path d="M 173.108281 101.462663 
L 588.444935 101.462663 
L 588.444935 71.451396 
L 173.108281 71.451396 
z
" clip-path="url(#pdf7845524f)" style="fill: #1a56db"/>
   </g>
   <g id="patch_7">
    <path d="M 173.108281 46.896722 
L 608.413043 46.896722 
L 608.413043 16.885455 
L 173.108281 16.885455 
z
" clip-path="url(#pdf7845524f)" style="fill: #1a56db"/>
   </g>
   <g id="text_11">
    <!-- 0 -->
    <g style="fill: #333333" transform="translate(173.124921 198.056685) scale(0.095 -0.095)">
     <use xlink:href="#WenQuanYiZenHei-30"/>
    </g>
   </g>
   <g id="text_12">
    <!-- 1294 -->
    <g style="fill: #333333" transform="translate(388.44769 143.490744) scale(0.095 -0.095)">
     <use xlink:href="#WenQuanYiZenHei-31"/>
     <use xlink:href="#WenQuanYiZenHei-32" transform="translate(59.960938 0)"/>
     <use xlink:href="#WenQuanYiZenHei-39" transform="translate(119.921875 0)"/>
     <use xlink:href="#WenQuanYiZenHei-34" transform="translate(179.882812 0)"/>
    </g>
   </g>
   <g id="text_13">
    <!-- 2496 -->
    <g style="fill: #333333" transform="translate(588.461575 88.924803) scale(0.095 -0.095)">
     <use xlink:href="#WenQuanYiZenHei-32"/>
     <use xlink:href="#WenQuanYiZenHei-34" transform="translate(59.960938 0)"/>
     <use xlink:href="#WenQuanYiZenHei-39" transform="translate(119.921875 0)"/>
     <use xlink:href="#WenQuanYiZenHei-36" transform="translate(179.882812 0)"/>
    </g>
   </g>
   <g id="text_14">
    <!-- 2616 -->
    <g style="fill: #333333" transform="translate(608.429683 34.358862) scale(0.095 -0.095)">
     <use xlink:href="#WenQuanYiZenHei-32"/>
     <use xlink:href="#WenQuanYiZenHei-36" transform="translate(59.960938 0)"/>
     <use xlink:href="#WenQuanYiZenHei-31" transform="translate(119.921875 0)"/>
     <use xlink:href="#WenQuanYiZenHei-36" transform="translate(179.882812 0)"/>
    </g>
   </g>
  </g>
 </g>
 <defs>
  <clipPath id="pdf7845524f">
   <rect x="173.108281" y="7.2" width="457.07" height="213.08"/>
  </clipPath>
 </defs>
</svg>
