<?xml version="1.0" encoding="utf-8" standalone="no"?>
<!DOCTYPE svg PUBLIC "-//W3C//DTD SVG 1.1//EN"
  "http://www.w3.org/Graphics/SVG/1.1/DTD/svg11.dtd">
<svg xmlns:xlink="http://www.w3.org/1999/xlink" width="638.445156pt" height="241.890036pt" viewBox="0 0 638.445156 241.890036" xmlns="http://www.w3.org/2000/svg" version="1.1">
 <metadata>
  <rdf:RDF xmlns:dc="http://purl.org/dc/elements/1.1/" xmlns:cc="http://creativecommons.org/ns#" xmlns:rdf="http://www.w3.org/1999/02/22-rdf-syntax-ns#">
   <cc:Work>
    <dc:type rdf:resource="http://purl.org/dc/dcmitype/StillImage"/>
    <dc:date>2026-06-06T01:24:09.671644</dc:date>
    <dc:format>image/svg+xml</dc:format>
    <dc:creator>
     <cc:Agent>
      <dc:title>Matplotlib v3.10.9, https://matplotlib.org/</dc:title>
     </cc:Agent>
    </dc:creator>
   </cc:Work>
  </rdf:RDF>
 </metadata>
 <defs>
  <style type="text/css">*{stroke-linejoin: round; stroke-linecap: butt}</style>
 </defs>
 <g id="figure_1">
  <g id="patch_1">
   <path d="M 0 241.890036 
L 638.445156 241.890036 
L 638.445156 0 
L 0 0 
z
" style="fill: #ffffff"/>
  </g>
  <g id="axes_1">
   <g id="patch_2">
    <path d="M 42.685156 218.236052 
L 631.245156 218.236052 
L 631.245156 7.703643 
L 42.685156 7.703643 
z
" style="fill: #fafafa"/>
   </g>
   <g id="matplotlib.axis_1">
    <g id="xtick_1">
     <g id="line2d_1">
      <defs>
       <path id="m9db082cc74" d="M 0 0 
L 0 3.5 
" style="stroke: #333333; stroke-width: 0.8"/>
      </defs>
      <g>
       <use xlink:href="#m9db082cc74" x="110.885771" y="218.236052" style="fill: #333333; stroke: #333333; stroke-width: 0.8"/>
      </g>
     </g>
     <g id="text_1">
      <!-- 5 月单月年化（公开口径） -->
      <g style="fill: #333333" transform="translate(54.362997 233.06613) scale(0.095 -0.095)">
       <defs>
        <path id="WenQuanYiZenHei-35" d="M 3531 1488 
Q 3531 688 2913 250 
Q 2456 -63 1844 -63 
Q 1175 -63 706 350 
Q 413 613 306 975 
L 781 1131 
Q 1000 538 1569 406 
Q 1706 369 1856 369 
Q 2550 369 2850 869 
Q 3000 1131 3000 1494 
Q 3000 2056 2581 2356 
Q 2319 2538 1969 2538 
Q 1400 2538 1031 2075 
Q 981 2013 938 1938 
L 500 2031 
L 644 4388 
L 3244 4388 
L 3200 3919 
L 1044 3919 
L 950 2500 
Q 1431 2975 2006 2975 
Q 2713 2975 3163 2475 
Q 3531 2063 3531 1488 
z
" transform="scale(0.015625)"/>
        <path id="WenQuanYiZenHei-20" transform="scale(0.015625)"/>
        <path id="WenQuanYiZenHei-6708" d="M 4519 206 
L 4519 1594 
L 2100 1594 
Q 2113 713 1694 84 
Q 1275 -544 631 -819 
Q 531 -544 269 -425 
Q 875 -263 1259 259 
Q 1644 781 1644 1525 
L 1638 4900 
L 4975 4900 
L 4975 44 
Q 4975 -400 4700 -563 
Q 4406 -738 3788 -731 
Q 3863 -413 3638 -169 
Q 3844 -194 4109 -197 
Q 4375 -200 4444 -147 
Q 4513 -94 4519 206 
z
M 4519 3406 
L 4519 4525 
L 2100 4525 
L 2100 3406 
L 4519 3406 
z
M 4519 1969 
L 4519 3031 
L 2100 3031 
L 2100 1969 
L 4519 1969 
z
" transform="scale(0.015625)"/>
        <path id="WenQuanYiZenHei-5355" d="M 3381 -769 
Q 3138 -744 2894 -769 
Q 2919 -319 2919 125 
L 2919 613 
L 788 613 
Q 450 613 113 594 
Q 138 781 113 963 
Q 450 944 788 944 
L 2919 944 
L 2919 1588 
L 1531 1588 
L 1531 1244 
L 1094 1244 
L 1094 3938 
L 2331 3938 
Q 1969 4475 1544 4956 
L 1906 5275 
Q 2388 4731 2788 4125 
L 2500 3938 
L 3388 3938 
Q 3656 4225 3956 4675 
L 4294 5194 
Q 4488 5044 4713 4944 
Q 4444 4475 3969 3938 
L 5263 3938 
L 5263 1244 
L 4825 1244 
L 4825 1588 
L 3356 1588 
L 3356 944 
L 5463 944 
Q 5800 944 6138 963 
Q 6113 781 6138 594 
Q 5800 613 5463 613 
L 3356 613 
L 3356 125 
Q 3356 -319 3381 -769 
z
M 3356 1919 
L 4825 1919 
L 4825 2606 
L 3356 2606 
L 3356 1919 
z
M 2919 1919 
L 2919 2606 
L 1531 2606 
L 1531 1919 
L 2919 1919 
z
M 3356 2938 
L 4825 2938 
L 4825 3606 
L 3669 3606 
L 3644 3575 
Q 3631 3594 3619 3606 
L 3356 3606 
L 3356 2938 
z
M 2919 2938 
L 2919 3606 
L 1531 3606 
Q 1531 3275 1531 2938 
L 2919 2938 
z
" transform="scale(0.015625)"/>
        <path id="WenQuanYiZenHei-5e74" d="M 3638 -769 
Q 3388 -744 3138 -769 
Q 3163 -313 3163 150 
L 3163 1044 
L 969 1044 
Q 606 1044 244 1025 
Q 263 1219 244 1419 
Q 606 1400 969 1400 
L 1406 1400 
L 1400 2963 
L 3163 2963 
L 3163 3925 
L 1725 3925 
Q 1131 2881 494 2244 
Q 319 2463 50 2544 
Q 756 3219 1125 3794 
Q 1494 4369 1763 5169 
Q 2006 5044 2269 4969 
L 1925 4281 
L 5044 4281 
Q 5406 4281 5769 4300 
Q 5750 4106 5769 3906 
Q 5406 3925 5044 3925 
L 3613 3925 
L 3613 2963 
L 4769 2963 
Q 5131 2963 5494 2981 
Q 5475 2788 5494 2588 
Q 5131 2606 4769 2606 
L 3613 2606 
L 3613 1400 
L 5406 1400 
Q 5769 1400 6131 1419 
Q 6113 1219 6131 1025 
Q 5769 1044 5406 1044 
L 3613 1044 
L 3613 150 
Q 3613 -313 3638 -769 
z
M 3163 1400 
L 3163 2606 
L 1850 2606 
L 1856 1400 
L 3163 1400 
z
" transform="scale(0.015625)"/>
        <path id="WenQuanYiZenHei-5316" d="M 3863 81 
Q 3863 -63 3922 -166 
Q 3981 -269 4088 -269 
L 5500 -269 
Q 5625 -263 5656 -138 
Q 5694 -31 5713 113 
L 5844 1019 
Q 6044 875 6294 875 
L 6081 -413 
Q 6056 -569 5963 -663 
Q 5913 -700 5850 -700 
L 4081 -700 
Q 3825 -700 3609 -509 
Q 3394 -319 3394 81 
L 3394 1456 
Q 2775 1044 2156 775 
Q 2075 1050 1844 1231 
Q 2706 1588 3394 2031 
L 3394 4138 
Q 3394 4613 3375 5081 
Q 3631 5056 3888 5081 
Q 3863 4613 3863 4138 
L 3863 2356 
Q 4375 2756 4869 3325 
Q 5213 3706 5406 3950 
Q 5606 3756 5844 3600 
Q 4881 2531 3863 1775 
L 3863 81 
z
M 1838 -769 
Q 1581 -744 1325 -769 
Q 1344 -300 1344 175 
L 1344 2838 
Q 944 2375 469 2044 
Q 331 2300 75 2431 
Q 556 2750 987 3175 
Q 1419 3600 1656 4075 
Q 1894 4588 2069 5150 
Q 2331 5044 2606 4988 
Q 2275 4131 1813 3444 
L 1813 175 
Q 1813 -300 1838 -769 
z
" transform="scale(0.015625)"/>
        <path id="WenQuanYiZenHei-ff08" d="M 5438 -1094 
L 5106 -1094 
Q 4306 -100 4175 1231 
Q 4156 1438 4156 1656 
Q 4156 3031 4994 4244 
Q 5044 4313 5100 4388 
L 5431 4388 
Q 4638 3169 4625 1681 
Q 4625 188 5438 -1094 
z
" transform="scale(0.015625)"/>
        <path id="WenQuanYiZenHei-516c" d="M 4188 1194 
Q 4813 313 5356 -631 
L 4913 -888 
L 4469 -150 
L 4100 -188 
L 1038 -650 
L 981 -256 
Q 1144 -219 1244 -88 
Q 1544 288 2081 1238 
Q 2619 2188 2756 2694 
Q 3006 2563 3275 2481 
Q 3138 2138 2506 1122 
Q 1875 106 1694 -156 
L 4050 163 
L 4244 206 
L 3769 900 
L 4188 1194 
z
M 6156 2100 
Q 5900 1994 5775 1750 
Q 4825 2300 4244 3231 
Q 3719 4050 3444 5056 
L 3850 5156 
Q 4169 4019 4706 3303 
Q 5244 2588 6156 2100 
z
M 2063 4913 
Q 2331 4813 2606 4775 
Q 2144 3338 1244 2256 
Q 888 1838 475 1513 
Q 325 1763 63 1875 
Q 544 2238 978 2703 
Q 1413 3169 1638 3675 
Q 1888 4263 2063 4913 
z
" transform="scale(0.015625)"/>
        <path id="WenQuanYiZenHei-5f00" d="M 4331 -775 
Q 4075 -750 3819 -775 
Q 3844 -306 3844 169 
L 3844 2181 
L 2419 2181 
L 2419 1581 
Q 2419 744 1900 78 
Q 1381 -588 594 -831 
Q 519 -544 250 -406 
Q 975 -288 1465 278 
Q 1956 844 1956 1581 
L 1956 2181 
L 1031 2181 
Q 631 2181 231 2163 
Q 250 2381 231 2600 
Q 631 2575 1031 2575 
L 1956 2575 
L 1956 4488 
L 1450 4488 
Q 1050 4488 650 4469 
Q 675 4688 650 4906 
Q 1050 4881 1450 4881 
L 4994 4881 
Q 5394 4881 5794 4906 
Q 5769 4688 5794 4469 
Q 5394 4488 4994 4488 
L 4306 4488 
L 4306 2575 
L 5338 2575 
Q 5738 2575 6138 2600 
Q 6119 2381 6138 2163 
Q 5738 2181 5338 2181 
L 4306 2181 
L 4306 169 
Q 4306 -306 4331 -775 
z
M 3844 2575 
L 3844 4488 
L 2419 4488 
L 2419 2575 
L 3844 2575 
z
" transform="scale(0.015625)"/>
        <path id="WenQuanYiZenHei-53e3" d="M 1181 -781 
Q 925 -756 669 -781 
Q 688 -313 688 163 
L 694 4506 
L 5288 4506 
L 5288 -769 
L 4825 -769 
L 4825 219 
L 1156 219 
L 1156 163 
Q 1156 -313 1181 -781 
z
M 4825 4113 
L 1156 4113 
L 1156 619 
L 4825 619 
L 4825 4113 
z
" transform="scale(0.015625)"/>
        <path id="WenQuanYiZenHei-5f84" d="M 6181 138 
Q 6156 -44 6181 -225 
Q 5844 -206 5506 -206 
L 2950 -206 
Q 2619 -206 2281 -225 
Q 2300 -44 2281 138 
Q 2619 119 2950 119 
L 3863 119 
L 3863 1625 
L 3338 1625 
Q 3000 1625 2663 1613 
Q 2681 1794 2663 1975 
Q 3000 1956 3338 1956 
L 5169 1956 
Q 5506 1956 5838 1975 
Q 5819 1794 5838 1613 
Q 5506 1625 5169 1625 
L 4300 1625 
L 4300 119 
L 5506 119 
Q 5844 119 6181 138 
z
M 3481 4531 
Q 3144 4531 2813 4513 
Q 2831 4694 2813 4875 
Q 3144 4863 3481 4863 
L 5481 4863 
Q 5163 4256 4725 3725 
Q 5406 3250 6031 2706 
L 5713 2344 
Q 5100 2881 4425 3344 
L 4525 3488 
Q 3725 2606 2669 2063 
Q 2494 2263 2263 2394 
Q 3400 2888 4150 3738 
Q 4500 4131 4738 4531 
L 3481 4531 
z
M 1906 3663 
Q 2113 3519 2356 3419 
Q 2031 2919 1631 2469 
L 1631 13 
Q 1631 -419 1656 -850 
Q 1394 -825 1131 -850 
Q 1150 -419 1150 13 
L 1150 1956 
L 431 1263 
Q 288 1438 38 1513 
Q 775 2144 1406 2981 
L 1906 3663 
z
M 1713 5094 
Q 1931 4969 2181 4875 
Q 1731 4119 1000 3525 
Q 756 3325 494 3138 
Q 369 3331 138 3425 
Q 781 3850 1275 4488 
Q 1506 4788 1713 5094 
z
" transform="scale(0.015625)"/>
        <path id="WenQuanYiZenHei-ff09" d="M 2244 1656 
Q 2244 306 1519 -788 
Q 1413 -950 1294 -1094 
L 963 -1094 
Q 1775 188 1775 1681 
Q 1775 3169 988 4363 
Q 975 4375 969 4388 
L 1300 4388 
Q 2169 3231 2238 1863 
Q 2244 1763 2244 1656 
z
" transform="scale(0.015625)"/>
       </defs>
       <use xlink:href="#WenQuanYiZenHei-35"/>
       <use xlink:href="#WenQuanYiZenHei-20" transform="translate(59.960938 0)"/>
       <use xlink:href="#WenQuanYiZenHei-6708" transform="translate(89.941406 0)"/>
       <use xlink:href="#WenQuanYiZenHei-5355" transform="translate(189.941406 0)"/>
       <use xlink:href="#WenQuanYiZenHei-6708" transform="translate(289.941406 0)"/>
       <use xlink:href="#WenQuanYiZenHei-5e74" transform="translate(389.941406 0)"/>
       <use xlink:href="#WenQuanYiZenHei-5316" transform="translate(489.941406 0)"/>
       <use xlink:href="#WenQuanYiZenHei-ff08" transform="translate(589.941406 0)"/>
       <use xlink:href="#WenQuanYiZenHei-516c" transform="translate(689.941406 0)"/>
       <use xlink:href="#WenQuanYiZenHei-5f00" transform="translate(789.941406 0)"/>
       <use xlink:href="#WenQuanYiZenHei-53e3" transform="translate(889.941406 0)"/>
       <use xlink:href="#WenQuanYiZenHei-5f84" transform="translate(989.941406 0)"/>
       <use xlink:href="#WenQuanYiZenHei-ff09" transform="translate(1089.941406 0)"/>
      </g>
     </g>
    </g>
    <g id="xtick_2">
     <g id="line2d_2">
      <g>
       <use xlink:href="#m9db082cc74" x="261.605361" y="218.236052" style="fill: #333333; stroke: #333333; stroke-width: 0.8"/>
      </g>
     </g>
     <g id="text_2">
      <!-- 一年前 全年营收（已知） -->
      <g style="fill: #333333" transform="translate(207.931103 233.06613) scale(0.095 -0.095)">
       <defs>
        <path id="WenQuanYiZenHei-4e00" d="M 6019 2719 
Q 5988 2463 6019 2206 
Q 5544 2231 5075 2231 
L 1238 2231 
Q 769 2231 294 2206 
Q 325 2463 294 2719 
Q 769 2694 1238 2694 
L 5075 2694 
Q 5544 2694 6019 2719 
z
" transform="scale(0.015625)"/>
        <path id="WenQuanYiZenHei-524d" d="M 5000 2531 
Q 5000 2975 4975 3413 
Q 5219 3388 5456 3413 
Q 5431 2975 5431 2531 
L 5431 -131 
Q 5431 -463 5200 -638 
Q 4950 -819 4369 -813 
Q 4431 -513 4231 -281 
Q 4413 -306 4650 -309 
Q 4888 -313 4944 -263 
Q 5000 -206 5000 56 
L 5000 2531 
z
M 4181 275 
Q 3944 300 3706 275 
Q 3725 713 3725 1156 
L 3725 2094 
Q 3725 2538 3706 2975 
Q 3944 2950 4181 2975 
Q 4163 2538 4163 2094 
L 4163 1156 
Q 4163 713 4181 275 
z
M 2531 106 
L 2531 775 
L 1275 775 
L 1275 206 
Q 1275 -238 1300 -675 
Q 1063 -650 825 -675 
Q 844 -238 844 206 
L 844 3281 
L 2963 3281 
L 2963 -63 
Q 2944 -475 2644 -613 
Q 2431 -725 2163 -725 
Q 2213 -425 2050 -163 
Q 2144 -194 2256 -219 
Q 2463 -225 2497 -184 
Q 2531 -144 2531 106 
z
M 6131 4088 
Q 6119 3913 6131 3738 
Q 5813 3750 5488 3750 
L 3700 3750 
L 3638 3694 
Q 3619 3725 3600 3750 
L 763 3750 
Q 438 3750 119 3738 
Q 131 3913 119 4088 
Q 438 4069 763 4069 
L 2100 4069 
Q 1788 4500 1419 4894 
L 1769 5219 
Q 2219 4738 2594 4200 
L 2413 4069 
L 3419 4069 
Q 3913 4538 4338 5194 
Q 4525 5044 4744 4938 
Q 4488 4525 4038 4069 
L 5488 4069 
Q 5813 4069 6131 4088 
z
M 2531 2188 
L 2531 2963 
L 1281 2963 
L 1275 2188 
L 2531 2188 
z
M 2531 1094 
L 2531 1869 
L 1275 1869 
L 1275 1094 
L 2531 1094 
z
" transform="scale(0.015625)"/>
        <path id="WenQuanYiZenHei-5168" d="M 5688 -50 
Q 5669 -250 5688 -444 
Q 5325 -431 4963 -431 
L 1231 -431 
Q 863 -431 500 -444 
Q 519 -250 500 -50 
Q 863 -69 1231 -69 
L 2875 -69 
L 2875 1025 
L 1788 1025 
Q 1425 1025 1056 1006 
Q 1081 1200 1056 1400 
Q 1425 1381 1788 1381 
L 2875 1381 
L 2875 2375 
L 1981 2375 
Q 1619 2375 1256 2356 
L 1269 2594 
Q 850 2325 413 2144 
Q 338 2413 119 2594 
Q 1050 2950 1706 3488 
Q 1994 3725 2181 3969 
Q 2631 4550 2981 5200 
Q 3206 5050 3463 4950 
L 3344 4750 
Q 3950 3988 4569 3513 
Q 5188 3038 6138 2663 
Q 5900 2531 5806 2275 
Q 5369 2450 4931 2731 
Q 4913 2544 4931 2356 
Q 4569 2375 4206 2375 
L 3325 2375 
L 3325 1381 
L 4400 1381 
Q 4769 1381 5131 1400 
Q 5113 1200 5131 1006 
Q 4769 1025 4400 1025 
L 3325 1025 
L 3325 -69 
L 4963 -69 
Q 5325 -69 5688 -50 
z
M 1981 2738 
L 4206 2738 
Q 4550 2738 4900 2750 
Q 3944 3369 3106 4394 
Q 2394 3388 1488 2744 
Q 1738 2738 1981 2738 
z
" transform="scale(0.015625)"/>
        <path id="WenQuanYiZenHei-8425" d="M 1469 -800 
Q 1238 -781 1006 -800 
Q 1025 -375 1025 56 
L 1025 1188 
L 5331 1188 
L 5331 -788 
L 4906 -788 
L 4906 -300 
L 1450 -300 
Q 1456 -550 1469 -800 
z
M 1569 1600 
Q 1644 2213 1569 2825 
L 4844 2825 
Q 4763 2213 4831 1600 
L 1569 1600 
z
M 656 2381 
L 231 2381 
L 231 3456 
L 6019 3456 
L 6019 2381 
L 5594 2381 
L 5594 3156 
L 656 3156 
L 656 2381 
z
M 4906 888 
L 1450 888 
L 1450 -25 
L 4906 -25 
L 4906 888 
z
M 1994 2531 
L 1994 1900 
L 4413 1900 
L 4419 2531 
L 1994 2531 
z
M 4175 3738 
Q 3938 3763 3706 3738 
Q 3725 4031 3725 4313 
L 2381 4313 
Q 2388 4025 2400 3738 
Q 2169 3763 1938 3738 
Q 1950 4031 1956 4313 
L 719 4313 
Q 419 4313 119 4300 
Q 131 4456 119 4613 
Q 419 4600 719 4600 
L 1956 4600 
Q 1950 4931 1938 5263 
Q 2169 5238 2400 5263 
Q 2381 4925 2381 4600 
L 3725 4600 
Q 3725 4938 3706 5275 
Q 3938 5256 4175 5275 
Q 4156 4931 4150 4600 
L 5531 4600 
Q 5831 4600 6131 4613 
Q 6119 4456 6131 4300 
Q 5831 4313 5531 4313 
L 4156 4313 
Q 4156 4025 4175 3738 
z
" transform="scale(0.015625)"/>
        <path id="WenQuanYiZenHei-6536" d="M 2081 -769 
Q 1831 -744 1581 -769 
Q 1606 -313 1606 144 
L 1606 1281 
Q 1119 1113 394 744 
L 250 1175 
Q 313 1288 313 1425 
L 313 3106 
Q 313 3569 294 4025 
Q 544 4000 788 4025 
Q 769 3569 769 3106 
L 769 1375 
L 1606 1663 
L 1606 4119 
Q 1606 4575 1581 5038 
Q 1831 5006 2081 5038 
Q 2056 4575 2056 4119 
L 2056 144 
Q 2056 -313 2081 -769 
z
M 3375 5031 
Q 3625 4963 3913 4944 
Q 3781 4400 3613 3869 
L 3588 3781 
L 5200 3781 
Q 5563 3781 5925 3800 
Q 5906 3600 5925 3406 
L 5175 3419 
Q 5106 1925 4488 888 
Q 5125 106 6175 -306 
Q 5950 -438 5850 -694 
Q 4875 -288 4256 519 
Q 3575 -469 2406 -906 
Q 2338 -613 2144 -438 
Q 3338 -44 3981 913 
Q 3413 1806 3281 2963 
Q 3044 2381 2638 1806 
Q 2450 1981 2150 2025 
Q 2431 2406 2737 2937 
Q 3044 3469 3178 3991 
Q 3313 4513 3375 5031 
z
M 3663 3419 
Q 3675 2794 3831 2244 
Q 3988 1694 4206 1300 
Q 4650 2181 4681 3419 
L 3663 3419 
z
" transform="scale(0.015625)"/>
        <path id="WenQuanYiZenHei-5df2" d="M 1369 -706 
Q 900 -663 750 -269 
Q 688 -100 688 119 
L 688 2638 
Q 688 3106 663 3581 
Q 919 3550 1175 3581 
Q 1156 3181 1150 2775 
L 4675 2775 
L 4675 4550 
L 1394 4550 
Q 994 4550 594 4531 
Q 619 4750 594 4963 
Q 994 4944 1394 4944 
L 5138 4944 
L 5138 2038 
L 4675 2038 
L 4675 2381 
L 1150 2381 
L 1150 119 
Q 1150 -44 1206 -159 
Q 1263 -275 1381 -275 
L 4988 -269 
Q 5163 -269 5291 -156 
Q 5419 -44 5444 131 
L 5575 1069 
Q 5781 925 6025 931 
L 5844 -238 
Q 5819 -431 5675 -568 
Q 5531 -706 5338 -706 
L 1369 -706 
z
" transform="scale(0.015625)"/>
        <path id="WenQuanYiZenHei-77e5" d="M 3744 4175 
L 5794 4175 
L 5794 -756 
L 5356 -756 
L 5356 144 
L 4194 144 
L 4219 -769 
Q 3975 -744 3731 -769 
Q 3756 -325 3756 125 
L 3744 4175 
z
M 1000 2063 
Q 663 2063 331 2044 
Q 350 2225 331 2413 
Q 663 2394 1000 2394 
L 1838 2394 
L 1838 2938 
Q 1838 3350 1819 3756 
L 1325 3756 
Q 1006 3138 613 2563 
Q 444 2725 213 2756 
Q 656 3375 906 3984 
Q 1156 4594 1331 5131 
Q 1556 5044 1800 5000 
Q 1663 4506 1481 4088 
L 2663 4088 
Q 3000 4088 3338 4106 
Q 3319 3925 3338 3744 
Q 3000 3756 2663 3756 
L 2300 3756 
Q 2281 3350 2281 2938 
L 2281 2394 
L 2863 2394 
Q 3200 2394 3531 2413 
Q 3513 2225 3531 2044 
Q 3200 2063 2863 2063 
L 2275 2063 
Q 2269 1831 2238 1606 
L 2788 919 
Q 3106 506 3406 75 
L 3006 -200 
Q 2713 219 2406 625 
L 2094 1013 
Q 1669 -188 619 -769 
Q 488 -513 213 -444 
Q 875 -175 1300 406 
Q 1800 1100 1838 2063 
L 1000 2063 
z
M 5356 475 
L 5356 3844 
L 4188 3844 
L 4194 475 
L 5356 475 
z
" transform="scale(0.015625)"/>
       </defs>
       <use xlink:href="#WenQuanYiZenHei-4e00"/>
       <use xlink:href="#WenQuanYiZenHei-5e74" transform="translate(100 0)"/>
       <use xlink:href="#WenQuanYiZenHei-524d" transform="translate(200 0)"/>
       <use xlink:href="#WenQuanYiZenHei-20" transform="translate(300 0)"/>
       <use xlink:href="#WenQuanYiZenHei-5168" transform="translate(329.980469 0)"/>
       <use xlink:href="#WenQuanYiZenHei-5e74" transform="translate(429.980469 0)"/>
       <use xlink:href="#WenQuanYiZenHei-8425" transform="translate(529.980469 0)"/>
       <use xlink:href="#WenQuanYiZenHei-6536" transform="translate(629.980469 0)"/>
       <use xlink:href="#WenQuanYiZenHei-ff08" transform="translate(729.980469 0)"/>
       <use xlink:href="#WenQuanYiZenHei-5df2" transform="translate(829.980469 0)"/>
       <use xlink:href="#WenQuanYiZenHei-77e5" transform="translate(929.980469 0)"/>
       <use xlink:href="#WenQuanYiZenHei-ff09" transform="translate(1029.980469 0)"/>
      </g>
     </g>
    </g>
    <g id="xtick_3">
     <g id="line2d_3">
      <g>
       <use xlink:href="#m9db082cc74" x="412.324951" y="218.236052" style="fill: #333333; stroke: #333333; stroke-width: 0.8"/>
      </g>
     </g>
     <g id="text_3">
      <!-- Series H 投后估值 -->
      <g style="fill: #333333" transform="translate(374.16167 232.870193) scale(0.095 -0.095)">
       <defs>
        <path id="WenQuanYiZenHei-53" d="M 3688 1256 
Q 3688 444 2931 106 
Q 2544 -63 2050 -63 
Q 700 -63 269 1181 
L 763 1294 
Q 963 613 1663 450 
Q 1850 406 2063 406 
Q 2700 406 2975 750 
Q 3119 925 3119 1181 
Q 3119 1631 2550 1850 
L 2144 1963 
Q 1406 2150 1338 2175 
Q 1013 2281 844 2431 
Q 488 2750 488 3244 
Q 488 3994 1181 4300 
Q 1538 4456 1975 4456 
Q 2881 4456 3338 3800 
L 3463 3569 
Q 3506 3481 3538 3381 
L 3038 3244 
Q 2956 3675 2488 3900 
Q 2238 4019 1963 4019 
Q 1506 4019 1219 3756 
Q 1025 3575 1025 3319 
Q 1025 2888 1563 2688 
Q 1694 2644 2394 2481 
Q 3019 2338 3275 2125 
Q 3688 1794 3688 1256 
z
" transform="scale(0.015625)"/>
        <path id="WenQuanYiZenHei-65" d="M 3163 1588 
L 800 1588 
Q 794 963 1088 631 
Q 1331 356 1769 356 
Q 2313 356 2569 831 
Q 2606 900 2638 988 
L 3113 888 
Q 2931 325 2363 69 
Q 2063 -63 1725 -63 
Q 888 -63 488 625 
Q 238 1050 238 1625 
Q 238 2431 725 2925 
Q 1125 3338 1744 3338 
Q 2588 3338 2956 2606 
Q 3163 2200 3163 1663 
L 3163 1588 
z
M 2613 1956 
Q 2619 2488 2288 2763 
Q 2063 2950 1744 2950 
Q 1250 2950 988 2500 
Q 838 2256 825 1956 
L 2613 1956 
z
" transform="scale(0.015625)"/>
        <path id="WenQuanYiZenHei-72" d="M 2063 2850 
L 1956 2850 
Q 1356 2850 1094 2281 
Q 963 1988 963 1638 
L 963 0 
L 463 0 
L 463 3250 
L 906 3250 
L 906 2488 
L 919 2488 
Q 1219 3344 1819 3344 
Q 1894 3344 2063 3325 
L 2063 2850 
z
" transform="scale(0.015625)"/>
        <path id="WenQuanYiZenHei-69" d="M 1044 3825 
L 494 3825 
L 494 4388 
L 1044 4388 
L 1044 3825 
z
M 1019 0 
L 519 0 
L 519 3250 
L 1019 3250 
L 1019 0 
z
" transform="scale(0.015625)"/>
        <path id="WenQuanYiZenHei-73" d="M 3031 944 
Q 3031 294 2350 44 
Q 2050 -63 1681 -63 
Q 863 -63 475 425 
Q 319 613 256 863 
L 744 963 
Q 806 544 1344 406 
Q 1531 350 1719 350 
Q 2250 350 2438 631 
Q 2506 744 2506 888 
Q 2506 1206 2081 1331 
L 1638 1425 
Q 988 1544 750 1688 
Q 388 1919 388 2381 
Q 388 2975 994 3219 
Q 1269 3338 1606 3338 
Q 2463 3338 2781 2781 
Q 2856 2663 2894 2513 
L 2431 2419 
Q 2275 2869 1725 2925 
Q 1663 2931 1600 2931 
Q 1150 2931 981 2688 
Q 906 2594 906 2456 
Q 906 2138 1356 2013 
Q 1413 1988 2038 1881 
Q 2456 1806 2644 1675 
Q 3031 1413 3031 944 
z
" transform="scale(0.015625)"/>
        <path id="WenQuanYiZenHei-48" d="M 3656 0 
L 3106 0 
L 3106 2088 
L 1069 2088 
L 1069 0 
L 519 0 
L 519 4388 
L 1069 4388 
L 1069 2569 
L 3106 2569 
L 3106 4388 
L 3656 4388 
L 3656 0 
z
" transform="scale(0.015625)"/>
        <path id="WenQuanYiZenHei-6295" d="M 2944 2163 
Q 2963 2350 2944 2538 
Q 3294 2525 3644 2525 
L 5350 2525 
Q 5250 1381 4506 519 
Q 5156 -25 6138 -169 
Q 5938 -350 5906 -613 
Q 4950 -469 4206 219 
Q 3413 -506 2344 -663 
Q 2244 -413 2063 -219 
Q 2569 -188 3044 9 
Q 3519 206 3900 544 
Q 3331 1219 3038 2169 
Q 2994 2163 2944 2163 
z
M 3075 4931 
L 5131 4931 
L 5081 3494 
Q 5081 3406 5113 3406 
L 5369 3406 
Q 5719 3406 6063 3425 
Q 6044 3244 6063 3063 
L 5106 3063 
Q 4931 3063 4809 3188 
Q 4688 3313 4688 3494 
L 4688 4588 
L 3525 4588 
L 3531 4069 
Q 3538 3569 3331 3131 
Q 3125 2694 2738 2406 
Q 2606 2644 2356 2738 
Q 2694 2906 2894 3247 
Q 3094 3588 3088 4063 
L 3075 4931 
z
M 4838 2181 
L 3456 2175 
Q 3731 1356 4188 831 
Q 4688 1419 4838 2181 
z
M -13 2088 
Q 625 2200 1213 2406 
L 1213 3569 
L 788 3569 
Q 419 3569 56 3550 
Q 75 3756 56 3963 
Q 419 3944 788 3944 
L 1213 3944 
L 1213 4244 
Q 1213 4713 1188 5175 
Q 1431 5150 1669 5175 
Q 1650 4713 1650 4244 
L 1650 3944 
L 1925 3944 
Q 2294 3944 2663 3963 
Q 2638 3756 2663 3550 
Q 2294 3569 1925 3569 
L 1650 3569 
L 1650 2569 
Q 2088 2738 2644 2975 
L 2681 2644 
L 1650 2219 
L 1650 -94 
Q 1644 -700 1188 -831 
Q 881 -900 556 -894 
Q 606 -544 419 -338 
Q 606 -363 840 -366 
Q 1075 -369 1140 -309 
Q 1206 -250 1213 75 
L 1213 2031 
L 963 1925 
Q 575 1744 188 1550 
Q 150 1875 -13 2088 
z
" transform="scale(0.015625)"/>
        <path id="WenQuanYiZenHei-540e" d="M 2819 -769 
Q 2569 -738 2319 -769 
Q 2344 -306 2344 150 
L 2344 2200 
L 5450 2200 
L 5450 -750 
L 5000 -750 
L 5000 -106 
L 2794 -106 
Q 2800 -438 2819 -769 
z
M 181 -475 
Q 1281 263 1275 2075 
L 1275 4706 
L 1369 4706 
L 1344 4750 
Q 2231 4688 3272 4791 
Q 4313 4894 4666 5006 
Q 5019 5119 5250 5306 
Q 5344 5063 5488 4844 
Q 5069 4600 4438 4531 
Q 4081 4481 3781 4463 
L 1725 4319 
L 1725 3456 
L 5406 3456 
Q 5775 3456 6138 3475 
Q 6119 3281 6138 3081 
Q 5775 3100 5406 3100 
L 1725 3100 
L 1725 2075 
Q 1725 225 631 -738 
Q 463 -513 181 -475 
z
M 5000 1838 
L 2794 1838 
L 2794 256 
L 5000 256 
L 5000 1838 
z
" transform="scale(0.015625)"/>
        <path id="WenQuanYiZenHei-4f30" d="M 3194 -769 
Q 2950 -744 2706 -769 
Q 2725 -319 2725 131 
L 2725 1844 
L 4025 1844 
L 4025 3150 
L 3044 3150 
Q 2694 3150 2344 3131 
Q 2363 3325 2344 3513 
Q 2694 3494 3044 3494 
L 4025 3494 
L 4025 4113 
Q 4025 4569 4006 5019 
Q 4250 4994 4494 5019 
Q 4475 4569 4475 4113 
L 4475 3494 
L 5488 3494 
Q 5838 3494 6188 3513 
Q 6169 3325 6188 3131 
Q 5838 3150 5488 3150 
L 4475 3150 
L 4475 1844 
L 5775 1844 
L 5775 -756 
L 5325 -756 
L 5325 -350 
L 3181 -350 
Q 3188 -563 3194 -769 
z
M 5325 1500 
L 3175 1500 
L 3175 -6 
L 5325 -6 
L 5325 1500 
z
M 2331 4925 
Q 2050 4075 1613 3338 
L 1613 31 
Q 1613 -413 1638 -850 
Q 1388 -825 1138 -850 
Q 1156 -413 1156 31 
L 1156 2681 
Q 825 2269 413 1931 
Q 263 2156 -6 2256 
Q 363 2544 681 2875 
Q 1213 3425 1438 3950 
Q 1650 4469 1794 5050 
Q 2044 4963 2331 4925 
z
" transform="scale(0.015625)"/>
        <path id="WenQuanYiZenHei-503c" d="M 6175 -219 
Q 6156 -388 6175 -556 
Q 5863 -544 5550 -544 
L 2313 -544 
Q 2000 -544 1688 -556 
Q 1706 -388 1688 -219 
L 2506 -231 
L 2506 3469 
L 3644 3469 
L 3644 4119 
L 2638 4119 
Q 2325 4119 2013 4100 
Q 2031 4269 2013 4438 
Q 2325 4425 2638 4425 
L 3638 4425 
Q 3638 4719 3619 5013 
Q 3856 4988 4094 5013 
Q 4075 4719 4075 4425 
L 5344 4425 
Q 5650 4425 5963 4438 
Q 5950 4269 5963 4100 
Q 5656 4119 5344 4119 
L 4069 4119 
L 4069 3469 
L 5300 3469 
L 5300 -231 
L 5550 -231 
Q 5863 -231 6175 -219 
z
M 4869 2556 
L 4869 3156 
L 2931 3156 
Q 2931 2850 2931 2556 
L 4869 2556 
z
M 4869 1669 
L 4869 2250 
L 2931 2250 
L 2931 1669 
L 4869 1669 
z
M 4869 731 
L 4869 1363 
L 2931 1363 
L 2931 731 
L 4869 731 
z
M 4869 -231 
L 4869 425 
L 2931 425 
L 2931 -231 
L 4869 -231 
z
M 2106 4925 
Q 1856 4075 1463 3338 
L 1463 31 
Q 1463 -413 1481 -850 
Q 1256 -825 1031 -850 
Q 1050 -413 1050 31 
L 1050 2681 
Q 750 2269 375 1931 
Q 238 2156 0 2256 
Q 331 2544 619 2875 
Q 1094 3425 1300 3950 
Q 1494 4469 1625 5050 
Q 1850 4963 2106 4925 
z
" transform="scale(0.015625)"/>
       </defs>
       <use xlink:href="#WenQuanYiZenHei-53"/>
       <use xlink:href="#WenQuanYiZenHei-65" transform="translate(61.914062 0)"/>
       <use xlink:href="#WenQuanYiZenHei-72" transform="translate(115.820312 0)"/>
       <use xlink:href="#WenQuanYiZenHei-69" transform="translate(147.753906 0)"/>
       <use xlink:href="#WenQuanYiZenHei-65" transform="translate(171.679688 0)"/>
       <use xlink:href="#WenQuanYiZenHei-73" transform="translate(225.585938 0)"/>
       <use xlink:href="#WenQuanYiZenHei-20" transform="translate(277.539062 0)"/>
       <use xlink:href="#WenQuanYiZenHei-48" transform="translate(307.519531 0)"/>
       <use xlink:href="#WenQuanYiZenHei-20" transform="translate(373.4375 0)"/>
       <use xlink:href="#WenQuanYiZenHei-6295" transform="translate(403.417969 0)"/>
       <use xlink:href="#WenQuanYiZenHei-540e" transform="translate(503.417969 0)"/>
       <use xlink:href="#WenQuanYiZenHei-4f30" transform="translate(603.417969 0)"/>
       <use xlink:href="#WenQuanYiZenHei-503c" transform="translate(703.417969 0)"/>
      </g>
     </g>
    </g>
    <g id="xtick_4">
     <g id="line2d_4">
      <g>
       <use xlink:href="#m9db082cc74" x="563.044542" y="218.236052" style="fill: #333333; stroke: #333333; stroke-width: 0.8"/>
      </g>
     </g>
     <g id="text_4">
      <!-- Series H 融资金额 -->
      <g style="fill: #333333" transform="translate(524.88126 233.01863) scale(0.095 -0.095)">
       <defs>
        <path id="WenQuanYiZenHei-878d" d="M 4550 1481 
L 4031 1481 
L 4031 1019 
L 3631 1019 
L 3631 3644 
L 4550 3644 
L 4550 4394 
Q 4550 4800 4531 5206 
Q 4750 5181 4969 5206 
Q 4950 4800 4950 4394 
L 4950 3644 
L 5869 3644 
L 5869 1019 
L 5469 1019 
L 5469 1481 
L 4950 1481 
L 4950 -100 
Q 5219 -69 5600 -19 
Q 5488 231 5350 463 
L 5731 688 
Q 6106 56 6294 -663 
L 5863 -769 
Q 5794 -500 5694 -238 
Q 4250 -463 3388 -656 
Q 3419 -400 3313 -156 
Q 3900 -188 4550 -138 
L 4550 1481 
z
M 2019 -419 
Q 1794 -394 1575 -419 
Q 1594 -63 1594 263 
L 1594 938 
L 750 925 
Q 769 1069 750 1213 
L 1313 1200 
L 825 2000 
L 1156 2200 
L 675 2200 
L 675 150 
Q 675 -256 694 -663 
Q 475 -638 256 -663 
Q 275 -256 275 150 
L 275 2463 
L 3306 2463 
L 3306 -100 
Q 3281 -456 3006 -569 
Q 2750 -694 2388 -688 
Q 2444 -413 2275 -194 
Q 2419 -219 2612 -222 
Q 2806 -225 2853 -194 
Q 2900 -163 2900 31 
L 2900 938 
L 2063 938 
L 2038 900 
Q 2019 919 1994 938 
L 1994 400 
Q 1994 -13 2019 -419 
z
M 713 2856 
Q 788 3463 713 4069 
L 2875 4069 
Q 2800 3463 2863 2856 
L 713 2856 
z
M 3394 4831 
Q 3381 4688 3394 4544 
Q 3131 4556 2869 4556 
L 706 4556 
Q 444 4556 181 4544 
Q 200 4688 181 4831 
Q 444 4819 706 4819 
L 2869 4819 
Q 3131 4819 3394 4831 
z
M 4950 1719 
L 5469 1719 
L 5469 3381 
L 4950 3381 
L 4950 1719 
z
M 4550 1719 
L 4550 3381 
L 4031 3381 
L 4031 1719 
L 4550 1719 
z
M 2900 1200 
L 2900 2200 
L 2769 2200 
Q 2631 1731 2250 1200 
L 2900 1200 
z
M 1763 1200 
Q 2044 1581 2319 2200 
L 1219 2200 
L 1706 1394 
L 1381 1200 
L 1763 1200 
z
M 1113 3806 
L 1113 3119 
L 2469 3119 
L 2475 3806 
L 1113 3806 
z
" transform="scale(0.015625)"/>
        <path id="WenQuanYiZenHei-8d44" d="M 5663 -456 
L 5419 -863 
L 4406 -275 
L 3375 263 
L 3588 688 
L 4638 138 
L 5663 -456 
z
M 2963 1063 
Q 2975 1369 2944 1638 
Q 3175 1613 3413 1638 
Q 3375 1369 3394 1063 
Q 3394 750 3228 462 
Q 3063 175 2809 -34 
Q 2556 -244 2231 -413 
Q 1681 -713 1031 -831 
Q 981 -544 725 -406 
Q 1556 -306 2194 56 
Q 2531 238 2747 506 
Q 2963 775 2963 1063 
z
M 2331 2244 
L 4875 2244 
L 4875 431 
L 4444 431 
L 4444 1931 
L 1988 1931 
L 1994 1144 
Q 2000 706 2019 269 
Q 1788 294 1550 269 
Q 1569 700 1563 1138 
L 1563 2244 
Q 1644 2244 1688 2244 
Q 1550 2419 1344 2506 
Q 2181 2581 2825 3028 
Q 3469 3475 3744 4181 
Q 3963 4044 4206 3950 
L 4106 3788 
Q 4375 3356 4781 3031 
Q 5281 2631 6088 2525 
Q 5900 2350 5869 2094 
Q 5256 2188 4750 2556 
Q 4244 2925 3869 3450 
Q 3206 2600 2331 2244 
z
M 3194 4513 
L 5775 4513 
L 5831 4144 
Q 5725 4131 5669 4069 
L 5100 3363 
L 4763 3625 
L 5225 4200 
L 3025 4200 
Q 2694 3644 2138 3050 
Q 2000 3231 1788 3294 
Q 2150 3669 2415 4087 
Q 2681 4506 2963 5156 
Q 3169 5044 3400 4981 
Q 3313 4744 3194 4513 
z
M 394 2556 
Q 756 2881 1022 3218 
Q 1288 3556 1706 4188 
L 1888 3975 
L 1194 2794 
L 881 2225 
Q 688 2463 394 2556 
z
M 1631 4500 
L 1300 4163 
L 556 4888 
L 881 5225 
L 1631 4500 
z
" transform="scale(0.015625)"/>
        <path id="WenQuanYiZenHei-91d1" d="M 3319 4794 
Q 4200 3331 6106 2888 
Q 5894 2725 5838 2469 
Q 5019 2675 4287 3203 
Q 3556 3731 3075 4438 
Q 2425 3525 1656 2863 
Q 1963 2850 2269 2850 
L 4088 2850 
Q 4425 2850 4756 2869 
Q 4738 2688 4756 2506 
Q 4425 2519 4088 2519 
L 3356 2519 
L 3356 1669 
L 4706 1669 
Q 5038 1669 5375 1688 
Q 5356 1506 5375 1325 
Q 5038 1338 4706 1338 
L 3356 1338 
L 3356 -131 
L 3650 -131 
Q 3831 119 4194 725 
L 4488 1206 
Q 4681 1063 4906 963 
L 4763 719 
L 4481 288 
L 4181 -131 
L 5256 -131 
Q 5594 -131 5931 -113 
Q 5913 -294 5931 -475 
Q 5594 -463 5256 -463 
L 3944 -463 
Q 3938 -481 3925 -463 
L 1219 -463 
Q 888 -463 550 -475 
Q 569 -294 550 -113 
Q 888 -131 1219 -131 
L 1944 -131 
Q 1606 419 1206 919 
L 1581 1225 
Q 2025 681 2381 75 
L 2044 -131 
L 2919 -131 
L 2919 1338 
L 1700 1338 
Q 1363 1338 1025 1325 
Q 1050 1506 1025 1688 
Q 1363 1669 1700 1669 
L 2919 1669 
L 2919 2519 
L 2269 2519 
Q 1931 2519 1600 2506 
Q 1613 2663 1600 2819 
Q 1038 2344 425 2025 
Q 331 2288 106 2438 
Q 1456 3100 2131 3950 
Q 2575 4544 2950 5200 
Q 3169 5050 3419 4944 
L 3319 4794 
z
" transform="scale(0.015625)"/>
        <path id="WenQuanYiZenHei-989d" d="M 1450 -763 
Q 1231 -738 1006 -763 
Q 1025 -350 1025 63 
L 1025 1375 
Q 744 1181 438 1031 
Q 275 1219 56 1338 
Q 931 1706 1588 2381 
Q 1313 2538 1019 2656 
Q 925 2556 806 2438 
Q 688 2619 481 2688 
Q 775 2950 969 3262 
Q 1163 3575 1356 4063 
Q 1556 3969 1775 3919 
Q 1744 3819 1706 3719 
L 2931 3719 
Q 2663 3069 2231 2513 
Q 2750 2163 3188 1738 
L 2875 1419 
L 2838 1450 
L 2838 -144 
L 1431 -144 
Q 1438 -450 1450 -763 
z
M 900 3838 
L 494 3838 
L 494 4656 
L 1888 4656 
L 1381 5044 
L 1650 5400 
L 2288 4913 
L 2094 4656 
L 3400 4656 
L 3400 3838 
L 2994 3838 
L 2994 4388 
L 900 4388 
L 900 3838 
z
M 2431 1319 
L 1431 1319 
L 1431 125 
L 2431 125 
L 2431 1319 
z
M 1313 1588 
L 2694 1588 
Q 2344 1906 1938 2169 
Q 1650 1850 1313 1588 
z
M 1888 2725 
Q 2163 3069 2363 3450 
L 1588 3450 
Q 1469 3231 1319 3019 
Q 1606 2881 1888 2725 
z
M 5919 -888 
Q 5325 -225 4675 375 
L 4975 719 
Q 5644 106 6250 -575 
L 5919 -888 
z
M 3081 -906 
Q 3013 -631 2794 -506 
Q 3406 -431 3887 19 
Q 4369 469 4369 1069 
L 4369 2200 
Q 4369 2625 4350 3050 
Q 4575 3025 4800 3050 
Q 4781 2625 4781 2200 
L 4781 1069 
Q 4781 681 4606 319 
Q 4131 -606 3081 -906 
z
M 3963 488 
Q 3738 513 3513 488 
Q 3531 913 3531 1338 
L 3525 3675 
Q 3781 3675 4031 3675 
Q 4219 4013 4363 4525 
L 3788 4525 
Q 3500 4525 3213 4513 
Q 3231 4669 3213 4831 
Q 3500 4813 3788 4813 
L 5500 4813 
Q 5788 4813 6075 4831 
Q 6063 4669 6075 4513 
Q 5788 4525 5500 4525 
L 4813 4525 
Q 4738 4088 4494 3675 
L 5775 3675 
L 5775 513 
L 5363 513 
L 5363 3388 
L 4331 3388 
L 4319 3363 
Q 4306 3375 4294 3388 
Q 4119 3388 3938 3388 
L 3944 1338 
Q 3944 913 3963 488 
z
" transform="scale(0.015625)"/>
       </defs>
       <use xlink:href="#WenQuanYiZenHei-53"/>
       <use xlink:href="#WenQuanYiZenHei-65" transform="translate(61.914062 0)"/>
       <use xlink:href="#WenQuanYiZenHei-72" transform="translate(115.820312 0)"/>
       <use xlink:href="#WenQuanYiZenHei-69" transform="translate(147.753906 0)"/>
       <use xlink:href="#WenQuanYiZenHei-65" transform="translate(171.679688 0)"/>
       <use xlink:href="#WenQuanYiZenHei-73" transform="translate(225.585938 0)"/>
       <use xlink:href="#WenQuanYiZenHei-20" transform="translate(277.539062 0)"/>
       <use xlink:href="#WenQuanYiZenHei-48" transform="translate(307.519531 0)"/>
       <use xlink:href="#WenQuanYiZenHei-20" transform="translate(373.4375 0)"/>
       <use xlink:href="#WenQuanYiZenHei-878d" transform="translate(403.417969 0)"/>
       <use xlink:href="#WenQuanYiZenHei-8d44" transform="translate(503.417969 0)"/>
       <use xlink:href="#WenQuanYiZenHei-91d1" transform="translate(603.417969 0)"/>
       <use xlink:href="#WenQuanYiZenHei-989d" transform="translate(703.417969 0)"/>
      </g>
     </g>
    </g>
   </g>
   <g id="matplotlib.axis_2">
    <g id="ytick_1">
     <g id="line2d_5">
      <path d="M 42.685156 218.236052 
L 631.245156 218.236052 
" clip-path="url(#p93eee16f5f)" style="fill: none; stroke-dasharray: 2.96,1.28; stroke-dashoffset: 0; stroke: #b0b0b0; stroke-opacity: 0.35; stroke-width: 0.8"/>
     </g>
     <g id="line2d_6">
      <defs>
       <path id="mb90427e417" d="M 0 0 
L -3.5 0 
" style="stroke: #333333; stroke-width: 0.8"/>
      </defs>
      <g>
       <use xlink:href="#mb90427e417" x="42.685156" y="218.236052" style="fill: #333333; stroke: #333333; stroke-width: 0.8"/>
      </g>
     </g>
     <g id="text_5">
      <!-- 0 -->
      <g style="fill: #333333" transform="translate(29.988125 221.492771) scale(0.095 -0.095)">
       <defs>
        <path id="WenQuanYiZenHei-30" d="M 3581 2175 
Q 3581 1288 3169 638 
Q 2713 -63 1938 -63 
Q 1025 -63 563 831 
Q 256 1425 256 2188 
Q 256 3188 700 3819 
Q 1138 4456 1888 4456 
Q 2863 4456 3306 3500 
Q 3581 2925 3581 2175 
z
M 3019 2100 
Q 3019 3356 2500 3806 
L 2350 3919 
Q 2144 4031 1888 4031 
Q 1100 4031 888 2956 
Q 819 2625 819 2225 
Q 819 1013 1338 569 
Q 1588 356 1938 356 
Q 2675 356 2925 1294 
Q 3019 1663 3019 2100 
z
" transform="scale(0.015625)"/>
       </defs>
       <use xlink:href="#WenQuanYiZenHei-30"/>
      </g>
     </g>
    </g>
    <g id="ytick_2">
     <g id="line2d_7">
      <path d="M 42.685156 176.680185 
L 631.245156 176.680185 
" clip-path="url(#p93eee16f5f)" style="fill: none; stroke-dasharray: 2.96,1.28; stroke-dashoffset: 0; stroke: #b0b0b0; stroke-opacity: 0.35; stroke-width: 0.8"/>
     </g>
     <g id="line2d_8">
      <g>
       <use xlink:href="#mb90427e417" x="42.685156" y="176.680185" style="fill: #333333; stroke: #333333; stroke-width: 0.8"/>
      </g>
     </g>
     <g id="text_6">
      <!-- 2000 -->
      <g style="fill: #333333" transform="translate(12.897031 179.936904) scale(0.095 -0.095)">
       <defs>
        <path id="WenQuanYiZenHei-32" d="M 3488 0 
L 369 0 
L 369 456 
L 2150 1850 
Q 2931 2463 2931 3144 
Q 2931 3619 2488 3863 
Q 2231 4013 1931 4013 
Q 1425 4013 1113 3619 
Q 894 3356 881 3013 
L 369 3169 
Q 531 3981 1213 4300 
Q 1544 4456 1950 4456 
Q 2631 4456 3088 4044 
L 3225 3888 
L 3350 3706 
Q 3481 3444 3481 3144 
Q 3481 2313 2519 1569 
L 1069 456 
L 3488 456 
L 3488 0 
z
" transform="scale(0.015625)"/>
       </defs>
       <use xlink:href="#WenQuanYiZenHei-32"/>
       <use xlink:href="#WenQuanYiZenHei-30" transform="translate(59.960938 0)"/>
       <use xlink:href="#WenQuanYiZenHei-30" transform="translate(119.921875 0)"/>
       <use xlink:href="#WenQuanYiZenHei-30" transform="translate(179.882812 0)"/>
      </g>
     </g>
    </g>
    <g id="ytick_3">
     <g id="line2d_9">
      <path d="M 42.685156 135.124319 
L 631.245156 135.124319 
" clip-path="url(#p93eee16f5f)" style="fill: none; stroke-dasharray: 2.96,1.28; stroke-dashoffset: 0; stroke: #b0b0b0; stroke-opacity: 0.35; stroke-width: 0.8"/>
     </g>
     <g id="line2d_10">
      <g>
       <use xlink:href="#mb90427e417" x="42.685156" y="135.124319" style="fill: #333333; stroke: #333333; stroke-width: 0.8"/>
      </g>
     </g>
     <g id="text_7">
      <!-- 4000 -->
      <g style="fill: #333333" transform="translate(12.897031 138.381037) scale(0.095 -0.095)">
       <defs>
        <path id="WenQuanYiZenHei-34" d="M 3631 1025 
L 2913 1025 
L 2913 0 
L 2381 0 
L 2381 1025 
L 219 1025 
L 219 1388 
L 2225 4388 
L 2913 4388 
L 2913 1444 
L 3631 1444 
L 3631 1025 
z
M 2381 1444 
L 2381 3963 
L 788 1444 
L 2381 1444 
z
" transform="scale(0.015625)"/>
       </defs>
       <use xlink:href="#WenQuanYiZenHei-34"/>
       <use xlink:href="#WenQuanYiZenHei-30" transform="translate(59.960938 0)"/>
       <use xlink:href="#WenQuanYiZenHei-30" transform="translate(119.921875 0)"/>
       <use xlink:href="#WenQuanYiZenHei-30" transform="translate(179.882812 0)"/>
      </g>
     </g>
    </g>
    <g id="ytick_4">
     <g id="line2d_11">
      <path d="M 42.685156 93.568452 
L 631.245156 93.568452 
" clip-path="url(#p93eee16f5f)" style="fill: none; stroke-dasharray: 2.96,1.28; stroke-dashoffset: 0; stroke: #b0b0b0; stroke-opacity: 0.35; stroke-width: 0.8"/>
     </g>
     <g id="line2d_12">
      <g>
       <use xlink:href="#mb90427e417" x="42.685156" y="93.568452" style="fill: #333333; stroke: #333333; stroke-width: 0.8"/>
      </g>
     </g>
     <g id="text_8">
      <!-- 6000 -->
      <g style="fill: #333333" transform="translate(12.897031 96.825171) scale(0.095 -0.095)">
       <defs>
        <path id="WenQuanYiZenHei-36" d="M 3550 1431 
Q 3550 725 3006 288 
Q 2581 -63 1994 -63 
Q 1013 -63 563 825 
Q 288 1363 288 2081 
Q 288 3294 856 3938 
Q 1319 4456 2075 4456 
Q 2969 4456 3363 3756 
Q 3431 3631 3481 3481 
L 2988 3350 
Q 2750 3994 2075 4006 
Q 1056 4006 844 2669 
Q 794 2356 794 1981 
L 806 1981 
Q 1006 2506 1544 2744 
Q 1819 2869 2119 2869 
Q 2788 2869 3213 2375 
Q 3550 1975 3550 1431 
z
M 3038 1406 
Q 3038 1906 2656 2213 
Q 2381 2431 2038 2431 
Q 1525 2431 1181 2044 
Q 919 1744 919 1356 
Q 919 881 1344 581 
Q 1631 375 1981 375 
Q 2519 375 2838 781 
Q 3038 1050 3038 1406 
z
" transform="scale(0.015625)"/>
       </defs>
       <use xlink:href="#WenQuanYiZenHei-36"/>
       <use xlink:href="#WenQuanYiZenHei-30" transform="translate(59.960938 0)"/>
       <use xlink:href="#WenQuanYiZenHei-30" transform="translate(119.921875 0)"/>
       <use xlink:href="#WenQuanYiZenHei-30" transform="translate(179.882812 0)"/>
      </g>
     </g>
    </g>
    <g id="ytick_5">
     <g id="line2d_13">
      <path d="M 42.685156 52.012585 
L 631.245156 52.012585 
" clip-path="url(#p93eee16f5f)" style="fill: none; stroke-dasharray: 2.96,1.28; stroke-dashoffset: 0; stroke: #b0b0b0; stroke-opacity: 0.35; stroke-width: 0.8"/>
     </g>
     <g id="line2d_14">
      <g>
       <use xlink:href="#mb90427e417" x="42.685156" y="52.012585" style="fill: #333333; stroke: #333333; stroke-width: 0.8"/>
      </g>
     </g>
     <g id="text_9">
      <!-- 8000 -->
      <g style="fill: #333333" transform="translate(12.897031 55.269304) scale(0.095 -0.095)">
       <defs>
        <path id="WenQuanYiZenHei-38" d="M 3619 1175 
Q 3619 431 2850 100 
Q 2444 -63 1944 -63 
Q 1231 -63 725 269 
Q 225 594 225 1125 
Q 225 1881 1269 2281 
Q 719 2481 519 2938 
Q 444 3119 444 3319 
Q 444 4000 1144 4294 
Q 1519 4456 1963 4456 
Q 2669 4456 3094 4094 
Q 3425 3813 3425 3369 
Q 3425 2638 2575 2356 
Q 3231 2056 3450 1725 
Q 3619 1488 3619 1175 
z
M 2944 3344 
Q 2944 3906 2288 4019 
Q 2138 4044 1969 4044 
Q 1438 4044 1163 3775 
Q 1000 3613 1000 3375 
Q 1000 2925 1594 2663 
Q 1756 2588 1931 2550 
Q 2581 2725 2788 2956 
Q 2944 3125 2944 3344 
z
M 3075 1094 
Q 3075 1738 1875 2050 
Q 1094 1881 850 1463 
Q 763 1313 763 1131 
Q 763 569 1456 406 
Q 1681 344 1944 344 
Q 2519 344 2850 619 
Q 3075 813 3075 1094 
z
" transform="scale(0.015625)"/>
       </defs>
       <use xlink:href="#WenQuanYiZenHei-38"/>
       <use xlink:href="#WenQuanYiZenHei-30" transform="translate(59.960938 0)"/>
       <use xlink:href="#WenQuanYiZenHei-30" transform="translate(119.921875 0)"/>
       <use xlink:href="#WenQuanYiZenHei-30" transform="translate(179.882812 0)"/>
      </g>
     </g>
    </g>
    <g id="ytick_6">
     <g id="line2d_15">
      <path d="M 42.685156 10.456719 
L 631.245156 10.456719 
" clip-path="url(#p93eee16f5f)" style="fill: none; stroke-dasharray: 2.96,1.28; stroke-dashoffset: 0; stroke: #b0b0b0; stroke-opacity: 0.35; stroke-width: 0.8"/>
     </g>
     <g id="line2d_16">
      <g>
       <use xlink:href="#mb90427e417" x="42.685156" y="10.456719" style="fill: #333333; stroke: #333333; stroke-width: 0.8"/>
      </g>
     </g>
     <g id="text_10">
      <!-- 10000 -->
      <g style="fill: #333333" transform="translate(7.2 13.713437) scale(0.095 -0.095)">
       <defs>
        <path id="WenQuanYiZenHei-31" d="M 3556 0 
L 488 0 
L 488 406 
L 1800 406 
L 1800 3725 
Q 1231 3125 588 2788 
L 588 3338 
Q 1456 3781 1931 4388 
L 2331 4388 
L 2331 406 
L 3556 406 
L 3556 0 
z
" transform="scale(0.015625)"/>
       </defs>
       <use xlink:href="#WenQuanYiZenHei-31"/>
       <use xlink:href="#WenQuanYiZenHei-30" transform="translate(59.960938 0)"/>
       <use xlink:href="#WenQuanYiZenHei-30" transform="translate(119.921875 0)"/>
       <use xlink:href="#WenQuanYiZenHei-30" transform="translate(179.882812 0)"/>
       <use xlink:href="#WenQuanYiZenHei-30" transform="translate(239.84375 0)"/>
      </g>
     </g>
    </g>
   </g>
   <g id="patch_3">
    <path d="M 42.685156 218.236052 
L 42.685156 7.703643 
" style="fill: none; stroke: #000000; stroke-width: 0.8; stroke-linejoin: miter; stroke-linecap: square"/>
   </g>
   <g id="patch_4">
    <path d="M 42.685156 218.236052 
L 631.245156 218.236052 
" style="fill: none; stroke: #000000; stroke-width: 0.8; stroke-linejoin: miter; stroke-linecap: square"/>
   </g>
   <g id="patch_5">
    <path d="M 69.437884 218.236052 
L 152.333658 218.236052 
L 152.333658 208.470423 
L 69.437884 208.470423 
z
" clip-path="url(#p93eee16f5f)" style="fill: #1a56db"/>
   </g>
   <g id="patch_6">
    <path d="M 220.157474 218.236052 
L 303.053248 218.236052 
L 303.053248 216.158259 
L 220.157474 216.158259 
z
" clip-path="url(#p93eee16f5f)" style="fill: #1a56db"/>
   </g>
   <g id="patch_7">
    <path d="M 370.877064 218.236052 
L 453.772839 218.236052 
L 453.772839 17.728995 
L 370.877064 17.728995 
z
" clip-path="url(#p93eee16f5f)" style="fill: #1a56db"/>
   </g>
   <g id="patch_8">
    <path d="M 521.596654 218.236052 
L 604.492429 218.236052 
L 604.492429 204.730395 
L 521.596654 204.730395 
z
" clip-path="url(#p93eee16f5f)" style="fill: #1a56db"/>
   </g>
   <g id="text_11">
    <!-- 470 -->
    <g transform="translate(102.340224 206.882144) scale(0.095 -0.095)">
     <defs>
      <path id="WenQuanYiZenHei-37" d="M 3400 4056 
Q 1838 2175 1838 0 
L 1275 0 
Q 1269 1438 2056 2825 
Q 2381 3400 2825 3913 
L 444 3913 
L 500 4388 
L 3400 4388 
L 3400 4056 
z
" transform="scale(0.015625)"/>
     </defs>
     <use xlink:href="#WenQuanYiZenHei-34"/>
     <use xlink:href="#WenQuanYiZenHei-37" transform="translate(59.960938 0)"/>
     <use xlink:href="#WenQuanYiZenHei-30" transform="translate(119.921875 0)"/>
    </g>
   </g>
   <g id="text_12">
    <!-- 100 -->
    <g transform="translate(253.059814 214.569979) scale(0.095 -0.095)">
     <use xlink:href="#WenQuanYiZenHei-31"/>
     <use xlink:href="#WenQuanYiZenHei-30" transform="translate(59.960938 0)"/>
     <use xlink:href="#WenQuanYiZenHei-30" transform="translate(119.921875 0)"/>
    </g>
   </g>
   <g id="text_13">
    <!-- 9650 -->
    <g transform="translate(400.930889 16.140716) scale(0.095 -0.095)">
     <defs>
      <path id="WenQuanYiZenHei-39" d="M 3544 2300 
Q 3544 1163 3019 513 
Q 2563 -63 1775 -63 
Q 956 -63 563 488 
Q 463 631 394 813 
L 838 975 
Q 1025 494 1550 388 
Q 1656 369 1775 369 
Q 2594 369 2900 1325 
Q 3044 1769 3038 2313 
L 3025 2313 
Q 2675 1638 1944 1544 
Q 1844 1531 1744 1531 
Q 1050 1531 625 2031 
Q 294 2419 294 2963 
Q 294 3656 813 4094 
Q 1238 4456 1819 4456 
Q 2988 4456 3381 3363 
Q 3544 2900 3544 2300 
z
M 2925 2994 
Q 2925 3563 2469 3844 
Q 2206 4006 1863 4006 
Q 1275 4006 988 3563 
Q 844 3344 825 3056 
Q 819 3006 819 2956 
Q 819 2413 1269 2131 
Q 1538 1963 1875 1963 
Q 2363 1963 2681 2350 
Q 2925 2638 2925 2994 
z
" transform="scale(0.015625)"/>
     </defs>
     <use xlink:href="#WenQuanYiZenHei-39"/>
     <use xlink:href="#WenQuanYiZenHei-36" transform="translate(59.960938 0)"/>
     <use xlink:href="#WenQuanYiZenHei-35" transform="translate(119.921875 0)"/>
     <use xlink:href="#WenQuanYiZenHei-30" transform="translate(179.882812 0)"/>
    </g>
   </g>
   <g id="text_14">
    <!-- 650 -->
    <g transform="translate(554.498995 203.142116) scale(0.095 -0.095)">
     <use xlink:href="#WenQuanYiZenHei-36"/>
     <use xlink:href="#WenQuanYiZenHei-35" transform="translate(59.960938 0)"/>
     <use xlink:href="#WenQuanYiZenHei-30" transform="translate(119.921875 0)"/>
    </g>
   </g>
  </g>
 </g>
 <defs>
  <clipPath id="p93eee16f5f">
   <rect x="42.685156" y="7.703643" width="588.56" height="210.532409"/>
  </clipPath>
 </defs>
</svg>
