<svg viewBox="0 0 800 400" xmlns="http://www.w3.org/2000/svg" font-family="-apple-system,sans-serif">
  <rect width="800" height="400" fill="#f8f9ff"/>
  <path d="M400,80 C340,80 280,100 250,150 C220,200 230,260 260,300 C290,340 340,360 400,360" fill="#fff7ed" stroke="#f97316" stroke-width="3"/>
  <path d="M400,80 C460,80 520,100 550,150 C580,200 570,260 540,300 C510,340 460,360 400,360" fill="#eff6ff" stroke="#3b82f6" stroke-width="3"/>
  <line x1="400" y1="80" x2="400" y2="360" stroke="#e2e8f0" stroke-width="2" stroke-dasharray="6,4"/>
  <circle cx="310" cy="160" r="8" fill="#f97316" opacity="0.7"/>
  <circle cx="280" cy="200" r="8" fill="#f97316" opacity="0.7"/>
  <circle cx="320" cy="230" r="8" fill="#f97316" opacity="0.7"/>
  <circle cx="290" cy="270" r="8" fill="#f97316" opacity="0.7"/>
  <circle cx="350" cy="200" r="8" fill="#f97316" opacity="0.7"/>
  <circle cx="370" cy="260" r="8" fill="#f97316" opacity="0.7"/>
  <circle cx="340" cy="300" r="8" fill="#f97316" opacity="0.7"/>
  <g stroke="#f97316" stroke-width="1.2" opacity="0.4">
    <line x1="310" y1="160" x2="280" y2="200"/><line x1="310" y1="160" x2="350" y2="200"/>
    <line x1="280" y1="200" x2="320" y2="230"/><line x1="350" y1="200" x2="320" y2="230"/>
    <line x1="320" y1="230" x2="290" y2="270"/><line x1="350" y1="200" x2="370" y2="260"/>
    <line x1="290" y1="270" x2="340" y2="300"/><line x1="370" y1="260" x2="340" y2="300"/>
  </g>
  <rect x="420" y="140" width="65" height="35" rx="6" fill="white" stroke="#7c3aed" stroke-width="1.5"/>
  <text x="452" y="163" text-anchor="middle" font-size="13" fill="#6d28d9" font-weight="700">IF&#x2192;THEN</text>
  <rect x="470" y="200" width="65" height="35" rx="6" fill="white" stroke="#3b82f6" stroke-width="1.5"/>
  <text x="502" y="223" text-anchor="middle" font-size="13" fill="#1d4ed8" font-weight="700">&#x2200;x P(x)</text>
  <rect x="420" y="260" width="65" height="35" rx="6" fill="white" stroke="#7c3aed" stroke-width="1.5"/>
  <text x="452" y="283" text-anchor="middle" font-size="13" fill="#6d28d9" font-weight="700">A &#x2192; B</text>
  <circle cx="400" cy="220" r="10" fill="#8b5cf6" opacity="0.8"/>
  <text x="400" y="224" text-anchor="middle" font-size="9" fill="white" font-weight="bold">&#x221E;</text>
  <text x="305" y="120" text-anchor="middle" font-size="15" fill="#ea580c" font-weight="800">系统 1</text>
  <text x="305" y="140" text-anchor="middle" font-size="12" fill="#c2410c">快思考 · 直觉</text>
  <text x="305" y="156" text-anchor="middle" font-size="12" fill="#c2410c">神经网络</text>
  <text x="505" y="120" text-anchor="middle" font-size="15" fill="#1d4ed8" font-weight="800">系统 2</text>
  <text x="505" y="140" text-anchor="middle" font-size="12" fill="#1e40af">慢思考 · 逻辑</text>
  <text x="505" y="156" text-anchor="middle" font-size="12" fill="#1e40af">符号推理</text>
  <text x="400" y="390" text-anchor="middle" font-size="13" fill="#6b7280">Kahneman 双系统理论 x AI 架构</text>
</svg>