<svg viewBox="0 0 800 400" xmlns="http://www.w3.org/2000/svg" font-family="-apple-system,sans-serif">
  <rect width="800" height="400" fill="#f8f9ff"/>
  <circle cx="400" cy="200" r="60" fill="white" stroke="#1A56DB" stroke-width="3"/>
  <text x="400" y="195" text-anchor="middle" font-size="28">&#x1F9E0;</text>
  <text x="400" y="220" text-anchor="middle" font-size="10" fill="#1d4ed8" font-weight="700">神经符号AI</text>
  <circle cx="160" cy="100" r="55" fill="#fff7ed" stroke="#f97316" stroke-width="2"/>
  <text x="160" y="92" text-anchor="middle" font-size="26">&#x1F9BE;</text>
  <text x="160" y="116" text-anchor="middle" font-size="11" fill="#c2410c" font-weight="700">机器人</text>
  <text x="160" y="131" text-anchor="middle" font-size="10" fill="#9a3412">操作控制</text>
  <circle cx="640" cy="100" r="55" fill="#f0fdf4" stroke="#16a34a" stroke-width="2"/>
  <text x="640" y="92" text-anchor="middle" font-size="26">&#x1F3E5;</text>
  <text x="640" y="116" text-anchor="middle" font-size="11" fill="#15803d" font-weight="700">医疗诊断</text>
  <text x="640" y="131" text-anchor="middle" font-size="10" fill="#166534">可解释AI</text>
  <circle cx="160" cy="310" r="55" fill="#eff6ff" stroke="#3b82f6" stroke-width="2"/>
  <text x="160" y="302" text-anchor="middle" font-size="26">&#x1F52C;</text>
  <text x="160" y="326" text-anchor="middle" font-size="11" fill="#1d4ed8" font-weight="700">科学发现</text>
  <text x="160" y="341" text-anchor="middle" font-size="10" fill="#1e40af">物理信息ML</text>
  <circle cx="640" cy="310" r="55" fill="#fdf4ff" stroke="#a855f7" stroke-width="2"/>
  <text x="640" y="302" text-anchor="middle" font-size="26">&#x1F916;</text>
  <text x="640" y="326" text-anchor="middle" font-size="11" fill="#7e22ce" font-weight="700">AI Agent</text>
  <text x="640" y="341" text-anchor="middle" font-size="10" fill="#6b21a8">逻辑一致性</text>
  <line x1="212" y1="128" x2="348" y2="168" stroke="#f97316" stroke-width="1.5" opacity="0.5" stroke-dasharray="5,3"/>
  <line x1="588" y1="128" x2="452" y2="168" stroke="#16a34a" stroke-width="1.5" opacity="0.5" stroke-dasharray="5,3"/>
  <line x1="212" y1="282" x2="348" y2="232" stroke="#3b82f6" stroke-width="1.5" opacity="0.5" stroke-dasharray="5,3"/>
  <line x1="588" y1="282" x2="452" y2="232" stroke="#a855f7" stroke-width="1.5" opacity="0.5" stroke-dasharray="5,3"/>
  <text x="400" y="390" text-anchor="middle" font-size="13" fill="#6b7280">神经符号AI 的应用场景</text>
</svg>