<svg viewBox="0 0 800 400" xmlns="http://www.w3.org/2000/svg" font-family="-apple-system,sans-serif">
  <defs>
    <linearGradient id="bg1" x1="0" y1="0" x2="1" y2="1">
      <stop offset="0%" stop-color="#0f0c29"/>
      <stop offset="60%" stop-color="#1A56DB"/>
      <stop offset="100%" stop-color="#302b63"/>
    </linearGradient>
    <filter id="glow">
      <feGaussianBlur stdDeviation="3" result="blur"/>
      <feMerge><feMergeNode in="blur"/><feMergeNode in="SourceGraphic"/></feMerge>
    </filter>
  </defs>
  <rect width="800" height="400" fill="url(#bg1)"/>
  <rect x="60" y="200" width="80" height="160" rx="4" fill="#1e3a8a" stroke="#3b82f6" stroke-width="1.5"/>
  <rect x="160" y="160" width="100" height="200" rx="4" fill="#1e3a8a" stroke="#3b82f6" stroke-width="1.5"/>
  <rect x="280" y="180" width="90" height="180" rx="4" fill="#1e3a8a" stroke="#3b82f6" stroke-width="1.5"/>
  <rect x="390" y="140" width="120" height="220" rx="4" fill="#1e3a8a" stroke="#60a5fa" stroke-width="2"/>
  <rect x="530" y="170" width="85" height="190" rx="4" fill="#1e3a8a" stroke="#3b82f6" stroke-width="1.5"/>
  <rect x="635" y="190" width="90" height="170" rx="4" fill="#1e3a8a" stroke="#3b82f6" stroke-width="1.5"/>
  <g fill="#60a5fa" opacity="0.5">
    <rect x="75" y="215" width="50" height="5" rx="1"/><rect x="75" y="225" width="50" height="5" rx="1"/>
    <rect x="175" y="175" width="70" height="5" rx="1"/><rect x="175" y="185" width="70" height="5" rx="1"/>
    <rect x="405" y="155" width="90" height="5" rx="1"/><rect x="405" y="165" width="90" height="5" rx="1"/>
  </g>
  <line x1="100" y1="200" x2="100" y2="100" stroke="#f59e0b" stroke-width="2" opacity="0.6" stroke-dasharray="8,4" filter="url(#glow)"/>
  <line x1="210" y1="160" x2="210" y2="60" stroke="#f59e0b" stroke-width="2.5" opacity="0.7" stroke-dasharray="8,4" filter="url(#glow)"/>
  <line x1="450" y1="140" x2="450" y2="40" stroke="#f59e0b" stroke-width="3" opacity="0.9" stroke-dasharray="8,4" filter="url(#glow)"/>
  <line x1="572" y1="170" x2="572" y2="70" stroke="#f59e0b" stroke-width="2" opacity="0.6" stroke-dasharray="8,4" filter="url(#glow)"/>
  <line x1="680" y1="190" x2="680" y2="90" stroke="#f59e0b" stroke-width="2" opacity="0.6" stroke-dasharray="8,4" filter="url(#glow)"/>
  <circle cx="720" cy="60" r="30" fill="none" stroke="#f59e0b" stroke-width="2" opacity="0.8"/>
  <circle cx="720" cy="60" r="15" fill="#f59e0b" opacity="0.6"/>
  <rect x="310" y="10" width="120" height="36" rx="8" fill="#F05252" opacity="0.9"/>
  <text x="370" y="34" text-anchor="middle" font-size="16" font-weight="bold" fill="white">1100 TWh</text>
  <rect x="0" y="355" width="800" height="45" fill="#0f172a" opacity="0.6"/>
  <path d="M0,370 H120 V380 H200 V370 H320 V380 H450 V370 H600 V380 H800" fill="none" stroke="#3b82f6" stroke-width="1" opacity="0.3"/>
</svg>