<?xml version="1.0" encoding="utf-8" standalone="no"?>
<!DOCTYPE svg PUBLIC "-//W3C//DTD SVG 1.1//EN"
  "http://www.w3.org/Graphics/SVG/1.1/DTD/svg11.dtd">
<svg xmlns:xlink="http://www.w3.org/1999/xlink" width="640.740638pt" height="242.4pt" viewBox="0 0 640.740638 242.4" xmlns="http://www.w3.org/2000/svg" version="1.1">
 <metadata>
  <rdf:RDF xmlns:dc="http://purl.org/dc/elements/1.1/" xmlns:cc="http://creativecommons.org/ns#" xmlns:rdf="http://www.w3.org/1999/02/22-rdf-syntax-ns#">
   <cc:Work>
    <dc:type rdf:resource="http://purl.org/dc/dcmitype/StillImage"/>
    <dc:date>2026-06-18T23:46:24.876748</dc:date>
    <dc:format>image/svg+xml</dc:format>
    <dc:creator>
     <cc:Agent>
      <dc:title>Matplotlib v3.11.0, https://matplotlib.org/</dc:title>
     </cc:Agent>
    </dc:creator>
   </cc:Work>
  </rdf:RDF>
 </metadata>
 <defs>
  <style type="text/css">*{stroke-linejoin: round; stroke-linecap: butt}</style>
 </defs>
 <g id="figure_1">
  <g id="patch_1">
   <path d="M 0 242.4 
L 640.740638 242.4 
L 640.740638 0 
L 0 0 
z
" style="fill: #ffffff"/>
  </g>
  <g id="axes_1">
   <g id="patch_2">
    <path d="M 143.028906 218.7 
L 632.593232 218.7 
L 632.593232 7.2 
L 143.028906 7.2 
z
" style="fill: #fafafa"/>
   </g>
   <g id="matplotlib.axis_1">
    <g id="xtick_1">
     <g id="line2d_1">
      <path d="M 143.028906 218.7 
L 143.028906 7.2 
" clip-path="url(#p0dfceb2697)" style="fill: none; stroke-dasharray: 2.96,1.28; stroke-dashoffset: 0; stroke: #b0b0b0; stroke-opacity: 0.35; stroke-width: 0.8"/>
     </g>
     <g id="line2d_2">
      <defs>
       <path id="m64a3282949" d="M 0 0 
L 0 3.5 
" style="stroke: #333333; stroke-width: 0.8"/>
      </defs>
      <g>
       <use xlink:href="#m64a3282949" x="143.028906" y="218.7" style="fill: #333333; stroke: #333333; stroke-width: 0.8"/>
      </g>
     </g>
     <g id="text_1">
      <!-- 0 -->
      <g style="fill: #333333" transform="translate(140.392656 234.06) scale(0.095 -0.095)">
       <defs>
        <path id="NotoSansCJKjp-Regular-11" d="M 1779 -83 
C 2669 -83 3238 723 3238 2362 
C 3238 3987 2669 4774 1779 4774 
C 883 4774 320 3987 320 2362 
C 320 723 883 -83 1779 -83 
z
M 1779 390 
C 1248 390 883 986 883 2362 
C 883 3731 1248 4314 1779 4314 
C 2310 4314 2675 3731 2675 2362 
C 2675 986 2310 390 1779 390 
z
" transform="scale(0.015625)"/>
       </defs>
       <use xlink:href="#NotoSansCJKjp-Regular-11"/>
      </g>
     </g>
    </g>
    <g id="xtick_2">
     <g id="line2d_3">
      <path d="M 230.178764 218.7 
L 230.178764 7.2 
" clip-path="url(#p0dfceb2697)" style="fill: none; stroke-dasharray: 2.96,1.28; stroke-dashoffset: 0; stroke: #b0b0b0; stroke-opacity: 0.35; stroke-width: 0.8"/>
     </g>
     <g id="line2d_4">
      <g>
       <use xlink:href="#m64a3282949" x="230.178764" y="218.7" style="fill: #333333; stroke: #333333; stroke-width: 0.8"/>
      </g>
     </g>
     <g id="text_2">
      <!-- 2 -->
      <g style="fill: #333333" transform="translate(227.542514 234.06) scale(0.095 -0.095)">
       <defs>
        <path id="NotoSansCJKjp-Regular-13" d="M 282 0 
L 3232 0 
L 3232 506 
L 1933 506 
C 1696 506 1408 480 1165 461 
C 2266 1504 3008 2458 3008 3398 
C 3008 4230 2477 4774 1638 4774 
C 1043 4774 634 4506 256 4090 
L 595 3757 
C 858 4070 1184 4301 1568 4301 
C 2150 4301 2432 3910 2432 3373 
C 2432 2566 1754 1632 282 346 
L 282 0 
z
" transform="scale(0.015625)"/>
       </defs>
       <use xlink:href="#NotoSansCJKjp-Regular-13"/>
      </g>
     </g>
    </g>
    <g id="xtick_3">
     <g id="line2d_5">
      <path d="M 317.328622 218.7 
L 317.328622 7.2 
" clip-path="url(#p0dfceb2697)" style="fill: none; stroke-dasharray: 2.96,1.28; stroke-dashoffset: 0; stroke: #b0b0b0; stroke-opacity: 0.35; stroke-width: 0.8"/>
     </g>
     <g id="line2d_6">
      <g>
       <use xlink:href="#m64a3282949" x="317.328622" y="218.7" style="fill: #333333; stroke: #333333; stroke-width: 0.8"/>
      </g>
     </g>
     <g id="text_3">
      <!-- 4 -->
      <g style="fill: #333333" transform="translate(314.692372 234.06) scale(0.095 -0.095)">
       <defs>
        <path id="NotoSansCJKjp-Regular-15" d="M 2176 0 
L 2726 0 
L 2726 1293 
L 3354 1293 
L 3354 1760 
L 2726 1760 
L 2726 4691 
L 2080 4691 
L 128 1677 
L 128 1293 
L 2176 1293 
L 2176 0 
z
M 2176 1760 
L 736 1760 
L 1805 3360 
C 1939 3590 2067 3827 2182 4051 
L 2208 4051 
C 2195 3814 2176 3430 2176 3200 
L 2176 1760 
z
" transform="scale(0.015625)"/>
       </defs>
       <use xlink:href="#NotoSansCJKjp-Regular-15"/>
      </g>
     </g>
    </g>
    <g id="xtick_4">
     <g id="line2d_7">
      <path d="M 404.478479 218.7 
L 404.478479 7.2 
" clip-path="url(#p0dfceb2697)" style="fill: none; stroke-dasharray: 2.96,1.28; stroke-dashoffset: 0; stroke: #b0b0b0; stroke-opacity: 0.35; stroke-width: 0.8"/>
     </g>
     <g id="line2d_8">
      <g>
       <use xlink:href="#m64a3282949" x="404.478479" y="218.7" style="fill: #333333; stroke: #333333; stroke-width: 0.8"/>
      </g>
     </g>
     <g id="text_4">
      <!-- 6 -->
      <g style="fill: #333333" transform="translate(401.842229 234.06) scale(0.095 -0.095)">
       <defs>
        <path id="NotoSansCJKjp-Regular-17" d="M 1926 -83 
C 2656 -83 3277 531 3277 1440 
C 3277 2426 2765 2912 1971 2912 
C 1606 2912 1197 2701 909 2349 
C 934 3802 1466 4294 2118 4294 
C 2400 4294 2682 4154 2861 3936 
L 3194 4294 
C 2931 4576 2579 4774 2093 4774 
C 1184 4774 358 4077 358 2240 
C 358 691 1030 -83 1926 -83 
z
M 922 1882 
C 1229 2317 1587 2477 1875 2477 
C 2445 2477 2720 2074 2720 1440 
C 2720 800 2374 378 1926 378 
C 1338 378 986 909 922 1882 
z
" transform="scale(0.015625)"/>
       </defs>
       <use xlink:href="#NotoSansCJKjp-Regular-17"/>
      </g>
     </g>
    </g>
    <g id="xtick_5">
     <g id="line2d_9">
      <path d="M 491.628337 218.7 
L 491.628337 7.2 
" clip-path="url(#p0dfceb2697)" style="fill: none; stroke-dasharray: 2.96,1.28; stroke-dashoffset: 0; stroke: #b0b0b0; stroke-opacity: 0.35; stroke-width: 0.8"/>
     </g>
     <g id="line2d_10">
      <g>
       <use xlink:href="#m64a3282949" x="491.628337" y="218.7" style="fill: #333333; stroke: #333333; stroke-width: 0.8"/>
      </g>
     </g>
     <g id="text_5">
      <!-- 8 -->
      <g style="fill: #333333" transform="translate(488.992087 234.06) scale(0.095 -0.095)">
       <defs>
        <path id="NotoSansCJKjp-Regular-19" d="M 1792 -83 
C 2669 -83 3258 448 3258 1126 
C 3258 1773 2880 2125 2470 2362 
L 2470 2394 
C 2746 2611 3091 3034 3091 3526 
C 3091 4250 2605 4762 1805 4762 
C 1075 4762 518 4282 518 3571 
C 518 3078 813 2726 1152 2490 
L 1152 2464 
C 723 2234 294 1792 294 1165 
C 294 442 922 -83 1792 -83 
z
M 2112 2547 
C 1555 2765 1050 3014 1050 3571 
C 1050 4026 1363 4326 1798 4326 
C 2298 4326 2592 3962 2592 3494 
C 2592 3149 2426 2829 2112 2547 
z
M 1798 352 
C 1235 352 813 717 813 1216 
C 813 1664 1082 2035 1459 2278 
C 2125 2010 2701 1779 2701 1146 
C 2701 678 2342 352 1798 352 
z
" transform="scale(0.015625)"/>
       </defs>
       <use xlink:href="#NotoSansCJKjp-Regular-19"/>
      </g>
     </g>
    </g>
    <g id="xtick_6">
     <g id="line2d_11">
      <path d="M 578.778195 218.7 
L 578.778195 7.2 
" clip-path="url(#p0dfceb2697)" style="fill: none; stroke-dasharray: 2.96,1.28; stroke-dashoffset: 0; stroke: #b0b0b0; stroke-opacity: 0.35; stroke-width: 0.8"/>
     </g>
     <g id="line2d_12">
      <g>
       <use xlink:href="#m64a3282949" x="578.778195" y="218.7" style="fill: #333333; stroke: #333333; stroke-width: 0.8"/>
      </g>
     </g>
     <g id="text_6">
      <!-- 10 -->
      <g style="fill: #333333" transform="translate(573.505695 234.06) scale(0.095 -0.095)">
       <defs>
        <path id="NotoSansCJKjp-Regular-12" d="M 563 0 
L 3136 0 
L 3136 486 
L 2195 486 
L 2195 4691 
L 1747 4691 
C 1491 4544 1190 4435 774 4358 
L 774 3987 
L 1613 3987 
L 1613 486 
L 563 486 
L 563 0 
z
" transform="scale(0.015625)"/>
       </defs>
       <use xlink:href="#NotoSansCJKjp-Regular-12"/>
       <use xlink:href="#NotoSansCJKjp-Regular-11" transform="translate(55.5 0)"/>
      </g>
     </g>
    </g>
   </g>
   <g id="matplotlib.axis_2">
    <g id="ytick_1">
     <g id="line2d_13">
      <defs>
       <path id="m4e88f712ca" d="M 0 0 
L -3.5 0 
" style="stroke: #333333; stroke-width: 0.8"/>
      </defs>
      <g>
       <use xlink:href="#m4e88f712ca" x="143.028906" y="174.97346" style="fill: #333333; stroke: #333333; stroke-width: 0.8"/>
      </g>
     </g>
     <g id="text_7">
      <!-- 个体·故事「可用性」最高提升 -->
      <g style="fill: #333333" transform="translate(7.2 179.15346) scale(0.095 -0.095)">
       <defs>
        <path id="NotoSansCJKjp-Regular-2543" d="M 3174 4858 
C 3770 4026 4941 3014 5990 2406 
C 6080 2554 6189 2720 6317 2842 
C 5261 3373 4090 4365 3398 5357 
L 2893 5357 
C 2387 4493 1274 3411 115 2758 
C 224 2656 358 2483 422 2368 
C 1562 3040 2650 4051 3174 4858 
z
M 2925 3264 
L 2925 -512 
L 3430 -512 
L 3430 3264 
L 2925 3264 
z
" transform="scale(0.015625)"/>
        <path id="NotoSansCJKjp-Regular-26ee" d="M 1606 5350 
C 1286 4384 762 3424 192 2797 
C 288 2688 429 2432 474 2323 
C 666 2541 851 2790 1024 3066 
L 1024 -499 
L 1485 -499 
L 1485 3872 
C 1702 4307 1894 4768 2054 5222 
L 1606 5350 
z
M 2662 1120 
L 2662 678 
L 3718 678 
L 3718 -474 
L 4186 -474 
L 4186 678 
L 5216 678 
L 5216 1120 
L 4186 1120 
L 4186 3334 
C 4582 2221 5197 1146 5862 538 
C 5952 666 6112 832 6227 915 
C 5536 1472 4870 2547 4493 3622 
L 6106 3622 
L 6106 4083 
L 4186 4083 
L 4186 5357 
L 3718 5357 
L 3718 4083 
L 1907 4083 
L 1907 3622 
L 3430 3622 
C 3034 2534 2362 1446 1658 883 
C 1766 800 1926 634 2003 518 
C 2682 1133 3309 2189 3718 3315 
L 3718 1120 
L 2662 1120 
z
" transform="scale(0.015625)"/>
        <path id="NotoSansCJKjp-Regular-75" d="M 1766 1875 
C 1997 1875 2195 2067 2195 2323 
C 2195 2592 1997 2778 1766 2778 
C 1536 2778 1350 2592 1350 2323 
C 1350 2067 1536 1875 1766 1875 
z
" transform="scale(0.015625)"/>
        <path id="NotoSansCJKjp-Regular-4dda" d="M 3834 3738 
L 5184 3738 
C 5050 2880 4838 2170 4506 1587 
C 4192 2202 3968 2925 3821 3706 
L 3834 3738 
z
M 544 2502 
L 544 -230 
L 992 -230 
L 992 211 
L 2829 211 
L 2829 2490 
C 2925 2419 3027 2336 3078 2291 
C 3238 2502 3392 2746 3526 3014 
C 3693 2317 3917 1683 4211 1139 
C 3802 608 3258 205 2522 -90 
C 2605 -192 2752 -403 2797 -518 
C 3501 -198 4051 198 4474 717 
C 4838 192 5293 -230 5856 -512 
C 5933 -384 6080 -198 6195 -109 
C 5606 154 5139 582 4774 1126 
C 5216 1818 5491 2669 5670 3738 
L 6150 3738 
L 6150 4192 
L 3987 4192 
C 4096 4544 4192 4915 4269 5299 
L 3789 5376 
C 3584 4288 3219 3251 2669 2598 
L 2810 2502 
L 1926 2502 
L 1926 3680 
L 3078 3680 
L 3078 4128 
L 1926 4128 
L 1926 5376 
L 1446 5376 
L 1446 4128 
L 269 4128 
L 269 3680 
L 1446 3680 
L 1446 2502 
L 544 2502 
z
M 992 2054 
L 2368 2054 
L 2368 659 
L 992 659 
L 992 2054 
z
" transform="scale(0.015625)"/>
        <path id="NotoSansCJKjp-Regular-25c4" d="M 858 838 
L 858 461 
L 2938 461 
L 2938 26 
C 2938 -90 2899 -122 2778 -128 
C 2669 -134 2278 -141 1894 -128 
C 1958 -237 2042 -416 2067 -531 
C 2605 -531 2938 -525 3136 -454 
C 3334 -384 3424 -269 3424 26 
L 3424 461 
L 4960 461 
L 4960 179 
L 5446 179 
L 5446 1318 
L 6112 1318 
L 6112 1702 
L 5446 1702 
L 5446 2502 
L 3424 2502 
L 3424 2957 
L 5344 2957 
L 5344 4090 
L 3424 4090 
L 3424 4467 
L 5984 4467 
L 5984 4864 
L 3424 4864 
L 3424 5376 
L 2938 5376 
L 2938 4864 
L 429 4864 
L 429 4467 
L 2938 4467 
L 2938 4090 
L 1101 4090 
L 1101 2957 
L 2938 2957 
L 2938 2502 
L 915 2502 
L 915 2150 
L 2938 2150 
L 2938 1702 
L 307 1702 
L 307 1318 
L 2938 1318 
L 2938 838 
L 858 838 
z
M 1562 3750 
L 2938 3750 
L 2938 3296 
L 1562 3296 
L 1562 3750 
z
M 3424 3750 
L 4858 3750 
L 4858 3296 
L 3424 3296 
L 3424 3750 
z
M 3424 2150 
L 4960 2150 
L 4960 1702 
L 3424 1702 
L 3424 2150 
z
M 3424 1318 
L 4960 1318 
L 4960 838 
L 3424 838 
L 3424 1318 
z
" transform="scale(0.015625)"/>
        <path id="NotoSansCJKjp-Regular-580" d="M 4160 5414 
L 4160 1274 
L 4634 1274 
L 4634 4973 
L 6182 4973 
L 6182 5414 
L 4160 5414 
z
" transform="scale(0.015625)"/>
        <path id="NotoSansCJKjp-Regular-2e8e" d="M 358 4922 
L 358 4442 
L 4781 4442 
L 4781 186 
C 4781 51 4736 13 4595 0 
C 4442 0 3917 -6 3405 19 
C 3482 -122 3571 -358 3603 -499 
C 4237 -499 4685 -499 4941 -416 
C 5190 -333 5280 -166 5280 179 
L 5280 4442 
L 6067 4442 
L 6067 4922 
L 358 4922 
z
M 1478 3040 
L 3162 3040 
L 3162 1568 
L 1478 1568 
L 1478 3040 
z
M 1011 3501 
L 1011 595 
L 1478 595 
L 1478 1107 
L 3635 1107 
L 3635 3501 
L 1011 3501 
z
" transform="scale(0.015625)"/>
        <path id="NotoSansCJKjp-Regular-69ab" d="M 979 4928 
L 979 2605 
C 979 1702 915 570 205 -230 
C 314 -288 506 -448 576 -544 
C 1069 0 1286 736 1382 1453 
L 2989 1453 
L 2989 -454 
L 3475 -454 
L 3475 1453 
L 5203 1453 
L 5203 141 
C 5203 26 5158 -13 5030 -19 
C 4909 -26 4474 -32 4026 -13 
C 4090 -141 4166 -352 4192 -474 
C 4794 -480 5165 -474 5382 -397 
C 5600 -320 5677 -173 5677 141 
L 5677 4928 
L 979 4928 
z
M 1453 4467 
L 2989 4467 
L 2989 3437 
L 1453 3437 
L 1453 4467 
z
M 5203 4467 
L 5203 3437 
L 3475 3437 
L 3475 4467 
L 5203 4467 
z
M 1453 2982 
L 2989 2982 
L 2989 1907 
L 1427 1907 
C 1446 2150 1453 2387 1453 2605 
L 1453 2982 
z
M 5203 2982 
L 5203 1907 
L 3475 1907 
L 3475 2982 
L 5203 2982 
z
" transform="scale(0.015625)"/>
        <path id="NotoSansCJKjp-Regular-44ea" d="M 1101 5376 
L 1101 -506 
L 1581 -506 
L 1581 5376 
L 1101 5376 
z
M 512 4160 
C 467 3642 352 2938 179 2509 
L 557 2381 
C 723 2848 838 3584 877 4109 
L 512 4160 
z
M 1626 4198 
C 1811 3846 2003 3379 2067 3091 
L 2426 3277 
C 2355 3546 2157 4000 1965 4346 
L 1626 4198 
z
M 2138 173 
L 2138 -282 
L 6074 -282 
L 6074 173 
L 4461 173 
L 4461 1779 
L 5779 1779 
L 5779 2227 
L 4461 2227 
L 4461 3558 
L 5920 3558 
L 5920 4019 
L 4461 4019 
L 4461 5350 
L 3974 5350 
L 3974 4019 
L 3181 4019 
C 3264 4333 3341 4672 3405 5005 
L 2938 5082 
C 2790 4211 2534 3341 2163 2784 
C 2278 2733 2496 2624 2592 2560 
C 2758 2835 2906 3174 3034 3558 
L 3974 3558 
L 3974 2227 
L 2618 2227 
L 2618 1779 
L 3974 1779 
L 3974 173 
L 2138 173 
z
" transform="scale(0.015625)"/>
        <path id="NotoSansCJKjp-Regular-581" d="M 2240 -550 
L 2240 3590 
L 1766 3590 
L 1766 -109 
L 218 -109 
L 218 -550 
L 2240 -550 
z
" transform="scale(0.015625)"/>
        <path id="NotoSansCJKjp-Regular-50c3" d="M 1600 4064 
L 4813 4064 
L 4813 3610 
L 1600 3610 
L 1600 4064 
z
M 1600 4832 
L 4813 4832 
L 4813 4384 
L 1600 4384 
L 1600 4832 
z
M 1139 5171 
L 1139 3270 
L 5293 3270 
L 5293 5171 
L 1139 5171 
z
M 2534 2509 
L 2534 2074 
L 1370 2074 
L 1370 2509 
L 2534 2509 
z
M 314 282 
L 358 -147 
L 2534 115 
L 2534 -512 
L 2995 -512 
L 2995 -109 
C 3091 -198 3200 -365 3251 -474 
C 3699 -320 4141 -96 4531 205 
C 4909 -115 5363 -358 5875 -506 
C 5939 -397 6061 -218 6163 -134 
C 5664 -6 5229 205 4858 486 
C 5280 883 5613 1389 5811 2010 
L 5517 2131 
L 5434 2112 
L 3219 2112 
L 3219 1722 
L 3776 1722 
L 3501 1638 
C 3674 1216 3910 832 4205 512 
C 3840 237 3418 32 2995 -90 
L 2995 2509 
L 6016 2509 
L 6016 2912 
L 371 2912 
L 371 2509 
L 928 2509 
L 928 339 
L 314 282 
z
M 3898 1722 
L 5222 1722 
C 5056 1363 4813 1050 4531 781 
C 4262 1050 4045 1370 3898 1722 
z
M 2534 1709 
L 2534 1261 
L 1370 1261 
L 1370 1709 
L 2534 1709 
z
M 2534 902 
L 2534 518 
L 1370 384 
L 1370 902 
L 2534 902 
z
" transform="scale(0.015625)"/>
        <path id="NotoSansCJKjp-Regular-b0d5" d="M 1939 3635 
L 4448 3635 
L 4448 3021 
L 1939 3021 
L 1939 3635 
z
M 1478 3987 
L 1478 2662 
L 4928 2662 
L 4928 3987 
L 1478 3987 
z
M 2918 5382 
L 2918 4768 
L 416 4768 
L 416 4346 
L 5978 4346 
L 5978 4768 
L 3411 4768 
L 3411 5382 
L 2918 5382 
z
M 704 2266 
L 704 -512 
L 1171 -512 
L 1171 1856 
L 5261 1856 
L 5261 70 
C 5261 -19 5235 -45 5120 -51 
C 5018 -58 4653 -58 4237 -45 
C 4301 -179 4371 -365 4390 -499 
C 4922 -499 5267 -499 5478 -422 
C 5683 -346 5741 -205 5741 64 
L 5741 2266 
L 704 2266 
z
M 2406 1088 
L 3994 1088 
L 3994 435 
L 2406 435 
L 2406 1088 
z
M 1984 1440 
L 1984 -243 
L 2406 -243 
L 2406 83 
L 4422 83 
L 4422 1440 
L 1984 1440 
z
" transform="scale(0.015625)"/>
        <path id="NotoSansCJKjp-Regular-4b20" d="M 3059 3949 
L 5197 3949 
L 5197 3443 
L 3059 3443 
L 3059 3949 
z
M 3059 4800 
L 5197 4800 
L 5197 4294 
L 3059 4294 
L 3059 4800 
z
M 2618 5165 
L 2618 3072 
L 5658 3072 
L 5658 5165 
L 2618 5165 
z
M 2746 1901 
C 2643 954 2355 230 1786 -224 
C 1888 -288 2074 -435 2144 -512 
C 2483 -211 2739 179 2918 666 
C 3334 -237 4013 -416 4947 -416 
L 6067 -416 
C 6086 -288 6150 -90 6214 19 
C 5990 13 5126 13 4966 13 
C 4749 13 4544 19 4352 51 
L 4352 1056 
L 5696 1056 
L 5696 1453 
L 4352 1453 
L 4352 2208 
L 6010 2208 
L 6010 2611 
L 2330 2611 
L 2330 2208 
L 3898 2208 
L 3898 173 
C 3533 333 3251 621 3066 1158 
C 3117 1376 3155 1606 3187 1850 
L 2746 1901 
z
M 1050 5370 
L 1050 4083 
L 256 4083 
L 256 3635 
L 1050 3635 
L 1050 2227 
C 723 2125 422 2042 186 1978 
L 307 1504 
L 1050 1747 
L 1050 90 
C 1050 0 1018 -26 941 -26 
C 864 -32 614 -32 339 -26 
C 397 -154 461 -352 474 -467 
C 877 -474 1126 -454 1280 -378 
C 1440 -307 1498 -173 1498 90 
L 1498 1894 
L 2208 2131 
L 2144 2566 
L 1498 2368 
L 1498 3635 
L 2208 3635 
L 2208 4083 
L 1498 4083 
L 1498 5370 
L 1050 5370 
z
" transform="scale(0.015625)"/>
        <path id="NotoSansCJKjp-Regular-2d8d" d="M 3174 5280 
C 2534 4896 1395 4538 384 4301 
C 448 4198 525 4026 550 3910 
C 947 4000 1363 4102 1773 4224 
L 1773 2797 
L 320 2797 
L 320 2330 
L 1766 2330 
C 1715 1408 1453 506 256 -160 
C 371 -243 538 -410 608 -525 
C 1914 224 2202 1267 2253 2330 
L 4211 2330 
L 4211 -512 
L 4698 -512 
L 4698 2330 
L 6086 2330 
L 6086 2797 
L 4698 2797 
L 4698 5254 
L 4211 5254 
L 4211 2797 
L 2259 2797 
L 2259 4371 
C 2733 4525 3174 4698 3533 4890 
L 3174 5280 
z
" transform="scale(0.015625)"/>
       </defs>
       <use xlink:href="#NotoSansCJKjp-Regular-2543"/>
       <use xlink:href="#NotoSansCJKjp-Regular-26ee" transform="translate(100 0)"/>
       <use xlink:href="#NotoSansCJKjp-Regular-75" transform="translate(200 0)"/>
       <use xlink:href="#NotoSansCJKjp-Regular-4dda" transform="translate(256.09375 0)"/>
       <use xlink:href="#NotoSansCJKjp-Regular-25c4" transform="translate(356.09375 0)"/>
       <use xlink:href="#NotoSansCJKjp-Regular-580" transform="translate(456.09375 0)"/>
       <use xlink:href="#NotoSansCJKjp-Regular-2e8e" transform="translate(556.09375 0)"/>
       <use xlink:href="#NotoSansCJKjp-Regular-69ab" transform="translate(656.09375 0)"/>
       <use xlink:href="#NotoSansCJKjp-Regular-44ea" transform="translate(756.09375 0)"/>
       <use xlink:href="#NotoSansCJKjp-Regular-581" transform="translate(856.09375 0)"/>
       <use xlink:href="#NotoSansCJKjp-Regular-50c3" transform="translate(956.09375 0)"/>
       <use xlink:href="#NotoSansCJKjp-Regular-b0d5" transform="translate(1056.09375 0)"/>
       <use xlink:href="#NotoSansCJKjp-Regular-4b20" transform="translate(1156.09375 0)"/>
       <use xlink:href="#NotoSansCJKjp-Regular-2d8d" transform="translate(1256.09375 0)"/>
      </g>
     </g>
    </g>
    <g id="ytick_2">
     <g id="line2d_14">
      <g>
       <use xlink:href="#m4e88f712ca" x="143.028906" y="50.92654" style="fill: #333333; stroke: #333333; stroke-width: 0.8"/>
      </g>
     </g>
     <g id="text_8">
      <!-- 群体·故事两两相似度上升 -->
      <g style="fill: #333333" transform="translate(26.2 55.10654) scale(0.095 -0.095)">
       <defs>
        <path id="NotoSansCJKjp-Regular-7d2e" d="M 3475 5197 
C 3674 4870 3853 4429 3910 4134 
L 4326 4288 
C 4262 4582 4077 5011 3859 5331 
L 3475 5197 
z
M 5446 5382 
C 5344 5050 5139 4570 4979 4269 
L 5376 4160 
C 5542 4448 5734 4883 5907 5267 
L 5446 5382 
z
M 3245 1446 
L 3245 992 
L 4454 992 
L 4454 -518 
L 4915 -518 
L 4915 992 
L 6170 992 
L 6170 1446 
L 4915 1446 
L 4915 2374 
L 5914 2374 
L 5914 2822 
L 4915 2822 
L 4915 3686 
L 6029 3686 
L 6029 4128 
L 3392 4128 
L 3392 3686 
L 4454 3686 
L 4454 2822 
L 3482 2822 
L 3482 2374 
L 4454 2374 
L 4454 1446 
L 3245 1446 
z
M 2496 3584 
L 2496 2944 
L 1613 2944 
C 1658 3149 1696 3360 1728 3584 
L 2496 3584 
z
M 608 5056 
L 608 4640 
L 1382 4640 
L 1325 4000 
L 282 4000 
L 282 3584 
L 1274 3584 
C 1242 3360 1203 3149 1152 2944 
L 576 2944 
L 576 2528 
L 1043 2528 
C 858 1907 582 1395 179 1005 
C 282 922 442 730 499 634 
C 666 806 819 992 947 1197 
L 947 -512 
L 1389 -512 
L 1389 -166 
L 3034 -166 
L 3034 1869 
L 1293 1869 
C 1376 2074 1446 2298 1510 2528 
L 2944 2528 
L 2944 3584 
L 3328 3584 
L 3328 4000 
L 2944 4000 
L 2944 5056 
L 608 5056 
z
M 2496 4000 
L 1779 4000 
L 1843 4640 
L 2496 4640 
L 2496 4000 
z
M 1389 1446 
L 2566 1446 
L 2566 256 
L 1389 256 
L 1389 1446 
z
" transform="scale(0.015625)"/>
        <path id="NotoSansCJKjp-Regular-253c" d="M 646 3578 
L 646 -518 
L 1126 -518 
L 1126 3130 
L 2125 3130 
C 2093 2374 1933 1427 1203 730 
C 1312 653 1466 499 1542 397 
C 2003 858 2266 1395 2413 1933 
C 2611 1664 2810 1376 2912 1171 
L 3200 1555 
C 3072 1798 2790 2163 2528 2477 
C 2560 2701 2579 2925 2592 3130 
L 3763 3130 
C 3731 2374 3571 1427 2835 730 
C 2950 653 3104 499 3181 397 
C 3648 864 3910 1414 4058 1958 
C 4397 1536 4742 1056 4922 736 
L 5210 1107 
C 5005 1472 4570 2035 4166 2490 
C 4198 2707 4218 2925 4230 3130 
L 5286 3130 
L 5286 102 
C 5286 0 5248 -38 5126 -38 
C 5005 -45 4570 -51 4115 -32 
C 4186 -166 4256 -378 4282 -518 
C 4858 -518 5242 -512 5472 -435 
C 5696 -352 5766 -205 5766 96 
L 5766 3578 
L 4237 3578 
L 4237 4467 
L 6029 4467 
L 6029 4928 
L 384 4928 
L 384 4467 
L 2131 4467 
L 2131 3578 
L 646 3578 
z
M 2598 4467 
L 3770 4467 
L 3770 3578 
L 2598 3578 
L 2598 4467 
z
" transform="scale(0.015625)"/>
        <path id="NotoSansCJKjp-Regular-6ce8" d="M 3494 3034 
L 5440 3034 
L 5440 1920 
L 3494 1920 
L 3494 3034 
z
M 3494 3469 
L 3494 4544 
L 5440 4544 
L 5440 3469 
L 3494 3469 
z
M 3494 1478 
L 5440 1478 
L 5440 365 
L 3494 365 
L 3494 1478 
z
M 3027 4998 
L 3027 -467 
L 3494 -467 
L 3494 -77 
L 5440 -77 
L 5440 -448 
L 5926 -448 
L 5926 4998 
L 3027 4998 
z
M 1370 5376 
L 1370 4006 
L 333 4006 
L 333 3546 
L 1312 3546 
C 1088 2662 634 1651 186 1120 
C 262 1005 384 813 435 685 
C 781 1126 1120 1837 1370 2573 
L 1370 -506 
L 1837 -506 
L 1837 2419 
C 2080 2106 2368 1709 2490 1498 
L 2784 1888 
C 2643 2061 2061 2746 1837 2970 
L 1837 3546 
L 2752 3546 
L 2752 4006 
L 1837 4006 
L 1837 5376 
L 1370 5376 
z
" transform="scale(0.015625)"/>
        <path id="NotoSansCJKjp-Regular-26cd" d="M 3373 4371 
C 3699 3898 4051 3245 4186 2842 
L 4614 3046 
C 4474 3450 4115 4077 3770 4550 
L 3373 4371 
z
M 2406 5005 
L 2445 1197 
L 1766 973 
L 1965 493 
C 2592 736 3392 1056 4147 1363 
L 4058 1779 
L 2906 1363 
L 2867 5011 
L 2406 5005 
z
M 5376 5114 
C 5261 2093 4813 595 2477 -134 
C 2579 -237 2739 -454 2790 -557 
C 3757 -211 4416 256 4870 890 
C 5254 403 5677 -160 5894 -518 
L 6266 -173 
C 6029 205 5542 813 5126 1299 
C 5613 2214 5792 3437 5862 5094 
L 5376 5114 
z
M 1690 5350 
C 1331 4378 736 3418 102 2797 
C 192 2688 326 2438 371 2323 
C 595 2554 813 2822 1024 3117 
L 1024 -499 
L 1485 -499 
L 1485 3840 
C 1734 4282 1965 4749 2144 5216 
L 1690 5350 
z
" transform="scale(0.015625)"/>
        <path id="NotoSansCJKjp-Regular-4231" d="M 2470 4141 
L 2470 3584 
L 1440 3584 
L 1440 3187 
L 2470 3187 
L 2470 2125 
L 4960 2125 
L 4960 3187 
L 5997 3187 
L 5997 3584 
L 4960 3584 
L 4960 4141 
L 4486 4141 
L 4486 3584 
L 2931 3584 
L 2931 4141 
L 2470 4141 
z
M 4486 3187 
L 4486 2509 
L 2931 2509 
L 2931 3187 
L 4486 3187 
z
M 4851 1318 
C 4582 986 4211 717 3770 506 
C 3334 723 2970 992 2720 1318 
L 4851 1318 
z
M 1530 1715 
L 1530 1318 
L 2502 1318 
L 2259 1222 
C 2515 858 2861 550 3270 301 
C 2662 90 1978 -38 1280 -109 
C 1357 -211 1453 -397 1485 -512 
C 2291 -416 3072 -243 3757 45 
C 4365 -237 5088 -422 5869 -525 
C 5933 -403 6048 -211 6150 -109 
C 5466 -38 4819 96 4269 294 
C 4813 608 5261 1024 5549 1574 
L 5248 1734 
L 5165 1715 
L 1530 1715 
z
M 774 4742 
L 774 2893 
C 774 1965 730 659 198 -256 
C 314 -307 512 -435 595 -518 
C 1152 448 1235 1901 1235 2893 
L 1235 4307 
L 6035 4307 
L 6035 4742 
L 3635 4742 
L 3635 5376 
L 3142 5376 
L 3142 4742 
L 774 4742 
z
" transform="scale(0.015625)"/>
        <path id="NotoSansCJKjp-Regular-2515" d="M 2733 5280 
L 2733 275 
L 326 275 
L 326 -205 
L 6080 -205 
L 6080 275 
L 3238 275 
L 3238 2822 
L 5638 2822 
L 5638 3302 
L 3238 3302 
L 3238 5280 
L 2733 5280 
z
" transform="scale(0.015625)"/>
       </defs>
       <use xlink:href="#NotoSansCJKjp-Regular-7d2e"/>
       <use xlink:href="#NotoSansCJKjp-Regular-26ee" transform="translate(100 0)"/>
       <use xlink:href="#NotoSansCJKjp-Regular-75" transform="translate(200 0)"/>
       <use xlink:href="#NotoSansCJKjp-Regular-4dda" transform="translate(256.09375 0)"/>
       <use xlink:href="#NotoSansCJKjp-Regular-25c4" transform="translate(356.09375 0)"/>
       <use xlink:href="#NotoSansCJKjp-Regular-253c" transform="translate(456.09375 0)"/>
       <use xlink:href="#NotoSansCJKjp-Regular-253c" transform="translate(556.09375 0)"/>
       <use xlink:href="#NotoSansCJKjp-Regular-6ce8" transform="translate(656.09375 0)"/>
       <use xlink:href="#NotoSansCJKjp-Regular-26cd" transform="translate(756.09375 0)"/>
       <use xlink:href="#NotoSansCJKjp-Regular-4231" transform="translate(856.09375 0)"/>
       <use xlink:href="#NotoSansCJKjp-Regular-2515" transform="translate(956.09375 0)"/>
       <use xlink:href="#NotoSansCJKjp-Regular-2d8d" transform="translate(1056.09375 0)"/>
      </g>
     </g>
    </g>
   </g>
   <g id="line2d_15">
    <path d="M 143.028906 218.7 
L 143.028906 7.2 
" clip-path="url(#p0dfceb2697)" style="fill: none; stroke: #cccccc; stroke-width: 0.8; stroke-linecap: square"/>
   </g>
   <g id="patch_3">
    <path d="M 143.028906 218.7 
L 632.593232 218.7 
" style="fill: none; stroke: #000000; stroke-width: 0.8; stroke-linejoin: miter; stroke-linecap: square"/>
   </g>
   <g id="patch_4">
    <path d="M 143.028906 209.086364 
L 535.203266 209.086364 
L 535.203266 140.860557 
L 143.028906 140.860557 
z
" clip-path="url(#p0dfceb2697)" style="fill: #1a56db"/>
   </g>
   <g id="patch_5">
    <path d="M 143.028906 85.039443 
L 609.280645 85.039443 
L 609.280645 16.813636 
L 143.028906 16.813636 
z
" clip-path="url(#p0dfceb2697)" style="fill: #1a56db"/>
   </g>
   <g id="text_9">
    <!-- 9 -->
    <g style="fill: #333333" transform="translate(539.560759 178.58346) scale(0.095 -0.095)">
     <defs>
      <path id="NotoSansCJKjp-Bold-1a" d="M 1632 -90 
C 2573 -90 3450 685 3450 2477 
C 3450 4122 2650 4826 1747 4826 
C 934 4826 256 4218 256 3245 
C 256 2240 819 1754 1613 1754 
C 1933 1754 2336 1946 2586 2266 
C 2541 1082 2106 678 1581 678 
C 1299 678 1005 826 832 1018 
L 333 448 
C 614 160 1043 -90 1632 -90 
z
M 2573 2938 
C 2342 2566 2048 2426 1792 2426 
C 1382 2426 1120 2688 1120 3245 
C 1120 3827 1408 4115 1760 4115 
C 2163 4115 2490 3795 2573 2938 
z
" transform="scale(0.015625)"/>
     </defs>
     <use xlink:href="#NotoSansCJKjp-Bold-1a"/>
    </g>
   </g>
   <g id="text_10">
    <!-- 10.7 -->
    <g style="fill: #333333" transform="translate(613.638138 54.53654) scale(0.095 -0.095)">
     <defs>
      <path id="NotoSansCJKjp-Bold-12" d="M 525 0 
L 3373 0 
L 3373 768 
L 2483 768 
L 2483 4742 
L 1786 4742 
C 1485 4550 1165 4429 685 4346 
L 685 3757 
L 1549 3757 
L 1549 768 
L 525 768 
L 525 0 
z
" transform="scale(0.015625)"/>
      <path id="NotoSansCJKjp-Bold-11" d="M 1888 -90 
C 2854 -90 3494 755 3494 2394 
C 3494 4019 2854 4826 1888 4826 
C 922 4826 282 4026 282 2394 
C 282 755 922 -90 1888 -90 
z
M 1888 646 
C 1478 646 1171 1056 1171 2394 
C 1171 3712 1478 4102 1888 4102 
C 2298 4102 2598 3712 2598 2394 
C 2598 1056 2298 646 1888 646 
z
" transform="scale(0.015625)"/>
      <path id="NotoSansCJKjp-Bold-f" d="M 1043 -90 
C 1376 -90 1626 179 1626 525 
C 1626 877 1376 1139 1043 1139 
C 704 1139 454 877 454 525 
C 454 179 704 -90 1043 -90 
z
" transform="scale(0.015625)"/>
      <path id="NotoSansCJKjp-Bold-18" d="M 1190 0 
L 2138 0 
C 2221 1850 2368 2822 3469 4166 
L 3469 4742 
L 320 4742 
L 320 3949 
L 2451 3949 
C 1549 2694 1274 1645 1190 0 
z
" transform="scale(0.015625)"/>
     </defs>
     <use xlink:href="#NotoSansCJKjp-Bold-12"/>
     <use xlink:href="#NotoSansCJKjp-Bold-11" transform="translate(59 0)"/>
     <use xlink:href="#NotoSansCJKjp-Bold-f" transform="translate(118 0)"/>
     <use xlink:href="#NotoSansCJKjp-Bold-18" transform="translate(150.5 0)"/>
    </g>
   </g>
  </g>
 </g>
 <defs>
  <clipPath id="p0dfceb2697">
   <rect x="143.028906" y="7.2" width="489.564326" height="211.5"/>
  </clipPath>
 </defs>
</svg>
