<?xml version="1.0" encoding="utf-8" standalone="no"?>
<!DOCTYPE svg PUBLIC "-//W3C//DTD SVG 1.1//EN"
  "http://www.w3.org/Graphics/SVG/1.1/DTD/svg11.dtd">
<svg xmlns:xlink="http://www.w3.org/1999/xlink" width="638.415pt" height="241.949708pt" viewBox="0 0 638.415 241.949708" xmlns="http://www.w3.org/2000/svg" version="1.1">
 <metadata>
  <rdf:RDF xmlns:dc="http://purl.org/dc/elements/1.1/" xmlns:cc="http://creativecommons.org/ns#" xmlns:rdf="http://www.w3.org/1999/02/22-rdf-syntax-ns#">
   <cc:Work>
    <dc:type rdf:resource="http://purl.org/dc/dcmitype/StillImage"/>
    <dc:date>2026-05-30T01:32:33.331975</dc:date>
    <dc:format>image/svg+xml</dc:format>
    <dc:creator>
     <cc:Agent>
      <dc:title>Matplotlib v3.10.9, https://matplotlib.org/</dc:title>
     </cc:Agent>
    </dc:creator>
   </cc:Work>
  </rdf:RDF>
 </metadata>
 <defs>
  <style type="text/css">*{stroke-linejoin: round; stroke-linecap: butt}</style>
 </defs>
 <g id="figure_1">
  <g id="patch_1">
   <path d="M 0 241.949708 
L 638.415 241.949708 
L 638.415 0 
L 0 0 
z
" style="fill: #ffffff"/>
  </g>
  <g id="axes_1">
   <g id="patch_2">
    <path d="M 24.745 218.012208 
L 631.215 218.012208 
L 631.215 16.525696 
L 24.745 16.525696 
z
" style="fill: #fafafa"/>
   </g>
   <g id="matplotlib.axis_1">
    <g id="xtick_1">
     <g id="line2d_1">
      <defs>
       <path id="m8958178365" d="M 0 0 
L 0 3.5 
" style="stroke: #333333; stroke-width: 0.8"/>
      </defs>
      <g>
       <use xlink:href="#m8958178365" x="95.020973" y="218.012208" style="fill: #333333; stroke: #333333; stroke-width: 0.8"/>
      </g>
     </g>
     <g id="text_1">
      <!-- 9 道破解直接成本 -->
      <g style="fill: #333333" transform="translate(58.070426 232.573614) scale(0.095 -0.095)">
       <defs>
        <path id="NotoSansCJKjp-Regular-39" d="M 1504 -83 
C 2381 -83 3206 646 3206 2547 
C 3206 4038 2528 4774 1626 4774 
C 896 4774 282 4166 282 3251 
C 282 2285 794 1779 1574 1779 
C 1965 1779 2368 2003 2656 2349 
C 2611 896 2086 403 1485 403 
C 1178 403 896 538 691 762 
L 371 397 
C 634 122 992 -83 1504 -83 
z
M 2650 2842 
C 2336 2394 1984 2214 1670 2214 
C 1114 2214 832 2624 832 3251 
C 832 3898 1178 4320 1632 4320 
C 2227 4320 2586 3808 2650 2842 
z
" transform="scale(0.015625)"/>
        <path id="NotoSansCJKjp-Regular-20" transform="scale(0.015625)"/>
        <path id="NotoSansCJKjp-Regular-9053" d="M 384 4934 
C 794 4646 1274 4218 1478 3904 
L 1862 4224 
C 1632 4531 1152 4947 730 5222 
L 384 4934 
z
M 2957 2400 
L 5088 2400 
L 5088 1869 
L 2957 1869 
L 2957 2400 
z
M 2957 1517 
L 5088 1517 
L 5088 979 
L 2957 979 
L 2957 1517 
z
M 2957 3277 
L 5088 3277 
L 5088 2752 
L 2957 2752 
L 2957 3277 
z
M 2502 3648 
L 2502 602 
L 5562 602 
L 5562 3648 
L 4045 3648 
L 4224 4160 
L 6061 4160 
L 6061 4563 
L 4896 4563 
C 5037 4762 5197 5018 5344 5261 
L 4851 5376 
C 4755 5146 4563 4794 4416 4563 
L 3341 4563 
L 3520 4640 
C 3450 4845 3251 5152 3046 5363 
L 2669 5216 
C 2842 5024 3002 4762 3085 4563 
L 1990 4563 
L 1990 4160 
L 3706 4160 
C 3674 3994 3635 3808 3597 3648 
L 2502 3648 
z
M 1677 2848 
L 314 2848 
L 314 2400 
L 1210 2400 
L 1210 768 
C 890 499 518 230 230 32 
L 480 -461 
C 826 -173 1152 102 1459 378 
C 1869 -128 2445 -358 3283 -390 
C 3994 -416 5318 -403 6016 -371 
C 6035 -224 6118 6 6176 115 
C 5414 64 3981 45 3283 77 
C 2541 102 1978 326 1677 794 
L 1677 2848 
z
" transform="scale(0.015625)"/>
        <path id="NotoSansCJKjp-Regular-7834" d="M 333 5037 
L 333 4595 
L 1114 4595 
C 934 3616 640 2707 179 2099 
C 256 1978 371 1702 403 1581 
C 525 1741 640 1914 749 2106 
L 749 -218 
L 1171 -218 
L 1171 294 
L 2323 294 
L 2323 3066 
L 1178 3066 
C 1344 3546 1485 4064 1587 4595 
L 2483 4595 
L 2483 5037 
L 333 5037 
z
M 1171 2630 
L 1901 2630 
L 1901 723 
L 1171 723 
L 1171 2630 
z
M 2803 4384 
L 2803 2739 
C 2803 1837 2746 608 2176 -269 
C 2278 -314 2464 -435 2541 -499 
C 3066 301 3200 1453 3226 2362 
C 3456 1722 3776 1158 4179 691 
C 3802 326 3366 45 2918 -128 
C 3008 -218 3130 -390 3187 -499 
C 3648 -294 4090 -6 4480 371 
C 4870 0 5325 -301 5837 -506 
C 5907 -384 6042 -205 6144 -115 
C 5632 64 5171 346 4787 698 
C 5254 1242 5619 1939 5824 2784 
L 5542 2893 
L 5466 2874 
L 4557 2874 
L 4557 3955 
L 5517 3955 
C 5446 3661 5363 3360 5286 3155 
L 5664 3059 
C 5792 3379 5939 3885 6048 4326 
L 5741 4403 
L 5664 4384 
L 4557 4384 
L 4557 5376 
L 4128 5376 
L 4128 4384 
L 2803 4384 
z
M 4128 3955 
L 4128 2874 
L 3232 2874 
L 3232 3955 
L 4128 3955 
z
M 5286 2451 
C 5101 1901 4826 1414 4480 1011 
C 4115 1421 3827 1907 3629 2451 
L 5286 2451 
z
" transform="scale(0.015625)"/>
        <path id="NotoSansCJKjp-Regular-89e3" d="M 1677 3379 
L 1677 2662 
L 1101 2662 
L 1101 3379 
L 1677 3379 
z
M 2029 3379 
L 2605 3379 
L 2605 2662 
L 2029 2662 
L 2029 3379 
z
M 1037 3750 
C 1152 3962 1261 4186 1357 4422 
L 2067 4422 
C 1984 4192 1875 3942 1779 3750 
L 1037 3750 
z
M 1210 5382 
C 1011 4595 659 3834 205 3341 
C 307 3277 493 3130 563 3053 
L 698 3219 
L 698 2048 
C 698 1325 653 371 218 -307 
C 314 -346 493 -454 563 -525 
C 864 -58 1005 576 1062 1171 
L 2605 1171 
L 2605 19 
C 2605 -70 2573 -96 2483 -96 
C 2400 -102 2106 -102 1779 -96 
C 1837 -205 1907 -390 1926 -506 
C 2374 -506 2630 -499 2797 -429 
C 2957 -352 3014 -218 3014 13 
L 3014 3219 
C 3110 3142 3219 2995 3270 2906 
C 4070 3258 4384 3885 4518 4646 
L 5536 4646 
C 5498 3898 5446 3597 5376 3514 
C 5331 3462 5280 3456 5184 3456 
C 5101 3456 4864 3462 4608 3482 
C 4672 3373 4710 3206 4723 3085 
C 4986 3066 5254 3066 5389 3078 
C 5549 3091 5651 3136 5734 3238 
C 5875 3392 5933 3802 5978 4870 
C 5984 4934 5990 5050 5990 5050 
L 3200 5050 
L 3200 4646 
L 4070 4646 
C 3955 4045 3699 3526 3014 3238 
L 3014 3750 
L 2202 3750 
C 2355 4026 2509 4352 2611 4646 
L 2330 4826 
L 2259 4806 
L 1504 4806 
C 1555 4966 1606 5126 1651 5286 
L 1210 5382 
z
M 1677 2298 
L 1677 1555 
L 1088 1555 
L 1101 2048 
L 1101 2298 
L 1677 2298 
z
M 2029 2298 
L 2605 2298 
L 2605 1555 
L 2029 1555 
L 2029 2298 
z
M 3642 2944 
C 3533 2406 3334 1869 3053 1504 
C 3162 1459 3347 1363 3430 1306 
C 3552 1478 3661 1690 3763 1926 
L 4480 1926 
L 4480 1152 
L 3123 1152 
L 3123 723 
L 4480 723 
L 4480 -486 
L 4934 -486 
L 4934 723 
L 6163 723 
L 6163 1152 
L 4934 1152 
L 4934 1926 
L 6048 1926 
L 6048 2349 
L 4934 2349 
L 4934 3002 
L 4480 3002 
L 4480 2349 
L 3917 2349 
C 3968 2515 4019 2694 4058 2867 
L 3642 2944 
z
" transform="scale(0.015625)"/>
        <path id="NotoSansCJKjp-Regular-76f4" d="M 2374 2586 
L 4832 2586 
L 4832 2061 
L 2374 2061 
L 2374 2586 
z
M 2374 1715 
L 4832 1715 
L 4832 1178 
L 2374 1178 
L 2374 1715 
z
M 2374 3456 
L 4832 3456 
L 4832 2931 
L 2374 2931 
L 2374 3456 
z
M 736 3635 
L 736 -518 
L 1203 -518 
L 1203 -179 
L 6080 -179 
L 6080 269 
L 1203 269 
L 1203 3635 
L 736 3635 
z
M 3053 5395 
L 3008 4787 
L 397 4787 
L 397 4339 
L 2963 4339 
L 2899 3814 
L 1914 3814 
L 1914 813 
L 5306 813 
L 5306 3814 
L 3379 3814 
L 3469 4339 
L 6029 4339 
L 6029 4787 
L 3533 4787 
L 3603 5363 
L 3053 5395 
z
" transform="scale(0.015625)"/>
        <path id="NotoSansCJKjp-Regular-63a5" d="M 1152 5370 
L 1152 4083 
L 282 4083 
L 282 3635 
L 1152 3635 
L 1152 2240 
L 173 1971 
L 288 1504 
L 1152 1766 
L 1152 70 
C 1152 -19 1120 -51 1037 -51 
C 954 -51 691 -51 397 -45 
C 461 -179 525 -384 544 -506 
C 966 -512 1222 -493 1389 -416 
C 1555 -339 1613 -198 1613 77 
L 1613 1914 
L 2176 2086 
L 2176 1722 
L 3123 1722 
C 2938 1331 2752 954 2592 672 
L 3014 531 
L 3110 704 
C 3373 621 3648 518 3923 403 
C 3475 134 2854 -26 2016 -109 
C 2093 -205 2170 -378 2208 -506 
C 3187 -378 3898 -160 4397 198 
C 4915 -32 5382 -288 5690 -518 
L 5990 -154 
C 5690 64 5242 301 4755 518 
C 5043 832 5229 1229 5344 1722 
L 6112 1722 
L 6112 2144 
L 3827 2144 
L 4115 2771 
L 6138 2771 
L 6138 3194 
L 4966 3194 
C 5101 3482 5248 3885 5376 4250 
L 5184 4275 
L 5952 4275 
L 5952 4698 
L 4397 4698 
L 4397 5376 
L 3917 5376 
L 3917 4698 
L 2394 4698 
L 2394 4275 
L 3290 4275 
L 3002 4218 
C 3123 3898 3226 3475 3258 3194 
L 2138 3194 
L 2138 2771 
L 3597 2771 
L 3322 2144 
L 2291 2144 
L 2234 2554 
L 1613 2374 
L 1613 3635 
L 2234 3635 
L 2234 4083 
L 1613 4083 
L 1613 5370 
L 1152 5370 
z
M 3430 4275 
L 4890 4275 
C 4806 3955 4659 3507 4538 3219 
L 4685 3194 
L 3526 3194 
L 3706 3238 
C 3680 3501 3558 3936 3430 4275 
z
M 3622 1722 
L 4858 1722 
C 4749 1306 4576 966 4314 704 
C 3968 845 3622 966 3296 1062 
L 3622 1722 
z
" transform="scale(0.015625)"/>
        <path id="NotoSansCJKjp-Regular-6210" d="M 3482 5370 
C 3482 5005 3494 4640 3514 4288 
L 819 4288 
L 819 2490 
C 819 1658 762 550 230 -237 
C 346 -294 550 -461 634 -557 
C 1222 288 1318 1581 1318 2483 
L 1318 2528 
L 2490 2528 
C 2464 1427 2432 1018 2349 922 
C 2298 864 2240 851 2144 851 
C 2035 851 1760 851 1466 883 
C 1542 762 1594 570 1600 435 
C 1914 416 2208 416 2374 429 
C 2547 448 2656 493 2758 614 
C 2893 787 2925 1331 2957 2771 
C 2957 2835 2963 2976 2963 2976 
L 1318 2976 
L 1318 3821 
L 3546 3821 
C 3622 2784 3776 1837 4019 1101 
C 3597 614 3104 218 2534 -83 
C 2637 -179 2810 -378 2886 -480 
C 3379 -186 3821 166 4211 589 
C 4506 -70 4890 -467 5382 -467 
C 5875 -467 6054 -147 6138 947 
C 6010 992 5830 1101 5722 1210 
C 5683 358 5606 26 5421 26 
C 5094 26 4806 390 4570 1018 
C 5043 1632 5421 2362 5696 3200 
L 5216 3322 
C 5011 2675 4736 2093 4390 1581 
C 4224 2202 4102 2963 4032 3821 
L 6086 3821 
L 6086 4288 
L 4006 4288 
C 3987 4640 3981 4998 3981 5370 
L 3482 5370 
z
M 4294 5056 
C 4704 4845 5197 4518 5440 4288 
L 5741 4621 
C 5491 4838 4986 5152 4582 5350 
L 4294 5056 
z
" transform="scale(0.015625)"/>
        <path id="NotoSansCJKjp-Regular-672c" d="M 2944 5370 
L 2944 4026 
L 416 4026 
L 416 3539 
L 2643 3539 
C 2099 2438 1171 1402 198 896 
C 307 800 461 621 544 499 
C 1478 1050 2355 2016 2944 3130 
L 2944 1171 
L 1690 1171 
L 1690 685 
L 2944 685 
L 2944 -512 
L 3450 -512 
L 3450 685 
L 4672 685 
L 4672 1171 
L 3450 1171 
L 3450 3123 
C 4026 2016 4896 1043 5856 512 
C 5939 646 6106 838 6221 934 
C 5210 1427 4288 2438 3744 3539 
L 5997 3539 
L 5997 4026 
L 3450 4026 
L 3450 5370 
L 2944 5370 
z
" transform="scale(0.015625)"/>
       </defs>
       <use xlink:href="#NotoSansCJKjp-Regular-39"/>
       <use xlink:href="#NotoSansCJKjp-Regular-20" transform="translate(55.499985 0)"/>
       <use xlink:href="#NotoSansCJKjp-Regular-9053" transform="translate(77.899979 0)"/>
       <use xlink:href="#NotoSansCJKjp-Regular-7834" transform="translate(177.899963 0)"/>
       <use xlink:href="#NotoSansCJKjp-Regular-89e3" transform="translate(277.899948 0)"/>
       <use xlink:href="#NotoSansCJKjp-Regular-76f4" transform="translate(377.899933 0)"/>
       <use xlink:href="#NotoSansCJKjp-Regular-63a5" transform="translate(477.899918 0)"/>
       <use xlink:href="#NotoSansCJKjp-Regular-6210" transform="translate(577.899902 0)"/>
       <use xlink:href="#NotoSansCJKjp-Regular-672c" transform="translate(677.899887 0)"/>
      </g>
     </g>
    </g>
    <g id="xtick_2">
     <g id="line2d_2">
      <g>
       <use xlink:href="#m8958178365" x="250.326991" y="218.012208" style="fill: #333333; stroke: #333333; stroke-width: 0.8"/>
      </g>
     </g>
     <g id="text_2">
      <!-- 344 道失败实验成本 -->
      <g style="fill: #333333" transform="translate(208.103944 232.573614) scale(0.095 -0.095)">
       <defs>
        <path id="NotoSansCJKjp-Regular-33" d="M 1683 -83 
C 2522 -83 3194 416 3194 1254 
C 3194 1901 2752 2310 2202 2445 
L 2202 2477 
C 2701 2650 3034 3034 3034 3603 
C 3034 4346 2458 4774 1664 4774 
C 1126 4774 710 4538 358 4218 
L 672 3846 
C 941 4115 1267 4301 1645 4301 
C 2138 4301 2438 4006 2438 3558 
C 2438 3053 2112 2662 1139 2662 
L 1139 2214 
C 2227 2214 2598 1843 2598 1274 
C 2598 736 2208 403 1645 403 
C 1114 403 762 659 486 941 
L 186 563 
C 493 224 954 -83 1683 -83 
z
" transform="scale(0.015625)"/>
        <path id="NotoSansCJKjp-Regular-34" d="M 2176 0 
L 2726 0 
L 2726 1293 
L 3354 1293 
L 3354 1760 
L 2726 1760 
L 2726 4691 
L 2080 4691 
L 128 1677 
L 128 1293 
L 2176 1293 
L 2176 0 
z
M 2176 1760 
L 736 1760 
L 1805 3360 
C 1939 3590 2067 3827 2182 4051 
L 2208 4051 
C 2195 3814 2176 3430 2176 3200 
L 2176 1760 
z
" transform="scale(0.015625)"/>
        <path id="NotoSansCJKjp-Regular-5931" d="M 2918 5376 
L 2918 4256 
L 1690 4256 
C 1811 4550 1920 4864 2010 5184 
L 1510 5286 
C 1280 4416 883 3558 384 3014 
C 506 2963 742 2835 845 2765 
C 1069 3040 1280 3386 1472 3770 
L 2918 3770 
L 2918 3386 
C 2918 3091 2906 2790 2854 2496 
L 346 2496 
L 346 2016 
L 2746 2016 
C 2477 1184 1824 422 269 -102 
C 371 -198 512 -403 570 -518 
C 2208 45 2918 883 3213 1805 
C 3712 614 4557 -166 5894 -512 
C 5965 -384 6106 -179 6214 -77 
C 4909 218 4064 934 3622 2016 
L 6061 2016 
L 6061 2496 
L 3366 2496 
C 3405 2790 3418 3091 3418 3386 
L 3418 3770 
L 5523 3770 
L 5523 4256 
L 3418 4256 
L 3418 5376 
L 2918 5376 
z
" transform="scale(0.015625)"/>
        <path id="NotoSansCJKjp-Regular-8d25" d="M 1498 4198 
L 1498 2470 
C 1498 1645 1414 493 250 -179 
C 346 -262 480 -410 544 -506 
C 1779 269 1920 1510 1920 2470 
L 1920 4198 
L 1498 4198 
z
M 1843 813 
C 2125 448 2477 -51 2650 -346 
L 3002 -96 
C 2829 186 2470 666 2182 1018 
L 1843 813 
z
M 570 5069 
L 570 1178 
L 973 1178 
L 973 4634 
L 2432 4634 
L 2432 1190 
L 2848 1190 
L 2848 5069 
L 570 5069 
z
M 3994 3814 
L 5190 3814 
C 5082 2816 4864 2022 4550 1395 
C 4211 1946 3949 2579 3770 3251 
C 3846 3430 3923 3622 3994 3814 
z
M 3955 5318 
C 3757 4333 3424 3366 2963 2733 
C 3053 2637 3200 2432 3258 2336 
C 3341 2458 3424 2586 3507 2726 
C 3712 2086 3981 1498 4314 986 
C 3968 474 3539 102 3027 -160 
C 3123 -237 3264 -403 3322 -506 
C 3808 -243 4224 122 4576 621 
C 4941 147 5370 -230 5869 -499 
C 5939 -390 6074 -230 6176 -141 
C 5651 109 5190 512 4813 1011 
C 5203 1715 5472 2637 5606 3814 
L 6061 3814 
L 6061 4250 
L 4134 4250 
C 4237 4570 4320 4896 4390 5222 
L 3955 5318 
z
" transform="scale(0.015625)"/>
        <path id="NotoSansCJKjp-Regular-5b9e" d="M 3443 685 
C 4294 365 5146 -77 5664 -474 
L 5958 -96 
C 5427 282 4531 723 3674 1037 
L 3443 685 
z
M 1536 3565 
C 1882 3360 2291 3040 2477 2816 
L 2784 3162 
C 2586 3392 2170 3680 1824 3872 
L 1536 3565 
z
M 896 2566 
C 1261 2368 1690 2048 1894 1818 
L 2189 2182 
C 1978 2406 1542 2701 1184 2886 
L 896 2566 
z
M 576 4646 
L 576 3347 
L 1056 3347 
L 1056 4198 
L 5338 4198 
L 5338 3347 
L 5837 3347 
L 5837 4646 
L 3642 4646 
C 3546 4870 3379 5184 3219 5421 
L 2746 5274 
C 2861 5082 2982 4851 3072 4646 
L 576 4646 
z
M 454 1638 
L 454 1222 
L 2765 1222 
C 2406 602 1747 186 518 -70 
C 621 -179 742 -365 794 -493 
C 2234 -160 2950 397 3315 1222 
L 5984 1222 
L 5984 1638 
L 3462 1638 
C 3648 2259 3693 3002 3718 3878 
L 3219 3878 
C 3194 2970 3155 2234 2950 1638 
L 454 1638 
z
" transform="scale(0.015625)"/>
        <path id="NotoSansCJKjp-Regular-9a8c" d="M 198 947 
L 301 544 
C 781 678 1370 838 1946 1005 
L 1901 1376 
C 1267 1210 646 1043 198 947 
z
M 3411 3392 
L 3411 2976 
L 5318 2976 
L 5318 3392 
L 3411 3392 
z
M 2989 2317 
C 3174 1830 3347 1190 3398 774 
L 3795 883 
C 3738 1299 3552 1926 3366 2406 
L 2989 2317 
z
M 4122 2477 
C 4230 1997 4346 1357 4378 941 
L 4774 1005 
C 4736 1421 4621 2048 4493 2534 
L 4122 2477 
z
M 685 4198 
C 640 3507 563 2554 480 1990 
L 2202 1990 
C 2118 672 2016 154 1882 13 
C 1830 -51 1760 -64 1658 -64 
C 1536 -64 1242 -58 928 -26 
C 998 -141 1050 -307 1056 -429 
C 1363 -448 1664 -454 1824 -442 
C 2016 -422 2131 -384 2240 -250 
C 2445 -45 2534 557 2637 2189 
C 2643 2246 2650 2387 2650 2387 
L 2221 2381 
L 2144 2381 
C 2221 3072 2317 4224 2381 5088 
L 410 5088 
L 410 4672 
L 1939 4672 
C 1888 3904 1805 2995 1728 2381 
L 941 2381 
C 998 2918 1056 3616 1094 4173 
L 685 4198 
z
M 4269 5421 
C 3872 4525 3168 3738 2400 3251 
C 2490 3155 2630 2963 2688 2867 
C 3290 3290 3872 3891 4314 4595 
C 4762 3974 5408 3309 5990 2886 
C 6042 3014 6150 3219 6234 3328 
C 5638 3712 4947 4390 4544 4998 
L 4685 5286 
L 4269 5421 
z
M 2784 224 
L 2784 -198 
L 6048 -198 
L 6048 224 
L 5069 224 
C 5382 813 5741 1658 6003 2336 
L 5568 2445 
C 5357 1773 4966 819 4653 224 
L 2784 224 
z
" transform="scale(0.015625)"/>
       </defs>
       <use xlink:href="#NotoSansCJKjp-Regular-33"/>
       <use xlink:href="#NotoSansCJKjp-Regular-34" transform="translate(55.499985 0)"/>
       <use xlink:href="#NotoSansCJKjp-Regular-34" transform="translate(110.999969 0)"/>
       <use xlink:href="#NotoSansCJKjp-Regular-20" transform="translate(166.499954 0)"/>
       <use xlink:href="#NotoSansCJKjp-Regular-9053" transform="translate(188.899948 0)"/>
       <use xlink:href="#NotoSansCJKjp-Regular-5931" transform="translate(288.899933 0)"/>
       <use xlink:href="#NotoSansCJKjp-Regular-8d25" transform="translate(388.899918 0)"/>
       <use xlink:href="#NotoSansCJKjp-Regular-5b9e" transform="translate(488.899902 0)"/>
       <use xlink:href="#NotoSansCJKjp-Regular-9a8c" transform="translate(588.899887 0)"/>
       <use xlink:href="#NotoSansCJKjp-Regular-6210" transform="translate(688.899872 0)"/>
       <use xlink:href="#NotoSansCJKjp-Regular-672c" transform="translate(788.899857 0)"/>
      </g>
     </g>
    </g>
    <g id="xtick_3">
     <g id="line2d_3">
      <g>
       <use xlink:href="#m8958178365" x="405.633009" y="218.012208" style="fill: #333333; stroke: #333333; stroke-width: 0.8"/>
      </g>
     </g>
     <g id="text_3">
      <!-- 每道破解的真实摊销成本 -->
      <g style="fill: #333333" transform="translate(353.383009 232.573614) scale(0.095 -0.095)">
       <defs>
        <path id="NotoSansCJKjp-Regular-6bcf" d="M 2502 2931 
C 2906 2746 3386 2445 3635 2208 
L 1722 2208 
L 1856 3219 
L 4800 3219 
L 4762 2208 
L 3674 2208 
L 3942 2490 
C 3693 2726 3187 3021 2778 3200 
L 2502 2931 
z
M 275 2221 
L 275 1786 
L 1190 1786 
C 1094 1158 992 550 902 109 
L 1389 77 
L 1434 320 
L 4608 320 
C 4570 128 4525 13 4480 -45 
C 4422 -122 4365 -141 4250 -141 
C 4122 -141 3827 -134 3507 -109 
C 3571 -218 3616 -384 3622 -493 
C 3936 -512 4262 -518 4448 -506 
C 4646 -486 4781 -435 4902 -269 
C 4979 -173 5037 6 5088 320 
L 5914 320 
L 5914 749 
L 5139 749 
C 5171 1024 5190 1363 5216 1786 
L 6138 1786 
L 6138 2221 
L 5235 2221 
L 5280 3411 
C 5280 3475 5286 3648 5286 3648 
L 1427 3648 
C 1382 3219 1318 2720 1254 2221 
L 275 2221 
z
M 4666 749 
L 3603 749 
L 3834 998 
C 3571 1254 3059 1581 2618 1792 
L 4742 1792 
C 4717 1357 4698 1018 4666 749 
z
M 2336 1523 
C 2746 1318 3226 1005 3494 749 
L 1504 749 
L 1664 1792 
L 2598 1792 
L 2336 1523 
z
M 1734 5414 
C 1402 4602 845 3776 262 3264 
C 384 3194 608 3046 710 2963 
C 1030 3290 1363 3718 1658 4192 
L 5901 4192 
L 5901 4634 
L 1920 4634 
C 2029 4845 2138 5056 2234 5274 
L 1734 5414 
z
" transform="scale(0.015625)"/>
        <path id="NotoSansCJKjp-Regular-7684" d="M 3533 2707 
C 3885 2240 4320 1600 4512 1210 
L 4922 1466 
C 4710 1843 4269 2464 3904 2918 
L 3533 2707 
z
M 1536 5389 
C 1485 5082 1376 4659 1274 4346 
L 557 4346 
L 557 -346 
L 998 -346 
L 998 160 
L 2784 160 
L 2784 4346 
L 1715 4346 
C 1824 4621 1946 4979 2054 5299 
L 1536 5389 
z
M 998 3917 
L 2342 3917 
L 2342 2566 
L 998 2566 
L 998 3917 
z
M 998 595 
L 998 2144 
L 2342 2144 
L 2342 595 
L 998 595 
z
M 3827 5402 
C 3622 4518 3277 3635 2835 3066 
C 2950 3002 3149 2867 3238 2790 
C 3456 3098 3661 3488 3840 3923 
L 5478 3923 
C 5402 1357 5299 371 5094 154 
C 5018 64 4947 45 4819 45 
C 4672 45 4288 51 3866 83 
C 3955 -38 4013 -243 4026 -378 
C 4384 -397 4762 -410 4979 -390 
C 5210 -365 5350 -314 5498 -122 
C 5754 192 5843 1184 5939 4122 
C 5946 4186 5946 4365 5946 4365 
L 4013 4365 
C 4115 4666 4211 4986 4288 5299 
L 3827 5402 
z
" transform="scale(0.015625)"/>
        <path id="NotoSansCJKjp-Regular-771f" d="M 3795 269 
C 4512 13 5242 -301 5683 -525 
L 6086 -198 
C 5606 26 4819 333 4109 576 
L 3795 269 
z
M 365 1094 
L 365 685 
L 6048 685 
L 6048 1094 
L 365 1094 
z
M 1792 2957 
L 4710 2957 
L 4710 2528 
L 1792 2528 
L 1792 2957 
z
M 1792 2221 
L 4710 2221 
L 4710 1786 
L 1792 1786 
L 1792 2221 
z
M 1792 3680 
L 4710 3680 
L 4710 3264 
L 1792 3264 
L 1792 3680 
z
M 2214 563 
C 1805 294 1005 -13 365 -186 
C 467 -275 614 -429 691 -525 
C 1325 -346 2131 -26 2637 288 
L 2214 563 
z
M 1325 4006 
L 1325 1472 
L 5197 1472 
L 5197 4006 
L 3437 4006 
L 3437 4429 
L 5888 4429 
L 5888 4838 
L 3437 4838 
L 3437 5382 
L 2938 5382 
L 2938 4838 
L 544 4838 
L 544 4429 
L 2938 4429 
L 2938 4006 
L 1325 4006 
z
" transform="scale(0.015625)"/>
        <path id="NotoSansCJKjp-Regular-644a" d="M 4800 5030 
C 4986 4749 5184 4358 5274 4109 
L 5651 4269 
C 5562 4518 5357 4896 5152 5171 
L 4800 5030 
z
M 947 5376 
L 947 4083 
L 275 4083 
L 275 3635 
L 947 3635 
L 947 2368 
C 659 2259 397 2170 179 2099 
L 314 1638 
L 947 1882 
L 947 26 
C 947 -64 915 -90 838 -90 
C 762 -96 518 -96 250 -90 
C 307 -211 365 -403 384 -512 
C 774 -512 1011 -499 1165 -429 
C 1306 -352 1370 -230 1370 26 
L 1370 2042 
L 2016 2298 
L 1926 2739 
L 1370 2522 
L 1370 3635 
L 1926 3635 
L 1926 4083 
L 1370 4083 
L 1370 5376 
L 947 5376 
z
M 4192 2381 
L 4966 2381 
L 4966 1530 
L 4192 1530 
L 4192 2381 
z
M 4192 2803 
L 4192 3661 
L 4966 3661 
L 4966 2803 
L 4192 2803 
z
M 4192 1114 
L 4966 1114 
L 4966 243 
L 4192 243 
L 4192 1114 
z
M 1894 3226 
C 2150 2835 2406 2381 2630 1939 
C 2419 1165 2106 621 1690 294 
C 1779 211 1901 70 1958 -32 
C 2362 307 2669 774 2886 1408 
C 3021 1126 3123 858 3187 640 
L 3526 819 
C 3430 1126 3258 1523 3040 1939 
C 3136 2317 3206 2746 3258 3226 
C 3328 3142 3418 3021 3469 2944 
C 3578 3072 3686 3213 3789 3360 
L 3789 -499 
L 4192 -499 
L 4192 -179 
L 6144 -179 
L 6144 243 
L 5363 243 
L 5363 1114 
L 6003 1114 
L 6003 1530 
L 5363 1530 
L 5363 2381 
L 5997 2381 
L 5997 2803 
L 5363 2803 
L 5363 3661 
L 6106 3661 
L 6106 4083 
L 4224 4083 
C 4429 4480 4608 4890 4742 5274 
L 4320 5389 
C 4128 4723 3725 3878 3270 3328 
C 3302 3674 3328 4045 3341 4442 
L 3098 4467 
L 3027 4461 
L 1990 4461 
L 1990 4026 
L 2938 4026 
C 2899 3450 2842 2931 2752 2477 
C 2579 2790 2387 3098 2202 3379 
L 1894 3226 
z
" transform="scale(0.015625)"/>
        <path id="NotoSansCJKjp-Regular-9500" d="M 2803 4973 
C 3053 4602 3315 4102 3411 3789 
L 3814 3994 
C 3706 4314 3437 4794 3181 5152 
L 2803 4973 
z
M 5677 5197 
C 5517 4819 5229 4294 5011 3981 
L 5376 3808 
C 5600 4115 5882 4589 6099 5011 
L 5677 5197 
z
M 1139 5357 
C 947 4768 621 4205 237 3821 
C 320 3725 442 3488 480 3392 
C 685 3603 877 3866 1050 4154 
L 2624 4154 
L 2624 4608 
L 1299 4608 
C 1395 4813 1485 5024 1555 5235 
L 1139 5357 
z
M 397 2202 
L 397 1760 
L 1318 1760 
L 1318 493 
C 1318 218 1120 38 1011 -26 
C 1088 -122 1203 -320 1242 -429 
C 1338 -326 1510 -218 2586 384 
C 2554 480 2509 666 2496 794 
L 1760 410 
L 1760 1760 
L 2656 1760 
L 2656 2202 
L 1760 2202 
L 1760 3066 
L 2515 3066 
L 2515 3501 
L 678 3501 
L 678 3066 
L 1318 3066 
L 1318 2202 
L 397 2202 
z
M 3328 1997 
L 5472 1997 
L 5472 1299 
L 3328 1299 
L 3328 1997 
z
M 3328 2413 
L 3328 3098 
L 5472 3098 
L 5472 2413 
L 3328 2413 
z
M 4198 5382 
L 4198 3546 
L 2893 3546 
L 2893 -512 
L 3328 -512 
L 3328 890 
L 5472 890 
L 5472 96 
C 5472 6 5440 -19 5350 -19 
C 5254 -26 4928 -26 4570 -19 
C 4640 -134 4698 -333 4717 -454 
C 5203 -454 5504 -454 5677 -371 
C 5856 -301 5914 -160 5914 90 
L 5914 3552 
L 5472 3546 
L 4646 3546 
L 4646 5382 
L 4198 5382 
z
" transform="scale(0.015625)"/>
       </defs>
       <use xlink:href="#NotoSansCJKjp-Regular-6bcf"/>
       <use xlink:href="#NotoSansCJKjp-Regular-9053" transform="translate(99.999985 0)"/>
       <use xlink:href="#NotoSansCJKjp-Regular-7834" transform="translate(199.999969 0)"/>
       <use xlink:href="#NotoSansCJKjp-Regular-89e3" transform="translate(299.999954 0)"/>
       <use xlink:href="#NotoSansCJKjp-Regular-7684" transform="translate(399.999939 0)"/>
       <use xlink:href="#NotoSansCJKjp-Regular-771f" transform="translate(499.999924 0)"/>
       <use xlink:href="#NotoSansCJKjp-Regular-5b9e" transform="translate(599.999908 0)"/>
       <use xlink:href="#NotoSansCJKjp-Regular-644a" transform="translate(699.999893 0)"/>
       <use xlink:href="#NotoSansCJKjp-Regular-9500" transform="translate(799.999878 0)"/>
       <use xlink:href="#NotoSansCJKjp-Regular-6210" transform="translate(899.999863 0)"/>
       <use xlink:href="#NotoSansCJKjp-Regular-672c" transform="translate(999.999847 0)"/>
      </g>
     </g>
    </g>
    <g id="xtick_4">
     <g id="line2d_4">
      <g>
       <use xlink:href="#m8958178365" x="560.939027" y="218.012208" style="fill: #333333; stroke: #333333; stroke-width: 0.8"/>
      </g>
     </g>
     <g id="text_4">
      <!-- Erdős 1 万美元档悬赏线 -->
      <g style="fill: #333333" transform="translate(508.365433 232.573614) scale(0.095 -0.095)">
       <defs>
        <path id="NotoSansCJKjp-Regular-45" d="M 646 0 
L 3418 0 
L 3418 506 
L 1235 506 
L 1235 2214 
L 3014 2214 
L 3014 2720 
L 1235 2720 
L 1235 4192 
L 3347 4192 
L 3347 4691 
L 646 4691 
L 646 0 
z
" transform="scale(0.015625)"/>
        <path id="NotoSansCJKjp-Regular-72" d="M 589 0 
L 1178 0 
L 1178 2234 
C 1408 2822 1760 3040 2048 3040 
C 2195 3040 2272 3021 2387 2982 
L 2496 3488 
C 2387 3546 2278 3565 2125 3565 
C 1741 3565 1382 3283 1139 2842 
L 1126 2842 
L 1069 3475 
L 589 3475 
L 589 0 
z
" transform="scale(0.015625)"/>
        <path id="NotoSansCJKjp-Regular-64" d="M 1773 -83 
C 2189 -83 2560 141 2829 410 
L 2848 410 
L 2899 0 
L 3379 0 
L 3379 5094 
L 2790 5094 
L 2790 3757 
L 2822 3162 
C 2515 3411 2253 3565 1843 3565 
C 1050 3565 339 2861 339 1734 
C 339 576 902 -83 1773 -83 
z
M 1901 410 
C 1293 410 941 902 941 1741 
C 941 2534 1389 3072 1946 3072 
C 2234 3072 2502 2970 2790 2707 
L 2790 883 
C 2502 563 2221 410 1901 410 
z
" transform="scale(0.015625)"/>
        <path id="NotoSansCJKjp-Regular-151" d="M 640 -768 
L 5760 -768 
L 5760 5632 
L 640 5632 
L 640 -768 
z
M 3200 2694 
L 1165 5312 
L 5235 5312 
L 3200 2694 
z
M 3405 2432 
L 5440 5050 
L 5440 -186 
L 3405 2432 
z
M 1165 -448 
L 3200 2170 
L 5235 -448 
L 1165 -448 
z
M 960 5050 
L 2995 2432 
L 960 -186 
L 960 5050 
z
" transform="scale(0.015625)"/>
        <path id="NotoSansCJKjp-Regular-73" d="M 1498 -83 
C 2317 -83 2758 384 2758 947 
C 2758 1606 2208 1811 1702 2003 
C 1312 2150 954 2278 954 2605 
C 954 2880 1158 3110 1600 3110 
C 1907 3110 2150 2976 2387 2803 
L 2669 3168 
C 2406 3386 2022 3565 1594 3565 
C 832 3565 397 3130 397 2579 
C 397 1984 922 1754 1408 1574 
C 1792 1434 2202 1267 2202 915 
C 2202 614 1978 371 1517 371 
C 1101 371 794 538 486 787 
L 205 397 
C 531 122 1005 -83 1498 -83 
z
" transform="scale(0.015625)"/>
        <path id="NotoSansCJKjp-Regular-31" d="M 563 0 
L 3136 0 
L 3136 486 
L 2195 486 
L 2195 4691 
L 1747 4691 
C 1491 4544 1190 4435 774 4358 
L 774 3987 
L 1613 3987 
L 1613 486 
L 563 486 
L 563 0 
z
" transform="scale(0.015625)"/>
        <path id="NotoSansCJKjp-Regular-4e07" d="M 397 4896 
L 397 4422 
L 2131 4422 
C 2086 2778 1997 787 218 -154 
C 339 -243 493 -397 570 -525 
C 1837 179 2310 1389 2496 2650 
L 4909 2650 
C 4813 941 4704 237 4512 58 
C 4435 -13 4358 -26 4205 -19 
C 4038 -19 3571 -19 3091 26 
C 3187 -109 3251 -307 3258 -448 
C 3699 -474 4147 -480 4390 -461 
C 4634 -448 4794 -397 4941 -230 
C 5190 32 5306 806 5414 2880 
C 5421 2944 5421 3117 5421 3117 
L 2554 3117 
C 2598 3558 2618 4000 2630 4422 
L 6010 4422 
L 6010 4896 
L 397 4896 
z
" transform="scale(0.015625)"/>
        <path id="NotoSansCJKjp-Regular-7f8e" d="M 4448 5389 
C 4320 5146 4077 4787 3891 4563 
L 4134 4480 
L 2202 4480 
L 2419 4576 
C 2323 4819 2099 5152 1862 5389 
L 1440 5210 
C 1638 4998 1837 4710 1933 4480 
L 627 4480 
L 627 4051 
L 2944 4051 
L 2944 3526 
L 941 3526 
L 941 3110 
L 2944 3110 
L 2944 2573 
L 371 2573 
L 371 2138 
L 2906 2138 
C 2880 1920 2842 1722 2797 1542 
L 320 1542 
L 320 1114 
L 2630 1114 
C 2323 506 1677 128 237 -83 
C 326 -186 442 -384 480 -512 
C 2144 -243 2848 282 3174 1114 
L 3206 1114 
C 3667 141 4518 -339 5894 -518 
C 5958 -384 6086 -186 6189 -77 
C 4954 45 4134 403 3706 1114 
L 6099 1114 
L 6099 1542 
L 3309 1542 
C 3347 1728 3379 1926 3411 2138 
L 6029 2138 
L 6029 2573 
L 3430 2573 
L 3430 3110 
L 5491 3110 
L 5491 3526 
L 3430 3526 
L 3430 4051 
L 5779 4051 
L 5779 4480 
L 4358 4480 
C 4544 4678 4762 4960 4947 5235 
L 4448 5389 
z
" transform="scale(0.015625)"/>
        <path id="NotoSansCJKjp-Regular-5143" d="M 941 4877 
L 941 4416 
L 5485 4416 
L 5485 4877 
L 941 4877 
z
M 378 3085 
L 378 2611 
L 2010 2611 
C 1914 1414 1677 397 307 -122 
C 416 -211 557 -384 608 -493 
C 2099 102 2406 1235 2522 2611 
L 3731 2611 
L 3731 320 
C 3731 -237 3885 -397 4461 -397 
C 4582 -397 5261 -397 5389 -397 
C 5946 -397 6074 -96 6131 1005 
C 5997 1037 5792 1126 5677 1216 
C 5658 230 5613 58 5350 58 
C 5197 58 4634 58 4518 58 
C 4269 58 4218 96 4218 326 
L 4218 2611 
L 6029 2611 
L 6029 3085 
L 378 3085 
z
" transform="scale(0.015625)"/>
        <path id="NotoSansCJKjp-Regular-6863" d="M 5446 4966 
C 5312 4493 5043 3821 4819 3418 
L 5203 3296 
C 5427 3680 5702 4307 5920 4832 
L 5446 4966 
z
M 2541 4806 
C 2752 4346 3002 3725 3110 3334 
L 3526 3501 
C 3411 3891 3155 4486 2931 4954 
L 2541 4806 
z
M 1235 5376 
L 1235 4006 
L 301 4006 
L 301 3552 
L 1158 3552 
C 966 2675 563 1664 166 1120 
C 243 1011 358 819 416 691 
C 723 1120 1018 1837 1235 2566 
L 1235 -506 
L 1690 -506 
L 1690 2714 
C 1888 2394 2125 1997 2221 1786 
L 2515 2157 
C 2400 2336 1862 3085 1690 3302 
L 1690 3552 
L 2496 3552 
L 2496 4006 
L 1690 4006 
L 1690 5376 
L 1235 5376 
z
M 2362 403 
L 2362 -58 
L 5389 -58 
L 5389 -454 
L 5862 -454 
L 5862 3014 
L 4442 3014 
L 4442 5357 
L 3974 5357 
L 3974 3014 
L 2509 3014 
L 2509 2547 
L 5389 2547 
L 5389 1722 
L 2586 1722 
L 2586 1286 
L 5389 1286 
L 5389 403 
L 2362 403 
z
" transform="scale(0.015625)"/>
        <path id="NotoSansCJKjp-Regular-60ac" d="M 1926 1107 
L 1926 192 
C 1926 -275 2093 -397 2758 -397 
C 2893 -397 3866 -397 4006 -397 
C 4531 -397 4672 -230 4730 454 
C 4602 480 4416 544 4307 614 
C 4282 77 4237 0 3968 0 
C 3757 0 2950 0 2790 0 
C 2451 0 2394 26 2394 192 
L 2394 1107 
L 1926 1107 
z
M 2662 1197 
C 3014 1005 3430 704 3629 486 
L 3968 762 
C 3763 979 3334 1267 2982 1446 
L 2662 1197 
z
M 4640 966 
C 5056 608 5504 96 5709 -243 
L 6118 -6 
C 5907 339 5440 838 5030 1178 
L 4640 966 
z
M 1114 1139 
C 928 749 608 269 224 -26 
L 653 -256 
C 1024 58 1312 544 1536 960 
L 1114 1139 
z
M 922 1318 
C 1146 1408 1472 1421 4890 1645 
C 5075 1478 5242 1306 5363 1171 
L 5741 1446 
C 5478 1728 4992 2150 4544 2470 
L 6118 2470 
L 6118 2861 
L 5120 2861 
L 5120 5107 
L 1357 5107 
L 1357 2861 
L 365 2861 
L 365 2470 
L 2010 2470 
C 1677 2208 1338 1997 1203 1926 
C 1043 1837 902 1779 781 1766 
C 832 1638 902 1421 922 1318 
z
M 1818 2861 
L 1818 3315 
L 4640 3315 
L 4640 2861 
L 1818 2861 
z
M 4006 2362 
C 4160 2253 4333 2125 4493 1990 
L 1792 1830 
C 2099 2016 2406 2227 2707 2470 
L 4179 2470 
L 4006 2362 
z
M 1818 4006 
L 4640 4006 
L 4640 3642 
L 1818 3642 
L 1818 4006 
z
M 1818 4339 
L 1818 4755 
L 4640 4755 
L 4640 4339 
L 1818 4339 
z
" transform="scale(0.015625)"/>
        <path id="NotoSansCJKjp-Regular-8d4f" d="M 3392 346 
C 4275 83 5158 -243 5696 -499 
L 6022 -173 
C 5453 83 4525 403 3648 646 
L 3392 346 
z
M 2957 1434 
C 2822 416 2368 58 269 -96 
C 346 -198 448 -390 480 -499 
C 2720 -301 3283 192 3450 1434 
L 2957 1434 
z
M 1184 2138 
L 1184 435 
L 1638 435 
L 1638 1747 
L 4736 1747 
L 4736 454 
L 5210 454 
L 5210 2138 
L 1184 2138 
z
M 2010 3405 
L 4384 3405 
L 4384 2861 
L 2010 2861 
L 2010 3405 
z
M 1555 3731 
L 1555 2534 
L 4864 2534 
L 4864 3731 
L 1555 3731 
z
M 4774 5325 
C 4666 5101 4480 4794 4314 4570 
L 3430 4570 
L 3430 5421 
L 2938 5421 
L 2938 4570 
L 2118 4570 
C 1997 4794 1779 5107 1568 5338 
L 1158 5146 
C 1306 4979 1459 4768 1574 4570 
L 486 4570 
L 486 3360 
L 960 3360 
L 960 4147 
L 5427 4147 
L 5427 3360 
L 5920 3360 
L 5920 4570 
L 4832 4570 
C 4979 4749 5133 4960 5280 5165 
L 4774 5325 
z
" transform="scale(0.015625)"/>
        <path id="NotoSansCJKjp-Regular-7ebf" d="M 346 346 
L 448 -115 
C 1037 64 1805 294 2547 512 
L 2477 922 
C 1690 698 877 474 346 346 
z
M 4506 4992 
C 4826 4838 5229 4589 5434 4410 
L 5715 4710 
C 5510 4883 5101 5120 4787 5261 
L 4506 4992 
z
M 461 2707 
C 550 2752 704 2790 1485 2893 
C 1203 2477 954 2157 832 2029 
C 634 1792 486 1632 346 1606 
C 403 1485 474 1261 499 1165 
C 634 1242 851 1306 2458 1632 
C 2445 1728 2445 1907 2458 2035 
L 1184 1805 
C 1670 2381 2157 3085 2566 3789 
L 2163 4032 
C 2042 3795 1901 3552 1760 3322 
L 947 3238 
C 1331 3782 1702 4474 1978 5146 
L 1530 5357 
C 1274 4589 806 3770 666 3558 
C 525 3341 416 3194 301 3162 
C 358 3034 435 2803 461 2707 
z
M 5677 2234 
C 5421 1830 5075 1459 4659 1139 
C 4557 1478 4467 1888 4403 2349 
L 6035 2656 
L 5958 3078 
L 4346 2778 
C 4314 3046 4282 3328 4262 3622 
L 5856 3866 
L 5779 4288 
L 4237 4058 
C 4218 4486 4211 4928 4211 5389 
L 3738 5389 
C 3744 4909 3757 4442 3782 3987 
L 2771 3840 
L 2848 3405 
L 3808 3552 
C 3827 3258 3859 2970 3891 2694 
L 2643 2464 
L 2720 2029 
L 3949 2259 
C 4026 1728 4128 1248 4262 851 
C 3718 486 3091 198 2438 0 
C 2554 -109 2675 -282 2739 -397 
C 3341 -186 3910 90 4422 422 
C 4685 -154 5030 -493 5485 -493 
C 5926 -493 6074 -282 6163 435 
C 6054 480 5901 582 5805 691 
C 5773 122 5709 -26 5536 -26 
C 5254 -26 5018 237 4819 704 
C 5325 1088 5760 1542 6080 2042 
L 5677 2234 
z
" transform="scale(0.015625)"/>
       </defs>
       <use xlink:href="#NotoSansCJKjp-Regular-45"/>
       <use xlink:href="#NotoSansCJKjp-Regular-72" transform="translate(58.899994 0)"/>
       <use xlink:href="#NotoSansCJKjp-Regular-64" transform="translate(97.699982 0)"/>
       <use xlink:href="#NotoSansCJKjp-Regular-151" transform="translate(159.699966 0)"/>
       <use xlink:href="#NotoSansCJKjp-Regular-73" transform="translate(259.699951 0)"/>
       <use xlink:href="#NotoSansCJKjp-Regular-20" transform="translate(306.499939 0)"/>
       <use xlink:href="#NotoSansCJKjp-Regular-31" transform="translate(328.899933 0)"/>
       <use xlink:href="#NotoSansCJKjp-Regular-20" transform="translate(384.399918 0)"/>
       <use xlink:href="#NotoSansCJKjp-Regular-4e07" transform="translate(406.799911 0)"/>
       <use xlink:href="#NotoSansCJKjp-Regular-7f8e" transform="translate(506.799896 0)"/>
       <use xlink:href="#NotoSansCJKjp-Regular-5143" transform="translate(606.799881 0)"/>
       <use xlink:href="#NotoSansCJKjp-Regular-6863" transform="translate(706.799866 0)"/>
       <use xlink:href="#NotoSansCJKjp-Regular-60ac" transform="translate(806.79985 0)"/>
       <use xlink:href="#NotoSansCJKjp-Regular-8d4f" transform="translate(906.799835 0)"/>
       <use xlink:href="#NotoSansCJKjp-Regular-7ebf" transform="translate(1006.79982 0)"/>
      </g>
     </g>
    </g>
   </g>
   <g id="matplotlib.axis_2">
    <g id="ytick_1">
     <g id="line2d_5">
      <path d="M 24.745 218.012208 
L 631.215 218.012208 
" clip-path="url(#pb7f5dcb59e)" style="fill: none; stroke-dasharray: 2.96,1.28; stroke-dashoffset: 0; stroke: #b0b0b0; stroke-opacity: 0.35; stroke-width: 0.8"/>
     </g>
     <g id="line2d_6">
      <defs>
       <path id="m73db55e874" d="M 0 0 
L -3.5 0 
" style="stroke: #333333; stroke-width: 0.8"/>
      </defs>
      <g>
       <use xlink:href="#m73db55e874" x="24.745" y="218.012208" style="fill: #333333; stroke: #333333; stroke-width: 0.8"/>
      </g>
     </g>
     <g id="text_5">
      <!-- 0 -->
      <g style="fill: #333333" transform="translate(12.4725 221.792911) scale(0.095 -0.095)">
       <defs>
        <path id="NotoSansCJKjp-Regular-30" d="M 1779 -83 
C 2669 -83 3238 723 3238 2362 
C 3238 3987 2669 4774 1779 4774 
C 883 4774 320 3987 320 2362 
C 320 723 883 -83 1779 -83 
z
M 1779 390 
C 1248 390 883 986 883 2362 
C 883 3731 1248 4314 1779 4314 
C 2310 4314 2675 3731 2675 2362 
C 2675 986 2310 390 1779 390 
z
" transform="scale(0.015625)"/>
       </defs>
       <use xlink:href="#NotoSansCJKjp-Regular-30"/>
      </g>
     </g>
    </g>
    <g id="ytick_2">
     <g id="line2d_7">
      <path d="M 24.745 180.823852 
L 631.215 180.823852 
" clip-path="url(#pb7f5dcb59e)" style="fill: none; stroke-dasharray: 2.96,1.28; stroke-dashoffset: 0; stroke: #b0b0b0; stroke-opacity: 0.35; stroke-width: 0.8"/>
     </g>
     <g id="line2d_8">
      <g>
       <use xlink:href="#m73db55e874" x="24.745" y="180.823852" style="fill: #333333; stroke: #333333; stroke-width: 0.8"/>
      </g>
     </g>
     <g id="text_6">
      <!-- 2 -->
      <g style="fill: #333333" transform="translate(12.4725 184.604555) scale(0.095 -0.095)">
       <defs>
        <path id="NotoSansCJKjp-Regular-32" d="M 282 0 
L 3232 0 
L 3232 506 
L 1933 506 
C 1696 506 1408 480 1165 461 
C 2266 1504 3008 2458 3008 3398 
C 3008 4230 2477 4774 1638 4774 
C 1043 4774 634 4506 256 4090 
L 595 3757 
C 858 4070 1184 4301 1568 4301 
C 2150 4301 2432 3910 2432 3373 
C 2432 2566 1754 1632 282 346 
L 282 0 
z
" transform="scale(0.015625)"/>
       </defs>
       <use xlink:href="#NotoSansCJKjp-Regular-32"/>
      </g>
     </g>
    </g>
    <g id="ytick_3">
     <g id="line2d_9">
      <path d="M 24.745 143.635496 
L 631.215 143.635496 
" clip-path="url(#pb7f5dcb59e)" style="fill: none; stroke-dasharray: 2.96,1.28; stroke-dashoffset: 0; stroke: #b0b0b0; stroke-opacity: 0.35; stroke-width: 0.8"/>
     </g>
     <g id="line2d_10">
      <g>
       <use xlink:href="#m73db55e874" x="24.745" y="143.635496" style="fill: #333333; stroke: #333333; stroke-width: 0.8"/>
      </g>
     </g>
     <g id="text_7">
      <!-- 4 -->
      <g style="fill: #333333" transform="translate(12.4725 147.416199) scale(0.095 -0.095)">
       <use xlink:href="#NotoSansCJKjp-Regular-34"/>
      </g>
     </g>
    </g>
    <g id="ytick_4">
     <g id="line2d_11">
      <path d="M 24.745 106.447141 
L 631.215 106.447141 
" clip-path="url(#pb7f5dcb59e)" style="fill: none; stroke-dasharray: 2.96,1.28; stroke-dashoffset: 0; stroke: #b0b0b0; stroke-opacity: 0.35; stroke-width: 0.8"/>
     </g>
     <g id="line2d_12">
      <g>
       <use xlink:href="#m73db55e874" x="24.745" y="106.447141" style="fill: #333333; stroke: #333333; stroke-width: 0.8"/>
      </g>
     </g>
     <g id="text_8">
      <!-- 6 -->
      <g style="fill: #333333" transform="translate(12.4725 110.227844) scale(0.095 -0.095)">
       <defs>
        <path id="NotoSansCJKjp-Regular-36" d="M 1926 -83 
C 2656 -83 3277 531 3277 1440 
C 3277 2426 2765 2912 1971 2912 
C 1606 2912 1197 2701 909 2349 
C 934 3802 1466 4294 2118 4294 
C 2400 4294 2682 4154 2861 3936 
L 3194 4294 
C 2931 4576 2579 4774 2093 4774 
C 1184 4774 358 4077 358 2240 
C 358 691 1030 -83 1926 -83 
z
M 922 1882 
C 1229 2317 1587 2477 1875 2477 
C 2445 2477 2720 2074 2720 1440 
C 2720 800 2374 378 1926 378 
C 1338 378 986 909 922 1882 
z
" transform="scale(0.015625)"/>
       </defs>
       <use xlink:href="#NotoSansCJKjp-Regular-36"/>
      </g>
     </g>
    </g>
    <g id="ytick_5">
     <g id="line2d_13">
      <path d="M 24.745 69.258785 
L 631.215 69.258785 
" clip-path="url(#pb7f5dcb59e)" style="fill: none; stroke-dasharray: 2.96,1.28; stroke-dashoffset: 0; stroke: #b0b0b0; stroke-opacity: 0.35; stroke-width: 0.8"/>
     </g>
     <g id="line2d_14">
      <g>
       <use xlink:href="#m73db55e874" x="24.745" y="69.258785" style="fill: #333333; stroke: #333333; stroke-width: 0.8"/>
      </g>
     </g>
     <g id="text_9">
      <!-- 8 -->
      <g style="fill: #333333" transform="translate(12.4725 73.039488) scale(0.095 -0.095)">
       <defs>
        <path id="NotoSansCJKjp-Regular-38" d="M 1792 -83 
C 2669 -83 3258 448 3258 1126 
C 3258 1773 2880 2125 2470 2362 
L 2470 2394 
C 2746 2611 3091 3034 3091 3526 
C 3091 4250 2605 4762 1805 4762 
C 1075 4762 518 4282 518 3571 
C 518 3078 813 2726 1152 2490 
L 1152 2464 
C 723 2234 294 1792 294 1165 
C 294 442 922 -83 1792 -83 
z
M 2112 2547 
C 1555 2765 1050 3014 1050 3571 
C 1050 4026 1363 4326 1798 4326 
C 2298 4326 2592 3962 2592 3494 
C 2592 3149 2426 2829 2112 2547 
z
M 1798 352 
C 1235 352 813 717 813 1216 
C 813 1664 1082 2035 1459 2278 
C 2125 2010 2701 1779 2701 1146 
C 2701 678 2342 352 1798 352 
z
" transform="scale(0.015625)"/>
       </defs>
       <use xlink:href="#NotoSansCJKjp-Regular-38"/>
      </g>
     </g>
    </g>
    <g id="ytick_6">
     <g id="line2d_15">
      <path d="M 24.745 32.070429 
L 631.215 32.070429 
" clip-path="url(#pb7f5dcb59e)" style="fill: none; stroke-dasharray: 2.96,1.28; stroke-dashoffset: 0; stroke: #b0b0b0; stroke-opacity: 0.35; stroke-width: 0.8"/>
     </g>
     <g id="line2d_16">
      <g>
       <use xlink:href="#m73db55e874" x="24.745" y="32.070429" style="fill: #333333; stroke: #333333; stroke-width: 0.8"/>
      </g>
     </g>
     <g id="text_10">
      <!-- 10 -->
      <g style="fill: #333333" transform="translate(7.2 35.851132) scale(0.095 -0.095)">
       <use xlink:href="#NotoSansCJKjp-Regular-31"/>
       <use xlink:href="#NotoSansCJKjp-Regular-30" transform="translate(55.499985 0)"/>
      </g>
     </g>
    </g>
   </g>
   <g id="patch_3">
    <path d="M 24.745 218.012208 
L 24.745 16.525696 
" style="fill: none; stroke: #000000; stroke-width: 0.8; stroke-linejoin: miter; stroke-linecap: square"/>
   </g>
   <g id="patch_4">
    <path d="M 24.745 218.012208 
L 631.215 218.012208 
" style="fill: none; stroke: #000000; stroke-width: 0.8; stroke-linejoin: miter; stroke-linecap: square"/>
   </g>
   <g id="patch_5">
    <path d="M 52.311818 218.012208 
L 137.730128 218.012208 
L 137.730128 209.644828 
L 52.311818 209.644828 
z
" clip-path="url(#pb7f5dcb59e)" style="fill: #1a56db"/>
   </g>
   <g id="patch_6">
    <path d="M 207.617836 218.012208 
L 293.036146 218.012208 
L 293.036146 26.120292 
L 207.617836 26.120292 
z
" clip-path="url(#pb7f5dcb59e)" style="fill: #1a56db"/>
   </g>
   <g id="patch_7">
    <path d="M 362.923854 218.012208 
L 448.342164 218.012208 
L 448.342164 197.558612 
L 362.923854 197.558612 
z
" clip-path="url(#pb7f5dcb59e)" style="fill: #1a56db"/>
   </g>
   <g id="patch_8">
    <path d="M 518.229872 218.012208 
L 603.648182 218.012208 
L 603.648182 199.41803 
L 518.229872 199.41803 
z
" clip-path="url(#pb7f5dcb59e)" style="fill: #1a56db"/>
   </g>
   <g id="text_11">
    <!-- 0.45 -->
    <g transform="translate(85.069723 198.305239) scale(0.095 -0.095)">
     <defs>
      <path id="NotoSansCJKjp-Bold-30" d="M 1888 -90 
C 2854 -90 3494 755 3494 2394 
C 3494 4019 2854 4826 1888 4826 
C 922 4826 282 4026 282 2394 
C 282 755 922 -90 1888 -90 
z
M 1888 646 
C 1478 646 1171 1056 1171 2394 
C 1171 3712 1478 4102 1888 4102 
C 2298 4102 2598 3712 2598 2394 
C 2598 1056 2298 646 1888 646 
z
" transform="scale(0.015625)"/>
      <path id="NotoSansCJKjp-Bold-2e" d="M 1043 -90 
C 1376 -90 1626 179 1626 525 
C 1626 877 1376 1139 1043 1139 
C 704 1139 454 877 454 525 
C 454 179 704 -90 1043 -90 
z
" transform="scale(0.015625)"/>
      <path id="NotoSansCJKjp-Bold-34" d="M 2157 0 
L 3034 0 
L 3034 1229 
L 3597 1229 
L 3597 1946 
L 3034 1946 
L 3034 4742 
L 1901 4742 
L 134 1869 
L 134 1229 
L 2157 1229 
L 2157 0 
z
M 2157 1946 
L 1050 1946 
L 1786 3123 
C 1920 3379 2048 3642 2163 3898 
L 2195 3898 
C 2176 3616 2157 3187 2157 2912 
L 2157 1946 
z
" transform="scale(0.015625)"/>
      <path id="NotoSansCJKjp-Bold-35" d="M 1773 -90 
C 2637 -90 3424 518 3424 1574 
C 3424 2605 2765 3072 1965 3072 
C 1747 3072 1581 3034 1395 2944 
L 1485 3949 
L 3206 3949 
L 3206 4742 
L 672 4742 
L 544 2438 
L 973 2163 
C 1254 2342 1408 2406 1683 2406 
C 2157 2406 2483 2099 2483 1549 
C 2483 992 2138 678 1645 678 
C 1210 678 870 896 602 1158 
L 166 557 
C 525 205 1018 -90 1773 -90 
z
" transform="scale(0.015625)"/>
     </defs>
     <use xlink:href="#NotoSansCJKjp-Bold-30"/>
     <use xlink:href="#NotoSansCJKjp-Bold-2e" transform="translate(58.999985 0)"/>
     <use xlink:href="#NotoSansCJKjp-Bold-34" transform="translate(91.499969 0)"/>
     <use xlink:href="#NotoSansCJKjp-Bold-35" transform="translate(150.499954 0)"/>
    </g>
   </g>
   <g id="text_12">
    <!-- 10.32 -->
    <g transform="translate(237.573241 14.780703) scale(0.095 -0.095)">
     <defs>
      <path id="NotoSansCJKjp-Bold-31" d="M 525 0 
L 3373 0 
L 3373 768 
L 2483 768 
L 2483 4742 
L 1786 4742 
C 1485 4550 1165 4429 685 4346 
L 685 3757 
L 1549 3757 
L 1549 768 
L 525 768 
L 525 0 
z
" transform="scale(0.015625)"/>
      <path id="NotoSansCJKjp-Bold-33" d="M 1747 -90 
C 2656 -90 3418 410 3418 1280 
C 3418 1907 3008 2304 2477 2451 
L 2477 2483 
C 2976 2682 3264 3053 3264 3565 
C 3264 4378 2643 4826 1728 4826 
C 1171 4826 717 4602 307 4250 
L 794 3667 
C 1069 3930 1344 4083 1683 4083 
C 2086 4083 2317 3866 2317 3494 
C 2317 3066 2035 2771 1171 2771 
L 1171 2093 
C 2195 2093 2470 1805 2470 1338 
C 2470 915 2144 678 1664 678 
C 1229 678 890 890 608 1165 
L 166 570 
C 499 192 1005 -90 1747 -90 
z
" transform="scale(0.015625)"/>
      <path id="NotoSansCJKjp-Bold-32" d="M 275 0 
L 3450 0 
L 3450 794 
L 2426 794 
C 2202 794 1888 768 1645 736 
C 2509 1587 3226 2509 3226 3366 
C 3226 4250 2630 4826 1734 4826 
C 1088 4826 666 4576 224 4102 
L 749 3597 
C 986 3859 1267 4083 1613 4083 
C 2067 4083 2323 3789 2323 3322 
C 2323 2586 1568 1696 275 544 
L 275 0 
z
" transform="scale(0.015625)"/>
     </defs>
     <use xlink:href="#NotoSansCJKjp-Bold-31"/>
     <use xlink:href="#NotoSansCJKjp-Bold-30" transform="translate(58.999985 0)"/>
     <use xlink:href="#NotoSansCJKjp-Bold-2e" transform="translate(117.999969 0)"/>
     <use xlink:href="#NotoSansCJKjp-Bold-33" transform="translate(150.499954 0)"/>
     <use xlink:href="#NotoSansCJKjp-Bold-32" transform="translate(209.499939 0)"/>
    </g>
   </g>
   <g id="text_13">
    <!-- 1.1 -->
    <g transform="translate(398.484259 186.219023) scale(0.095 -0.095)">
     <use xlink:href="#NotoSansCJKjp-Bold-31"/>
     <use xlink:href="#NotoSansCJKjp-Bold-2e" transform="translate(58.999985 0)"/>
     <use xlink:href="#NotoSansCJKjp-Bold-31" transform="translate(91.499969 0)"/>
    </g>
   </g>
   <g id="text_14">
    <!-- 1.0 -->
    <g transform="translate(553.790277 188.078441) scale(0.095 -0.095)">
     <use xlink:href="#NotoSansCJKjp-Bold-31"/>
     <use xlink:href="#NotoSansCJKjp-Bold-2e" transform="translate(58.999985 0)"/>
     <use xlink:href="#NotoSansCJKjp-Bold-30" transform="translate(91.499969 0)"/>
    </g>
   </g>
  </g>
 </g>
 <defs>
  <clipPath id="pb7f5dcb59e">
   <rect x="24.745" y="16.525696" width="606.47" height="201.486512"/>
  </clipPath>
 </defs>
</svg>
