<?xml version="1.0" encoding="utf-8" standalone="no"?>
<!DOCTYPE svg PUBLIC "-//W3C//DTD SVG 1.1//EN"
  "http://www.w3.org/Graphics/SVG/1.1/DTD/svg11.dtd">
<svg xmlns:xlink="http://www.w3.org/1999/xlink" width="640.227109pt" height="242.4pt" viewBox="0 0 640.227109 242.4" xmlns="http://www.w3.org/2000/svg" version="1.1">
 <metadata>
  <rdf:RDF xmlns:dc="http://purl.org/dc/elements/1.1/" xmlns:cc="http://creativecommons.org/ns#" xmlns:rdf="http://www.w3.org/1999/02/22-rdf-syntax-ns#">
   <cc:Work>
    <dc:type rdf:resource="http://purl.org/dc/dcmitype/StillImage"/>
    <dc:date>2026-06-14T23:44:08.551695</dc:date>
    <dc:format>image/svg+xml</dc:format>
    <dc:creator>
     <cc:Agent>
      <dc:title>Matplotlib v3.11.0, https://matplotlib.org/</dc:title>
     </cc:Agent>
    </dc:creator>
   </cc:Work>
  </rdf:RDF>
 </metadata>
 <defs>
  <style type="text/css">*{stroke-linejoin: round; stroke-linecap: butt}</style>
 </defs>
 <g id="figure_1">
  <g id="patch_1">
   <path d="M 0 242.4 
L 640.227109 242.4 
L 640.227109 0 
L 0 0 
z
" style="fill: #ffffff"/>
  </g>
  <g id="axes_1">
   <g id="patch_2">
    <path d="M 126.907109 218.7 
L 633.027109 218.7 
L 633.027109 7.2 
L 126.907109 7.2 
z
" style="fill: #fafafa"/>
   </g>
   <g id="matplotlib.axis_1">
    <g id="xtick_1">
     <g id="line2d_1">
      <path d="M 126.907109 218.7 
L 126.907109 7.2 
" clip-path="url(#p952b18fb0b)" style="fill: none; stroke-dasharray: 2.96,1.28; stroke-dashoffset: 0; stroke: #b0b0b0; stroke-opacity: 0.35; stroke-width: 0.8"/>
     </g>
     <g id="line2d_2">
      <defs>
       <path id="m818450a6e9" d="M 0 0 
L 0 3.5 
" style="stroke: #333333; stroke-width: 0.8"/>
      </defs>
      <g>
       <use xlink:href="#m818450a6e9" x="126.907109" y="218.7" style="fill: #333333; stroke: #333333; stroke-width: 0.8"/>
      </g>
     </g>
     <g id="text_1">
      <!-- 0 -->
      <g style="fill: #333333" transform="translate(124.261211 234.06) scale(0.095 -0.095)">
       <defs>
        <path id="NotoSerifCJKjp-Regular-11" d="M 1779 -96 
C 2547 -96 3258 602 3258 2342 
C 3258 4058 2547 4755 1779 4755 
C 1011 4755 301 4058 301 2342 
C 301 602 1011 -96 1779 -96 
z
M 1779 102 
C 1299 102 832 640 832 2342 
C 832 4019 1299 4550 1779 4550 
C 2253 4550 2726 4019 2726 2342 
C 2726 640 2253 102 1779 102 
z
" transform="scale(0.015625)"/>
       </defs>
       <use xlink:href="#NotoSerifCJKjp-Regular-11"/>
      </g>
     </g>
    </g>
    <g id="xtick_2">
     <g id="line2d_3">
      <path d="M 219.96098 218.7 
L 219.96098 7.2 
" clip-path="url(#p952b18fb0b)" style="fill: none; stroke-dasharray: 2.96,1.28; stroke-dashoffset: 0; stroke: #b0b0b0; stroke-opacity: 0.35; stroke-width: 0.8"/>
     </g>
     <g id="line2d_4">
      <g>
       <use xlink:href="#m818450a6e9" x="219.96098" y="218.7" style="fill: #333333; stroke: #333333; stroke-width: 0.8"/>
      </g>
     </g>
     <g id="text_2">
      <!-- 10 -->
      <g style="fill: #333333" transform="translate(215.078128 234.06) scale(0.095 -0.095)">
       <defs>
        <path id="NotoSerifCJKjp-Regular-12" d="M 480 0 
L 2733 -6 
L 2733 173 
L 1907 269 
L 1894 1472 
L 1894 3642 
L 1920 4653 
L 1824 4723 
L 448 4371 
L 448 4179 
L 1370 4333 
L 1370 1472 
L 1357 269 
L 480 179 
L 480 0 
z
" transform="scale(0.015625)"/>
       </defs>
       <use xlink:href="#NotoSerifCJKjp-Regular-12"/>
       <use xlink:href="#NotoSerifCJKjp-Regular-11" transform="translate(47.09375 0)"/>
      </g>
     </g>
    </g>
    <g id="xtick_3">
     <g id="line2d_5">
      <path d="M 313.01485 218.7 
L 313.01485 7.2 
" clip-path="url(#p952b18fb0b)" style="fill: none; stroke-dasharray: 2.96,1.28; stroke-dashoffset: 0; stroke: #b0b0b0; stroke-opacity: 0.35; stroke-width: 0.8"/>
     </g>
     <g id="line2d_6">
      <g>
       <use xlink:href="#m818450a6e9" x="313.01485" y="218.7" style="fill: #333333; stroke: #333333; stroke-width: 0.8"/>
      </g>
     </g>
     <g id="text_3">
      <!-- 20 -->
      <g style="fill: #333333" transform="translate(307.7186 234.06) scale(0.095 -0.095)">
       <defs>
        <path id="NotoSerifCJKjp-Regular-13" d="M 410 0 
L 3270 0 
L 3270 448 
L 762 448 
C 1152 877 1530 1293 1715 1485 
C 2688 2483 3078 2950 3078 3539 
C 3078 4294 2637 4755 1779 4755 
C 1126 4755 512 4422 410 3770 
C 448 3642 550 3571 672 3571 
C 819 3571 922 3654 986 3904 
L 1139 4461 
C 1306 4531 1466 4557 1626 4557 
C 2195 4557 2534 4192 2534 3552 
C 2534 2989 2253 2541 1574 1722 
C 1261 1350 832 845 410 346 
L 410 0 
z
" transform="scale(0.015625)"/>
       </defs>
       <use xlink:href="#NotoSerifCJKjp-Regular-13"/>
       <use xlink:href="#NotoSerifCJKjp-Regular-11" transform="translate(55.796875 0)"/>
      </g>
     </g>
    </g>
    <g id="xtick_4">
     <g id="line2d_7">
      <path d="M 406.06872 218.7 
L 406.06872 7.2 
" clip-path="url(#p952b18fb0b)" style="fill: none; stroke-dasharray: 2.96,1.28; stroke-dashoffset: 0; stroke: #b0b0b0; stroke-opacity: 0.35; stroke-width: 0.8"/>
     </g>
     <g id="line2d_8">
      <g>
       <use xlink:href="#m818450a6e9" x="406.06872" y="218.7" style="fill: #333333; stroke: #333333; stroke-width: 0.8"/>
      </g>
     </g>
     <g id="text_4">
      <!-- 30 -->
      <g style="fill: #333333" transform="translate(400.776923 234.06) scale(0.095 -0.095)">
       <defs>
        <path id="NotoSerifCJKjp-Regular-14" d="M 1638 -96 
C 2534 -96 3155 416 3155 1203 
C 3155 1875 2778 2342 1952 2458 
C 2662 2618 3021 3085 3021 3629 
C 3021 4301 2547 4755 1728 4755 
C 1120 4755 550 4499 442 3866 
C 480 3757 576 3706 685 3706 
C 845 3706 941 3776 998 3994 
L 1146 4486 
C 1306 4538 1453 4557 1606 4557 
C 2163 4557 2477 4205 2477 3610 
C 2477 2925 2035 2554 1414 2554 
L 1158 2554 
L 1158 2330 
L 1446 2330 
C 2214 2330 2611 1926 2611 1222 
C 2611 544 2202 102 1491 102 
C 1312 102 1158 134 1018 186 
L 864 685 
C 806 922 717 1011 563 1011 
C 442 1011 346 941 301 813 
C 429 218 909 -96 1638 -96 
z
" transform="scale(0.015625)"/>
       </defs>
       <use xlink:href="#NotoSerifCJKjp-Regular-14"/>
       <use xlink:href="#NotoSerifCJKjp-Regular-11" transform="translate(55.703125 0)"/>
      </g>
     </g>
    </g>
    <g id="xtick_5">
     <g id="line2d_9">
      <path d="M 499.12259 218.7 
L 499.12259 7.2 
" clip-path="url(#p952b18fb0b)" style="fill: none; stroke-dasharray: 2.96,1.28; stroke-dashoffset: 0; stroke: #b0b0b0; stroke-opacity: 0.35; stroke-width: 0.8"/>
     </g>
     <g id="line2d_10">
      <g>
       <use xlink:href="#m818450a6e9" x="499.12259" y="218.7" style="fill: #333333; stroke: #333333; stroke-width: 0.8"/>
      </g>
     </g>
     <g id="text_5">
      <!-- 40 -->
      <g style="fill: #333333" transform="translate(493.840442 234.06) scale(0.095 -0.095)">
       <defs>
        <path id="NotoSerifCJKjp-Regular-15" d="M 2170 -115 
L 2650 -115 
L 2650 1229 
L 3418 1229 
L 3418 1600 
L 2650 1600 
L 2650 4730 
L 2291 4730 
L 218 1530 
L 218 1229 
L 2170 1229 
L 2170 -115 
z
M 493 1600 
L 1389 2989 
L 2170 4211 
L 2170 1600 
L 493 1600 
z
" transform="scale(0.015625)"/>
       </defs>
       <use xlink:href="#NotoSerifCJKjp-Regular-15"/>
       <use xlink:href="#NotoSerifCJKjp-Regular-11" transform="translate(55.5 0)"/>
      </g>
     </g>
    </g>
    <g id="xtick_6">
     <g id="line2d_11">
      <path d="M 592.17646 218.7 
L 592.17646 7.2 
" clip-path="url(#p952b18fb0b)" style="fill: none; stroke-dasharray: 2.96,1.28; stroke-dashoffset: 0; stroke: #b0b0b0; stroke-opacity: 0.35; stroke-width: 0.8"/>
     </g>
     <g id="line2d_12">
      <g>
       <use xlink:href="#m818450a6e9" x="592.17646" y="218.7" style="fill: #333333; stroke: #333333; stroke-width: 0.8"/>
      </g>
     </g>
     <g id="text_6">
      <!-- 50 -->
      <g style="fill: #333333" transform="translate(586.88021 234.06) scale(0.095 -0.095)">
       <defs>
        <path id="NotoSerifCJKjp-Regular-16" d="M 1574 -96 
C 2573 -96 3213 499 3213 1408 
C 3213 2317 2624 2803 1709 2803 
C 1421 2803 1158 2765 902 2656 
L 1005 4211 
L 3091 4211 
L 3091 4659 
L 800 4659 
L 653 2458 
L 813 2394 
C 1037 2496 1286 2547 1562 2547 
C 2221 2547 2650 2176 2650 1382 
C 2650 563 2234 102 1498 102 
C 1293 102 1146 134 998 198 
L 845 691 
C 794 928 710 1005 550 1005 
C 429 1005 326 941 282 819 
C 397 230 883 -96 1574 -96 
z
" transform="scale(0.015625)"/>
       </defs>
       <use xlink:href="#NotoSerifCJKjp-Regular-16"/>
       <use xlink:href="#NotoSerifCJKjp-Regular-11" transform="translate(55.796875 0)"/>
      </g>
     </g>
    </g>
   </g>
   <g id="matplotlib.axis_2">
    <g id="ytick_1">
     <g id="line2d_13">
      <defs>
       <path id="mf6a1f31e82" d="M 0 0 
L -3.5 0 
" style="stroke: #333333; stroke-width: 0.8"/>
      </defs>
      <g>
       <use xlink:href="#mf6a1f31e82" x="126.907109" y="174.97346" style="fill: #333333; stroke: #333333; stroke-width: 0.8"/>
      </g>
     </g>
     <g id="text_7">
      <!-- 用于训练模型 -->
      <g style="fill: #333333" transform="translate(62.907109 179.15346) scale(0.095 -0.095)">
       <defs>
        <path id="NotoSerifCJKjp-Regular-693e" d="M 1498 3219 
L 3021 3219 
L 3021 1875 
L 1446 1875 
C 1491 2246 1498 2611 1498 2957 
L 1498 3219 
z
M 1498 3405 
L 1498 4717 
L 3021 4717 
L 3021 3405 
L 1498 3405 
z
M 1075 4902 
L 1075 2950 
C 1075 1728 986 525 243 -429 
L 339 -493 
C 1024 109 1312 890 1421 1683 
L 3021 1683 
L 3021 -442 
L 3085 -442 
C 3296 -442 3437 -339 3437 -307 
L 3437 1683 
L 5088 1683 
L 5088 186 
C 5088 83 5050 38 4922 38 
C 4787 38 4102 96 4102 96 
L 4102 -6 
C 4403 -51 4570 -102 4672 -166 
C 4762 -237 4800 -352 4813 -480 
C 5434 -416 5504 -198 5504 134 
L 5504 4614 
C 5645 4646 5760 4704 5805 4762 
L 5242 5190 
L 5018 4902 
L 1574 4902 
L 1075 5120 
L 1075 4902 
z
M 5088 3219 
L 5088 1875 
L 3437 1875 
L 3437 3219 
L 5088 3219 
z
M 5088 3405 
L 3437 3405 
L 3437 4717 
L 5088 4717 
L 5088 3405 
z
" transform="scale(0.015625)"/>
        <path id="NotoSerifCJKjp-Regular-25e7" d="M 755 4813 
L 806 4627 
L 3008 4627 
L 3008 2906 
L 275 2906 
L 333 2720 
L 3008 2720 
L 3008 186 
C 3008 77 2970 32 2829 32 
C 2662 32 1830 96 1830 96 
L 1830 0 
C 2195 -45 2387 -102 2515 -179 
C 2611 -250 2669 -365 2675 -499 
C 3354 -442 3437 -173 3437 166 
L 3437 2720 
L 5946 2720 
C 6042 2720 6106 2752 6125 2816 
C 5882 3034 5491 3328 5491 3328 
L 5158 2906 
L 3437 2906 
L 3437 4627 
L 5517 4627 
C 5606 4627 5664 4659 5683 4730 
C 5446 4934 5069 5229 5069 5229 
L 4736 4813 
L 755 4813 
z
" transform="scale(0.015625)"/>
        <path id="NotoSerifCJKjp-Regular-9638" d="M 826 5344 
L 749 5293 
C 1005 5011 1331 4544 1427 4192 
C 1850 3885 2170 4781 826 5344 
z
M 5926 5261 
L 5286 5338 
L 5286 -486 
L 5370 -486 
C 5523 -486 5696 -378 5696 -314 
L 5696 5088 
C 5856 5114 5907 5178 5926 5261 
z
M 4621 4986 
L 3994 5056 
L 3994 205 
L 4077 205 
C 4224 205 4397 307 4397 365 
L 4397 4819 
C 4550 4838 4608 4896 4621 4986 
z
M 3334 5242 
L 2701 5306 
L 2701 2835 
C 2701 1587 2534 410 1741 -454 
L 1837 -525 
C 2874 294 3098 1555 3110 2835 
L 3110 5062 
C 3270 5082 3322 5152 3334 5242 
z
M 1581 3360 
C 1702 3379 1773 3424 1818 3462 
L 1446 3866 
L 1261 3642 
L 282 3642 
L 339 3450 
L 1178 3450 
L 1178 640 
C 1178 525 1152 480 947 378 
L 1229 -141 
C 1286 -115 1357 -38 1395 70 
C 1805 531 2176 998 2355 1222 
L 2291 1299 
L 1581 749 
L 1581 3360 
z
" transform="scale(0.015625)"/>
        <path id="NotoSerifCJKjp-Regular-7b67" d="M 5050 1600 
L 4973 1555 
C 5306 1152 5709 506 5766 0 
C 6227 -390 6605 710 5050 1600 
z
M 3827 1382 
L 3213 1670 
C 2906 928 2413 243 1958 -154 
L 2035 -230 
C 2605 90 3168 621 3571 1293 
C 3706 1274 3795 1318 3827 1382 
z
M 333 474 
L 627 -96 
C 691 -77 742 -13 762 64 
C 1504 429 2061 762 2464 1011 
L 2432 1094 
C 1613 813 742 563 333 474 
z
M 1971 5037 
L 1357 5325 
C 1203 4838 781 3923 442 3552 
C 397 3514 288 3494 288 3494 
L 506 2931 
C 550 2944 589 2976 627 3027 
C 941 3110 1254 3206 1510 3283 
C 1190 2765 774 2208 429 1894 
C 384 1862 250 1837 250 1837 
L 480 1274 
C 518 1286 563 1318 602 1376 
C 1331 1587 1990 1824 2342 1952 
L 2323 2048 
C 1722 1965 1114 1888 691 1843 
C 1286 2368 1946 3142 2298 3680 
C 2419 3654 2502 3706 2534 3770 
L 1946 4077 
C 1875 3910 1766 3712 1645 3494 
L 646 3462 
C 1050 3878 1485 4493 1741 4941 
C 1869 4922 1946 4979 1971 5037 
z
M 4288 5178 
L 3693 5376 
C 3635 5146 3552 4845 3443 4512 
L 2272 4512 
L 2323 4320 
L 3386 4320 
L 3104 3488 
L 2438 3488 
L 2496 3302 
L 3040 3302 
C 2925 2976 2810 2675 2714 2432 
C 2618 2400 2509 2349 2432 2310 
L 2886 1952 
L 3078 2144 
L 4237 2144 
L 4237 134 
C 4237 38 4211 0 4083 0 
C 3955 0 3296 51 3296 51 
L 3296 -51 
C 3590 -83 3750 -141 3846 -211 
C 3930 -282 3968 -390 3987 -518 
C 4576 -461 4646 -243 4646 83 
L 4646 2144 
L 5798 2144 
C 5882 2144 5952 2176 5965 2246 
C 5766 2432 5446 2682 5446 2682 
L 5158 2330 
L 4646 2330 
L 4646 3226 
C 4774 3251 4877 3302 4922 3354 
L 4390 3750 
L 4173 3488 
L 3520 3488 
L 3802 4320 
L 5990 4320 
C 6080 4320 6144 4352 6163 4422 
C 5946 4621 5613 4883 5613 4883 
L 5318 4512 
L 3866 4512 
L 4038 5075 
C 4186 5050 4256 5114 4288 5178 
z
M 4237 3302 
L 4237 2330 
L 3098 2330 
L 3450 3302 
L 4237 3302 
z
" transform="scale(0.015625)"/>
        <path id="NotoSerifCJKjp-Regular-55dd" d="M 1222 5357 
L 1222 3898 
L 250 3898 
L 301 3706 
L 1146 3706 
C 986 2726 678 1760 173 1011 
L 262 928 
C 672 1376 992 1888 1222 2451 
L 1222 -493 
L 1306 -493 
C 1459 -493 1632 -397 1632 -339 
L 1632 2867 
C 1824 2605 2042 2253 2118 1971 
C 2490 1683 2829 2426 1632 3002 
L 1632 3706 
L 2458 3706 
C 2541 3706 2605 3738 2624 3808 
C 2426 4000 2112 4262 2112 4262 
L 1830 3898 
L 1632 3898 
L 1632 5107 
C 1798 5133 1843 5190 1862 5286 
L 1222 5357 
z
M 2701 3757 
L 2701 1619 
L 2758 1619 
C 2931 1619 3104 1715 3104 1754 
L 3104 1978 
L 3866 1978 
C 3853 1722 3840 1478 3789 1254 
L 2099 1254 
L 2150 1069 
L 3738 1069 
C 3558 493 3091 6 1843 -397 
L 1901 -499 
C 3482 -141 4006 378 4205 1069 
L 4262 1069 
C 4422 493 4806 -160 5882 -480 
C 5914 -224 6048 -141 6278 -96 
L 6291 -26 
C 5126 211 4602 614 4397 1069 
L 5971 1069 
C 6061 1069 6125 1094 6144 1165 
C 5939 1363 5606 1626 5606 1626 
L 5318 1254 
L 4250 1254 
C 4294 1478 4314 1722 4326 1978 
L 5178 1978 
L 5178 1715 
L 5235 1715 
C 5370 1715 5574 1818 5581 1856 
L 5581 3501 
C 5702 3526 5798 3578 5843 3622 
L 5338 4006 
L 5114 3757 
L 3142 3757 
L 2701 3955 
L 2701 3757 
z
M 4589 5331 
L 4589 4646 
L 3693 4646 
L 3693 5094 
C 3853 5120 3910 5178 3930 5274 
L 3296 5331 
L 3296 4646 
L 2298 4646 
L 2349 4461 
L 3296 4461 
L 3296 3930 
L 3366 3930 
C 3520 3930 3693 4013 3693 4058 
L 3693 4461 
L 4589 4461 
L 4589 3942 
L 4653 3942 
C 4813 3942 4986 4032 4986 4077 
L 4986 4461 
L 5958 4461 
C 6048 4461 6112 4493 6125 4563 
C 5933 4749 5626 4992 5626 4992 
L 5350 4646 
L 4986 4646 
L 4986 5094 
C 5146 5120 5203 5178 5222 5274 
L 4589 5331 
z
M 3104 2765 
L 5178 2765 
L 5178 2170 
L 3104 2170 
L 3104 2765 
z
M 3104 2957 
L 3104 3578 
L 5178 3578 
L 5178 2957 
L 3104 2957 
z
" transform="scale(0.015625)"/>
        <path id="NotoSerifCJKjp-Regular-3447" d="M 4006 5037 
L 4006 2637 
L 4083 2637 
C 4230 2637 4410 2720 4410 2771 
L 4410 4800 
C 4563 4826 4621 4877 4634 4966 
L 4006 5037 
z
M 5395 5331 
L 5395 2413 
C 5395 2330 5370 2298 5267 2298 
C 5165 2298 4640 2336 4640 2336 
L 4640 2234 
C 4870 2202 5005 2157 5088 2086 
C 5158 2016 5184 1914 5203 1786 
C 5734 1843 5798 2042 5798 2381 
L 5798 5094 
C 5946 5120 6010 5171 6022 5267 
L 5395 5331 
z
M 2374 4755 
L 2374 3674 
L 1568 3674 
L 1581 4006 
L 1581 4755 
L 2374 4755 
z
M 288 3674 
L 339 3494 
L 1158 3494 
C 1094 2931 877 2355 237 1862 
L 314 1779 
C 1203 2234 1472 2886 1549 3494 
L 2374 3494 
L 2374 1869 
L 2438 1869 
C 2643 1869 2778 1958 2778 1990 
L 2778 3494 
L 3616 3494 
C 3699 3494 3763 3526 3782 3597 
C 3584 3782 3258 4051 3258 4051 
L 2970 3674 
L 2778 3674 
L 2778 4755 
L 3514 4755 
C 3603 4755 3661 4787 3680 4858 
C 3482 5037 3155 5286 3155 5286 
L 2880 4934 
L 461 4934 
L 512 4755 
L 1184 4755 
L 1184 4000 
L 1171 3674 
L 288 3674 
z
M 282 -154 
L 339 -333 
L 5946 -333 
C 6042 -333 6106 -301 6125 -230 
C 5894 -32 5536 250 5536 250 
L 5216 -154 
L 3405 -154 
L 3405 1037 
L 5402 1037 
C 5491 1037 5555 1069 5574 1133 
C 5357 1338 5005 1606 5005 1606 
L 4704 1222 
L 3405 1222 
L 3405 1830 
C 3565 1856 3629 1920 3642 2003 
L 2982 2074 
L 2982 1222 
L 902 1222 
L 954 1037 
L 2982 1037 
L 2982 -154 
L 282 -154 
z
" transform="scale(0.015625)"/>
       </defs>
       <use xlink:href="#NotoSerifCJKjp-Regular-693e"/>
       <use xlink:href="#NotoSerifCJKjp-Regular-25e7" transform="translate(100 0)"/>
       <use xlink:href="#NotoSerifCJKjp-Regular-9638" transform="translate(200 0)"/>
       <use xlink:href="#NotoSerifCJKjp-Regular-7b67" transform="translate(300 0)"/>
       <use xlink:href="#NotoSerifCJKjp-Regular-55dd" transform="translate(400 0)"/>
       <use xlink:href="#NotoSerifCJKjp-Regular-3447" transform="translate(500 0)"/>
      </g>
     </g>
    </g>
    <g id="ytick_2">
     <g id="line2d_14">
      <g>
       <use xlink:href="#mf6a1f31e82" x="126.907109" y="50.92654" style="fill: #333333; stroke: #333333; stroke-width: 0.8"/>
      </g>
     </g>
     <g id="text_8">
      <!-- 用于搜索 / 把人导回你网站 -->
      <g style="fill: #333333" transform="translate(7.2 55.10654) scale(0.095 -0.095)">
       <defs>
        <path id="NotoSerifCJKjp-Regular-4b96" d="M 218 2048 
L 486 1536 
C 544 1562 595 1619 608 1702 
L 1158 1997 
L 1158 147 
C 1158 51 1126 19 1018 19 
C 909 19 352 58 352 58 
L 352 -45 
C 602 -77 736 -122 826 -192 
C 902 -256 934 -371 954 -499 
C 1498 -435 1555 -230 1555 109 
L 1555 2221 
L 2362 2694 
L 2336 2784 
L 1555 2496 
L 1555 3795 
L 2355 3795 
C 2438 3795 2502 3827 2515 3898 
C 2349 4083 2048 4346 2048 4346 
L 1792 3987 
L 1555 3987 
L 1555 5120 
C 1709 5139 1773 5203 1792 5293 
L 1158 5363 
L 1158 3987 
L 250 3987 
L 301 3795 
L 1158 3795 
L 1158 2355 
C 749 2214 410 2106 218 2048 
z
M 3469 5114 
C 3366 5005 3187 4832 3021 4691 
L 2554 4826 
L 2554 2157 
L 2611 2157 
C 2822 2157 2944 2259 2950 2298 
L 2950 2605 
L 3955 2605 
L 3955 1965 
L 4026 1965 
C 4179 1965 4346 2048 4346 2106 
L 4346 2605 
L 5376 2605 
L 5376 2253 
L 5434 2253 
C 5568 2253 5773 2349 5773 2387 
L 5773 4448 
C 5882 4467 5984 4512 6016 4563 
L 5536 4934 
L 5312 4691 
L 4550 4691 
L 4608 4506 
L 5376 4506 
L 5376 3738 
L 4538 3738 
L 4595 3552 
L 5376 3552 
L 5376 2790 
L 4346 2790 
L 4346 5114 
C 4493 5139 4544 5197 4557 5280 
L 3955 5344 
L 3955 2790 
L 2950 2790 
L 2950 3552 
L 3674 3552 
C 3763 3552 3821 3584 3834 3648 
C 3693 3808 3469 4006 3469 4006 
L 3270 3738 
L 2950 3738 
L 2950 4512 
L 3027 4531 
L 3072 4544 
C 3328 4608 3584 4704 3731 4774 
C 3821 4749 3878 4762 3910 4800 
L 3469 5114 
z
M 5030 1619 
C 4826 1222 4538 877 4173 589 
C 3731 851 3373 1190 3130 1619 
L 5030 1619 
z
M 2221 1811 
L 2278 1619 
L 2976 1619 
C 3187 1107 3488 698 3878 378 
C 3347 32 2694 -218 1920 -390 
L 1958 -499 
C 2829 -365 3552 -141 4128 186 
C 4589 -128 5146 -352 5798 -506 
C 5856 -294 5990 -154 6176 -122 
L 6176 -58 
C 5555 38 4979 192 4493 422 
C 4922 730 5254 1114 5510 1568 
C 5664 1568 5741 1587 5786 1645 
L 5331 2061 
L 5050 1811 
L 2221 1811 
z
" transform="scale(0.015625)"/>
        <path id="NotoSerifCJKjp-Regular-781d" d="M 4051 909 
L 4000 832 
C 4538 576 5286 70 5574 -346 
C 6125 -531 6144 557 4051 909 
z
M 1882 966 
C 1549 550 877 19 256 -294 
L 320 -384 
C 1030 -160 1773 256 2170 614 
C 2310 582 2362 602 2406 659 
L 1882 966 
z
M 1011 4026 
C 947 3488 666 3194 358 3066 
C 13 2630 1082 2394 1139 3539 
L 5325 3539 
C 5235 3270 5088 2931 4966 2707 
L 5050 2656 
C 5338 2854 5677 3187 5862 3450 
C 5997 3456 6067 3469 6118 3520 
L 5600 4019 
L 5312 3718 
L 3398 3718 
L 3398 4461 
L 5760 4461 
C 5856 4461 5920 4493 5939 4563 
C 5709 4768 5350 5037 5350 5037 
L 5024 4653 
L 3398 4653 
L 3398 5101 
C 3558 5120 3622 5184 3635 5274 
L 2989 5338 
L 2989 4653 
L 506 4653 
L 557 4461 
L 2989 4461 
L 2989 3718 
L 1139 3718 
C 1139 3808 1133 3910 1114 4019 
L 1011 4026 
z
M 3872 3200 
C 3571 2803 2925 2112 2355 1632 
C 1594 1619 973 1613 582 1613 
L 832 1082 
C 896 1094 960 1139 1005 1210 
L 2976 1363 
L 2976 -493 
L 3046 -493 
C 3251 -493 3392 -403 3392 -378 
L 3392 1402 
C 4013 1453 4550 1504 5005 1555 
C 5152 1395 5267 1235 5331 1088 
C 5824 845 5958 1901 4173 2323 
L 4109 2253 
C 4346 2118 4627 1920 4858 1696 
L 2605 1638 
C 3232 2042 3853 2560 4179 2874 
C 4294 2848 4358 2861 4390 2918 
L 3872 3200 
z
M 2560 3507 
C 2464 3309 2259 2970 2067 2701 
C 1882 2784 1645 2854 1338 2886 
L 1280 2816 
C 1651 2643 2125 2285 2278 1958 
C 2624 1818 2771 2298 2214 2624 
C 2496 2803 2771 3021 2918 3168 
C 3053 3136 3142 3187 3168 3245 
L 2560 3507 
z
" transform="scale(0.015625)"/>
        <path id="NotoSerifCJKjp-Regular-1" transform="scale(0.015625)"/>
        <path id="NotoSerifCJKjp-Regular-10" d="M 51 -1114 
L 346 -1114 
L 2202 4941 
L 1920 4941 
L 51 -1114 
z
" transform="scale(0.015625)"/>
        <path id="NotoSerifCJKjp-Regular-492e" d="M 3053 4563 
L 4058 4563 
L 4058 2624 
L 3053 2624 
L 3053 4563 
z
M 2643 4755 
L 2643 262 
C 2643 -192 2848 -307 3501 -307 
L 4486 -307 
C 5875 -307 6170 -243 6170 -19 
C 6170 70 6118 115 5946 173 
L 5933 1133 
L 5843 1133 
C 5754 678 5670 314 5613 205 
C 5574 147 5530 115 5434 109 
C 5286 90 4960 83 4499 83 
L 3533 83 
C 3123 83 3053 154 3053 352 
L 3053 2438 
L 5427 2438 
L 5427 1952 
L 5498 1952 
C 5683 1952 5837 2048 5837 2086 
L 5837 4499 
C 5971 4518 6048 4563 6086 4614 
L 5574 5005 
L 5376 4755 
L 3130 4755 
L 2643 4960 
L 2643 4755 
z
M 4461 4563 
L 5427 4563 
L 5427 2624 
L 4461 2624 
L 4461 4563 
z
M 218 2061 
L 474 1517 
C 538 1542 589 1594 608 1677 
L 1254 1965 
L 1254 154 
C 1254 58 1222 26 1114 26 
C 1005 26 442 64 442 64 
L 442 -38 
C 685 -70 832 -115 922 -186 
C 998 -256 1030 -371 1043 -499 
C 1594 -435 1658 -230 1658 115 
L 1658 2157 
L 2618 2618 
L 2592 2707 
L 1658 2438 
L 1658 3795 
L 2477 3795 
C 2560 3795 2624 3827 2637 3898 
C 2458 4083 2150 4339 2150 4339 
L 1888 3987 
L 1658 3987 
L 1658 5120 
C 1811 5139 1875 5203 1894 5293 
L 1254 5363 
L 1254 3987 
L 262 3987 
L 314 3795 
L 1254 3795 
L 1254 2323 
C 806 2202 435 2106 218 2061 
z
" transform="scale(0.015625)"/>
        <path id="NotoSerifCJKjp-Regular-2633" d="M 3251 4979 
C 3411 4998 3462 5062 3475 5158 
L 2797 5229 
C 2790 3270 2810 1197 262 -384 
L 352 -493 
C 2630 691 3091 2310 3206 3859 
C 3405 1952 3981 461 5702 -493 
C 5773 -250 5933 -160 6163 -134 
L 6176 -64 
C 3962 960 3392 2624 3251 4979 
z
" transform="scale(0.015625)"/>
        <path id="NotoSerifCJKjp-Regular-3d3c" d="M 1600 1555 
L 1530 1504 
C 1856 1242 2246 774 2349 397 
C 2829 77 3142 1114 1600 1555 
z
M 1613 4832 
L 4685 4832 
L 4685 3955 
L 1613 3955 
L 1613 4832 
z
M 1197 5222 
L 1197 3110 
C 1197 2682 1395 2618 2208 2618 
L 3667 2618 
C 5587 2618 5875 2643 5875 2893 
C 5875 2976 5811 3014 5626 3066 
L 5606 3859 
L 5530 3859 
C 5434 3462 5357 3206 5286 3098 
C 5242 3027 5203 2995 5069 2982 
C 4877 2970 4352 2963 3680 2963 
L 2189 2963 
C 1664 2963 1613 3002 1613 3149 
L 1613 3763 
L 4685 3763 
L 4685 3469 
L 4749 3469 
C 4890 3469 5101 3558 5107 3597 
L 5107 4755 
C 5229 4781 5338 4832 5382 4883 
L 4858 5280 
L 4621 5024 
L 1690 5024 
L 1197 5235 
L 1197 5222 
z
M 4774 2451 
L 4115 2522 
L 4115 1837 
L 307 1837 
L 365 1645 
L 4115 1645 
L 4115 166 
C 4115 64 4083 19 3942 19 
C 3776 19 2874 83 2874 83 
L 2874 -13 
C 3251 -58 3462 -115 3584 -179 
C 3693 -243 3738 -346 3763 -474 
C 4461 -403 4544 -192 4544 154 
L 4544 1645 
L 5997 1645 
C 6086 1645 6150 1677 6163 1747 
C 5952 1952 5594 2227 5594 2227 
L 5286 1837 
L 4544 1837 
L 4544 2291 
C 4691 2304 4755 2355 4774 2451 
z
" transform="scale(0.015625)"/>
        <path id="NotoSerifCJKjp-Regular-3346" d="M 5242 314 
L 1107 314 
L 1107 4742 
L 5242 4742 
L 5242 314 
z
M 1107 -307 
L 1107 122 
L 5242 122 
L 5242 -410 
L 5306 -410 
C 5453 -410 5651 -301 5658 -250 
L 5658 4666 
C 5786 4691 5894 4742 5939 4794 
L 5421 5203 
L 5178 4934 
L 1152 4934 
L 698 5152 
L 698 -467 
L 774 -467 
C 966 -467 1107 -358 1107 -307 
z
M 3981 1786 
L 2426 1786 
L 2426 3507 
L 3981 3507 
L 3981 1786 
z
M 2426 1235 
L 2426 1600 
L 3981 1600 
L 3981 1158 
L 4045 1158 
C 4179 1158 4371 1261 4378 1306 
L 4378 3443 
C 4506 3469 4608 3514 4653 3565 
L 4147 3949 
L 3917 3699 
L 2458 3699 
L 2035 3898 
L 2035 1101 
L 2106 1101 
C 2272 1101 2426 1197 2426 1235 
z
" transform="scale(0.015625)"/>
        <path id="NotoSerifCJKjp-Regular-2715" d="M 4838 2842 
L 4742 2797 
C 5107 2227 5613 1357 5728 723 
C 6208 314 6509 1459 4838 2842 
z
M 2931 2880 
C 2720 1978 2330 1120 1907 576 
L 2003 506 
C 2541 973 3014 1715 3322 2560 
C 3462 2554 3539 2611 3565 2688 
L 2931 2880 
z
M 3898 3872 
L 3898 166 
C 3898 70 3859 32 3738 32 
C 3597 32 2893 77 2893 77 
L 2893 -19 
C 3200 -58 3373 -109 3475 -179 
C 3565 -250 3603 -358 3622 -493 
C 4243 -429 4314 -211 4314 128 
L 4314 3629 
C 4467 3654 4525 3712 4544 3802 
L 3898 3872 
z
M 3066 5344 
C 2816 4294 2362 3283 1888 2643 
L 1978 2579 
C 2368 2931 2720 3405 3014 3962 
L 5446 3962 
C 5382 3674 5280 3283 5197 3034 
L 5280 2989 
C 5504 3219 5766 3610 5907 3885 
C 6035 3898 6106 3904 6157 3949 
L 5677 4416 
L 5408 4141 
L 3110 4141 
C 3245 4416 3366 4704 3475 5005 
C 3616 4998 3693 5056 3718 5133 
L 3066 5344 
z
M 1658 5363 
C 1338 4147 768 2925 218 2157 
L 307 2093 
C 589 2368 858 2707 1107 3085 
L 1107 -493 
L 1184 -493 
C 1344 -493 1523 -384 1530 -352 
L 1530 3456 
C 1638 3469 1696 3514 1715 3571 
L 1453 3667 
C 1690 4096 1894 4557 2067 5030 
C 2214 5024 2291 5082 2317 5152 
L 1658 5363 
z
" transform="scale(0.015625)"/>
        <path id="NotoSerifCJKjp-Regular-7c19" d="M 3110 3744 
L 3021 3686 
C 3283 3418 3584 3066 3853 2694 
C 3725 1811 3456 922 2874 160 
L 2982 51 
C 3610 704 3955 1466 4141 2259 
C 4358 1907 4525 1562 4589 1254 
C 4979 954 5197 1696 4243 2765 
C 4346 3411 4371 4064 4384 4678 
L 5306 4678 
L 5306 160 
C 5306 38 5267 -6 5120 -6 
C 4947 -6 4109 51 4109 51 
L 4109 -51 
C 4467 -90 4666 -141 4794 -211 
C 4896 -275 4941 -371 4966 -493 
C 5638 -435 5722 -211 5722 115 
L 5722 4595 
C 5850 4621 5952 4678 5997 4723 
L 5466 5139 
L 5242 4870 
L 1120 4870 
L 672 5082 
L 672 -499 
L 749 -499 
C 934 -499 1082 -390 1082 -333 
L 1082 4678 
L 2298 4678 
C 2291 4160 2278 3584 2214 2995 
C 1997 3213 1734 3437 1414 3667 
L 1318 3616 
C 1587 3334 1888 2957 2150 2560 
C 2022 1754 1760 941 1254 230 
L 1363 128 
C 1907 730 2227 1414 2419 2125 
C 2566 1850 2688 1568 2733 1325 
C 3085 1043 3302 1690 2534 2643 
C 2662 3334 2688 4032 2707 4678 
L 3968 4678 
C 3962 4186 3955 3654 3898 3110 
C 3680 3315 3418 3526 3110 3744 
z
" transform="scale(0.015625)"/>
        <path id="NotoSerifCJKjp-Regular-7347" d="M 710 3488 
L 614 3450 
C 877 2758 909 1741 883 1229 
C 1146 768 1734 1894 710 3488 
z
M 1318 5331 
L 1318 4013 
L 275 4013 
L 326 3827 
L 2797 3827 
C 2886 3827 2950 3859 2970 3930 
C 2765 4128 2432 4410 2432 4410 
L 2138 4013 
L 1728 4013 
L 1728 5101 
C 1882 5126 1933 5190 1946 5274 
L 1318 5331 
z
M 2829 2246 
L 2829 1402 
C 2458 1261 2080 1126 1728 1011 
C 2003 1747 2259 2650 2394 3283 
C 2534 3290 2605 3354 2624 3437 
L 1965 3578 
C 1901 2803 1734 1741 1568 954 
C 1005 762 525 614 230 538 
L 493 0 
C 550 26 602 96 621 166 
C 1555 582 2285 979 2829 1293 
L 2829 -493 
L 2893 -493 
C 3110 -493 3245 -397 3245 -365 
L 3245 -6 
L 5254 -6 
L 5254 -422 
L 5325 -422 
C 5523 -422 5690 -326 5690 -294 
L 5690 2022 
C 5818 2048 5882 2080 5926 2138 
L 5453 2496 
L 5235 2246 
L 4410 2246 
L 4410 3635 
L 5926 3635 
C 6016 3635 6074 3667 6093 3738 
C 5888 3942 5542 4224 5542 4224 
L 5235 3821 
L 4410 3821 
L 4410 5114 
C 4563 5139 4627 5203 4646 5293 
L 3981 5357 
L 3981 2246 
L 3322 2246 
L 2829 2445 
L 2829 2246 
z
M 3245 186 
L 3245 2054 
L 5254 2054 
L 5254 186 
L 3245 186 
z
" transform="scale(0.015625)"/>
       </defs>
       <use xlink:href="#NotoSerifCJKjp-Regular-693e"/>
       <use xlink:href="#NotoSerifCJKjp-Regular-25e7" transform="translate(100 0)"/>
       <use xlink:href="#NotoSerifCJKjp-Regular-4b96" transform="translate(200 0)"/>
       <use xlink:href="#NotoSerifCJKjp-Regular-781d" transform="translate(300 0)"/>
       <use xlink:href="#NotoSerifCJKjp-Regular-1" transform="translate(400 0)"/>
       <use xlink:href="#NotoSerifCJKjp-Regular-10" transform="translate(425.59375 0)"/>
       <use xlink:href="#NotoSerifCJKjp-Regular-1" transform="translate(460.796875 0)"/>
       <use xlink:href="#NotoSerifCJKjp-Regular-492e" transform="translate(486.390625 0)"/>
       <use xlink:href="#NotoSerifCJKjp-Regular-2633" transform="translate(586.390625 0)"/>
       <use xlink:href="#NotoSerifCJKjp-Regular-3d3c" transform="translate(686.390625 0)"/>
       <use xlink:href="#NotoSerifCJKjp-Regular-3346" transform="translate(786.390625 0)"/>
       <use xlink:href="#NotoSerifCJKjp-Regular-2715" transform="translate(886.390625 0)"/>
       <use xlink:href="#NotoSerifCJKjp-Regular-7c19" transform="translate(986.390625 0)"/>
       <use xlink:href="#NotoSerifCJKjp-Regular-7347" transform="translate(1086.390625 0)"/>
      </g>
     </g>
    </g>
   </g>
   <g id="line2d_15">
    <path d="M 126.907109 218.7 
L 126.907109 7.2 
" clip-path="url(#p952b18fb0b)" style="fill: none; stroke: #cccccc; stroke-width: 0.8; stroke-linecap: square"/>
   </g>
   <g id="patch_3">
    <path d="M 126.907109 218.7 
L 633.027109 218.7 
" style="fill: none; stroke: #000000; stroke-width: 0.8; stroke-linejoin: miter; stroke-linecap: square"/>
   </g>
   <g id="patch_4">
    <path d="M 126.907109 209.086364 
L 608.926157 209.086364 
L 608.926157 140.860557 
L 126.907109 140.860557 
z
" clip-path="url(#p952b18fb0b)" style="fill: #1a56db"/>
   </g>
   <g id="patch_5">
    <path d="M 126.907109 85.039443 
L 213.447209 85.039443 
L 213.447209 16.813636 
L 126.907109 16.813636 
z
" clip-path="url(#p952b18fb0b)" style="fill: #1a56db"/>
   </g>
   <g id="text_9">
    <!-- 51.8 -->
    <g style="fill: #333333" transform="translate(609.856696 178.58346) scale(0.095 -0.095)">
     <defs>
      <path id="NotoSerifCJKjp-Bold-16" d="M 1670 -102 
C 2733 -102 3475 448 3475 1402 
C 3475 2342 2835 2835 1811 2835 
C 1510 2835 1235 2803 966 2714 
L 1062 4064 
L 3322 4064 
L 3322 4742 
L 819 4742 
L 666 2502 
L 845 2400 
C 1069 2477 1293 2522 1549 2522 
C 2163 2522 2560 2118 2560 1363 
C 2560 550 2163 109 1523 109 
C 1363 109 1248 128 1133 173 
L 1018 762 
C 973 1088 845 1210 621 1210 
C 461 1210 314 1126 250 960 
C 326 301 845 -102 1670 -102 
z
" transform="scale(0.015625)"/>
      <path id="NotoSerifCJKjp-Bold-12" d="M 365 0 
L 2765 -13 
L 2765 173 
L 2042 301 
C 2029 704 2022 1107 2022 1504 
L 2022 3712 
L 2048 4742 
L 1952 4813 
L 346 4435 
L 346 4218 
L 1158 4326 
L 1158 1504 
L 1146 301 
L 365 192 
L 365 0 
z
" transform="scale(0.015625)"/>
      <path id="NotoSerifCJKjp-Bold-f" d="M 1075 -102 
C 1370 -102 1594 128 1594 416 
C 1594 704 1370 941 1075 941 
C 774 941 550 704 550 416 
C 550 128 774 -102 1075 -102 
z
" transform="scale(0.015625)"/>
      <path id="NotoSerifCJKjp-Bold-19" d="M 1824 -102 
C 2867 -102 3462 416 3462 1216 
C 3462 1818 3117 2253 2342 2624 
C 3034 2931 3290 3328 3290 3750 
C 3290 4346 2842 4845 1926 4845 
C 1094 4845 461 4352 461 3590 
C 461 3014 762 2541 1408 2221 
C 717 1958 346 1568 346 1011 
C 346 358 838 -102 1824 -102 
z
M 2202 2694 
C 1370 3059 1184 3456 1184 3866 
C 1184 4333 1530 4627 1907 4627 
C 2355 4627 2605 4262 2605 3776 
C 2605 3334 2490 3008 2202 2694 
z
M 1562 2157 
C 2426 1773 2682 1389 2682 915 
C 2682 416 2400 109 1888 109 
C 1370 109 1062 448 1062 1114 
C 1062 1555 1203 1850 1562 2157 
z
" transform="scale(0.015625)"/>
     </defs>
     <use xlink:href="#NotoSerifCJKjp-Bold-16"/>
     <use xlink:href="#NotoSerifCJKjp-Bold-12" transform="translate(59.40625 0)"/>
     <use xlink:href="#NotoSerifCJKjp-Bold-f" transform="translate(106 0)"/>
     <use xlink:href="#NotoSerifCJKjp-Bold-19" transform="translate(139.5 0)"/>
    </g>
   </g>
   <g id="text_10">
    <!-- 9.3 -->
    <g style="fill: #333333" transform="translate(214.377747 54.53654) scale(0.095 -0.095)">
     <defs>
      <path id="NotoSerifCJKjp-Bold-1a" d="M 678 -122 
C 2426 243 3520 1376 3520 2854 
C 3520 4096 2906 4845 1862 4845 
C 998 4845 282 4294 282 3270 
C 282 2381 870 1862 1683 1862 
C 2054 1862 2362 1971 2573 2150 
C 2387 1114 1779 448 640 58 
L 678 -122 
z
M 2611 2362 
C 2438 2214 2246 2144 2016 2144 
C 1485 2144 1133 2605 1133 3379 
C 1133 4237 1472 4634 1882 4634 
C 2323 4634 2643 4173 2643 2957 
C 2643 2746 2630 2547 2611 2362 
z
" transform="scale(0.015625)"/>
      <path id="NotoSerifCJKjp-Bold-14" d="M 1754 -102 
C 2778 -102 3437 422 3437 1210 
C 3437 1882 3072 2362 2125 2496 
C 2950 2675 3290 3142 3290 3712 
C 3290 4378 2810 4845 1869 4845 
C 1146 4845 512 4538 461 3821 
C 518 3699 634 3635 774 3635 
C 979 3635 1146 3731 1203 4019 
L 1331 4602 
C 1434 4621 1530 4634 1626 4634 
C 2138 4634 2438 4301 2438 3680 
C 2438 2944 2035 2592 1453 2592 
L 1222 2592 
L 1222 2349 
L 1485 2349 
C 2176 2349 2541 1946 2541 1210 
C 2541 506 2163 109 1485 109 
C 1363 109 1261 122 1171 154 
L 1043 736 
C 986 1101 851 1216 634 1216 
C 480 1216 339 1133 275 954 
C 358 282 864 -102 1754 -102 
z
" transform="scale(0.015625)"/>
     </defs>
     <use xlink:href="#NotoSerifCJKjp-Bold-1a"/>
     <use xlink:href="#NotoSerifCJKjp-Bold-f" transform="translate(59.59375 0)"/>
     <use xlink:href="#NotoSerifCJKjp-Bold-14" transform="translate(93.09375 0)"/>
    </g>
   </g>
  </g>
 </g>
 <defs>
  <clipPath id="p952b18fb0b">
   <rect x="126.907109" y="7.2" width="506.12" height="211.5"/>
  </clipPath>
 </defs>
</svg>
