<?xml version="1.0" encoding="utf-8" standalone="no"?>
<!DOCTYPE svg PUBLIC "-//W3C//DTD SVG 1.1//EN"
  "http://www.w3.org/Graphics/SVG/1.1/DTD/svg11.dtd">
<svg xmlns:xlink="http://www.w3.org/1999/xlink" width="638.9125pt" height="241.498158pt" viewBox="0 0 638.9125 241.498158" xmlns="http://www.w3.org/2000/svg" version="1.1">
 <metadata>
  <rdf:RDF xmlns:dc="http://purl.org/dc/elements/1.1/" xmlns:cc="http://creativecommons.org/ns#" xmlns:rdf="http://www.w3.org/1999/02/22-rdf-syntax-ns#">
   <cc:Work>
    <dc:type rdf:resource="http://purl.org/dc/dcmitype/StillImage"/>
    <dc:date>2026-06-14T23:44:08.485191</dc:date>
    <dc:format>image/svg+xml</dc:format>
    <dc:creator>
     <cc:Agent>
      <dc:title>Matplotlib v3.11.0, https://matplotlib.org/</dc:title>
     </cc:Agent>
    </dc:creator>
   </cc:Work>
  </rdf:RDF>
 </metadata>
 <defs>
  <style type="text/css">*{stroke-linejoin: round; stroke-linecap: butt}</style>
 </defs>
 <g id="figure_1">
  <g id="patch_1">
   <path d="M 0 241.498158 
L 638.9125 241.498158 
L 638.9125 0 
L 0 0 
z
" style="fill: #ffffff"/>
  </g>
  <g id="axes_1">
   <g id="patch_2">
    <path d="M 24.7925 217.284564 
L 631.7125 217.284564 
L 631.7125 10.093096 
L 24.7925 10.093096 
z
" style="fill: #fafafa"/>
   </g>
   <g id="matplotlib.axis_1">
    <g id="xtick_1">
     <g id="line2d_1">
      <defs>
       <path id="m2dcf8cf4c6" d="M 0 0 
L 0 3.5 
" style="stroke: #333333; stroke-width: 0.8"/>
      </defs>
      <g>
       <use xlink:href="#m2dcf8cf4c6" x="150.270095" y="217.284564" style="fill: #333333; stroke: #333333; stroke-width: 0.8"/>
      </g>
     </g>
     <g id="text_1">
      <!-- 机器人 / 自动化流量 -->
      <g style="fill: #333333" transform="translate(108.166541 232.644564) scale(0.095 -0.095)">
       <defs>
        <path id="NotoSerifCJKjp-Regular-5107" d="M 3123 4909 
L 3123 2669 
C 3123 1427 2970 365 2029 -435 
L 2125 -506 
C 3379 269 3526 1472 3526 2675 
L 3526 4723 
L 4749 4723 
L 4749 102 
C 4749 -186 4819 -307 5184 -307 
L 5478 -307 
C 6042 -307 6214 -237 6214 -70 
C 6214 13 6176 58 6048 109 
L 6022 966 
L 5939 966 
C 5888 646 5818 218 5779 134 
C 5754 90 5728 83 5696 77 
C 5658 70 5581 70 5485 70 
L 5286 70 
C 5178 70 5158 109 5158 211 
L 5158 4634 
C 5312 4659 5389 4691 5434 4742 
L 4922 5184 
L 4685 4909 
L 3610 4909 
L 3123 5126 
L 3123 4909 
z
M 1331 5350 
L 1331 3949 
L 262 3949 
L 314 3757 
L 1210 3757 
C 1024 2797 698 1824 224 1075 
L 320 1005 
C 742 1478 1082 2035 1331 2650 
L 1331 -499 
L 1421 -499 
C 1562 -499 1734 -403 1734 -346 
L 1734 3053 
C 1984 2784 2266 2394 2336 2093 
C 2765 1779 3104 2650 1734 3174 
L 1734 3757 
L 2669 3757 
C 2758 3757 2822 3789 2829 3859 
C 2643 4051 2310 4320 2310 4320 
L 2029 3949 
L 1734 3949 
L 1734 5107 
C 1901 5133 1952 5190 1971 5286 
L 1331 5350 
z
" transform="scale(0.015625)"/>
        <path id="NotoSerifCJKjp-Regular-326f" d="M 275 2675 
L 326 2483 
L 2093 2483 
C 1651 1958 1030 1472 205 1139 
L 256 1056 
C 518 1139 768 1229 992 1331 
L 992 -506 
L 1050 -506 
C 1216 -506 1389 -410 1389 -371 
L 1389 -115 
L 2483 -115 
L 2483 -435 
L 2547 -435 
C 2682 -435 2874 -333 2880 -288 
L 2880 1184 
C 3008 1210 3110 1261 3149 1312 
L 2650 1696 
L 2419 1453 
L 1414 1453 
L 1318 1491 
C 1869 1779 2291 2125 2611 2483 
L 3782 2483 
C 4090 2080 4461 1741 4998 1459 
L 4992 1453 
L 3942 1453 
L 3514 1638 
L 3514 -493 
L 3571 -493 
C 3738 -493 3910 -397 3910 -358 
L 3910 -115 
L 5056 -115 
L 5056 -461 
L 5114 -461 
C 5248 -461 5446 -371 5453 -333 
L 5453 1178 
L 5568 1216 
L 5946 1094 
C 5971 1306 6061 1453 6176 1498 
L 6182 1568 
C 5146 1728 4442 2048 3955 2483 
L 5965 2483 
C 6054 2483 6118 2515 6138 2586 
C 5920 2790 5568 3053 5568 3053 
L 5261 2675 
L 2771 2675 
C 2880 2810 2970 2950 3053 3085 
C 3181 3072 3264 3110 3302 3181 
L 2822 3366 
L 2835 3379 
L 2835 4691 
C 2957 4717 3066 4768 3104 4819 
L 2605 5197 
L 2374 4954 
L 1344 4954 
L 922 5146 
L 922 3098 
L 979 3098 
C 1139 3098 1312 3181 1312 3219 
L 1312 3507 
L 2438 3507 
L 2438 3238 
L 2502 3238 
C 2534 3238 2579 3245 2618 3258 
C 2515 3066 2394 2867 2246 2675 
L 275 2675 
z
M 1312 3693 
L 1312 4768 
L 2438 4768 
L 2438 3693 
L 1312 3693 
z
M 3552 4954 
L 3552 3162 
L 3610 3162 
C 3776 3162 3949 3245 3949 3283 
L 3949 3507 
L 5126 3507 
L 5126 3213 
L 5190 3213 
C 5318 3213 5523 3309 5530 3341 
L 5530 4685 
C 5651 4710 5760 4768 5798 4819 
L 5293 5203 
L 5062 4954 
L 3981 4954 
L 3552 5146 
L 3552 4954 
z
M 3949 3693 
L 3949 4768 
L 5126 4768 
L 5126 3693 
L 3949 3693 
z
M 1389 77 
L 1389 1261 
L 2483 1261 
L 2483 77 
L 1389 77 
z
M 3910 77 
L 3910 1261 
L 5056 1261 
L 5056 77 
L 3910 77 
z
" transform="scale(0.015625)"/>
        <path id="NotoSerifCJKjp-Regular-2633" d="M 3251 4979 
C 3411 4998 3462 5062 3475 5158 
L 2797 5229 
C 2790 3270 2810 1197 262 -384 
L 352 -493 
C 2630 691 3091 2310 3206 3859 
C 3405 1952 3981 461 5702 -493 
C 5773 -250 5933 -160 6163 -134 
L 6176 -64 
C 3962 960 3392 2624 3251 4979 
z
" transform="scale(0.015625)"/>
        <path id="NotoSerifCJKjp-Regular-1" transform="scale(0.015625)"/>
        <path id="NotoSerifCJKjp-Regular-10" d="M 51 -1114 
L 346 -1114 
L 2202 4941 
L 1920 4941 
L 51 -1114 
z
" transform="scale(0.015625)"/>
        <path id="NotoSerifCJKjp-Regular-817e" d="M 4755 4102 
L 4755 2938 
L 1709 2938 
L 1709 4102 
L 4755 4102 
z
M 2938 5363 
C 2886 5043 2790 4621 2688 4294 
L 1754 4294 
L 1293 4506 
L 1293 -486 
L 1370 -486 
C 1549 -486 1709 -378 1709 -326 
L 1709 -45 
L 4755 -45 
L 4755 -480 
L 4813 -480 
C 4966 -480 5171 -365 5184 -314 
L 5184 4013 
C 5312 4045 5414 4096 5459 4147 
L 4928 4570 
L 4685 4294 
L 2886 4294 
C 3104 4550 3309 4851 3437 5088 
C 3578 5094 3654 5158 3674 5235 
L 2938 5363 
z
M 1709 2752 
L 4755 2752 
L 4755 1549 
L 1709 1549 
L 1709 2752 
z
M 1709 1370 
L 4755 1370 
L 4755 141 
L 1709 141 
L 1709 1370 
z
" transform="scale(0.015625)"/>
        <path id="NotoSerifCJKjp-Regular-2c87" d="M 2746 3558 
L 2451 3187 
L 230 3187 
L 282 2995 
L 3123 2995 
C 3213 2995 3270 3027 3290 3098 
C 3078 3296 2746 3558 2746 3558 
z
M 2413 4973 
L 2118 4602 
L 538 4602 
L 589 4410 
L 2790 4410 
C 2880 4410 2944 4442 2957 4512 
C 2746 4710 2413 4973 2413 4973 
z
M 2138 2208 
L 2048 2170 
C 2221 1875 2394 1472 2490 1082 
C 1786 979 1120 890 678 845 
C 1094 1350 1562 2106 1818 2643 
C 1952 2630 2029 2694 2048 2758 
L 1389 2989 
C 1248 2426 826 1389 486 947 
C 442 909 307 883 307 883 
L 563 250 
C 621 275 672 320 717 397 
C 1421 576 2061 781 2522 928 
C 2547 787 2566 646 2560 512 
C 2976 77 3418 1171 2138 2208 
z
M 4653 5286 
L 4000 5357 
C 4000 4838 4006 4339 3994 3866 
L 2867 3866 
L 2925 3680 
L 3987 3680 
C 3942 1984 3667 595 2240 -442 
L 2330 -544 
C 4038 480 4339 1933 4403 3680 
L 5485 3680 
C 5440 1568 5344 352 5133 134 
C 5069 70 5018 58 4896 58 
C 4768 58 4390 90 4147 115 
L 4141 -6 
C 4365 -38 4589 -102 4672 -166 
C 4755 -237 4774 -352 4774 -480 
C 5037 -480 5280 -397 5446 -192 
C 5734 134 5843 1331 5888 3629 
C 6029 3642 6106 3674 6157 3731 
L 5664 4134 
L 5421 3866 
L 4403 3866 
L 4422 5107 
C 4582 5133 4634 5190 4653 5286 
z
" transform="scale(0.015625)"/>
        <path id="NotoSerifCJKjp-Regular-2d31" d="M 5318 4250 
C 4922 3738 4186 3059 3475 2566 
L 3475 5011 
C 3642 5037 3699 5101 3712 5190 
L 3053 5267 
L 3053 250 
C 3053 -186 3238 -314 3840 -314 
L 4653 -314 
C 5862 -314 6131 -243 6131 -19 
C 6131 70 6086 122 5920 179 
L 5901 1376 
L 5818 1376 
C 5722 838 5632 352 5574 230 
C 5536 154 5504 128 5414 122 
C 5293 102 5037 96 4666 96 
L 3885 96 
C 3546 96 3475 166 3475 352 
L 3475 2400 
C 4320 2797 5165 3360 5651 3814 
C 5792 3776 5850 3795 5901 3853 
L 5318 4250 
z
M 1888 5363 
C 1498 4102 851 2861 224 2099 
L 314 2029 
C 621 2298 915 2624 1190 2989 
L 1190 -493 
L 1274 -493 
C 1427 -493 1606 -397 1613 -365 
L 1613 3418 
C 1728 3437 1786 3475 1811 3539 
L 1613 3610 
C 1882 4038 2118 4512 2323 5005 
C 2458 4998 2541 5056 2566 5126 
L 1888 5363 
z
" transform="scale(0.015625)"/>
        <path id="NotoSerifCJKjp-Regular-5b10" d="M 781 5286 
L 717 5229 
C 1005 5037 1350 4685 1446 4390 
C 1926 4128 2176 5082 781 5286 
z
M 269 3898 
L 211 3834 
C 486 3661 813 3347 915 3072 
C 1376 2810 1626 3725 269 3898 
z
M 634 1299 
C 563 1299 352 1299 352 1299 
L 352 1158 
C 486 1146 582 1133 659 1069 
C 800 979 838 480 749 -173 
C 762 -378 838 -493 954 -493 
C 1165 -493 1293 -326 1306 -51 
C 1325 461 1152 762 1152 1050 
C 1146 1197 1184 1395 1242 1581 
C 1325 1875 1837 3270 2093 4019 
L 1978 4038 
C 909 1651 909 1651 794 1434 
C 730 1299 710 1299 634 1299 
z
M 3616 2541 
L 3616 -211 
L 3693 -211 
C 3840 -211 4013 -122 4013 -77 
L 4013 2310 
C 4160 2330 4224 2381 4230 2470 
L 3616 2541 
z
M 2522 2534 
L 2522 1702 
C 2522 973 2355 128 1446 -435 
L 1523 -518 
C 2707 6 2899 928 2912 1690 
L 2912 2317 
C 3066 2336 3110 2387 3130 2470 
L 2522 2534 
z
M 4794 2573 
L 4794 0 
C 4794 -269 4851 -378 5210 -378 
L 5523 -378 
C 6080 -378 6240 -294 6240 -122 
C 6240 -51 6214 0 6099 51 
L 6080 1024 
L 5997 1024 
C 5933 646 5856 192 5818 83 
C 5798 26 5779 13 5734 6 
C 5709 0 5632 0 5530 0 
L 5318 0 
C 5216 0 5197 26 5197 109 
L 5197 2349 
C 5318 2368 5376 2426 5382 2502 
L 4794 2573 
z
M 1971 3238 
L 2195 2675 
C 2259 2688 2330 2726 2368 2803 
C 3539 2963 4429 3098 5101 3213 
C 5267 3014 5402 2816 5472 2643 
C 5965 2349 6189 3373 4416 4032 
L 4346 3968 
C 4544 3808 4774 3584 4986 3354 
L 3219 3270 
C 3456 3597 3750 4013 3974 4365 
L 5965 4365 
C 6054 4365 6125 4397 6144 4461 
C 5926 4666 5594 4934 5594 4934 
L 5286 4550 
L 4013 4550 
L 4013 5094 
C 4166 5120 4230 5184 4243 5274 
L 3597 5331 
L 3597 4550 
L 1901 4550 
L 1952 4365 
L 3392 4365 
C 3277 4038 3104 3597 2957 3264 
C 2541 3245 2202 3238 1971 3238 
z
" transform="scale(0.015625)"/>
        <path id="NotoSerifCJKjp-Regular-a131" d="M 333 3142 
L 390 2957 
L 5894 2957 
C 5984 2957 6048 2989 6061 3059 
C 5856 3245 5523 3501 5523 3501 
L 5229 3142 
L 333 3142 
z
M 4570 4198 
L 4570 3744 
L 1792 3744 
L 1792 4198 
L 4570 4198 
z
M 4570 4390 
L 1792 4390 
L 1792 4826 
L 4570 4826 
L 4570 4390 
z
M 1376 5011 
L 1376 3277 
L 1440 3277 
C 1606 3277 1792 3373 1792 3411 
L 1792 3558 
L 4570 3558 
L 4570 3315 
L 4634 3315 
C 4768 3315 4979 3411 4986 3450 
L 4986 4749 
C 5114 4774 5216 4826 5261 4870 
L 4742 5274 
L 4506 5011 
L 1830 5011 
L 1376 5216 
L 1376 5011 
z
M 4659 1690 
L 4659 1203 
L 3386 1203 
L 3386 1690 
L 4659 1690 
z
M 4659 1882 
L 3386 1882 
L 3386 2349 
L 4659 2349 
L 4659 1882 
z
M 1734 1690 
L 2976 1690 
L 2976 1203 
L 1734 1203 
L 1734 1690 
z
M 1734 1882 
L 1734 2349 
L 2976 2349 
L 2976 1882 
L 1734 1882 
z
M 806 538 
L 864 352 
L 2976 352 
L 2976 -173 
L 326 -173 
L 384 -358 
L 5926 -358 
C 6022 -358 6086 -326 6099 -256 
C 5875 -58 5530 218 5530 218 
L 5222 -173 
L 3386 -173 
L 3386 352 
L 5510 352 
C 5594 352 5658 384 5677 454 
C 5478 640 5158 883 5158 883 
L 4877 538 
L 3386 538 
L 3386 1018 
L 4659 1018 
L 4659 832 
L 4723 832 
C 4858 832 5069 928 5082 966 
L 5082 2266 
C 5210 2291 5318 2342 5357 2394 
L 4826 2803 
L 4595 2541 
L 1773 2541 
L 1318 2746 
L 1318 717 
L 1382 717 
C 1549 717 1734 813 1734 851 
L 1734 1018 
L 2976 1018 
L 2976 538 
L 806 538 
z
" transform="scale(0.015625)"/>
       </defs>
       <use xlink:href="#NotoSerifCJKjp-Regular-5107"/>
       <use xlink:href="#NotoSerifCJKjp-Regular-326f" transform="translate(100 0)"/>
       <use xlink:href="#NotoSerifCJKjp-Regular-2633" transform="translate(200 0)"/>
       <use xlink:href="#NotoSerifCJKjp-Regular-1" transform="translate(300 0)"/>
       <use xlink:href="#NotoSerifCJKjp-Regular-10" transform="translate(325.59375 0)"/>
       <use xlink:href="#NotoSerifCJKjp-Regular-1" transform="translate(360.796875 0)"/>
       <use xlink:href="#NotoSerifCJKjp-Regular-817e" transform="translate(386.390625 0)"/>
       <use xlink:href="#NotoSerifCJKjp-Regular-2c87" transform="translate(486.390625 0)"/>
       <use xlink:href="#NotoSerifCJKjp-Regular-2d31" transform="translate(586.390625 0)"/>
       <use xlink:href="#NotoSerifCJKjp-Regular-5b10" transform="translate(686.390625 0)"/>
       <use xlink:href="#NotoSerifCJKjp-Regular-a131" transform="translate(786.390625 0)"/>
      </g>
     </g>
    </g>
    <g id="xtick_2">
     <g id="line2d_2">
      <g>
       <use xlink:href="#m2dcf8cf4c6" x="506.234905" y="217.284564" style="fill: #333333; stroke: #333333; stroke-width: 0.8"/>
      </g>
     </g>
     <g id="text_2">
      <!-- 真人流量 -->
      <g style="fill: #333333" transform="translate(487.234905 232.644564) scale(0.095 -0.095)">
       <defs>
        <path id="NotoSerifCJKjp-Regular-6ca9" d="M 301 992 
L 352 800 
L 5978 800 
C 6067 800 6131 832 6150 902 
C 5926 1107 5568 1382 5568 1382 
L 5248 992 
L 301 992 
z
M 3776 589 
L 3738 480 
C 4544 224 5107 -115 5408 -416 
C 5862 -768 6541 211 3776 589 
z
M 2291 685 
C 1882 326 1018 -147 256 -390 
L 294 -493 
C 1126 -339 2003 -6 2528 275 
C 2688 237 2790 250 2842 307 
L 2291 685 
z
M 1562 3942 
L 1562 1184 
L 1632 1184 
C 1811 1184 1984 1280 1984 1325 
L 1984 1498 
L 4454 1498 
L 4454 1216 
L 4518 1216 
C 4659 1216 4870 1318 4877 1363 
L 4877 3674 
C 4998 3699 5101 3750 5146 3802 
L 4627 4198 
L 4390 3942 
L 3392 3942 
L 3392 4467 
L 5715 4467 
C 5798 4467 5856 4499 5875 4570 
C 5664 4774 5306 5037 5306 5037 
L 4986 4653 
L 3392 4653 
L 3392 5120 
C 3552 5139 3616 5203 3629 5293 
L 2976 5357 
L 2976 4653 
L 570 4653 
L 627 4467 
L 2976 4467 
L 2976 3942 
L 2016 3942 
L 1562 4147 
L 1562 3942 
z
M 4454 3757 
L 4454 3206 
L 1984 3206 
L 1984 3757 
L 4454 3757 
z
M 1984 3021 
L 4454 3021 
L 4454 2458 
L 1984 2458 
L 1984 3021 
z
M 1984 2272 
L 4454 2272 
L 4454 1677 
L 1984 1677 
L 1984 2272 
z
" transform="scale(0.015625)"/>
       </defs>
       <use xlink:href="#NotoSerifCJKjp-Regular-6ca9"/>
       <use xlink:href="#NotoSerifCJKjp-Regular-2633" transform="translate(100 0)"/>
       <use xlink:href="#NotoSerifCJKjp-Regular-5b10" transform="translate(200 0)"/>
       <use xlink:href="#NotoSerifCJKjp-Regular-a131" transform="translate(300 0)"/>
      </g>
     </g>
    </g>
   </g>
   <g id="matplotlib.axis_2">
    <g id="ytick_1">
     <g id="line2d_3">
      <path d="M 24.7925 217.284564 
L 631.7125 217.284564 
" clip-path="url(#p63f932f34b)" style="fill: none; stroke-dasharray: 2.96,1.28; stroke-dashoffset: 0; stroke: #b0b0b0; stroke-opacity: 0.35; stroke-width: 0.8"/>
     </g>
     <g id="line2d_4">
      <defs>
       <path id="m86786c295e" d="M 0 0 
L -3.5 0 
" style="stroke: #333333; stroke-width: 0.8"/>
      </defs>
      <g>
       <use xlink:href="#m86786c295e" x="24.7925" y="217.284564" style="fill: #333333; stroke: #333333; stroke-width: 0.8"/>
      </g>
     </g>
     <g id="text_3">
      <!-- 0 -->
      <g style="fill: #333333" transform="translate(12.500703 221.464564) scale(0.095 -0.095)">
       <defs>
        <path id="NotoSerifCJKjp-Regular-11" d="M 1779 -96 
C 2547 -96 3258 602 3258 2342 
C 3258 4058 2547 4755 1779 4755 
C 1011 4755 301 4058 301 2342 
C 301 602 1011 -96 1779 -96 
z
M 1779 102 
C 1299 102 832 640 832 2342 
C 832 4019 1299 4550 1779 4550 
C 2253 4550 2726 4019 2726 2342 
C 2726 640 2253 102 1779 102 
z
" transform="scale(0.015625)"/>
       </defs>
       <use xlink:href="#NotoSerifCJKjp-Regular-11"/>
      </g>
     </g>
    </g>
    <g id="ytick_2">
     <g id="line2d_5">
      <path d="M 24.7925 182.967137 
L 631.7125 182.967137 
" clip-path="url(#p63f932f34b)" style="fill: none; stroke-dasharray: 2.96,1.28; stroke-dashoffset: 0; stroke: #b0b0b0; stroke-opacity: 0.35; stroke-width: 0.8"/>
     </g>
     <g id="line2d_6">
      <g>
       <use xlink:href="#m86786c295e" x="24.7925" y="182.967137" style="fill: #333333; stroke: #333333; stroke-width: 0.8"/>
      </g>
     </g>
     <g id="text_4">
      <!-- 10 -->
      <g style="fill: #333333" transform="translate(8.026797 187.147137) scale(0.095 -0.095)">
       <defs>
        <path id="NotoSerifCJKjp-Regular-12" d="M 480 0 
L 2733 -6 
L 2733 173 
L 1907 269 
L 1894 1472 
L 1894 3642 
L 1920 4653 
L 1824 4723 
L 448 4371 
L 448 4179 
L 1370 4333 
L 1370 1472 
L 1357 269 
L 480 179 
L 480 0 
z
" transform="scale(0.015625)"/>
       </defs>
       <use xlink:href="#NotoSerifCJKjp-Regular-12"/>
       <use xlink:href="#NotoSerifCJKjp-Regular-11" transform="translate(47.09375 0)"/>
      </g>
     </g>
    </g>
    <g id="ytick_3">
     <g id="line2d_7">
      <path d="M 24.7925 148.649709 
L 631.7125 148.649709 
" clip-path="url(#p63f932f34b)" style="fill: none; stroke-dasharray: 2.96,1.28; stroke-dashoffset: 0; stroke: #b0b0b0; stroke-opacity: 0.35; stroke-width: 0.8"/>
     </g>
     <g id="line2d_8">
      <g>
       <use xlink:href="#m86786c295e" x="24.7925" y="148.649709" style="fill: #333333; stroke: #333333; stroke-width: 0.8"/>
      </g>
     </g>
     <g id="text_5">
      <!-- 20 -->
      <g style="fill: #333333" transform="translate(7.2 152.829709) scale(0.095 -0.095)">
       <defs>
        <path id="NotoSerifCJKjp-Regular-13" d="M 410 0 
L 3270 0 
L 3270 448 
L 762 448 
C 1152 877 1530 1293 1715 1485 
C 2688 2483 3078 2950 3078 3539 
C 3078 4294 2637 4755 1779 4755 
C 1126 4755 512 4422 410 3770 
C 448 3642 550 3571 672 3571 
C 819 3571 922 3654 986 3904 
L 1139 4461 
C 1306 4531 1466 4557 1626 4557 
C 2195 4557 2534 4192 2534 3552 
C 2534 2989 2253 2541 1574 1722 
C 1261 1350 832 845 410 346 
L 410 0 
z
" transform="scale(0.015625)"/>
       </defs>
       <use xlink:href="#NotoSerifCJKjp-Regular-13"/>
       <use xlink:href="#NotoSerifCJKjp-Regular-11" transform="translate(55.796875 0)"/>
      </g>
     </g>
    </g>
    <g id="ytick_4">
     <g id="line2d_9">
      <path d="M 24.7925 114.332282 
L 631.7125 114.332282 
" clip-path="url(#p63f932f34b)" style="fill: none; stroke-dasharray: 2.96,1.28; stroke-dashoffset: 0; stroke: #b0b0b0; stroke-opacity: 0.35; stroke-width: 0.8"/>
     </g>
     <g id="line2d_10">
      <g>
       <use xlink:href="#m86786c295e" x="24.7925" y="114.332282" style="fill: #333333; stroke: #333333; stroke-width: 0.8"/>
      </g>
     </g>
     <g id="text_6">
      <!-- 30 -->
      <g style="fill: #333333" transform="translate(7.208906 118.512282) scale(0.095 -0.095)">
       <defs>
        <path id="NotoSerifCJKjp-Regular-14" d="M 1638 -96 
C 2534 -96 3155 416 3155 1203 
C 3155 1875 2778 2342 1952 2458 
C 2662 2618 3021 3085 3021 3629 
C 3021 4301 2547 4755 1728 4755 
C 1120 4755 550 4499 442 3866 
C 480 3757 576 3706 685 3706 
C 845 3706 941 3776 998 3994 
L 1146 4486 
C 1306 4538 1453 4557 1606 4557 
C 2163 4557 2477 4205 2477 3610 
C 2477 2925 2035 2554 1414 2554 
L 1158 2554 
L 1158 2330 
L 1446 2330 
C 2214 2330 2611 1926 2611 1222 
C 2611 544 2202 102 1491 102 
C 1312 102 1158 134 1018 186 
L 864 685 
C 806 922 717 1011 563 1011 
C 442 1011 346 941 301 813 
C 429 218 909 -96 1638 -96 
z
" transform="scale(0.015625)"/>
       </defs>
       <use xlink:href="#NotoSerifCJKjp-Regular-14"/>
       <use xlink:href="#NotoSerifCJKjp-Regular-11" transform="translate(55.703125 0)"/>
      </g>
     </g>
    </g>
    <g id="ytick_5">
     <g id="line2d_11">
      <path d="M 24.7925 80.014855 
L 631.7125 80.014855 
" clip-path="url(#p63f932f34b)" style="fill: none; stroke-dasharray: 2.96,1.28; stroke-dashoffset: 0; stroke: #b0b0b0; stroke-opacity: 0.35; stroke-width: 0.8"/>
     </g>
     <g id="line2d_12">
      <g>
       <use xlink:href="#m86786c295e" x="24.7925" y="80.014855" style="fill: #333333; stroke: #333333; stroke-width: 0.8"/>
      </g>
     </g>
     <g id="text_7">
      <!-- 40 -->
      <g style="fill: #333333" transform="translate(7.228203 84.194855) scale(0.095 -0.095)">
       <defs>
        <path id="NotoSerifCJKjp-Regular-15" d="M 2170 -115 
L 2650 -115 
L 2650 1229 
L 3418 1229 
L 3418 1600 
L 2650 1600 
L 2650 4730 
L 2291 4730 
L 218 1530 
L 218 1229 
L 2170 1229 
L 2170 -115 
z
M 493 1600 
L 1389 2989 
L 2170 4211 
L 2170 1600 
L 493 1600 
z
" transform="scale(0.015625)"/>
       </defs>
       <use xlink:href="#NotoSerifCJKjp-Regular-15"/>
       <use xlink:href="#NotoSerifCJKjp-Regular-11" transform="translate(55.5 0)"/>
      </g>
     </g>
    </g>
    <g id="ytick_6">
     <g id="line2d_13">
      <path d="M 24.7925 45.697427 
L 631.7125 45.697427 
" clip-path="url(#p63f932f34b)" style="fill: none; stroke-dasharray: 2.96,1.28; stroke-dashoffset: 0; stroke: #b0b0b0; stroke-opacity: 0.35; stroke-width: 0.8"/>
     </g>
     <g id="line2d_14">
      <g>
       <use xlink:href="#m86786c295e" x="24.7925" y="45.697427" style="fill: #333333; stroke: #333333; stroke-width: 0.8"/>
      </g>
     </g>
     <g id="text_8">
      <!-- 50 -->
      <g style="fill: #333333" transform="translate(7.2 49.877427) scale(0.095 -0.095)">
       <defs>
        <path id="NotoSerifCJKjp-Regular-16" d="M 1574 -96 
C 2573 -96 3213 499 3213 1408 
C 3213 2317 2624 2803 1709 2803 
C 1421 2803 1158 2765 902 2656 
L 1005 4211 
L 3091 4211 
L 3091 4659 
L 800 4659 
L 653 2458 
L 813 2394 
C 1037 2496 1286 2547 1562 2547 
C 2221 2547 2650 2176 2650 1382 
C 2650 563 2234 102 1498 102 
C 1293 102 1146 134 998 198 
L 845 691 
C 794 928 710 1005 550 1005 
C 429 1005 326 941 282 819 
C 397 230 883 -96 1574 -96 
z
" transform="scale(0.015625)"/>
       </defs>
       <use xlink:href="#NotoSerifCJKjp-Regular-16"/>
       <use xlink:href="#NotoSerifCJKjp-Regular-11" transform="translate(55.796875 0)"/>
      </g>
     </g>
    </g>
    <g id="ytick_7">
     <g id="line2d_15">
      <path d="M 24.7925 11.38 
L 631.7125 11.38 
" clip-path="url(#p63f932f34b)" style="fill: none; stroke-dasharray: 2.96,1.28; stroke-dashoffset: 0; stroke: #b0b0b0; stroke-opacity: 0.35; stroke-width: 0.8"/>
     </g>
     <g id="line2d_16">
      <g>
       <use xlink:href="#m86786c295e" x="24.7925" y="11.38" style="fill: #333333; stroke: #333333; stroke-width: 0.8"/>
      </g>
     </g>
     <g id="text_9">
      <!-- 60 -->
      <g style="fill: #333333" transform="translate(7.2 15.56) scale(0.095 -0.095)">
       <defs>
        <path id="NotoSerifCJKjp-Regular-17" d="M 1850 -96 
C 2656 -96 3258 538 3258 1414 
C 3258 2253 2803 2816 2029 2816 
C 1606 2816 1248 2650 941 2323 
C 1107 3450 1850 4339 3136 4614 
L 3104 4755 
C 1414 4557 358 3258 358 1773 
C 358 634 922 -96 1850 -96 
z
M 922 2118 
C 1222 2432 1523 2554 1856 2554 
C 2394 2554 2726 2144 2726 1376 
C 2726 557 2342 102 1856 102 
C 1261 102 909 736 909 1830 
L 922 2118 
z
" transform="scale(0.015625)"/>
       </defs>
       <use xlink:href="#NotoSerifCJKjp-Regular-17"/>
       <use xlink:href="#NotoSerifCJKjp-Regular-11" transform="translate(55.796875 0)"/>
      </g>
     </g>
    </g>
   </g>
   <g id="patch_3">
    <path d="M 24.7925 217.284564 
L 24.7925 10.093096 
" style="fill: none; stroke: #000000; stroke-width: 0.8; stroke-linejoin: miter; stroke-linecap: square"/>
   </g>
   <g id="patch_4">
    <path d="M 24.7925 217.284564 
L 631.7125 217.284564 
" style="fill: none; stroke: #000000; stroke-width: 0.8; stroke-linejoin: miter; stroke-linecap: square"/>
   </g>
   <g id="patch_5">
    <path d="M 52.379773 217.284564 
L 248.160418 217.284564 
L 248.160418 19.959357 
L 52.379773 19.959357 
z
" clip-path="url(#p63f932f34b)" style="fill: #1a56db"/>
   </g>
   <g id="patch_6">
    <path d="M 408.344582 217.284564 
L 604.125227 217.284564 
L 604.125227 71.435498 
L 408.344582 71.435498 
z
" clip-path="url(#p63f932f34b)" style="fill: #1a56db"/>
   </g>
   <g id="text_10">
    <!-- 57.5 -->
    <g transform="translate(140.2424 17.103485) scale(0.095 -0.095)">
     <defs>
      <path id="NotoSerifCJKjp-Bold-16" d="M 1670 -102 
C 2733 -102 3475 448 3475 1402 
C 3475 2342 2835 2835 1811 2835 
C 1510 2835 1235 2803 966 2714 
L 1062 4064 
L 3322 4064 
L 3322 4742 
L 819 4742 
L 666 2502 
L 845 2400 
C 1069 2477 1293 2522 1549 2522 
C 2163 2522 2560 2118 2560 1363 
C 2560 550 2163 109 1523 109 
C 1363 109 1248 128 1133 173 
L 1018 762 
C 973 1088 845 1210 621 1210 
C 461 1210 314 1126 250 960 
C 326 301 845 -102 1670 -102 
z
" transform="scale(0.015625)"/>
      <path id="NotoSerifCJKjp-Bold-18" d="M 954 0 
L 1670 0 
L 3341 4314 
L 3341 4742 
L 371 4742 
L 371 4064 
L 2970 4064 
L 896 58 
L 954 0 
z
" transform="scale(0.015625)"/>
      <path id="NotoSerifCJKjp-Bold-f" d="M 1075 -102 
C 1370 -102 1594 128 1594 416 
C 1594 704 1370 941 1075 941 
C 774 941 550 704 550 416 
C 550 128 774 -102 1075 -102 
z
" transform="scale(0.015625)"/>
     </defs>
     <use xlink:href="#NotoSerifCJKjp-Bold-16"/>
     <use xlink:href="#NotoSerifCJKjp-Bold-18" transform="translate(59.40625 0)"/>
     <use xlink:href="#NotoSerifCJKjp-Bold-f" transform="translate(118.203125 0)"/>
     <use xlink:href="#NotoSerifCJKjp-Bold-16" transform="translate(151.703125 0)"/>
    </g>
   </g>
   <g id="text_11">
    <!-- 42.5 -->
    <g transform="translate(496.183459 68.579626) scale(0.095 -0.095)">
     <defs>
      <path id="NotoSerifCJKjp-Bold-15" d="M 2144 -102 
L 2912 -102 
L 2912 1133 
L 3629 1133 
L 3629 1696 
L 2912 1696 
L 2912 4819 
L 2317 4819 
L 211 1587 
L 211 1133 
L 2144 1133 
L 2144 -102 
z
M 538 1696 
L 1402 3034 
L 2144 4186 
L 2144 1696 
L 538 1696 
z
" transform="scale(0.015625)"/>
      <path id="NotoSerifCJKjp-Bold-13" d="M 390 0 
L 3482 0 
L 3482 672 
L 845 672 
C 1178 986 1504 1293 1702 1466 
C 2816 2426 3341 2912 3341 3571 
C 3341 4326 2880 4845 1920 4845 
C 1139 4845 442 4461 378 3738 
C 442 3590 582 3488 742 3488 
C 922 3488 1101 3584 1165 3955 
L 1306 4589 
C 1414 4621 1523 4634 1632 4634 
C 2157 4634 2464 4262 2464 3616 
C 2464 2963 2163 2534 1472 1734 
C 1158 1370 781 934 390 499 
L 390 0 
z
" transform="scale(0.015625)"/>
     </defs>
     <use xlink:href="#NotoSerifCJKjp-Bold-15"/>
     <use xlink:href="#NotoSerifCJKjp-Bold-13" transform="translate(59.296875 0)"/>
     <use xlink:href="#NotoSerifCJKjp-Bold-f" transform="translate(118.703125 0)"/>
     <use xlink:href="#NotoSerifCJKjp-Bold-16" transform="translate(152.203125 0)"/>
    </g>
   </g>
  </g>
 </g>
 <defs>
  <clipPath id="p63f932f34b">
   <rect x="24.7925" y="10.093096" width="606.92" height="207.191467"/>
  </clipPath>
 </defs>
</svg>
