<?xml version="1.0" encoding="utf-8" standalone="no"?>
<!DOCTYPE svg PUBLIC "-//W3C//DTD SVG 1.1//EN"
  "http://www.w3.org/Graphics/SVG/1.1/DTD/svg11.dtd">
<svg xmlns:xlink="http://www.w3.org/1999/xlink" width="638.264297pt" height="242.249424pt" viewBox="0 0 638.264297 242.249424" xmlns="http://www.w3.org/2000/svg" version="1.1">
 <metadata>
  <rdf:RDF xmlns:dc="http://purl.org/dc/elements/1.1/" xmlns:cc="http://creativecommons.org/ns#" xmlns:rdf="http://www.w3.org/1999/02/22-rdf-syntax-ns#">
   <cc:Work>
    <dc:type rdf:resource="http://purl.org/dc/dcmitype/StillImage"/>
    <dc:date>2026-06-11T23:50:17.552391</dc:date>
    <dc:format>image/svg+xml</dc:format>
    <dc:creator>
     <cc:Agent>
      <dc:title>Matplotlib v3.10.9, https://matplotlib.org/</dc:title>
     </cc:Agent>
    </dc:creator>
   </cc:Work>
  </rdf:RDF>
 </metadata>
 <defs>
  <style type="text/css">*{stroke-linejoin: round; stroke-linecap: butt}</style>
 </defs>
 <g id="figure_1">
  <g id="patch_1">
   <path d="M 0 242.249424 
L 638.264297 242.249424 
L 638.264297 0 
L 0 0 
z
" style="fill: #ffffff"/>
  </g>
  <g id="axes_1">
   <g id="patch_2">
    <path d="M 30.084297 217.931924 
L 631.064297 217.931924 
L 631.064297 7.942674 
L 30.084297 7.942674 
z
" style="fill: #fafafa"/>
   </g>
   <g id="matplotlib.axis_1">
    <g id="xtick_1">
     <g id="line2d_1">
      <defs>
       <path id="m5c819cc0bb" d="M 0 0 
L 0 3.5 
" style="stroke: #333333; stroke-width: 0.8"/>
      </defs>
      <g>
       <use xlink:href="#m5c819cc0bb" x="154.333828" y="217.931924" style="fill: #333333; stroke: #333333; stroke-width: 0.8"/>
      </g>
     </g>
     <g id="text_1">
      <!-- 谷歌付苹果·买 Safari 默认搜索（2022，法庭作证） -->
      <g style="fill: #333333" transform="translate(45.402226 232.579424) scale(0.095 -0.095)">
       <defs>
        <path id="NotoSerifCJKjp-Regular-8c37" d="M 3891 5216 
L 3827 5152 
C 4378 4762 5101 4077 5350 3539 
C 5920 3226 6112 4467 3891 5216 
z
M 2630 5005 
L 1997 5306 
C 1734 4685 1171 3827 563 3270 
L 634 3194 
C 1382 3661 2022 4378 2387 4934 
C 2534 4902 2592 4934 2630 5005 
z
M 2010 -352 
L 2010 -26 
L 4384 -26 
L 4384 -467 
L 4448 -467 
C 4595 -467 4800 -371 4806 -333 
L 4806 1741 
C 4941 1766 5043 1818 5088 1869 
L 4563 2278 
L 4320 2010 
L 2048 2010 
L 1638 2202 
C 2355 2707 2976 3322 3341 3910 
C 3782 2976 4736 2176 5779 1677 
C 5824 1850 5978 2003 6176 2042 
L 6189 2138 
C 5069 2541 4013 3187 3462 3994 
C 3622 4006 3699 4038 3725 4115 
L 2950 4294 
C 2618 3373 1363 2138 256 1549 
L 307 1453 
C 749 1638 1184 1888 1594 2170 
L 1594 -493 
L 1664 -493 
C 1837 -493 2010 -397 2010 -352 
z
M 4384 166 
L 2010 166 
L 2010 1818 
L 4384 1818 
L 4384 166 
z
" transform="scale(0.015625)"/>
        <path id="NotoSerifCJKjp-Regular-6b4c" d="M 678 4218 
L 678 2739 
L 730 2739 
C 928 2739 1056 2829 1056 2867 
L 1056 3123 
L 1741 3123 
L 1741 2861 
L 1798 2861 
C 1901 2861 2048 2918 2093 2963 
L 2093 2899 
C 2291 2874 2387 2835 2451 2778 
C 2509 2714 2528 2605 2534 2490 
C 2995 2541 3059 2758 3059 3072 
L 3059 4666 
L 3456 4666 
C 3546 4666 3603 4698 3622 4768 
C 3424 4947 3104 5210 3104 5210 
L 2816 4851 
L 288 4851 
L 339 4666 
L 2669 4666 
L 2669 3078 
C 2669 3002 2650 2970 2566 2970 
L 2118 3002 
L 2118 4000 
C 2214 4013 2298 4051 2323 4096 
L 1888 4429 
L 1690 4218 
L 1126 4218 
L 678 4422 
L 678 4218 
z
M 230 2330 
L 282 2144 
L 2682 2144 
L 2682 128 
C 2682 38 2656 13 2547 13 
C 2432 13 1875 51 1875 51 
L 1875 -45 
C 2138 -77 2278 -122 2355 -192 
C 2432 -250 2464 -358 2470 -474 
C 2995 -422 3072 -198 3072 115 
L 3072 2144 
L 3488 2144 
C 3578 2144 3642 2176 3648 2246 
C 3456 2432 3130 2688 3130 2688 
L 2842 2330 
L 230 2330 
z
M 1056 4038 
L 1741 4038 
L 1741 3309 
L 1056 3309 
L 1056 4038 
z
M 1024 1491 
L 1760 1491 
L 1760 710 
L 1024 710 
L 1024 1491 
z
M 646 1677 
L 646 70 
L 704 70 
C 896 70 1024 173 1024 198 
L 1024 525 
L 1760 525 
L 1760 224 
L 1818 224 
C 1933 224 2131 307 2138 346 
L 2138 1459 
C 2227 1472 2317 1517 2342 1555 
L 1907 1888 
L 1709 1677 
L 1107 1677 
L 646 1875 
L 646 1677 
z
M 4096 5363 
C 3942 4422 3603 3507 3213 2893 
L 3309 2835 
C 3597 3117 3853 3482 4070 3898 
L 4294 3898 
C 4282 2291 4243 768 3040 -390 
L 3136 -493 
C 4250 352 4557 1466 4659 2714 
C 4781 1312 5082 179 5830 -493 
C 5888 -262 6016 -166 6214 -141 
L 6227 -64 
C 5107 736 4813 2054 4717 3898 
L 5504 3898 
C 5402 3539 5229 3034 5094 2720 
L 5184 2675 
C 5446 2976 5792 3488 5971 3821 
C 6099 3827 6170 3840 6221 3891 
L 5741 4352 
L 5478 4077 
L 4154 4077 
C 4301 4378 4422 4710 4518 5056 
C 4659 5056 4730 5114 4755 5190 
L 4096 5363 
z
" transform="scale(0.015625)"/>
        <path id="NotoSerifCJKjp-Regular-4ed8" d="M 2477 2867 
L 2400 2822 
C 2739 2426 3168 1798 3283 1325 
C 3750 973 4077 2003 2477 2867 
z
M 4589 5286 
L 4589 3712 
L 1990 3712 
L 2042 3526 
L 4589 3526 
L 4589 224 
C 4589 109 4550 58 4390 58 
C 4205 58 3251 128 3251 128 
L 3251 26 
C 3642 -26 3878 -90 4006 -160 
C 4128 -237 4173 -339 4211 -486 
C 4941 -410 5024 -166 5024 186 
L 5024 3526 
L 6016 3526 
C 6106 3526 6170 3558 6182 3629 
C 5984 3827 5651 4109 5651 4109 
L 5350 3712 
L 5024 3712 
L 5024 5037 
C 5184 5062 5242 5120 5254 5216 
L 4589 5286 
z
M 1696 5363 
C 1370 4122 781 2886 211 2106 
L 301 2042 
C 595 2323 877 2662 1133 3053 
L 1133 -499 
L 1210 -499 
C 1370 -499 1549 -390 1555 -352 
L 1555 3386 
C 1664 3405 1722 3450 1741 3507 
L 1472 3603 
C 1715 4045 1933 4525 2118 5024 
C 2259 5018 2336 5075 2368 5152 
L 1696 5363 
z
" transform="scale(0.015625)"/>
        <path id="NotoSerifCJKjp-Regular-82f9" d="M 275 4602 
L 320 4422 
L 1952 4422 
L 1952 3750 
L 2016 3750 
C 2189 3750 2368 3814 2368 3872 
L 2368 4422 
L 3987 4422 
L 3987 3770 
L 4064 3770 
C 4269 3776 4410 3853 4410 3898 
L 4410 4422 
L 5952 4422 
C 6042 4422 6112 4454 6125 4518 
C 5920 4710 5574 4992 5574 4992 
L 5261 4602 
L 4410 4602 
L 4410 5120 
C 4570 5139 4621 5203 4634 5286 
L 3987 5350 
L 3987 4602 
L 2368 4602 
L 2368 5120 
C 2522 5139 2579 5203 2592 5286 
L 1952 5350 
L 1952 4602 
L 275 4602 
z
M 1888 3142 
C 1741 2714 1389 2112 986 1741 
L 1056 1658 
C 1562 1946 2003 2419 2246 2790 
C 2387 2771 2445 2803 2477 2867 
L 1888 3142 
z
M 3987 3066 
L 3923 3008 
C 4275 2746 4691 2272 4794 1875 
C 5261 1568 5536 2611 3987 3066 
z
M 243 1491 
L 294 1299 
L 2963 1299 
L 2963 -506 
L 3034 -506 
C 3245 -506 3386 -403 3386 -371 
L 3386 1299 
L 6010 1299 
C 6099 1299 6163 1331 6182 1402 
C 5965 1606 5606 1888 5606 1888 
L 5293 1491 
L 3386 1491 
L 3386 3392 
L 5696 3392 
C 5779 3392 5843 3424 5862 3494 
C 5651 3686 5306 3955 5306 3955 
L 5011 3578 
L 614 3578 
L 666 3392 
L 2963 3392 
L 2963 1491 
L 243 1491 
z
" transform="scale(0.015625)"/>
        <path id="NotoSerifCJKjp-Regular-679c" d="M 1133 5005 
L 1133 2394 
L 1203 2394 
C 1376 2394 1549 2490 1549 2534 
L 1549 2726 
L 2970 2726 
L 2970 1952 
L 294 1952 
L 352 1766 
L 2566 1766 
C 2029 1011 1171 275 211 -211 
L 269 -314 
C 1376 122 2330 768 2970 1562 
L 2970 -499 
L 3034 -499 
C 3245 -499 3386 -397 3386 -358 
L 3386 1766 
L 3443 1766 
C 3968 845 4877 115 5798 -282 
C 5850 -83 6003 45 6170 64 
L 6182 141 
C 5261 410 4198 1024 3603 1766 
L 5946 1766 
C 6035 1766 6106 1798 6125 1869 
C 5888 2074 5523 2355 5523 2355 
L 5197 1952 
L 3386 1952 
L 3386 2726 
L 4838 2726 
L 4838 2451 
L 4902 2451 
C 5050 2451 5254 2560 5261 2598 
L 5261 4762 
C 5370 4781 5466 4832 5504 4870 
L 5005 5254 
L 4781 5005 
L 1587 5005 
L 1133 5216 
L 1133 5005 
z
M 2970 4819 
L 2970 3974 
L 1549 3974 
L 1549 4819 
L 2970 4819 
z
M 3386 4819 
L 4838 4819 
L 4838 3974 
L 3386 3974 
L 3386 4819 
z
M 2970 3782 
L 2970 2912 
L 1549 2912 
L 1549 3782 
L 2970 3782 
z
M 3386 3782 
L 4838 3782 
L 4838 2912 
L 3386 2912 
L 3386 3782 
z
" transform="scale(0.015625)"/>
        <path id="NotoSerifCJKjp-Regular-b7" d="M 1043 1920 
C 1267 1920 1440 2099 1440 2310 
C 1440 2528 1267 2707 1043 2707 
C 813 2707 653 2528 653 2310 
C 653 2099 813 1920 1043 1920 
z
" transform="scale(0.015625)"/>
        <path id="NotoSerifCJKjp-Regular-4e70" d="M 1005 3206 
L 947 3136 
C 1382 2899 2003 2432 2246 2099 
C 2746 1901 2848 2867 1005 3206 
z
M 1517 4224 
L 1459 4160 
C 1856 3917 2426 3482 2656 3181 
C 3142 3008 3258 3898 1517 4224 
z
M 5568 2266 
L 5235 1856 
L 3757 1856 
C 3923 2502 3923 3264 3936 4147 
C 4090 4160 4141 4224 4160 4307 
L 3488 4384 
C 3488 3386 3514 2554 3315 1856 
L 339 1856 
L 390 1664 
L 3258 1664 
C 2938 762 2176 96 371 -397 
L 422 -518 
C 2195 -115 3066 448 3494 1210 
C 4608 685 5408 -13 5709 -467 
C 6234 -762 6502 448 3552 1318 
C 3610 1427 3654 1542 3699 1664 
L 5997 1664 
C 6086 1664 6144 1696 6163 1766 
C 5939 1978 5568 2266 5568 2266 
z
M 5197 4794 
L 762 4794 
L 819 4602 
L 5197 4602 
C 5088 4339 4947 3987 4838 3757 
L 4941 3757 
C 5178 3968 5504 4346 5690 4550 
C 5824 4557 5894 4563 5939 4608 
L 5466 5056 
L 5197 4794 
z
" transform="scale(0.015625)"/>
        <path id="NotoSerifCJKjp-Regular-20" transform="scale(0.015625)"/>
        <path id="NotoSerifCJKjp-Regular-53" d="M 1690 -102 
C 2669 -102 3315 397 3315 1197 
C 3315 1850 3014 2208 2042 2611 
L 1754 2726 
C 1248 2938 947 3206 947 3686 
C 947 4250 1376 4531 1978 4531 
C 2234 4531 2426 4486 2624 4371 
L 2797 3507 
L 3072 3507 
L 3098 4416 
C 2784 4640 2432 4768 1946 4768 
C 1120 4768 454 4352 454 3546 
C 454 2893 851 2490 1613 2170 
L 1888 2061 
C 2586 1773 2810 1523 2810 1056 
C 2810 442 2349 128 1651 128 
C 1318 128 1082 173 813 326 
L 640 1222 
L 378 1222 
L 339 269 
C 653 64 1158 -102 1690 -102 
z
" transform="scale(0.015625)"/>
        <path id="NotoSerifCJKjp-Regular-61" d="M 2925 -90 
C 3174 -90 3366 13 3501 237 
L 3398 333 
C 3296 218 3219 179 3110 179 
C 2938 179 2842 288 2842 691 
L 2842 2272 
C 2842 3066 2483 3398 1741 3398 
C 1018 3398 544 3085 416 2560 
C 454 2413 550 2330 698 2330 
C 858 2330 966 2413 1005 2643 
L 1101 3104 
C 1274 3168 1434 3200 1600 3200 
C 2106 3200 2330 3008 2330 2298 
L 2330 2035 
C 2048 1971 1747 1888 1478 1805 
C 634 1562 333 1235 333 736 
C 333 205 710 -96 1216 -96 
C 1677 -96 1965 115 2342 525 
C 2394 141 2573 -90 2925 -90 
z
M 2330 723 
C 1926 339 1696 218 1440 218 
C 1082 218 845 422 845 819 
C 845 1171 1056 1446 1594 1645 
C 1811 1728 2067 1798 2330 1869 
L 2330 723 
z
" transform="scale(0.015625)"/>
        <path id="NotoSerifCJKjp-Regular-66" d="M 800 0 
L 2016 0 
L 2016 179 
L 1363 237 
L 1350 1466 
L 1350 3066 
L 2336 3066 
L 2336 3302 
L 1344 3302 
C 1325 4032 1402 4397 1600 4698 
C 1696 4845 1830 4966 1990 5030 
L 2112 4902 
C 2291 4710 2426 4627 2592 4627 
C 2784 4627 2906 4736 2912 4890 
C 2848 5107 2573 5222 2266 5222 
C 1952 5222 1645 5114 1382 4864 
C 1043 4550 864 4096 819 3309 
L 211 3258 
L 211 3066 
L 819 3066 
L 819 1466 
L 806 237 
L 230 179 
L 230 0 
L 800 0 
z
" transform="scale(0.015625)"/>
        <path id="NotoSerifCJKjp-Regular-72" d="M 794 0 
L 1958 0 
L 1958 179 
L 1350 243 
L 1338 1466 
L 1338 2061 
C 1530 2579 1766 2886 2106 3046 
L 2163 2989 
C 2310 2835 2419 2746 2586 2746 
C 2810 2746 2912 2886 2918 3110 
C 2854 3296 2650 3398 2406 3398 
C 1978 3398 1549 3027 1338 2445 
L 1299 3328 
L 1216 3379 
L 230 3123 
L 230 2957 
L 794 2931 
C 806 2611 813 2291 813 1850 
L 813 1466 
L 800 237 
L 262 179 
L 262 0 
L 794 0 
z
" transform="scale(0.015625)"/>
        <path id="NotoSerifCJKjp-Regular-69" d="M 1043 4192 
C 1242 4192 1414 4339 1414 4550 
C 1414 4762 1242 4915 1043 4915 
C 838 4915 672 4762 672 4550 
C 672 4339 838 4192 1043 4192 
z
M 806 0 
L 1856 0 
L 1856 179 
L 1363 230 
C 1357 589 1350 1120 1350 1466 
L 1350 2432 
L 1370 3328 
L 1293 3379 
L 237 3130 
L 237 2963 
L 806 2938 
C 819 2618 832 2278 832 1850 
L 832 1466 
C 832 1120 826 589 813 230 
L 275 179 
L 275 0 
L 806 0 
z
" transform="scale(0.015625)"/>
        <path id="NotoSerifCJKjp-Regular-9ed8" d="M 1978 1050 
L 1888 1011 
C 2035 774 2182 390 2182 90 
C 2502 -218 2893 480 1978 1050 
z
M 2618 1235 
L 2541 1190 
C 2714 1011 2886 704 2912 461 
C 3245 186 3590 877 2618 1235 
z
M 1363 915 
L 1267 896 
C 1344 608 1395 166 1331 -179 
C 1606 -557 2099 147 1363 915 
z
M 819 838 
L 704 845 
C 710 512 525 115 358 -38 
C 237 -141 173 -282 243 -410 
C 333 -550 570 -506 685 -378 
C 851 -179 954 262 819 838 
z
M 1075 4506 
L 986 4480 
C 1094 4218 1222 3808 1229 3494 
C 1472 3232 1773 3808 1075 4506 
z
M 4947 4979 
L 4877 4941 
C 5075 4691 5318 4294 5376 3981 
C 5766 3680 6138 4474 4947 4979 
z
M 2746 4365 
L 2317 4512 
C 2278 4256 2182 3750 2093 3437 
L 2176 3405 
C 2349 3680 2509 4019 2598 4230 
C 2662 4224 2714 4237 2746 4262 
L 2746 3136 
L 1984 3136 
L 1984 4813 
L 2746 4813 
L 2746 4365 
z
M 890 2758 
L 890 2944 
L 1619 2944 
L 1619 2330 
L 454 2330 
L 506 2144 
L 1619 2144 
L 1619 1536 
C 1030 1478 544 1434 262 1421 
L 454 922 
C 512 934 576 986 608 1062 
C 1811 1267 2694 1459 3354 1600 
L 3334 1702 
L 2010 1568 
L 2010 2144 
L 3110 2144 
C 3200 2144 3258 2176 3277 2246 
C 3098 2419 2816 2637 2816 2637 
L 2566 2330 
L 2010 2330 
L 2010 2944 
L 2746 2944 
L 2746 2739 
L 2797 2739 
C 2918 2739 3098 2835 3098 2874 
L 3098 4762 
C 3213 4781 3315 4826 3354 4870 
L 2893 5222 
L 2688 5005 
L 928 5005 
L 538 5190 
L 538 2643 
L 595 2643 
C 749 2643 890 2720 890 2758 
z
M 1645 3136 
L 890 3136 
L 890 4813 
L 1645 4813 
L 1645 3136 
z
M 5638 3699 
L 5370 3360 
L 4582 3360 
C 4608 3872 4614 4429 4621 5050 
C 4768 5069 4832 5139 4851 5229 
L 4205 5299 
C 4198 4576 4198 3936 4173 3360 
L 3213 3360 
L 3264 3174 
L 4166 3174 
C 4077 1562 3757 480 2598 -403 
L 2694 -506 
C 4102 346 4467 1453 4570 3110 
C 4704 1542 5030 358 5798 -429 
C 5894 -243 6042 -147 6208 -141 
L 6234 -77 
C 5370 570 4877 1722 4704 3174 
L 5965 3174 
C 6048 3174 6112 3206 6131 3277 
C 5946 3462 5638 3699 5638 3699 
z
" transform="scale(0.015625)"/>
        <path id="NotoSerifCJKjp-Regular-8ba4" d="M 877 5338 
L 800 5293 
C 1088 5011 1440 4538 1549 4173 
C 1997 3878 2285 4806 877 5338 
z
M 1555 3392 
C 1677 3418 1760 3462 1786 3507 
L 1363 3866 
L 1152 3635 
L 237 3635 
L 294 3450 
L 1139 3450 
L 1139 659 
C 1139 544 1114 499 909 397 
L 1197 -128 
C 1254 -102 1325 -32 1363 77 
C 1901 672 2374 1267 2624 1568 
L 2560 1651 
C 2208 1344 1850 1037 1555 794 
L 1555 3392 
z
M 4109 5030 
C 4269 5050 4320 5120 4326 5210 
L 3680 5274 
C 3674 3123 3738 1101 1677 -384 
L 1760 -493 
C 3443 512 3904 1869 4038 3309 
C 4218 1818 4659 422 5773 -474 
C 5837 -243 5978 -147 6189 -122 
L 6208 -51 
C 4704 966 4243 2502 4090 4243 
L 4109 5030 
z
" transform="scale(0.015625)"/>
        <path id="NotoSerifCJKjp-Regular-641c" d="M 218 2048 
L 486 1536 
C 544 1562 595 1619 608 1702 
L 1158 1997 
L 1158 147 
C 1158 51 1126 19 1018 19 
C 909 19 352 58 352 58 
L 352 -45 
C 602 -77 736 -122 826 -192 
C 902 -256 934 -371 954 -499 
C 1498 -435 1555 -230 1555 109 
L 1555 2221 
L 2362 2694 
L 2336 2784 
L 1555 2496 
L 1555 3795 
L 2355 3795 
C 2438 3795 2502 3827 2515 3898 
C 2349 4083 2048 4346 2048 4346 
L 1792 3987 
L 1555 3987 
L 1555 5120 
C 1709 5139 1773 5203 1792 5293 
L 1158 5363 
L 1158 3987 
L 250 3987 
L 301 3795 
L 1158 3795 
L 1158 2355 
C 749 2214 410 2106 218 2048 
z
M 3469 5114 
C 3366 5005 3187 4832 3021 4691 
L 2554 4826 
L 2554 2157 
L 2611 2157 
C 2822 2157 2944 2259 2950 2298 
L 2950 2605 
L 3955 2605 
L 3955 1965 
L 4026 1965 
C 4179 1965 4346 2048 4346 2106 
L 4346 2605 
L 5376 2605 
L 5376 2253 
L 5434 2253 
C 5568 2253 5773 2349 5773 2387 
L 5773 4448 
C 5882 4467 5984 4512 6016 4563 
L 5536 4934 
L 5312 4691 
L 4550 4691 
L 4608 4506 
L 5376 4506 
L 5376 3738 
L 4538 3738 
L 4595 3552 
L 5376 3552 
L 5376 2790 
L 4346 2790 
L 4346 5114 
C 4493 5139 4544 5197 4557 5280 
L 3955 5344 
L 3955 2790 
L 2950 2790 
L 2950 3552 
L 3674 3552 
C 3763 3552 3821 3584 3834 3648 
C 3693 3808 3469 4006 3469 4006 
L 3270 3738 
L 2950 3738 
L 2950 4512 
L 3027 4531 
L 3072 4544 
C 3328 4608 3584 4704 3731 4774 
C 3821 4749 3878 4762 3910 4800 
L 3469 5114 
z
M 5030 1619 
C 4826 1222 4538 877 4173 589 
C 3731 851 3373 1190 3130 1619 
L 5030 1619 
z
M 2221 1811 
L 2278 1619 
L 2976 1619 
C 3187 1107 3488 698 3878 378 
C 3347 32 2694 -218 1920 -390 
L 1958 -499 
C 2829 -365 3552 -141 4128 186 
C 4589 -128 5146 -352 5798 -506 
C 5856 -294 5990 -154 6176 -122 
L 6176 -58 
C 5555 38 4979 192 4493 422 
C 4922 730 5254 1114 5510 1568 
C 5664 1568 5741 1587 5786 1645 
L 5331 2061 
L 5050 1811 
L 2221 1811 
z
" transform="scale(0.015625)"/>
        <path id="NotoSerifCJKjp-Regular-7d22" d="M 4051 909 
L 4000 832 
C 4538 576 5286 70 5574 -346 
C 6125 -531 6144 557 4051 909 
z
M 1882 966 
C 1549 550 877 19 256 -294 
L 320 -384 
C 1030 -160 1773 256 2170 614 
C 2310 582 2362 602 2406 659 
L 1882 966 
z
M 1011 4026 
C 947 3488 666 3194 358 3066 
C 13 2630 1082 2394 1139 3539 
L 5325 3539 
C 5235 3270 5088 2931 4966 2707 
L 5050 2656 
C 5338 2854 5677 3187 5862 3450 
C 5997 3456 6067 3469 6118 3520 
L 5600 4019 
L 5312 3718 
L 3398 3718 
L 3398 4461 
L 5760 4461 
C 5856 4461 5920 4493 5939 4563 
C 5709 4768 5350 5037 5350 5037 
L 5024 4653 
L 3398 4653 
L 3398 5101 
C 3558 5120 3622 5184 3635 5274 
L 2989 5338 
L 2989 4653 
L 506 4653 
L 557 4461 
L 2989 4461 
L 2989 3718 
L 1139 3718 
C 1139 3808 1133 3910 1114 4019 
L 1011 4026 
z
M 3872 3200 
C 3571 2803 2925 2112 2355 1632 
C 1594 1619 973 1613 582 1613 
L 832 1082 
C 896 1094 960 1139 1005 1210 
L 2976 1363 
L 2976 -493 
L 3046 -493 
C 3251 -493 3392 -403 3392 -378 
L 3392 1402 
C 4013 1453 4550 1504 5005 1555 
C 5152 1395 5267 1235 5331 1088 
C 5824 845 5958 1901 4173 2323 
L 4109 2253 
C 4346 2118 4627 1920 4858 1696 
L 2605 1638 
C 3232 2042 3853 2560 4179 2874 
C 4294 2848 4358 2861 4390 2918 
L 3872 3200 
z
M 2560 3507 
C 2464 3309 2259 2970 2067 2701 
C 1882 2784 1645 2854 1338 2886 
L 1280 2816 
C 1651 2643 2125 2285 2278 1958 
C 2624 1818 2771 2298 2214 2624 
C 2496 2803 2771 3021 2918 3168 
C 3053 3136 3142 3187 3168 3245 
L 2560 3507 
z
" transform="scale(0.015625)"/>
        <path id="NotoSerifCJKjp-Regular-ff08" d="M 5997 5299 
L 5888 5427 
C 5024 4877 4166 3974 4166 2432 
C 4166 890 5024 -13 5888 -563 
L 5997 -435 
C 5254 166 4589 1088 4589 2432 
C 4589 3776 5254 4698 5997 5299 
z
" transform="scale(0.015625)"/>
        <path id="NotoSerifCJKjp-Regular-32" d="M 410 0 
L 3270 0 
L 3270 448 
L 762 448 
C 1152 877 1530 1293 1715 1485 
C 2688 2483 3078 2950 3078 3539 
C 3078 4294 2637 4755 1779 4755 
C 1126 4755 512 4422 410 3770 
C 448 3642 550 3571 672 3571 
C 819 3571 922 3654 986 3904 
L 1139 4461 
C 1306 4531 1466 4557 1626 4557 
C 2195 4557 2534 4192 2534 3552 
C 2534 2989 2253 2541 1574 1722 
C 1261 1350 832 845 410 346 
L 410 0 
z
" transform="scale(0.015625)"/>
        <path id="NotoSerifCJKjp-Regular-30" d="M 1779 -96 
C 2547 -96 3258 602 3258 2342 
C 3258 4058 2547 4755 1779 4755 
C 1011 4755 301 4058 301 2342 
C 301 602 1011 -96 1779 -96 
z
M 1779 102 
C 1299 102 832 640 832 2342 
C 832 4019 1299 4550 1779 4550 
C 2253 4550 2726 4019 2726 2342 
C 2726 640 2253 102 1779 102 
z
" transform="scale(0.015625)"/>
        <path id="NotoSerifCJKjp-Regular-ff0c" d="M 1152 -166 
C 890 -70 576 38 576 365 
C 576 570 730 755 992 755 
C 1293 755 1466 499 1466 154 
C 1466 -320 1254 -934 589 -1254 
L 486 -1094 
C 979 -819 1126 -442 1152 -166 
z
" transform="scale(0.015625)"/>
        <path id="NotoSerifCJKjp-Regular-6cd5" d="M 800 5274 
L 736 5216 
C 1030 5018 1376 4666 1478 4365 
C 1958 4109 2202 5062 800 5274 
z
M 301 3834 
L 243 3770 
C 525 3603 864 3277 973 3002 
C 1434 2746 1664 3674 301 3834 
z
M 672 1286 
C 608 1286 384 1286 384 1286 
L 384 1152 
C 525 1139 621 1120 704 1062 
C 845 966 883 474 794 -179 
C 806 -384 883 -499 1005 -499 
C 1216 -499 1344 -333 1350 -58 
C 1376 461 1197 755 1190 1037 
C 1190 1197 1235 1395 1293 1594 
C 1389 1907 1952 3430 2234 4243 
L 2112 4275 
C 954 1651 954 1651 832 1421 
C 774 1293 749 1286 672 1286 
z
M 1805 218 
L 2067 -384 
C 2131 -371 2195 -320 2234 -243 
C 3597 -26 4608 160 5370 320 
C 5517 77 5638 -160 5709 -365 
C 6246 -749 6534 422 4512 1606 
L 4435 1555 
C 4698 1254 5024 851 5286 454 
C 4397 384 3552 320 2886 275 
C 3309 800 3763 1587 4077 2266 
L 6029 2266 
C 6118 2266 6170 2298 6189 2368 
C 5984 2566 5638 2842 5638 2842 
L 5331 2451 
L 4122 2451 
L 4122 3744 
L 5792 3744 
C 5875 3744 5939 3776 5958 3846 
C 5747 4045 5408 4314 5408 4314 
L 5107 3936 
L 4122 3936 
L 4122 5056 
C 4275 5082 4333 5146 4352 5235 
L 3693 5306 
L 3693 3936 
L 2227 3936 
L 2278 3744 
L 3693 3744 
L 3693 2451 
L 1888 2451 
L 1939 2266 
L 3501 2266 
C 3309 1645 2982 813 2688 262 
L 1805 218 
z
" transform="scale(0.015625)"/>
        <path id="NotoSerifCJKjp-Regular-5ead" d="M 3168 2342 
L 3206 2195 
L 2810 2541 
L 2566 2304 
L 2125 2304 
C 2342 2701 2579 3136 2714 3411 
C 2848 3424 2963 3450 3014 3501 
L 2547 3917 
L 2317 3674 
L 1466 3674 
L 1523 3488 
L 2298 3488 
C 2093 3046 1786 2432 1510 1952 
C 1670 1875 1792 1869 1894 1894 
L 2016 2112 
L 2592 2112 
C 2515 1632 2374 1190 2157 800 
C 1990 1011 1850 1280 1728 1619 
L 1632 1568 
C 1754 1184 1888 870 2048 621 
C 1786 218 1421 -128 922 -397 
L 973 -493 
C 1530 -275 1933 19 2240 371 
C 2726 -186 3424 -333 4448 -333 
C 4813 -333 5587 -333 5920 -333 
C 5926 -166 6010 -45 6170 -13 
L 6170 77 
C 5747 64 4870 64 4480 64 
C 3533 64 2867 154 2387 563 
C 2707 998 2893 1510 3014 2067 
C 3149 2080 3213 2099 3258 2150 
L 4314 2150 
L 4314 838 
L 3206 838 
L 3251 653 
L 5888 653 
C 5978 653 6042 685 6061 749 
C 5856 941 5536 1197 5536 1197 
L 5248 838 
L 4710 838 
L 4710 2150 
L 5971 2150 
C 6054 2150 6118 2182 6138 2253 
C 5939 2438 5619 2707 5619 2707 
L 5331 2342 
L 4710 2342 
L 4710 3456 
C 5037 3520 5338 3590 5581 3654 
C 5722 3597 5830 3597 5882 3648 
L 5440 4051 
C 4941 3808 3968 3514 3162 3373 
L 3194 3258 
C 3558 3277 3949 3328 4314 3386 
L 4314 2342 
L 3168 2342 
z
M 858 4512 
L 858 2925 
C 858 1792 813 570 269 -422 
L 371 -493 
C 1216 486 1267 1888 1267 2925 
L 1267 4326 
L 5965 4326 
C 6054 4326 6118 4358 6131 4429 
C 5914 4634 5562 4909 5562 4909 
L 5248 4512 
L 3552 4512 
L 3552 5120 
C 3706 5146 3770 5210 3782 5299 
L 3136 5363 
L 3136 4512 
L 1344 4512 
L 858 4730 
L 858 4512 
z
" transform="scale(0.015625)"/>
        <path id="NotoSerifCJKjp-Regular-4f5c" d="M 3334 5357 
C 3002 4256 2432 3174 1894 2502 
L 1984 2432 
C 2413 2803 2816 3309 3168 3891 
L 3667 3891 
L 3667 -499 
L 3738 -499 
C 3955 -499 4096 -397 4096 -365 
L 4096 1184 
L 5850 1184 
C 5939 1184 6003 1216 6022 1286 
C 5798 1491 5459 1760 5459 1760 
L 5158 1376 
L 4096 1376 
L 4096 2560 
L 5734 2560 
C 5824 2560 5882 2592 5901 2662 
C 5702 2848 5370 3117 5370 3117 
L 5082 2746 
L 4096 2746 
L 4096 3891 
L 6016 3891 
C 6112 3891 6163 3923 6182 3994 
C 5971 4192 5626 4467 5626 4467 
L 5306 4077 
L 3277 4077 
C 3450 4371 3603 4685 3738 5005 
C 3878 4998 3955 5050 3981 5126 
L 3334 5357 
z
M 1811 5363 
C 1440 4122 806 2893 205 2131 
L 294 2067 
C 602 2349 902 2688 1178 3078 
L 1178 -499 
L 1254 -499 
C 1414 -499 1594 -397 1594 -365 
L 1594 3373 
C 1709 3386 1766 3430 1786 3488 
L 1510 3590 
C 1779 4032 2016 4512 2214 5018 
C 2355 5005 2432 5062 2464 5139 
L 1811 5363 
z
" transform="scale(0.015625)"/>
        <path id="NotoSerifCJKjp-Regular-8bc1" d="M 717 5318 
L 640 5274 
C 915 4986 1267 4506 1363 4147 
C 1798 3846 2106 4736 717 5318 
z
M 1491 3398 
C 1619 3424 1702 3475 1728 3520 
L 1312 3872 
L 1101 3648 
L 192 3648 
L 250 3456 
L 1094 3456 
L 1094 621 
C 1094 499 1062 461 858 358 
L 1139 -160 
C 1197 -128 1274 -51 1312 70 
C 1798 550 2246 1037 2483 1280 
L 2426 1363 
L 1491 698 
L 1491 3398 
z
M 5587 442 
L 5286 45 
L 4358 45 
L 4358 2323 
L 5792 2323 
C 5882 2323 5952 2355 5965 2426 
C 5760 2624 5421 2886 5421 2886 
L 5133 2515 
L 4358 2515 
L 4358 4563 
L 5882 4563 
C 5965 4563 6029 4595 6048 4666 
C 5843 4858 5504 5126 5504 5126 
L 5210 4749 
L 2227 4749 
L 2278 4563 
L 3942 4563 
L 3942 45 
L 3014 45 
L 3014 3034 
C 3174 3059 3238 3123 3251 3213 
L 2611 3283 
L 2611 45 
L 1754 45 
L 1805 -141 
L 5984 -141 
C 6080 -141 6144 -109 6157 -38 
C 5939 160 5587 442 5587 442 
z
" transform="scale(0.015625)"/>
        <path id="NotoSerifCJKjp-Regular-ff09" d="M 512 5427 
L 403 5299 
C 1146 4698 1811 3776 1811 2432 
C 1811 1088 1146 166 403 -435 
L 512 -563 
C 1376 -13 2234 890 2234 2432 
C 2234 3974 1376 4877 512 5427 
z
" transform="scale(0.015625)"/>
       </defs>
       <use xlink:href="#NotoSerifCJKjp-Regular-8c37"/>
       <use xlink:href="#NotoSerifCJKjp-Regular-6b4c" transform="translate(99.999985 0)"/>
       <use xlink:href="#NotoSerifCJKjp-Regular-4ed8" transform="translate(199.999969 0)"/>
       <use xlink:href="#NotoSerifCJKjp-Regular-82f9" transform="translate(299.999954 0)"/>
       <use xlink:href="#NotoSerifCJKjp-Regular-679c" transform="translate(399.999939 0)"/>
       <use xlink:href="#NotoSerifCJKjp-Regular-b7" transform="translate(499.999924 0)"/>
       <use xlink:href="#NotoSerifCJKjp-Regular-4e70" transform="translate(532.699921 0)"/>
       <use xlink:href="#NotoSerifCJKjp-Regular-20" transform="translate(632.699905 0)"/>
       <use xlink:href="#NotoSerifCJKjp-Regular-53" transform="translate(658.299896 0)"/>
       <use xlink:href="#NotoSerifCJKjp-Regular-61" transform="translate(714.999893 0)"/>
       <use xlink:href="#NotoSerifCJKjp-Regular-66" transform="translate(770.69989 0)"/>
       <use xlink:href="#NotoSerifCJKjp-Regular-61" transform="translate(809.499878 0)"/>
       <use xlink:href="#NotoSerifCJKjp-Regular-72" transform="translate(865.199875 0)"/>
       <use xlink:href="#NotoSerifCJKjp-Regular-69" transform="translate(911.399872 0)"/>
       <use xlink:href="#NotoSerifCJKjp-Regular-20" transform="translate(944.599869 0)"/>
       <use xlink:href="#NotoSerifCJKjp-Regular-9ed8" transform="translate(970.19986 0)"/>
       <use xlink:href="#NotoSerifCJKjp-Regular-8ba4" transform="translate(1070.199844 0)"/>
       <use xlink:href="#NotoSerifCJKjp-Regular-641c" transform="translate(1170.199829 0)"/>
       <use xlink:href="#NotoSerifCJKjp-Regular-7d22" transform="translate(1270.199814 0)"/>
       <use xlink:href="#NotoSerifCJKjp-Regular-ff08" transform="translate(1370.199799 0)"/>
       <use xlink:href="#NotoSerifCJKjp-Regular-32" transform="translate(1470.199783 0)"/>
       <use xlink:href="#NotoSerifCJKjp-Regular-30" transform="translate(1525.999771 0)"/>
       <use xlink:href="#NotoSerifCJKjp-Regular-32" transform="translate(1581.699768 0)"/>
       <use xlink:href="#NotoSerifCJKjp-Regular-32" transform="translate(1637.499756 0)"/>
       <use xlink:href="#NotoSerifCJKjp-Regular-ff0c" transform="translate(1693.299744 0)"/>
       <use xlink:href="#NotoSerifCJKjp-Regular-6cd5" transform="translate(1793.299728 0)"/>
       <use xlink:href="#NotoSerifCJKjp-Regular-5ead" transform="translate(1893.299713 0)"/>
       <use xlink:href="#NotoSerifCJKjp-Regular-4f5c" transform="translate(1993.299698 0)"/>
       <use xlink:href="#NotoSerifCJKjp-Regular-8bc1" transform="translate(2093.299683 0)"/>
       <use xlink:href="#NotoSerifCJKjp-Regular-ff09" transform="translate(2193.299667 0)"/>
      </g>
     </g>
    </g>
    <g id="xtick_2">
     <g id="line2d_2">
      <g>
       <use xlink:href="#m5c819cc0bb" x="506.814766" y="217.931924" style="fill: #333333; stroke: #333333; stroke-width: 0.8"/>
      </g>
     </g>
     <g id="text_2">
      <!-- 苹果付谷歌·买 Gemini 模型（每年，报道） -->
      <g style="fill: #333333" transform="translate(414.541563 232.579424) scale(0.095 -0.095)">
       <defs>
        <path id="NotoSerifCJKjp-Regular-47" d="M 2874 2042 
L 3629 1978 
C 3642 1530 3648 1094 3648 646 
L 3648 301 
C 3366 179 3085 122 2765 122 
C 1690 122 966 966 966 2330 
C 966 3725 1722 4538 2790 4538 
C 3123 4538 3379 4474 3642 4326 
L 3827 3373 
L 4122 3373 
L 4102 4397 
C 3706 4634 3302 4768 2726 4768 
C 1325 4768 358 3789 358 2336 
C 358 877 1299 -102 2701 -102 
C 3264 -102 3693 19 4186 307 
L 4186 640 
C 4186 1146 4192 1581 4198 1990 
L 4666 2042 
L 4666 2234 
L 2874 2234 
L 2874 2042 
z
" transform="scale(0.015625)"/>
        <path id="NotoSerifCJKjp-Regular-65" d="M 1939 -96 
C 2515 -96 2944 166 3226 602 
L 3123 691 
C 2861 384 2534 224 2080 224 
C 1376 224 877 666 864 1683 
L 3168 1683 
C 3200 1786 3213 1914 3213 2067 
C 3213 2822 2720 3398 1888 3398 
C 1037 3398 307 2720 307 1645 
C 307 486 992 -96 1939 -96 
z
M 870 1882 
C 915 2714 1344 3194 1875 3194 
C 2394 3194 2701 2797 2701 2253 
C 2701 1997 2637 1882 2413 1882 
L 870 1882 
z
" transform="scale(0.015625)"/>
        <path id="NotoSerifCJKjp-Regular-6d" d="M 4979 0 
L 6022 0 
L 6022 179 
L 5536 230 
L 5523 1466 
L 5523 2195 
C 5523 3053 5203 3398 4614 3398 
C 4173 3398 3763 3181 3373 2707 
C 3264 3194 2982 3398 2554 3398 
C 2118 3398 1722 3162 1331 2707 
L 1299 3328 
L 1216 3379 
L 230 3123 
L 230 2963 
L 794 2931 
C 806 2611 813 2291 813 1856 
L 813 1466 
L 800 230 
L 269 179 
L 269 0 
L 1837 0 
L 1837 179 
L 1350 230 
L 1338 1466 
L 1338 2490 
C 1728 2899 2061 3053 2355 3053 
C 2701 3053 2912 2816 2912 2189 
L 2912 1466 
L 2899 230 
L 2368 179 
L 2368 0 
L 3930 0 
L 3930 179 
L 3437 230 
L 3424 1466 
L 3424 2189 
C 3424 2304 3418 2413 3405 2515 
C 3789 2918 4134 3053 4422 3053 
C 4787 3053 5005 2842 5005 2189 
L 5005 1466 
C 5005 1107 4998 589 4992 230 
L 4467 179 
L 4467 0 
L 4979 0 
z
" transform="scale(0.015625)"/>
        <path id="NotoSerifCJKjp-Regular-6e" d="M 2970 0 
L 4013 0 
L 4013 179 
L 3520 230 
L 3507 1466 
L 3507 2189 
C 3507 3053 3174 3398 2618 3398 
C 2195 3398 1766 3194 1331 2701 
L 1299 3328 
L 1216 3379 
L 230 3123 
L 230 2957 
L 794 2931 
C 806 2611 813 2291 813 1850 
L 813 1466 
L 800 230 
L 269 179 
L 269 0 
L 1837 0 
L 1837 179 
L 1350 230 
L 1338 1466 
L 1338 2496 
C 1760 2925 2131 3053 2400 3053 
C 2771 3053 2989 2835 2989 2202 
L 2989 1466 
L 2976 237 
L 2445 179 
L 2445 0 
L 2970 0 
z
" transform="scale(0.015625)"/>
        <path id="NotoSerifCJKjp-Regular-6a21" d="M 1222 5357 
L 1222 3898 
L 250 3898 
L 301 3706 
L 1146 3706 
C 986 2726 678 1760 173 1011 
L 262 928 
C 672 1376 992 1888 1222 2451 
L 1222 -493 
L 1306 -493 
C 1459 -493 1632 -397 1632 -339 
L 1632 2867 
C 1824 2605 2042 2253 2118 1971 
C 2490 1683 2829 2426 1632 3002 
L 1632 3706 
L 2458 3706 
C 2541 3706 2605 3738 2624 3808 
C 2426 4000 2112 4262 2112 4262 
L 1830 3898 
L 1632 3898 
L 1632 5107 
C 1798 5133 1843 5190 1862 5286 
L 1222 5357 
z
M 2701 3757 
L 2701 1619 
L 2758 1619 
C 2931 1619 3104 1715 3104 1754 
L 3104 1978 
L 3866 1978 
C 3853 1722 3840 1478 3789 1254 
L 2099 1254 
L 2150 1069 
L 3738 1069 
C 3558 493 3091 6 1843 -397 
L 1901 -499 
C 3482 -141 4006 378 4205 1069 
L 4262 1069 
C 4422 493 4806 -160 5882 -480 
C 5914 -224 6048 -141 6278 -96 
L 6291 -26 
C 5126 211 4602 614 4397 1069 
L 5971 1069 
C 6061 1069 6125 1094 6144 1165 
C 5939 1363 5606 1626 5606 1626 
L 5318 1254 
L 4250 1254 
C 4294 1478 4314 1722 4326 1978 
L 5178 1978 
L 5178 1715 
L 5235 1715 
C 5370 1715 5574 1818 5581 1856 
L 5581 3501 
C 5702 3526 5798 3578 5843 3622 
L 5338 4006 
L 5114 3757 
L 3142 3757 
L 2701 3955 
L 2701 3757 
z
M 4589 5331 
L 4589 4646 
L 3693 4646 
L 3693 5094 
C 3853 5120 3910 5178 3930 5274 
L 3296 5331 
L 3296 4646 
L 2298 4646 
L 2349 4461 
L 3296 4461 
L 3296 3930 
L 3366 3930 
C 3520 3930 3693 4013 3693 4058 
L 3693 4461 
L 4589 4461 
L 4589 3942 
L 4653 3942 
C 4813 3942 4986 4032 4986 4077 
L 4986 4461 
L 5958 4461 
C 6048 4461 6112 4493 6125 4563 
C 5933 4749 5626 4992 5626 4992 
L 5350 4646 
L 4986 4646 
L 4986 5094 
C 5146 5120 5203 5178 5222 5274 
L 4589 5331 
z
M 3104 2765 
L 5178 2765 
L 5178 2170 
L 3104 2170 
L 3104 2765 
z
M 3104 2957 
L 3104 3578 
L 5178 3578 
L 5178 2957 
L 3104 2957 
z
" transform="scale(0.015625)"/>
        <path id="NotoSerifCJKjp-Regular-578b" d="M 4006 5037 
L 4006 2637 
L 4083 2637 
C 4230 2637 4410 2720 4410 2771 
L 4410 4800 
C 4563 4826 4621 4877 4634 4966 
L 4006 5037 
z
M 5395 5331 
L 5395 2413 
C 5395 2330 5370 2298 5267 2298 
C 5165 2298 4640 2336 4640 2336 
L 4640 2234 
C 4870 2202 5005 2157 5088 2086 
C 5158 2016 5184 1914 5203 1786 
C 5734 1843 5798 2042 5798 2381 
L 5798 5094 
C 5946 5120 6010 5171 6022 5267 
L 5395 5331 
z
M 2374 4755 
L 2374 3674 
L 1568 3674 
L 1581 4006 
L 1581 4755 
L 2374 4755 
z
M 288 3674 
L 339 3494 
L 1158 3494 
C 1094 2931 877 2355 237 1862 
L 314 1779 
C 1203 2234 1472 2886 1549 3494 
L 2374 3494 
L 2374 1869 
L 2438 1869 
C 2643 1869 2778 1958 2778 1990 
L 2778 3494 
L 3616 3494 
C 3699 3494 3763 3526 3782 3597 
C 3584 3782 3258 4051 3258 4051 
L 2970 3674 
L 2778 3674 
L 2778 4755 
L 3514 4755 
C 3603 4755 3661 4787 3680 4858 
C 3482 5037 3155 5286 3155 5286 
L 2880 4934 
L 461 4934 
L 512 4755 
L 1184 4755 
L 1184 4000 
L 1171 3674 
L 288 3674 
z
M 282 -154 
L 339 -333 
L 5946 -333 
C 6042 -333 6106 -301 6125 -230 
C 5894 -32 5536 250 5536 250 
L 5216 -154 
L 3405 -154 
L 3405 1037 
L 5402 1037 
C 5491 1037 5555 1069 5574 1133 
C 5357 1338 5005 1606 5005 1606 
L 4704 1222 
L 3405 1222 
L 3405 1830 
C 3565 1856 3629 1920 3642 2003 
L 2982 2074 
L 2982 1222 
L 902 1222 
L 954 1037 
L 2982 1037 
L 2982 -154 
L 282 -154 
z
" transform="scale(0.015625)"/>
        <path id="NotoSerifCJKjp-Regular-6bcf" d="M 2624 3251 
L 2566 3187 
C 2893 3008 3315 2675 3469 2387 
C 3898 2189 4051 3040 2624 3251 
z
M 2432 1856 
L 2374 1786 
C 2739 1594 3200 1216 3366 902 
C 3827 691 3981 1613 2432 1856 
z
M 4736 3443 
C 4717 2989 4691 2573 4666 2195 
L 1747 2195 
L 1946 3443 
L 4736 3443 
z
M 243 2195 
L 294 2010 
L 1299 2010 
C 1184 1376 1056 723 941 186 
C 1171 128 1280 141 1382 198 
L 1446 499 
L 4435 499 
C 4384 314 4326 186 4262 128 
C 4186 58 4134 45 4000 45 
C 3859 45 3405 83 3123 109 
L 3117 0 
C 3366 -45 3629 -109 3725 -179 
C 3821 -243 3846 -358 3846 -480 
C 4141 -486 4397 -403 4576 -205 
C 4691 -83 4781 154 4864 499 
L 5786 499 
C 5875 499 5933 531 5952 602 
C 5760 794 5427 1056 5427 1056 
L 5146 691 
L 4902 691 
C 4973 1043 5024 1485 5069 2010 
L 6016 2010 
C 6106 2010 6176 2042 6182 2112 
C 5984 2304 5664 2566 5664 2566 
L 5370 2195 
L 5082 2195 
C 5107 2560 5126 2957 5146 3392 
C 5280 3405 5363 3437 5408 3494 
L 4915 3904 
L 4666 3635 
L 2067 3635 
L 1587 3840 
C 1530 3418 1440 2822 1331 2195 
L 243 2195 
z
M 4653 2010 
C 4608 1459 4550 1011 4480 691 
L 1478 691 
C 1562 1101 1638 1562 1715 2010 
L 4653 2010 
z
M 1869 5382 
C 1549 4506 1037 3699 531 3219 
L 614 3149 
C 1056 3430 1478 3834 1837 4333 
L 5734 4333 
C 5818 4333 5882 4365 5894 4435 
C 5670 4646 5318 4909 5318 4909 
L 5011 4518 
L 1958 4518 
C 2061 4678 2157 4845 2246 5018 
C 2387 5005 2464 5056 2496 5120 
L 1869 5382 
z
" transform="scale(0.015625)"/>
        <path id="NotoSerifCJKjp-Regular-5e74" d="M 1882 5466 
C 1491 4410 845 3418 237 2835 
L 314 2758 
C 845 3110 1350 3616 1779 4237 
L 3245 4237 
L 3245 3046 
L 1907 3046 
L 1395 3258 
L 1395 1376 
L 275 1376 
L 326 1184 
L 3245 1184 
L 3245 -493 
L 3315 -493 
C 3539 -493 3680 -390 3680 -358 
L 3680 1184 
L 5965 1184 
C 6054 1184 6118 1216 6138 1286 
C 5907 1498 5530 1779 5530 1779 
L 5197 1376 
L 3680 1376 
L 3680 2854 
L 5510 2854 
C 5606 2854 5670 2886 5683 2957 
C 5466 3155 5120 3424 5120 3424 
L 4819 3046 
L 3680 3046 
L 3680 4237 
L 5715 4237 
C 5805 4237 5862 4269 5882 4339 
C 5651 4557 5286 4826 5286 4826 
L 4960 4429 
L 1907 4429 
C 2042 4640 2170 4864 2285 5094 
C 2426 5082 2502 5133 2534 5203 
L 1882 5466 
z
M 3245 1376 
L 1830 1376 
L 1830 2854 
L 3245 2854 
L 3245 1376 
z
" transform="scale(0.015625)"/>
        <path id="NotoSerifCJKjp-Regular-62a5" d="M 2611 5242 
L 2611 -506 
L 2675 -506 
C 2886 -506 3021 -403 3021 -365 
L 3021 2618 
L 3373 2618 
C 3546 1843 3840 1190 4250 659 
C 3942 237 3552 -134 3059 -429 
L 3123 -518 
C 3674 -269 4102 58 4442 429 
C 4781 51 5197 -262 5670 -499 
C 5734 -320 5882 -211 6054 -198 
L 6074 -134 
C 5549 64 5075 352 4678 717 
C 5088 1267 5338 1901 5498 2573 
C 5645 2579 5702 2592 5754 2656 
L 5299 3066 
L 5043 2810 
L 3021 2810 
L 3021 4813 
L 5018 4813 
C 4979 4173 4915 3776 4819 3680 
C 4768 3642 4717 3629 4614 3629 
C 4493 3629 4083 3667 3853 3686 
L 3853 3578 
C 4051 3546 4288 3501 4371 3443 
C 4454 3379 4480 3283 4480 3187 
C 4710 3187 4915 3232 5056 3341 
C 5267 3507 5363 3968 5402 4768 
C 5530 4787 5606 4813 5645 4864 
L 5190 5235 
L 4966 4998 
L 3098 4998 
L 2611 5242 
z
M 1997 4275 
L 1741 3923 
L 1555 3923 
L 1555 5126 
C 1709 5146 1773 5197 1792 5286 
L 1146 5363 
L 1146 3923 
L 230 3923 
L 282 3738 
L 1146 3738 
L 1146 2374 
C 730 2214 390 2086 205 2029 
L 442 1510 
C 506 1536 557 1606 563 1683 
L 1146 2010 
L 1146 173 
C 1146 77 1114 45 998 45 
C 883 45 288 96 288 96 
L 288 -13 
C 550 -51 704 -96 787 -179 
C 870 -250 902 -365 922 -499 
C 1491 -442 1555 -224 1555 128 
L 1555 2253 
L 2426 2771 
L 2394 2861 
L 1555 2528 
L 1555 3738 
L 2304 3738 
C 2394 3738 2451 3770 2470 3840 
C 2291 4026 1997 4275 1997 4275 
z
M 4442 954 
C 4013 1408 3693 1965 3507 2618 
L 5062 2618 
C 4947 2022 4742 1459 4442 954 
z
" transform="scale(0.015625)"/>
        <path id="NotoSerifCJKjp-Regular-9053" d="M 2784 5363 
L 2720 5325 
C 2912 5101 3117 4742 3130 4448 
C 3539 4109 3955 4966 2784 5363 
z
M 563 5152 
L 493 5101 
C 806 4819 1184 4326 1274 3936 
C 1754 3603 2093 4621 563 5152 
z
M 2554 3552 
L 2554 384 
L 2624 384 
C 2803 384 2963 486 2963 531 
L 2963 781 
L 5005 781 
L 5005 429 
L 5062 429 
C 5203 429 5408 525 5414 570 
L 5414 3283 
C 5542 3309 5645 3360 5683 3411 
L 5171 3808 
L 4941 3552 
L 3789 3552 
C 3891 3731 4006 3949 4096 4141 
L 5997 4141 
C 6086 4141 6150 4173 6163 4243 
C 5952 4448 5613 4710 5613 4710 
L 5306 4326 
L 4422 4326 
C 4672 4557 4915 4851 5075 5075 
C 5210 5069 5293 5120 5318 5197 
L 4634 5376 
C 4544 5062 4390 4634 4250 4326 
L 1978 4326 
L 2029 4141 
L 3597 4141 
L 3520 3552 
L 2995 3552 
L 2554 3757 
L 2554 3552 
z
M 5005 2522 
L 5005 1862 
L 2963 1862 
L 2963 2522 
L 5005 2522 
z
M 5005 2714 
L 2963 2714 
L 2963 3360 
L 5005 3360 
L 5005 2714 
z
M 5005 1677 
L 5005 973 
L 2963 973 
L 2963 1677 
L 5005 1677 
z
M 1632 2381 
C 1805 2406 1901 2458 1946 2502 
L 1389 2957 
L 1146 2637 
L 256 2637 
L 294 2445 
L 1235 2445 
L 1235 557 
C 870 352 486 154 237 45 
L 538 -493 
C 595 -461 627 -422 608 -339 
C 864 -128 1280 256 1542 544 
C 1990 -192 2502 -339 3661 -339 
C 4371 -339 5235 -339 5856 -339 
C 5882 -141 5990 -19 6176 13 
L 6176 102 
C 5408 77 4403 77 3661 77 
C 2560 77 2074 154 1632 666 
L 1632 2381 
z
" transform="scale(0.015625)"/>
       </defs>
       <use xlink:href="#NotoSerifCJKjp-Regular-82f9"/>
       <use xlink:href="#NotoSerifCJKjp-Regular-679c" transform="translate(99.999985 0)"/>
       <use xlink:href="#NotoSerifCJKjp-Regular-4ed8" transform="translate(199.999969 0)"/>
       <use xlink:href="#NotoSerifCJKjp-Regular-8c37" transform="translate(299.999954 0)"/>
       <use xlink:href="#NotoSerifCJKjp-Regular-6b4c" transform="translate(399.999939 0)"/>
       <use xlink:href="#NotoSerifCJKjp-Regular-b7" transform="translate(499.999924 0)"/>
       <use xlink:href="#NotoSerifCJKjp-Regular-4e70" transform="translate(532.699921 0)"/>
       <use xlink:href="#NotoSerifCJKjp-Regular-20" transform="translate(632.699905 0)"/>
       <use xlink:href="#NotoSerifCJKjp-Regular-47" transform="translate(658.299896 0)"/>
       <use xlink:href="#NotoSerifCJKjp-Regular-65" transform="translate(732.399887 0)"/>
       <use xlink:href="#NotoSerifCJKjp-Regular-6d" transform="translate(787.099884 0)"/>
       <use xlink:href="#NotoSerifCJKjp-Regular-69" transform="translate(884.499878 0)"/>
       <use xlink:href="#NotoSerifCJKjp-Regular-6e" transform="translate(917.699875 0)"/>
       <use xlink:href="#NotoSerifCJKjp-Regular-69" transform="translate(983.799866 0)"/>
       <use xlink:href="#NotoSerifCJKjp-Regular-20" transform="translate(1016.999863 0)"/>
       <use xlink:href="#NotoSerifCJKjp-Regular-6a21" transform="translate(1042.599854 0)"/>
       <use xlink:href="#NotoSerifCJKjp-Regular-578b" transform="translate(1142.599838 0)"/>
       <use xlink:href="#NotoSerifCJKjp-Regular-ff08" transform="translate(1242.599823 0)"/>
       <use xlink:href="#NotoSerifCJKjp-Regular-6bcf" transform="translate(1342.599808 0)"/>
       <use xlink:href="#NotoSerifCJKjp-Regular-5e74" transform="translate(1442.599792 0)"/>
       <use xlink:href="#NotoSerifCJKjp-Regular-ff0c" transform="translate(1542.599777 0)"/>
       <use xlink:href="#NotoSerifCJKjp-Regular-62a5" transform="translate(1642.599762 0)"/>
       <use xlink:href="#NotoSerifCJKjp-Regular-9053" transform="translate(1742.599747 0)"/>
       <use xlink:href="#NotoSerifCJKjp-Regular-ff09" transform="translate(1842.599731 0)"/>
      </g>
     </g>
    </g>
   </g>
   <g id="matplotlib.axis_2">
    <g id="ytick_1">
     <g id="line2d_3">
      <path d="M 30.084297 217.931924 
L 631.064297 217.931924 
" clip-path="url(#p3ad31a982d)" style="fill: none; stroke-dasharray: 2.96,1.28; stroke-dashoffset: 0; stroke: #b0b0b0; stroke-opacity: 0.35; stroke-width: 0.8"/>
     </g>
     <g id="line2d_4">
      <defs>
       <path id="m598c411506" d="M 0 0 
L -3.5 0 
" style="stroke: #333333; stroke-width: 0.8"/>
      </defs>
      <g>
       <use xlink:href="#m598c411506" x="30.084297" y="217.931924" style="fill: #333333; stroke: #333333; stroke-width: 0.8"/>
      </g>
     </g>
     <g id="text_3">
      <!-- 0 -->
      <g style="fill: #333333" transform="translate(17.7925 221.755674) scale(0.095 -0.095)">
       <use xlink:href="#NotoSerifCJKjp-Regular-30"/>
      </g>
     </g>
    </g>
    <g id="ytick_2">
     <g id="line2d_5">
      <path d="M 30.084297 192.933204 
L 631.064297 192.933204 
" clip-path="url(#p3ad31a982d)" style="fill: none; stroke-dasharray: 2.96,1.28; stroke-dashoffset: 0; stroke: #b0b0b0; stroke-opacity: 0.35; stroke-width: 0.8"/>
     </g>
     <g id="line2d_6">
      <g>
       <use xlink:href="#m598c411506" x="30.084297" y="192.933204" style="fill: #333333; stroke: #333333; stroke-width: 0.8"/>
      </g>
     </g>
     <g id="text_4">
      <!-- 25 -->
      <g style="fill: #333333" transform="translate(12.482891 196.756954) scale(0.095 -0.095)">
       <defs>
        <path id="NotoSerifCJKjp-Regular-35" d="M 1574 -96 
C 2573 -96 3213 499 3213 1408 
C 3213 2317 2624 2803 1709 2803 
C 1421 2803 1158 2765 902 2656 
L 1005 4211 
L 3091 4211 
L 3091 4659 
L 800 4659 
L 653 2458 
L 813 2394 
C 1037 2496 1286 2547 1562 2547 
C 2221 2547 2650 2176 2650 1382 
C 2650 563 2234 102 1498 102 
C 1293 102 1146 134 998 198 
L 845 691 
C 794 928 710 1005 550 1005 
C 429 1005 326 941 282 819 
C 397 230 883 -96 1574 -96 
z
" transform="scale(0.015625)"/>
       </defs>
       <use xlink:href="#NotoSerifCJKjp-Regular-32"/>
       <use xlink:href="#NotoSerifCJKjp-Regular-35" transform="translate(55.799988 0)"/>
      </g>
     </g>
    </g>
    <g id="ytick_3">
     <g id="line2d_7">
      <path d="M 30.084297 167.934483 
L 631.064297 167.934483 
" clip-path="url(#p3ad31a982d)" style="fill: none; stroke-dasharray: 2.96,1.28; stroke-dashoffset: 0; stroke: #b0b0b0; stroke-opacity: 0.35; stroke-width: 0.8"/>
     </g>
     <g id="line2d_8">
      <g>
       <use xlink:href="#m598c411506" x="30.084297" y="167.934483" style="fill: #333333; stroke: #333333; stroke-width: 0.8"/>
      </g>
     </g>
     <g id="text_5">
      <!-- 50 -->
      <g style="fill: #333333" transform="translate(12.491797 171.758233) scale(0.095 -0.095)">
       <use xlink:href="#NotoSerifCJKjp-Regular-35"/>
       <use xlink:href="#NotoSerifCJKjp-Regular-30" transform="translate(55.799988 0)"/>
      </g>
     </g>
    </g>
    <g id="ytick_4">
     <g id="line2d_9">
      <path d="M 30.084297 142.935763 
L 631.064297 142.935763 
" clip-path="url(#p3ad31a982d)" style="fill: none; stroke-dasharray: 2.96,1.28; stroke-dashoffset: 0; stroke: #b0b0b0; stroke-opacity: 0.35; stroke-width: 0.8"/>
     </g>
     <g id="line2d_10">
      <g>
       <use xlink:href="#m598c411506" x="30.084297" y="142.935763" style="fill: #333333; stroke: #333333; stroke-width: 0.8"/>
      </g>
     </g>
     <g id="text_6">
      <!-- 75 -->
      <g style="fill: #333333" transform="translate(12.5675 146.759513) scale(0.095 -0.095)">
       <defs>
        <path id="NotoSerifCJKjp-Regular-37" d="M 986 0 
L 1453 0 
L 3123 4371 
L 3123 4659 
L 352 4659 
L 352 4211 
L 2829 4211 
L 934 45 
L 986 0 
z
" transform="scale(0.015625)"/>
       </defs>
       <use xlink:href="#NotoSerifCJKjp-Regular-37"/>
       <use xlink:href="#NotoSerifCJKjp-Regular-35" transform="translate(54.899994 0)"/>
      </g>
     </g>
    </g>
    <g id="ytick_5">
     <g id="line2d_11">
      <path d="M 30.084297 117.937043 
L 631.064297 117.937043 
" clip-path="url(#p3ad31a982d)" style="fill: none; stroke-dasharray: 2.96,1.28; stroke-dashoffset: 0; stroke: #b0b0b0; stroke-opacity: 0.35; stroke-width: 0.8"/>
     </g>
     <g id="line2d_12">
      <g>
       <use xlink:href="#m598c411506" x="30.084297" y="117.937043" style="fill: #333333; stroke: #333333; stroke-width: 0.8"/>
      </g>
     </g>
     <g id="text_7">
      <!-- 100 -->
      <g style="fill: #333333" transform="translate(8.026797 121.760793) scale(0.095 -0.095)">
       <defs>
        <path id="NotoSerifCJKjp-Regular-31" d="M 480 0 
L 2733 -6 
L 2733 173 
L 1907 269 
L 1894 1472 
L 1894 3642 
L 1920 4653 
L 1824 4723 
L 448 4371 
L 448 4179 
L 1370 4333 
L 1370 1472 
L 1357 269 
L 480 179 
L 480 0 
z
" transform="scale(0.015625)"/>
       </defs>
       <use xlink:href="#NotoSerifCJKjp-Regular-31"/>
       <use xlink:href="#NotoSerifCJKjp-Regular-30" transform="translate(47.099991 0)"/>
       <use xlink:href="#NotoSerifCJKjp-Regular-30" transform="translate(102.799988 0)"/>
      </g>
     </g>
    </g>
    <g id="ytick_6">
     <g id="line2d_13">
      <path d="M 30.084297 92.938323 
L 631.064297 92.938323 
" clip-path="url(#p3ad31a982d)" style="fill: none; stroke-dasharray: 2.96,1.28; stroke-dashoffset: 0; stroke: #b0b0b0; stroke-opacity: 0.35; stroke-width: 0.8"/>
     </g>
     <g id="line2d_14">
      <g>
       <use xlink:href="#m598c411506" x="30.084297" y="92.938323" style="fill: #333333; stroke: #333333; stroke-width: 0.8"/>
      </g>
     </g>
     <g id="text_8">
      <!-- 125 -->
      <g style="fill: #333333" transform="translate(8.008984 96.762073) scale(0.095 -0.095)">
       <use xlink:href="#NotoSerifCJKjp-Regular-31"/>
       <use xlink:href="#NotoSerifCJKjp-Regular-32" transform="translate(47.099991 0)"/>
       <use xlink:href="#NotoSerifCJKjp-Regular-35" transform="translate(102.899979 0)"/>
      </g>
     </g>
    </g>
    <g id="ytick_7">
     <g id="line2d_15">
      <path d="M 30.084297 67.939602 
L 631.064297 67.939602 
" clip-path="url(#p3ad31a982d)" style="fill: none; stroke-dasharray: 2.96,1.28; stroke-dashoffset: 0; stroke: #b0b0b0; stroke-opacity: 0.35; stroke-width: 0.8"/>
     </g>
     <g id="line2d_16">
      <g>
       <use xlink:href="#m598c411506" x="30.084297" y="67.939602" style="fill: #333333; stroke: #333333; stroke-width: 0.8"/>
      </g>
     </g>
     <g id="text_9">
      <!-- 150 -->
      <g style="fill: #333333" transform="translate(8.017891 71.763352) scale(0.095 -0.095)">
       <use xlink:href="#NotoSerifCJKjp-Regular-31"/>
       <use xlink:href="#NotoSerifCJKjp-Regular-35" transform="translate(47.099991 0)"/>
       <use xlink:href="#NotoSerifCJKjp-Regular-30" transform="translate(102.899979 0)"/>
      </g>
     </g>
    </g>
    <g id="ytick_8">
     <g id="line2d_17">
      <path d="M 30.084297 42.940882 
L 631.064297 42.940882 
" clip-path="url(#p3ad31a982d)" style="fill: none; stroke-dasharray: 2.96,1.28; stroke-dashoffset: 0; stroke: #b0b0b0; stroke-opacity: 0.35; stroke-width: 0.8"/>
     </g>
     <g id="line2d_18">
      <g>
       <use xlink:href="#m598c411506" x="30.084297" y="42.940882" style="fill: #333333; stroke: #333333; stroke-width: 0.8"/>
      </g>
     </g>
     <g id="text_10">
      <!-- 175 -->
      <g style="fill: #333333" transform="translate(8.093594 46.764632) scale(0.095 -0.095)">
       <use xlink:href="#NotoSerifCJKjp-Regular-31"/>
       <use xlink:href="#NotoSerifCJKjp-Regular-37" transform="translate(47.099991 0)"/>
       <use xlink:href="#NotoSerifCJKjp-Regular-35" transform="translate(101.999985 0)"/>
      </g>
     </g>
    </g>
    <g id="ytick_9">
     <g id="line2d_19">
      <path d="M 30.084297 17.942162 
L 631.064297 17.942162 
" clip-path="url(#p3ad31a982d)" style="fill: none; stroke-dasharray: 2.96,1.28; stroke-dashoffset: 0; stroke: #b0b0b0; stroke-opacity: 0.35; stroke-width: 0.8"/>
     </g>
     <g id="line2d_20">
      <g>
       <use xlink:href="#m598c411506" x="30.084297" y="17.942162" style="fill: #333333; stroke: #333333; stroke-width: 0.8"/>
      </g>
     </g>
     <g id="text_11">
      <!-- 200 -->
      <g style="fill: #333333" transform="translate(7.2 21.765912) scale(0.095 -0.095)">
       <use xlink:href="#NotoSerifCJKjp-Regular-32"/>
       <use xlink:href="#NotoSerifCJKjp-Regular-30" transform="translate(55.799988 0)"/>
       <use xlink:href="#NotoSerifCJKjp-Regular-30" transform="translate(111.499985 0)"/>
      </g>
     </g>
    </g>
   </g>
   <g id="patch_3">
    <path d="M 30.084297 217.931924 
L 30.084297 7.942674 
" style="fill: none; stroke: #000000; stroke-width: 0.8; stroke-linejoin: miter; stroke-linecap: square"/>
   </g>
   <g id="patch_4">
    <path d="M 30.084297 217.931924 
L 631.064297 217.931924 
" style="fill: none; stroke: #000000; stroke-width: 0.8; stroke-linejoin: miter; stroke-linecap: square"/>
   </g>
   <g id="patch_5">
    <path d="M 57.40157 217.931924 
L 251.266086 217.931924 
L 251.266086 17.942162 
L 57.40157 17.942162 
z
" clip-path="url(#p3ad31a982d)" style="fill: #1a56db"/>
   </g>
   <g id="patch_6">
    <path d="M 409.882508 217.931924 
L 603.747024 217.931924 
L 603.747024 207.932436 
L 409.882508 207.932436 
z
" clip-path="url(#p3ad31a982d)" style="fill: #1a56db"/>
   </g>
   <g id="text_12">
    <!-- 200 -->
    <g transform="translate(145.878828 14.981094) scale(0.095 -0.095)">
     <defs>
      <path id="NotoSerifCJKjp-Bold-32" d="M 390 0 
L 3482 0 
L 3482 672 
L 845 672 
C 1178 986 1504 1293 1702 1466 
C 2816 2426 3341 2912 3341 3571 
C 3341 4326 2880 4845 1920 4845 
C 1139 4845 442 4461 378 3738 
C 442 3590 582 3488 742 3488 
C 922 3488 1101 3584 1165 3955 
L 1306 4589 
C 1414 4621 1523 4634 1632 4634 
C 2157 4634 2464 4262 2464 3616 
C 2464 2963 2163 2534 1472 1734 
C 1158 1370 781 934 390 499 
L 390 0 
z
" transform="scale(0.015625)"/>
      <path id="NotoSerifCJKjp-Bold-30" d="M 1901 -102 
C 2739 -102 3514 634 3514 2381 
C 3514 4109 2739 4845 1901 4845 
C 1050 4845 282 4109 282 2381 
C 282 634 1050 -102 1901 -102 
z
M 1901 109 
C 1478 109 1114 614 1114 2381 
C 1114 4128 1478 4627 1901 4627 
C 2310 4627 2688 4122 2688 2381 
C 2688 621 2310 109 1901 109 
z
" transform="scale(0.015625)"/>
     </defs>
     <use xlink:href="#NotoSerifCJKjp-Bold-32"/>
     <use xlink:href="#NotoSerifCJKjp-Bold-30" transform="translate(59.399994 0)"/>
     <use xlink:href="#NotoSerifCJKjp-Bold-30" transform="translate(118.699982 0)"/>
    </g>
   </g>
   <g id="text_13">
    <!-- 10 -->
    <g transform="translate(501.784961 204.971368) scale(0.095 -0.095)">
     <defs>
      <path id="NotoSerifCJKjp-Bold-31" d="M 365 0 
L 2765 -13 
L 2765 173 
L 2042 301 
C 2029 704 2022 1107 2022 1504 
L 2022 3712 
L 2048 4742 
L 1952 4813 
L 346 4435 
L 346 4218 
L 1158 4326 
L 1158 1504 
L 1146 301 
L 365 192 
L 365 0 
z
" transform="scale(0.015625)"/>
     </defs>
     <use xlink:href="#NotoSerifCJKjp-Bold-31"/>
     <use xlink:href="#NotoSerifCJKjp-Bold-30" transform="translate(46.599991 0)"/>
    </g>
   </g>
  </g>
 </g>
 <defs>
  <clipPath id="p3ad31a982d">
   <rect x="30.084297" y="7.942674" width="600.98" height="209.98925"/>
  </clipPath>
 </defs>
</svg>
