<?xml version="1.0" encoding="utf-8" standalone="no"?>
<!DOCTYPE svg PUBLIC "-//W3C//DTD SVG 1.1//EN"
  "http://www.w3.org/Graphics/SVG/1.1/DTD/svg11.dtd">
<svg xmlns:xlink="http://www.w3.org/1999/xlink" width="638.051094pt" height="242.718203pt" viewBox="0 0 638.051094 242.718203" xmlns="http://www.w3.org/2000/svg" version="1.1">
 <metadata>
  <rdf:RDF xmlns:dc="http://purl.org/dc/elements/1.1/" xmlns:cc="http://creativecommons.org/ns#" xmlns:rdf="http://www.w3.org/1999/02/22-rdf-syntax-ns#">
   <cc:Work>
    <dc:type rdf:resource="http://purl.org/dc/dcmitype/StillImage"/>
    <dc:date>2026-05-22T09:35:35.208227</dc:date>
    <dc:format>image/svg+xml</dc:format>
    <dc:creator>
     <cc:Agent>
      <dc:title>Matplotlib v3.10.9, https://matplotlib.org/</dc:title>
     </cc:Agent>
    </dc:creator>
   </cc:Work>
  </rdf:RDF>
 </metadata>
 <defs>
  <style type="text/css">*{stroke-linejoin: round; stroke-linecap: butt}</style>
 </defs>
 <g id="figure_1">
  <g id="patch_1">
   <path d="M -0 242.718203 
L 638.051094 242.718203 
L 638.051094 0 
L -0 0 
z
" style="fill: #ffffff"/>
  </g>
  <g id="axes_1">
   <g id="patch_2">
    <path d="M 175.311094 219.56 
L 630.851094 219.56 
L 630.851094 7.2 
L 175.311094 7.2 
z
" style="fill: #fafafa"/>
   </g>
   <g id="matplotlib.axis_1">
    <g id="xtick_1">
     <g id="line2d_1">
      <path d="M 175.311094 219.56 
L 175.311094 7.2 
" clip-path="url(#p30e4b8b04b)" style="fill: none; stroke-dasharray: 2.96,1.28; stroke-dashoffset: 0; stroke: #b0b0b0; stroke-opacity: 0.35; stroke-width: 0.8"/>
     </g>
     <g id="line2d_2">
      <defs>
       <path id="m7f284580a0" d="M 0 0 
L 0 3.5 
" style="stroke: #333333; stroke-width: 0.8"/>
      </defs>
      <g>
       <use xlink:href="#m7f284580a0" x="175.311094" y="219.56" style="fill: #333333; stroke: #333333; stroke-width: 0.8"/>
      </g>
     </g>
     <g id="text_1">
      <!-- 0 -->
      <g style="fill: #333333" transform="translate(172.679297 234.255) scale(0.095 -0.095)">
       <defs>
        <path id="STHeitiTC-Medium-30" d="M 1747 5184 
Q 2502 5184 2944 4547 
Q 3386 3910 3386 2723 
Q 3386 1536 2938 902 
Q 2490 269 1738 269 
Q 986 269 573 893 
Q 160 1517 160 2729 
Q 160 3942 573 4563 
Q 986 5184 1747 5184 
z
M 1760 774 
Q 2285 774 2576 1283 
Q 2867 1792 2867 2726 
Q 2867 3661 2566 4160 
Q 2266 4659 1757 4659 
Q 1248 4659 966 4160 
Q 685 3661 685 2714 
Q 685 774 1760 774 
z
" transform="scale(0.015625)"/>
       </defs>
       <use xlink:href="#STHeitiTC-Medium-30"/>
      </g>
     </g>
    </g>
    <g id="xtick_2">
     <g id="line2d_3">
      <path d="M 237.289325 219.56 
L 237.289325 7.2 
" clip-path="url(#p30e4b8b04b)" style="fill: none; stroke-dasharray: 2.96,1.28; stroke-dashoffset: 0; stroke: #b0b0b0; stroke-opacity: 0.35; stroke-width: 0.8"/>
     </g>
     <g id="line2d_4">
      <g>
       <use xlink:href="#m7f284580a0" x="237.289325" y="219.56" style="fill: #333333; stroke: #333333; stroke-width: 0.8"/>
      </g>
     </g>
     <g id="text_2">
      <!-- 20 -->
      <g style="fill: #333333" transform="translate(232.025731 234.255) scale(0.095 -0.095)">
       <defs>
        <path id="STHeitiTC-Medium-32" d="M 3360 384 
L 90 384 
L 1914 2355 
Q 2374 2842 2566 3123 
Q 2758 3405 2758 3763 
Q 2758 4122 2480 4390 
Q 2202 4659 1789 4659 
Q 1376 4659 1101 4368 
Q 826 4077 787 3539 
L 256 3539 
Q 288 4294 736 4739 
Q 1184 5184 1821 5184 
Q 2458 5184 2877 4771 
Q 3296 4358 3296 3763 
Q 3296 3328 3065 2950 
Q 2835 2573 2368 2074 
L 1293 915 
L 3360 915 
L 3360 384 
z
" transform="scale(0.015625)"/>
       </defs>
       <use xlink:href="#STHeitiTC-Medium-32"/>
       <use xlink:href="#STHeitiTC-Medium-30" transform="translate(55.399994 0)"/>
      </g>
     </g>
    </g>
    <g id="xtick_3">
     <g id="line2d_5">
      <path d="M 299.267556 219.56 
L 299.267556 7.2 
" clip-path="url(#p30e4b8b04b)" style="fill: none; stroke-dasharray: 2.96,1.28; stroke-dashoffset: 0; stroke: #b0b0b0; stroke-opacity: 0.35; stroke-width: 0.8"/>
     </g>
     <g id="line2d_6">
      <g>
       <use xlink:href="#m7f284580a0" x="299.267556" y="219.56" style="fill: #333333; stroke: #333333; stroke-width: 0.8"/>
      </g>
     </g>
     <g id="text_3">
      <!-- 40 -->
      <g style="fill: #333333" transform="translate(294.003963 234.255) scale(0.095 -0.095)">
       <defs>
        <path id="STHeitiTC-Medium-34" d="M 3418 1453 
L 2861 1453 
L 2861 384 
L 2317 384 
L 2317 1453 
L 70 1453 
L 2701 5184 
L 2861 5184 
L 2861 1984 
L 3418 1984 
L 3418 1453 
z
M 2317 1984 
L 2317 3712 
L 1094 1984 
L 2317 1984 
z
" transform="scale(0.015625)"/>
       </defs>
       <use xlink:href="#STHeitiTC-Medium-34"/>
       <use xlink:href="#STHeitiTC-Medium-30" transform="translate(55.399994 0)"/>
      </g>
     </g>
    </g>
    <g id="xtick_4">
     <g id="line2d_7">
      <path d="M 361.245788 219.56 
L 361.245788 7.2 
" clip-path="url(#p30e4b8b04b)" style="fill: none; stroke-dasharray: 2.96,1.28; stroke-dashoffset: 0; stroke: #b0b0b0; stroke-opacity: 0.35; stroke-width: 0.8"/>
     </g>
     <g id="line2d_8">
      <g>
       <use xlink:href="#m7f284580a0" x="361.245788" y="219.56" style="fill: #333333; stroke: #333333; stroke-width: 0.8"/>
      </g>
     </g>
     <g id="text_4">
      <!-- 60 -->
      <g style="fill: #333333" transform="translate(355.982194 234.255) scale(0.095 -0.095)">
       <defs>
        <path id="STHeitiTC-Medium-36" d="M 1594 3098 
Q 1798 3155 1984 3155 
Q 2515 3155 2912 2732 
Q 3309 2310 3309 1708 
Q 3309 1107 2880 688 
Q 2451 269 1830 269 
Q 1210 269 797 691 
Q 384 1114 384 1722 
Q 384 2016 499 2326 
Q 614 2637 915 3085 
L 2336 5203 
L 2797 4915 
L 1594 3098 
z
M 1843 806 
Q 2221 806 2493 1075 
Q 2765 1344 2765 1728 
Q 2765 2112 2496 2381 
Q 2227 2650 1843 2650 
Q 1459 2650 1190 2381 
Q 922 2112 922 1728 
Q 922 1344 1194 1075 
Q 1466 806 1843 806 
z
" transform="scale(0.015625)"/>
       </defs>
       <use xlink:href="#STHeitiTC-Medium-36"/>
       <use xlink:href="#STHeitiTC-Medium-30" transform="translate(55.399994 0)"/>
      </g>
     </g>
    </g>
    <g id="xtick_5">
     <g id="line2d_9">
      <path d="M 423.224019 219.56 
L 423.224019 7.2 
" clip-path="url(#p30e4b8b04b)" style="fill: none; stroke-dasharray: 2.96,1.28; stroke-dashoffset: 0; stroke: #b0b0b0; stroke-opacity: 0.35; stroke-width: 0.8"/>
     </g>
     <g id="line2d_10">
      <g>
       <use xlink:href="#m7f284580a0" x="423.224019" y="219.56" style="fill: #333333; stroke: #333333; stroke-width: 0.8"/>
      </g>
     </g>
     <g id="text_5">
      <!-- 80 -->
      <g style="fill: #333333" transform="translate(417.960425 234.255) scale(0.095 -0.095)">
       <defs>
        <path id="STHeitiTC-Medium-38" d="M 2547 2950 
Q 3373 2522 3373 1747 
Q 3373 1114 2928 691 
Q 2483 269 1763 269 
Q 1043 269 608 691 
Q 173 1114 173 1709 
Q 173 2515 1018 2950 
Q 390 3315 390 3942 
Q 390 4435 800 4809 
Q 1210 5184 1782 5184 
Q 2355 5184 2758 4819 
Q 3162 4454 3162 3930 
Q 3162 3322 2547 2950 
z
M 1792 3181 
Q 2118 3181 2364 3411 
Q 2611 3642 2611 3939 
Q 2611 4237 2380 4445 
Q 2150 4653 1785 4653 
Q 1421 4653 1184 4445 
Q 947 4237 947 3939 
Q 947 3642 1203 3411 
Q 1459 3181 1792 3181 
z
M 1773 794 
Q 2234 794 2528 1069 
Q 2822 1344 2822 1728 
Q 2822 2112 2518 2393 
Q 2214 2675 1782 2675 
Q 1350 2675 1036 2384 
Q 723 2093 723 1699 
Q 723 1306 1014 1050 
Q 1306 794 1773 794 
z
" transform="scale(0.015625)"/>
       </defs>
       <use xlink:href="#STHeitiTC-Medium-38"/>
       <use xlink:href="#STHeitiTC-Medium-30" transform="translate(55.399994 0)"/>
      </g>
     </g>
    </g>
    <g id="xtick_6">
     <g id="line2d_11">
      <path d="M 485.20225 219.56 
L 485.20225 7.2 
" clip-path="url(#p30e4b8b04b)" style="fill: none; stroke-dasharray: 2.96,1.28; stroke-dashoffset: 0; stroke: #b0b0b0; stroke-opacity: 0.35; stroke-width: 0.8"/>
     </g>
     <g id="line2d_12">
      <g>
       <use xlink:href="#m7f284580a0" x="485.20225" y="219.56" style="fill: #333333; stroke: #333333; stroke-width: 0.8"/>
      </g>
     </g>
     <g id="text_6">
      <!-- 100 -->
      <g style="fill: #333333" transform="translate(477.30686 234.255) scale(0.095 -0.095)">
       <defs>
        <path id="STHeitiTC-Medium-31" d="M 2131 384 
L 1587 384 
L 1587 4531 
L 826 4531 
L 1158 5069 
L 2131 5069 
L 2131 384 
z
" transform="scale(0.015625)"/>
       </defs>
       <use xlink:href="#STHeitiTC-Medium-31"/>
       <use xlink:href="#STHeitiTC-Medium-30" transform="translate(55.399994 0)"/>
       <use xlink:href="#STHeitiTC-Medium-30" transform="translate(110.799988 0)"/>
      </g>
     </g>
    </g>
    <g id="xtick_7">
     <g id="line2d_13">
      <path d="M 547.180482 219.56 
L 547.180482 7.2 
" clip-path="url(#p30e4b8b04b)" style="fill: none; stroke-dasharray: 2.96,1.28; stroke-dashoffset: 0; stroke: #b0b0b0; stroke-opacity: 0.35; stroke-width: 0.8"/>
     </g>
     <g id="line2d_14">
      <g>
       <use xlink:href="#m7f284580a0" x="547.180482" y="219.56" style="fill: #333333; stroke: #333333; stroke-width: 0.8"/>
      </g>
     </g>
     <g id="text_7">
      <!-- 120 -->
      <g style="fill: #333333" transform="translate(539.285091 234.255) scale(0.095 -0.095)">
       <use xlink:href="#STHeitiTC-Medium-31"/>
       <use xlink:href="#STHeitiTC-Medium-32" transform="translate(55.399994 0)"/>
       <use xlink:href="#STHeitiTC-Medium-30" transform="translate(110.799988 0)"/>
      </g>
     </g>
    </g>
    <g id="xtick_8">
     <g id="line2d_15">
      <path d="M 609.158713 219.56 
L 609.158713 7.2 
" clip-path="url(#p30e4b8b04b)" style="fill: none; stroke-dasharray: 2.96,1.28; stroke-dashoffset: 0; stroke: #b0b0b0; stroke-opacity: 0.35; stroke-width: 0.8"/>
     </g>
     <g id="line2d_16">
      <g>
       <use xlink:href="#m7f284580a0" x="609.158713" y="219.56" style="fill: #333333; stroke: #333333; stroke-width: 0.8"/>
      </g>
     </g>
     <g id="text_8">
      <!-- 140 -->
      <g style="fill: #333333" transform="translate(601.263322 234.255) scale(0.095 -0.095)">
       <use xlink:href="#STHeitiTC-Medium-31"/>
       <use xlink:href="#STHeitiTC-Medium-34" transform="translate(55.399994 0)"/>
       <use xlink:href="#STHeitiTC-Medium-30" transform="translate(110.799988 0)"/>
      </g>
     </g>
    </g>
   </g>
   <g id="matplotlib.axis_2">
    <g id="ytick_1">
     <g id="line2d_17">
      <defs>
       <path id="md9e777af03" d="M 0 0 
L -3.5 0 
" style="stroke: #333333; stroke-width: 0.8"/>
      </defs>
      <g>
       <use xlink:href="#md9e777af03" x="175.311094" y="198.239141" style="fill: #333333; stroke: #333333; stroke-width: 0.8"/>
      </g>
     </g>
     <g id="text_9">
      <!-- OpenAI Deployment Co 整体估值 -->
      <g style="fill: #333333" transform="translate(16.32 202.138594) scale(0.095 -0.095)">
       <defs>
        <path id="STHeitiTC-Medium-4f" d="M 2752 5184 
Q 3437 5184 4013 4861 
Q 4589 4538 4918 3968 
Q 5248 3398 5248 2729 
Q 5248 2061 4921 1491 
Q 4595 922 4025 595 
Q 3456 269 2787 269 
Q 2118 269 1542 592 
Q 966 915 640 1481 
Q 314 2048 314 2717 
Q 314 3386 640 3958 
Q 966 4531 1532 4857 
Q 2099 5184 2752 5184 
z
M 2771 806 
Q 3571 806 4124 1350 
Q 4678 1894 4678 2713 
Q 4678 3533 4118 4089 
Q 3558 4646 2771 4646 
Q 1965 4646 1424 4086 
Q 883 3526 883 2723 
Q 883 1920 1440 1363 
Q 1997 806 2771 806 
z
" transform="scale(0.015625)"/>
        <path id="STHeitiTC-Medium-70" d="M 973 3341 
Q 1491 3962 2252 3962 
Q 3014 3962 3545 3421 
Q 4077 2880 4077 2118 
Q 4077 1357 3552 813 
Q 3027 269 2284 269 
Q 1542 269 973 896 
L 973 -851 
L 448 -851 
L 448 3872 
L 973 3872 
L 973 3341 
z
M 2253 762 
Q 2778 762 3165 1155 
Q 3552 1549 3552 2105 
Q 3552 2662 3171 3056 
Q 2790 3450 2240 3450 
Q 1690 3450 1315 3062 
Q 941 2675 941 2105 
Q 941 1536 1325 1149 
Q 1709 762 2253 762 
z
" transform="scale(0.015625)"/>
        <path id="STHeitiTC-Medium-65" d="M 3878 2035 
L 819 2035 
Q 851 1459 1206 1110 
Q 1562 762 2054 762 
Q 2893 762 3334 1587 
L 3782 1357 
Q 3482 800 3072 534 
Q 2662 269 2093 269 
Q 1306 269 794 809 
Q 282 1350 282 2112 
Q 282 2874 797 3418 
Q 1312 3962 2073 3962 
Q 2835 3962 3347 3446 
Q 3859 2931 3878 2035 
z
M 3290 2502 
Q 3194 2950 2854 3200 
Q 2515 3450 2074 3450 
Q 1178 3450 883 2502 
L 3290 2502 
z
" transform="scale(0.015625)"/>
        <path id="STHeitiTC-Medium-6e" d="M 3501 384 
L 2976 384 
L 2976 2048 
Q 2976 2624 2921 2832 
Q 2867 3040 2761 3184 
Q 2656 3328 2493 3398 
Q 2330 3469 2096 3469 
Q 1862 3469 1638 3353 
Q 1414 3238 1254 3033 
Q 1094 2829 1033 2598 
Q 973 2368 973 1677 
L 973 384 
L 442 384 
L 442 3872 
L 973 3872 
L 973 3347 
Q 1491 3962 2202 3962 
Q 2579 3962 2886 3766 
Q 3194 3571 3347 3228 
Q 3501 2886 3501 2176 
L 3501 384 
z
" transform="scale(0.015625)"/>
        <path id="STHeitiTC-Medium-41" d="M 4646 384 
L 4064 384 
L 3341 1952 
L 1408 1952 
L 691 384 
L 83 384 
L 2298 5254 
L 2464 5254 
L 4646 384 
z
M 3091 2509 
L 2381 4090 
L 1664 2509 
L 3091 2509 
z
" transform="scale(0.015625)"/>
        <path id="STHeitiTC-Medium-49" d="M 998 384 
L 448 384 
L 448 5069 
L 998 5069 
L 998 384 
z
" transform="scale(0.015625)"/>
        <path id="STHeitiTC-Medium-20" transform="scale(0.015625)"/>
        <path id="STHeitiTC-Medium-44" d="M 512 5069 
L 1510 5069 
Q 2522 5069 2982 4918 
Q 3443 4768 3779 4451 
Q 4115 4134 4294 3680 
Q 4474 3226 4474 2630 
Q 4474 2035 4208 1507 
Q 3942 979 3452 681 
Q 2963 384 2022 384 
L 512 384 
L 512 5069 
z
M 1043 909 
L 1530 909 
Q 2342 909 2713 992 
Q 3085 1075 3360 1312 
Q 3635 1549 3779 1891 
Q 3923 2234 3923 2682 
Q 3923 3130 3753 3510 
Q 3584 3891 3270 4131 
Q 2957 4371 2534 4451 
Q 2112 4531 1325 4531 
L 1043 4531 
L 1043 909 
z
" transform="scale(0.015625)"/>
        <path id="STHeitiTC-Medium-6c" d="M 902 384 
L 378 384 
L 378 5184 
L 902 5184 
L 902 384 
z
" transform="scale(0.015625)"/>
        <path id="STHeitiTC-Medium-6f" d="M 2099 3962 
Q 2854 3962 3382 3418 
Q 3910 2874 3910 2112 
Q 3910 1350 3388 809 
Q 2867 269 2099 269 
Q 1331 269 806 809 
Q 282 1350 282 2112 
Q 282 2874 810 3418 
Q 1338 3962 2099 3962 
z
M 2099 774 
Q 2630 774 3004 1161 
Q 3379 1549 3379 2096 
Q 3379 2643 2998 3043 
Q 2618 3443 2096 3443 
Q 1574 3443 1196 3043 
Q 819 2643 819 2092 
Q 819 1542 1184 1158 
Q 1549 774 2099 774 
z
" transform="scale(0.015625)"/>
        <path id="STHeitiTC-Medium-79" d="M 3418 3872 
L 1350 -851 
L 800 -851 
L 1472 685 
L 58 3872 
L 608 3872 
L 1754 1318 
L 2861 3872 
L 3418 3872 
z
" transform="scale(0.015625)"/>
        <path id="STHeitiTC-Medium-6d" d="M 5613 384 
L 5075 384 
L 5075 2285 
Q 5075 2739 5020 2950 
Q 4966 3162 4784 3306 
Q 4602 3450 4304 3450 
Q 4006 3450 3744 3258 
Q 3482 3066 3379 2736 
Q 3277 2406 3277 1760 
L 3277 384 
L 2758 384 
L 2758 2170 
Q 2758 2694 2704 2924 
Q 2650 3155 2464 3302 
Q 2278 3450 1996 3450 
Q 1715 3450 1462 3274 
Q 1210 3098 1088 2813 
Q 966 2528 966 1869 
L 966 384 
L 442 384 
L 442 3872 
L 966 3872 
L 966 3379 
Q 1414 3962 2086 3962 
Q 2451 3962 2748 3766 
Q 3046 3571 3174 3213 
Q 3392 3578 3718 3770 
Q 4045 3962 4410 3962 
Q 4909 3962 5261 3610 
Q 5613 3258 5613 2285 
L 5613 384 
z
" transform="scale(0.015625)"/>
        <path id="STHeitiTC-Medium-74" d="M 2048 3411 
L 1357 3411 
L 1357 966 
Q 1357 832 1395 803 
Q 1434 774 1587 774 
L 1894 774 
L 1894 320 
Q 1587 269 1427 269 
Q 1120 269 973 419 
Q 826 570 826 896 
L 826 3411 
L 224 3411 
L 224 3872 
L 826 3872 
L 826 5184 
L 1357 5184 
L 1357 3872 
L 2048 3872 
L 2048 3411 
z
" transform="scale(0.015625)"/>
        <path id="STHeitiTC-Medium-43" d="M 4909 1242 
Q 4154 269 2835 269 
Q 1722 269 1011 973 
Q 301 1677 301 2752 
Q 301 3418 630 3981 
Q 960 4544 1542 4864 
Q 2125 5184 2800 5184 
Q 3475 5184 4009 4925 
Q 4544 4666 4902 4166 
L 4480 3840 
Q 3814 4646 2835 4646 
Q 2035 4646 1456 4083 
Q 877 3520 877 2704 
Q 877 1888 1443 1341 
Q 2010 794 2912 794 
Q 3814 794 4480 1568 
L 4909 1242 
z
" transform="scale(0.015625)"/>
        <path id="STHeitiTC-Medium-6574" d="M 2982 1875 
Q 2854 2022 2691 2160 
Q 2528 2298 2368 2394 
L 2675 2643 
Q 2822 2534 2982 2412 
Q 3142 2291 3296 2163 
L 2982 1875 
z
M 2227 3072 
L 2918 3072 
L 2918 3494 
L 2227 3494 
L 2227 3072 
z
M 1824 3494 
L 1120 3494 
L 1120 3072 
L 1824 3072 
L 1824 3494 
z
M 1824 2746 
Q 1581 2304 1318 2038 
Q 1056 1773 755 1587 
Q 653 1709 579 1763 
Q 506 1818 358 1875 
Q 704 2022 982 2246 
Q 1261 2470 1466 2771 
Q 1222 2771 1043 2771 
Q 864 2771 691 2758 
Q 730 2957 730 3251 
Q 730 3411 720 3561 
Q 710 3712 691 3821 
Q 806 3814 924 3808 
Q 1043 3802 1177 3798 
Q 1312 3795 1469 3795 
Q 1626 3795 1824 3795 
L 1824 4186 
Q 1382 4186 1081 4176 
Q 781 4166 538 4141 
L 538 4589 
Q 800 4557 1094 4547 
Q 1389 4538 1824 4538 
Q 1824 4800 1814 4915 
Q 1805 5030 1779 5120 
Q 2048 5082 2234 5101 
Q 2342 5114 2352 5088 
Q 2362 5062 2298 4992 
Q 2266 4960 2246 4838 
Q 2227 4717 2227 4538 
Q 2630 4538 2912 4547 
Q 3194 4557 3430 4576 
L 3430 4141 
Q 3194 4160 2912 4169 
Q 2630 4179 2227 4186 
L 2227 3795 
Q 2611 3795 2864 3801 
Q 3117 3808 3347 3821 
Q 3334 3712 3328 3565 
Q 3322 3418 3322 3251 
Q 3322 3104 3328 2973 
Q 3334 2842 3347 2746 
Q 3123 2758 2867 2764 
Q 2611 2771 2227 2771 
Q 2227 2483 2240 2268 
Q 2253 2054 2285 1875 
L 1766 1875 
Q 1798 2048 1811 2259 
Q 1824 2470 1824 2746 
z
M 4653 2445 
Q 4454 2259 4217 2118 
Q 3981 1978 3706 1856 
Q 3661 1958 3581 2054 
Q 3501 2150 3392 2221 
Q 3987 2432 4346 2733 
Q 4224 2874 4121 3037 
Q 4019 3200 3942 3386 
L 4307 3539 
Q 4429 3238 4614 3014 
Q 4922 3418 5005 3987 
L 4218 3987 
Q 4109 3750 3987 3552 
Q 3866 3354 3731 3162 
Q 3565 3290 3379 3334 
Q 3533 3558 3648 3763 
Q 3763 3968 3846 4179 
Q 3930 4390 3987 4620 
Q 4045 4851 4083 5126 
Q 4230 5075 4368 5040 
Q 4506 5005 4621 4992 
Q 4691 4979 4694 4953 
Q 4698 4928 4614 4858 
Q 4582 4832 4534 4739 
Q 4486 4646 4384 4384 
L 5210 4384 
Q 5478 4384 5651 4393 
Q 5824 4403 5933 4422 
L 5933 3962 
Q 5837 3974 5741 3977 
Q 5645 3981 5478 3987 
Q 5389 3590 5254 3289 
Q 5120 2989 4934 2746 
Q 5139 2618 5404 2534 
Q 5670 2451 6035 2394 
Q 5907 2291 5843 2169 
Q 5779 2048 5728 1875 
Q 5434 1978 5162 2118 
Q 4890 2259 4653 2445 
z
M 3418 13 
Q 3846 13 4198 16 
Q 4550 19 4851 25 
Q 5152 32 5411 41 
Q 5670 51 5907 64 
L 5907 -461 
Q 5658 -448 5382 -438 
Q 5107 -429 4784 -422 
Q 4461 -416 4073 -413 
Q 3686 -410 3219 -410 
Q 2746 -410 2362 -413 
Q 1978 -416 1654 -422 
Q 1331 -429 1056 -438 
Q 781 -448 531 -461 
L 531 64 
Q 774 51 1043 44 
Q 1312 38 1619 26 
L 1619 410 
Q 1619 582 1609 752 
Q 1600 922 1581 1024 
Q 1715 998 1872 992 
Q 2029 986 2106 992 
Q 2253 998 2150 896 
Q 2106 851 2090 755 
Q 2074 659 2074 550 
L 2074 13 
L 2957 13 
L 2957 1338 
Q 2650 1338 2390 1331 
Q 2131 1325 1907 1321 
Q 1683 1318 1491 1308 
Q 1299 1299 1120 1286 
L 1120 1754 
Q 1318 1741 1532 1731 
Q 1747 1722 2000 1718 
Q 2253 1715 2553 1712 
Q 2854 1709 3226 1709 
Q 3597 1709 3897 1712 
Q 4198 1715 4448 1721 
Q 4698 1728 4912 1734 
Q 5126 1741 5325 1754 
L 5325 1286 
Q 5139 1299 4940 1308 
Q 4742 1318 4512 1324 
Q 4282 1331 4013 1334 
Q 3744 1338 3418 1338 
L 3418 902 
Q 3808 902 4077 902 
Q 4346 902 4547 905 
Q 4749 909 4902 912 
Q 5056 915 5216 928 
L 5216 499 
Q 5069 506 4915 512 
Q 4762 518 4560 521 
Q 4358 525 4083 528 
Q 3808 531 3418 531 
L 3418 13 
z
" transform="scale(0.015625)"/>
        <path id="STHeitiTC-Medium-4f53" d="M 1069 2810 
Q 947 2573 828 2358 
Q 710 2144 582 1920 
Q 416 2157 186 2336 
Q 454 2630 678 3043 
Q 902 3456 1043 3904 
Q 1152 4243 1232 4566 
Q 1312 4890 1357 5133 
Q 1523 5069 1712 5017 
Q 1901 4966 2029 4941 
Q 2176 4915 2035 4800 
Q 2016 4787 1984 4732 
Q 1952 4678 1894 4572 
Q 1837 4467 1753 4297 
Q 1670 4128 1562 3885 
L 1562 -685 
L 992 -685 
Q 1024 -352 1046 -13 
Q 1069 326 1069 672 
L 1069 2810 
z
M 3469 3475 
Q 3424 3008 3321 2595 
Q 3219 2182 3049 1798 
Q 2880 1414 2640 1046 
Q 2400 678 2074 307 
Q 1901 563 1677 749 
Q 2195 1216 2553 1897 
Q 2912 2579 3078 3469 
Q 2739 3462 2464 3449 
Q 2189 3437 1952 3418 
L 1952 3974 
Q 2278 3949 2688 3936 
Q 3098 3923 3654 3917 
Q 3654 4192 3651 4387 
Q 3648 4582 3641 4729 
Q 3635 4877 3625 4989 
Q 3616 5101 3597 5210 
Q 3731 5184 3888 5174 
Q 4045 5165 4173 5171 
Q 4378 5184 4211 5043 
Q 4166 5011 4150 4947 
Q 4134 4883 4134 4819 
L 4134 3917 
Q 4730 3917 5165 3929 
Q 5600 3942 5939 3974 
L 5939 3418 
Q 5651 3443 5302 3456 
Q 4954 3469 4499 3475 
Q 4589 3072 4745 2678 
Q 4902 2285 5088 2010 
Q 5312 1683 5597 1427 
Q 5882 1171 6208 1005 
Q 5965 755 5773 397 
Q 5402 723 5098 1084 
Q 4794 1446 4646 1766 
Q 4486 2112 4374 2544 
Q 4262 2976 4192 3475 
L 4134 3475 
L 4134 966 
Q 4390 973 4595 982 
Q 4800 992 4947 1018 
L 4947 499 
Q 4800 518 4595 531 
Q 4390 544 4134 550 
Q 4141 262 4157 -29 
Q 4173 -320 4205 -627 
L 3584 -627 
Q 3616 -320 3632 -29 
Q 3648 262 3654 550 
Q 3354 544 3120 531 
Q 2886 518 2720 499 
L 2720 1018 
Q 2886 992 3120 982 
Q 3354 973 3654 966 
L 3654 3475 
L 3469 3475 
z
" transform="scale(0.015625)"/>
        <path id="STHeitiTC-Medium-4f30" d="M 1203 2720 
Q 1101 2573 998 2432 
Q 896 2291 800 2163 
Q 742 2285 640 2390 
Q 538 2496 403 2592 
Q 538 2739 675 2915 
Q 813 3091 937 3283 
Q 1062 3475 1168 3673 
Q 1274 3872 1350 4058 
Q 1427 4256 1484 4409 
Q 1542 4563 1584 4694 
Q 1626 4826 1658 4947 
Q 1690 5069 1722 5197 
Q 1869 5088 2025 5017 
Q 2182 4947 2304 4928 
Q 2374 4915 2377 4889 
Q 2381 4864 2304 4781 
Q 2259 4730 2211 4656 
Q 2163 4582 2096 4451 
Q 2029 4320 1936 4128 
Q 1843 3936 1715 3648 
L 1715 -621 
L 1133 -621 
Q 1165 -352 1184 -9 
Q 1203 333 1203 672 
L 1203 2720 
z
M 3091 -64 
L 3091 -608 
L 2522 -608 
Q 2534 -442 2540 -282 
Q 2547 -122 2547 58 
L 2547 1920 
Q 2547 2150 2522 2278 
Q 2598 2272 2704 2269 
Q 2810 2266 2957 2262 
Q 3104 2259 3302 2259 
Q 3501 2259 3763 2259 
L 3763 3373 
Q 3437 3373 3197 3366 
Q 2957 3360 2771 3350 
Q 2586 3341 2438 3331 
Q 2291 3322 2144 3309 
L 2144 3885 
Q 2298 3872 2448 3862 
Q 2598 3853 2780 3846 
Q 2963 3840 3200 3833 
Q 3437 3827 3763 3827 
L 3763 4397 
Q 3763 4608 3753 4813 
Q 3744 5018 3725 5139 
Q 3789 5126 3885 5116 
Q 3981 5107 4077 5104 
Q 4173 5101 4256 5101 
Q 4339 5101 4378 5101 
Q 4448 5107 4461 5075 
Q 4474 5043 4416 4992 
Q 4301 4896 4301 4634 
L 4301 3827 
Q 4653 3827 4896 3830 
Q 5139 3834 5324 3840 
Q 5510 3846 5664 3859 
Q 5818 3872 5990 3885 
L 5990 3309 
Q 5818 3328 5664 3337 
Q 5510 3347 5321 3356 
Q 5133 3366 4889 3369 
Q 4646 3373 4301 3373 
L 4301 2259 
Q 4595 2259 4806 2259 
Q 5018 2259 5168 2262 
Q 5318 2266 5417 2269 
Q 5517 2272 5587 2278 
Q 5568 2202 5561 2118 
Q 5555 2035 5555 1920 
L 5555 45 
Q 5555 -128 5558 -243 
Q 5562 -358 5574 -518 
L 5011 -518 
L 5011 -64 
L 3091 -64 
z
M 5011 390 
L 5011 1805 
L 3091 1805 
L 3091 390 
L 5011 390 
z
" transform="scale(0.015625)"/>
        <path id="STHeitiTC-Medium-503c" d="M 1594 -691 
L 1011 -691 
Q 1037 -416 1059 -38 
Q 1082 339 1082 685 
L 1082 3002 
Q 966 2797 854 2617 
Q 742 2438 640 2285 
Q 563 2406 467 2502 
Q 371 2598 230 2688 
Q 454 2950 675 3289 
Q 896 3629 1037 3974 
Q 1165 4275 1273 4585 
Q 1382 4896 1453 5152 
Q 1600 5075 1760 5008 
Q 1920 4941 2010 4922 
Q 2106 4902 2109 4857 
Q 2112 4813 2022 4762 
Q 1978 4736 1907 4624 
Q 1837 4512 1722 4243 
Q 1690 4173 1658 4102 
Q 1626 4032 1594 3962 
L 1594 -691 
z
M 2970 909 
L 4960 909 
L 4960 1402 
L 2970 1402 
L 2970 909 
z
M 4960 3091 
L 2970 3091 
L 2970 2624 
L 4960 2624 
L 4960 3091 
z
M 2970 1760 
L 4960 1760 
L 4960 2259 
L 2970 2259 
L 2970 1760 
z
M 2483 2848 
Q 2483 2899 2480 2992 
Q 2477 3085 2473 3190 
Q 2470 3296 2464 3392 
Q 2458 3488 2451 3546 
Q 2630 3533 2896 3520 
Q 3162 3507 3552 3501 
Q 3578 3648 3590 3801 
Q 3603 3955 3616 4122 
Q 3142 4115 2780 4108 
Q 2419 4102 2131 4083 
L 2131 4582 
Q 2426 4557 2790 4547 
Q 3155 4538 3642 4531 
Q 3648 4723 3648 4886 
Q 3648 5050 3635 5165 
Q 3699 5152 3795 5142 
Q 3891 5133 3990 5126 
Q 4090 5120 4179 5117 
Q 4269 5114 4326 5120 
Q 4378 5126 4387 5097 
Q 4397 5069 4346 5024 
Q 4288 4973 4249 4873 
Q 4211 4774 4173 4531 
Q 4794 4531 5261 4540 
Q 5728 4550 6067 4582 
L 6067 4083 
Q 5722 4109 5245 4118 
Q 4768 4128 4122 4122 
Q 4109 3994 4093 3840 
Q 4077 3686 4058 3501 
Q 4589 3501 4921 3510 
Q 5254 3520 5478 3546 
Q 5472 3494 5465 3408 
Q 5459 3322 5456 3222 
Q 5453 3123 5453 3024 
Q 5453 2925 5453 2848 
L 5453 38 
Q 5645 45 5817 54 
Q 5990 64 6163 83 
L 6163 -429 
Q 6067 -422 5932 -412 
Q 5798 -403 5561 -396 
Q 5325 -390 4953 -387 
Q 4582 -384 4019 -384 
Q 3456 -384 3094 -387 
Q 2733 -390 2499 -393 
Q 2266 -397 2128 -406 
Q 1990 -416 1875 -422 
L 1875 83 
Q 2150 58 2483 45 
L 2483 2848 
z
M 4960 544 
L 2970 544 
L 2970 38 
L 4960 38 
L 4960 544 
z
" transform="scale(0.015625)"/>
       </defs>
       <use xlink:href="#STHeitiTC-Medium-4f"/>
       <use xlink:href="#STHeitiTC-Medium-70" transform="translate(86.899994 0)"/>
       <use xlink:href="#STHeitiTC-Medium-65" transform="translate(155.099976 0)"/>
       <use xlink:href="#STHeitiTC-Medium-6e" transform="translate(220.09996 0)"/>
       <use xlink:href="#STHeitiTC-Medium-41" transform="translate(281.099945 0)"/>
       <use xlink:href="#STHeitiTC-Medium-49" transform="translate(355.09993 0)"/>
       <use xlink:href="#STHeitiTC-Medium-20" transform="translate(377.699921 0)"/>
       <use xlink:href="#STHeitiTC-Medium-44" transform="translate(402.699905 0)"/>
       <use xlink:href="#STHeitiTC-Medium-65" transform="translate(477.099899 0)"/>
       <use xlink:href="#STHeitiTC-Medium-70" transform="translate(542.099884 0)"/>
       <use xlink:href="#STHeitiTC-Medium-6c" transform="translate(610.299866 0)"/>
       <use xlink:href="#STHeitiTC-Medium-6f" transform="translate(630.29985 0)"/>
       <use xlink:href="#STHeitiTC-Medium-79" transform="translate(695.799835 0)"/>
       <use xlink:href="#STHeitiTC-Medium-6d" transform="translate(749.399826 0)"/>
       <use xlink:href="#STHeitiTC-Medium-65" transform="translate(843.199814 0)"/>
       <use xlink:href="#STHeitiTC-Medium-6e" transform="translate(908.199799 0)"/>
       <use xlink:href="#STHeitiTC-Medium-74" transform="translate(969.199783 0)"/>
       <use xlink:href="#STHeitiTC-Medium-20" transform="translate(1003.099777 0)"/>
       <use xlink:href="#STHeitiTC-Medium-43" transform="translate(1028.099762 0)"/>
       <use xlink:href="#STHeitiTC-Medium-6f" transform="translate(1109.39975 0)"/>
       <use xlink:href="#STHeitiTC-Medium-20" transform="translate(1174.899734 0)"/>
       <use xlink:href="#STHeitiTC-Medium-6574" transform="translate(1199.899719 0)"/>
       <use xlink:href="#STHeitiTC-Medium-4f53" transform="translate(1299.899704 0)"/>
       <use xlink:href="#STHeitiTC-Medium-4f30" transform="translate(1399.899689 0)"/>
       <use xlink:href="#STHeitiTC-Medium-503c" transform="translate(1499.899673 0)"/>
      </g>
     </g>
    </g>
    <g id="ytick_2">
     <g id="line2d_18">
      <g>
       <use xlink:href="#md9e777af03" x="175.311094" y="155.80957" style="fill: #333333; stroke: #333333; stroke-width: 0.8"/>
      </g>
     </g>
     <g id="text_10">
      <!-- OpenAI Deployment Co 启动资金 -->
      <g style="fill: #333333" transform="translate(16.32 159.709024) scale(0.095 -0.095)">
       <defs>
        <path id="STHeitiTC-Medium-542f" d="M 5133 3936 
L 1933 3936 
L 1933 3059 
L 5133 3059 
L 5133 3936 
z
M 2938 -141 
L 2938 -691 
L 2304 -691 
Q 2349 -461 2371 -275 
Q 2394 -90 2394 134 
L 2394 1402 
Q 2394 1574 2384 1689 
Q 2374 1805 2355 1914 
Q 2470 1901 2595 1891 
Q 2720 1882 2912 1875 
Q 3104 1869 3385 1869 
Q 3667 1869 4090 1869 
Q 4512 1869 4797 1869 
Q 5082 1869 5274 1875 
Q 5466 1882 5594 1891 
Q 5722 1901 5830 1914 
Q 5811 1830 5798 1712 
Q 5786 1594 5786 1402 
L 5786 294 
Q 5786 70 5808 -125 
Q 5830 -320 5882 -531 
L 5248 -531 
L 5248 -141 
L 2938 -141 
z
M 5248 294 
L 5248 1427 
L 2938 1427 
L 2938 294 
L 5248 294 
z
M 3424 4403 
Q 3309 4749 3098 5062 
L 3680 5242 
Q 3776 5056 3869 4832 
Q 3962 4608 4019 4403 
Q 4698 4410 5126 4422 
Q 5555 4435 5696 4448 
Q 5683 4288 5676 4035 
Q 5670 3782 5670 3501 
Q 5670 3232 5676 2982 
Q 5683 2733 5696 2566 
Q 5587 2579 5296 2588 
Q 5005 2598 4422 2598 
L 1933 2598 
Q 1933 1562 1725 771 
Q 1517 -19 998 -602 
Q 909 -486 784 -368 
Q 659 -250 512 -160 
Q 883 173 1104 675 
Q 1325 1178 1376 1798 
Q 1408 2259 1398 2944 
Q 1389 3629 1344 4448 
Q 1530 4422 2048 4412 
Q 2566 4403 3424 4403 
z
" transform="scale(0.015625)"/>
        <path id="STHeitiTC-Medium-52a8" d="M 4576 3437 
Q 4563 3194 4550 3002 
Q 4538 2810 4522 2640 
Q 4506 2470 4486 2304 
Q 4467 2138 4442 1946 
Q 4384 1530 4291 1197 
Q 4198 864 4028 566 
Q 3859 269 3587 -16 
Q 3315 -301 2893 -621 
Q 2797 -493 2649 -400 
Q 2502 -307 2272 -237 
Q 2650 -38 2918 147 
Q 3187 333 3372 544 
Q 3558 755 3680 1017 
Q 3802 1280 3878 1638 
Q 3949 1965 4006 2445 
Q 4064 2925 4090 3430 
Q 3942 3424 3788 3414 
Q 3635 3405 3488 3395 
Q 3341 3386 3209 3373 
Q 3078 3360 2982 3347 
L 2982 3898 
Q 3187 3872 3465 3862 
Q 3744 3853 4109 3853 
Q 4122 4256 4112 4595 
Q 4102 4934 4064 5158 
Q 4403 5069 4736 5069 
Q 4832 5069 4845 5043 
Q 4858 5018 4787 4941 
Q 4749 4896 4723 4825 
Q 4698 4755 4675 4633 
Q 4653 4512 4637 4323 
Q 4621 4134 4602 3859 
Q 4787 3866 5011 3875 
Q 5235 3885 5443 3901 
Q 5651 3917 5814 3933 
Q 5978 3949 6048 3962 
Q 6010 3776 5981 3558 
Q 5952 3341 5946 3181 
L 5837 742 
Q 5818 371 5770 140 
Q 5722 -90 5600 -224 
Q 5478 -358 5270 -428 
Q 5062 -499 4723 -557 
Q 4659 -173 4371 141 
Q 4640 122 4816 125 
Q 4992 128 5097 173 
Q 5203 218 5248 314 
Q 5293 410 5306 563 
L 5472 3437 
L 4576 3437 
z
M 1523 2618 
Q 1389 2618 1241 2611 
Q 1094 2605 953 2598 
Q 813 2592 685 2582 
Q 557 2573 467 2566 
L 467 3091 
Q 589 3072 720 3062 
Q 851 3053 1011 3046 
Q 1171 3040 1363 3037 
Q 1555 3034 1805 3034 
Q 2170 3034 2467 3043 
Q 2765 3053 3066 3085 
L 3066 2566 
Q 2816 2592 2512 2605 
Q 2208 2618 1830 2618 
Q 1952 2547 2061 2522 
Q 2170 2490 2173 2454 
Q 2176 2419 2093 2387 
Q 2022 2355 1936 2233 
Q 1850 2112 1792 1965 
Q 1754 1869 1706 1773 
Q 1658 1677 1597 1558 
Q 1536 1440 1446 1283 
Q 1357 1126 1229 909 
L 2541 1158 
Q 2445 1395 2381 1526 
Q 2317 1658 2246 1766 
L 2701 1978 
Q 2733 1894 2774 1792 
Q 2816 1690 2883 1542 
Q 2950 1395 3052 1180 
Q 3155 966 3302 659 
L 2790 416 
Q 2765 563 2682 787 
L 1651 525 
Q 1459 480 1286 432 
Q 1114 384 976 336 
Q 838 288 742 249 
Q 646 211 608 186 
Q 518 525 352 806 
Q 429 800 531 809 
Q 634 819 800 838 
Q 1075 1370 1257 1846 
Q 1440 2323 1523 2618 
z
M 2912 3930 
Q 2726 3955 2502 3968 
Q 2278 3981 1926 3981 
Q 1472 3981 1219 3968 
Q 966 3955 806 3930 
L 806 4493 
Q 890 4480 982 4467 
Q 1075 4454 1203 4448 
Q 1331 4442 1507 4438 
Q 1683 4435 1933 4435 
Q 2272 4435 2509 4448 
Q 2746 4461 2912 4486 
L 2912 3930 
z
" transform="scale(0.015625)"/>
        <path id="STHeitiTC-Medium-8d44" d="M 5248 -678 
Q 4826 -410 4333 -160 
Q 3840 90 3354 288 
L 3622 691 
Q 4147 474 4659 246 
Q 5171 19 5606 -192 
L 5248 -678 
z
M 3533 1434 
Q 3469 1382 3421 1296 
Q 3373 1210 3315 1005 
Q 3226 666 3069 390 
Q 2912 115 2643 -99 
Q 2374 -314 1974 -464 
Q 1574 -614 998 -698 
Q 947 -589 864 -477 
Q 781 -365 653 -262 
Q 1370 -198 1830 -19 
Q 2291 160 2477 371 
Q 2662 576 2745 877 
Q 2829 1178 2861 1619 
Q 2989 1587 3155 1558 
Q 3322 1530 3482 1517 
Q 3571 1517 3577 1497 
Q 3584 1478 3533 1434 
z
M 4531 480 
L 4531 1850 
L 1907 1850 
L 1907 442 
L 1357 442 
Q 1376 608 1382 739 
Q 1389 870 1389 1024 
L 1389 1754 
Q 1389 1978 1382 2112 
Q 1376 2246 1357 2317 
Q 1472 2304 1603 2297 
Q 1734 2291 1936 2288 
Q 2138 2285 2445 2285 
Q 2752 2285 3219 2285 
Q 3686 2285 3990 2285 
Q 4294 2285 4496 2291 
Q 4698 2298 4829 2301 
Q 4960 2304 5082 2317 
Q 5056 2189 5056 1754 
L 5056 1062 
Q 5056 909 5062 777 
Q 5069 646 5082 480 
L 4531 480 
z
M 2125 3091 
Q 1651 2810 1308 2598 
Q 966 2387 672 2202 
Q 602 2362 528 2486 
Q 454 2611 358 2739 
Q 742 2874 1164 3078 
Q 1587 3283 1990 3565 
Q 2016 3398 2045 3299 
Q 2074 3200 2125 3091 
z
M 1606 3776 
Q 1184 4128 659 4378 
L 973 4794 
Q 1248 4666 1504 4531 
Q 1760 4397 1971 4262 
L 1606 3776 
z
M 3085 4077 
Q 2970 3930 2845 3792 
Q 2720 3654 2573 3507 
Q 2387 3693 2099 3750 
Q 2522 4115 2768 4457 
Q 3014 4800 3142 5190 
Q 3264 5133 3414 5088 
Q 3565 5043 3686 5030 
Q 3898 5011 3718 4883 
Q 3648 4832 3571 4752 
Q 3494 4672 3386 4506 
L 4646 4506 
Q 4768 4506 4950 4512 
Q 5133 4518 5312 4524 
Q 5491 4531 5641 4540 
Q 5792 4550 5862 4557 
L 5510 3565 
L 4928 3642 
L 5126 4077 
L 4115 4077 
Q 4243 3738 4428 3507 
Q 4614 3277 4854 3126 
Q 5094 2976 5392 2896 
Q 5690 2816 6042 2784 
Q 5914 2643 5837 2502 
Q 5760 2362 5709 2214 
Q 5082 2374 4618 2713 
Q 4154 3053 3949 3603 
Q 3763 3162 3382 2822 
Q 3002 2483 2496 2317 
Q 2432 2394 2339 2474 
Q 2246 2554 2125 2618 
Q 2784 2874 3161 3232 
Q 3539 3590 3686 4077 
L 3085 4077 
z
" transform="scale(0.015625)"/>
        <path id="STHeitiTC-Medium-91d1" d="M 1702 211 
Q 1670 288 1622 390 
Q 1574 493 1516 598 
Q 1459 704 1398 803 
Q 1338 902 1280 973 
L 1798 1197 
Q 2067 768 2227 461 
L 1702 211 
z
M 3379 4883 
Q 3731 4506 4044 4240 
Q 4358 3974 4678 3785 
Q 4998 3597 5350 3469 
Q 5702 3341 6131 3238 
Q 6080 3194 6032 3117 
Q 5984 3040 5949 2953 
Q 5914 2867 5888 2777 
Q 5862 2688 5862 2624 
Q 5024 2912 4355 3392 
Q 3686 3872 3117 4634 
Q 3002 4467 2838 4281 
Q 2675 4096 2480 3897 
Q 2285 3699 2067 3500 
Q 1850 3302 1626 3123 
Q 1747 3110 1884 3104 
Q 2022 3098 2192 3091 
Q 2362 3085 2573 3081 
Q 2784 3078 3059 3078 
Q 3635 3078 4028 3088 
Q 4422 3098 4730 3130 
L 4730 2598 
Q 4493 2618 4160 2627 
Q 3827 2637 3398 2643 
L 3398 1856 
Q 3987 1856 4457 1862 
Q 4928 1869 5254 1894 
L 5254 1376 
Q 4928 1402 4457 1408 
Q 3987 1414 3398 1414 
L 3398 90 
L 4000 83 
Q 4147 416 4240 726 
Q 4333 1037 4365 1235 
Q 4531 1165 4678 1110 
Q 4826 1056 4915 1030 
Q 4966 1018 4972 966 
Q 4979 915 4928 890 
Q 4902 877 4867 838 
Q 4832 800 4771 713 
Q 4710 627 4617 473 
Q 4525 320 4384 83 
Q 4749 90 5043 102 
Q 5338 115 5626 147 
L 5626 -454 
Q 5165 -422 4560 -403 
Q 3955 -384 3130 -384 
Q 2394 -384 1747 -400 
Q 1101 -416 640 -448 
L 640 154 
Q 1069 122 1654 106 
Q 2240 90 2880 90 
L 2880 1414 
Q 2298 1414 1821 1404 
Q 1344 1395 998 1370 
L 998 1901 
Q 1357 1875 1827 1865 
Q 2298 1856 2880 1856 
L 2880 2643 
Q 2637 2643 2448 2640 
Q 2259 2637 2102 2633 
Q 1946 2630 1818 2620 
Q 1690 2611 1568 2598 
L 1568 3078 
Q 1344 2899 1117 2739 
Q 890 2579 672 2464 
Q 621 2586 518 2691 
Q 416 2797 269 2861 
Q 742 3066 1174 3398 
Q 1606 3731 2042 4173 
Q 2336 4467 2499 4723 
Q 2662 4979 2771 5242 
Q 2835 5216 2924 5181 
Q 3014 5146 3100 5117 
Q 3187 5088 3260 5065 
Q 3334 5043 3366 5037 
Q 3494 5024 3497 4979 
Q 3501 4934 3379 4883 
z
" transform="scale(0.015625)"/>
       </defs>
       <use xlink:href="#STHeitiTC-Medium-4f"/>
       <use xlink:href="#STHeitiTC-Medium-70" transform="translate(86.899994 0)"/>
       <use xlink:href="#STHeitiTC-Medium-65" transform="translate(155.099976 0)"/>
       <use xlink:href="#STHeitiTC-Medium-6e" transform="translate(220.09996 0)"/>
       <use xlink:href="#STHeitiTC-Medium-41" transform="translate(281.099945 0)"/>
       <use xlink:href="#STHeitiTC-Medium-49" transform="translate(355.09993 0)"/>
       <use xlink:href="#STHeitiTC-Medium-20" transform="translate(377.699921 0)"/>
       <use xlink:href="#STHeitiTC-Medium-44" transform="translate(402.699905 0)"/>
       <use xlink:href="#STHeitiTC-Medium-65" transform="translate(477.099899 0)"/>
       <use xlink:href="#STHeitiTC-Medium-70" transform="translate(542.099884 0)"/>
       <use xlink:href="#STHeitiTC-Medium-6c" transform="translate(610.299866 0)"/>
       <use xlink:href="#STHeitiTC-Medium-6f" transform="translate(630.29985 0)"/>
       <use xlink:href="#STHeitiTC-Medium-79" transform="translate(695.799835 0)"/>
       <use xlink:href="#STHeitiTC-Medium-6d" transform="translate(749.399826 0)"/>
       <use xlink:href="#STHeitiTC-Medium-65" transform="translate(843.199814 0)"/>
       <use xlink:href="#STHeitiTC-Medium-6e" transform="translate(908.199799 0)"/>
       <use xlink:href="#STHeitiTC-Medium-74" transform="translate(969.199783 0)"/>
       <use xlink:href="#STHeitiTC-Medium-20" transform="translate(1003.099777 0)"/>
       <use xlink:href="#STHeitiTC-Medium-43" transform="translate(1028.099762 0)"/>
       <use xlink:href="#STHeitiTC-Medium-6f" transform="translate(1109.39975 0)"/>
       <use xlink:href="#STHeitiTC-Medium-20" transform="translate(1174.899734 0)"/>
       <use xlink:href="#STHeitiTC-Medium-542f" transform="translate(1199.899719 0)"/>
       <use xlink:href="#STHeitiTC-Medium-52a8" transform="translate(1299.899704 0)"/>
       <use xlink:href="#STHeitiTC-Medium-8d44" transform="translate(1399.899689 0)"/>
       <use xlink:href="#STHeitiTC-Medium-91d1" transform="translate(1499.899673 0)"/>
      </g>
     </g>
    </g>
    <g id="ytick_3">
     <g id="line2d_19">
      <g>
       <use xlink:href="#md9e777af03" x="175.311094" y="113.38" style="fill: #333333; stroke: #333333; stroke-width: 0.8"/>
      </g>
     </g>
     <g id="text_11">
      <!-- Anthropic 合资公司启动 -->
      <g style="fill: #333333" transform="translate(63.4875 117.279453) scale(0.095 -0.095)">
       <defs>
        <path id="STHeitiTC-Medium-68" d="M 3501 384 
L 2970 384 
L 2970 2048 
Q 2970 2534 2941 2732 
Q 2912 2931 2809 3107 
Q 2707 3283 2531 3376 
Q 2355 3469 2108 3469 
Q 1862 3469 1638 3353 
Q 1414 3238 1254 3033 
Q 1094 2829 1033 2598 
Q 973 2368 973 1677 
L 973 384 
L 442 384 
L 442 5184 
L 973 5184 
L 973 3347 
Q 1491 3962 2202 3962 
Q 2579 3962 2886 3766 
Q 3194 3571 3347 3228 
Q 3501 2886 3501 2176 
L 3501 384 
z
" transform="scale(0.015625)"/>
        <path id="STHeitiTC-Medium-72" d="M 1914 3821 
L 1638 3373 
Q 1530 3430 1427 3430 
Q 1229 3430 1069 3235 
Q 909 3040 829 2723 
Q 749 2406 749 1581 
L 749 384 
L 211 384 
L 211 3872 
L 749 3872 
L 749 3494 
Q 909 3731 1072 3846 
Q 1235 3962 1443 3962 
Q 1651 3962 1914 3821 
z
" transform="scale(0.015625)"/>
        <path id="STHeitiTC-Medium-69" d="M 640 5184 
Q 813 5184 931 5065 
Q 1050 4947 1050 4777 
Q 1050 4608 931 4489 
Q 813 4371 643 4371 
Q 474 4371 355 4492 
Q 237 4614 237 4777 
Q 237 4941 355 5062 
Q 474 5184 640 5184 
z
M 909 384 
L 378 384 
L 378 3872 
L 909 3872 
L 909 384 
z
" transform="scale(0.015625)"/>
        <path id="STHeitiTC-Medium-63" d="M 3853 1094 
Q 3578 691 3133 480 
Q 2688 269 2170 269 
Q 1363 269 822 800 
Q 282 1331 282 2099 
Q 282 2867 826 3414 
Q 1370 3962 2234 3962 
Q 2746 3962 3178 3738 
Q 3610 3514 3853 3110 
L 3437 2848 
Q 2970 3456 2214 3456 
Q 1619 3456 1216 3075 
Q 813 2694 813 2131 
Q 813 1568 1209 1165 
Q 1606 762 2214 762 
Q 2944 762 3443 1376 
L 3853 1094 
z
" transform="scale(0.015625)"/>
        <path id="STHeitiTC-Medium-5408" d="M 4614 2502 
Q 4499 2515 4374 2524 
Q 4250 2534 4086 2537 
Q 3923 2541 3705 2544 
Q 3488 2547 3187 2547 
Q 2886 2547 2665 2544 
Q 2445 2541 2275 2537 
Q 2106 2534 1981 2524 
Q 1856 2515 1741 2502 
L 1741 3046 
Q 1856 3034 1984 3027 
Q 2112 3021 2278 3014 
Q 2445 3008 2665 3005 
Q 2886 3002 3187 3002 
Q 3488 3002 3705 3005 
Q 3923 3008 4086 3011 
Q 4250 3014 4374 3024 
Q 4499 3034 4614 3046 
L 4614 2502 
z
M 3149 4518 
Q 2918 4224 2630 3926 
Q 2342 3629 2028 3341 
Q 1715 3053 1385 2787 
Q 1056 2522 749 2298 
Q 717 2342 662 2403 
Q 608 2464 541 2521 
Q 474 2579 400 2630 
Q 326 2682 262 2720 
Q 493 2816 790 3008 
Q 1088 3200 1392 3443 
Q 1696 3686 1974 3952 
Q 2253 4218 2438 4467 
Q 2675 4774 2771 4937 
Q 2867 5101 2880 5203 
Q 2944 5178 3037 5146 
Q 3130 5114 3226 5085 
Q 3322 5056 3405 5037 
Q 3488 5018 3539 5011 
Q 3610 4998 3616 4960 
Q 3622 4922 3565 4909 
Q 3488 4883 3430 4838 
Q 3648 4486 3981 4185 
Q 4314 3885 4688 3657 
Q 5062 3430 5440 3286 
Q 5818 3142 6131 3104 
Q 6022 2995 5910 2819 
Q 5798 2643 5747 2496 
Q 5338 2675 4957 2889 
Q 4576 3104 4240 3357 
Q 3904 3610 3625 3901 
Q 3347 4192 3149 4518 
z
M 4550 358 
L 4550 1376 
L 1843 1376 
L 1843 358 
L 4550 358 
z
M 1843 -83 
L 1843 -659 
L 1235 -659 
Q 1267 -435 1280 -256 
Q 1293 -77 1293 141 
L 1293 1350 
Q 1293 1517 1286 1638 
Q 1280 1760 1267 1862 
Q 1344 1856 1526 1849 
Q 1709 1843 1965 1840 
Q 2221 1837 2537 1837 
Q 2854 1837 3194 1837 
Q 3507 1837 3820 1837 
Q 4134 1837 4403 1840 
Q 4672 1843 4864 1849 
Q 5056 1856 5126 1862 
Q 5114 1779 5107 1667 
Q 5101 1555 5101 1370 
L 5101 160 
Q 5101 -58 5113 -246 
Q 5126 -435 5158 -640 
L 4550 -640 
L 4550 -83 
L 1843 -83 
z
" transform="scale(0.015625)"/>
        <path id="STHeitiTC-Medium-516c" d="M 6182 2470 
Q 6042 2381 5930 2230 
Q 5818 2080 5715 1856 
Q 5018 2362 4602 2986 
Q 4186 3610 3994 4403 
L 3450 4403 
Q 3251 4403 3014 4396 
Q 2778 4390 2554 4365 
L 2554 4864 
Q 2784 4845 3046 4832 
Q 3309 4819 3520 4819 
Q 3808 4819 4022 4828 
Q 4237 4838 4416 4864 
Q 4563 4026 4985 3421 
Q 5408 2816 6182 2470 
z
M 2355 4147 
Q 2278 4115 2198 3996 
Q 2118 3878 2048 3731 
Q 1805 3200 1497 2701 
Q 1190 2202 717 1734 
Q 627 1862 492 1961 
Q 358 2061 211 2131 
Q 774 2534 1174 3113 
Q 1574 3693 1779 4480 
Q 1926 4403 2086 4348 
Q 2246 4294 2349 4282 
Q 2426 4269 2432 4224 
Q 2438 4179 2355 4147 
z
M 4333 525 
Q 4058 1011 3770 1414 
L 4243 1670 
Q 4570 1248 4896 768 
Q 5222 288 5478 -147 
L 4851 -518 
Q 4800 -384 4729 -230 
Q 4659 -77 4576 90 
Q 3891 45 3289 -9 
Q 2688 -64 2221 -118 
Q 1754 -173 1450 -221 
Q 1146 -269 1050 -301 
Q 1018 -154 966 -10 
Q 915 134 819 320 
L 1325 352 
Q 1587 698 1820 1082 
Q 2054 1466 2246 1830 
Q 2438 2195 2572 2518 
Q 2707 2842 2771 3066 
Q 2982 2950 3139 2880 
Q 3296 2810 3424 2771 
Q 3539 2739 3529 2697 
Q 3520 2656 3418 2605 
Q 3379 2586 3302 2499 
Q 3226 2413 3149 2272 
Q 3046 2086 2908 1849 
Q 2771 1613 2617 1363 
Q 2464 1114 2304 861 
Q 2144 608 1990 390 
L 4333 525 
z
" transform="scale(0.015625)"/>
        <path id="STHeitiTC-Medium-53f8" d="M 1754 627 
L 1754 -38 
L 1165 -38 
Q 1178 77 1190 208 
Q 1203 339 1212 476 
Q 1222 614 1228 745 
Q 1235 877 1235 986 
L 1235 1824 
Q 1235 1997 1222 2182 
Q 1210 2368 1190 2490 
Q 1267 2477 1427 2470 
Q 1587 2464 1798 2457 
Q 2010 2451 2266 2448 
Q 2522 2445 2797 2445 
Q 3347 2445 3715 2457 
Q 4083 2470 4230 2490 
Q 4218 2400 4202 2211 
Q 4186 2022 4186 1830 
L 4186 986 
Q 4186 762 4195 602 
Q 4205 442 4230 262 
L 3674 262 
L 3674 627 
L 1754 627 
z
M 3674 1088 
L 3674 1990 
L 1754 1990 
L 1754 1088 
L 3674 1088 
z
M 5619 4806 
Q 5613 4736 5606 4669 
Q 5600 4602 5597 4518 
Q 5594 4435 5594 4320 
Q 5594 4205 5594 4045 
L 5594 77 
Q 5594 -134 5539 -284 
Q 5485 -435 5347 -528 
Q 5210 -621 4970 -662 
Q 4730 -704 4365 -691 
Q 4352 -525 4304 -371 
Q 4256 -218 4147 -38 
Q 4435 -58 4611 -58 
Q 4787 -58 4883 -22 
Q 4979 13 5008 77 
Q 5037 141 5037 250 
L 5037 4269 
L 3206 4269 
Q 2733 4269 2406 4265 
Q 2080 4262 1846 4259 
Q 1613 4256 1456 4246 
Q 1299 4237 1171 4230 
L 1171 4806 
Q 1542 4774 2064 4761 
Q 2586 4749 3322 4749 
Q 4064 4749 4656 4765 
Q 5248 4781 5619 4806 
z
M 4499 3066 
Q 4294 3085 4140 3094 
Q 3987 3104 3808 3110 
Q 3629 3117 3395 3120 
Q 3162 3123 2790 3123 
Q 2445 3123 2173 3120 
Q 1901 3117 1667 3110 
Q 1434 3104 1222 3091 
Q 1011 3078 781 3066 
L 781 3629 
Q 1011 3616 1225 3603 
Q 1440 3590 1673 3584 
Q 1907 3578 2176 3574 
Q 2445 3571 2790 3571 
Q 3162 3571 3402 3574 
Q 3642 3578 3818 3581 
Q 3994 3584 4147 3597 
Q 4301 3610 4499 3629 
L 4499 3066 
z
" transform="scale(0.015625)"/>
       </defs>
       <use xlink:href="#STHeitiTC-Medium-41"/>
       <use xlink:href="#STHeitiTC-Medium-6e" transform="translate(73.999985 0)"/>
       <use xlink:href="#STHeitiTC-Medium-74" transform="translate(134.999969 0)"/>
       <use xlink:href="#STHeitiTC-Medium-68" transform="translate(168.899963 0)"/>
       <use xlink:href="#STHeitiTC-Medium-72" transform="translate(229.899948 0)"/>
       <use xlink:href="#STHeitiTC-Medium-6f" transform="translate(259.999939 0)"/>
       <use xlink:href="#STHeitiTC-Medium-70" transform="translate(325.499924 0)"/>
       <use xlink:href="#STHeitiTC-Medium-69" transform="translate(393.699905 0)"/>
       <use xlink:href="#STHeitiTC-Medium-63" transform="translate(413.69989 0)"/>
       <use xlink:href="#STHeitiTC-Medium-20" transform="translate(478.399887 0)"/>
       <use xlink:href="#STHeitiTC-Medium-5408" transform="translate(503.399872 0)"/>
       <use xlink:href="#STHeitiTC-Medium-8d44" transform="translate(603.399857 0)"/>
       <use xlink:href="#STHeitiTC-Medium-516c" transform="translate(703.399841 0)"/>
       <use xlink:href="#STHeitiTC-Medium-53f8" transform="translate(803.399826 0)"/>
       <use xlink:href="#STHeitiTC-Medium-542f" transform="translate(903.399811 0)"/>
       <use xlink:href="#STHeitiTC-Medium-52a8" transform="translate(1003.399796 0)"/>
      </g>
     </g>
    </g>
    <g id="ytick_4">
     <g id="line2d_20">
      <g>
       <use xlink:href="#md9e777af03" x="175.311094" y="70.95043" style="fill: #333333; stroke: #333333; stroke-width: 0.8"/>
      </g>
     </g>
     <g id="text_12">
      <!-- Anthropic、黑石、H&amp;F 各自锚定出资 -->
      <g style="fill: #333333" transform="translate(7.2 74.849883) scale(0.095 -0.095)">
       <defs>
        <path id="STHeitiTC-Medium-3001" d="M 4026 2131 
L 3642 1760 
Q 2982 2458 2298 2963 
L 2624 3322 
Q 3270 2861 4026 2131 
z
" transform="scale(0.015625)"/>
        <path id="STHeitiTC-Medium-9ed1" d="M 2106 3245 
Q 2074 3462 2032 3622 
Q 1990 3782 1914 3949 
L 2413 4077 
Q 2445 3930 2499 3750 
Q 2554 3571 2618 3392 
L 2106 3245 
z
M 4659 3910 
Q 4608 3853 4573 3801 
Q 4538 3750 4499 3676 
Q 4461 3603 4413 3497 
Q 4365 3392 4288 3219 
L 3802 3386 
Q 3923 3635 3987 3795 
Q 4051 3955 4096 4141 
L 4659 3910 
z
M 2278 -538 
Q 2323 -326 2294 -83 
Q 2266 160 2195 346 
L 2746 480 
Q 2790 262 2832 16 
Q 2874 -230 2899 -435 
L 2278 -538 
z
M 3718 -538 
Q 3718 -442 3699 -320 
Q 3680 -198 3654 -73 
Q 3629 51 3597 163 
Q 3565 275 3533 365 
L 4051 474 
Q 4102 275 4166 48 
Q 4230 -179 4294 -384 
L 3718 -538 
z
M 1478 403 
Q 1446 307 1388 172 
Q 1331 38 1264 -102 
Q 1197 -243 1126 -374 
Q 1056 -506 998 -595 
L 442 -339 
Q 621 -154 758 83 
Q 896 320 966 582 
L 1478 403 
z
M 5267 -582 
Q 5197 -371 5065 -102 
Q 4934 166 4806 384 
L 5299 582 
Q 5414 371 5568 118 
Q 5722 -134 5869 -358 
L 5267 -582 
z
M 3469 3014 
L 4915 3014 
L 4915 4378 
L 3469 4378 
L 3469 3014 
z
M 2995 4378 
L 1587 4378 
L 1587 3014 
L 2995 3014 
L 2995 4378 
z
M 3469 1216 
Q 4275 1216 4883 1225 
Q 5491 1235 5952 1261 
L 5952 749 
Q 5459 768 4787 777 
Q 4115 787 3219 787 
Q 2317 787 1648 774 
Q 979 762 486 742 
L 486 1261 
Q 947 1235 1561 1225 
Q 2176 1216 2995 1216 
L 2995 1702 
Q 2355 1702 1875 1692 
Q 1395 1683 1030 1658 
L 1030 2131 
Q 1402 2106 1878 2096 
Q 2355 2086 2995 2086 
L 2995 2618 
Q 2336 2618 1875 2608 
Q 1414 2598 1050 2573 
Q 1075 2778 1084 3078 
Q 1094 3379 1094 3706 
Q 1094 4032 1084 4333 
Q 1075 4634 1050 4838 
Q 1446 4813 1968 4803 
Q 2490 4794 3258 4794 
Q 4026 4794 4544 4803 
Q 5062 4813 5459 4838 
Q 5434 4634 5424 4333 
Q 5414 4032 5414 3706 
Q 5414 3322 5424 3050 
Q 5434 2778 5459 2573 
Q 5088 2598 4617 2608 
Q 4147 2618 3469 2618 
L 3469 2086 
Q 4090 2086 4560 2096 
Q 5030 2106 5389 2131 
L 5389 1658 
Q 5030 1683 4560 1692 
Q 4090 1702 3469 1702 
L 3469 1216 
z
" transform="scale(0.015625)"/>
        <path id="STHeitiTC-Medium-77f3" d="M 4659 2234 
L 2413 2234 
L 2413 544 
L 4659 544 
L 4659 2234 
z
M 1894 1818 
Q 1683 1574 1408 1296 
Q 1133 1018 800 736 
Q 730 870 608 1001 
Q 486 1133 358 1222 
Q 730 1472 1066 1753 
Q 1402 2035 1690 2380 
Q 1978 2726 2211 3158 
Q 2445 3590 2611 4147 
Q 1990 4141 1510 4128 
Q 1030 4115 646 4083 
L 646 4672 
Q 1133 4640 1782 4627 
Q 2432 4614 3334 4614 
Q 4250 4614 4902 4627 
Q 5555 4640 6035 4672 
L 6035 4083 
Q 5536 4115 4838 4131 
Q 4141 4147 3187 4147 
Q 3072 3789 2889 3411 
Q 2707 3034 2515 2707 
L 4358 2707 
Q 4666 2707 4893 2720 
Q 5120 2733 5274 2752 
Q 5248 2624 5238 2451 
Q 5229 2278 5229 2093 
L 5229 429 
Q 5229 243 5238 -6 
Q 5248 -256 5274 -486 
L 4659 -486 
L 4659 64 
L 2413 64 
L 2413 -595 
L 1843 -595 
Q 1869 -339 1881 -60 
Q 1894 218 1894 506 
L 1894 1818 
z
" transform="scale(0.015625)"/>
        <path id="STHeitiTC-Medium-48" d="M 3859 384 
L 3309 384 
L 3309 2605 
L 1062 2605 
L 1062 384 
L 506 384 
L 506 5069 
L 1062 5069 
L 1062 3142 
L 3309 3142 
L 3309 5069 
L 3859 5069 
L 3859 384 
z
" transform="scale(0.015625)"/>
        <path id="STHeitiTC-Medium-26" d="M 4781 704 
L 4019 704 
L 3443 1299 
Q 2874 877 2512 733 
Q 2150 589 1734 589 
Q 1197 589 854 905 
Q 512 1222 512 1676 
Q 512 2131 800 2499 
Q 1088 2867 1600 3270 
Q 1248 3680 1136 3907 
Q 1024 4134 1024 4346 
Q 1024 4730 1331 4976 
Q 1638 5222 2105 5222 
Q 2573 5222 2864 4960 
Q 3155 4698 3155 4346 
Q 3155 4115 3008 3856 
Q 2861 3597 2368 3174 
L 3488 2029 
L 4045 2515 
L 4422 2118 
Q 4154 1882 3872 1658 
Q 4237 1286 4781 704 
z
M 2029 3584 
Q 2598 4045 2598 4352 
Q 2598 4499 2454 4598 
Q 2310 4698 2096 4698 
Q 1882 4698 1728 4595 
Q 1574 4493 1574 4326 
Q 1574 4224 1667 4057 
Q 1760 3891 2029 3584 
z
M 3066 1690 
L 1958 2848 
Q 1421 2445 1241 2192 
Q 1062 1939 1062 1715 
Q 1062 1491 1270 1299 
Q 1478 1107 1760 1107 
Q 2042 1107 2330 1238 
Q 2618 1370 3066 1690 
z
" transform="scale(0.015625)"/>
        <path id="STHeitiTC-Medium-46" d="M 2906 2637 
L 1062 2637 
L 1062 384 
L 512 384 
L 512 5069 
L 2906 5069 
L 2906 4525 
L 1062 4525 
L 1062 3181 
L 2906 3181 
L 2906 2637 
z
" transform="scale(0.015625)"/>
        <path id="STHeitiTC-Medium-5404" d="M 4576 1165 
L 2118 1165 
L 2118 218 
L 4576 218 
L 4576 1165 
z
M 2118 -691 
L 1549 -691 
Q 1562 -563 1571 -464 
Q 1581 -365 1587 -272 
Q 1594 -179 1597 -89 
Q 1600 0 1600 109 
L 1600 1133 
Q 1600 1299 1590 1424 
Q 1581 1549 1562 1651 
Q 1683 1638 1824 1625 
Q 1965 1613 2166 1603 
Q 2368 1594 2656 1590 
Q 2944 1587 3360 1587 
Q 3789 1587 4083 1590 
Q 4378 1594 4576 1603 
Q 4774 1613 4905 1625 
Q 5037 1638 5146 1651 
Q 5120 1562 5110 1440 
Q 5101 1318 5101 1133 
L 5101 186 
Q 5101 -32 5113 -214 
Q 5126 -397 5152 -614 
L 4576 -614 
L 4576 -198 
L 2118 -198 
L 2118 -691 
z
M 3347 2432 
Q 2778 2086 2086 1868 
Q 1395 1651 640 1504 
Q 589 1632 499 1766 
Q 410 1901 269 2035 
Q 1024 2125 1705 2278 
Q 2387 2432 2944 2714 
Q 2637 2963 2416 3244 
Q 2195 3526 2042 3834 
Q 1862 3565 1676 3318 
Q 1491 3072 1331 2899 
Q 1222 3008 1113 3078 
Q 1005 3149 864 3200 
Q 1082 3366 1293 3600 
Q 1504 3834 1693 4099 
Q 1882 4365 2032 4649 
Q 2182 4934 2278 5216 
Q 2400 5146 2550 5091 
Q 2701 5037 2822 5011 
Q 2893 4998 2896 4963 
Q 2899 4928 2854 4902 
Q 2803 4870 2697 4764 
Q 2592 4659 2490 4525 
L 5344 4525 
Q 5242 4294 5110 4076 
Q 4979 3859 4796 3638 
Q 4614 3418 4368 3194 
Q 4122 2970 3795 2726 
Q 4237 2522 4813 2410 
Q 5389 2298 6125 2298 
Q 6029 2157 5958 1971 
Q 5888 1786 5856 1619 
Q 5037 1734 4422 1942 
Q 3808 2150 3347 2432 
z
M 3360 2963 
Q 3725 3206 3993 3478 
Q 4262 3750 4506 4083 
L 2355 4083 
Q 2528 3750 2774 3468 
Q 3021 3187 3360 2963 
z
" transform="scale(0.015625)"/>
        <path id="STHeitiTC-Medium-81ea" d="M 4698 3782 
L 1683 3782 
L 1683 2976 
L 4698 2976 
L 4698 3782 
z
M 4698 2534 
L 1683 2534 
L 1683 1760 
L 4698 1760 
L 4698 2534 
z
M 4698 1325 
L 1683 1325 
L 1683 448 
L 4698 448 
L 4698 1325 
z
M 1683 -666 
L 1069 -666 
Q 1101 -422 1113 -169 
Q 1126 83 1126 371 
L 1126 3712 
Q 1126 3878 1120 4019 
Q 1114 4160 1101 4262 
Q 1229 4250 1542 4240 
Q 1856 4230 2272 4224 
Q 2368 4448 2429 4710 
Q 2490 4973 2522 5216 
Q 2592 5190 2691 5164 
Q 2790 5139 2892 5113 
Q 2995 5088 3088 5069 
Q 3181 5050 3238 5043 
Q 3322 5030 3325 5008 
Q 3328 4986 3245 4915 
Q 3200 4877 3072 4685 
Q 2944 4493 2797 4224 
L 3840 4224 
Q 4096 4224 4329 4227 
Q 4563 4230 4752 4236 
Q 4941 4243 5081 4249 
Q 5222 4256 5299 4262 
Q 5286 4166 5280 4041 
Q 5274 3917 5274 3712 
L 5274 371 
Q 5274 90 5286 -118 
Q 5299 -326 5331 -563 
L 4698 -563 
L 4698 -26 
L 1683 -26 
L 1683 -666 
z
" transform="scale(0.015625)"/>
        <path id="STHeitiTC-Medium-951a" d="M 1261 3718 
Q 1158 3571 1046 3427 
Q 934 3283 806 3136 
Q 954 3117 1155 3104 
Q 1357 3091 1638 3091 
Q 1926 3091 2128 3104 
Q 2330 3117 2477 3142 
L 2477 2624 
Q 2336 2650 2150 2662 
Q 1965 2675 1696 2675 
L 1696 1958 
Q 1978 1965 2173 1977 
Q 2368 1990 2534 2010 
L 2534 1478 
Q 2368 1498 2173 1510 
Q 1978 1523 1696 1530 
L 1696 282 
Q 1862 410 2041 557 
Q 2221 704 2394 851 
Q 2406 710 2432 608 
Q 2458 506 2534 371 
L 1818 -205 
Q 1690 -314 1581 -406 
Q 1472 -499 1344 -640 
Q 1254 -486 1171 -371 
Q 1088 -256 1018 -173 
Q 1082 -96 1123 -16 
Q 1165 64 1193 163 
Q 1222 262 1235 390 
Q 1248 518 1248 698 
L 1248 1530 
Q 998 1523 806 1510 
Q 614 1498 467 1478 
L 467 2010 
Q 614 1990 806 1977 
Q 998 1965 1248 1958 
L 1248 2669 
Q 1101 2656 985 2646 
Q 870 2637 781 2624 
L 781 3110 
Q 730 3059 678 3001 
Q 627 2944 576 2893 
Q 512 3027 445 3100 
Q 378 3174 256 3264 
Q 448 3398 633 3616 
Q 819 3834 976 4083 
Q 1133 4333 1251 4585 
Q 1370 4838 1427 5043 
Q 1690 4915 1901 4877 
Q 2022 4851 2022 4812 
Q 2022 4774 1901 4685 
Q 1856 4653 1769 4531 
Q 1683 4410 1530 4154 
Q 1722 4154 1869 4157 
Q 2016 4160 2131 4163 
Q 2246 4166 2336 4176 
Q 2426 4186 2509 4198 
L 2509 3674 
Q 2426 3686 2326 3696 
Q 2227 3706 2086 3709 
Q 1946 3712 1747 3715 
Q 1549 3718 1261 3718 
z
M 5318 1005 
L 4512 1005 
L 4512 154 
L 5318 154 
L 5318 1005 
z
M 3328 -646 
L 2822 -646 
Q 2848 -442 2864 -170 
Q 2880 102 2880 390 
L 2880 1984 
Q 2880 2419 2842 2707 
Q 3078 2675 3465 2659 
Q 3853 2643 4346 2643 
Q 4819 2643 5187 2659 
Q 5555 2675 5805 2707 
Q 5786 2579 5776 2390 
Q 5766 2202 5766 1984 
L 5766 416 
Q 5766 250 5779 3 
Q 5792 -243 5824 -550 
L 5318 -550 
L 5318 -256 
L 3328 -256 
L 3328 -646 
z
M 3328 154 
L 4064 154 
L 4064 1005 
L 3328 1005 
L 3328 154 
z
M 3328 2246 
L 3328 1414 
L 4064 1414 
L 4064 2246 
L 3328 2246 
z
M 5318 2246 
L 4512 2246 
L 4512 1414 
L 5318 1414 
L 5318 2246 
z
M 5152 4160 
Q 5459 4160 5705 4169 
Q 5952 4179 6138 4211 
L 6138 3686 
Q 5773 3744 5152 3744 
L 5152 2976 
L 4710 2976 
L 4710 3744 
L 3942 3744 
L 3942 2976 
L 3501 2976 
L 3501 3738 
Q 3296 3731 3126 3718 
Q 2957 3706 2816 3686 
L 2816 4211 
Q 2963 4186 3129 4176 
Q 3296 4166 3501 4160 
Q 3501 4499 3491 4681 
Q 3482 4864 3462 4986 
Q 3590 4973 3728 4960 
Q 3866 4947 3987 4947 
Q 4045 4947 4054 4918 
Q 4064 4890 4013 4858 
Q 3968 4832 3955 4806 
Q 3942 4781 3942 4723 
L 3942 4160 
L 4710 4160 
Q 4710 4506 4700 4701 
Q 4691 4896 4672 5018 
Q 4800 5005 4937 4992 
Q 5075 4979 5197 4979 
Q 5254 4979 5264 4950 
Q 5274 4922 5222 4890 
Q 5178 4864 5165 4838 
Q 5152 4813 5152 4755 
L 5152 4160 
z
" transform="scale(0.015625)"/>
        <path id="STHeitiTC-Medium-5b9a" d="M 3059 4250 
Q 2989 4448 2912 4617 
Q 2835 4787 2726 4973 
L 3328 5165 
Q 3411 5030 3520 4816 
Q 3629 4602 3712 4416 
L 3059 4250 
z
M 4365 1773 
Q 4634 1773 4883 1789 
Q 5133 1805 5357 1837 
L 5357 1254 
Q 5152 1286 4905 1302 
Q 4659 1318 4365 1318 
L 3475 1318 
L 3475 90 
Q 4019 6 4684 6 
Q 5350 6 6042 115 
Q 5952 -32 5923 -169 
Q 5894 -307 5894 -550 
Q 5677 -570 5347 -570 
Q 5018 -570 4662 -550 
Q 4307 -531 3971 -499 
Q 3635 -467 3398 -416 
Q 3078 -352 2825 -259 
Q 2573 -166 2358 -25 
Q 2144 115 1955 304 
Q 1766 493 1587 749 
Q 1478 512 1388 329 
Q 1299 147 1209 -13 
Q 1120 -173 1024 -320 
Q 928 -467 813 -627 
Q 672 -518 576 -454 
Q 480 -390 352 -320 
Q 742 134 1062 774 
Q 1382 1414 1562 2118 
Q 1690 2054 1853 2006 
Q 2016 1958 2125 1939 
Q 2214 1926 2220 1888 
Q 2227 1850 2144 1760 
Q 2054 1664 1968 1533 
Q 1882 1402 1773 1171 
Q 1958 838 2275 595 
Q 2592 352 2950 218 
L 2950 2643 
Q 2432 2637 2048 2624 
Q 1664 2611 1376 2586 
L 1376 3130 
Q 1702 3098 2131 3085 
Q 2560 3072 3162 3072 
Q 3770 3072 4202 3085 
Q 4634 3098 4960 3130 
L 4960 2586 
Q 4678 2611 4316 2624 
Q 3955 2637 3475 2643 
L 3475 1773 
L 4365 1773 
z
M 3181 4186 
Q 3757 4186 4163 4189 
Q 4570 4192 4864 4201 
Q 5158 4211 5363 4220 
Q 5568 4230 5741 4243 
L 5741 2963 
L 5184 2963 
L 5184 3744 
L 1184 3744 
L 1184 2874 
L 627 2874 
L 627 4243 
Q 800 4230 1005 4217 
Q 1210 4205 1501 4198 
Q 1792 4192 2198 4189 
Q 2605 4186 3181 4186 
z
" transform="scale(0.015625)"/>
        <path id="STHeitiTC-Medium-51fa" d="M 4973 320 
L 4973 1203 
Q 4973 1402 4963 1546 
Q 4954 1690 4934 1824 
Q 5120 1792 5251 1789 
Q 5382 1786 5536 1798 
Q 5606 1805 5616 1773 
Q 5626 1741 5574 1690 
Q 5530 1645 5514 1517 
Q 5498 1389 5498 1197 
L 5498 115 
Q 5498 -70 5504 -236 
Q 5510 -403 5523 -595 
L 4973 -595 
L 4973 -141 
L 1318 -141 
L 1318 -646 
L 768 -646 
Q 794 -480 803 -304 
Q 813 -128 813 141 
L 813 1146 
Q 813 1453 803 1619 
Q 794 1786 768 1888 
Q 934 1856 1094 1849 
Q 1254 1843 1370 1856 
Q 1440 1869 1453 1830 
Q 1466 1792 1402 1741 
Q 1344 1690 1331 1635 
Q 1318 1581 1318 1510 
L 1318 320 
L 2893 320 
L 2893 2387 
Q 2208 2387 1731 2374 
Q 1254 2362 1050 2349 
Q 1075 2496 1088 2637 
Q 1101 2778 1101 2918 
L 1101 3942 
Q 1101 4096 1091 4240 
Q 1082 4384 1050 4512 
Q 1254 4480 1411 4470 
Q 1568 4461 1709 4474 
Q 1798 4480 1804 4435 
Q 1811 4390 1734 4333 
Q 1683 4294 1664 4195 
Q 1645 4096 1645 3949 
L 1645 2848 
L 2893 2848 
L 2893 4262 
Q 2893 4589 2883 4774 
Q 2874 4960 2848 5114 
Q 3034 5082 3190 5072 
Q 3347 5062 3533 5075 
Q 3622 5082 3632 5040 
Q 3642 4998 3578 4947 
Q 3514 4896 3482 4710 
Q 3450 4525 3450 4269 
L 3450 2848 
L 4813 2848 
L 4813 3942 
Q 4813 4141 4800 4285 
Q 4787 4429 4755 4563 
Q 4941 4531 5104 4524 
Q 5267 4518 5414 4531 
Q 5478 4538 5488 4502 
Q 5498 4467 5453 4416 
Q 5402 4365 5379 4253 
Q 5357 4141 5357 3936 
L 5357 2989 
Q 5357 2803 5363 2656 
Q 5370 2509 5382 2349 
Q 5267 2355 5104 2364 
Q 4941 2374 4707 2377 
Q 4474 2381 4163 2384 
Q 3853 2387 3450 2387 
L 3450 320 
L 4973 320 
z
" transform="scale(0.015625)"/>
       </defs>
       <use xlink:href="#STHeitiTC-Medium-41"/>
       <use xlink:href="#STHeitiTC-Medium-6e" transform="translate(73.999985 0)"/>
       <use xlink:href="#STHeitiTC-Medium-74" transform="translate(134.999969 0)"/>
       <use xlink:href="#STHeitiTC-Medium-68" transform="translate(168.899963 0)"/>
       <use xlink:href="#STHeitiTC-Medium-72" transform="translate(229.899948 0)"/>
       <use xlink:href="#STHeitiTC-Medium-6f" transform="translate(259.999939 0)"/>
       <use xlink:href="#STHeitiTC-Medium-70" transform="translate(325.499924 0)"/>
       <use xlink:href="#STHeitiTC-Medium-69" transform="translate(393.699905 0)"/>
       <use xlink:href="#STHeitiTC-Medium-63" transform="translate(413.69989 0)"/>
       <use xlink:href="#STHeitiTC-Medium-3001" transform="translate(478.399887 0)"/>
       <use xlink:href="#STHeitiTC-Medium-9ed1" transform="translate(578.399872 0)"/>
       <use xlink:href="#STHeitiTC-Medium-77f3" transform="translate(678.399857 0)"/>
       <use xlink:href="#STHeitiTC-Medium-3001" transform="translate(778.399841 0)"/>
       <use xlink:href="#STHeitiTC-Medium-48" transform="translate(878.399826 0)"/>
       <use xlink:href="#STHeitiTC-Medium-26" transform="translate(946.699814 0)"/>
       <use xlink:href="#STHeitiTC-Medium-46" transform="translate(1022.399796 0)"/>
       <use xlink:href="#STHeitiTC-Medium-20" transform="translate(1070.89978 0)"/>
       <use xlink:href="#STHeitiTC-Medium-5404" transform="translate(1095.899765 0)"/>
       <use xlink:href="#STHeitiTC-Medium-81ea" transform="translate(1195.89975 0)"/>
       <use xlink:href="#STHeitiTC-Medium-951a" transform="translate(1295.899734 0)"/>
       <use xlink:href="#STHeitiTC-Medium-5b9a" transform="translate(1395.899719 0)"/>
       <use xlink:href="#STHeitiTC-Medium-51fa" transform="translate(1495.899704 0)"/>
       <use xlink:href="#STHeitiTC-Medium-8d44" transform="translate(1595.899689 0)"/>
      </g>
     </g>
    </g>
    <g id="ytick_5">
     <g id="line2d_21">
      <g>
       <use xlink:href="#md9e777af03" x="175.311094" y="28.520859" style="fill: #333333; stroke: #333333; stroke-width: 0.8"/>
      </g>
     </g>
     <g id="text_13">
      <!-- 高盛创始出资 -->
      <g style="fill: #333333" transform="translate(111.311094 32.368359) scale(0.095 -0.095)">
       <defs>
        <path id="STHeitiTC-Medium-9ad8" d="M 2029 2938 
L 4410 2938 
L 4410 3354 
L 2029 3354 
L 2029 2938 
z
M 4941 3782 
Q 4902 3494 4905 3168 
Q 4909 2842 4947 2509 
Q 4557 2534 4118 2540 
Q 3680 2547 3200 2547 
Q 2752 2547 2310 2537 
Q 1869 2528 1466 2496 
Q 1491 2618 1504 2774 
Q 1517 2931 1517 3097 
Q 1517 3264 1507 3437 
Q 1498 3610 1478 3770 
Q 1670 3750 1862 3740 
Q 2054 3731 2262 3724 
Q 2470 3718 2704 3715 
Q 2938 3712 3206 3712 
Q 3667 3712 4112 3731 
Q 4557 3750 4941 3782 
z
M 2470 461 
L 3930 461 
L 3930 928 
L 2470 928 
L 2470 461 
z
M 4448 1376 
Q 4416 1069 4416 736 
Q 4416 403 4454 45 
Q 4307 51 4176 57 
Q 4045 64 3904 67 
Q 3763 70 3596 70 
Q 3430 70 3213 70 
Q 2470 70 1952 32 
Q 1984 358 1987 688 
Q 1990 1018 1958 1363 
Q 2080 1344 2192 1334 
Q 2304 1325 2445 1321 
Q 2586 1318 2768 1315 
Q 2950 1312 3206 1312 
Q 3411 1312 3577 1315 
Q 3744 1318 3888 1324 
Q 4032 1331 4166 1344 
Q 4301 1357 4448 1376 
z
M 3590 4557 
Q 4486 4563 5046 4572 
Q 5606 4582 5875 4608 
L 5875 4083 
Q 5568 4115 4912 4121 
Q 4256 4128 3200 4122 
Q 2246 4115 1580 4102 
Q 915 4090 525 4058 
L 525 4608 
Q 890 4582 1488 4569 
Q 2086 4557 2976 4557 
Q 2925 4723 2867 4867 
Q 2810 5011 2752 5101 
L 3539 5190 
Q 3539 5082 3552 4912 
Q 3565 4742 3590 4557 
z
M 4474 -685 
Q 4512 -557 4477 -429 
Q 4442 -301 4294 -109 
Q 4557 -134 4704 -131 
Q 4851 -128 4924 -99 
Q 4998 -70 5017 -9 
Q 5037 51 5037 141 
L 5037 1747 
L 1382 1747 
L 1382 -640 
L 806 -640 
Q 826 -499 835 -384 
Q 845 -269 851 -166 
Q 858 -64 861 38 
Q 864 141 864 256 
L 864 1600 
Q 864 1747 851 1916 
Q 838 2086 813 2214 
Q 1197 2182 1795 2166 
Q 2394 2150 3232 2150 
Q 3686 2150 4054 2153 
Q 4422 2157 4713 2166 
Q 5005 2176 5232 2189 
Q 5459 2202 5638 2221 
Q 5606 2106 5593 1930 
Q 5581 1754 5581 1600 
L 5581 83 
Q 5581 -128 5558 -262 
Q 5536 -397 5427 -480 
Q 5318 -563 5094 -611 
Q 4870 -659 4474 -685 
z
" transform="scale(0.015625)"/>
        <path id="STHeitiTC-Medium-76db" d="M 4634 4474 
Q 4544 4582 4451 4681 
Q 4358 4781 4262 4864 
L 4710 5146 
Q 4819 5069 4928 4950 
Q 5037 4832 5101 4742 
L 4634 4474 
z
M 1600 960 
L 1600 32 
L 2304 32 
L 2304 960 
L 1600 960 
z
M 2726 960 
L 2726 32 
L 3482 32 
L 3482 960 
L 2726 960 
z
M 4640 960 
L 3904 960 
L 3904 32 
L 4640 32 
L 4640 960 
z
M 1133 806 
Q 1133 954 1120 1120 
Q 1107 1286 1088 1414 
Q 1389 1389 1869 1373 
Q 2349 1357 3130 1357 
Q 3520 1357 3830 1360 
Q 4141 1363 4387 1369 
Q 4634 1376 4826 1389 
Q 5018 1402 5171 1414 
Q 5146 1280 5136 1136 
Q 5126 992 5126 806 
L 5126 32 
Q 5350 38 5552 51 
Q 5754 64 5965 96 
L 5965 -448 
Q 5811 -429 5628 -419 
Q 5446 -410 5145 -403 
Q 4845 -397 4371 -393 
Q 3898 -390 3162 -390 
Q 2560 -390 2112 -393 
Q 1664 -397 1334 -406 
Q 1005 -416 774 -429 
Q 544 -442 384 -454 
L 384 96 
Q 602 70 771 57 
Q 941 45 1133 38 
L 1133 806 
z
M 1446 4000 
Q 1466 3699 1466 3430 
Q 1856 3430 2125 3433 
Q 2394 3437 2582 3446 
Q 2771 3456 2889 3465 
Q 3008 3475 3091 3494 
L 3034 2534 
Q 3021 2400 2992 2307 
Q 2963 2214 2867 2147 
Q 2771 2080 2595 2032 
Q 2419 1984 2118 1926 
Q 2099 2035 2041 2160 
Q 1984 2285 1888 2406 
Q 2093 2406 2224 2419 
Q 2355 2432 2432 2457 
Q 2509 2483 2541 2521 
Q 2573 2560 2573 2605 
L 2598 3027 
L 1453 3027 
Q 1421 2509 1286 2086 
Q 1152 1664 902 1267 
Q 800 1344 669 1411 
Q 538 1478 403 1523 
Q 742 1869 892 2608 
Q 1043 3347 909 4486 
Q 1037 4474 1209 4461 
Q 1382 4448 1651 4438 
Q 1920 4429 2307 4425 
Q 2694 4422 3258 4422 
Q 3226 4608 3197 4797 
Q 3168 4986 3142 5146 
Q 3290 5133 3466 5123 
Q 3642 5114 3770 5120 
Q 3878 5126 3897 5081 
Q 3917 5037 3827 4973 
Q 3789 4941 3779 4822 
Q 3770 4704 3802 4422 
Q 4256 4422 4573 4428 
Q 4890 4435 5104 4441 
Q 5318 4448 5459 4461 
Q 5600 4474 5696 4486 
L 5696 3936 
Q 5587 3949 5443 3961 
Q 5299 3974 5084 3984 
Q 4870 3994 4569 3997 
Q 4269 4000 3846 4000 
Q 3891 3693 3980 3411 
Q 4070 3130 4218 2886 
Q 4378 3072 4525 3277 
Q 4672 3482 4800 3718 
Q 4947 3629 5059 3568 
Q 5171 3507 5299 3456 
Q 5459 3398 5274 3347 
Q 5242 3334 5165 3267 
Q 5088 3200 5011 3104 
Q 4909 2976 4774 2835 
Q 4640 2694 4480 2541 
Q 4774 2221 4969 2061 
Q 5165 1901 5286 1891 
Q 5408 1882 5469 2016 
Q 5530 2150 5555 2419 
Q 5683 2317 5801 2249 
Q 5920 2182 6016 2131 
Q 5933 1862 5843 1715 
Q 5754 1568 5645 1459 
Q 5555 1370 5411 1363 
Q 5267 1357 5081 1449 
Q 4896 1542 4662 1734 
Q 4429 1926 4154 2246 
Q 3942 2061 3708 1875 
Q 3475 1690 3232 1517 
Q 3168 1619 3062 1728 
Q 2957 1837 2854 1894 
Q 3136 2003 3398 2172 
Q 3661 2342 3904 2566 
Q 3738 2829 3597 3193 
Q 3456 3558 3347 4000 
L 1446 4000 
z
" transform="scale(0.015625)"/>
        <path id="STHeitiTC-Medium-521b" d="M 5850 4947 
Q 5786 4890 5786 4717 
L 5786 26 
Q 5786 -147 5760 -252 
Q 5734 -358 5628 -432 
Q 5523 -506 5315 -550 
Q 5107 -595 4742 -640 
Q 4730 -467 4653 -304 
Q 4576 -141 4461 -6 
Q 4723 -26 4886 -19 
Q 5050 -13 5139 12 
Q 5229 38 5261 83 
Q 5293 128 5293 198 
L 5293 4032 
Q 5293 4416 5277 4681 
Q 5261 4947 5235 5082 
Q 5350 5062 5520 5052 
Q 5690 5043 5798 5050 
Q 5984 5062 5850 4947 
z
M 4090 704 
Q 4122 915 4131 1107 
Q 4141 1299 4141 1478 
L 4141 3603 
Q 4141 3814 4128 3984 
Q 4115 4154 4090 4288 
Q 4237 4256 4390 4243 
Q 4544 4230 4646 4237 
Q 4723 4243 4732 4204 
Q 4742 4166 4672 4115 
Q 4653 4102 4637 4006 
Q 4621 3910 4621 3840 
L 4621 1478 
Q 4621 1299 4630 1104 
Q 4640 909 4672 704 
L 4090 704 
z
M 2157 4141 
Q 2054 3974 1955 3840 
Q 1856 3706 1747 3571 
Q 1638 3437 1510 3296 
Q 1382 3155 1216 2989 
Q 1376 2976 1629 2966 
Q 1882 2957 2118 2957 
Q 2253 2957 2435 2960 
Q 2618 2963 2794 2966 
Q 2970 2970 3120 2976 
Q 3270 2982 3347 2995 
L 3232 1408 
Q 3219 1216 2992 1097 
Q 2765 979 2227 915 
Q 2221 1069 2173 1203 
Q 2125 1338 2048 1446 
Q 2266 1434 2406 1446 
Q 2547 1459 2633 1488 
Q 2720 1517 2758 1565 
Q 2797 1613 2803 1677 
L 2867 2528 
L 1658 2528 
L 1658 307 
Q 1658 256 1686 221 
Q 1715 186 1798 166 
Q 1882 147 2035 140 
Q 2189 134 2445 134 
Q 2669 134 2829 160 
Q 2989 186 3097 266 
Q 3206 346 3270 496 
Q 3334 646 3366 890 
Q 3475 736 3600 656 
Q 3725 576 3872 531 
Q 3757 243 3641 67 
Q 3526 -109 3369 -205 
Q 3213 -301 3005 -329 
Q 2797 -358 2502 -358 
Q 2176 -358 1929 -342 
Q 1683 -326 1516 -268 
Q 1350 -211 1267 -102 
Q 1184 6 1184 192 
L 1184 2266 
Q 1184 2490 1174 2650 
Q 1165 2810 1152 2918 
L 691 2458 
Q 678 2522 652 2605 
Q 627 2688 588 2768 
Q 550 2848 502 2918 
Q 454 2989 410 3027 
Q 582 3136 736 3257 
Q 890 3379 1037 3526 
Q 1184 3674 1331 3862 
Q 1478 4051 1638 4294 
Q 1818 4563 1920 4780 
Q 2022 4998 2042 5114 
Q 2080 5088 2160 5049 
Q 2240 5011 2333 4972 
Q 2426 4934 2512 4899 
Q 2598 4864 2650 4845 
Q 2701 4826 2701 4794 
Q 2701 4762 2650 4730 
Q 2618 4704 2544 4637 
Q 2470 4570 2400 4493 
Q 2643 4384 2825 4294 
Q 3008 4205 3165 4112 
Q 3322 4019 3478 3910 
Q 3635 3802 3821 3667 
L 3462 3213 
Q 3277 3392 3139 3513 
Q 3002 3635 2861 3734 
Q 2720 3834 2557 3926 
Q 2394 4019 2157 4141 
z
" transform="scale(0.015625)"/>
        <path id="STHeitiTC-Medium-59cb" d="M 3482 -672 
L 2931 -672 
Q 2957 -429 2969 -176 
Q 2982 77 2982 326 
L 2982 1485 
Q 2982 1670 2972 1792 
Q 2963 1914 2938 2035 
Q 3034 2022 3133 2019 
Q 3232 2016 3376 2009 
Q 3520 2003 3731 2003 
Q 3942 2003 4262 2003 
Q 4602 2003 4819 2003 
Q 5037 2003 5177 2009 
Q 5318 2016 5408 2019 
Q 5498 2022 5581 2035 
Q 5562 1939 5549 1814 
Q 5536 1690 5536 1485 
L 5536 499 
Q 5536 243 5552 -64 
Q 5568 -371 5587 -602 
L 5037 -602 
L 5037 -19 
L 3482 -19 
L 3482 -672 
z
M 5037 1549 
L 3482 1549 
L 3482 442 
L 5037 442 
L 5037 1549 
z
M 5165 3213 
Q 5018 3411 4861 3587 
Q 4704 3763 4576 3859 
L 5024 4141 
Q 5338 3795 5594 3488 
Q 5850 3181 6074 2835 
L 5606 2522 
Q 5562 2630 5459 2790 
Q 4691 2746 4220 2714 
Q 3750 2682 3472 2656 
Q 3194 2630 3059 2604 
Q 2925 2579 2829 2554 
Q 2790 2701 2732 2851 
Q 2675 3002 2605 3130 
Q 2662 3130 2742 3126 
Q 2822 3123 2912 3123 
Q 3117 3424 3280 3699 
Q 3443 3974 3571 4227 
Q 3699 4480 3798 4726 
Q 3898 4973 3987 5216 
Q 4160 5101 4339 5017 
Q 4518 4934 4608 4902 
Q 4717 4870 4713 4822 
Q 4710 4774 4595 4762 
Q 4563 4762 4489 4678 
Q 4416 4595 4256 4365 
Q 4064 4077 3837 3753 
Q 3610 3430 3386 3123 
L 5165 3213 
z
M 2048 1062 
Q 2259 922 2454 790 
Q 2650 659 2842 525 
Q 2714 410 2605 272 
Q 2496 134 2400 -13 
Q 2234 173 2096 317 
Q 1958 461 1818 589 
Q 1613 218 1379 -60 
Q 1146 -339 838 -589 
Q 768 -512 710 -454 
Q 653 -397 595 -352 
Q 538 -307 474 -272 
Q 410 -237 326 -205 
Q 685 13 953 265 
Q 1222 518 1427 896 
Q 1248 1024 1030 1161 
Q 813 1299 512 1466 
Q 582 1683 636 1875 
Q 691 2067 739 2272 
Q 787 2477 835 2720 
Q 883 2963 941 3296 
Q 755 3296 617 3280 
Q 480 3264 352 3238 
L 352 3834 
Q 461 3814 611 3801 
Q 762 3789 1018 3789 
Q 1037 3917 1053 4083 
Q 1069 4250 1081 4426 
Q 1094 4602 1104 4781 
Q 1114 4960 1114 5114 
Q 1299 5075 1459 5056 
Q 1619 5037 1805 5030 
Q 1914 5024 1923 4998 
Q 1933 4973 1824 4883 
Q 1798 4864 1776 4806 
Q 1754 4749 1718 4630 
Q 1683 4512 1638 4307 
Q 1594 4102 1530 3782 
Q 1766 3782 1939 3785 
Q 2112 3789 2237 3795 
Q 2362 3802 2445 3811 
Q 2528 3821 2592 3834 
Q 2534 3379 2492 3036 
Q 2451 2694 2409 2438 
Q 2368 2182 2329 1987 
Q 2291 1792 2249 1638 
Q 2208 1485 2160 1347 
Q 2112 1210 2048 1062 
z
M 1434 3296 
Q 1370 2976 1290 2569 
Q 1210 2163 1114 1651 
Q 1248 1574 1376 1494 
Q 1504 1414 1626 1338 
Q 1760 1702 1862 2179 
Q 1965 2656 2048 3296 
L 1434 3296 
z
" transform="scale(0.015625)"/>
       </defs>
       <use xlink:href="#STHeitiTC-Medium-9ad8"/>
       <use xlink:href="#STHeitiTC-Medium-76db" transform="translate(99.999985 0)"/>
       <use xlink:href="#STHeitiTC-Medium-521b" transform="translate(199.999969 0)"/>
       <use xlink:href="#STHeitiTC-Medium-59cb" transform="translate(299.999954 0)"/>
       <use xlink:href="#STHeitiTC-Medium-51fa" transform="translate(399.999939 0)"/>
       <use xlink:href="#STHeitiTC-Medium-8d44" transform="translate(499.999924 0)"/>
      </g>
     </g>
    </g>
   </g>
   <g id="line2d_22">
    <path d="M 175.311094 219.56 
L 175.311094 7.2 
" clip-path="url(#p30e4b8b04b)" style="fill: none; stroke: #cccccc; stroke-width: 0.8; stroke-linecap: square"/>
   </g>
   <g id="patch_3">
    <path d="M 175.311094 219.56 
L 630.851094 219.56 
" style="fill: none; stroke: #000000; stroke-width: 0.8; stroke-linejoin: miter; stroke-linecap: square"/>
   </g>
   <g id="patch_4">
    <path d="M 175.311094 209.907273 
L 609.158713 209.907273 
L 609.158713 186.571009 
L 175.311094 186.571009 
z
" clip-path="url(#p30e4b8b04b)" style="fill: #1a56db"/>
   </g>
   <g id="patch_5">
    <path d="M 175.311094 167.477702 
L 299.267556 167.477702 
L 299.267556 144.141439 
L 175.311094 144.141439 
z
" clip-path="url(#p30e4b8b04b)" style="fill: #1a56db"/>
   </g>
   <g id="patch_6">
    <path d="M 175.311094 125.048132 
L 221.794767 125.048132 
L 221.794767 101.711868 
L 175.311094 101.711868 
z
" clip-path="url(#p30e4b8b04b)" style="fill: #1a56db"/>
   </g>
   <g id="patch_7">
    <path d="M 175.311094 82.618561 
L 184.607828 82.618561 
L 184.607828 59.282298 
L 175.311094 59.282298 
z
" clip-path="url(#p30e4b8b04b)" style="fill: #1a56db"/>
   </g>
   <g id="patch_8">
    <path d="M 175.311094 40.188991 
L 179.959461 40.188991 
L 179.959461 16.852727 
L 175.311094 16.852727 
z
" clip-path="url(#p30e4b8b04b)" style="fill: #1a56db"/>
   </g>
   <g id="text_14">
    <!-- 140 -->
    <g style="fill: #333333" transform="translate(609.468604 201.455039) scale(0.095 -0.095)">
     <use xlink:href="#STHeitiTC-Medium-31"/>
     <use xlink:href="#STHeitiTC-Medium-34" transform="translate(55.399994 0)"/>
     <use xlink:href="#STHeitiTC-Medium-30" transform="translate(110.799988 0)"/>
    </g>
   </g>
   <g id="text_15">
    <!-- 40 -->
    <g style="fill: #333333" transform="translate(299.577447 159.025469) scale(0.095 -0.095)">
     <use xlink:href="#STHeitiTC-Medium-34"/>
     <use xlink:href="#STHeitiTC-Medium-30" transform="translate(55.399994 0)"/>
    </g>
   </g>
   <g id="text_16">
    <!-- 15 -->
    <g style="fill: #333333" transform="translate(222.104658 116.595898) scale(0.095 -0.095)">
     <defs>
      <path id="STHeitiTC-Medium-35" d="M 3194 4544 
L 1549 4544 
L 1338 3398 
Q 1613 3469 1856 3469 
Q 2477 3469 2893 3030 
Q 3309 2592 3309 1913 
Q 3309 1235 2861 752 
Q 2413 269 1664 269 
Q 1088 269 691 621 
Q 294 973 211 1587 
L 768 1587 
Q 851 1203 1107 998 
Q 1363 794 1690 794 
Q 2125 794 2438 1123 
Q 2752 1453 2752 1939 
Q 2752 2374 2480 2656 
Q 2208 2938 1747 2938 
Q 1286 2938 672 2675 
L 1120 5069 
L 3194 5069 
L 3194 4544 
z
" transform="scale(0.015625)"/>
     </defs>
     <use xlink:href="#STHeitiTC-Medium-31"/>
     <use xlink:href="#STHeitiTC-Medium-35" transform="translate(55.399994 0)"/>
    </g>
   </g>
   <g id="text_17">
    <!-- 3 -->
    <g style="fill: #333333" transform="translate(184.91772 74.166328) scale(0.095 -0.095)">
     <defs>
      <path id="STHeitiTC-Medium-33" d="M 2554 3021 
Q 2931 2835 3139 2508 
Q 3347 2182 3347 1798 
Q 3347 1171 2889 720 
Q 2432 269 1734 269 
Q 1107 269 707 630 
Q 307 992 166 1702 
L 710 1702 
Q 832 1248 1072 1027 
Q 1312 806 1757 806 
Q 2202 806 2502 1084 
Q 2803 1363 2803 1785 
Q 2803 2208 2460 2457 
Q 2118 2707 1453 2720 
L 1453 3232 
Q 1933 3232 2227 3437 
Q 2522 3642 2522 3946 
Q 2522 4250 2294 4451 
Q 2067 4653 1744 4653 
Q 1421 4653 1219 4470 
Q 1018 4288 877 3917 
L 320 3917 
Q 461 4531 832 4857 
Q 1203 5184 1747 5184 
Q 2291 5184 2691 4825 
Q 3091 4467 3091 3955 
Q 3091 3366 2554 3021 
z
" transform="scale(0.015625)"/>
     </defs>
     <use xlink:href="#STHeitiTC-Medium-33"/>
    </g>
   </g>
   <g id="text_18">
    <!-- 1.5 -->
    <g style="fill: #333333" transform="translate(180.269352 31.736758) scale(0.095 -0.095)">
     <defs>
      <path id="STHeitiTC-Medium-2e" d="M 966 1478 
Q 1146 1478 1270 1353 
Q 1395 1229 1395 1046 
Q 1395 864 1270 739 
Q 1146 614 970 614 
Q 794 614 666 742 
Q 538 870 538 1049 
Q 538 1229 666 1353 
Q 794 1478 966 1478 
z
" transform="scale(0.015625)"/>
     </defs>
     <use xlink:href="#STHeitiTC-Medium-31"/>
     <use xlink:href="#STHeitiTC-Medium-2e" transform="translate(55.399994 0)"/>
     <use xlink:href="#STHeitiTC-Medium-35" transform="translate(83.099991 0)"/>
    </g>
   </g>
  </g>
 </g>
 <defs>
  <clipPath id="p30e4b8b04b">
   <rect x="175.311094" y="7.2" width="455.54" height="212.36"/>
  </clipPath>
 </defs>
</svg>
