<?xml version="1.0" encoding="utf-8" standalone="no"?>
<!DOCTYPE svg PUBLIC "-//W3C//DTD SVG 1.1//EN"
  "http://www.w3.org/Graphics/SVG/1.1/DTD/svg11.dtd">
<svg xmlns:xlink="http://www.w3.org/1999/xlink" width="640.08pt" height="242.4pt" viewBox="0 0 640.08 242.4" xmlns="http://www.w3.org/2000/svg" version="1.1">
 <metadata>
  <rdf:RDF xmlns:dc="http://purl.org/dc/elements/1.1/" xmlns:cc="http://creativecommons.org/ns#" xmlns:rdf="http://www.w3.org/1999/02/22-rdf-syntax-ns#">
   <cc:Work>
    <dc:type rdf:resource="http://purl.org/dc/dcmitype/StillImage"/>
    <dc:date>2026-06-17T23:56:37.625588</dc:date>
    <dc:format>image/svg+xml</dc:format>
    <dc:creator>
     <cc:Agent>
      <dc:title>Matplotlib v3.11.0, https://matplotlib.org/</dc:title>
     </cc:Agent>
    </dc:creator>
   </cc:Work>
  </rdf:RDF>
 </metadata>
 <defs>
  <style type="text/css">*{stroke-linejoin: round; stroke-linecap: butt}</style>
 </defs>
 <g id="figure_1">
  <g id="patch_1">
   <path d="M 0 242.4 
L 640.08 242.4 
L 640.08 0 
L 0 0 
z
" style="fill: #ffffff"/>
  </g>
  <g id="axes_1">
   <g id="patch_2">
    <path d="M 128.2 218.7 
L 632.88 218.7 
L 632.88 7.2 
L 128.2 7.2 
z
" style="fill: #fafafa"/>
   </g>
   <g id="matplotlib.axis_1">
    <g id="xtick_1">
     <g id="line2d_1">
      <path d="M 128.2 218.7 
L 128.2 7.2 
" clip-path="url(#p8ae33595f0)" style="fill: none; stroke-dasharray: 2.96,1.28; stroke-dashoffset: 0; stroke: #b0b0b0; stroke-opacity: 0.35; stroke-width: 0.8"/>
     </g>
     <g id="line2d_2">
      <defs>
       <path id="me7136a3b58" d="M 0 0 
L 0 3.5 
" style="stroke: #333333; stroke-width: 0.8"/>
      </defs>
      <g>
       <use xlink:href="#me7136a3b58" x="128.2" y="218.7" style="fill: #333333; stroke: #333333; stroke-width: 0.8"/>
      </g>
     </g>
     <g id="text_1">
      <!-- 0 -->
      <g style="fill: #333333" transform="translate(125.554102 234.06) scale(0.095 -0.095)">
       <defs>
        <path id="NotoSerifCJKjp-Regular-11" d="M 1779 -96 
C 2547 -96 3258 602 3258 2342 
C 3258 4058 2547 4755 1779 4755 
C 1011 4755 301 4058 301 2342 
C 301 602 1011 -96 1779 -96 
z
M 1779 102 
C 1299 102 832 640 832 2342 
C 832 4019 1299 4550 1779 4550 
C 2253 4550 2726 4019 2726 2342 
C 2726 640 2253 102 1779 102 
z
" transform="scale(0.015625)"/>
       </defs>
       <use xlink:href="#NotoSerifCJKjp-Regular-11"/>
      </g>
     </g>
    </g>
    <g id="xtick_2">
     <g id="line2d_3">
      <path d="M 208.307937 218.7 
L 208.307937 7.2 
" clip-path="url(#p8ae33595f0)" style="fill: none; stroke-dasharray: 2.96,1.28; stroke-dashoffset: 0; stroke: #b0b0b0; stroke-opacity: 0.35; stroke-width: 0.8"/>
     </g>
     <g id="line2d_4">
      <g>
       <use xlink:href="#me7136a3b58" x="208.307937" y="218.7" style="fill: #333333; stroke: #333333; stroke-width: 0.8"/>
      </g>
     </g>
     <g id="text_2">
      <!-- 1 -->
      <g style="fill: #333333" transform="translate(206.070983 234.06) scale(0.095 -0.095)">
       <defs>
        <path id="NotoSerifCJKjp-Regular-12" d="M 480 0 
L 2733 -6 
L 2733 173 
L 1907 269 
L 1894 1472 
L 1894 3642 
L 1920 4653 
L 1824 4723 
L 448 4371 
L 448 4179 
L 1370 4333 
L 1370 1472 
L 1357 269 
L 480 179 
L 480 0 
z
" transform="scale(0.015625)"/>
       </defs>
       <use xlink:href="#NotoSerifCJKjp-Regular-12"/>
      </g>
     </g>
    </g>
    <g id="xtick_3">
     <g id="line2d_5">
      <path d="M 288.415873 218.7 
L 288.415873 7.2 
" clip-path="url(#p8ae33595f0)" style="fill: none; stroke-dasharray: 2.96,1.28; stroke-dashoffset: 0; stroke: #b0b0b0; stroke-opacity: 0.35; stroke-width: 0.8"/>
     </g>
     <g id="line2d_6">
      <g>
       <use xlink:href="#me7136a3b58" x="288.415873" y="218.7" style="fill: #333333; stroke: #333333; stroke-width: 0.8"/>
      </g>
     </g>
     <g id="text_3">
      <!-- 2 -->
      <g style="fill: #333333" transform="translate(285.765521 234.06) scale(0.095 -0.095)">
       <defs>
        <path id="NotoSerifCJKjp-Regular-13" d="M 410 0 
L 3270 0 
L 3270 448 
L 762 448 
C 1152 877 1530 1293 1715 1485 
C 2688 2483 3078 2950 3078 3539 
C 3078 4294 2637 4755 1779 4755 
C 1126 4755 512 4422 410 3770 
C 448 3642 550 3571 672 3571 
C 819 3571 922 3654 986 3904 
L 1139 4461 
C 1306 4531 1466 4557 1626 4557 
C 2195 4557 2534 4192 2534 3552 
C 2534 2989 2253 2541 1574 1722 
C 1261 1350 832 845 410 346 
L 410 0 
z
" transform="scale(0.015625)"/>
       </defs>
       <use xlink:href="#NotoSerifCJKjp-Regular-13"/>
      </g>
     </g>
    </g>
    <g id="xtick_4">
     <g id="line2d_7">
      <path d="M 368.52381 218.7 
L 368.52381 7.2 
" clip-path="url(#p8ae33595f0)" style="fill: none; stroke-dasharray: 2.96,1.28; stroke-dashoffset: 0; stroke: #b0b0b0; stroke-opacity: 0.35; stroke-width: 0.8"/>
     </g>
     <g id="line2d_8">
      <g>
       <use xlink:href="#me7136a3b58" x="368.52381" y="218.7" style="fill: #333333; stroke: #333333; stroke-width: 0.8"/>
      </g>
     </g>
     <g id="text_4">
      <!-- 3 -->
      <g style="fill: #333333" transform="translate(365.877911 234.06) scale(0.095 -0.095)">
       <defs>
        <path id="NotoSerifCJKjp-Regular-14" d="M 1638 -96 
C 2534 -96 3155 416 3155 1203 
C 3155 1875 2778 2342 1952 2458 
C 2662 2618 3021 3085 3021 3629 
C 3021 4301 2547 4755 1728 4755 
C 1120 4755 550 4499 442 3866 
C 480 3757 576 3706 685 3706 
C 845 3706 941 3776 998 3994 
L 1146 4486 
C 1306 4538 1453 4557 1606 4557 
C 2163 4557 2477 4205 2477 3610 
C 2477 2925 2035 2554 1414 2554 
L 1158 2554 
L 1158 2330 
L 1446 2330 
C 2214 2330 2611 1926 2611 1222 
C 2611 544 2202 102 1491 102 
C 1312 102 1158 134 1018 186 
L 864 685 
C 806 922 717 1011 563 1011 
C 442 1011 346 941 301 813 
C 429 218 909 -96 1638 -96 
z
" transform="scale(0.015625)"/>
       </defs>
       <use xlink:href="#NotoSerifCJKjp-Regular-14"/>
      </g>
     </g>
    </g>
    <g id="xtick_5">
     <g id="line2d_9">
      <path d="M 448.631746 218.7 
L 448.631746 7.2 
" clip-path="url(#p8ae33595f0)" style="fill: none; stroke-dasharray: 2.96,1.28; stroke-dashoffset: 0; stroke: #b0b0b0; stroke-opacity: 0.35; stroke-width: 0.8"/>
     </g>
     <g id="line2d_10">
      <g>
       <use xlink:href="#me7136a3b58" x="448.631746" y="218.7" style="fill: #333333; stroke: #333333; stroke-width: 0.8"/>
      </g>
     </g>
     <g id="text_5">
      <!-- 4 -->
      <g style="fill: #333333" transform="translate(445.995496 234.06) scale(0.095 -0.095)">
       <defs>
        <path id="NotoSerifCJKjp-Regular-15" d="M 2170 -115 
L 2650 -115 
L 2650 1229 
L 3418 1229 
L 3418 1600 
L 2650 1600 
L 2650 4730 
L 2291 4730 
L 218 1530 
L 218 1229 
L 2170 1229 
L 2170 -115 
z
M 493 1600 
L 1389 2989 
L 2170 4211 
L 2170 1600 
L 493 1600 
z
" transform="scale(0.015625)"/>
       </defs>
       <use xlink:href="#NotoSerifCJKjp-Regular-15"/>
      </g>
     </g>
    </g>
    <g id="xtick_6">
     <g id="line2d_11">
      <path d="M 528.739683 218.7 
L 528.739683 7.2 
" clip-path="url(#p8ae33595f0)" style="fill: none; stroke-dasharray: 2.96,1.28; stroke-dashoffset: 0; stroke: #b0b0b0; stroke-opacity: 0.35; stroke-width: 0.8"/>
     </g>
     <g id="line2d_12">
      <g>
       <use xlink:href="#me7136a3b58" x="528.739683" y="218.7" style="fill: #333333; stroke: #333333; stroke-width: 0.8"/>
      </g>
     </g>
     <g id="text_6">
      <!-- 5 -->
      <g style="fill: #333333" transform="translate(526.089331 234.06) scale(0.095 -0.095)">
       <defs>
        <path id="NotoSerifCJKjp-Regular-16" d="M 1574 -96 
C 2573 -96 3213 499 3213 1408 
C 3213 2317 2624 2803 1709 2803 
C 1421 2803 1158 2765 902 2656 
L 1005 4211 
L 3091 4211 
L 3091 4659 
L 800 4659 
L 653 2458 
L 813 2394 
C 1037 2496 1286 2547 1562 2547 
C 2221 2547 2650 2176 2650 1382 
C 2650 563 2234 102 1498 102 
C 1293 102 1146 134 998 198 
L 845 691 
C 794 928 710 1005 550 1005 
C 429 1005 326 941 282 819 
C 397 230 883 -96 1574 -96 
z
" transform="scale(0.015625)"/>
       </defs>
       <use xlink:href="#NotoSerifCJKjp-Regular-16"/>
      </g>
     </g>
    </g>
    <g id="xtick_7">
     <g id="line2d_13">
      <path d="M 608.847619 218.7 
L 608.847619 7.2 
" clip-path="url(#p8ae33595f0)" style="fill: none; stroke-dasharray: 2.96,1.28; stroke-dashoffset: 0; stroke: #b0b0b0; stroke-opacity: 0.35; stroke-width: 0.8"/>
     </g>
     <g id="line2d_14">
      <g>
       <use xlink:href="#me7136a3b58" x="608.847619" y="218.7" style="fill: #333333; stroke: #333333; stroke-width: 0.8"/>
      </g>
     </g>
     <g id="text_7">
      <!-- 6 -->
      <g style="fill: #333333" transform="translate(606.197267 234.06) scale(0.095 -0.095)">
       <defs>
        <path id="NotoSerifCJKjp-Regular-17" d="M 1850 -96 
C 2656 -96 3258 538 3258 1414 
C 3258 2253 2803 2816 2029 2816 
C 1606 2816 1248 2650 941 2323 
C 1107 3450 1850 4339 3136 4614 
L 3104 4755 
C 1414 4557 358 3258 358 1773 
C 358 634 922 -96 1850 -96 
z
M 922 2118 
C 1222 2432 1523 2554 1856 2554 
C 2394 2554 2726 2144 2726 1376 
C 2726 557 2342 102 1856 102 
C 1261 102 909 736 909 1830 
L 922 2118 
z
" transform="scale(0.015625)"/>
       </defs>
       <use xlink:href="#NotoSerifCJKjp-Regular-17"/>
      </g>
     </g>
    </g>
   </g>
   <g id="matplotlib.axis_2">
    <g id="ytick_1">
     <g id="line2d_15">
      <defs>
       <path id="m514318fedc" d="M 0 0 
L -3.5 0 
" style="stroke: #333333; stroke-width: 0.8"/>
      </defs>
      <g>
       <use xlink:href="#m514318fedc" x="128.2" y="174.97346" style="fill: #333333; stroke: #333333; stroke-width: 0.8"/>
      </g>
     </g>
     <g id="text_8">
      <!-- 作者更偏好 AI 评审的指标 -->
      <g style="fill: #333333" transform="translate(10.763984 179.15346) scale(0.095 -0.095)">
       <defs>
        <path id="NotoSerifCJKjp-Regular-270e" d="M 3334 5357 
C 3002 4256 2432 3174 1894 2502 
L 1984 2432 
C 2413 2803 2816 3309 3168 3891 
L 3667 3891 
L 3667 -499 
L 3738 -499 
C 3955 -499 4096 -397 4096 -365 
L 4096 1184 
L 5850 1184 
C 5939 1184 6003 1216 6022 1286 
C 5798 1491 5459 1760 5459 1760 
L 5158 1376 
L 4096 1376 
L 4096 2560 
L 5734 2560 
C 5824 2560 5882 2592 5901 2662 
C 5702 2848 5370 3117 5370 3117 
L 5082 2746 
L 4096 2746 
L 4096 3891 
L 6016 3891 
C 6112 3891 6163 3923 6182 3994 
C 5971 4192 5626 4467 5626 4467 
L 5306 4077 
L 3277 4077 
C 3450 4371 3603 4685 3738 5005 
C 3878 4998 3955 5050 3981 5126 
L 3334 5357 
z
M 1811 5363 
C 1440 4122 806 2893 205 2131 
L 294 2067 
C 602 2349 902 2688 1178 3078 
L 1178 -499 
L 1254 -499 
C 1414 -499 1594 -397 1594 -365 
L 1594 3373 
C 1709 3386 1766 3430 1786 3488 
L 1510 3590 
C 1779 4032 2016 4512 2214 5018 
C 2355 5005 2432 5062 2464 5139 
L 1811 5363 
z
" transform="scale(0.015625)"/>
        <path id="NotoSerifCJKjp-Regular-7d80" d="M 1830 2272 
L 1830 2150 
C 1306 1843 749 1562 186 1331 
L 230 1229 
C 787 1414 1325 1638 1830 1888 
L 1830 -499 
L 1894 -499 
C 2074 -499 2246 -397 2246 -352 
L 2246 -83 
L 4653 -83 
L 4653 -448 
L 4717 -448 
C 4851 -448 5062 -346 5069 -307 
L 5069 2003 
C 5203 2029 5306 2080 5344 2131 
L 4826 2528 
L 4589 2272 
L 2541 2272 
C 2989 2528 3405 2803 3789 3091 
L 5946 3091 
C 6035 3091 6099 3123 6118 3187 
C 5894 3392 5542 3667 5542 3667 
L 5229 3277 
L 4026 3277 
C 4640 3757 5152 4262 5542 4755 
C 5690 4698 5760 4710 5811 4774 
L 5267 5178 
C 5075 4902 4851 4621 4589 4346 
C 4378 4544 4032 4806 4032 4806 
L 3731 4429 
L 3014 4429 
L 3014 5152 
C 3162 5178 3213 5235 3226 5312 
L 2598 5376 
L 2598 4429 
L 954 4429 
L 1005 4237 
L 2598 4237 
L 2598 3277 
L 288 3277 
L 346 3091 
L 3213 3091 
C 2874 2829 2509 2573 2138 2336 
L 1830 2477 
L 1830 2272 
z
M 3014 4237 
L 4429 4237 
L 4499 4250 
C 4186 3917 3834 3590 3443 3277 
L 3014 3277 
L 3014 4237 
z
M 4653 2080 
L 4653 1229 
L 2246 1229 
L 2246 2080 
L 4653 2080 
z
M 2246 1043 
L 4653 1043 
L 4653 109 
L 2246 109 
L 2246 1043 
z
" transform="scale(0.015625)"/>
        <path id="NotoSerifCJKjp-Regular-5089" d="M 371 4858 
L 429 4666 
L 3021 4666 
L 3021 3923 
L 1651 3923 
L 1203 4128 
L 1203 1382 
L 1267 1382 
C 1446 1382 1613 1485 1613 1523 
L 1613 1754 
L 2938 1754 
C 2867 1414 2739 1114 2522 845 
C 2246 1030 2016 1254 1837 1517 
L 1741 1440 
C 1914 1139 2125 890 2368 672 
C 1952 243 1293 -102 262 -416 
L 314 -531 
C 1427 -288 2157 45 2630 461 
C 3405 -96 4480 -365 5792 -499 
C 5837 -288 5965 -154 6150 -102 
L 6150 -38 
C 4845 19 3674 211 2829 666 
C 3110 986 3270 1344 3354 1754 
L 4877 1754 
L 4877 1421 
L 4941 1421 
C 5082 1421 5293 1523 5299 1555 
L 5299 3648 
C 5421 3674 5523 3731 5568 3782 
L 5050 4179 
L 4813 3923 
L 3437 3923 
L 3437 4666 
L 5888 4666 
C 5978 4666 6048 4698 6061 4768 
C 5830 4973 5459 5254 5459 5254 
L 5139 4858 
L 371 4858 
z
M 4877 3731 
L 4877 2944 
L 3437 2944 
L 3437 3731 
L 4877 3731 
z
M 1613 1939 
L 1613 2758 
L 3021 2758 
L 3021 2662 
C 3021 2400 3008 2163 2976 1939 
L 1613 1939 
z
M 1613 2944 
L 1613 3731 
L 3021 3731 
L 3021 2944 
L 1613 2944 
z
M 4877 1939 
L 3386 1939 
C 3424 2176 3437 2419 3437 2682 
L 3437 2758 
L 4877 2758 
L 4877 1939 
z
" transform="scale(0.015625)"/>
        <path id="NotoSerifCJKjp-Regular-2896" d="M 2074 4883 
L 2125 4704 
L 5952 4704 
C 6042 4704 6106 4736 6118 4806 
C 5907 4998 5562 5274 5562 5274 
L 5254 4883 
L 2074 4883 
z
M 5222 3898 
L 5222 3117 
L 2720 3117 
L 2720 3251 
L 2720 3898 
L 5222 3898 
z
M 2317 4077 
L 2317 3245 
C 2317 2182 2227 928 1549 -128 
L 1645 -198 
C 2099 269 2362 832 2515 1402 
L 2515 -499 
L 2579 -499 
C 2739 -499 2886 -410 2886 -371 
L 2886 954 
L 3494 954 
L 3494 -390 
L 3546 -390 
C 3718 -390 3840 -307 3840 -282 
L 3840 954 
L 4448 954 
L 4448 -390 
L 4499 -390 
C 4685 -390 4806 -307 4806 -282 
L 4806 954 
L 5434 954 
L 5434 83 
C 5434 6 5414 -26 5338 -26 
C 5254 -26 4960 -6 4960 -6 
L 4960 -96 
C 5120 -128 5203 -166 5254 -224 
C 5306 -288 5318 -390 5331 -499 
C 5773 -454 5830 -275 5830 38 
L 5830 2035 
C 5958 2054 6067 2112 6106 2157 
L 5574 2547 
L 5370 2298 
L 2918 2298 
L 2688 2406 
C 2701 2586 2714 2765 2714 2925 
L 5222 2925 
L 5222 2701 
L 5280 2701 
C 5414 2701 5626 2784 5632 2829 
L 5632 3821 
C 5754 3846 5856 3898 5901 3949 
L 5389 4333 
L 5158 4083 
L 2784 4083 
L 2317 4288 
L 2317 4077 
z
M 2886 1139 
L 2886 2112 
L 3494 2112 
L 3494 1139 
L 2886 1139 
z
M 3840 1139 
L 3840 2112 
L 4448 2112 
L 4448 1139 
L 3840 1139 
z
M 4806 1139 
L 4806 2112 
L 5434 2112 
L 5434 1139 
L 4806 1139 
z
M 1446 5363 
C 1184 4160 710 2918 230 2125 
L 326 2061 
C 563 2330 794 2650 998 3008 
L 998 -499 
L 1069 -499 
C 1222 -499 1389 -397 1395 -365 
L 1395 3456 
C 1510 3469 1568 3514 1587 3571 
L 1338 3661 
C 1542 4096 1722 4563 1869 5037 
C 2016 5030 2086 5088 2112 5171 
L 1446 5363 
z
" transform="scale(0.015625)"/>
        <path id="NotoSerifCJKjp-Regular-377f" d="M 4122 3718 
L 4122 2592 
L 2618 2592 
L 2669 2406 
L 4122 2406 
L 4122 173 
C 4122 70 4083 32 3962 32 
C 3821 32 3091 90 3091 90 
L 3091 -13 
C 3398 -51 3578 -102 3680 -179 
C 3776 -250 3814 -358 3834 -493 
C 4474 -429 4538 -211 4538 141 
L 4538 2406 
L 6054 2406 
C 6144 2406 6202 2438 6221 2509 
C 6016 2707 5690 2970 5690 2970 
L 5395 2592 
L 4538 2592 
L 4538 3482 
C 4691 3501 4749 3558 4768 3648 
L 4614 3667 
C 5024 3955 5485 4365 5779 4614 
C 5920 4621 5997 4627 6048 4672 
L 5568 5126 
L 5280 4858 
L 2733 4858 
L 2790 4666 
L 5222 4666 
C 5018 4378 4717 3974 4448 3680 
L 4122 3718 
z
M 1389 5338 
C 1331 4966 1210 4410 1069 3814 
L 237 3814 
L 294 3629 
L 1024 3629 
C 800 2739 531 1798 333 1261 
C 512 1210 678 1216 762 1274 
L 896 1709 
C 1114 1555 1350 1370 1562 1171 
C 1261 576 826 58 173 -339 
L 237 -429 
C 966 -77 1459 384 1805 922 
C 2061 634 2266 320 2349 32 
C 2778 -224 2976 538 2003 1267 
C 2342 1958 2490 2746 2579 3571 
C 2720 3584 2778 3603 2829 3654 
L 2355 4077 
L 2112 3814 
L 1466 3814 
C 1587 4307 1690 4755 1754 5062 
C 1914 5062 1978 5120 1997 5203 
L 1389 5338 
z
M 1414 3629 
L 2163 3629 
C 2093 2854 1965 2118 1696 1472 
C 1485 1600 1229 1722 934 1830 
C 1094 2381 1267 3034 1414 3629 
z
" transform="scale(0.015625)"/>
        <path id="NotoSerifCJKjp-Regular-1" transform="scale(0.015625)"/>
        <path id="NotoSerifCJKjp-Regular-22" d="M 2125 4115 
L 2880 1798 
L 1382 1798 
L 2125 4115 
z
M 2675 0 
L 4550 0 
L 4550 192 
L 3962 243 
L 2458 4698 
L 2099 4698 
L 621 256 
L 77 192 
L 77 0 
L 1510 0 
L 1510 192 
L 890 256 
L 1318 1594 
L 2950 1594 
L 3386 250 
L 2675 192 
L 2675 0 
z
" transform="scale(0.015625)"/>
        <path id="NotoSerifCJKjp-Regular-2a" d="M 339 4467 
L 998 4416 
C 1011 3782 1011 3142 1011 2502 
L 1011 2157 
C 1011 1510 1011 877 998 250 
L 339 192 
L 339 0 
L 2253 0 
L 2253 192 
L 1587 250 
C 1574 877 1574 1517 1574 2157 
L 1574 2502 
C 1574 3149 1574 3789 1587 4416 
L 2253 4467 
L 2253 4659 
L 339 4659 
L 339 4467 
z
" transform="scale(0.015625)"/>
        <path id="NotoSerifCJKjp-Regular-964f" d="M 5869 3923 
L 5222 4173 
C 5120 3706 4877 2982 4595 2490 
L 4666 2419 
C 5082 2822 5434 3418 5626 3827 
C 5786 3814 5837 3853 5869 3923 
z
M 2438 4128 
L 2349 4096 
C 2554 3693 2778 3085 2790 2618 
C 3200 2214 3622 3187 2438 4128 
z
M 826 5344 
L 749 5293 
C 986 5043 1267 4627 1350 4301 
C 1766 4006 2093 4851 826 5344 
z
M 1485 3386 
C 1626 3411 1709 3462 1741 3507 
L 1306 3872 
L 1094 3642 
L 211 3642 
L 269 3450 
L 1088 3450 
L 1088 634 
C 1088 518 1056 480 858 378 
L 1139 -134 
C 1197 -109 1267 -38 1306 64 
C 1830 544 2298 1018 2547 1261 
L 2496 1344 
L 1485 678 
L 1485 3386 
z
M 5651 2496 
L 5350 2118 
L 4179 2118 
L 4179 4576 
L 5754 4576 
C 5837 4576 5901 4608 5914 4678 
C 5702 4877 5363 5146 5363 5146 
L 5056 4768 
L 2202 4768 
L 2253 4576 
L 3763 4576 
L 3763 2118 
L 1933 2118 
L 1984 1926 
L 3763 1926 
L 3763 -506 
L 3834 -506 
C 4045 -506 4179 -397 4179 -365 
L 4179 1926 
L 6029 1926 
C 6118 1926 6189 1958 6208 2029 
C 5990 2227 5651 2496 5651 2496 
z
" transform="scale(0.015625)"/>
        <path id="NotoSerifCJKjp-Regular-3c7e" d="M 2822 5434 
L 2758 5395 
C 2918 5216 3072 4890 3085 4634 
C 3488 4294 3936 5120 2822 5434 
z
M 3667 4128 
L 3014 4205 
L 3014 3379 
L 1626 3379 
L 1178 3590 
L 1178 589 
L 1248 589 
C 1421 589 1587 685 1587 730 
L 1587 1056 
L 3014 1056 
L 3014 -499 
L 3098 -499 
C 3258 -499 3437 -397 3437 -346 
L 3437 1056 
L 4858 1056 
L 4858 710 
L 4922 710 
C 5062 710 5267 813 5274 858 
L 5274 3117 
C 5402 3142 5504 3194 5549 3245 
L 5030 3642 
L 4794 3379 
L 3437 3379 
L 3437 3955 
C 3597 3981 3654 4038 3667 4128 
z
M 4858 3194 
L 4858 2323 
L 3437 2323 
L 3437 3194 
L 4858 3194 
z
M 4858 1242 
L 3437 1242 
L 3437 2138 
L 4858 2138 
L 4858 1242 
z
M 3014 3194 
L 3014 2323 
L 1587 2323 
L 1587 3194 
L 3014 3194 
z
M 1587 1242 
L 1587 2138 
L 3014 2138 
L 3014 1242 
L 1587 1242 
z
M 973 4826 
L 858 4819 
C 896 4416 678 4045 435 3904 
C 301 3827 218 3706 275 3565 
C 346 3418 576 3424 736 3539 
C 909 3661 1069 3930 1056 4333 
L 5453 4333 
C 5395 4083 5299 3763 5229 3558 
L 5312 3507 
C 5523 3706 5798 4026 5952 4256 
C 6080 4262 6150 4275 6195 4320 
L 5702 4794 
L 5427 4518 
L 1043 4518 
C 1030 4614 1005 4717 973 4826 
z
" transform="scale(0.015625)"/>
        <path id="NotoSerifCJKjp-Regular-6bbb" d="M 3488 2912 
L 3418 2867 
C 3738 2528 4122 1971 4192 1536 
C 4659 1178 5030 2221 3488 2912 
z
M 2131 5203 
L 1459 5357 
C 1402 5018 1293 4557 1216 4230 
L 1005 4230 
L 576 4435 
L 576 -301 
L 646 -301 
C 826 -301 973 -205 973 -154 
L 973 371 
L 2310 371 
L 2310 -115 
L 2368 -115 
C 2515 -115 2707 -6 2714 38 
L 2714 3962 
C 2842 3987 2950 4038 2989 4090 
L 2483 4486 
L 2246 4230 
L 1434 4230 
C 1581 4486 1766 4819 1894 5069 
C 2022 5069 2106 5114 2131 5203 
z
M 2310 4038 
L 2310 2438 
L 973 2438 
L 973 4038 
L 2310 4038 
z
M 973 2253 
L 2310 2253 
L 2310 557 
L 973 557 
L 973 2253 
z
M 4518 5165 
L 3859 5357 
C 3648 4371 3245 3392 2835 2758 
L 2925 2694 
C 3277 3046 3590 3514 3859 4045 
L 5421 4045 
C 5376 1856 5280 397 5043 160 
C 4973 90 4922 70 4794 70 
C 4646 70 4186 115 3891 147 
L 3885 32 
C 4147 -13 4422 -90 4518 -160 
C 4614 -230 4646 -352 4646 -486 
C 4954 -486 5210 -397 5382 -179 
C 5690 192 5798 1619 5843 3987 
C 5990 4000 6067 4032 6118 4090 
L 5613 4518 
L 5350 4230 
L 3949 4230 
C 4070 4486 4179 4762 4275 5037 
C 4416 5030 4493 5094 4518 5165 
z
" transform="scale(0.015625)"/>
        <path id="NotoSerifCJKjp-Regular-49d6" d="M 3322 1043 
L 5299 1043 
L 5299 154 
L 3322 154 
L 3322 1043 
z
M 3322 1222 
L 3322 2080 
L 5299 2080 
L 5299 1222 
L 3322 1222 
z
M 2918 2272 
L 2918 -506 
L 2982 -506 
C 3162 -506 3322 -410 3322 -365 
L 3322 -32 
L 5299 -32 
L 5299 -467 
L 5363 -467 
C 5504 -467 5709 -371 5715 -326 
L 5715 2003 
C 5843 2029 5946 2080 5990 2131 
L 5472 2522 
L 5235 2272 
L 3360 2272 
L 2918 2470 
L 2918 2272 
z
M 5312 5069 
C 4890 4742 4064 4326 3283 4064 
L 3283 5120 
C 3405 5139 3462 5197 3475 5274 
L 2880 5338 
L 2880 3328 
C 2880 2976 3014 2886 3616 2886 
L 4582 2886 
C 5901 2886 6131 2950 6131 3155 
C 6131 3238 6086 3277 5926 3322 
L 5907 3962 
L 5830 3962 
C 5760 3667 5696 3424 5638 3341 
C 5606 3290 5574 3277 5472 3270 
C 5357 3264 5018 3258 4602 3258 
L 3654 3258 
C 3322 3258 3283 3290 3283 3398 
L 3283 3917 
C 4134 4083 4992 4390 5536 4653 
C 5696 4602 5798 4608 5850 4672 
L 5312 5069 
z
M 173 2003 
L 390 1466 
C 448 1491 506 1549 525 1626 
L 1248 1971 
L 1248 154 
C 1248 58 1216 32 1107 32 
C 992 32 422 70 422 70 
L 422 -32 
C 672 -64 819 -109 909 -179 
C 986 -250 1018 -358 1037 -493 
C 1587 -429 1651 -224 1651 122 
L 1651 2176 
L 2662 2694 
L 2630 2790 
L 1651 2458 
L 1651 3712 
L 2515 3712 
C 2598 3712 2662 3744 2675 3814 
C 2496 4006 2189 4262 2189 4262 
L 1920 3898 
L 1651 3898 
L 1651 5120 
C 1805 5139 1869 5203 1888 5293 
L 1248 5363 
L 1248 3898 
L 269 3898 
L 320 3712 
L 1248 3712 
L 1248 2330 
C 774 2176 384 2054 173 2003 
z
" transform="scale(0.015625)"/>
        <path id="NotoSerifCJKjp-Regular-522e" d="M 3546 2240 
L 2912 2470 
C 2778 1779 2451 787 1978 141 
L 2054 64 
C 2669 640 3085 1510 3302 2144 
C 3462 2138 3520 2176 3546 2240 
z
M 4845 2400 
L 4755 2355 
C 5158 1779 5677 890 5766 218 
C 6246 -198 6573 1037 4845 2400 
z
M 5261 5114 
L 4973 4755 
L 2675 4755 
L 2726 4563 
L 5613 4563 
C 5702 4563 5766 4595 5779 4666 
C 5581 4858 5261 5114 5261 5114 
z
M 5594 3629 
L 5293 3245 
L 2317 3245 
L 2368 3059 
L 3923 3059 
L 3923 147 
C 3923 64 3891 26 3782 26 
C 3654 26 3027 77 3027 77 
L 3027 -19 
C 3309 -58 3469 -109 3558 -179 
C 3635 -243 3674 -365 3686 -480 
C 4256 -422 4333 -186 4333 134 
L 4333 3059 
L 5965 3059 
C 6054 3059 6118 3091 6138 3162 
C 5926 3360 5594 3629 5594 3629 
z
M 2099 4256 
L 1811 3885 
L 1594 3885 
L 1594 5114 
C 1760 5139 1811 5197 1824 5293 
L 1190 5363 
L 1190 3885 
L 282 3885 
L 333 3699 
L 1082 3699 
C 915 2707 621 1715 147 947 
L 243 870 
C 646 1344 960 1888 1190 2490 
L 1190 -486 
L 1280 -486 
C 1421 -486 1594 -390 1594 -333 
L 1594 2938 
C 1792 2662 1997 2291 2048 1997 
C 2445 1664 2822 2502 1594 3085 
L 1594 3699 
L 2451 3699 
C 2541 3699 2598 3731 2618 3802 
C 2419 3994 2099 4256 2099 4256 
z
" transform="scale(0.015625)"/>
       </defs>
       <use xlink:href="#NotoSerifCJKjp-Regular-270e"/>
       <use xlink:href="#NotoSerifCJKjp-Regular-7d80" transform="translate(100 0)"/>
       <use xlink:href="#NotoSerifCJKjp-Regular-5089" transform="translate(200 0)"/>
       <use xlink:href="#NotoSerifCJKjp-Regular-2896" transform="translate(300 0)"/>
       <use xlink:href="#NotoSerifCJKjp-Regular-377f" transform="translate(400 0)"/>
       <use xlink:href="#NotoSerifCJKjp-Regular-1" transform="translate(500 0)"/>
       <use xlink:href="#NotoSerifCJKjp-Regular-22" transform="translate(525.59375 0)"/>
       <use xlink:href="#NotoSerifCJKjp-Regular-2a" transform="translate(596.390625 0)"/>
       <use xlink:href="#NotoSerifCJKjp-Regular-1" transform="translate(636.890625 0)"/>
       <use xlink:href="#NotoSerifCJKjp-Regular-964f" transform="translate(662.484375 0)"/>
       <use xlink:href="#NotoSerifCJKjp-Regular-3c7e" transform="translate(762.484375 0)"/>
       <use xlink:href="#NotoSerifCJKjp-Regular-6bbb" transform="translate(862.484375 0)"/>
       <use xlink:href="#NotoSerifCJKjp-Regular-49d6" transform="translate(962.484375 0)"/>
       <use xlink:href="#NotoSerifCJKjp-Regular-522e" transform="translate(1062.484375 0)"/>
      </g>
     </g>
    </g>
    <g id="ytick_2">
     <g id="line2d_16">
      <g>
       <use xlink:href="#m514318fedc" x="128.2" y="50.92654" style="fill: #333333; stroke: #333333; stroke-width: 0.8"/>
      </g>
     </g>
     <g id="text_9">
      <!-- 作者更偏好人类评审的指标 -->
      <g style="fill: #333333" transform="translate(7.2 55.10654) scale(0.095 -0.095)">
       <defs>
        <path id="NotoSerifCJKjp-Regular-2633" d="M 3251 4979 
C 3411 4998 3462 5062 3475 5158 
L 2797 5229 
C 2790 3270 2810 1197 262 -384 
L 352 -493 
C 2630 691 3091 2310 3206 3859 
C 3405 1952 3981 461 5702 -493 
C 5773 -250 5933 -160 6163 -134 
L 6176 -64 
C 3962 960 3392 2624 3251 4979 
z
" transform="scale(0.015625)"/>
        <path id="NotoSerifCJKjp-Regular-76b3" d="M 1261 5158 
L 1190 5107 
C 1491 4877 1875 4467 1990 4141 
C 2432 3878 2688 4774 1261 5158 
z
M 3827 2387 
L 3770 2323 
C 4051 2176 4397 1888 4512 1626 
C 4934 1421 5120 2266 3827 2387 
z
M 4698 5248 
C 4461 4877 4083 4358 3776 4000 
L 3392 4000 
L 3392 5094 
C 3546 5114 3597 5171 3610 5261 
L 2970 5318 
L 2970 4000 
L 333 4000 
L 390 3808 
L 2528 3808 
C 2003 3194 1197 2618 314 2227 
L 371 2118 
C 1408 2470 2336 2995 2970 3661 
L 2970 2400 
L 3053 2400 
C 3213 2400 3392 2490 3392 2541 
L 3392 3808 
L 3430 3808 
C 3955 3155 4813 2573 5696 2272 
C 5734 2451 5901 2560 6118 2605 
L 6125 2688 
C 5306 2867 4224 3290 3648 3808 
L 5894 3808 
C 5984 3808 6048 3840 6067 3910 
C 5850 4102 5510 4371 5510 4371 
L 5210 4000 
L 3968 4000 
C 4339 4269 4749 4621 4998 4870 
C 5126 4838 5222 4864 5267 4922 
L 4698 5248 
z
M 2874 2234 
C 2861 1952 2835 1696 2784 1459 
L 314 1459 
L 371 1267 
L 2733 1267 
C 2502 563 1907 64 250 -365 
L 301 -493 
C 2355 -90 2957 474 3174 1267 
L 3283 1267 
C 3731 269 4563 -218 5818 -493 
C 5862 -288 5990 -147 6170 -109 
L 6176 -38 
C 4928 102 3936 474 3437 1267 
L 5920 1267 
C 6016 1267 6080 1299 6093 1370 
C 5875 1568 5530 1843 5530 1843 
L 5222 1459 
L 3219 1459 
C 3258 1626 3277 1805 3296 1997 
C 3443 2010 3507 2080 3520 2163 
L 2874 2234 
z
" transform="scale(0.015625)"/>
       </defs>
       <use xlink:href="#NotoSerifCJKjp-Regular-270e"/>
       <use xlink:href="#NotoSerifCJKjp-Regular-7d80" transform="translate(100 0)"/>
       <use xlink:href="#NotoSerifCJKjp-Regular-5089" transform="translate(200 0)"/>
       <use xlink:href="#NotoSerifCJKjp-Regular-2896" transform="translate(300 0)"/>
       <use xlink:href="#NotoSerifCJKjp-Regular-377f" transform="translate(400 0)"/>
       <use xlink:href="#NotoSerifCJKjp-Regular-2633" transform="translate(500 0)"/>
       <use xlink:href="#NotoSerifCJKjp-Regular-76b3" transform="translate(600 0)"/>
       <use xlink:href="#NotoSerifCJKjp-Regular-964f" transform="translate(700 0)"/>
       <use xlink:href="#NotoSerifCJKjp-Regular-3c7e" transform="translate(800 0)"/>
       <use xlink:href="#NotoSerifCJKjp-Regular-6bbb" transform="translate(900 0)"/>
       <use xlink:href="#NotoSerifCJKjp-Regular-49d6" transform="translate(1000 0)"/>
       <use xlink:href="#NotoSerifCJKjp-Regular-522e" transform="translate(1100 0)"/>
      </g>
     </g>
    </g>
   </g>
   <g id="line2d_17">
    <path d="M 128.2 218.7 
L 128.2 7.2 
" clip-path="url(#p8ae33595f0)" style="fill: none; stroke: #cccccc; stroke-width: 0.8; stroke-linecap: square"/>
   </g>
   <g id="patch_3">
    <path d="M 128.2 218.7 
L 632.88 218.7 
" style="fill: none; stroke: #000000; stroke-width: 0.8; stroke-linejoin: miter; stroke-linecap: square"/>
   </g>
   <g id="patch_4">
    <path d="M 128.2 209.086364 
L 608.847619 209.086364 
L 608.847619 140.860557 
L 128.2 140.860557 
z
" clip-path="url(#p8ae33595f0)" style="fill: #1a56db"/>
   </g>
   <g id="patch_5">
    <path d="M 128.2 85.039443 
L 368.52381 85.039443 
L 368.52381 16.813636 
L 128.2 16.813636 
z
" clip-path="url(#p8ae33595f0)" style="fill: #1a56db"/>
   </g>
   <g id="text_10">
    <!-- 6 -->
    <g style="fill: #333333" transform="translate(616.858413 178.58346) scale(0.095 -0.095)">
     <defs>
      <path id="NotoSerifCJKjp-Bold-17" d="M 1971 -102 
C 2918 -102 3526 563 3526 1453 
C 3526 2304 3066 2886 2253 2886 
C 1837 2886 1485 2746 1203 2464 
C 1363 3565 2080 4410 3315 4691 
L 3283 4845 
C 1485 4666 288 3366 288 1824 
C 288 621 941 -102 1971 -102 
z
M 1184 2253 
C 1414 2477 1664 2560 1926 2560 
C 2413 2560 2682 2150 2682 1382 
C 2682 512 2374 109 1978 109 
C 1485 109 1171 710 1171 1984 
L 1184 2253 
z
" transform="scale(0.015625)"/>
     </defs>
     <use xlink:href="#NotoSerifCJKjp-Bold-17"/>
    </g>
   </g>
   <g id="text_11">
    <!-- 3 -->
    <g style="fill: #333333" transform="translate(376.534603 54.53654) scale(0.095 -0.095)">
     <defs>
      <path id="NotoSerifCJKjp-Bold-14" d="M 1754 -102 
C 2778 -102 3437 422 3437 1210 
C 3437 1882 3072 2362 2125 2496 
C 2950 2675 3290 3142 3290 3712 
C 3290 4378 2810 4845 1869 4845 
C 1146 4845 512 4538 461 3821 
C 518 3699 634 3635 774 3635 
C 979 3635 1146 3731 1203 4019 
L 1331 4602 
C 1434 4621 1530 4634 1626 4634 
C 2138 4634 2438 4301 2438 3680 
C 2438 2944 2035 2592 1453 2592 
L 1222 2592 
L 1222 2349 
L 1485 2349 
C 2176 2349 2541 1946 2541 1210 
C 2541 506 2163 109 1485 109 
C 1363 109 1261 122 1171 154 
L 1043 736 
C 986 1101 851 1216 634 1216 
C 480 1216 339 1133 275 954 
C 358 282 864 -102 1754 -102 
z
" transform="scale(0.015625)"/>
     </defs>
     <use xlink:href="#NotoSerifCJKjp-Bold-14"/>
    </g>
   </g>
  </g>
 </g>
 <defs>
  <clipPath id="p8ae33595f0">
   <rect x="128.2" y="7.2" width="504.68" height="211.5"/>
  </clipPath>
 </defs>
</svg>
