<?xml version="1.0" encoding="utf-8" standalone="no"?>
<!DOCTYPE svg PUBLIC "-//W3C//DTD SVG 1.1//EN"
  "http://www.w3.org/Graphics/SVG/1.1/DTD/svg11.dtd">
<svg xmlns:xlink="http://www.w3.org/1999/xlink" width="641.701075pt" height="242.4pt" viewBox="0 0 641.701075 242.4" xmlns="http://www.w3.org/2000/svg" version="1.1">
 <metadata>
  <rdf:RDF xmlns:dc="http://purl.org/dc/elements/1.1/" xmlns:cc="http://creativecommons.org/ns#" xmlns:rdf="http://www.w3.org/1999/02/22-rdf-syntax-ns#">
   <cc:Work>
    <dc:type rdf:resource="http://purl.org/dc/dcmitype/StillImage"/>
    <dc:date>2026-06-17T23:56:33.634923</dc:date>
    <dc:format>image/svg+xml</dc:format>
    <dc:creator>
     <cc:Agent>
      <dc:title>Matplotlib v3.11.0, https://matplotlib.org/</dc:title>
     </cc:Agent>
    </dc:creator>
   </cc:Work>
  </rdf:RDF>
 </metadata>
 <defs>
  <style type="text/css">*{stroke-linejoin: round; stroke-linecap: butt}</style>
 </defs>
 <g id="figure_1">
  <g id="patch_1">
   <path d="M 0 242.4 
L 641.701075 242.4 
L 641.701075 0 
L 0 0 
z
" style="fill: #ffffff"/>
  </g>
  <g id="axes_1">
   <g id="patch_2">
    <path d="M 125.851719 218.7 
L 633.02481 218.7 
L 633.02481 7.2 
L 125.851719 7.2 
z
" style="fill: #fafafa"/>
   </g>
   <g id="matplotlib.axis_1">
    <g id="xtick_1">
     <g id="line2d_1">
      <path d="M 125.851719 218.7 
L 125.851719 7.2 
" clip-path="url(#p416152c64b)" style="fill: none; stroke-dasharray: 2.96,1.28; stroke-dashoffset: 0; stroke: #b0b0b0; stroke-opacity: 0.35; stroke-width: 0.8"/>
     </g>
     <g id="line2d_2">
      <defs>
       <path id="m5ba533393e" d="M 0 0 
L 0 3.5 
" style="stroke: #333333; stroke-width: 0.8"/>
      </defs>
      <g>
       <use xlink:href="#m5ba533393e" x="125.851719" y="218.7" style="fill: #333333; stroke: #333333; stroke-width: 0.8"/>
      </g>
     </g>
     <g id="text_1">
      <!-- 0 -->
      <g style="fill: #333333" transform="translate(123.20582 234.06) scale(0.095 -0.095)">
       <defs>
        <path id="NotoSerifCJKjp-Regular-11" d="M 1779 -96 
C 2547 -96 3258 602 3258 2342 
C 3258 4058 2547 4755 1779 4755 
C 1011 4755 301 4058 301 2342 
C 301 602 1011 -96 1779 -96 
z
M 1779 102 
C 1299 102 832 640 832 2342 
C 832 4019 1299 4550 1779 4550 
C 2253 4550 2726 4019 2726 2342 
C 2726 640 2253 102 1779 102 
z
" transform="scale(0.015625)"/>
       </defs>
       <use xlink:href="#NotoSerifCJKjp-Regular-11"/>
      </g>
     </g>
    </g>
    <g id="xtick_2">
     <g id="line2d_3">
      <path d="M 225.54666 218.7 
L 225.54666 7.2 
" clip-path="url(#p416152c64b)" style="fill: none; stroke-dasharray: 2.96,1.28; stroke-dashoffset: 0; stroke: #b0b0b0; stroke-opacity: 0.35; stroke-width: 0.8"/>
     </g>
     <g id="line2d_4">
      <g>
       <use xlink:href="#m5ba533393e" x="225.54666" y="218.7" style="fill: #333333; stroke: #333333; stroke-width: 0.8"/>
      </g>
     </g>
     <g id="text_2">
      <!-- 200 -->
      <g style="fill: #333333" transform="translate(217.604512 234.06) scale(0.095 -0.095)">
       <defs>
        <path id="NotoSerifCJKjp-Regular-13" d="M 410 0 
L 3270 0 
L 3270 448 
L 762 448 
C 1152 877 1530 1293 1715 1485 
C 2688 2483 3078 2950 3078 3539 
C 3078 4294 2637 4755 1779 4755 
C 1126 4755 512 4422 410 3770 
C 448 3642 550 3571 672 3571 
C 819 3571 922 3654 986 3904 
L 1139 4461 
C 1306 4531 1466 4557 1626 4557 
C 2195 4557 2534 4192 2534 3552 
C 2534 2989 2253 2541 1574 1722 
C 1261 1350 832 845 410 346 
L 410 0 
z
" transform="scale(0.015625)"/>
       </defs>
       <use xlink:href="#NotoSerifCJKjp-Regular-13"/>
       <use xlink:href="#NotoSerifCJKjp-Regular-11" transform="translate(55.796875 0)"/>
       <use xlink:href="#NotoSerifCJKjp-Regular-11" transform="translate(111.5 0)"/>
      </g>
     </g>
    </g>
    <g id="xtick_3">
     <g id="line2d_5">
      <path d="M 325.241602 218.7 
L 325.241602 7.2 
" clip-path="url(#p416152c64b)" style="fill: none; stroke-dasharray: 2.96,1.28; stroke-dashoffset: 0; stroke: #b0b0b0; stroke-opacity: 0.35; stroke-width: 0.8"/>
     </g>
     <g id="line2d_6">
      <g>
       <use xlink:href="#m5ba533393e" x="325.241602" y="218.7" style="fill: #333333; stroke: #333333; stroke-width: 0.8"/>
      </g>
     </g>
     <g id="text_3">
      <!-- 400 -->
      <g style="fill: #333333" transform="translate(317.313555 234.06) scale(0.095 -0.095)">
       <defs>
        <path id="NotoSerifCJKjp-Regular-15" d="M 2170 -115 
L 2650 -115 
L 2650 1229 
L 3418 1229 
L 3418 1600 
L 2650 1600 
L 2650 4730 
L 2291 4730 
L 218 1530 
L 218 1229 
L 2170 1229 
L 2170 -115 
z
M 493 1600 
L 1389 2989 
L 2170 4211 
L 2170 1600 
L 493 1600 
z
" transform="scale(0.015625)"/>
       </defs>
       <use xlink:href="#NotoSerifCJKjp-Regular-15"/>
       <use xlink:href="#NotoSerifCJKjp-Regular-11" transform="translate(55.5 0)"/>
       <use xlink:href="#NotoSerifCJKjp-Regular-11" transform="translate(111.203125 0)"/>
      </g>
     </g>
    </g>
    <g id="xtick_4">
     <g id="line2d_7">
      <path d="M 424.936543 218.7 
L 424.936543 7.2 
" clip-path="url(#p416152c64b)" style="fill: none; stroke-dasharray: 2.96,1.28; stroke-dashoffset: 0; stroke: #b0b0b0; stroke-opacity: 0.35; stroke-width: 0.8"/>
     </g>
     <g id="line2d_8">
      <g>
       <use xlink:href="#m5ba533393e" x="424.936543" y="218.7" style="fill: #333333; stroke: #333333; stroke-width: 0.8"/>
      </g>
     </g>
     <g id="text_4">
      <!-- 600 -->
      <g style="fill: #333333" transform="translate(416.994395 234.06) scale(0.095 -0.095)">
       <defs>
        <path id="NotoSerifCJKjp-Regular-17" d="M 1850 -96 
C 2656 -96 3258 538 3258 1414 
C 3258 2253 2803 2816 2029 2816 
C 1606 2816 1248 2650 941 2323 
C 1107 3450 1850 4339 3136 4614 
L 3104 4755 
C 1414 4557 358 3258 358 1773 
C 358 634 922 -96 1850 -96 
z
M 922 2118 
C 1222 2432 1523 2554 1856 2554 
C 2394 2554 2726 2144 2726 1376 
C 2726 557 2342 102 1856 102 
C 1261 102 909 736 909 1830 
L 922 2118 
z
" transform="scale(0.015625)"/>
       </defs>
       <use xlink:href="#NotoSerifCJKjp-Regular-17"/>
       <use xlink:href="#NotoSerifCJKjp-Regular-11" transform="translate(55.796875 0)"/>
       <use xlink:href="#NotoSerifCJKjp-Regular-11" transform="translate(111.5 0)"/>
      </g>
     </g>
    </g>
    <g id="xtick_5">
     <g id="line2d_9">
      <path d="M 524.631485 218.7 
L 524.631485 7.2 
" clip-path="url(#p416152c64b)" style="fill: none; stroke-dasharray: 2.96,1.28; stroke-dashoffset: 0; stroke: #b0b0b0; stroke-opacity: 0.35; stroke-width: 0.8"/>
     </g>
     <g id="line2d_10">
      <g>
       <use xlink:href="#m5ba533393e" x="524.631485" y="218.7" style="fill: #333333; stroke: #333333; stroke-width: 0.8"/>
      </g>
     </g>
     <g id="text_5">
      <!-- 800 -->
      <g style="fill: #333333" transform="translate(516.689337 234.06) scale(0.095 -0.095)">
       <defs>
        <path id="NotoSerifCJKjp-Regular-19" d="M 1754 -96 
C 2637 -96 3219 384 3219 1126 
C 3219 1722 2893 2131 2093 2502 
C 2784 2829 3027 3251 3027 3686 
C 3027 4301 2579 4755 1798 4755 
C 1075 4755 499 4307 499 3603 
C 499 3059 774 2605 1434 2285 
C 730 1978 365 1587 365 1024 
C 365 352 858 -96 1754 -96 
z
M 1946 2573 
C 1178 2912 973 3302 973 3731 
C 973 4243 1357 4550 1792 4550 
C 2304 4550 2579 4160 2579 3699 
C 2579 3213 2394 2880 1946 2573 
z
M 1587 2214 
C 2458 1830 2720 1453 2720 986 
C 2720 454 2374 102 1779 102 
C 1184 102 832 474 832 1082 
C 832 1568 1050 1888 1587 2214 
z
" transform="scale(0.015625)"/>
       </defs>
       <use xlink:href="#NotoSerifCJKjp-Regular-19"/>
       <use xlink:href="#NotoSerifCJKjp-Regular-11" transform="translate(55.796875 0)"/>
       <use xlink:href="#NotoSerifCJKjp-Regular-11" transform="translate(111.5 0)"/>
      </g>
     </g>
    </g>
    <g id="xtick_6">
     <g id="line2d_11">
      <path d="M 624.326427 218.7 
L 624.326427 7.2 
" clip-path="url(#p416152c64b)" style="fill: none; stroke-dasharray: 2.96,1.28; stroke-dashoffset: 0; stroke: #b0b0b0; stroke-opacity: 0.35; stroke-width: 0.8"/>
     </g>
     <g id="line2d_12">
      <g>
       <use xlink:href="#m5ba533393e" x="624.326427" y="218.7" style="fill: #333333; stroke: #333333; stroke-width: 0.8"/>
      </g>
     </g>
     <g id="text_6">
      <!-- 1000 -->
      <g style="fill: #333333" transform="translate(614.151778 234.06) scale(0.095 -0.095)">
       <defs>
        <path id="NotoSerifCJKjp-Regular-12" d="M 480 0 
L 2733 -6 
L 2733 173 
L 1907 269 
L 1894 1472 
L 1894 3642 
L 1920 4653 
L 1824 4723 
L 448 4371 
L 448 4179 
L 1370 4333 
L 1370 1472 
L 1357 269 
L 480 179 
L 480 0 
z
" transform="scale(0.015625)"/>
       </defs>
       <use xlink:href="#NotoSerifCJKjp-Regular-12"/>
       <use xlink:href="#NotoSerifCJKjp-Regular-11" transform="translate(47.09375 0)"/>
       <use xlink:href="#NotoSerifCJKjp-Regular-11" transform="translate(102.796875 0)"/>
       <use xlink:href="#NotoSerifCJKjp-Regular-11" transform="translate(158.5 0)"/>
      </g>
     </g>
    </g>
   </g>
   <g id="matplotlib.axis_2">
    <g id="ytick_1">
     <g id="line2d_13">
      <defs>
       <path id="m292b41863e" d="M 0 0 
L -3.5 0 
" style="stroke: #333333; stroke-width: 0.8"/>
      </defs>
      <g>
       <use xlink:href="#m292b41863e" x="125.851719" y="194.191997" style="fill: #333333; stroke: #333333; stroke-width: 0.8"/>
      </g>
     </g>
     <g id="text_7">
      <!-- 全部投稿 -->
      <g style="fill: #333333" transform="translate(80.851719 198.371997) scale(0.095 -0.095)">
       <defs>
        <path id="NotoSerifCJKjp-Regular-2a98" d="M 3354 5018 
C 3814 4058 4800 3174 5837 2624 
C 5882 2784 6035 2931 6227 2970 
L 6240 3059 
C 5120 3546 4051 4262 3475 5094 
C 3635 5114 3712 5139 3731 5216 
L 2970 5408 
C 2618 4467 1306 3117 224 2477 
L 275 2381 
C 1478 2970 2746 4064 3354 5018 
z
M 422 -77 
L 474 -262 
L 5875 -262 
C 5965 -262 6029 -230 6048 -166 
C 5818 45 5453 326 5453 326 
L 5133 -77 
L 3398 -77 
L 3398 1293 
L 5229 1293 
C 5318 1293 5376 1325 5395 1395 
C 5178 1587 4832 1843 4832 1843 
L 4525 1485 
L 3398 1485 
L 3398 2694 
L 4992 2694 
C 5082 2694 5152 2726 5165 2790 
C 4954 2982 4627 3226 4627 3226 
L 4333 2880 
L 1338 2880 
L 1389 2694 
L 2970 2694 
L 2970 1485 
L 1235 1485 
L 1286 1293 
L 2970 1293 
L 2970 -77 
L 422 -77 
z
" transform="scale(0.015625)"/>
        <path id="NotoSerifCJKjp-Regular-9f47" d="M 998 4154 
L 915 4122 
C 1075 3827 1248 3366 1248 3008 
C 1600 2656 2035 3456 998 4154 
z
M 838 1907 
L 838 -486 
L 902 -486 
C 1075 -486 1242 -384 1242 -346 
L 1242 128 
L 2778 128 
L 2778 -390 
L 2835 -390 
C 2970 -390 3174 -301 3181 -262 
L 3181 1638 
C 3309 1664 3411 1715 3450 1766 
L 2938 2157 
L 2714 1907 
L 1274 1907 
L 838 2099 
L 838 1907 
z
M 2778 307 
L 1242 307 
L 1242 1722 
L 2778 1722 
L 2778 307 
z
M 1715 5350 
L 1715 4499 
L 358 4499 
L 410 4314 
L 3558 4314 
C 3642 4314 3699 4346 3718 4416 
C 3514 4608 3181 4870 3181 4870 
L 2886 4499 
L 2125 4499 
L 2125 5114 
C 2285 5133 2349 5197 2362 5286 
L 1715 5350 
z
M 2650 4192 
C 2547 3776 2368 3200 2214 2784 
L 275 2784 
L 326 2598 
L 3635 2598 
C 3725 2598 3782 2630 3802 2701 
C 3597 2899 3251 3168 3251 3168 
L 2957 2784 
L 2362 2784 
C 2624 3136 2893 3571 3059 3885 
C 3194 3878 3270 3936 3296 4006 
L 2650 4192 
z
M 4006 4864 
L 4006 -506 
L 4070 -506 
C 4275 -506 4416 -397 4416 -358 
L 4416 4678 
L 5453 4678 
C 5280 4134 5005 3322 4832 2899 
C 5402 2374 5626 1862 5626 1363 
C 5626 1088 5555 947 5421 877 
C 5363 845 5318 838 5248 838 
C 5114 838 4806 838 4627 838 
L 4627 736 
C 4813 717 4966 685 5030 634 
C 5088 576 5114 442 5114 301 
C 5805 333 6054 640 6048 1274 
C 6048 1805 5760 2381 4986 2918 
C 5274 3328 5702 4134 5926 4563 
C 6074 4570 6170 4582 6214 4640 
L 5715 5133 
L 5440 4864 
L 4493 4864 
L 4006 5120 
L 4006 4864 
z
" transform="scale(0.015625)"/>
        <path id="NotoSerifCJKjp-Regular-493d" d="M 3149 5050 
L 3149 4506 
C 3149 3917 3053 3270 2394 2733 
L 2464 2650 
C 3443 3155 3552 3962 3552 4506 
L 3552 4864 
L 4614 4864 
L 4614 3386 
C 4614 3130 4672 3021 5037 3021 
L 5408 3021 
C 6003 3021 6170 3104 6170 3264 
C 6170 3347 6150 3392 6035 3437 
L 6016 4218 
L 5926 4218 
C 5869 3898 5798 3552 5760 3462 
C 5741 3405 5722 3398 5683 3392 
C 5645 3392 5542 3392 5421 3392 
L 5146 3392 
C 5030 3392 5018 3405 5018 3475 
L 5018 4806 
C 5133 4819 5197 4858 5235 4890 
L 4781 5293 
L 4563 5050 
L 3629 5050 
L 3149 5261 
L 3149 5050 
z
M 4992 2330 
C 4794 1811 4506 1350 4122 947 
C 3712 1312 3398 1773 3194 2330 
L 4992 2330 
z
M 2515 2515 
L 2573 2330 
L 3053 2330 
C 3238 1677 3514 1146 3885 717 
C 3366 250 2701 -122 1888 -384 
L 1939 -493 
C 2835 -275 3546 51 4109 480 
C 4557 51 5120 -269 5798 -493 
C 5869 -288 6016 -154 6202 -128 
L 6208 -70 
C 5517 96 4902 358 4397 723 
C 4870 1158 5222 1677 5472 2266 
C 5626 2272 5696 2291 5741 2342 
L 5274 2784 
L 4986 2515 
L 2515 2515 
z
M 166 2067 
L 416 1536 
C 474 1568 518 1638 531 1715 
L 1222 2144 
L 1222 154 
C 1222 58 1190 26 1082 26 
C 966 26 410 64 410 64 
L 410 -38 
C 653 -70 800 -115 883 -186 
C 960 -256 992 -371 1011 -499 
C 1562 -435 1626 -230 1626 115 
L 1626 2400 
L 2406 2918 
L 2374 3008 
L 1626 2675 
L 1626 3712 
L 2413 3712 
C 2502 3712 2560 3744 2579 3814 
C 2400 4006 2099 4256 2099 4256 
L 1837 3898 
L 1626 3898 
L 1626 5120 
C 1779 5139 1843 5203 1862 5293 
L 1222 5363 
L 1222 3898 
L 262 3898 
L 314 3712 
L 1222 3712 
L 1222 2496 
C 755 2298 371 2138 166 2067 
z
" transform="scale(0.015625)"/>
        <path id="NotoSerifCJKjp-Regular-71ed" d="M 3962 5293 
L 3962 4666 
L 2381 4666 
L 2432 4474 
L 5984 4474 
C 6074 4474 6131 4506 6150 4576 
C 5952 4768 5632 5024 5632 5024 
L 5344 4666 
L 4371 4666 
L 4371 5050 
C 4531 5075 4589 5139 4608 5229 
L 3962 5293 
z
M 5018 3827 
L 5018 3110 
L 3398 3110 
L 3398 3827 
L 5018 3827 
z
M 3008 4019 
L 3008 2586 
L 3066 2586 
C 3232 2586 3398 2682 3398 2714 
L 3398 2925 
L 5018 2925 
L 5018 2675 
L 5082 2675 
C 5210 2675 5414 2765 5421 2797 
L 5421 3763 
C 5536 3782 5632 3840 5670 3885 
L 5184 4250 
L 4960 4019 
L 3430 4019 
L 3008 4205 
L 3008 4019 
z
M 2483 2330 
L 2483 -499 
L 2547 -499 
C 2714 -499 2874 -410 2874 -365 
L 2874 2138 
L 5523 2138 
L 5523 102 
C 5523 26 5504 -6 5414 -6 
C 5318 -6 4941 19 4941 19 
L 4941 -83 
C 5133 -109 5235 -147 5299 -211 
C 5357 -275 5376 -378 5382 -486 
C 5856 -442 5914 -256 5914 58 
L 5914 2061 
C 6042 2080 6150 2138 6182 2182 
L 5664 2573 
L 5459 2330 
L 2906 2330 
L 2483 2522 
L 2483 2330 
z
M 4627 1472 
L 4627 736 
L 3725 736 
L 3725 1472 
L 4627 1472 
z
M 3398 1658 
L 3398 154 
L 3450 154 
C 3584 154 3725 230 3725 256 
L 3725 550 
L 4627 550 
L 4627 250 
L 4672 250 
C 4787 250 4954 326 4960 371 
L 4960 1440 
C 5050 1453 5133 1498 5165 1536 
L 4762 1850 
L 4576 1658 
L 3757 1658 
L 3398 1824 
L 3398 1658 
z
M 2042 5299 
C 1658 5018 877 4621 243 4416 
L 282 4314 
C 595 4365 928 4435 1242 4525 
L 1242 3475 
L 269 3475 
L 320 3283 
L 1133 3283 
C 941 2374 602 1453 102 755 
L 192 666 
C 634 1120 986 1651 1242 2240 
L 1242 -499 
L 1306 -499 
C 1491 -499 1626 -397 1626 -365 
L 1626 2586 
C 1824 2342 2042 2016 2112 1766 
C 2477 1485 2803 2221 1626 2739 
L 1626 3283 
L 2451 3283 
C 2541 3283 2598 3315 2618 3386 
C 2432 3571 2125 3827 2125 3827 
L 1856 3475 
L 1626 3475 
L 1626 4640 
C 1869 4710 2086 4794 2259 4864 
C 2419 4813 2522 4826 2579 4883 
L 2042 5299 
z
" transform="scale(0.015625)"/>
       </defs>
       <use xlink:href="#NotoSerifCJKjp-Regular-2a98"/>
       <use xlink:href="#NotoSerifCJKjp-Regular-9f47" transform="translate(100 0)"/>
       <use xlink:href="#NotoSerifCJKjp-Regular-493d" transform="translate(200 0)"/>
       <use xlink:href="#NotoSerifCJKjp-Regular-71ed" transform="translate(300 0)"/>
      </g>
     </g>
    </g>
    <g id="ytick_2">
     <g id="line2d_14">
      <g>
       <use xlink:href="#m292b41863e" x="125.851719" y="140.030666" style="fill: #333333; stroke: #333333; stroke-width: 0.8"/>
      </g>
     </g>
     <g id="text_8">
      <!-- Pangram 判 100% AI 分 -->
      <g style="fill: #333333" transform="translate(13.976172 144.210666) scale(0.095 -0.095)">
       <defs>
        <path id="NotoSerifCJKjp-Regular-31" d="M 339 4467 
L 998 4416 
C 1005 3782 1005 3142 1005 2502 
L 1005 2157 
C 1005 1510 1005 877 998 250 
L 339 192 
L 339 0 
L 2310 0 
L 2310 192 
L 1581 256 
L 1574 1907 
L 1958 1907 
C 3302 1907 3866 2515 3866 3302 
C 3866 4141 3322 4659 2150 4659 
L 339 4659 
L 339 4467 
z
M 1574 2118 
L 1574 2502 
C 1574 3162 1574 3808 1581 4448 
L 2106 4448 
C 2938 4448 3315 4051 3315 3309 
C 3315 2605 2918 2118 1946 2118 
L 1574 2118 
z
" transform="scale(0.015625)"/>
        <path id="NotoSerifCJKjp-Regular-42" d="M 2925 -90 
C 3174 -90 3366 13 3501 237 
L 3398 333 
C 3296 218 3219 179 3110 179 
C 2938 179 2842 288 2842 691 
L 2842 2272 
C 2842 3066 2483 3398 1741 3398 
C 1018 3398 544 3085 416 2560 
C 454 2413 550 2330 698 2330 
C 858 2330 966 2413 1005 2643 
L 1101 3104 
C 1274 3168 1434 3200 1600 3200 
C 2106 3200 2330 3008 2330 2298 
L 2330 2035 
C 2048 1971 1747 1888 1478 1805 
C 634 1562 333 1235 333 736 
C 333 205 710 -96 1216 -96 
C 1677 -96 1965 115 2342 525 
C 2394 141 2573 -90 2925 -90 
z
M 2330 723 
C 1926 339 1696 218 1440 218 
C 1082 218 845 422 845 819 
C 845 1171 1056 1446 1594 1645 
C 1811 1728 2067 1798 2330 1869 
L 2330 723 
z
" transform="scale(0.015625)"/>
        <path id="NotoSerifCJKjp-Regular-4f" d="M 2970 0 
L 4013 0 
L 4013 179 
L 3520 230 
L 3507 1466 
L 3507 2189 
C 3507 3053 3174 3398 2618 3398 
C 2195 3398 1766 3194 1331 2701 
L 1299 3328 
L 1216 3379 
L 230 3123 
L 230 2957 
L 794 2931 
C 806 2611 813 2291 813 1850 
L 813 1466 
L 800 230 
L 269 179 
L 269 0 
L 1837 0 
L 1837 179 
L 1350 230 
L 1338 1466 
L 1338 2496 
C 1760 2925 2131 3053 2400 3053 
C 2771 3053 2989 2835 2989 2202 
L 2989 1466 
L 2976 237 
L 2445 179 
L 2445 0 
L 2970 0 
z
" transform="scale(0.015625)"/>
        <path id="NotoSerifCJKjp-Regular-48" d="M 1670 1306 
C 1203 1306 915 1683 915 2253 
C 915 2829 1216 3206 1677 3206 
C 2131 3206 2438 2835 2438 2259 
C 2438 1690 2131 1306 1670 1306 
z
M 1670 1114 
C 2438 1114 2925 1568 2925 2253 
C 2925 2541 2842 2790 2688 2982 
L 3443 2957 
L 3443 3302 
L 3334 3373 
L 2534 3123 
C 2336 3296 2035 3398 1677 3398 
C 902 3398 422 2944 422 2253 
C 422 1818 614 1472 954 1280 
C 621 1011 486 787 486 538 
C 486 269 627 77 922 -13 
C 486 -218 262 -467 262 -819 
C 262 -1312 634 -1664 1594 -1664 
C 2778 -1664 3411 -1075 3411 -480 
C 3411 58 3046 371 2272 371 
L 1338 371 
C 986 371 845 525 845 742 
C 845 922 922 1043 1082 1222 
C 1248 1152 1446 1114 1670 1114 
z
M 1050 -64 
C 1171 -83 1293 -90 1459 -90 
L 2246 -90 
C 2784 -90 2957 -333 2957 -621 
C 2957 -1082 2496 -1434 1606 -1434 
C 1005 -1434 666 -1190 666 -730 
C 666 -448 787 -275 1050 -64 
z
" transform="scale(0.015625)"/>
        <path id="NotoSerifCJKjp-Regular-53" d="M 794 0 
L 1958 0 
L 1958 179 
L 1350 243 
L 1338 1466 
L 1338 2061 
C 1530 2579 1766 2886 2106 3046 
L 2163 2989 
C 2310 2835 2419 2746 2586 2746 
C 2810 2746 2912 2886 2918 3110 
C 2854 3296 2650 3398 2406 3398 
C 1978 3398 1549 3027 1338 2445 
L 1299 3328 
L 1216 3379 
L 230 3123 
L 230 2957 
L 794 2931 
C 806 2611 813 2291 813 1850 
L 813 1466 
L 800 237 
L 262 179 
L 262 0 
L 794 0 
z
" transform="scale(0.015625)"/>
        <path id="NotoSerifCJKjp-Regular-4e" d="M 4979 0 
L 6022 0 
L 6022 179 
L 5536 230 
L 5523 1466 
L 5523 2195 
C 5523 3053 5203 3398 4614 3398 
C 4173 3398 3763 3181 3373 2707 
C 3264 3194 2982 3398 2554 3398 
C 2118 3398 1722 3162 1331 2707 
L 1299 3328 
L 1216 3379 
L 230 3123 
L 230 2963 
L 794 2931 
C 806 2611 813 2291 813 1856 
L 813 1466 
L 800 230 
L 269 179 
L 269 0 
L 1837 0 
L 1837 179 
L 1350 230 
L 1338 1466 
L 1338 2490 
C 1728 2899 2061 3053 2355 3053 
C 2701 3053 2912 2816 2912 2189 
L 2912 1466 
L 2899 230 
L 2368 179 
L 2368 0 
L 3930 0 
L 3930 179 
L 3437 230 
L 3424 1466 
L 3424 2189 
C 3424 2304 3418 2413 3405 2515 
C 3789 2918 4134 3053 4422 3053 
C 4787 3053 5005 2842 5005 2189 
L 5005 1466 
C 5005 1107 4998 589 4992 230 
L 4467 179 
L 4467 0 
L 4979 0 
z
" transform="scale(0.015625)"/>
        <path id="NotoSerifCJKjp-Regular-1" transform="scale(0.015625)"/>
        <path id="NotoSerifCJKjp-Regular-2bb3" d="M 512 4966 
L 429 4928 
C 634 4563 896 3994 915 3558 
C 1306 3168 1702 4090 512 4966 
z
M 3200 5011 
C 3021 4474 2771 3872 2592 3494 
L 2688 3437 
C 2982 3757 3309 4224 3590 4646 
C 3718 4634 3795 4685 3827 4762 
L 3200 5011 
z
M 4102 4813 
L 4102 781 
L 4179 781 
C 4333 781 4506 877 4506 934 
L 4506 4563 
C 4666 4589 4723 4653 4742 4742 
L 4102 4813 
z
M 5408 5248 
L 5408 179 
C 5408 77 5370 32 5242 32 
C 5107 32 4403 90 4403 90 
L 4403 -13 
C 4710 -58 4877 -102 4986 -173 
C 5075 -250 5107 -358 5133 -493 
C 5747 -429 5824 -211 5824 141 
L 5824 4998 
C 5978 5018 6042 5082 6061 5171 
L 5408 5248 
z
M 198 1792 
L 250 1606 
L 1818 1606 
L 1818 -499 
L 1894 -499 
C 2054 -499 2227 -397 2227 -333 
L 2227 1606 
L 3763 1606 
C 3853 1606 3917 1638 3936 1709 
C 3731 1907 3398 2163 3398 2163 
L 3110 1792 
L 2227 1792 
L 2227 2944 
L 3622 2944 
C 3706 2944 3770 2976 3782 3046 
C 3590 3232 3277 3494 3277 3494 
L 2995 3136 
L 2227 3136 
L 2227 5088 
C 2394 5114 2438 5184 2458 5274 
L 1818 5338 
L 1818 3136 
L 378 3136 
L 429 2944 
L 1818 2944 
L 1818 1792 
L 198 1792 
z
" transform="scale(0.015625)"/>
        <path id="NotoSerifCJKjp-Regular-6" d="M 1235 1862 
C 1722 1862 2176 2285 2176 3290 
C 2176 4307 1722 4723 1235 4723 
C 742 4723 288 4307 288 3290 
C 288 2285 742 1862 1235 1862 
z
M 1235 2022 
C 960 2022 704 2298 704 3290 
C 704 4288 960 4557 1235 4557 
C 1510 4557 1766 4282 1766 3290 
C 1766 2298 1510 2022 1235 2022 
z
M 4678 -64 
C 5165 -64 5619 352 5619 1370 
C 5619 2381 5165 2797 4678 2797 
C 4186 2797 3731 2381 3731 1370 
C 3731 352 4186 -64 4678 -64 
z
M 4678 102 
C 4403 102 4141 371 4141 1370 
C 4141 2355 4403 2630 4678 2630 
C 4954 2630 5216 2355 5216 1370 
C 5216 371 4954 102 4678 102 
z
M 1408 -179 
L 4659 4538 
L 4493 4659 
L 1242 -64 
L 1408 -179 
z
" transform="scale(0.015625)"/>
        <path id="NotoSerifCJKjp-Regular-22" d="M 2125 4115 
L 2880 1798 
L 1382 1798 
L 2125 4115 
z
M 2675 0 
L 4550 0 
L 4550 192 
L 3962 243 
L 2458 4698 
L 2099 4698 
L 621 256 
L 77 192 
L 77 0 
L 1510 0 
L 1510 192 
L 890 256 
L 1318 1594 
L 2950 1594 
L 3386 250 
L 2675 192 
L 2675 0 
z
" transform="scale(0.015625)"/>
        <path id="NotoSerifCJKjp-Regular-2a" d="M 339 4467 
L 998 4416 
C 1011 3782 1011 3142 1011 2502 
L 1011 2157 
C 1011 1510 1011 877 998 250 
L 339 192 
L 339 0 
L 2253 0 
L 2253 192 
L 1587 250 
C 1574 877 1574 1517 1574 2157 
L 1574 2502 
C 1574 3149 1574 3789 1587 4416 
L 2253 4467 
L 2253 4659 
L 339 4659 
L 339 4467 
z
" transform="scale(0.015625)"/>
        <path id="NotoSerifCJKjp-Regular-2b8b" d="M 2246 5357 
C 1926 4416 1203 3270 250 2573 
L 314 2490 
C 1440 3098 2240 4141 2650 5011 
C 2810 4998 2867 5030 2893 5107 
L 2246 5357 
z
M 3891 5376 
L 3782 5318 
C 4141 4186 4947 3213 5818 2637 
C 5894 2842 6035 2957 6208 2970 
L 6227 3040 
C 5312 3488 4294 4384 3891 5376 
z
M 1146 2842 
L 1203 2656 
L 2547 2656 
C 2490 1709 2234 563 506 -390 
L 589 -493 
C 2566 397 2899 1600 3008 2656 
L 4570 2656 
C 4493 1382 4339 339 4122 147 
C 4051 83 3987 70 3853 70 
C 3699 70 3130 122 2797 154 
L 2790 38 
C 3085 0 3418 -77 3533 -147 
C 3629 -211 3667 -333 3661 -461 
C 3981 -461 4237 -378 4416 -205 
C 4730 83 4915 1190 4992 2605 
C 5126 2618 5210 2656 5254 2701 
L 4762 3110 
L 4512 2842 
L 1146 2842 
z
" transform="scale(0.015625)"/>
       </defs>
       <use xlink:href="#NotoSerifCJKjp-Regular-31"/>
       <use xlink:href="#NotoSerifCJKjp-Regular-42" transform="translate(63.59375 0)"/>
       <use xlink:href="#NotoSerifCJKjp-Regular-4f" transform="translate(118.890625 0)"/>
       <use xlink:href="#NotoSerifCJKjp-Regular-48" transform="translate(184.984375 0)"/>
       <use xlink:href="#NotoSerifCJKjp-Regular-53" transform="translate(241.578125 0)"/>
       <use xlink:href="#NotoSerifCJKjp-Regular-42" transform="translate(286.78125 0)"/>
       <use xlink:href="#NotoSerifCJKjp-Regular-4e" transform="translate(342.078125 0)"/>
       <use xlink:href="#NotoSerifCJKjp-Regular-1" transform="translate(439.484375 0)"/>
       <use xlink:href="#NotoSerifCJKjp-Regular-2bb3" transform="translate(465.078125 0)"/>
       <use xlink:href="#NotoSerifCJKjp-Regular-1" transform="translate(565.078125 0)"/>
       <use xlink:href="#NotoSerifCJKjp-Regular-12" transform="translate(590.671875 0)"/>
       <use xlink:href="#NotoSerifCJKjp-Regular-11" transform="translate(637.765625 0)"/>
       <use xlink:href="#NotoSerifCJKjp-Regular-11" transform="translate(693.46875 0)"/>
       <use xlink:href="#NotoSerifCJKjp-Regular-6" transform="translate(749.171875 0)"/>
       <use xlink:href="#NotoSerifCJKjp-Regular-1" transform="translate(841.46875 0)"/>
       <use xlink:href="#NotoSerifCJKjp-Regular-22" transform="translate(867.0625 0)"/>
       <use xlink:href="#NotoSerifCJKjp-Regular-2a" transform="translate(937.859375 0)"/>
       <use xlink:href="#NotoSerifCJKjp-Regular-1" transform="translate(978.359375 0)"/>
       <use xlink:href="#NotoSerifCJKjp-Regular-2b8b" transform="translate(1003.953125 0)"/>
      </g>
     </g>
    </g>
    <g id="ytick_3">
     <g id="line2d_15">
      <g>
       <use xlink:href="#m292b41863e" x="125.851719" y="85.869334" style="fill: #333333; stroke: #333333; stroke-width: 0.8"/>
      </g>
     </g>
     <g id="text_9">
      <!-- 直接桌拒 -->
      <g style="fill: #333333" transform="translate(80.851719 90.049334) scale(0.095 -0.095)">
       <defs>
        <path id="NotoSerifCJKjp-Regular-6c6a" d="M 774 3552 
L 774 -493 
L 858 -493 
C 1018 -493 1190 -397 1190 -339 
L 1190 -90 
L 5984 -90 
C 6080 -90 6144 -58 6163 13 
C 5926 224 5555 506 5555 506 
L 5222 102 
L 1190 102 
L 1190 3302 
C 1350 3322 1408 3392 1427 3482 
L 774 3552 
z
M 2074 3648 
L 2074 486 
L 2138 486 
C 2317 486 2477 589 2477 640 
L 2477 813 
L 4614 813 
L 4614 525 
L 4678 525 
C 4826 525 5024 634 5030 678 
L 5030 3386 
C 5158 3411 5261 3462 5306 3514 
L 4787 3910 
L 4550 3648 
L 3386 3648 
L 3443 4339 
L 5837 4339 
C 5926 4339 5997 4371 6016 4442 
C 5779 4646 5402 4934 5402 4934 
L 5069 4518 
L 3462 4518 
L 3514 5133 
C 3642 5158 3712 5222 3725 5312 
L 3078 5363 
L 3046 4518 
L 371 4518 
L 429 4339 
L 3040 4339 
L 3002 3648 
L 2515 3648 
L 2074 3859 
L 2074 3648 
z
M 4614 3462 
L 4614 2778 
L 2477 2778 
L 2477 3462 
L 4614 3462 
z
M 2477 1005 
L 2477 1715 
L 4614 1715 
L 4614 1005 
L 2477 1005 
z
M 2477 1907 
L 2477 2598 
L 4614 2598 
L 4614 1907 
L 2477 1907 
z
" transform="scale(0.015625)"/>
        <path id="NotoSerifCJKjp-Regular-4ace" d="M 3002 4371 
L 2918 4339 
C 3072 4058 3232 3622 3232 3270 
C 3622 2906 4083 3738 3002 4371 
z
M 3827 5325 
L 3827 4614 
L 2272 4614 
L 2323 4429 
L 5907 4429 
C 5997 4429 6054 4461 6074 4525 
C 5875 4717 5555 4966 5555 4966 
L 5274 4614 
L 4237 4614 
L 4237 5094 
C 4384 5120 4442 5178 4448 5261 
L 3827 5325 
z
M 4736 4390 
C 4640 4000 4480 3488 4326 3098 
L 2067 3098 
L 2118 2912 
L 6003 2912 
C 6093 2912 6163 2944 6176 3014 
C 5965 3206 5626 3469 5626 3469 
L 5325 3098 
L 4493 3098 
C 4749 3411 5005 3789 5165 4083 
C 5306 4083 5376 4147 5395 4224 
L 4736 4390 
z
M 3539 2880 
C 3469 2682 3341 2381 3194 2054 
L 2029 2054 
L 2080 1869 
L 3104 1869 
C 2893 1421 2656 966 2477 698 
C 2637 627 2816 614 2912 653 
L 3059 922 
C 3398 806 3718 672 4006 538 
C 3539 102 2854 -179 1888 -384 
L 1920 -499 
C 3066 -346 3834 -77 4352 358 
C 4890 77 5299 -224 5523 -461 
C 5958 -634 6157 64 4634 646 
C 4909 973 5094 1376 5222 1869 
L 5997 1869 
C 6086 1869 6150 1901 6170 1971 
C 5952 2170 5606 2432 5606 2432 
L 5306 2054 
L 3635 2054 
L 3891 2618 
C 4051 2618 4122 2675 4147 2765 
L 3539 2880 
z
M 3539 1869 
L 4755 1869 
C 4646 1434 4480 1082 4237 781 
C 3923 877 3558 966 3123 1043 
L 3539 1869 
z
M 160 2022 
L 390 1491 
C 454 1510 506 1568 525 1651 
L 1158 1965 
L 1158 147 
C 1158 51 1126 19 1018 19 
C 909 19 352 58 352 58 
L 352 -45 
C 602 -77 736 -122 826 -192 
C 902 -256 934 -371 954 -499 
C 1498 -435 1555 -230 1555 109 
L 1555 2176 
L 2438 2650 
L 2406 2739 
L 1555 2451 
L 1555 3712 
L 2272 3712 
C 2362 3712 2413 3744 2432 3814 
C 2259 4006 1965 4262 1965 4262 
L 1702 3898 
L 1555 3898 
L 1555 5120 
C 1709 5139 1773 5203 1792 5293 
L 1158 5363 
L 1158 3898 
L 262 3898 
L 314 3712 
L 1158 3712 
L 1158 2323 
C 723 2182 365 2067 160 2022 
z
" transform="scale(0.015625)"/>
        <path id="NotoSerifCJKjp-Regular-529b" d="M 2976 2042 
L 2976 1427 
L 288 1427 
L 346 1235 
L 2451 1235 
C 1926 621 1107 70 205 -288 
L 256 -397 
C 1370 -70 2349 454 2976 1158 
L 2976 -499 
L 3059 -499 
C 3219 -499 3405 -410 3405 -365 
L 3405 1235 
L 3450 1235 
C 3987 474 4883 -102 5824 -403 
C 5875 -198 6016 -64 6195 -32 
L 6202 38 
C 5286 218 4243 659 3642 1235 
L 5939 1235 
C 6029 1235 6093 1267 6112 1338 
C 5882 1536 5517 1818 5517 1818 
L 5197 1427 
L 3405 1427 
L 3405 1805 
C 3571 1830 3629 1888 3642 1971 
L 2976 2042 
z
M 1248 4045 
L 1248 1760 
L 1312 1760 
C 1485 1760 1658 1862 1658 1901 
L 1658 2093 
L 4710 2093 
L 4710 1882 
L 4781 1882 
C 4915 1882 5126 1978 5133 2016 
L 5133 3782 
C 5261 3808 5363 3859 5402 3910 
L 4883 4307 
L 4646 4045 
L 3347 4045 
L 3347 4576 
L 5581 4576 
C 5677 4576 5734 4608 5747 4678 
C 5530 4883 5171 5158 5171 5158 
L 4851 4768 
L 3347 4768 
L 3347 5133 
C 3488 5158 3546 5216 3558 5299 
L 2925 5363 
L 2925 4045 
L 1702 4045 
L 1248 4256 
L 1248 4045 
z
M 4710 3866 
L 4710 3181 
L 1658 3181 
L 1658 3866 
L 4710 3866 
z
M 1658 2285 
L 1658 2989 
L 4710 2989 
L 4710 2285 
L 1658 2285 
z
" transform="scale(0.015625)"/>
        <path id="NotoSerifCJKjp-Regular-498f" d="M 2624 4883 
L 2624 -480 
L 2688 -480 
C 2893 -480 3034 -365 3034 -333 
L 3034 -6 
L 5971 -6 
C 6061 -6 6125 26 6144 96 
C 5926 288 5581 570 5581 570 
L 5280 179 
L 3034 179 
L 3034 1658 
L 5126 1658 
L 5126 1235 
L 5190 1235 
C 5331 1235 5536 1338 5542 1376 
L 5542 3206 
C 5677 3232 5786 3290 5824 3341 
L 5299 3744 
L 5062 3482 
L 3034 3482 
L 3034 4704 
L 5882 4704 
C 5971 4704 6035 4736 6054 4806 
C 5837 4998 5498 5267 5498 5267 
L 5197 4883 
L 3123 4883 
L 2624 5101 
L 2624 4883 
z
M 3034 1843 
L 3034 3296 
L 5126 3296 
L 5126 1843 
L 3034 1843 
z
M 166 2003 
L 378 1459 
C 435 1485 493 1536 512 1619 
L 1184 1946 
L 1184 154 
C 1184 58 1158 26 1043 26 
C 934 26 371 64 371 64 
L 371 -38 
C 627 -70 762 -115 851 -186 
C 928 -256 960 -371 979 -499 
C 1530 -435 1587 -230 1587 115 
L 1587 2157 
L 2541 2650 
L 2509 2746 
L 1587 2438 
L 1587 3712 
L 2362 3712 
C 2445 3712 2502 3744 2522 3814 
C 2349 4006 2042 4256 2042 4256 
L 1779 3898 
L 1587 3898 
L 1587 5120 
C 1747 5139 1811 5203 1824 5293 
L 1184 5363 
L 1184 3898 
L 262 3898 
L 314 3712 
L 1184 3712 
L 1184 2304 
C 736 2163 371 2048 166 2003 
z
" transform="scale(0.015625)"/>
       </defs>
       <use xlink:href="#NotoSerifCJKjp-Regular-6c6a"/>
       <use xlink:href="#NotoSerifCJKjp-Regular-4ace" transform="translate(100 0)"/>
       <use xlink:href="#NotoSerifCJKjp-Regular-529b" transform="translate(200 0)"/>
       <use xlink:href="#NotoSerifCJKjp-Regular-498f" transform="translate(300 0)"/>
      </g>
     </g>
    </g>
    <g id="ytick_4">
     <g id="line2d_16">
      <g>
       <use xlink:href="#m292b41863e" x="125.851719" y="31.708003" style="fill: #333333; stroke: #333333; stroke-width: 0.8"/>
      </g>
     </g>
     <g id="text_10">
      <!-- 缓刑·须 6·15 前自证是人写 -->
      <g style="fill: #333333" transform="translate(7.2 35.888003) scale(0.095 -0.095)">
       <defs>
        <path id="NotoSerifCJKjp-Regular-7bb7" d="M 5722 4915 
L 5248 5382 
C 4576 5139 3296 4870 2234 4781 
L 2253 4666 
C 3360 4659 4595 4774 5395 4928 
C 5549 4864 5664 4864 5722 4915 
z
M 2637 4493 
L 2560 4454 
C 2746 4218 2982 3834 3046 3546 
C 3411 3264 3750 3994 2637 4493 
z
M 3667 4653 
L 3590 4614 
C 3770 4358 3962 3949 3994 3622 
C 4352 3302 4755 4070 3667 4653 
z
M 346 442 
L 646 -96 
C 710 -70 755 -6 774 70 
C 1472 442 1997 768 2374 1005 
L 2336 1088 
C 1542 806 723 538 346 442 
z
M 1875 5101 
L 1274 5357 
C 1133 4877 742 3968 410 3584 
C 371 3558 262 3526 262 3526 
L 474 2982 
C 512 2995 550 3027 582 3066 
C 896 3162 1210 3270 1453 3360 
C 1158 2835 794 2285 486 1971 
C 442 1933 314 1914 314 1914 
L 531 1344 
C 595 1363 659 1421 704 1504 
C 1312 1702 1882 1920 2195 2035 
L 2182 2131 
C 1658 2054 1126 1978 755 1933 
C 1306 2496 1907 3302 2221 3866 
C 2349 3840 2432 3891 2464 3949 
L 1894 4269 
C 1818 4070 1696 3821 1555 3552 
C 1203 3520 851 3501 595 3488 
C 986 3910 1408 4544 1645 4998 
C 1779 4986 1856 5043 1875 5101 
z
M 5350 3750 
L 5056 3398 
L 4762 3398 
C 4998 3686 5254 4058 5466 4397 
C 5594 4384 5670 4442 5702 4506 
L 5094 4736 
C 4941 4262 4736 3744 4576 3398 
L 2253 3398 
L 2304 3213 
L 3270 3213 
C 3251 2995 3219 2778 3174 2566 
L 2022 2566 
L 2074 2374 
L 3136 2374 
C 2906 1312 2432 365 1600 -378 
L 1670 -461 
C 2477 96 3002 806 3328 1645 
C 3514 1178 3770 800 4102 480 
C 3642 109 3046 -179 2330 -384 
L 2374 -493 
C 3181 -333 3821 -70 4326 282 
C 4749 -51 5261 -294 5856 -474 
C 5920 -269 6042 -141 6221 -115 
L 6234 -38 
C 5632 70 5088 250 4627 512 
C 4986 826 5261 1197 5466 1632 
C 5613 1632 5683 1645 5734 1702 
L 5286 2112 
L 5011 1862 
L 3405 1862 
C 3462 2029 3514 2202 3558 2374 
L 6022 2374 
C 6106 2374 6170 2406 6189 2477 
C 5984 2675 5651 2938 5651 2938 
L 5357 2566 
L 3603 2566 
C 3648 2778 3693 2989 3718 3213 
L 5709 3213 
C 5798 3213 5856 3245 5875 3315 
C 5670 3501 5350 3750 5350 3750 
z
M 3462 1677 
L 5011 1677 
C 4851 1306 4627 979 4339 698 
C 3968 954 3667 1280 3462 1677 
z
" transform="scale(0.015625)"/>
        <path id="NotoSerifCJKjp-Regular-2b9b" d="M 4141 4806 
L 4141 800 
L 4218 800 
C 4371 800 4538 890 4538 947 
L 4538 4563 
C 4704 4582 4762 4646 4774 4736 
L 4141 4806 
z
M 5395 5248 
L 5395 179 
C 5395 77 5357 32 5229 32 
C 5094 32 4390 90 4390 90 
L 4390 -13 
C 4698 -58 4870 -102 4973 -173 
C 5062 -250 5101 -358 5126 -493 
C 5734 -429 5811 -211 5811 141 
L 5811 4998 
C 5965 5018 6029 5082 6048 5171 
L 5395 5248 
z
M 2605 4666 
L 2605 2790 
L 1542 2790 
L 1542 4666 
L 2605 4666 
z
M 224 2790 
L 269 2605 
L 1133 2605 
C 1133 1466 1030 403 218 -410 
L 301 -480 
C 1427 282 1542 1459 1542 2605 
L 2605 2605 
L 2605 -454 
L 2669 -454 
C 2880 -454 3014 -352 3014 -320 
L 3014 2605 
L 3846 2605 
C 3936 2605 4000 2637 4006 2707 
C 3827 2899 3507 3181 3507 3181 
L 3226 2790 
L 3014 2790 
L 3014 4666 
L 3712 4666 
C 3802 4666 3866 4698 3885 4768 
C 3680 4960 3341 5229 3341 5229 
L 3053 4851 
L 339 4851 
L 390 4666 
L 1133 4666 
L 1133 2790 
L 224 2790 
z
" transform="scale(0.015625)"/>
        <path id="NotoSerifCJKjp-Regular-75" d="M 1043 1920 
C 1267 1920 1440 2099 1440 2310 
C 1440 2528 1267 2707 1043 2707 
C 813 2707 653 2528 653 2310 
C 653 2099 813 1920 1043 1920 
z
" transform="scale(0.015625)"/>
        <path id="NotoSerifCJKjp-Regular-ac15" d="M 2790 2074 
L 2131 2336 
C 1741 1120 1146 301 224 -294 
L 282 -403 
C 1363 90 2061 851 2547 1984 
C 2707 1971 2758 1997 2790 2074 
z
M 2611 3520 
L 1997 3827 
C 1581 2950 979 2189 262 1632 
L 339 1523 
C 1165 1997 1869 2682 2368 3450 
C 2515 3430 2573 3450 2611 3520 
z
M 2528 5069 
L 1933 5395 
C 1523 4614 941 3859 294 3309 
L 378 3206 
C 1120 3674 1805 4333 2298 5005 
C 2432 4986 2490 4998 2528 5069 
z
M 4672 3238 
L 4019 3398 
C 4006 1235 3981 301 1965 -390 
L 2029 -512 
C 4358 102 4352 1120 4435 3104 
C 4576 3104 4646 3162 4672 3238 
z
M 4416 1043 
L 4352 979 
C 4838 640 5491 26 5709 -442 
C 6240 -723 6426 403 4416 1043 
z
M 5600 5344 
L 5286 4960 
L 2598 4960 
L 2650 4774 
L 3949 4774 
C 3917 4493 3866 4147 3821 3917 
L 3270 3917 
L 2835 4122 
L 2835 1037 
L 2906 1037 
C 3078 1037 3238 1133 3238 1171 
L 3238 3725 
L 5267 3725 
L 5267 1094 
L 5325 1094 
C 5459 1094 5658 1184 5664 1229 
L 5664 3674 
C 5773 3693 5869 3738 5907 3782 
L 5427 4160 
L 5210 3917 
L 4013 3917 
C 4160 4147 4320 4480 4454 4774 
L 5990 4774 
C 6080 4774 6144 4806 6163 4877 
C 5939 5075 5600 5344 5600 5344 
z
" transform="scale(0.015625)"/>
        <path id="NotoSerifCJKjp-Regular-16" d="M 1574 -96 
C 2573 -96 3213 499 3213 1408 
C 3213 2317 2624 2803 1709 2803 
C 1421 2803 1158 2765 902 2656 
L 1005 4211 
L 3091 4211 
L 3091 4659 
L 800 4659 
L 653 2458 
L 813 2394 
C 1037 2496 1286 2547 1562 2547 
C 2221 2547 2650 2176 2650 1382 
C 2650 563 2234 102 1498 102 
C 1293 102 1146 134 998 198 
L 845 691 
C 794 928 710 1005 550 1005 
C 429 1005 326 941 282 819 
C 397 230 883 -96 1574 -96 
z
" transform="scale(0.015625)"/>
        <path id="NotoSerifCJKjp-Regular-2bed" d="M 3763 3405 
L 3763 461 
L 3840 461 
C 3994 461 4160 550 4160 602 
L 4160 3168 
C 4326 3187 4384 3245 4397 3334 
L 3763 3405 
z
M 5139 3558 
L 5139 128 
C 5139 32 5107 -6 4986 -6 
C 4845 -6 4186 45 4186 45 
L 4186 -58 
C 4474 -96 4640 -141 4736 -205 
C 4819 -275 4858 -378 4877 -493 
C 5472 -435 5542 -230 5542 102 
L 5542 3315 
C 5696 3334 5754 3392 5766 3488 
L 5139 3558 
z
M 1587 5344 
L 1517 5299 
C 1805 5037 2131 4595 2195 4230 
C 2253 4192 2310 4166 2362 4166 
L 256 4166 
L 314 3981 
L 5978 3981 
C 6067 3981 6131 4013 6150 4077 
C 5920 4282 5562 4563 5562 4563 
L 5242 4166 
L 3853 4166 
C 4166 4448 4493 4787 4698 5050 
C 4845 5043 4922 5094 4947 5165 
L 4275 5363 
C 4128 5005 3885 4531 3661 4166 
L 2387 4166 
C 2726 4179 2803 4966 1587 5344 
z
M 2490 3130 
L 2490 2355 
L 1248 2355 
L 1248 3130 
L 2490 3130 
z
M 845 3315 
L 845 -493 
L 915 -493 
C 1094 -493 1248 -397 1248 -346 
L 1248 1158 
L 2490 1158 
L 2490 115 
C 2490 32 2464 -6 2368 -6 
C 2259 -6 1792 26 1792 26 
L 1792 -70 
C 2010 -102 2131 -147 2208 -205 
C 2278 -275 2298 -371 2310 -493 
C 2829 -442 2893 -250 2893 70 
L 2893 3053 
C 3021 3072 3130 3130 3174 3174 
L 2637 3578 
L 2426 3315 
L 1280 3315 
L 845 3526 
L 845 3315 
z
M 2490 2163 
L 2490 1344 
L 1248 1344 
L 1248 2163 
L 2490 2163 
z
" transform="scale(0.015625)"/>
        <path id="NotoSerifCJKjp-Regular-817e" d="M 4755 4102 
L 4755 2938 
L 1709 2938 
L 1709 4102 
L 4755 4102 
z
M 2938 5363 
C 2886 5043 2790 4621 2688 4294 
L 1754 4294 
L 1293 4506 
L 1293 -486 
L 1370 -486 
C 1549 -486 1709 -378 1709 -326 
L 1709 -45 
L 4755 -45 
L 4755 -480 
L 4813 -480 
C 4966 -480 5171 -365 5184 -314 
L 5184 4013 
C 5312 4045 5414 4096 5459 4147 
L 4928 4570 
L 4685 4294 
L 2886 4294 
C 3104 4550 3309 4851 3437 5088 
C 3578 5094 3654 5158 3674 5235 
L 2938 5363 
z
M 1709 2752 
L 4755 2752 
L 4755 1549 
L 1709 1549 
L 1709 2752 
z
M 1709 1370 
L 4755 1370 
L 4755 141 
L 1709 141 
L 1709 1370 
z
" transform="scale(0.015625)"/>
        <path id="NotoSerifCJKjp-Regular-964c" d="M 717 5318 
L 640 5274 
C 915 4986 1267 4506 1363 4147 
C 1798 3846 2106 4736 717 5318 
z
M 1491 3398 
C 1619 3424 1702 3475 1728 3520 
L 1312 3872 
L 1101 3648 
L 192 3648 
L 250 3456 
L 1094 3456 
L 1094 621 
C 1094 499 1062 461 858 358 
L 1139 -160 
C 1197 -128 1274 -51 1312 70 
C 1798 550 2246 1037 2483 1280 
L 2426 1363 
L 1491 698 
L 1491 3398 
z
M 5587 442 
L 5286 45 
L 4358 45 
L 4358 2323 
L 5792 2323 
C 5882 2323 5952 2355 5965 2426 
C 5760 2624 5421 2886 5421 2886 
L 5133 2515 
L 4358 2515 
L 4358 4563 
L 5882 4563 
C 5965 4563 6029 4595 6048 4666 
C 5843 4858 5504 5126 5504 5126 
L 5210 4749 
L 2227 4749 
L 2278 4563 
L 3942 4563 
L 3942 45 
L 3014 45 
L 3014 3034 
C 3174 3059 3238 3123 3251 3213 
L 2611 3283 
L 2611 45 
L 1754 45 
L 1805 -141 
L 5984 -141 
C 6080 -141 6144 -109 6157 -38 
C 5939 160 5587 442 5587 442 
z
" transform="scale(0.015625)"/>
        <path id="NotoSerifCJKjp-Regular-4f52" d="M 4595 3942 
L 4595 3226 
L 1856 3226 
L 1856 3942 
L 4595 3942 
z
M 4595 4128 
L 1856 4128 
L 1856 4826 
L 4595 4826 
L 4595 4128 
z
M 1427 5011 
L 1427 2701 
L 1491 2701 
C 1664 2701 1856 2790 1856 2835 
L 1856 3040 
L 4595 3040 
L 4595 2758 
L 4666 2758 
C 4806 2758 5018 2854 5024 2893 
L 5024 4742 
C 5158 4768 5261 4819 5299 4870 
L 4774 5274 
L 4531 5011 
L 1888 5011 
L 1427 5222 
L 1427 5011 
z
M 1709 1971 
C 1530 1133 1101 166 230 -422 
L 294 -499 
C 1005 -154 1478 352 1786 890 
C 2221 -128 2867 -346 4045 -346 
C 4506 -346 5510 -346 5920 -346 
C 5933 -186 6016 -64 6170 -38 
L 6170 51 
C 5670 38 4544 38 4064 38 
C 3834 38 3616 45 3424 58 
L 3424 1216 
L 5376 1216 
C 5466 1216 5530 1248 5549 1318 
C 5331 1523 4979 1798 4979 1798 
L 4672 1402 
L 3424 1402 
L 3424 2291 
L 5939 2291 
C 6029 2291 6086 2323 6106 2387 
C 5888 2592 5536 2867 5536 2867 
L 5229 2477 
L 294 2477 
L 352 2291 
L 2995 2291 
L 2995 122 
C 2483 230 2125 480 1856 1024 
C 1971 1242 2061 1466 2125 1683 
C 2266 1677 2342 1728 2374 1811 
L 1709 1971 
z
" transform="scale(0.015625)"/>
        <path id="NotoSerifCJKjp-Regular-2633" d="M 3251 4979 
C 3411 4998 3462 5062 3475 5158 
L 2797 5229 
C 2790 3270 2810 1197 262 -384 
L 352 -493 
C 2630 691 3091 2310 3206 3859 
C 3405 1952 3981 461 5702 -493 
C 5773 -250 5933 -160 6163 -134 
L 6176 -64 
C 3962 960 3392 2624 3251 4979 
z
" transform="scale(0.015625)"/>
        <path id="NotoSerifCJKjp-Regular-2ae1" d="M 1030 5178 
C 1062 4723 838 4294 589 4134 
C 454 4051 371 3904 442 3770 
C 518 3616 755 3642 909 3763 
C 1094 3917 1267 4230 1235 4698 
L 5338 4698 
C 5242 4435 5107 4102 4998 3891 
L 5075 3846 
C 5338 4038 5690 4371 5875 4608 
C 6003 4621 6080 4627 6125 4678 
L 5613 5171 
L 5325 4883 
L 1210 4883 
C 1197 4979 1171 5075 1139 5178 
L 1030 5178 
z
M 2067 4435 
C 1984 3859 1651 2541 1440 1984 
C 1619 1926 1792 1933 1888 1990 
L 1990 2342 
L 4339 2342 
C 4314 1997 4275 1677 4230 1389 
L 288 1389 
L 346 1197 
L 4205 1197 
C 4109 621 3981 218 3840 96 
C 3763 38 3699 26 3565 26 
C 3418 26 2867 70 2554 102 
L 2554 -13 
C 2822 -51 3130 -122 3238 -186 
C 3341 -262 3373 -378 3373 -493 
C 3667 -493 3923 -416 4109 -256 
C 4333 -64 4506 467 4627 1197 
L 5958 1197 
C 6048 1197 6112 1229 6125 1299 
C 5907 1510 5555 1786 5555 1786 
L 5235 1389 
L 4659 1389 
C 4698 1664 4730 1965 4755 2285 
C 4890 2304 4960 2330 5011 2381 
L 4531 2784 
L 4288 2522 
L 2042 2522 
L 2272 3386 
L 5005 3386 
C 5094 3386 5158 3418 5178 3488 
C 4960 3680 4627 3942 4627 3942 
L 4333 3578 
L 2317 3578 
L 2458 4179 
C 2618 4198 2682 4262 2694 4346 
L 2067 4435 
z
" transform="scale(0.015625)"/>
       </defs>
       <use xlink:href="#NotoSerifCJKjp-Regular-7bb7"/>
       <use xlink:href="#NotoSerifCJKjp-Regular-2b9b" transform="translate(100 0)"/>
       <use xlink:href="#NotoSerifCJKjp-Regular-75" transform="translate(200 0)"/>
       <use xlink:href="#NotoSerifCJKjp-Regular-ac15" transform="translate(232.703125 0)"/>
       <use xlink:href="#NotoSerifCJKjp-Regular-1" transform="translate(332.703125 0)"/>
       <use xlink:href="#NotoSerifCJKjp-Regular-17" transform="translate(358.296875 0)"/>
       <use xlink:href="#NotoSerifCJKjp-Regular-75" transform="translate(414.09375 0)"/>
       <use xlink:href="#NotoSerifCJKjp-Regular-12" transform="translate(446.796875 0)"/>
       <use xlink:href="#NotoSerifCJKjp-Regular-16" transform="translate(493.890625 0)"/>
       <use xlink:href="#NotoSerifCJKjp-Regular-1" transform="translate(549.6875 0)"/>
       <use xlink:href="#NotoSerifCJKjp-Regular-2bed" transform="translate(575.28125 0)"/>
       <use xlink:href="#NotoSerifCJKjp-Regular-817e" transform="translate(675.28125 0)"/>
       <use xlink:href="#NotoSerifCJKjp-Regular-964c" transform="translate(775.28125 0)"/>
       <use xlink:href="#NotoSerifCJKjp-Regular-4f52" transform="translate(875.28125 0)"/>
       <use xlink:href="#NotoSerifCJKjp-Regular-2633" transform="translate(975.28125 0)"/>
       <use xlink:href="#NotoSerifCJKjp-Regular-2ae1" transform="translate(1075.28125 0)"/>
      </g>
     </g>
    </g>
   </g>
   <g id="line2d_17">
    <path d="M 125.851719 218.7 
L 125.851719 7.2 
" clip-path="url(#p416152c64b)" style="fill: none; stroke: #cccccc; stroke-width: 0.8; stroke-linecap: square"/>
   </g>
   <g id="patch_3">
    <path d="M 125.851719 218.7 
L 633.02481 218.7 
" style="fill: none; stroke: #000000; stroke-width: 0.8; stroke-linejoin: miter; stroke-linecap: square"/>
   </g>
   <g id="patch_4">
    <path d="M 125.851719 209.086364 
L 608.873711 209.086364 
L 608.873711 179.297631 
L 125.851719 179.297631 
z
" clip-path="url(#p416152c64b)" style="fill: #1a56db"/>
   </g>
   <g id="patch_5">
    <path d="M 125.851719 154.925032 
L 261.935314 154.925032 
L 261.935314 125.1363 
L 125.851719 125.1363 
z
" clip-path="url(#p416152c64b)" style="fill: #1a56db"/>
   </g>
   <g id="patch_6">
    <path d="M 125.851719 100.7637 
L 214.580217 100.7637 
L 214.580217 70.974968 
L 125.851719 70.974968 
z
" clip-path="url(#p416152c64b)" style="fill: #1a56db"/>
   </g>
   <g id="patch_7">
    <path d="M 125.851719 46.602369 
L 187.164108 46.602369 
L 187.164108 16.813636 
L 125.851719 16.813636 
z
" clip-path="url(#p416152c64b)" style="fill: #1a56db"/>
   </g>
   <g id="text_11">
    <!-- 969 -->
    <g style="fill: #333333" transform="translate(608.923558 197.801997) scale(0.095 -0.095)">
     <defs>
      <path id="NotoSerifCJKjp-Bold-1a" d="M 678 -122 
C 2426 243 3520 1376 3520 2854 
C 3520 4096 2906 4845 1862 4845 
C 998 4845 282 4294 282 3270 
C 282 2381 870 1862 1683 1862 
C 2054 1862 2362 1971 2573 2150 
C 2387 1114 1779 448 640 58 
L 678 -122 
z
M 2611 2362 
C 2438 2214 2246 2144 2016 2144 
C 1485 2144 1133 2605 1133 3379 
C 1133 4237 1472 4634 1882 4634 
C 2323 4634 2643 4173 2643 2957 
C 2643 2746 2630 2547 2611 2362 
z
" transform="scale(0.015625)"/>
      <path id="NotoSerifCJKjp-Bold-17" d="M 1971 -102 
C 2918 -102 3526 563 3526 1453 
C 3526 2304 3066 2886 2253 2886 
C 1837 2886 1485 2746 1203 2464 
C 1363 3565 2080 4410 3315 4691 
L 3283 4845 
C 1485 4666 288 3366 288 1824 
C 288 621 941 -102 1971 -102 
z
M 1184 2253 
C 1414 2477 1664 2560 1926 2560 
C 2413 2560 2682 2150 2682 1382 
C 2682 512 2374 109 1978 109 
C 1485 109 1171 710 1171 1984 
L 1184 2253 
z
" transform="scale(0.015625)"/>
     </defs>
     <use xlink:href="#NotoSerifCJKjp-Bold-1a"/>
     <use xlink:href="#NotoSerifCJKjp-Bold-17" transform="translate(59.59375 0)"/>
     <use xlink:href="#NotoSerifCJKjp-Bold-1a" transform="translate(119 0)"/>
    </g>
   </g>
   <g id="text_12">
    <!-- 273 -->
    <g style="fill: #333333" transform="translate(261.985161 143.640666) scale(0.095 -0.095)">
     <defs>
      <path id="NotoSerifCJKjp-Bold-13" d="M 390 0 
L 3482 0 
L 3482 672 
L 845 672 
C 1178 986 1504 1293 1702 1466 
C 2816 2426 3341 2912 3341 3571 
C 3341 4326 2880 4845 1920 4845 
C 1139 4845 442 4461 378 3738 
C 442 3590 582 3488 742 3488 
C 922 3488 1101 3584 1165 3955 
L 1306 4589 
C 1414 4621 1523 4634 1632 4634 
C 2157 4634 2464 4262 2464 3616 
C 2464 2963 2163 2534 1472 1734 
C 1158 1370 781 934 390 499 
L 390 0 
z
" transform="scale(0.015625)"/>
      <path id="NotoSerifCJKjp-Bold-18" d="M 954 0 
L 1670 0 
L 3341 4314 
L 3341 4742 
L 371 4742 
L 371 4064 
L 2970 4064 
L 896 58 
L 954 0 
z
" transform="scale(0.015625)"/>
      <path id="NotoSerifCJKjp-Bold-14" d="M 1754 -102 
C 2778 -102 3437 422 3437 1210 
C 3437 1882 3072 2362 2125 2496 
C 2950 2675 3290 3142 3290 3712 
C 3290 4378 2810 4845 1869 4845 
C 1146 4845 512 4538 461 3821 
C 518 3699 634 3635 774 3635 
C 979 3635 1146 3731 1203 4019 
L 1331 4602 
C 1434 4621 1530 4634 1626 4634 
C 2138 4634 2438 4301 2438 3680 
C 2438 2944 2035 2592 1453 2592 
L 1222 2592 
L 1222 2349 
L 1485 2349 
C 2176 2349 2541 1946 2541 1210 
C 2541 506 2163 109 1485 109 
C 1363 109 1261 122 1171 154 
L 1043 736 
C 986 1101 851 1216 634 1216 
C 480 1216 339 1133 275 954 
C 358 282 864 -102 1754 -102 
z
" transform="scale(0.015625)"/>
     </defs>
     <use xlink:href="#NotoSerifCJKjp-Bold-13"/>
     <use xlink:href="#NotoSerifCJKjp-Bold-18" transform="translate(59.40625 0)"/>
     <use xlink:href="#NotoSerifCJKjp-Bold-14" transform="translate(118.203125 0)"/>
    </g>
   </g>
   <g id="text_13">
    <!-- 178 -->
    <g style="fill: #333333" transform="translate(214.630064 89.479334) scale(0.095 -0.095)">
     <defs>
      <path id="NotoSerifCJKjp-Bold-12" d="M 365 0 
L 2765 -13 
L 2765 173 
L 2042 301 
C 2029 704 2022 1107 2022 1504 
L 2022 3712 
L 2048 4742 
L 1952 4813 
L 346 4435 
L 346 4218 
L 1158 4326 
L 1158 1504 
L 1146 301 
L 365 192 
L 365 0 
z
" transform="scale(0.015625)"/>
      <path id="NotoSerifCJKjp-Bold-19" d="M 1824 -102 
C 2867 -102 3462 416 3462 1216 
C 3462 1818 3117 2253 2342 2624 
C 3034 2931 3290 3328 3290 3750 
C 3290 4346 2842 4845 1926 4845 
C 1094 4845 461 4352 461 3590 
C 461 3014 762 2541 1408 2221 
C 717 1958 346 1568 346 1011 
C 346 358 838 -102 1824 -102 
z
M 2202 2694 
C 1370 3059 1184 3456 1184 3866 
C 1184 4333 1530 4627 1907 4627 
C 2355 4627 2605 4262 2605 3776 
C 2605 3334 2490 3008 2202 2694 
z
M 1562 2157 
C 2426 1773 2682 1389 2682 915 
C 2682 416 2400 109 1888 109 
C 1370 109 1062 448 1062 1114 
C 1062 1555 1203 1850 1562 2157 
z
" transform="scale(0.015625)"/>
     </defs>
     <use xlink:href="#NotoSerifCJKjp-Bold-12"/>
     <use xlink:href="#NotoSerifCJKjp-Bold-18" transform="translate(46.59375 0)"/>
     <use xlink:href="#NotoSerifCJKjp-Bold-19" transform="translate(105.390625 0)"/>
    </g>
   </g>
   <g id="text_14">
    <!-- 123 -->
    <g style="fill: #333333" transform="translate(187.213955 35.318003) scale(0.095 -0.095)">
     <use xlink:href="#NotoSerifCJKjp-Bold-12"/>
     <use xlink:href="#NotoSerifCJKjp-Bold-13" transform="translate(46.59375 0)"/>
     <use xlink:href="#NotoSerifCJKjp-Bold-14" transform="translate(106 0)"/>
    </g>
   </g>
  </g>
 </g>
 <defs>
  <clipPath id="p416152c64b">
   <rect x="125.851719" y="7.2" width="507.173092" height="211.5"/>
  </clipPath>
 </defs>
</svg>
