<?xml version="1.0" encoding="utf-8" standalone="no"?>
<!DOCTYPE svg PUBLIC "-//W3C//DTD SVG 1.1//EN"
  "http://www.w3.org/Graphics/SVG/1.1/DTD/svg11.dtd">
<svg xmlns:xlink="http://www.w3.org/1999/xlink" width="638.397187pt" height="242.645pt" viewBox="0 0 638.397187 242.645" xmlns="http://www.w3.org/2000/svg" version="1.1">
 <metadata>
  <rdf:RDF xmlns:dc="http://purl.org/dc/elements/1.1/" xmlns:cc="http://creativecommons.org/ns#" xmlns:rdf="http://www.w3.org/1999/02/22-rdf-syntax-ns#">
   <cc:Work>
    <dc:type rdf:resource="http://purl.org/dc/dcmitype/StillImage"/>
    <dc:date>2026-06-14T13:01:07.720541</dc:date>
    <dc:format>image/svg+xml</dc:format>
    <dc:creator>
     <cc:Agent>
      <dc:title>Matplotlib v3.9.4, https://matplotlib.org/</dc:title>
     </cc:Agent>
    </dc:creator>
   </cc:Work>
  </rdf:RDF>
 </metadata>
 <defs>
  <style type="text/css">*{stroke-linejoin: round; stroke-linecap: butt}</style>
 </defs>
 <g id="figure_1">
  <g id="patch_1">
   <path d="M 0 242.645 
L 638.397187 242.645 
L 638.397187 0 
L 0 0 
z
" style="fill: #ffffff"/>
  </g>
  <g id="axes_1">
   <g id="patch_2">
    <path d="M 24.727187 219.068203 
L 631.197188 219.068203 
L 631.197188 16.158203 
L 24.727187 16.158203 
z
" style="fill: #fafafa"/>
   </g>
   <g id="matplotlib.axis_1">
    <g id="xtick_1">
     <g id="line2d_1">
      <defs>
       <path id="m8e3c4aa8c7" d="M 0 0 
L 0 3.5 
" style="stroke: #333333; stroke-width: 0.8"/>
      </defs>
      <g>
       <use xlink:href="#m8e3c4aa8c7" x="327.962188" y="219.068203" style="fill: #333333; stroke: #333333; stroke-width: 0.8"/>
      </g>
     </g>
     <g id="text_1">
      <!-- ["时间表", "硬截止 -->
      <g style="fill: #333333" transform="translate(290.887695 234.181797) scale(0.095 -0.095)">
       <defs>
        <path id="STHeitiTC-Medium-5b" d="M 2003 -672 
L 864 -672 
L 864 5370 
L 2003 5370 
L 2003 4838 
L 1389 4838 
L 1389 -154 
L 2003 -154 
L 2003 -672 
z
" transform="scale(0.015625)"/>
        <path id="STHeitiTC-Medium-22" d="M 1875 5504 
L 1798 3968 
L 1389 3968 
L 1318 5504 
L 1875 5504 
z
M 659 5504 
L 589 3968 
L 173 3968 
L 102 5504 
L 659 5504 
z
" transform="scale(0.015625)"/>
        <path id="STHeitiTC-Medium-65f6" d="M 3488 1306 
Q 3450 1446 3398 1606 
Q 3347 1766 3289 1926 
Q 3232 2086 3171 2236 
Q 3110 2387 3053 2515 
L 3571 2694 
Q 3597 2560 3648 2406 
Q 3699 2253 3763 2096 
Q 3827 1939 3904 1788 
Q 3981 1638 4058 1510 
L 3488 1306 
z
M 4666 3731 
Q 4666 4301 4650 4646 
Q 4634 4992 4595 5197 
Q 4749 5178 4928 5168 
Q 5107 5158 5216 5165 
Q 5318 5171 5340 5136 
Q 5363 5101 5306 5069 
Q 5235 5030 5212 4969 
Q 5190 4909 5190 4819 
L 5190 3738 
Q 5408 3744 5600 3757 
Q 5792 3770 5958 3782 
L 5958 3194 
Q 5798 3213 5606 3222 
Q 5414 3232 5190 3238 
L 5190 19 
Q 5190 -166 5155 -288 
Q 5120 -410 4998 -483 
Q 4877 -557 4653 -601 
Q 4429 -646 4045 -678 
Q 4006 -288 3776 6 
Q 4064 -13 4240 -9 
Q 4416 -6 4512 16 
Q 4608 38 4637 86 
Q 4666 134 4666 211 
L 4666 3245 
L 3891 3245 
Q 3533 3245 3225 3232 
Q 2918 3219 2682 3194 
L 2682 3782 
Q 2912 3757 3225 3744 
Q 3539 3731 3891 3731 
L 4666 3731 
z
M 2010 4090 
L 979 4090 
L 979 2765 
L 2010 2765 
L 2010 4090 
z
M 2010 2317 
L 979 2317 
L 979 998 
L 2010 998 
L 2010 2317 
z
M 979 -288 
L 442 -288 
Q 474 -26 480 176 
Q 486 378 486 563 
L 486 3885 
Q 486 4051 480 4249 
Q 474 4448 448 4595 
Q 595 4563 835 4553 
Q 1075 4544 1498 4544 
Q 1914 4544 2157 4553 
Q 2400 4563 2541 4595 
Q 2515 4454 2508 4252 
Q 2502 4051 2502 3885 
L 2502 832 
Q 2502 608 2512 419 
Q 2522 230 2547 -13 
L 2010 -13 
L 2010 570 
L 979 570 
L 979 -288 
z
" transform="scale(0.015625)"/>
        <path id="STHeitiTC-Medium-95f4" d="M 1786 3898 
Q 1677 4186 1545 4410 
Q 1414 4634 1229 4851 
L 1741 5114 
Q 1926 4870 2064 4672 
Q 2202 4474 2342 4237 
L 1786 3898 
z
M 5715 4806 
Q 5702 4742 5699 4678 
Q 5696 4614 5693 4528 
Q 5690 4442 5690 4323 
Q 5690 4205 5690 4038 
L 5690 -51 
Q 5690 -256 5670 -371 
Q 5651 -486 5558 -553 
Q 5466 -621 5264 -659 
Q 5062 -698 4698 -742 
Q 4678 -576 4633 -432 
Q 4589 -288 4480 -96 
Q 4723 -128 4860 -134 
Q 4998 -141 5065 -112 
Q 5133 -83 5149 -9 
Q 5165 64 5165 198 
L 5165 4282 
L 3680 4282 
Q 3187 4282 2822 4243 
L 2822 4806 
Q 3206 4781 3539 4774 
Q 3872 4768 4275 4768 
Q 4672 4768 5024 4774 
Q 5376 4781 5715 4806 
z
M 4416 467 
Q 4326 474 4233 480 
Q 4141 486 4009 492 
Q 3878 499 3692 499 
Q 3507 499 3238 499 
Q 2970 499 2784 499 
Q 2598 499 2464 492 
Q 2330 486 2234 480 
Q 2138 474 2048 467 
Q 2061 525 2067 662 
Q 2074 800 2074 934 
L 2074 2950 
Q 2074 3078 2067 3216 
Q 2061 3354 2048 3411 
Q 2138 3398 2234 3395 
Q 2330 3392 2464 3385 
Q 2598 3379 2784 3379 
Q 2970 3379 3238 3379 
Q 3507 3379 3692 3379 
Q 3878 3379 4009 3385 
Q 4141 3392 4233 3395 
Q 4326 3398 4416 3411 
Q 4403 3354 4393 3216 
Q 4384 3078 4384 2950 
L 4384 934 
Q 4384 800 4393 662 
Q 4403 525 4416 467 
z
M 1318 3680 
Q 1280 3635 1280 3488 
L 1280 -678 
L 678 -678 
Q 710 -397 723 -137 
Q 736 122 736 448 
L 736 3117 
Q 736 3347 729 3536 
Q 723 3725 710 3898 
Q 877 3866 1001 3856 
Q 1126 3846 1229 3853 
Q 1472 3872 1318 3680 
z
M 3878 2970 
L 2573 2970 
L 2573 2176 
L 3878 2176 
L 3878 2970 
z
M 3878 1760 
L 2573 1760 
L 2573 934 
L 3878 934 
L 3878 1760 
z
" transform="scale(0.015625)"/>
        <path id="STHeitiTC-Medium-8868" d="M 4070 1062 
Q 4301 1203 4461 1308 
Q 4621 1414 4736 1510 
Q 4851 1606 4934 1692 
Q 5018 1779 5094 1882 
Q 5139 1843 5206 1788 
Q 5274 1734 5344 1683 
Q 5414 1632 5478 1587 
Q 5542 1542 5581 1517 
Q 5658 1466 5645 1430 
Q 5632 1395 5523 1402 
Q 5478 1402 5408 1382 
Q 5338 1363 5203 1296 
Q 5069 1229 4851 1110 
Q 4634 992 4288 794 
Q 4563 512 5004 291 
Q 5446 70 5997 19 
Q 5824 -115 5696 -294 
Q 5568 -474 5542 -589 
Q 5024 -403 4611 -124 
Q 4198 154 3891 550 
Q 3680 819 3510 1110 
Q 3341 1402 3181 1715 
L 3629 1946 
Q 3699 1754 3801 1539 
Q 3904 1325 4070 1062 
z
M 2989 3981 
Q 2573 3981 2243 3977 
Q 1914 3974 1638 3968 
Q 1363 3962 1126 3952 
Q 890 3942 666 3930 
L 666 4461 
Q 896 4448 1136 4438 
Q 1376 4429 1648 4425 
Q 1920 4422 2246 4419 
Q 2573 4416 2989 4416 
Q 2982 4672 2969 4861 
Q 2957 5050 2944 5152 
Q 3027 5139 3123 5126 
Q 3219 5114 3305 5107 
Q 3392 5101 3465 5097 
Q 3539 5094 3578 5094 
Q 3648 5101 3670 5072 
Q 3693 5043 3616 4986 
Q 3565 4954 3536 4848 
Q 3507 4742 3507 4653 
L 3507 4416 
Q 4262 4416 4841 4429 
Q 5421 4442 5843 4461 
L 5843 3930 
Q 5421 3955 4841 3968 
Q 4262 3981 3507 3981 
L 3507 3456 
Q 3866 3456 4134 3459 
Q 4403 3462 4624 3468 
Q 4845 3475 5037 3488 
Q 5229 3501 5440 3514 
L 5440 3008 
Q 5229 3021 5037 3030 
Q 4845 3040 4624 3043 
Q 4403 3046 4134 3049 
Q 3866 3053 3507 3053 
L 3507 2554 
Q 4045 2554 4397 2557 
Q 4749 2560 5011 2566 
Q 5274 2573 5510 2582 
Q 5747 2592 6054 2611 
L 6054 2099 
Q 5715 2112 5468 2121 
Q 5222 2131 4944 2134 
Q 4666 2138 4288 2141 
Q 3910 2144 3302 2144 
Q 3142 1920 2908 1677 
Q 2675 1434 2387 1190 
L 2387 -32 
L 3571 454 
Q 3552 173 3654 -19 
Q 3328 -141 3027 -259 
Q 2726 -378 2480 -483 
Q 2234 -589 2051 -675 
Q 1869 -762 1773 -813 
Q 1734 -685 1660 -544 
Q 1587 -403 1504 -301 
Q 1702 -269 1914 -205 
L 1914 838 
Q 1581 614 1254 438 
Q 928 262 704 173 
Q 621 378 541 499 
Q 461 621 339 723 
Q 634 768 950 893 
Q 1267 1018 1574 1200 
Q 1882 1382 2163 1622 
Q 2445 1862 2675 2144 
Q 2195 2144 1888 2141 
Q 1581 2138 1353 2134 
Q 1126 2131 924 2121 
Q 723 2112 448 2099 
L 448 2611 
Q 646 2598 806 2588 
Q 966 2579 1116 2572 
Q 1267 2566 1433 2563 
Q 1600 2560 1814 2557 
Q 2029 2554 2313 2554 
Q 2598 2554 2989 2554 
L 2989 3053 
Q 2643 3053 2374 3049 
Q 2106 3046 1882 3043 
Q 1658 3040 1459 3030 
Q 1261 3021 1056 3008 
L 1056 3514 
Q 1267 3501 1462 3488 
Q 1658 3475 1882 3468 
Q 2106 3462 2374 3459 
Q 2643 3456 2989 3456 
L 2989 3981 
z
" transform="scale(0.015625)"/>
        <path id="STHeitiTC-Medium-2c" d="M 1408 1414 
L 736 154 
L 346 320 
L 902 1658 
L 1408 1414 
z
" transform="scale(0.015625)"/>
        <path id="STHeitiTC-Medium-20" transform="scale(0.015625)"/>
        <path id="STHeitiTC-Medium-786c" d="M 1939 2650 
L 1344 2650 
L 1344 1158 
L 1939 1158 
L 1939 2650 
z
M 883 2099 
Q 800 1971 726 1862 
Q 653 1754 582 1664 
Q 518 1792 454 1897 
Q 390 2003 301 2093 
Q 666 2432 912 2976 
Q 1158 3520 1242 4160 
Q 774 4154 493 4096 
L 493 4653 
Q 678 4621 915 4608 
Q 1152 4595 1485 4595 
Q 1818 4595 2035 4608 
Q 2253 4621 2438 4653 
L 2438 4096 
Q 2291 4128 2121 4141 
Q 1952 4154 1722 4160 
Q 1683 3853 1606 3590 
Q 1530 3328 1427 3098 
Q 1805 3098 2045 3104 
Q 2285 3110 2432 3123 
Q 2400 3014 2390 2867 
Q 2381 2720 2381 2534 
L 2381 1088 
Q 2381 915 2390 732 
Q 2400 550 2426 333 
L 1939 333 
L 1939 723 
L 1344 723 
L 1344 -58 
L 813 -58 
Q 832 64 845 176 
Q 858 288 867 397 
Q 877 506 880 621 
Q 883 736 883 877 
L 883 2099 
z
M 4461 2528 
Q 4461 2342 4457 2182 
Q 4454 2022 4454 1882 
L 5203 1882 
L 5203 2528 
L 4461 2528 
z
M 3994 1882 
Q 4000 2022 4003 2182 
Q 4006 2342 4013 2528 
L 3219 2528 
L 3219 1882 
L 3994 1882 
z
M 4013 3456 
L 3219 3456 
L 3219 2874 
L 4013 2874 
L 4013 3456 
z
M 4461 2874 
L 5203 2874 
L 5203 3456 
L 4461 3456 
L 4461 2874 
z
M 4013 4384 
Q 3533 4384 3190 4371 
Q 2848 4358 2560 4326 
L 2560 4832 
Q 2720 4813 2896 4803 
Q 3072 4794 3277 4787 
Q 3482 4781 3722 4777 
Q 3962 4774 4250 4774 
Q 4845 4774 5245 4787 
Q 5645 4800 5965 4832 
L 5965 4326 
Q 5677 4358 5318 4371 
Q 4960 4384 4461 4384 
L 4461 3827 
Q 4730 3827 4918 3833 
Q 5107 3840 5248 3849 
Q 5389 3859 5497 3868 
Q 5606 3878 5709 3898 
Q 5677 3770 5667 3635 
Q 5658 3501 5658 3354 
L 5658 1997 
Q 5658 1779 5667 1673 
Q 5677 1568 5709 1459 
Q 5600 1472 5494 1485 
Q 5389 1498 5245 1504 
Q 5101 1510 4905 1516 
Q 4710 1523 4435 1523 
Q 4422 1331 4396 1184 
Q 4371 1037 4336 915 
Q 4301 794 4249 694 
Q 4198 595 4134 499 
Q 4346 384 4560 310 
Q 4774 237 5011 198 
Q 5248 160 5517 157 
Q 5786 154 6099 186 
Q 6016 26 5952 -137 
Q 5888 -301 5850 -467 
Q 5274 -435 4784 -300 
Q 4294 -166 3834 154 
Q 3565 -90 3241 -285 
Q 2918 -480 2650 -595 
Q 2579 -410 2492 -288 
Q 2406 -166 2298 -70 
Q 2598 0 2899 118 
Q 3200 237 3456 442 
Q 3251 627 3078 816 
Q 2906 1005 2790 1152 
L 3162 1395 
Q 3264 1222 3417 1056 
Q 3571 890 3757 742 
Q 3840 851 3891 1024 
Q 3942 1197 3974 1523 
Q 3706 1523 3514 1516 
Q 3322 1510 3181 1504 
Q 3040 1498 2937 1488 
Q 2835 1478 2739 1459 
Q 2765 1568 2774 1693 
Q 2784 1818 2784 1997 
L 2784 3354 
Q 2784 3494 2774 3635 
Q 2765 3776 2739 3898 
Q 2842 3878 2950 3868 
Q 3059 3859 3203 3849 
Q 3347 3840 3539 3833 
Q 3731 3827 4013 3827 
L 4013 4384 
z
" transform="scale(0.015625)"/>
        <path id="STHeitiTC-Medium-622a" d="M 5158 3987 
Q 5088 4211 5001 4390 
Q 4915 4570 4787 4742 
L 5261 4966 
Q 5357 4781 5469 4585 
Q 5581 4390 5683 4224 
L 5158 3987 
z
M 1446 384 
L 2253 384 
L 2253 826 
L 1446 826 
L 1446 384 
z
M 1446 1139 
L 2253 1139 
L 2253 1562 
L 1446 1562 
L 1446 1139 
z
M 1446 1882 
L 2253 1882 
L 2253 2304 
L 1446 2304 
L 1446 1882 
z
M 1018 1920 
Q 947 1824 870 1728 
Q 794 1632 710 1523 
Q 640 1606 557 1667 
Q 474 1728 352 1792 
Q 576 1965 723 2112 
Q 870 2259 986 2438 
Q 1139 2675 1241 2876 
Q 1344 3078 1395 3245 
Q 1658 3104 1792 3072 
Q 1894 3053 1894 3024 
Q 1894 2995 1805 2925 
Q 1766 2893 1699 2822 
Q 1632 2752 1523 2624 
L 2387 2624 
Q 2336 2733 2285 2832 
Q 2234 2931 2163 3040 
L 2630 3155 
Q 2662 3034 2716 2896 
Q 2771 2758 2829 2624 
Q 3027 2624 3161 2624 
Q 3296 2624 3389 2627 
Q 3482 2630 3546 2636 
Q 3610 2643 3667 2650 
L 3667 2278 
Q 3603 2285 3529 2291 
Q 3456 2298 3344 2301 
Q 3232 2304 3069 2304 
Q 2906 2304 2662 2304 
L 2662 1882 
Q 2874 1882 3018 1882 
Q 3162 1882 3261 1885 
Q 3360 1888 3427 1894 
Q 3494 1901 3552 1907 
L 3552 1536 
Q 3488 1542 3421 1548 
Q 3354 1555 3254 1558 
Q 3155 1562 3014 1562 
Q 2874 1562 2662 1562 
L 2662 1139 
Q 2880 1139 3030 1139 
Q 3181 1139 3283 1142 
Q 3386 1146 3453 1152 
Q 3520 1158 3578 1165 
L 3578 800 
Q 3514 806 3446 812 
Q 3379 819 3276 822 
Q 3174 826 3027 826 
Q 2880 826 2662 826 
L 2662 384 
Q 2886 384 3036 384 
Q 3187 384 3289 387 
Q 3392 390 3462 396 
Q 3533 403 3590 410 
L 3590 13 
Q 3520 19 3443 25 
Q 3366 32 3241 35 
Q 3117 38 2931 38 
Q 2746 38 2464 38 
L 1446 38 
L 1446 -614 
L 947 -614 
Q 960 -480 973 -307 
Q 986 -134 995 54 
Q 1005 243 1011 432 
Q 1018 621 1018 794 
L 1018 1920 
z
M 1914 4211 
Q 1587 4205 1312 4195 
Q 1037 4186 851 4166 
L 851 4602 
Q 1037 4589 1312 4576 
Q 1587 4563 1914 4557 
Q 1914 4800 1907 4915 
Q 1901 5030 1888 5120 
Q 2029 5107 2144 5104 
Q 2259 5101 2426 5101 
Q 2502 5101 2512 5069 
Q 2522 5037 2451 4998 
Q 2406 4973 2387 4931 
Q 2368 4890 2368 4838 
L 2368 4557 
Q 2720 4557 3021 4569 
Q 3322 4582 3514 4602 
L 3514 4166 
Q 3322 4186 3021 4195 
Q 2720 4205 2368 4211 
L 2368 3744 
L 3834 3744 
Q 3827 4019 3820 4224 
Q 3814 4429 3811 4592 
Q 3808 4755 3805 4886 
Q 3802 5018 3795 5146 
Q 3942 5120 4118 5107 
Q 4294 5094 4403 5101 
Q 4512 5107 4515 5065 
Q 4518 5024 4448 4954 
Q 4416 4922 4397 4864 
Q 4378 4806 4365 4678 
Q 4352 4550 4345 4326 
Q 4339 4102 4333 3744 
Q 4819 3750 5251 3772 
Q 5683 3795 5971 3827 
L 5971 3296 
Q 5683 3328 5257 3341 
Q 4832 3354 4333 3354 
Q 4333 3059 4361 2752 
Q 4390 2445 4438 2157 
Q 4486 1869 4547 1616 
Q 4608 1363 4678 1171 
Q 4845 1517 4963 1990 
Q 5082 2464 5152 2931 
Q 5280 2874 5437 2848 
Q 5594 2822 5702 2822 
Q 5792 2822 5801 2790 
Q 5811 2758 5734 2707 
Q 5658 2656 5597 2553 
Q 5536 2451 5491 2272 
Q 5382 1850 5232 1456 
Q 5082 1062 4896 730 
Q 5069 416 5200 272 
Q 5331 128 5417 131 
Q 5504 134 5552 272 
Q 5600 410 5613 659 
Q 5811 384 6042 301 
Q 5920 -51 5827 -252 
Q 5734 -454 5651 -537 
Q 5568 -621 5481 -605 
Q 5395 -589 5286 -499 
Q 5056 -320 4905 -150 
Q 4755 19 4602 282 
Q 4397 13 4086 -262 
Q 3776 -538 3392 -755 
Q 3309 -659 3209 -569 
Q 3110 -480 2982 -403 
Q 3443 -192 3782 80 
Q 4122 352 4384 698 
Q 4160 1184 4022 1849 
Q 3885 2515 3853 3354 
L 2259 3354 
Q 1734 3354 1264 3341 
Q 794 3328 486 3296 
L 486 3827 
Q 742 3802 1113 3779 
Q 1485 3757 1914 3750 
L 1914 4211 
z
" transform="scale(0.015625)"/>
        <path id="STHeitiTC-Medium-6b62" d="M 3686 3213 
Q 4115 3213 4412 3216 
Q 4710 3219 4918 3228 
Q 5126 3238 5267 3248 
Q 5408 3258 5523 3277 
L 5523 2675 
Q 5414 2682 5273 2694 
Q 5133 2707 4921 2713 
Q 4710 2720 4409 2726 
Q 4109 2733 3686 2733 
L 3686 262 
Q 4506 262 5098 284 
Q 5690 307 6035 339 
L 6035 -326 
Q 5856 -314 5609 -304 
Q 5363 -294 5020 -284 
Q 4678 -275 4227 -268 
Q 3776 -262 3181 -262 
Q 2573 -262 2128 -265 
Q 1683 -269 1353 -278 
Q 1024 -288 787 -297 
Q 550 -307 358 -326 
L 358 339 
Q 608 307 864 294 
Q 1120 282 1350 275 
L 1350 2976 
Q 1350 3507 1293 3814 
Q 1363 3802 1456 3795 
Q 1549 3789 1648 3785 
Q 1747 3782 1836 3779 
Q 1926 3776 1984 3776 
Q 2061 3776 2070 3737 
Q 2080 3699 2010 3667 
Q 1958 3642 1939 3584 
Q 1920 3526 1920 3450 
L 1920 262 
L 3117 262 
L 3117 3814 
Q 3117 4211 3094 4470 
Q 3072 4730 3027 4941 
Q 3110 4928 3216 4918 
Q 3322 4909 3430 4905 
Q 3539 4902 3644 4899 
Q 3750 4896 3827 4902 
Q 3917 4909 3926 4864 
Q 3936 4819 3846 4774 
Q 3776 4742 3731 4646 
Q 3686 4550 3686 4442 
L 3686 3213 
z
" transform="scale(0.015625)"/>
       </defs>
       <use xlink:href="#STHeitiTC-Medium-5b"/>
       <use xlink:href="#STHeitiTC-Medium-22" x="35.099991"/>
       <use xlink:href="#STHeitiTC-Medium-65f6" x="65.999985"/>
       <use xlink:href="#STHeitiTC-Medium-95f4" x="165.999969"/>
       <use xlink:href="#STHeitiTC-Medium-8868" x="265.999954"/>
       <use xlink:href="#STHeitiTC-Medium-22" x="365.999939"/>
       <use xlink:href="#STHeitiTC-Medium-2c" x="396.899933"/>
       <use xlink:href="#STHeitiTC-Medium-20" x="424.59993"/>
       <use xlink:href="#STHeitiTC-Medium-22" x="449.599915"/>
       <use xlink:href="#STHeitiTC-Medium-786c" x="480.499908"/>
       <use xlink:href="#STHeitiTC-Medium-622a" x="580.499893"/>
       <use xlink:href="#STHeitiTC-Medium-6b62" x="680.499878"/>
      </g>
     </g>
    </g>
   </g>
   <g id="matplotlib.axis_2">
    <g id="ytick_1">
     <g id="line2d_2">
      <path d="M 24.727187 219.068203 
L 631.197188 219.068203 
" clip-path="url(#p93ffaefaf9)" style="fill: none; stroke-dasharray: 2.96,1.28; stroke-dashoffset: 0; stroke: #b0b0b0; stroke-opacity: 0.35; stroke-width: 0.8"/>
     </g>
     <g id="line2d_3">
      <defs>
       <path id="m99927724e3" d="M 0 0 
L -3.5 0 
" style="stroke: #333333; stroke-width: 0.8"/>
      </defs>
      <g>
       <use xlink:href="#m99927724e3" x="24.727187" y="219.068203" style="fill: #333333; stroke: #333333; stroke-width: 0.8"/>
      </g>
     </g>
     <g id="text_2">
      <!-- 0 -->
      <g style="fill: #333333" transform="translate(12.463594 222.915703) scale(0.095 -0.095)">
       <defs>
        <path id="STHeitiTC-Medium-30" d="M 1747 5184 
Q 2502 5184 2944 4547 
Q 3386 3910 3386 2723 
Q 3386 1536 2938 902 
Q 2490 269 1738 269 
Q 986 269 573 893 
Q 160 1517 160 2729 
Q 160 3942 573 4563 
Q 986 5184 1747 5184 
z
M 1760 774 
Q 2285 774 2576 1283 
Q 2867 1792 2867 2726 
Q 2867 3661 2566 4160 
Q 2266 4659 1757 4659 
Q 1248 4659 966 4160 
Q 685 3661 685 2714 
Q 685 774 1760 774 
z
" transform="scale(0.015625)"/>
       </defs>
       <use xlink:href="#STHeitiTC-Medium-30"/>
      </g>
     </g>
    </g>
    <g id="ytick_2">
     <g id="line2d_4">
      <path d="M 24.727187 180.418679 
L 631.197188 180.418679 
" clip-path="url(#p93ffaefaf9)" style="fill: none; stroke-dasharray: 2.96,1.28; stroke-dashoffset: 0; stroke: #b0b0b0; stroke-opacity: 0.35; stroke-width: 0.8"/>
     </g>
     <g id="line2d_5">
      <g>
       <use xlink:href="#m99927724e3" x="24.727187" y="180.418679" style="fill: #333333; stroke: #333333; stroke-width: 0.8"/>
      </g>
     </g>
     <g id="text_3">
      <!-- 2 -->
      <g style="fill: #333333" transform="translate(12.463594 184.266179) scale(0.095 -0.095)">
       <defs>
        <path id="STHeitiTC-Medium-32" d="M 3360 384 
L 90 384 
L 1914 2355 
Q 2374 2842 2566 3123 
Q 2758 3405 2758 3763 
Q 2758 4122 2480 4390 
Q 2202 4659 1789 4659 
Q 1376 4659 1101 4368 
Q 826 4077 787 3539 
L 256 3539 
Q 288 4294 736 4739 
Q 1184 5184 1821 5184 
Q 2458 5184 2877 4771 
Q 3296 4358 3296 3763 
Q 3296 3328 3065 2950 
Q 2835 2573 2368 2074 
L 1293 915 
L 3360 915 
L 3360 384 
z
" transform="scale(0.015625)"/>
       </defs>
       <use xlink:href="#STHeitiTC-Medium-32"/>
      </g>
     </g>
    </g>
    <g id="ytick_3">
     <g id="line2d_6">
      <path d="M 24.727187 141.769156 
L 631.197188 141.769156 
" clip-path="url(#p93ffaefaf9)" style="fill: none; stroke-dasharray: 2.96,1.28; stroke-dashoffset: 0; stroke: #b0b0b0; stroke-opacity: 0.35; stroke-width: 0.8"/>
     </g>
     <g id="line2d_7">
      <g>
       <use xlink:href="#m99927724e3" x="24.727187" y="141.769156" style="fill: #333333; stroke: #333333; stroke-width: 0.8"/>
      </g>
     </g>
     <g id="text_4">
      <!-- 4 -->
      <g style="fill: #333333" transform="translate(12.463594 145.616656) scale(0.095 -0.095)">
       <defs>
        <path id="STHeitiTC-Medium-34" d="M 3418 1453 
L 2861 1453 
L 2861 384 
L 2317 384 
L 2317 1453 
L 70 1453 
L 2701 5184 
L 2861 5184 
L 2861 1984 
L 3418 1984 
L 3418 1453 
z
M 2317 1984 
L 2317 3712 
L 1094 1984 
L 2317 1984 
z
" transform="scale(0.015625)"/>
       </defs>
       <use xlink:href="#STHeitiTC-Medium-34"/>
      </g>
     </g>
    </g>
    <g id="ytick_4">
     <g id="line2d_8">
      <path d="M 24.727187 103.119632 
L 631.197188 103.119632 
" clip-path="url(#p93ffaefaf9)" style="fill: none; stroke-dasharray: 2.96,1.28; stroke-dashoffset: 0; stroke: #b0b0b0; stroke-opacity: 0.35; stroke-width: 0.8"/>
     </g>
     <g id="line2d_9">
      <g>
       <use xlink:href="#m99927724e3" x="24.727187" y="103.119632" style="fill: #333333; stroke: #333333; stroke-width: 0.8"/>
      </g>
     </g>
     <g id="text_5">
      <!-- 6 -->
      <g style="fill: #333333" transform="translate(12.463594 106.967132) scale(0.095 -0.095)">
       <defs>
        <path id="STHeitiTC-Medium-36" d="M 1594 3098 
Q 1798 3155 1984 3155 
Q 2515 3155 2912 2732 
Q 3309 2310 3309 1708 
Q 3309 1107 2880 688 
Q 2451 269 1830 269 
Q 1210 269 797 691 
Q 384 1114 384 1722 
Q 384 2016 499 2326 
Q 614 2637 915 3085 
L 2336 5203 
L 2797 4915 
L 1594 3098 
z
M 1843 806 
Q 2221 806 2493 1075 
Q 2765 1344 2765 1728 
Q 2765 2112 2496 2381 
Q 2227 2650 1843 2650 
Q 1459 2650 1190 2381 
Q 922 2112 922 1728 
Q 922 1344 1194 1075 
Q 1466 806 1843 806 
z
" transform="scale(0.015625)"/>
       </defs>
       <use xlink:href="#STHeitiTC-Medium-36"/>
      </g>
     </g>
    </g>
    <g id="ytick_5">
     <g id="line2d_10">
      <path d="M 24.727187 64.470108 
L 631.197188 64.470108 
" clip-path="url(#p93ffaefaf9)" style="fill: none; stroke-dasharray: 2.96,1.28; stroke-dashoffset: 0; stroke: #b0b0b0; stroke-opacity: 0.35; stroke-width: 0.8"/>
     </g>
     <g id="line2d_11">
      <g>
       <use xlink:href="#m99927724e3" x="24.727187" y="64.470108" style="fill: #333333; stroke: #333333; stroke-width: 0.8"/>
      </g>
     </g>
     <g id="text_6">
      <!-- 8 -->
      <g style="fill: #333333" transform="translate(12.463594 68.317608) scale(0.095 -0.095)">
       <defs>
        <path id="STHeitiTC-Medium-38" d="M 2547 2950 
Q 3373 2522 3373 1747 
Q 3373 1114 2928 691 
Q 2483 269 1763 269 
Q 1043 269 608 691 
Q 173 1114 173 1709 
Q 173 2515 1018 2950 
Q 390 3315 390 3942 
Q 390 4435 800 4809 
Q 1210 5184 1782 5184 
Q 2355 5184 2758 4819 
Q 3162 4454 3162 3930 
Q 3162 3322 2547 2950 
z
M 1792 3181 
Q 2118 3181 2364 3411 
Q 2611 3642 2611 3939 
Q 2611 4237 2380 4445 
Q 2150 4653 1785 4653 
Q 1421 4653 1184 4445 
Q 947 4237 947 3939 
Q 947 3642 1203 3411 
Q 1459 3181 1792 3181 
z
M 1773 794 
Q 2234 794 2528 1069 
Q 2822 1344 2822 1728 
Q 2822 2112 2518 2393 
Q 2214 2675 1782 2675 
Q 1350 2675 1036 2384 
Q 723 2093 723 1699 
Q 723 1306 1014 1050 
Q 1306 794 1773 794 
z
" transform="scale(0.015625)"/>
       </defs>
       <use xlink:href="#STHeitiTC-Medium-38"/>
      </g>
     </g>
    </g>
    <g id="ytick_6">
     <g id="line2d_12">
      <path d="M 24.727187 25.820584 
L 631.197188 25.820584 
" clip-path="url(#p93ffaefaf9)" style="fill: none; stroke-dasharray: 2.96,1.28; stroke-dashoffset: 0; stroke: #b0b0b0; stroke-opacity: 0.35; stroke-width: 0.8"/>
     </g>
     <g id="line2d_13">
      <g>
       <use xlink:href="#m99927724e3" x="24.727187" y="25.820584" style="fill: #333333; stroke: #333333; stroke-width: 0.8"/>
      </g>
     </g>
     <g id="text_7">
      <!-- 10 -->
      <g style="fill: #333333" transform="translate(7.2 29.668084) scale(0.095 -0.095)">
       <defs>
        <path id="STHeitiTC-Medium-31" d="M 2131 384 
L 1587 384 
L 1587 4531 
L 826 4531 
L 1158 5069 
L 2131 5069 
L 2131 384 
z
" transform="scale(0.015625)"/>
       </defs>
       <use xlink:href="#STHeitiTC-Medium-31"/>
       <use xlink:href="#STHeitiTC-Medium-30" x="55.399994"/>
      </g>
     </g>
    </g>
   </g>
   <g id="patch_3">
    <path d="M 24.727187 219.068203 
L 24.727187 16.158203 
" style="fill: none; stroke: #000000; stroke-width: 0.8; stroke-linejoin: miter; stroke-linecap: square"/>
   </g>
   <g id="patch_4">
    <path d="M 24.727188 219.068203 
L 631.197188 219.068203 
" style="fill: none; stroke: #000000; stroke-width: 0.8; stroke-linejoin: miter; stroke-linecap: square"/>
   </g>
   <g id="patch_5">
    <path d="M 52.294006 219.068203 
L 603.630369 219.068203 
L 603.630369 25.820584 
L 52.294006 25.820584 
z
" clip-path="url(#p93ffaefaf9)" style="fill: #1a56db"/>
   </g>
   <g id="text_8">
    <!-- 10 -->
    <g transform="translate(322.698594 14.895) scale(0.095 -0.095)">
     <use xlink:href="#STHeitiTC-Medium-31"/>
     <use xlink:href="#STHeitiTC-Medium-30" x="55.399994"/>
    </g>
   </g>
  </g>
 </g>
 <defs>
  <clipPath id="p93ffaefaf9">
   <rect x="24.727187" y="16.158203" width="606.47" height="202.91"/>
  </clipPath>
 </defs>
</svg>
