<?xml version="1.0" encoding="utf-8" standalone="no"?>
<!DOCTYPE svg PUBLIC "-//W3C//DTD SVG 1.1//EN"
  "http://www.w3.org/Graphics/SVG/1.1/DTD/svg11.dtd">
<svg xmlns:xlink="http://www.w3.org/1999/xlink" width="642.57239pt" height="242.4pt" viewBox="0 0 642.57239 242.4" xmlns="http://www.w3.org/2000/svg" version="1.1">
 <metadata>
  <rdf:RDF xmlns:dc="http://purl.org/dc/elements/1.1/" xmlns:cc="http://creativecommons.org/ns#" xmlns:rdf="http://www.w3.org/1999/02/22-rdf-syntax-ns#">
   <cc:Work>
    <dc:type rdf:resource="http://purl.org/dc/dcmitype/StillImage"/>
    <dc:date>2026-06-15T23:49:46.730015</dc:date>
    <dc:format>image/svg+xml</dc:format>
    <dc:creator>
     <cc:Agent>
      <dc:title>Matplotlib v3.11.0, https://matplotlib.org/</dc:title>
     </cc:Agent>
    </dc:creator>
   </cc:Work>
  </rdf:RDF>
 </metadata>
 <defs>
  <style type="text/css">*{stroke-linejoin: round; stroke-linecap: butt}</style>
 </defs>
 <g id="figure_1">
  <g id="patch_1">
   <path d="M 0 242.4 
L 642.57239 242.4 
L 642.57239 0 
L 0 0 
z
" style="fill: #ffffff"/>
  </g>
  <g id="axes_1">
   <g id="patch_2">
    <path d="M 157.477812 218.7 
L 631.223527 218.7 
L 631.223527 7.2 
L 157.477812 7.2 
z
" style="fill: #fafafa"/>
   </g>
   <g id="matplotlib.axis_1">
    <g id="xtick_1">
     <g id="line2d_1">
      <path d="M 157.477812 218.7 
L 157.477812 7.2 
" clip-path="url(#p9f597c1924)" style="fill: none; stroke-dasharray: 2.96,1.28; stroke-dashoffset: 0; stroke: #b0b0b0; stroke-opacity: 0.35; stroke-width: 0.8"/>
     </g>
     <g id="line2d_2">
      <defs>
       <path id="m9a47cbf8f8" d="M 0 0 
L 0 3.5 
" style="stroke: #333333; stroke-width: 0.8"/>
      </defs>
      <g>
       <use xlink:href="#m9a47cbf8f8" x="157.477812" y="218.7" style="fill: #333333; stroke: #333333; stroke-width: 0.8"/>
      </g>
     </g>
     <g id="text_1">
      <!-- 0 -->
      <g style="fill: #333333" transform="translate(154.841563 234.06) scale(0.095 -0.095)">
       <defs>
        <path id="NotoSansCJKjp-Regular-11" d="M 1779 -83 
C 2669 -83 3238 723 3238 2362 
C 3238 3987 2669 4774 1779 4774 
C 883 4774 320 3987 320 2362 
C 320 723 883 -83 1779 -83 
z
M 1779 390 
C 1248 390 883 986 883 2362 
C 883 3731 1248 4314 1779 4314 
C 2310 4314 2675 3731 2675 2362 
C 2675 986 2310 390 1779 390 
z
" transform="scale(0.015625)"/>
       </defs>
       <use xlink:href="#NotoSansCJKjp-Regular-11"/>
      </g>
     </g>
    </g>
    <g id="xtick_2">
     <g id="line2d_3">
      <path d="M 251.474978 218.7 
L 251.474978 7.2 
" clip-path="url(#p9f597c1924)" style="fill: none; stroke-dasharray: 2.96,1.28; stroke-dashoffset: 0; stroke: #b0b0b0; stroke-opacity: 0.35; stroke-width: 0.8"/>
     </g>
     <g id="line2d_4">
      <g>
       <use xlink:href="#m9a47cbf8f8" x="251.474978" y="218.7" style="fill: #333333; stroke: #333333; stroke-width: 0.8"/>
      </g>
     </g>
     <g id="text_2">
      <!-- 50 -->
      <g style="fill: #333333" transform="translate(246.202478 234.06) scale(0.095 -0.095)">
       <defs>
        <path id="NotoSansCJKjp-Regular-16" d="M 1677 -83 
C 2464 -83 3213 499 3213 1523 
C 3213 2560 2573 3021 1798 3021 
C 1517 3021 1306 2950 1094 2835 
L 1216 4192 
L 2982 4192 
L 2982 4691 
L 704 4691 
L 550 2502 
L 864 2304 
C 1133 2483 1331 2579 1645 2579 
C 2234 2579 2618 2182 2618 1510 
C 2618 826 2176 403 1619 403 
C 1075 403 730 653 467 922 
L 173 538 
C 493 224 941 -83 1677 -83 
z
" transform="scale(0.015625)"/>
       </defs>
       <use xlink:href="#NotoSansCJKjp-Regular-16"/>
       <use xlink:href="#NotoSansCJKjp-Regular-11" transform="translate(55.5 0)"/>
      </g>
     </g>
    </g>
    <g id="xtick_3">
     <g id="line2d_5">
      <path d="M 345.472144 218.7 
L 345.472144 7.2 
" clip-path="url(#p9f597c1924)" style="fill: none; stroke-dasharray: 2.96,1.28; stroke-dashoffset: 0; stroke: #b0b0b0; stroke-opacity: 0.35; stroke-width: 0.8"/>
     </g>
     <g id="line2d_6">
      <g>
       <use xlink:href="#m9a47cbf8f8" x="345.472144" y="218.7" style="fill: #333333; stroke: #333333; stroke-width: 0.8"/>
      </g>
     </g>
     <g id="text_3">
      <!-- 100 -->
      <g style="fill: #333333" transform="translate(337.563394 234.06) scale(0.095 -0.095)">
       <defs>
        <path id="NotoSansCJKjp-Regular-12" d="M 563 0 
L 3136 0 
L 3136 486 
L 2195 486 
L 2195 4691 
L 1747 4691 
C 1491 4544 1190 4435 774 4358 
L 774 3987 
L 1613 3987 
L 1613 486 
L 563 486 
L 563 0 
z
" transform="scale(0.015625)"/>
       </defs>
       <use xlink:href="#NotoSansCJKjp-Regular-12"/>
       <use xlink:href="#NotoSansCJKjp-Regular-11" transform="translate(55.5 0)"/>
       <use xlink:href="#NotoSansCJKjp-Regular-11" transform="translate(111 0)"/>
      </g>
     </g>
    </g>
    <g id="xtick_4">
     <g id="line2d_7">
      <path d="M 439.469309 218.7 
L 439.469309 7.2 
" clip-path="url(#p9f597c1924)" style="fill: none; stroke-dasharray: 2.96,1.28; stroke-dashoffset: 0; stroke: #b0b0b0; stroke-opacity: 0.35; stroke-width: 0.8"/>
     </g>
     <g id="line2d_8">
      <g>
       <use xlink:href="#m9a47cbf8f8" x="439.469309" y="218.7" style="fill: #333333; stroke: #333333; stroke-width: 0.8"/>
      </g>
     </g>
     <g id="text_4">
      <!-- 150 -->
      <g style="fill: #333333" transform="translate(431.560559 234.06) scale(0.095 -0.095)">
       <use xlink:href="#NotoSansCJKjp-Regular-12"/>
       <use xlink:href="#NotoSansCJKjp-Regular-16" transform="translate(55.5 0)"/>
       <use xlink:href="#NotoSansCJKjp-Regular-11" transform="translate(111 0)"/>
      </g>
     </g>
    </g>
    <g id="xtick_5">
     <g id="line2d_9">
      <path d="M 533.466475 218.7 
L 533.466475 7.2 
" clip-path="url(#p9f597c1924)" style="fill: none; stroke-dasharray: 2.96,1.28; stroke-dashoffset: 0; stroke: #b0b0b0; stroke-opacity: 0.35; stroke-width: 0.8"/>
     </g>
     <g id="line2d_10">
      <g>
       <use xlink:href="#m9a47cbf8f8" x="533.466475" y="218.7" style="fill: #333333; stroke: #333333; stroke-width: 0.8"/>
      </g>
     </g>
     <g id="text_5">
      <!-- 200 -->
      <g style="fill: #333333" transform="translate(525.557725 234.06) scale(0.095 -0.095)">
       <defs>
        <path id="NotoSansCJKjp-Regular-13" d="M 282 0 
L 3232 0 
L 3232 506 
L 1933 506 
C 1696 506 1408 480 1165 461 
C 2266 1504 3008 2458 3008 3398 
C 3008 4230 2477 4774 1638 4774 
C 1043 4774 634 4506 256 4090 
L 595 3757 
C 858 4070 1184 4301 1568 4301 
C 2150 4301 2432 3910 2432 3373 
C 2432 2566 1754 1632 282 346 
L 282 0 
z
" transform="scale(0.015625)"/>
       </defs>
       <use xlink:href="#NotoSansCJKjp-Regular-13"/>
       <use xlink:href="#NotoSansCJKjp-Regular-11" transform="translate(55.5 0)"/>
       <use xlink:href="#NotoSansCJKjp-Regular-11" transform="translate(111 0)"/>
      </g>
     </g>
    </g>
    <g id="xtick_6">
     <g id="line2d_11">
      <path d="M 627.46364 218.7 
L 627.46364 7.2 
" clip-path="url(#p9f597c1924)" style="fill: none; stroke-dasharray: 2.96,1.28; stroke-dashoffset: 0; stroke: #b0b0b0; stroke-opacity: 0.35; stroke-width: 0.8"/>
     </g>
     <g id="line2d_12">
      <g>
       <use xlink:href="#m9a47cbf8f8" x="627.46364" y="218.7" style="fill: #333333; stroke: #333333; stroke-width: 0.8"/>
      </g>
     </g>
     <g id="text_6">
      <!-- 250 -->
      <g style="fill: #333333" transform="translate(619.55489 234.06) scale(0.095 -0.095)">
       <use xlink:href="#NotoSansCJKjp-Regular-13"/>
       <use xlink:href="#NotoSansCJKjp-Regular-16" transform="translate(55.5 0)"/>
       <use xlink:href="#NotoSansCJKjp-Regular-11" transform="translate(111 0)"/>
      </g>
     </g>
    </g>
   </g>
   <g id="matplotlib.axis_2">
    <g id="ytick_1">
     <g id="line2d_13">
      <defs>
       <path id="m254280ba1c" d="M 0 0 
L -3.5 0 
" style="stroke: #333333; stroke-width: 0.8"/>
      </defs>
      <g>
       <use xlink:href="#m254280ba1c" x="157.477812" y="188.35107" style="fill: #333333; stroke: #333333; stroke-width: 0.8"/>
      </g>
     </g>
     <g id="text_7">
      <!-- A2 优先级·卖给机构(5.75%) -->
      <g style="fill: #333333" transform="translate(31.843594 192.53107) scale(0.095 -0.095)">
       <defs>
        <path id="NotoSansCJKjp-Regular-22" d="M 26 0 
L 621 0 
L 1075 1434 
L 2790 1434 
L 3238 0 
L 3866 0 
L 2272 4691 
L 1613 4691 
L 26 0 
z
M 1222 1901 
L 1453 2624 
C 1619 3155 1773 3661 1920 4211 
L 1946 4211 
C 2099 3667 2246 3155 2419 2624 
L 2643 1901 
L 1222 1901 
z
" transform="scale(0.015625)"/>
        <path id="NotoSansCJKjp-Regular-f6b3" d="M 282 0 
L 3232 0 
L 3232 506 
L 1907 506 
C 1670 506 1382 480 1139 461 
C 2221 1594 3008 2451 3008 3309 
C 3008 4115 2477 4646 1638 4646 
C 1043 4646 634 4378 256 3955 
L 595 3629 
C 858 3930 1184 4173 1568 4173 
C 2150 4173 2432 3802 2432 3283 
C 2432 2534 1658 1715 282 346 
L 282 0 
z
" transform="scale(0.015625)"/>
        <path id="NotoSansCJKjp-Regular-1" transform="scale(0.015625)"/>
        <path id="NotoSansCJKjp-Regular-269d" d="M 4083 2899 
L 4083 339 
C 4083 -186 4211 -339 4717 -339 
C 4826 -339 5357 -339 5466 -339 
C 5933 -339 6054 -70 6099 896 
C 5971 928 5773 1011 5670 1094 
C 5651 250 5619 102 5427 102 
C 5306 102 4870 102 4774 102 
C 4582 102 4550 147 4550 339 
L 4550 2899 
L 4083 2899 
z
M 4474 4979 
C 4787 4678 5165 4256 5338 3994 
L 5690 4262 
C 5504 4525 5120 4928 4806 5210 
L 4474 4979 
z
M 3334 5299 
C 3334 4819 3328 4333 3309 3859 
L 1862 3859 
L 1862 3398 
L 3283 3398 
C 3181 1952 2854 634 1760 -134 
C 1882 -218 2035 -371 2112 -486 
C 3290 365 3648 1818 3763 3398 
L 6080 3398 
L 6080 3859 
L 3789 3859 
C 3808 4339 3814 4819 3814 5299 
L 3334 5299 
z
M 1734 5363 
C 1395 4390 832 3430 237 2810 
C 326 2694 467 2445 512 2330 
C 698 2534 883 2765 1056 3014 
L 1056 -512 
L 1517 -512 
L 1517 3757 
C 1779 4224 2003 4723 2189 5222 
L 1734 5363 
z
" transform="scale(0.015625)"/>
        <path id="NotoSansCJKjp-Regular-2a5d" d="M 2957 5376 
L 2957 4378 
L 1824 4378 
C 1914 4634 1997 4890 2061 5126 
L 1574 5229 
C 1414 4557 1094 3706 653 3162 
C 774 3117 960 3008 1069 2938 
C 1286 3206 1478 3552 1638 3917 
L 2957 3917 
L 2957 2624 
L 390 2624 
L 390 2157 
L 2061 2157 
C 1952 1101 1664 282 301 -141 
C 416 -237 550 -422 608 -544 
C 2067 -38 2426 902 2560 2157 
L 3782 2157 
L 3782 275 
C 3782 -256 3923 -410 4499 -410 
C 4614 -410 5280 -410 5402 -410 
C 5920 -410 6054 -160 6106 813 
C 5971 851 5766 928 5664 1011 
C 5638 179 5600 51 5363 51 
C 5216 51 4666 51 4550 51 
C 4307 51 4262 83 4262 275 
L 4262 2157 
L 6016 2157 
L 6016 2624 
L 3443 2624 
L 3443 3917 
L 5555 3917 
L 5555 4378 
L 3443 4378 
L 3443 5376 
L 2957 5376 
z
" transform="scale(0.015625)"/>
        <path id="NotoSansCJKjp-Regular-7bd2" d="M 269 358 
L 384 -115 
C 992 115 1792 422 2547 723 
L 2451 1139 
C 1651 845 813 538 269 358 
z
M 2560 4960 
L 2560 4512 
L 3277 4512 
C 3200 2458 2976 794 2106 -230 
C 2221 -294 2445 -448 2528 -525 
C 3078 192 3379 1133 3552 2272 
C 3770 1747 4038 1261 4352 832 
C 3968 403 3507 77 3008 -154 
C 3110 -230 3277 -410 3347 -525 
C 3821 -288 4262 38 4646 467 
C 4998 64 5402 -269 5856 -499 
C 5926 -378 6074 -205 6182 -115 
C 5722 102 5306 429 4947 832 
C 5389 1427 5728 2182 5926 3110 
L 5626 3232 
L 5536 3213 
L 4883 3213 
C 5043 3738 5229 4410 5376 4960 
L 2560 4960 
z
M 3757 4512 
L 4774 4512 
C 4621 3910 4429 3238 4269 2790 
L 5370 2790 
C 5210 2170 4960 1645 4646 1197 
C 4218 1779 3885 2470 3661 3194 
C 3706 3610 3731 4051 3757 4512 
z
M 352 2707 
C 448 2752 602 2790 1427 2899 
C 1133 2477 858 2138 736 2003 
C 538 1760 384 1600 243 1574 
C 294 1453 365 1229 390 1133 
C 531 1235 749 1318 2458 1830 
C 2438 1933 2426 2118 2426 2234 
L 1171 1882 
C 1645 2445 2112 3117 2515 3795 
L 2112 4038 
C 1990 3795 1850 3558 1702 3328 
L 858 3238 
C 1248 3795 1632 4499 1926 5178 
L 1485 5382 
C 1210 4602 723 3770 576 3552 
C 429 3334 320 3187 198 3155 
C 256 3034 326 2803 352 2707 
z
" transform="scale(0.015625)"/>
        <path id="NotoSansCJKjp-Regular-75" d="M 1766 1875 
C 1997 1875 2195 2067 2195 2323 
C 2195 2592 1997 2778 1766 2778 
C 1536 2778 1350 2592 1350 2323 
C 1350 2067 1536 1875 1766 1875 
z
" transform="scale(0.015625)"/>
        <path id="NotoSansCJKjp-Regular-2d9e" d="M 1498 2854 
C 1926 2714 2445 2470 2707 2272 
L 2976 2586 
C 2701 2784 2170 3021 1747 3136 
L 1498 2854 
z
M 851 2240 
C 1280 2112 1792 1882 2054 1690 
L 2304 2010 
C 2029 2202 1504 2426 1088 2534 
L 851 2240 
z
M 3462 461 
C 4346 179 5242 -198 5798 -499 
L 6067 -109 
C 5498 186 4563 550 3686 813 
L 3462 461 
z
M 525 3680 
L 525 3258 
L 5286 3258 
C 5158 2995 4998 2739 4858 2560 
L 5222 2349 
C 5472 2656 5741 3130 5952 3565 
L 5613 3706 
L 5530 3680 
L 3462 3680 
L 3462 4275 
L 5568 4275 
L 5568 4698 
L 3462 4698 
L 3462 5357 
L 2970 5357 
L 2970 4698 
L 922 4698 
L 922 4275 
L 2970 4275 
L 2970 3680 
L 525 3680 
z
M 3341 3091 
C 3309 2502 3258 2010 3130 1594 
L 410 1594 
L 410 1165 
L 2944 1165 
C 2586 525 1875 122 422 -109 
C 512 -211 621 -397 659 -518 
C 2342 -230 3117 307 3488 1165 
L 6010 1165 
L 6010 1594 
L 3635 1594 
C 3750 2022 3802 2522 3834 3091 
L 3341 3091 
z
" transform="scale(0.015625)"/>
        <path id="NotoSansCJKjp-Regular-7c04" d="M 269 339 
L 365 -134 
C 954 19 1741 211 2490 397 
L 2451 826 
C 1638 640 819 448 269 339 
z
M 390 2707 
C 480 2752 634 2790 1408 2899 
C 1133 2490 877 2170 762 2048 
C 563 1805 410 1645 275 1619 
C 333 1498 403 1267 429 1165 
C 563 1248 787 1306 2413 1632 
C 2400 1734 2400 1920 2413 2042 
L 1114 1805 
C 1613 2381 2106 3091 2522 3802 
L 2099 4051 
C 1978 3808 1837 3565 1690 3334 
L 883 3251 
C 1261 3802 1626 4493 1894 5158 
L 1427 5370 
C 1178 4608 730 3782 589 3571 
C 454 3354 339 3206 224 3174 
C 282 3046 365 2803 390 2707 
z
M 4032 5363 
C 3744 4448 3123 3571 2310 3021 
C 2413 2938 2579 2771 2656 2675 
C 2842 2810 3021 2957 3187 3123 
L 3187 2835 
L 5216 2835 
L 5216 3213 
C 5395 3034 5587 2874 5773 2752 
C 5856 2874 6010 3053 6118 3149 
C 5459 3514 4806 4282 4429 5050 
L 4499 5242 
L 4032 5363 
z
M 5152 3277 
L 3341 3277 
C 3693 3654 3987 4090 4218 4563 
C 4474 4090 4800 3642 5152 3277 
z
M 2874 2112 
L 2874 -531 
L 3341 -531 
L 3341 -186 
L 5005 -186 
L 5005 -512 
L 5491 -512 
L 5491 2112 
L 2874 2112 
z
M 3341 250 
L 3341 1677 
L 5005 1677 
L 5005 250 
L 3341 250 
z
" transform="scale(0.015625)"/>
        <path id="NotoSansCJKjp-Regular-512c" d="M 3187 5011 
L 3187 2957 
C 3187 1965 3098 691 2234 -205 
C 2342 -262 2528 -422 2598 -512 
C 3520 435 3654 1888 3654 2957 
L 3654 4557 
L 4858 4557 
L 4858 435 
C 4858 -115 4896 -230 5005 -326 
C 5101 -410 5242 -448 5370 -448 
C 5453 -448 5600 -448 5696 -448 
C 5830 -448 5946 -422 6035 -358 
C 6131 -294 6182 -186 6214 0 
C 6240 160 6266 634 6266 998 
C 6144 1037 5997 1114 5901 1203 
C 5894 774 5888 435 5869 288 
C 5862 141 5843 83 5805 45 
C 5779 13 5728 0 5677 0 
C 5613 0 5536 0 5491 0 
C 5440 0 5408 13 5376 38 
C 5344 64 5331 186 5331 397 
L 5331 5011 
L 3187 5011 
z
M 1395 5376 
L 1395 4006 
L 333 4006 
L 333 3546 
L 1331 3546 
C 1101 2656 634 1658 179 1120 
C 256 1005 378 813 429 685 
C 787 1126 1133 1850 1395 2598 
L 1395 -506 
L 1862 -506 
L 1862 2432 
C 2112 2112 2413 1715 2541 1498 
L 2842 1894 
C 2694 2061 2086 2746 1862 2970 
L 1862 3546 
L 2810 3546 
L 2810 4006 
L 1862 4006 
L 1862 5376 
L 1395 5376 
z
" transform="scale(0.015625)"/>
        <path id="NotoSansCJKjp-Regular-5197" d="M 3341 5376 
C 3181 4723 2931 4090 2618 3578 
L 2618 4006 
L 1766 4006 
L 1766 5376 
L 1306 5376 
L 1306 4006 
L 307 4006 
L 307 3546 
L 1242 3546 
C 1024 2694 576 1702 147 1184 
C 224 1069 346 870 397 742 
C 730 1171 1056 1882 1306 2605 
L 1306 -506 
L 1766 -506 
L 1766 2483 
C 1990 2176 2266 1779 2381 1568 
L 2682 1958 
C 2547 2138 1958 2842 1766 3046 
L 1766 3546 
L 2598 3546 
C 2483 3354 2349 3174 2214 3021 
C 2336 2950 2534 2797 2618 2720 
C 2874 3034 3110 3430 3322 3878 
L 5530 3878 
C 5446 1254 5350 275 5158 51 
C 5094 -32 5030 -51 4915 -45 
C 4781 -45 4474 -45 4128 -13 
C 4211 -154 4269 -358 4282 -493 
C 4595 -512 4915 -518 5107 -493 
C 5318 -467 5453 -416 5587 -237 
C 5824 77 5914 1069 6010 4077 
C 6010 4141 6010 4326 6010 4326 
L 3514 4326 
C 3629 4627 3738 4947 3827 5267 
L 3341 5376 
z
M 2432 1248 
L 2541 794 
L 4589 1101 
C 4646 928 4698 774 4723 640 
L 5126 794 
C 5030 1184 4749 1811 4474 2298 
L 4102 2170 
C 4224 1958 4339 1709 4442 1466 
L 3392 1344 
C 3603 1901 3827 2662 4000 3283 
L 3533 3386 
C 3411 2765 3168 1875 2950 1299 
L 2432 1248 
z
" transform="scale(0.015625)"/>
        <path id="NotoSansCJKjp-Regular-9" d="M 1530 -1254 
L 1888 -1094 
C 1338 -186 1075 902 1075 1990 
C 1075 3072 1338 4154 1888 5069 
L 1530 5235 
C 941 4275 589 3245 589 1990 
C 589 730 941 -301 1530 -1254 
z
" transform="scale(0.015625)"/>
        <path id="NotoSansCJKjp-Regular-f" d="M 890 -83 
C 1120 -83 1312 96 1312 358 
C 1312 627 1120 806 890 806 
C 653 806 467 627 467 358 
C 467 96 653 -83 890 -83 
z
" transform="scale(0.015625)"/>
        <path id="NotoSansCJKjp-Regular-18" d="M 1267 0 
L 1875 0 
C 1952 1837 2150 2931 3251 4339 
L 3251 4691 
L 314 4691 
L 314 4192 
L 2592 4192 
C 1670 2912 1350 1779 1267 0 
z
" transform="scale(0.015625)"/>
        <path id="NotoSansCJKjp-Regular-6" d="M 1312 1818 
C 1958 1818 2381 2362 2381 3309 
C 2381 4243 1958 4774 1312 4774 
C 672 4774 250 4243 250 3309 
C 250 2362 672 1818 1312 1818 
z
M 1312 2176 
C 941 2176 691 2560 691 3309 
C 691 4058 941 4416 1312 4416 
C 1683 4416 1933 4058 1933 3309 
C 1933 2560 1683 2176 1312 2176 
z
M 1446 -83 
L 1843 -83 
L 4435 4774 
L 4038 4774 
L 1446 -83 
z
M 4582 -83 
C 5222 -83 5645 454 5645 1402 
C 5645 2342 5222 2874 4582 2874 
C 3942 2874 3520 2342 3520 1402 
C 3520 454 3942 -83 4582 -83 
z
M 4582 275 
C 4211 275 3955 653 3955 1402 
C 3955 2150 4211 2515 4582 2515 
C 4947 2515 5210 2150 5210 1402 
C 5210 653 4947 275 4582 275 
z
" transform="scale(0.015625)"/>
        <path id="NotoSansCJKjp-Regular-a" d="M 634 -1254 
C 1222 -301 1574 730 1574 1990 
C 1574 3245 1222 4275 634 5235 
L 269 5069 
C 819 4154 1094 3072 1094 1990 
C 1094 902 819 -186 269 -1094 
L 634 -1254 
z
" transform="scale(0.015625)"/>
       </defs>
       <use xlink:href="#NotoSansCJKjp-Regular-22"/>
       <use xlink:href="#NotoSansCJKjp-Regular-f6b3" transform="translate(60.796875 0)"/>
       <use xlink:href="#NotoSansCJKjp-Regular-1" transform="translate(116.296875 0)"/>
       <use xlink:href="#NotoSansCJKjp-Regular-269d" transform="translate(138.703125 0)"/>
       <use xlink:href="#NotoSansCJKjp-Regular-2a5d" transform="translate(238.703125 0)"/>
       <use xlink:href="#NotoSansCJKjp-Regular-7bd2" transform="translate(338.703125 0)"/>
       <use xlink:href="#NotoSansCJKjp-Regular-75" transform="translate(438.703125 0)"/>
       <use xlink:href="#NotoSansCJKjp-Regular-2d9e" transform="translate(494.796875 0)"/>
       <use xlink:href="#NotoSansCJKjp-Regular-7c04" transform="translate(594.796875 0)"/>
       <use xlink:href="#NotoSansCJKjp-Regular-512c" transform="translate(694.796875 0)"/>
       <use xlink:href="#NotoSansCJKjp-Regular-5197" transform="translate(794.796875 0)"/>
       <use xlink:href="#NotoSansCJKjp-Regular-9" transform="translate(894.796875 0)"/>
       <use xlink:href="#NotoSansCJKjp-Regular-16" transform="translate(928.59375 0)"/>
       <use xlink:href="#NotoSansCJKjp-Regular-f" transform="translate(984.09375 0)"/>
       <use xlink:href="#NotoSansCJKjp-Regular-18" transform="translate(1011.890625 0)"/>
       <use xlink:href="#NotoSansCJKjp-Regular-16" transform="translate(1067.390625 0)"/>
       <use xlink:href="#NotoSansCJKjp-Regular-6" transform="translate(1122.890625 0)"/>
       <use xlink:href="#NotoSansCJKjp-Regular-a" transform="translate(1214.984375 0)"/>
      </g>
     </g>
    </g>
    <g id="ytick_2">
     <g id="line2d_14">
      <g>
       <use xlink:href="#m254280ba1c" x="157.477812" y="112.95" style="fill: #333333; stroke: #333333; stroke-width: 0.8"/>
      </g>
     </g>
     <g id="text_8">
      <!-- A1 优先级·卖给银行(国债+100bp) -->
      <g style="fill: #333333" transform="translate(7.2 117.13) scale(0.095 -0.095)">
       <defs>
        <path id="NotoSansCJKjp-Regular-f6b2" d="M 563 0 
L 3136 0 
L 3136 486 
L 2195 486 
L 2195 4563 
L 1747 4563 
C 1491 4410 1190 4301 774 4224 
L 774 3853 
L 1613 3853 
L 1613 486 
L 563 486 
L 563 0 
z
" transform="scale(0.015625)"/>
        <path id="NotoSansCJKjp-Regular-a6cc" d="M 5306 3494 
L 5306 2714 
L 3430 2714 
L 3430 3494 
L 5306 3494 
z
M 5306 3898 
L 3430 3898 
L 3430 4672 
L 5306 4672 
L 5306 3898 
z
M 2944 -512 
C 3066 -429 3264 -358 4589 0 
C 4570 102 4563 301 4563 435 
L 3430 160 
L 3430 2291 
L 4013 2291 
C 4320 1011 4902 19 5888 -467 
C 5958 -333 6093 -147 6202 -51 
C 5702 160 5299 518 4992 973 
C 5344 1178 5766 1466 6086 1734 
L 5779 2074 
C 5530 1830 5126 1530 4794 1306 
C 4634 1606 4506 1939 4410 2291 
L 5747 2291 
L 5747 5094 
L 2963 5094 
L 2963 339 
C 2963 70 2829 -58 2726 -115 
C 2797 -211 2906 -403 2944 -512 
z
M 1139 5357 
C 947 4762 602 4186 218 3808 
C 294 3706 422 3462 467 3360 
C 691 3584 902 3872 1088 4186 
L 2592 4186 
L 2592 4646 
L 1331 4646 
C 1427 4838 1504 5037 1574 5235 
L 1139 5357 
z
M 1222 -467 
C 1338 -358 1517 -256 2720 371 
C 2688 467 2650 653 2637 781 
L 1728 339 
L 1728 1760 
L 2650 1760 
L 2650 2202 
L 1728 2202 
L 1728 3066 
L 2509 3066 
L 2509 3501 
L 704 3501 
L 704 3066 
L 1267 3066 
L 1267 2202 
L 371 2202 
L 371 1760 
L 1267 1760 
L 1267 358 
C 1267 109 1126 0 1024 -51 
C 1101 -154 1197 -352 1222 -467 
z
" transform="scale(0.015625)"/>
        <path id="NotoSansCJKjp-Regular-8f66" d="M 2784 4992 
L 2784 4531 
L 5933 4531 
L 5933 4992 
L 2784 4992 
z
M 1709 5382 
C 1382 4915 762 4346 224 3981 
C 307 3891 442 3706 506 3597 
C 1082 4006 1741 4634 2170 5190 
L 1709 5382 
z
M 2502 3226 
L 2502 2765 
L 4659 2765 
L 4659 109 
C 4659 6 4614 -26 4493 -32 
C 4378 -38 3942 -38 3488 -19 
C 3558 -160 3629 -358 3648 -493 
C 4275 -493 4640 -493 4858 -422 
C 5069 -339 5146 -192 5146 102 
L 5146 2765 
L 6112 2765 
L 6112 3226 
L 2502 3226 
z
M 1965 4006 
C 1523 3277 819 2534 160 2061 
C 256 1965 429 1754 499 1658 
C 736 1850 986 2080 1229 2330 
L 1229 -531 
L 1702 -531 
L 1702 2854 
C 1971 3174 2214 3507 2419 3840 
L 1965 4006 
z
" transform="scale(0.015625)"/>
        <path id="NotoSansCJKjp-Regular-3381" d="M 3789 2048 
C 4026 1830 4294 1523 4422 1318 
L 4755 1517 
C 4621 1715 4346 2016 4102 2221 
L 3789 2048 
z
M 1459 1254 
L 1459 845 
L 4973 845 
L 4973 1254 
L 3392 1254 
L 3392 2336 
L 4685 2336 
L 4685 2752 
L 3392 2752 
L 3392 3667 
L 4838 3667 
L 4838 4096 
L 1549 4096 
L 1549 3667 
L 2938 3667 
L 2938 2752 
L 1728 2752 
L 1728 2336 
L 2938 2336 
L 2938 1254 
L 1459 1254 
z
M 550 5088 
L 550 -512 
L 1037 -512 
L 1037 -192 
L 5344 -192 
L 5344 -512 
L 5850 -512 
L 5850 5088 
L 550 5088 
z
M 1037 256 
L 1037 4640 
L 5344 4640 
L 5344 256 
L 1037 256 
z
" transform="scale(0.015625)"/>
        <path id="NotoSansCJKjp-Regular-2868" d="M 3706 1741 
L 3706 1190 
C 3706 781 3571 192 1818 -173 
C 1920 -262 2048 -416 2106 -512 
C 3936 -64 4154 646 4154 1184 
L 4154 1741 
L 3706 1741 
z
M 4147 307 
C 4717 102 5459 -230 5830 -474 
L 6086 -122 
C 5690 109 4947 422 4390 614 
L 4147 307 
z
M 2317 2470 
L 2317 653 
L 2752 653 
L 2752 2125 
L 5190 2125 
L 5190 653 
L 5651 653 
L 5651 2470 
L 2317 2470 
z
M 3757 5376 
L 3757 4813 
L 2131 4813 
L 2131 4442 
L 3757 4442 
L 3757 4032 
L 2330 4032 
L 2330 3680 
L 3757 3680 
L 3757 3219 
L 1965 3219 
L 1965 2854 
L 6010 2854 
L 6010 3219 
L 4205 3219 
L 4205 3680 
L 5568 3680 
L 5568 4032 
L 4205 4032 
L 4205 4442 
L 5734 4442 
L 5734 4813 
L 4205 4813 
L 4205 5376 
L 3757 5376 
z
M 1542 5350 
C 1248 4390 768 3430 237 2797 
C 326 2688 467 2432 518 2323 
C 691 2534 864 2784 1024 3053 
L 1024 -499 
L 1485 -499 
L 1485 3917 
C 1683 4339 1856 4781 1997 5222 
L 1542 5350 
z
" transform="scale(0.015625)"/>
        <path id="NotoSansCJKjp-Regular-c" d="M 1542 742 
L 2010 742 
L 2010 2144 
L 3315 2144 
L 3315 2579 
L 2010 2579 
L 2010 3981 
L 1542 3981 
L 1542 2579 
L 243 2579 
L 243 2144 
L 1542 2144 
L 1542 742 
z
" transform="scale(0.015625)"/>
        <path id="NotoSansCJKjp-Regular-43" d="M 2118 -83 
C 2912 -83 3629 602 3629 1792 
C 3629 2867 3142 3565 2246 3565 
C 1856 3565 1472 3347 1152 3078 
L 1178 3699 
L 1178 5094 
L 589 5094 
L 589 0 
L 1056 0 
L 1107 358 
L 1133 358 
C 1434 83 1798 -83 2118 -83 
z
M 2022 410 
C 1792 410 1478 499 1178 768 
L 1178 2598 
C 1504 2906 1811 3072 2099 3072 
C 2765 3072 3021 2560 3021 1786 
C 3021 928 2598 410 2022 410 
z
" transform="scale(0.015625)"/>
        <path id="NotoSansCJKjp-Regular-51" d="M 589 -1466 
L 1178 -1466 
L 1178 -288 
L 1158 320 
C 1472 58 1805 -83 2118 -83 
C 2912 -83 3629 602 3629 1792 
C 3629 2867 3142 3565 2246 3565 
C 1843 3565 1453 3334 1139 3072 
L 1126 3072 
L 1069 3475 
L 589 3475 
L 589 -1466 
z
M 2022 410 
C 1792 410 1485 499 1178 768 
L 1178 2598 
C 1510 2906 1811 3072 2099 3072 
C 2765 3072 3021 2560 3021 1786 
C 3021 928 2598 410 2022 410 
z
" transform="scale(0.015625)"/>
       </defs>
       <use xlink:href="#NotoSansCJKjp-Regular-22"/>
       <use xlink:href="#NotoSansCJKjp-Regular-f6b2" transform="translate(60.796875 0)"/>
       <use xlink:href="#NotoSansCJKjp-Regular-1" transform="translate(116.296875 0)"/>
       <use xlink:href="#NotoSansCJKjp-Regular-269d" transform="translate(138.703125 0)"/>
       <use xlink:href="#NotoSansCJKjp-Regular-2a5d" transform="translate(238.703125 0)"/>
       <use xlink:href="#NotoSansCJKjp-Regular-7bd2" transform="translate(338.703125 0)"/>
       <use xlink:href="#NotoSansCJKjp-Regular-75" transform="translate(438.703125 0)"/>
       <use xlink:href="#NotoSansCJKjp-Regular-2d9e" transform="translate(494.796875 0)"/>
       <use xlink:href="#NotoSansCJKjp-Regular-7c04" transform="translate(594.796875 0)"/>
       <use xlink:href="#NotoSansCJKjp-Regular-a6cc" transform="translate(694.796875 0)"/>
       <use xlink:href="#NotoSansCJKjp-Regular-8f66" transform="translate(794.796875 0)"/>
       <use xlink:href="#NotoSansCJKjp-Regular-9" transform="translate(894.796875 0)"/>
       <use xlink:href="#NotoSansCJKjp-Regular-3381" transform="translate(928.59375 0)"/>
       <use xlink:href="#NotoSansCJKjp-Regular-2868" transform="translate(1028.59375 0)"/>
       <use xlink:href="#NotoSansCJKjp-Regular-c" transform="translate(1128.59375 0)"/>
       <use xlink:href="#NotoSansCJKjp-Regular-12" transform="translate(1184.09375 0)"/>
       <use xlink:href="#NotoSansCJKjp-Regular-11" transform="translate(1239.59375 0)"/>
       <use xlink:href="#NotoSansCJKjp-Regular-11" transform="translate(1295.09375 0)"/>
       <use xlink:href="#NotoSansCJKjp-Regular-43" transform="translate(1350.59375 0)"/>
       <use xlink:href="#NotoSansCJKjp-Regular-51" transform="translate(1412.390625 0)"/>
       <use xlink:href="#NotoSansCJKjp-Regular-a" transform="translate(1474.390625 0)"/>
      </g>
     </g>
    </g>
    <g id="ytick_3">
     <g id="line2d_15">
      <g>
       <use xlink:href="#m254280ba1c" x="157.477812" y="37.54893" style="fill: #333333; stroke: #333333; stroke-width: 0.8"/>
      </g>
     </g>
     <g id="text_9">
      <!-- 劣后层·先吃第一笔损失 -->
      <g style="fill: #333333" transform="translate(50.148906 41.72893) scale(0.095 -0.095)">
       <defs>
        <path id="NotoSansCJKjp-Regular-2c79" d="M 2950 5376 
L 2950 3763 
C 2950 3680 2925 3654 2829 3654 
C 2739 3648 2400 3648 2048 3661 
C 2112 3539 2182 3366 2202 3245 
C 2682 3245 2989 3245 3181 3315 
C 3373 3386 3430 3501 3430 3750 
L 3430 5376 
L 2950 5376 
z
M 1715 5011 
C 1434 4467 922 3955 384 3635 
C 506 3565 710 3424 800 3334 
C 1318 3693 1869 4269 2195 4877 
L 1715 5011 
z
M 4301 4813 
C 4819 4403 5427 3802 5702 3405 
L 6112 3686 
C 5824 4090 5203 4666 4685 5056 
L 4301 4813 
z
M 4486 4128 
C 3718 3104 2074 2566 307 2317 
C 397 2208 538 1990 582 1882 
C 1491 2042 2381 2272 3155 2618 
C 3136 2355 3104 2106 3059 1882 
L 1158 1882 
L 1158 1446 
L 2950 1446 
C 2675 653 2054 154 499 -115 
C 582 -218 698 -403 736 -525 
C 2477 -198 3149 442 3443 1446 
L 5190 1446 
C 5107 550 5011 154 4877 38 
C 4813 -19 4742 -32 4602 -32 
C 4461 -32 4064 -26 3661 13 
C 3750 -115 3808 -314 3821 -454 
C 4218 -474 4602 -474 4794 -461 
C 5011 -448 5152 -410 5286 -282 
C 5485 -77 5600 429 5709 1664 
C 5715 1734 5722 1882 5722 1882 
L 3546 1882 
C 3590 2131 3616 2394 3642 2682 
L 3296 2682 
C 3974 3002 4550 3411 4960 3949 
L 4486 4128 
z
" transform="scale(0.015625)"/>
        <path id="NotoSansCJKjp-Regular-2eb4" d="M 5222 5325 
C 4352 5088 2829 4902 1446 4787 
L 954 4883 
L 954 3085 
C 954 2099 883 774 205 -198 
C 326 -256 512 -416 582 -518 
C 1338 538 1434 2048 1434 3078 
L 1434 3142 
L 6163 3142 
L 6163 3603 
L 1434 3603 
L 1434 4358 
C 2886 4461 4518 4653 5626 4947 
L 5222 5325 
z
M 1997 2227 
L 1997 -518 
L 2458 -518 
L 2458 -186 
L 5114 -186 
L 5114 -506 
L 5600 -506 
L 5600 2227 
L 1997 2227 
z
M 2458 262 
L 2458 1779 
L 5114 1779 
L 5114 262 
L 2458 262 
z
" transform="scale(0.015625)"/>
        <path id="NotoSansCJKjp-Regular-3dc4" d="M 1946 2918 
L 1946 2490 
L 5587 2490 
L 5587 2918 
L 1946 2918 
z
M 1338 4653 
L 5190 4653 
L 5190 3885 
L 1338 3885 
L 1338 4653 
z
M 851 5069 
L 851 3194 
C 851 2176 794 749 198 -256 
C 320 -301 531 -422 627 -499 
C 1248 550 1338 2118 1338 3194 
L 1338 3469 
L 5670 3469 
L 5670 5069 
L 851 5069 
z
M 1843 -410 
C 2042 -333 2349 -307 5139 -122 
C 5235 -288 5325 -448 5389 -570 
L 5830 -352 
C 5613 38 5158 717 4806 1210 
L 4390 1037 
C 4557 806 4736 531 4902 262 
L 2432 115 
C 2771 474 3117 928 3411 1395 
L 6035 1395 
L 6035 1818 
L 1530 1818 
L 1530 1395 
L 2803 1395 
C 2522 909 2163 461 2048 333 
C 1907 173 1779 58 1670 38 
C 1728 -83 1811 -314 1843 -410 
z
" transform="scale(0.015625)"/>
        <path id="NotoSansCJKjp-Regular-2ea7" d="M 486 4787 
L 486 563 
L 934 563 
L 934 1062 
L 2189 1062 
L 2189 4787 
L 486 4787 
z
M 934 4326 
L 1741 4326 
L 1741 1530 
L 934 1530 
L 934 4326 
z
M 3398 5376 
C 3174 4550 2784 3757 2291 3238 
C 2400 3168 2598 3014 2688 2925 
C 2931 3206 3155 3552 3354 3942 
L 6054 3942 
L 6054 4397 
L 3565 4397 
C 3686 4678 3789 4966 3878 5267 
L 3398 5376 
z
M 2995 3072 
L 2995 2624 
L 4685 2624 
C 2688 922 2592 557 2592 243 
C 2592 -166 2899 -416 3584 -416 
L 5350 -416 
C 5920 -416 6118 -230 6182 858 
C 6042 890 5875 954 5741 1024 
C 5715 179 5645 64 5370 64 
L 3565 64 
C 3277 64 3091 128 3091 301 
C 3091 518 3258 851 5664 2816 
C 5690 2842 5722 2874 5734 2906 
L 5408 3091 
L 5293 3072 
L 2995 3072 
z
" transform="scale(0.015625)"/>
        <path id="NotoSansCJKjp-Regular-746c" d="M 1133 2566 
C 1037 2061 877 1421 742 1005 
L 1216 934 
L 1280 1158 
L 2547 1158 
C 1965 640 1069 198 275 -26 
C 378 -115 518 -288 589 -410 
C 1414 -134 2342 390 2963 1005 
L 2963 -512 
L 3430 -512 
L 3430 1158 
L 5363 1158 
C 5299 576 5229 326 5139 237 
C 5082 192 5024 186 4909 186 
C 4794 179 4493 186 4179 218 
C 4256 96 4307 -90 4314 -224 
C 4646 -243 4960 -243 5120 -230 
C 5299 -218 5421 -179 5530 -70 
C 5690 90 5779 480 5869 1376 
C 5875 1440 5882 1568 5882 1568 
L 3430 1568 
L 3430 2163 
L 5510 2163 
L 5510 3622 
L 826 3622 
L 826 3213 
L 2963 3213 
L 2963 2566 
L 1133 2566 
z
M 1523 2163 
L 2963 2163 
L 2963 1568 
L 1382 1568 
L 1523 2163 
z
M 3430 3213 
L 5037 3213 
L 5037 2566 
L 3430 2566 
L 3430 3213 
z
M 1178 5408 
C 966 4838 614 4269 211 3898 
C 326 3834 518 3706 608 3635 
C 819 3846 1024 4128 1210 4435 
L 1446 4435 
C 1581 4179 1702 3878 1747 3674 
L 2170 3840 
C 2125 3994 2029 4224 1926 4435 
L 3110 4435 
L 3110 4819 
L 1421 4819 
C 1498 4973 1562 5126 1626 5286 
L 1178 5408 
z
M 3699 5408 
C 3488 4832 3104 4294 2650 3942 
C 2765 3885 2963 3744 3046 3667 
C 3283 3872 3507 4141 3706 4435 
L 4160 4435 
C 4352 4179 4544 3872 4621 3661 
L 5043 3827 
C 4973 4000 4826 4230 4672 4435 
L 6099 4435 
L 6099 4819 
L 3936 4819 
C 4019 4973 4090 5133 4154 5293 
L 3699 5408 
z
" transform="scale(0.015625)"/>
        <path id="NotoSansCJKjp-Regular-2509" d="M 282 2758 
L 282 2234 
L 6144 2234 
L 6144 2758 
L 282 2758 
z
" transform="scale(0.015625)"/>
        <path id="NotoSansCJKjp-Regular-743e" d="M 371 1018 
L 416 595 
L 2726 794 
L 2726 282 
C 2726 -301 2925 -454 3648 -454 
C 3808 -454 4947 -454 5114 -454 
C 5722 -454 5869 -243 5939 499 
C 5798 531 5606 602 5498 678 
C 5453 90 5402 -26 5088 -26 
C 4838 -26 3866 -26 3674 -26 
C 3277 -26 3206 32 3206 282 
L 3206 838 
L 6042 1082 
L 5997 1498 
L 3206 1261 
L 3206 1933 
L 5459 2125 
L 5414 2522 
L 3206 2336 
L 3206 2918 
C 4032 3008 4819 3130 5434 3277 
L 5165 3667 
C 4134 3411 2349 3219 813 3123 
C 858 3014 915 2842 928 2726 
C 1504 2758 2125 2810 2726 2867 
L 2726 2291 
L 685 2118 
L 730 1715 
L 2726 1888 
L 2726 1216 
L 371 1018 
z
M 1178 5408 
C 979 4762 634 4128 230 3706 
C 346 3642 544 3514 640 3443 
C 851 3693 1056 4006 1242 4358 
L 1568 4358 
C 1734 4058 1901 3693 1971 3462 
L 2394 3622 
C 2330 3821 2195 4102 2054 4358 
L 3046 4358 
L 3046 4768 
L 1434 4768 
C 1510 4941 1581 5114 1645 5293 
L 1178 5408 
z
M 3699 5408 
C 3514 4774 3168 4179 2746 3789 
C 2861 3725 3066 3590 3155 3514 
C 3373 3738 3584 4032 3770 4358 
L 4230 4358 
C 4371 4115 4518 3834 4576 3635 
L 4998 3789 
C 4947 3949 4838 4160 4717 4358 
L 5984 4358 
L 5984 4768 
L 3968 4768 
C 4045 4941 4109 5114 4166 5293 
L 3699 5408 
z
" transform="scale(0.015625)"/>
        <path id="NotoSansCJKjp-Regular-4a63" d="M 3245 4762 
L 5037 4762 
L 5037 3942 
L 3245 3942 
L 3245 4762 
z
M 2778 5133 
L 2778 3571 
L 5523 3571 
L 5523 5133 
L 2778 5133 
z
M 3917 2259 
L 3917 1632 
C 3917 1120 3776 403 2035 -70 
C 2144 -173 2278 -358 2336 -474 
C 4154 102 4390 954 4390 1619 
L 4390 2259 
L 3917 2259 
z
M 4390 467 
C 4883 160 5542 -275 5869 -538 
L 6170 -179 
C 5830 77 5158 486 4678 781 
L 4390 467 
z
M 2598 3098 
L 2598 781 
L 3053 781 
L 3053 2707 
L 5261 2707 
L 5261 794 
L 5728 794 
L 5728 3098 
L 2598 3098 
z
M 1075 5370 
L 1075 4083 
L 269 4083 
L 269 3635 
L 1075 3635 
L 1075 2150 
C 742 2048 435 1958 186 1894 
L 275 1427 
L 1075 1683 
L 1075 102 
C 1075 6 1043 -19 966 -19 
C 883 -19 627 -19 346 -13 
C 410 -154 474 -365 493 -486 
C 909 -493 1165 -474 1325 -390 
C 1491 -314 1555 -173 1555 102 
L 1555 1837 
L 2342 2093 
L 2278 2528 
L 1555 2298 
L 1555 3635 
L 2285 3635 
L 2285 4083 
L 1555 4083 
L 1555 5370 
L 1075 5370 
z
" transform="scale(0.015625)"/>
        <path id="NotoSansCJKjp-Regular-370a" d="M 2918 5376 
L 2918 4256 
L 1690 4256 
C 1811 4550 1920 4864 2010 5184 
L 1510 5286 
C 1280 4416 883 3558 384 3014 
C 506 2963 742 2835 845 2765 
C 1069 3040 1280 3386 1472 3770 
L 2918 3770 
L 2918 3386 
C 2918 3091 2906 2790 2854 2496 
L 346 2496 
L 346 2016 
L 2746 2016 
C 2477 1184 1824 422 269 -102 
C 371 -198 512 -403 570 -518 
C 2208 45 2918 883 3213 1805 
C 3712 614 4557 -166 5894 -512 
C 5965 -384 6106 -179 6214 -77 
C 4909 218 4064 934 3622 2016 
L 6061 2016 
L 6061 2496 
L 3366 2496 
C 3405 2790 3418 3091 3418 3386 
L 3418 3770 
L 5523 3770 
L 5523 4256 
L 3418 4256 
L 3418 5376 
L 2918 5376 
z
" transform="scale(0.015625)"/>
       </defs>
       <use xlink:href="#NotoSansCJKjp-Regular-2c79"/>
       <use xlink:href="#NotoSansCJKjp-Regular-2eb4" transform="translate(100 0)"/>
       <use xlink:href="#NotoSansCJKjp-Regular-3dc4" transform="translate(200 0)"/>
       <use xlink:href="#NotoSansCJKjp-Regular-75" transform="translate(300 0)"/>
       <use xlink:href="#NotoSansCJKjp-Regular-2a5d" transform="translate(356.09375 0)"/>
       <use xlink:href="#NotoSansCJKjp-Regular-2ea7" transform="translate(456.09375 0)"/>
       <use xlink:href="#NotoSansCJKjp-Regular-746c" transform="translate(556.09375 0)"/>
       <use xlink:href="#NotoSansCJKjp-Regular-2509" transform="translate(656.09375 0)"/>
       <use xlink:href="#NotoSansCJKjp-Regular-743e" transform="translate(756.09375 0)"/>
       <use xlink:href="#NotoSansCJKjp-Regular-4a63" transform="translate(856.09375 0)"/>
       <use xlink:href="#NotoSansCJKjp-Regular-370a" transform="translate(956.09375 0)"/>
      </g>
     </g>
    </g>
   </g>
   <g id="line2d_16">
    <path d="M 157.477812 218.7 
L 157.477812 7.2 
" clip-path="url(#p9f597c1924)" style="fill: none; stroke: #cccccc; stroke-width: 0.8; stroke-linecap: square"/>
   </g>
   <g id="patch_3">
    <path d="M 157.477812 218.7 
L 631.223527 218.7 
" style="fill: none; stroke: #000000; stroke-width: 0.8; stroke-linejoin: miter; stroke-linecap: square"/>
   </g>
   <g id="patch_4">
    <path d="M 157.477812 209.086364 
L 608.664207 209.086364 
L 608.664207 167.615775 
L 157.477812 167.615775 
z
" clip-path="url(#p9f597c1924)" style="fill: #1a56db"/>
   </g>
   <g id="patch_5">
    <path d="M 157.477812 133.685294 
L 168.757472 133.685294 
L 168.757472 92.214706 
L 157.477812 92.214706 
z
" clip-path="url(#p9f597c1924)" style="fill: #1a56db"/>
   </g>
   <g id="patch_6">
    <path d="M 157.477812 58.284225 
L 352.991917 58.284225 
L 352.991917 16.813636 
L 157.477812 16.813636 
z
" clip-path="url(#p9f597c1924)" style="fill: #1a56db"/>
   </g>
   <g id="text_10">
    <!-- 240 -->
    <g style="fill: #333333" transform="translate(608.852201 191.96107) scale(0.095 -0.095)">
     <defs>
      <path id="NotoSansCJKjp-Bold-13" d="M 275 0 
L 3450 0 
L 3450 794 
L 2426 794 
C 2202 794 1888 768 1645 736 
C 2509 1587 3226 2509 3226 3366 
C 3226 4250 2630 4826 1734 4826 
C 1088 4826 666 4576 224 4102 
L 749 3597 
C 986 3859 1267 4083 1613 4083 
C 2067 4083 2323 3789 2323 3322 
C 2323 2586 1568 1696 275 544 
L 275 0 
z
" transform="scale(0.015625)"/>
      <path id="NotoSansCJKjp-Bold-15" d="M 2157 0 
L 3034 0 
L 3034 1229 
L 3597 1229 
L 3597 1946 
L 3034 1946 
L 3034 4742 
L 1901 4742 
L 134 1869 
L 134 1229 
L 2157 1229 
L 2157 0 
z
M 2157 1946 
L 1050 1946 
L 1786 3123 
C 1920 3379 2048 3642 2163 3898 
L 2195 3898 
C 2176 3616 2157 3187 2157 2912 
L 2157 1946 
z
" transform="scale(0.015625)"/>
      <path id="NotoSansCJKjp-Bold-11" d="M 1888 -90 
C 2854 -90 3494 755 3494 2394 
C 3494 4019 2854 4826 1888 4826 
C 922 4826 282 4026 282 2394 
C 282 755 922 -90 1888 -90 
z
M 1888 646 
C 1478 646 1171 1056 1171 2394 
C 1171 3712 1478 4102 1888 4102 
C 2298 4102 2598 3712 2598 2394 
C 2598 1056 2298 646 1888 646 
z
" transform="scale(0.015625)"/>
     </defs>
     <use xlink:href="#NotoSansCJKjp-Bold-13"/>
     <use xlink:href="#NotoSansCJKjp-Bold-15" transform="translate(59 0)"/>
     <use xlink:href="#NotoSansCJKjp-Bold-11" transform="translate(118 0)"/>
    </g>
   </g>
   <g id="text_11">
    <!-- 6 -->
    <g style="fill: #333333" transform="translate(168.945467 116.56) scale(0.095 -0.095)">
     <defs>
      <path id="NotoSansCJKjp-Bold-17" d="M 2022 -90 
C 2829 -90 3507 525 3507 1498 
C 3507 2509 2938 2982 2144 2982 
C 1843 2982 1440 2803 1178 2483 
C 1222 3661 1664 4070 2214 4070 
C 2483 4070 2771 3910 2938 3725 
L 3437 4288 
C 3155 4582 2733 4826 2150 4826 
C 1197 4826 320 4070 320 2304 
C 320 640 1126 -90 2022 -90 
z
M 1197 1818 
C 1434 2176 1722 2317 1971 2317 
C 2381 2317 2650 2061 2650 1498 
C 2650 922 2362 621 2003 621 
C 1606 621 1286 954 1197 1818 
z
" transform="scale(0.015625)"/>
     </defs>
     <use xlink:href="#NotoSansCJKjp-Bold-17"/>
    </g>
   </g>
   <g id="text_12">
    <!-- 104 -->
    <g style="fill: #333333" transform="translate(353.179911 41.15893) scale(0.095 -0.095)">
     <defs>
      <path id="NotoSansCJKjp-Bold-12" d="M 525 0 
L 3373 0 
L 3373 768 
L 2483 768 
L 2483 4742 
L 1786 4742 
C 1485 4550 1165 4429 685 4346 
L 685 3757 
L 1549 3757 
L 1549 768 
L 525 768 
L 525 0 
z
" transform="scale(0.015625)"/>
     </defs>
     <use xlink:href="#NotoSansCJKjp-Bold-12"/>
     <use xlink:href="#NotoSansCJKjp-Bold-11" transform="translate(59 0)"/>
     <use xlink:href="#NotoSansCJKjp-Bold-15" transform="translate(118 0)"/>
    </g>
   </g>
  </g>
 </g>
 <defs>
  <clipPath id="p9f597c1924">
   <rect x="157.477812" y="7.2" width="473.745714" height="211.5"/>
  </clipPath>
 </defs>
</svg>
