<?xml version="1.0" encoding="utf-8" standalone="no"?>
<!DOCTYPE svg PUBLIC "-//W3C//DTD SVG 1.1//EN"
  "http://www.w3.org/Graphics/SVG/1.1/DTD/svg11.dtd">
<svg xmlns:xlink="http://www.w3.org/1999/xlink" width="639.0975pt" height="241.69764pt" viewBox="0 0 639.0975 241.69764" xmlns="http://www.w3.org/2000/svg" version="1.1">
 <metadata>
  <rdf:RDF xmlns:dc="http://purl.org/dc/elements/1.1/" xmlns:cc="http://creativecommons.org/ns#" xmlns:rdf="http://www.w3.org/1999/02/22-rdf-syntax-ns#">
   <cc:Work>
    <dc:type rdf:resource="http://purl.org/dc/dcmitype/StillImage"/>
    <dc:date>2026-06-13T23:57:52.024913</dc:date>
    <dc:format>image/svg+xml</dc:format>
    <dc:creator>
     <cc:Agent>
      <dc:title>Matplotlib v3.11.0, https://matplotlib.org/</dc:title>
     </cc:Agent>
    </dc:creator>
   </cc:Work>
  </rdf:RDF>
 </metadata>
 <defs>
  <style type="text/css">*{stroke-linejoin: round; stroke-linecap: butt}</style>
 </defs>
 <g id="figure_1">
  <g id="patch_1">
   <path d="M 0 241.69764 
L 639.0975 241.69764 
L 639.0975 0 
L 0 0 
z
" style="fill: #ffffff"/>
  </g>
  <g id="axes_1">
   <g id="patch_2">
    <path d="M 30.0175 217.436546 
L 631.8975 217.436546 
L 631.8975 7.711796 
L 30.0175 7.711796 
z
" style="fill: #fafafa"/>
   </g>
   <g id="matplotlib.axis_1">
    <g id="xtick_1">
     <g id="line2d_1">
      <defs>
       <path id="m172a2ab780" d="M 0 0 
L 0 3.5 
" style="stroke: #333333; stroke-width: 0.8"/>
      </defs>
      <g>
       <use xlink:href="#m172a2ab780" x="154.453101" y="217.436546" style="fill: #333333; stroke: #333333; stroke-width: 0.8"/>
      </g>
     </g>
     <g id="text_1">
      <!-- 对公众（6/4 求暂停） -->
      <g style="fill: #333333" transform="translate(108.254156 232.796546) scale(0.095 -0.095)">
       <defs>
        <path id="NotoSansCJKjp-Regular-3d52" d="M 3213 2522 
C 3514 2067 3802 1459 3904 1075 
L 4326 1286 
C 4224 1670 3917 2259 3603 2701 
L 3213 2522 
z
M 582 2899 
C 973 2547 1389 2131 1760 1709 
C 1376 890 870 269 288 -109 
C 403 -205 550 -384 627 -499 
C 1216 -77 1715 512 2106 1299 
C 2394 941 2630 602 2784 314 
L 3168 666 
C 2982 998 2682 1395 2330 1798 
C 2624 2534 2835 3411 2944 4448 
L 2630 4538 
L 2547 4518 
L 448 4518 
L 448 4064 
L 2419 4064 
C 2323 3373 2170 2752 1965 2202 
C 1626 2554 1267 2899 922 3200 
L 582 2899 
z
M 4896 5376 
L 4896 3834 
L 3085 3834 
L 3085 3373 
L 4896 3373 
L 4896 141 
C 4896 26 4851 -6 4742 -13 
C 4634 -13 4275 -19 3872 0 
C 3936 -147 4006 -371 4032 -506 
C 4576 -506 4902 -493 5094 -410 
C 5293 -326 5370 -179 5370 141 
L 5370 3373 
L 6138 3373 
L 6138 3834 
L 5370 3834 
L 5370 5376 
L 4896 5376 
z
" transform="scale(0.015625)"/>
        <path id="NotoSansCJKjp-Regular-2a9c" d="M 2029 5190 
C 1651 4243 1018 3322 320 2746 
C 448 2669 678 2496 774 2400 
C 1459 3034 2131 4013 2560 5043 
L 2029 5190 
z
M 4314 5190 
L 3846 4998 
C 4333 4096 5139 3014 5728 2400 
C 5824 2528 6003 2714 6138 2810 
C 5542 3347 4742 4358 4314 5190 
z
M 3904 1651 
C 4211 1293 4538 858 4826 442 
L 2003 320 
C 2426 1075 2893 2086 3238 2912 
L 2675 3059 
C 2394 2214 1894 1082 1459 294 
L 576 269 
L 640 -237 
C 1792 -186 3501 -102 5126 -6 
C 5248 -205 5357 -384 5440 -544 
L 5920 -282 
C 5600 301 4947 1197 4358 1869 
L 3904 1651 
z
" transform="scale(0.015625)"/>
        <path id="NotoSansCJKjp-Regular-269b" d="M 3174 4877 
C 3757 4070 4896 3200 5888 2707 
C 5978 2854 6099 3040 6221 3162 
C 5197 3590 4090 4422 3411 5363 
L 2886 5363 
C 2387 4550 1331 3616 205 3085 
C 314 2976 448 2784 506 2675 
C 1600 3226 2656 4109 3174 4877 
z
M 1690 3034 
C 1523 1587 1114 467 230 -192 
C 352 -262 582 -429 666 -512 
C 1254 -13 1645 666 1901 1536 
C 2272 1210 2650 826 2854 563 
L 3219 947 
C 2970 1248 2483 1696 2035 2042 
C 2099 2336 2150 2650 2195 2982 
L 1690 3034 
z
M 4083 3034 
C 3898 1555 3443 454 2496 -198 
C 2618 -269 2842 -429 2925 -518 
C 3552 -26 3987 653 4275 1530 
C 4563 755 5050 -51 5830 -506 
C 5907 -378 6067 -166 6176 -64 
C 5216 422 4710 1459 4480 2330 
C 4525 2534 4557 2746 4589 2970 
L 4083 3034 
z
" transform="scale(0.015625)"/>
        <path id="NotoSansCJKjp-Regular-e6ae" d="M 4448 2432 
C 4448 1184 4954 166 5722 -614 
L 6106 -416 
C 5370 346 4915 1293 4915 2432 
C 4915 3571 5370 4518 6106 5280 
L 5722 5478 
C 4954 4698 4448 3680 4448 2432 
z
" transform="scale(0.015625)"/>
        <path id="NotoSansCJKjp-Regular-17" d="M 1926 -83 
C 2656 -83 3277 531 3277 1440 
C 3277 2426 2765 2912 1971 2912 
C 1606 2912 1197 2701 909 2349 
C 934 3802 1466 4294 2118 4294 
C 2400 4294 2682 4154 2861 3936 
L 3194 4294 
C 2931 4576 2579 4774 2093 4774 
C 1184 4774 358 4077 358 2240 
C 358 691 1030 -83 1926 -83 
z
M 922 1882 
C 1229 2317 1587 2477 1875 2477 
C 2445 2477 2720 2074 2720 1440 
C 2720 800 2374 378 1926 378 
C 1338 378 986 909 922 1882 
z
" transform="scale(0.015625)"/>
        <path id="NotoSansCJKjp-Regular-10" d="M 70 -1146 
L 499 -1146 
L 2413 5082 
L 1990 5082 
L 70 -1146 
z
" transform="scale(0.015625)"/>
        <path id="NotoSansCJKjp-Regular-15" d="M 2176 0 
L 2726 0 
L 2726 1293 
L 3354 1293 
L 3354 1760 
L 2726 1760 
L 2726 4691 
L 2080 4691 
L 128 1677 
L 128 1293 
L 2176 1293 
L 2176 0 
z
M 2176 1760 
L 736 1760 
L 1805 3360 
C 1939 3590 2067 3827 2182 4051 
L 2208 4051 
C 2195 3814 2176 3430 2176 3200 
L 2176 1760 
z
" transform="scale(0.015625)"/>
        <path id="NotoSansCJKjp-Regular-1" transform="scale(0.015625)"/>
        <path id="NotoSansCJKjp-Regular-59f2" d="M 762 3213 
C 1152 2854 1600 2349 1792 2010 
L 2176 2291 
C 1978 2630 1523 3117 1126 3456 
L 762 3213 
z
M 237 544 
L 538 109 
C 1107 435 1862 883 2554 1306 
L 2400 1734 
C 1619 1286 781 813 237 544 
z
M 2944 5363 
L 2944 4301 
L 416 4301 
L 416 3834 
L 2944 3834 
L 2944 141 
C 2944 13 2899 -19 2778 -26 
C 2650 -26 2234 -32 1792 -13 
C 1869 -160 1939 -384 1971 -525 
C 2534 -525 2918 -512 3136 -429 
C 3347 -346 3437 -198 3437 141 
L 3437 2669 
C 3987 1472 4794 474 5843 -38 
C 5926 96 6080 282 6195 384 
C 5478 698 4858 1248 4365 1926 
C 4800 2291 5331 2822 5728 3277 
L 5312 3571 
C 5018 3168 4531 2650 4128 2285 
C 3840 2739 3610 3232 3437 3750 
L 3437 3834 
L 6010 3834 
L 6010 4301 
L 5222 4301 
L 5517 4634 
C 5248 4845 4723 5152 4326 5350 
L 4038 5050 
C 4435 4845 4941 4525 5197 4301 
L 3437 4301 
L 3437 5363 
L 2944 5363 
z
" transform="scale(0.015625)"/>
        <path id="NotoSansCJKjp-Regular-4fea" d="M 3616 4947 
L 3616 3987 
C 3616 3462 3565 2771 3155 2253 
C 3258 2208 3443 2086 3526 2010 
C 3866 2432 3987 3027 4026 3546 
L 4890 3546 
L 4890 2022 
L 5338 2022 
L 5338 3546 
L 6086 3546 
L 6086 3936 
L 4045 3936 
L 4045 3981 
L 4045 4621 
C 4698 4672 5414 4774 5914 4928 
L 5645 5286 
C 5165 5126 4326 5005 3616 4947 
z
M 1574 627 
L 4832 627 
L 4832 96 
L 1574 96 
L 1574 627 
z
M 1574 979 
L 1574 1504 
L 4832 1504 
L 4832 979 
L 1574 979 
z
M 1120 1882 
L 1120 -512 
L 1574 -512 
L 1574 -288 
L 4832 -288 
L 4832 -499 
L 5306 -499 
L 5306 1882 
L 1120 1882 
z
M 352 2829 
L 390 2426 
L 1862 2586 
L 1862 2010 
L 2310 2010 
L 2310 2637 
L 3290 2746 
L 3283 3110 
L 2310 3014 
L 2310 3494 
L 3322 3494 
L 3322 3885 
L 2310 3885 
L 2310 4301 
L 1862 4301 
L 1862 3885 
L 1037 3885 
C 1210 4090 1389 4320 1555 4570 
L 3309 4570 
L 3309 4947 
L 1798 4947 
L 1978 5261 
L 1498 5395 
C 1434 5242 1357 5094 1280 4947 
L 339 4947 
L 339 4570 
L 1056 4570 
C 922 4358 800 4192 742 4122 
C 627 3968 518 3866 416 3846 
C 474 3718 544 3501 570 3405 
C 627 3456 819 3494 1088 3494 
L 1862 3494 
L 1862 2970 
L 352 2829 
z
" transform="scale(0.015625)"/>
        <path id="NotoSansCJKjp-Regular-28a5" d="M 2970 3635 
L 5139 3635 
L 5139 3046 
L 2970 3046 
L 2970 3635 
z
M 2509 3981 
L 2509 2694 
L 5619 2694 
L 5619 3981 
L 2509 3981 
z
M 1907 2330 
L 1907 1222 
L 2336 1222 
L 2336 1939 
L 5728 1939 
L 5728 1229 
L 6176 1229 
L 6176 2330 
L 1907 2330 
z
M 3795 5350 
L 3795 4755 
L 2010 4755 
L 2010 4333 
L 6112 4333 
L 6112 4755 
L 4275 4755 
L 4275 5350 
L 3795 5350 
z
M 2637 1510 
L 2637 1107 
L 3795 1107 
L 3795 13 
C 3795 -64 3776 -83 3674 -90 
C 3571 -96 3232 -96 2854 -83 
C 2918 -218 2989 -390 3002 -518 
C 3488 -518 3808 -518 4019 -448 
C 4218 -384 4275 -256 4275 6 
L 4275 1107 
L 5491 1107 
L 5491 1510 
L 2637 1510 
z
M 1690 5350 
C 1331 4378 736 3418 102 2797 
C 192 2688 326 2438 371 2323 
C 595 2554 813 2822 1024 3117 
L 1024 -499 
L 1485 -499 
L 1485 3840 
C 1734 4282 1965 4749 2144 5216 
L 1690 5350 
z
" transform="scale(0.015625)"/>
        <path id="NotoSansCJKjp-Regular-e6af" d="M 1952 2432 
C 1952 3680 1446 4698 678 5478 
L 294 5280 
C 1030 4518 1485 3571 1485 2432 
C 1485 1293 1030 346 294 -416 
L 678 -614 
C 1446 166 1952 1184 1952 2432 
z
" transform="scale(0.015625)"/>
       </defs>
       <use xlink:href="#NotoSansCJKjp-Regular-3d52"/>
       <use xlink:href="#NotoSansCJKjp-Regular-2a9c" transform="translate(100 0)"/>
       <use xlink:href="#NotoSansCJKjp-Regular-269b" transform="translate(200 0)"/>
       <use xlink:href="#NotoSansCJKjp-Regular-e6ae" transform="translate(300 0)"/>
       <use xlink:href="#NotoSansCJKjp-Regular-17" transform="translate(400 0)"/>
       <use xlink:href="#NotoSansCJKjp-Regular-10" transform="translate(455.5 0)"/>
       <use xlink:href="#NotoSansCJKjp-Regular-15" transform="translate(494.703125 0)"/>
       <use xlink:href="#NotoSansCJKjp-Regular-1" transform="translate(550.203125 0)"/>
       <use xlink:href="#NotoSansCJKjp-Regular-59f2" transform="translate(572.609375 0)"/>
       <use xlink:href="#NotoSansCJKjp-Regular-4fea" transform="translate(672.609375 0)"/>
       <use xlink:href="#NotoSansCJKjp-Regular-28a5" transform="translate(772.609375 0)"/>
       <use xlink:href="#NotoSansCJKjp-Regular-e6af" transform="translate(872.609375 0)"/>
      </g>
     </g>
    </g>
    <g id="xtick_2">
     <g id="line2d_2">
      <g>
       <use xlink:href="#m172a2ab780" x="507.461899" y="217.436546" style="fill: #333333; stroke: #333333; stroke-width: 0.8"/>
      </g>
     </g>
     <g id="text_2">
      <!-- 对监管（6/12 辩护） -->
      <g style="fill: #333333" transform="translate(463.376704 232.796546) scale(0.095 -0.095)">
       <defs>
        <path id="NotoSansCJKjp-Regular-6caa" d="M 4058 3334 
C 4512 3014 5075 2560 5338 2259 
L 5722 2554 
C 5440 2848 4877 3290 4422 3590 
L 4058 3334 
z
M 2029 5357 
L 2029 2310 
L 2509 2310 
L 2509 5357 
L 2029 5357 
z
M 774 5139 
L 774 2515 
L 1242 2515 
L 1242 5139 
L 774 5139 
z
M 3942 5363 
C 3712 4422 3296 3526 2746 2963 
C 2861 2893 3066 2746 3142 2675 
C 3462 3034 3744 3507 3981 4038 
L 6042 4038 
L 6042 4474 
L 4160 4474 
C 4256 4730 4339 4998 4410 5274 
L 3942 5363 
z
M 1024 1926 
L 1024 96 
L 294 96 
L 294 -339 
L 6125 -339 
L 6125 96 
L 5434 96 
L 5434 1926 
L 1024 1926 
z
M 1472 96 
L 1472 1510 
L 2330 1510 
L 2330 96 
L 1472 96 
z
M 2778 96 
L 2778 1510 
L 3648 1510 
L 3648 96 
L 2778 96 
z
M 4090 96 
L 4090 1510 
L 4966 1510 
L 4966 96 
L 4090 96 
z
" transform="scale(0.015625)"/>
        <path id="NotoSansCJKjp-Regular-7558" d="M 1453 2803 
L 1453 -518 
L 1907 -518 
L 1907 -301 
L 4922 -301 
L 4922 -506 
L 5402 -506 
L 5402 1075 
L 1907 1075 
L 1907 1517 
L 4992 1517 
L 4992 2803 
L 1453 2803 
z
M 4922 77 
L 1907 77 
L 1907 698 
L 4922 698 
L 4922 77 
z
M 3686 5408 
C 3558 5088 3360 4781 3117 4518 
L 3117 4883 
L 1427 4883 
C 1498 5018 1562 5152 1619 5286 
L 1171 5408 
C 973 4902 621 4403 243 4070 
C 352 4013 550 3878 640 3808 
C 826 3994 1018 4230 1190 4493 
L 1459 4493 
C 1587 4275 1715 4006 1760 3834 
L 2202 3962 
C 2150 4109 2054 4307 1946 4493 
L 3091 4493 
C 2963 4358 2829 4237 2688 4134 
L 2950 3994 
L 2950 3578 
L 525 3578 
L 525 2374 
L 979 2374 
L 979 3200 
L 5459 3200 
L 5459 2374 
L 5926 2374 
L 5926 3578 
L 3418 3578 
L 3418 4083 
L 3315 4083 
C 3443 4205 3565 4346 3680 4493 
L 4192 4493 
C 4371 4275 4550 3994 4634 3814 
L 5069 3962 
C 4998 4109 4864 4314 4717 4493 
L 6125 4493 
L 6125 4883 
L 3942 4883 
C 4019 5018 4090 5152 4147 5293 
L 3686 5408 
z
M 1907 2432 
L 4512 2432 
L 4512 1882 
L 1907 1882 
L 1907 2432 
z
" transform="scale(0.015625)"/>
        <path id="NotoSansCJKjp-Regular-12" d="M 563 0 
L 3136 0 
L 3136 486 
L 2195 486 
L 2195 4691 
L 1747 4691 
C 1491 4544 1190 4435 774 4358 
L 774 3987 
L 1613 3987 
L 1613 486 
L 563 486 
L 563 0 
z
" transform="scale(0.015625)"/>
        <path id="NotoSansCJKjp-Regular-13" d="M 282 0 
L 3232 0 
L 3232 506 
L 1933 506 
C 1696 506 1408 480 1165 461 
C 2266 1504 3008 2458 3008 3398 
C 3008 4230 2477 4774 1638 4774 
C 1043 4774 634 4506 256 4090 
L 595 3757 
C 858 4070 1184 4301 1568 4301 
C 2150 4301 2432 3910 2432 3373 
C 2432 2566 1754 1632 282 346 
L 282 0 
z
" transform="scale(0.015625)"/>
        <path id="NotoSansCJKjp-Regular-9c44" d="M 2611 5005 
C 2854 4646 3149 4166 3277 3866 
L 3661 4128 
C 3520 4416 3213 4877 2963 5222 
L 2611 5005 
z
M 570 3942 
C 691 3603 774 3149 781 2861 
L 1158 2944 
C 1146 3232 1050 3680 922 4013 
L 570 3942 
z
M 4179 3936 
C 4301 3597 4390 3142 4403 2854 
L 4781 2938 
C 4762 3232 4666 3674 4531 4013 
L 4179 3936 
z
M 2432 3373 
L 2432 2906 
L 3021 2906 
L 3021 723 
C 3021 429 2829 224 2714 141 
C 2797 58 2931 -128 2976 -237 
C 3053 -128 3194 -6 4077 717 
C 4026 800 3949 973 3904 1101 
L 3450 742 
L 3450 3373 
L 2432 3373 
z
M 883 5210 
C 992 5005 1114 4749 1197 4525 
L 339 4525 
L 339 4115 
L 2374 4115 
L 2374 4525 
L 1670 4525 
C 1581 4768 1434 5088 1286 5338 
L 883 5210 
z
M 365 1664 
L 365 1261 
L 1114 1261 
C 1082 762 934 179 365 -198 
C 461 -275 595 -422 659 -518 
C 1318 -45 1517 653 1562 1261 
L 2362 1261 
L 2362 1664 
L 1574 1664 
L 1574 2432 
L 2426 2432 
L 2426 2842 
L 1869 2842 
C 1978 3155 2099 3578 2202 3936 
L 1805 4038 
C 1747 3686 1606 3181 1498 2842 
L 275 2842 
L 275 2432 
L 1126 2432 
L 1126 1664 
L 365 1664 
z
M 4544 5248 
C 4666 5030 4787 4762 4877 4531 
L 3968 4531 
L 3968 4122 
L 6042 4122 
L 6042 4531 
L 5344 4531 
C 5248 4781 5094 5114 4941 5376 
L 4544 5248 
z
M 3974 1498 
L 3974 1088 
L 4787 1088 
L 4787 -512 
L 5242 -512 
L 5242 1088 
L 6048 1088 
L 6048 1498 
L 5242 1498 
L 5242 2413 
L 6131 2413 
L 6131 2816 
L 5523 2816 
C 5645 3149 5786 3584 5901 3955 
L 5491 4051 
C 5421 3693 5274 3168 5146 2816 
L 3885 2816 
L 3885 2413 
L 4787 2413 
L 4787 1498 
L 3974 1498 
z
" transform="scale(0.015625)"/>
        <path id="NotoSansCJKjp-Regular-4949" d="M 1203 5370 
L 1203 4083 
L 346 4083 
L 346 3622 
L 1203 3622 
L 1203 2240 
C 845 2138 512 2042 243 1978 
L 378 1504 
L 1203 1754 
L 1203 90 
C 1203 0 1171 -26 1088 -26 
C 1011 -32 749 -32 454 -26 
C 525 -160 576 -365 602 -486 
C 1030 -486 1286 -474 1446 -397 
C 1613 -320 1670 -179 1670 90 
L 1670 1901 
L 2451 2144 
L 2381 2586 
L 1670 2374 
L 1670 3622 
L 2413 3622 
L 2413 4083 
L 1670 4083 
L 1670 5370 
L 1203 5370 
z
M 3782 5190 
C 4013 4902 4262 4531 4378 4269 
L 2861 4269 
L 2861 2560 
C 2861 1702 2778 595 2067 -186 
C 2176 -256 2374 -429 2451 -525 
C 3117 205 3296 1267 3334 2157 
L 5440 2157 
L 5440 1754 
L 5920 1754 
L 5920 4269 
L 4390 4269 
L 4826 4461 
C 4710 4710 4461 5075 4211 5357 
L 3782 5190 
z
M 5440 2611 
L 3341 2611 
L 3341 3834 
L 5440 3834 
L 5440 2611 
z
" transform="scale(0.015625)"/>
       </defs>
       <use xlink:href="#NotoSansCJKjp-Regular-3d52"/>
       <use xlink:href="#NotoSansCJKjp-Regular-6caa" transform="translate(100 0)"/>
       <use xlink:href="#NotoSansCJKjp-Regular-7558" transform="translate(200 0)"/>
       <use xlink:href="#NotoSansCJKjp-Regular-e6ae" transform="translate(300 0)"/>
       <use xlink:href="#NotoSansCJKjp-Regular-17" transform="translate(400 0)"/>
       <use xlink:href="#NotoSansCJKjp-Regular-10" transform="translate(455.5 0)"/>
       <use xlink:href="#NotoSansCJKjp-Regular-12" transform="translate(494.703125 0)"/>
       <use xlink:href="#NotoSansCJKjp-Regular-13" transform="translate(550.203125 0)"/>
       <use xlink:href="#NotoSansCJKjp-Regular-1" transform="translate(605.703125 0)"/>
       <use xlink:href="#NotoSansCJKjp-Regular-9c44" transform="translate(628.109375 0)"/>
       <use xlink:href="#NotoSansCJKjp-Regular-4949" transform="translate(728.109375 0)"/>
       <use xlink:href="#NotoSansCJKjp-Regular-e6af" transform="translate(828.109375 0)"/>
      </g>
     </g>
    </g>
   </g>
   <g id="matplotlib.axis_2">
    <g id="ytick_1">
     <g id="line2d_3">
      <path d="M 30.0175 217.436546 
L 631.8975 217.436546 
" clip-path="url(#p9cdc5a6614)" style="fill: none; stroke-dasharray: 2.96,1.28; stroke-dashoffset: 0; stroke: #b0b0b0; stroke-opacity: 0.35; stroke-width: 0.8"/>
     </g>
     <g id="line2d_4">
      <defs>
       <path id="mdf591be685" d="M 0 0 
L -3.5 0 
" style="stroke: #333333; stroke-width: 0.8"/>
      </defs>
      <g>
       <use xlink:href="#mdf591be685" x="30.0175" y="217.436546" style="fill: #333333; stroke: #333333; stroke-width: 0.8"/>
      </g>
     </g>
     <g id="text_3">
      <!-- 0 -->
      <g style="fill: #333333" transform="translate(17.745 221.616546) scale(0.095 -0.095)">
       <defs>
        <path id="NotoSansCJKjp-Regular-11" d="M 1779 -83 
C 2669 -83 3238 723 3238 2362 
C 3238 3987 2669 4774 1779 4774 
C 883 4774 320 3987 320 2362 
C 320 723 883 -83 1779 -83 
z
M 1779 390 
C 1248 390 883 986 883 2362 
C 883 3731 1248 4314 1779 4314 
C 2310 4314 2675 3731 2675 2362 
C 2675 986 2310 390 1779 390 
z
" transform="scale(0.015625)"/>
       </defs>
       <use xlink:href="#NotoSansCJKjp-Regular-11"/>
      </g>
     </g>
    </g>
    <g id="ytick_2">
     <g id="line2d_5">
      <path d="M 30.0175 177.488975 
L 631.8975 177.488975 
" clip-path="url(#p9cdc5a6614)" style="fill: none; stroke-dasharray: 2.96,1.28; stroke-dashoffset: 0; stroke: #b0b0b0; stroke-opacity: 0.35; stroke-width: 0.8"/>
     </g>
     <g id="line2d_6">
      <g>
       <use xlink:href="#mdf591be685" x="30.0175" y="177.488975" style="fill: #333333; stroke: #333333; stroke-width: 0.8"/>
      </g>
     </g>
     <g id="text_4">
      <!-- 20 -->
      <g style="fill: #333333" transform="translate(12.4725 181.668975) scale(0.095 -0.095)">
       <use xlink:href="#NotoSansCJKjp-Regular-13"/>
       <use xlink:href="#NotoSansCJKjp-Regular-11" transform="translate(55.5 0)"/>
      </g>
     </g>
    </g>
    <g id="ytick_3">
     <g id="line2d_7">
      <path d="M 30.0175 137.541404 
L 631.8975 137.541404 
" clip-path="url(#p9cdc5a6614)" style="fill: none; stroke-dasharray: 2.96,1.28; stroke-dashoffset: 0; stroke: #b0b0b0; stroke-opacity: 0.35; stroke-width: 0.8"/>
     </g>
     <g id="line2d_8">
      <g>
       <use xlink:href="#mdf591be685" x="30.0175" y="137.541404" style="fill: #333333; stroke: #333333; stroke-width: 0.8"/>
      </g>
     </g>
     <g id="text_5">
      <!-- 40 -->
      <g style="fill: #333333" transform="translate(12.4725 141.721404) scale(0.095 -0.095)">
       <use xlink:href="#NotoSansCJKjp-Regular-15"/>
       <use xlink:href="#NotoSansCJKjp-Regular-11" transform="translate(55.5 0)"/>
      </g>
     </g>
    </g>
    <g id="ytick_4">
     <g id="line2d_9">
      <path d="M 30.0175 97.593832 
L 631.8975 97.593832 
" clip-path="url(#p9cdc5a6614)" style="fill: none; stroke-dasharray: 2.96,1.28; stroke-dashoffset: 0; stroke: #b0b0b0; stroke-opacity: 0.35; stroke-width: 0.8"/>
     </g>
     <g id="line2d_10">
      <g>
       <use xlink:href="#mdf591be685" x="30.0175" y="97.593832" style="fill: #333333; stroke: #333333; stroke-width: 0.8"/>
      </g>
     </g>
     <g id="text_6">
      <!-- 60 -->
      <g style="fill: #333333" transform="translate(12.4725 101.773832) scale(0.095 -0.095)">
       <use xlink:href="#NotoSansCJKjp-Regular-17"/>
       <use xlink:href="#NotoSansCJKjp-Regular-11" transform="translate(55.5 0)"/>
      </g>
     </g>
    </g>
    <g id="ytick_5">
     <g id="line2d_11">
      <path d="M 30.0175 57.646261 
L 631.8975 57.646261 
" clip-path="url(#p9cdc5a6614)" style="fill: none; stroke-dasharray: 2.96,1.28; stroke-dashoffset: 0; stroke: #b0b0b0; stroke-opacity: 0.35; stroke-width: 0.8"/>
     </g>
     <g id="line2d_12">
      <g>
       <use xlink:href="#mdf591be685" x="30.0175" y="57.646261" style="fill: #333333; stroke: #333333; stroke-width: 0.8"/>
      </g>
     </g>
     <g id="text_7">
      <!-- 80 -->
      <g style="fill: #333333" transform="translate(12.4725 61.826261) scale(0.095 -0.095)">
       <defs>
        <path id="NotoSansCJKjp-Regular-19" d="M 1792 -83 
C 2669 -83 3258 448 3258 1126 
C 3258 1773 2880 2125 2470 2362 
L 2470 2394 
C 2746 2611 3091 3034 3091 3526 
C 3091 4250 2605 4762 1805 4762 
C 1075 4762 518 4282 518 3571 
C 518 3078 813 2726 1152 2490 
L 1152 2464 
C 723 2234 294 1792 294 1165 
C 294 442 922 -83 1792 -83 
z
M 2112 2547 
C 1555 2765 1050 3014 1050 3571 
C 1050 4026 1363 4326 1798 4326 
C 2298 4326 2592 3962 2592 3494 
C 2592 3149 2426 2829 2112 2547 
z
M 1798 352 
C 1235 352 813 717 813 1216 
C 813 1664 1082 2035 1459 2278 
C 2125 2010 2701 1779 2701 1146 
C 2701 678 2342 352 1798 352 
z
" transform="scale(0.015625)"/>
       </defs>
       <use xlink:href="#NotoSansCJKjp-Regular-19"/>
       <use xlink:href="#NotoSansCJKjp-Regular-11" transform="translate(55.5 0)"/>
      </g>
     </g>
    </g>
    <g id="ytick_6">
     <g id="line2d_13">
      <path d="M 30.0175 17.698689 
L 631.8975 17.698689 
" clip-path="url(#p9cdc5a6614)" style="fill: none; stroke-dasharray: 2.96,1.28; stroke-dashoffset: 0; stroke: #b0b0b0; stroke-opacity: 0.35; stroke-width: 0.8"/>
     </g>
     <g id="line2d_14">
      <g>
       <use xlink:href="#mdf591be685" x="30.0175" y="17.698689" style="fill: #333333; stroke: #333333; stroke-width: 0.8"/>
      </g>
     </g>
     <g id="text_8">
      <!-- 100 -->
      <g style="fill: #333333" transform="translate(7.2 21.878689) scale(0.095 -0.095)">
       <use xlink:href="#NotoSansCJKjp-Regular-12"/>
       <use xlink:href="#NotoSansCJKjp-Regular-11" transform="translate(55.5 0)"/>
       <use xlink:href="#NotoSansCJKjp-Regular-11" transform="translate(111 0)"/>
      </g>
     </g>
    </g>
   </g>
   <g id="patch_3">
    <path d="M 30.0175 217.436546 
L 30.0175 7.711796 
" style="fill: none; stroke: #000000; stroke-width: 0.8; stroke-linejoin: miter; stroke-linecap: square"/>
   </g>
   <g id="patch_4">
    <path d="M 30.0175 217.436546 
L 631.8975 217.436546 
" style="fill: none; stroke: #000000; stroke-width: 0.8; stroke-linejoin: miter; stroke-linecap: square"/>
   </g>
   <g id="patch_5">
    <path d="M 57.375682 217.436546 
L 251.530521 217.436546 
L 251.530521 17.698689 
L 57.375682 17.698689 
z
" clip-path="url(#p9cdc5a6614)" style="fill: #1a56db"/>
   </g>
   <g id="patch_6">
    <path d="M 410.384479 217.436546 
L 604.539318 217.436546 
L 604.539318 207.449654 
L 410.384479 207.449654 
z
" clip-path="url(#p9cdc5a6614)" style="fill: #1a56db"/>
   </g>
   <g id="text_9">
    <!-- 100 -->
    <g transform="translate(146.045601 15.56) scale(0.095 -0.095)">
     <defs>
      <path id="NotoSansCJKjp-Bold-12" d="M 525 0 
L 3373 0 
L 3373 768 
L 2483 768 
L 2483 4742 
L 1786 4742 
C 1485 4550 1165 4429 685 4346 
L 685 3757 
L 1549 3757 
L 1549 768 
L 525 768 
L 525 0 
z
" transform="scale(0.015625)"/>
      <path id="NotoSansCJKjp-Bold-11" d="M 1888 -90 
C 2854 -90 3494 755 3494 2394 
C 3494 4019 2854 4826 1888 4826 
C 922 4826 282 4026 282 2394 
C 282 755 922 -90 1888 -90 
z
M 1888 646 
C 1478 646 1171 1056 1171 2394 
C 1171 3712 1478 4102 1888 4102 
C 2298 4102 2598 3712 2598 2394 
C 2598 1056 2298 646 1888 646 
z
" transform="scale(0.015625)"/>
     </defs>
     <use xlink:href="#NotoSansCJKjp-Bold-12"/>
     <use xlink:href="#NotoSansCJKjp-Bold-11" transform="translate(59 0)"/>
     <use xlink:href="#NotoSansCJKjp-Bold-11" transform="translate(118 0)"/>
    </g>
   </g>
   <g id="text_10">
    <!-- 5 -->
    <g transform="translate(504.659399 205.310964) scale(0.095 -0.095)">
     <defs>
      <path id="NotoSansCJKjp-Bold-16" d="M 1773 -90 
C 2637 -90 3424 518 3424 1574 
C 3424 2605 2765 3072 1965 3072 
C 1747 3072 1581 3034 1395 2944 
L 1485 3949 
L 3206 3949 
L 3206 4742 
L 672 4742 
L 544 2438 
L 973 2163 
C 1254 2342 1408 2406 1683 2406 
C 2157 2406 2483 2099 2483 1549 
C 2483 992 2138 678 1645 678 
C 1210 678 870 896 602 1158 
L 166 557 
C 525 205 1018 -90 1773 -90 
z
" transform="scale(0.015625)"/>
     </defs>
     <use xlink:href="#NotoSansCJKjp-Bold-16"/>
    </g>
   </g>
  </g>
 </g>
 <defs>
  <clipPath id="p9cdc5a6614">
   <rect x="30.0175" y="7.711796" width="601.88" height="209.72475"/>
  </clipPath>
 </defs>
</svg>
