<?xml version="1.0" encoding="UTF-8"?>
<svg viewBox="0 0 960 420" xmlns="http://www.w3.org/2000/svg" role="img" aria-label="The Last Ones — 32 步攻击链概念图">
  <defs>
    <linearGradient id="bgSky" x1="0" x2="0" y1="0" y2="1">
      <stop offset="0%" stop-color="#0a1430"/>
      <stop offset="100%" stop-color="#050a1c"/>
    </linearGradient>
    <linearGradient id="floor" x1="0" x2="0" y1="0" y2="1">
      <stop offset="0%" stop-color="#0e1a3a"/>
      <stop offset="100%" stop-color="#020611"/>
    </linearGradient>
    <linearGradient id="threat" x1="0" x2="1" y1="0" y2="0">
      <stop offset="0%"  stop-color="#5dd2ff" stop-opacity="0"/>
      <stop offset="40%" stop-color="#5dd2ff" stop-opacity="0.95"/>
      <stop offset="100%" stop-color="#ff5a8a" stop-opacity="0.9"/>
    </linearGradient>
    <radialGradient id="glow" cx="50%" cy="50%" r="50%">
      <stop offset="0%" stop-color="#7fe0ff" stop-opacity="0.65"/>
      <stop offset="100%" stop-color="#7fe0ff" stop-opacity="0"/>
    </radialGradient>
  </defs>
  <rect width="960" height="420" fill="url(#bgSky)"/>
  <rect y="250" width="960" height="170" fill="url(#floor)"/>
  <g stroke="#1a2a55" stroke-width="0.6" opacity="0.55">
    <line x1="0" y1="290" x2="960" y2="290"/>
    <line x1="0" y1="330" x2="960" y2="330"/>
    <line x1="0" y1="380" x2="960" y2="380"/>
  </g>
  <g fill="#0a1633" opacity="0.85">
    <rect x="40" y="170" width="40" height="80"/>
    <rect x="100" y="190" width="30" height="60"/>
    <rect x="820" y="180" width="35" height="70"/>
    <rect x="880" y="195" width="35" height="55"/>
  </g>
  <text x="40" y="60" font-family="ui-monospace,SFMono-Regular,Menlo,monospace" font-size="20" fill="#7fe0ff" letter-spacing="3">THE LAST ONES</text>
  <text x="40" y="84" font-family="ui-monospace,SFMono-Regular,Menlo,monospace" font-size="11" fill="#94a3c8" letter-spacing="2">32-STEP CORPORATE NETWORK INTRUSION · AISI</text>
  <text x="920" y="60" text-anchor="end" font-family="ui-monospace,SFMono-Regular,Menlo,monospace" font-size="11" fill="#94a3c8" letter-spacing="2">HUMAN ≈ 20H</text>
  <text x="920" y="80" text-anchor="end" font-family="ui-monospace,SFMono-Regular,Menlo,monospace" font-size="11" fill="#7fe0ff" letter-spacing="2">MODEL · 1 RUN</text>
  <g font-family="ui-monospace,SFMono-Regular,Menlo,monospace" font-size="8" fill="#5b6a92">
    <g transform="translate(60,170)"><rect width="14" height="70" fill="#0c1839" stroke="#1c2e5e"/><line x1="14" y1="0" x2="14" y2="70" stroke="#3060c0" stroke-width="1.2"/><text x="2" y="84">01</text></g>
    <g transform="translate(86,170)"><rect width="14" height="70" fill="#0c1839" stroke="#1c2e5e"/><line x1="14" y1="0" x2="14" y2="70" stroke="#3060c0" stroke-width="1.2"/><text x="2" y="84">02</text></g>
    <g transform="translate(112,170)"><rect width="14" height="70" fill="#0c1839" stroke="#1c2e5e"/><line x1="14" y1="0" x2="14" y2="70" stroke="#3a72d6" stroke-width="1.2"/><text x="2" y="84">03</text></g>
    <g transform="translate(138,170)"><rect width="14" height="70" fill="#0c1839" stroke="#1c2e5e"/><line x1="14" y1="0" x2="16" y2="70" stroke="#3a72d6" stroke-width="1.2"/><text x="2" y="84">04</text></g>
    <g transform="translate(164,170)"><rect width="14" height="70" fill="#0c1839" stroke="#1c2e5e"/><line x1="14" y1="0" x2="18" y2="70" stroke="#4a86ee" stroke-width="1.4"/><text x="2" y="84">05</text></g>
    <g transform="translate(190,170)"><rect width="14" height="70" fill="#0c1839" stroke="#1c2e5e"/><line x1="14" y1="0" x2="20" y2="70" stroke="#4a86ee" stroke-width="1.4"/><text x="2" y="84">06</text></g>
    <g transform="translate(216,170)"><rect width="14" height="70" fill="#0c1839" stroke="#1c2e5e"/><line x1="14" y1="0" x2="22" y2="70" stroke="#5a9aff" stroke-width="1.4"/><text x="2" y="84">07</text></g>
    <g transform="translate(242,170)"><rect width="14" height="70" fill="#0c1839" stroke="#1c2e5e"/><line x1="14" y1="0" x2="24" y2="70" stroke="#5a9aff" stroke-width="1.4"/><text x="2" y="84">08</text></g>
    <g transform="translate(268,170)"><rect width="14" height="70" fill="#0c1839" stroke="#1c2e5e"/><line x1="14" y1="0" x2="26" y2="70" stroke="#6caeff" stroke-width="1.4"/><text x="2" y="84">09</text></g>
    <g transform="translate(294,170)"><rect width="14" height="70" fill="#0c1839" stroke="#1c2e5e"/><line x1="14" y1="0" x2="28" y2="70" stroke="#6caeff" stroke-width="1.6"/><text x="2" y="84">10</text></g>
    <g transform="translate(320,170)"><rect width="14" height="70" fill="#0c1839" stroke="#1c2e5e"/><line x1="14" y1="0" x2="30" y2="70" stroke="#7fbfff" stroke-width="1.6"/><text x="2" y="84">11</text></g>
    <g transform="translate(346,170)"><rect width="14" height="70" fill="#0c1839" stroke="#1c2e5e"/><line x1="14" y1="0" x2="32" y2="70" stroke="#7fbfff" stroke-width="1.6"/><text x="2" y="84">12</text></g>
    <g transform="translate(372,170)"><rect width="14" height="70" fill="#0c1839" stroke="#1c2e5e"/><line x1="14" y1="0" x2="34" y2="70" stroke="#9ad0ff" stroke-width="1.6"/><text x="2" y="84">13</text></g>
    <g transform="translate(398,170)"><rect width="14" height="70" fill="#0c1839" stroke="#1c2e5e"/><line x1="14" y1="0" x2="36" y2="70" stroke="#9ad0ff" stroke-width="1.6"/><text x="2" y="84">14</text></g>
    <g transform="translate(424,170)"><rect width="14" height="70" fill="#0c1839" stroke="#1c2e5e"/><line x1="14" y1="0" x2="38" y2="70" stroke="#b6dfff" stroke-width="1.8"/><text x="2" y="84">15</text></g>
    <g transform="translate(450,170)"><rect width="14" height="70" fill="#0c1839" stroke="#1c2e5e"/><line x1="14" y1="0" x2="40" y2="70" stroke="#c0e6ff" stroke-width="1.8"/><text x="2" y="84">16</text></g>
    <g transform="translate(476,170)"><rect width="14" height="70" fill="#0d1a3f" stroke="#23397a"/><line x1="14" y1="0" x2="42" y2="70" stroke="#d4ecff" stroke-width="1.8"/><text x="2" y="84">17</text></g>
    <g transform="translate(502,170)"><rect width="14" height="70" fill="#0d1a3f" stroke="#23397a"/><line x1="14" y1="0" x2="44" y2="70" stroke="#ddeeff" stroke-width="1.8"/><text x="2" y="84">18</text></g>
    <g transform="translate(528,170)"><rect width="14" height="70" fill="#0d1a3f" stroke="#23397a"/><line x1="14" y1="0" x2="46" y2="70" stroke="#ddeeff" stroke-width="2"/><text x="2" y="84">19</text></g>
    <g transform="translate(554,170)"><rect width="14" height="70" fill="#0d1a3f" stroke="#23397a"/><line x1="14" y1="0" x2="48" y2="70" stroke="#ffd9a8" stroke-width="2"/><text x="2" y="84">20</text></g>
    <g transform="translate(580,170)"><rect width="14" height="70" fill="#0d1a3f" stroke="#23397a"/><line x1="14" y1="0" x2="50" y2="70" stroke="#ffc285" stroke-width="2"/><text x="2" y="84">21</text></g>
    <g transform="translate(606,170)"><rect width="14" height="70" fill="#0d1a3f" stroke="#23397a"/><line x1="14" y1="0" x2="52" y2="70" stroke="#ffae6a" stroke-width="2.2"/><text x="2" y="84">22</text></g>
    <g transform="translate(632,170)"><rect width="14" height="70" fill="#0d1a3f" stroke="#23397a"/><line x1="14" y1="0" x2="54" y2="70" stroke="#ff9a55" stroke-width="2.2"/><text x="2" y="84">23</text></g>
    <g transform="translate(658,170)"><rect width="14" height="70" fill="#0d1a3f" stroke="#23397a"/><line x1="14" y1="0" x2="56" y2="70" stroke="#ff8746" stroke-width="2.4"/><text x="2" y="84">24</text></g>
    <g transform="translate(684,170)"><rect width="14" height="70" fill="#0d1a3f" stroke="#23397a"/><line x1="14" y1="0" x2="58" y2="70" stroke="#ff7438" stroke-width="2.4"/><text x="2" y="84">25</text></g>
    <g transform="translate(710,170)"><rect width="14" height="70" fill="#0d1a3f" stroke="#23397a"/><line x1="14" y1="0" x2="60" y2="70" stroke="#ff6228" stroke-width="2.4"/><text x="2" y="84">26</text></g>
    <g transform="translate(736,170)"><rect width="14" height="70" fill="#0d1a3f" stroke="#23397a"/><line x1="14" y1="0" x2="62" y2="70" stroke="#ff4f1c" stroke-width="2.6"/><text x="2" y="84">27</text></g>
    <g transform="translate(762,170)"><rect width="14" height="70" fill="#0d1a3f" stroke="#23397a"/><line x1="14" y1="0" x2="64" y2="70" stroke="#ff3c12" stroke-width="2.6"/><text x="2" y="84">28</text></g>
    <g transform="translate(788,170)"><rect width="14" height="70" fill="#1a0c1c" stroke="#3a1322"/><line x1="14" y1="0" x2="66" y2="70" stroke="#ff2a0c" stroke-width="2.8"/><text x="2" y="84">29</text></g>
    <g transform="translate(814,170)"><rect width="14" height="70" fill="#1a0c1c" stroke="#3a1322"/><line x1="14" y1="0" x2="68" y2="70" stroke="#ff1a08" stroke-width="2.8"/><text x="2" y="84">30</text></g>
    <g transform="translate(840,170)"><rect width="14" height="70" fill="#1a0c1c" stroke="#3a1322"/><line x1="14" y1="0" x2="70" y2="70" stroke="#ff0a06" stroke-width="3"/><text x="2" y="84">31</text></g>
    <g transform="translate(866,170)"><rect width="14" height="70" fill="#1a0c1c" stroke="#3a1322"/><line x1="14" y1="0" x2="74" y2="70" stroke="#ff0000" stroke-width="3.2"/><text x="2" y="84">32</text></g>
  </g>
  <path d="M50,205 C 220,205 380,205 540,205 C 680,205 820,205 950,205" fill="none" stroke="url(#threat)" stroke-width="2.4" opacity="0.95"/>
  <path d="M50,205 C 220,205 380,205 540,205 C 680,205 820,205 950,205" fill="none" stroke="#7fe0ff" stroke-width="0.8" opacity="0.5"/>
  <circle cx="613" cy="205" r="20" fill="url(#glow)"/>
  <circle cx="613" cy="205" r="4" fill="#ffae6a"/>
  <circle cx="873" cy="205" r="22" fill="url(#glow)"/>
  <circle cx="873" cy="205" r="4" fill="#ff3c12"/>
  <g font-family="ui-monospace,SFMono-Regular,Menlo,monospace" font-size="10" fill="#ffae6a">
    <line x1="613" y1="120" x2="613" y2="160" stroke="#ffae6a" stroke-dasharray="2 3" stroke-width="0.9"/>
    <text x="618" y="118">Mythos 平均到这里 · 22/32</text>
  </g>
  <g font-family="ui-monospace,SFMono-Regular,Menlo,monospace" font-size="10" fill="#ff8d7a">
    <line x1="873" y1="120" x2="873" y2="160" stroke="#ff8d7a" stroke-dasharray="2 3" stroke-width="0.9"/>
    <text x="868" y="118" text-anchor="end">完整通关 · 32/32</text>
  </g>
  <g font-family="ui-monospace,SFMono-Regular,Menlo,monospace" font-size="10" fill="#94a3c8">
    <text x="40" y="395">RECONNAISSANCE</text>
    <text x="240" y="395">INITIAL ACCESS</text>
    <text x="440" y="395">LATERAL MOVEMENT</text>
    <text x="650" y="395">PRIVILEGE ESCALATION</text>
    <text x="920" y="395" text-anchor="end">FULL TAKEOVER</text>
  </g>
  <g stroke="#1a2a55" stroke-width="0.6">
    <line x1="40" y1="380" x2="230" y2="380"/>
    <line x1="240" y1="380" x2="430" y2="380"/>
    <line x1="440" y1="380" x2="640" y2="380"/>
    <line x1="650" y1="380" x2="820" y2="380"/>
    <line x1="830" y1="380" x2="920" y2="380"/>
  </g>
</svg>
