<?xml version="1.0" encoding="utf-8" standalone="no"?>
<!DOCTYPE svg PUBLIC "-//W3C//DTD SVG 1.1//EN"
  "http://www.w3.org/Graphics/SVG/1.1/DTD/svg11.dtd">
<svg xmlns:xlink="http://www.w3.org/1999/xlink" width="638.307187pt" height="241.724544pt" viewBox="0 0 638.307187 241.724544" xmlns="http://www.w3.org/2000/svg" version="1.1">
 <metadata>
  <rdf:RDF xmlns:dc="http://purl.org/dc/elements/1.1/" xmlns:cc="http://creativecommons.org/ns#" xmlns:rdf="http://www.w3.org/1999/02/22-rdf-syntax-ns#">
   <cc:Work>
    <dc:type rdf:resource="http://purl.org/dc/dcmitype/StillImage"/>
    <dc:date>2026-06-10T08:20:25.671714</dc:date>
    <dc:format>image/svg+xml</dc:format>
    <dc:creator>
     <cc:Agent>
      <dc:title>Matplotlib v3.9.4, https://matplotlib.org/</dc:title>
     </cc:Agent>
    </dc:creator>
   </cc:Work>
  </rdf:RDF>
 </metadata>
 <defs>
  <style type="text/css">*{stroke-linejoin: round; stroke-linecap: butt}</style>
 </defs>
 <g id="figure_1">
  <g id="patch_1">
   <path d="M 0 241.724544 
L 638.307187 241.724544 
L 638.307187 0 
L 0 0 
z
" style="fill: #ffffff"/>
  </g>
  <g id="axes_1">
   <g id="patch_2">
    <path d="M 24.727187 218.566341 
L 631.107188 218.566341 
L 631.107188 7.545091 
L 24.727187 7.545091 
z
" style="fill: #fafafa"/>
   </g>
   <g id="matplotlib.axis_1">
    <g id="xtick_1">
     <g id="line2d_1">
      <defs>
       <path id="me08198f919" d="M 0 0 
L 0 3.5 
" style="stroke: #333333; stroke-width: 0.8"/>
      </defs>
      <g>
       <use xlink:href="#me08198f919" x="111.738934" y="218.566341" style="fill: #333333; stroke: #333333; stroke-width: 0.8"/>
      </g>
     </g>
     <g id="text_1">
      <!-- SWE-bench Verified（旧卷） -->
      <g style="fill: #333333" transform="translate(47.723036 233.261341) scale(0.095 -0.095)">
       <defs>
        <path id="STHeitiTC-Medium-53" d="M 2317 4038 
Q 2061 4384 1881 4502 
Q 1702 4621 1462 4621 
Q 1222 4621 1059 4467 
Q 896 4314 896 4074 
Q 896 3834 1049 3654 
Q 1203 3475 1756 3068 
Q 2310 2662 2566 2304 
Q 2822 1946 2822 1549 
Q 2822 1030 2422 649 
Q 2022 269 1491 269 
Q 557 269 26 1312 
L 493 1581 
Q 909 806 1427 806 
Q 1760 806 1997 1017 
Q 2234 1229 2234 1510 
Q 2234 1792 2035 2045 
Q 1837 2298 1350 2666 
Q 864 3034 681 3226 
Q 499 3418 416 3635 
Q 333 3853 333 4070 
Q 333 4538 656 4861 
Q 979 5184 1491 5184 
Q 1888 5184 2182 4982 
Q 2477 4781 2758 4384 
L 2317 4038 
z
" transform="scale(0.015625)"/>
        <path id="STHeitiTC-Medium-57" d="M 5907 5069 
L 4563 269 
L 4403 269 
L 3072 3770 
L 1715 269 
L 1562 269 
L 243 5069 
L 813 5069 
L 1715 1754 
L 2995 5069 
L 3149 5069 
L 4416 1747 
L 5338 5069 
L 5907 5069 
z
" transform="scale(0.015625)"/>
        <path id="STHeitiTC-Medium-45" d="M 3245 4525 
L 1069 4525 
L 1069 3181 
L 3226 3181 
L 3226 2643 
L 1069 2643 
L 1069 928 
L 3226 928 
L 3226 384 
L 518 384 
L 518 5069 
L 3245 5069 
L 3245 4525 
z
" transform="scale(0.015625)"/>
        <path id="STHeitiTC-Medium-2d" d="M 1965 2067 
L 160 2067 
L 160 2541 
L 1965 2541 
L 1965 2067 
z
" transform="scale(0.015625)"/>
        <path id="STHeitiTC-Medium-62" d="M 992 3360 
Q 1536 3962 2297 3962 
Q 3059 3962 3580 3421 
Q 4102 2880 4102 2118 
Q 4102 1357 3571 813 
Q 3040 269 2288 269 
Q 1536 269 992 922 
L 992 384 
L 474 384 
L 474 5184 
L 992 5184 
L 992 3360 
z
M 2266 781 
Q 2810 781 3190 1184 
Q 3571 1587 3571 2128 
Q 3571 2669 3200 3072 
Q 2829 3475 2272 3475 
Q 1715 3475 1340 3097 
Q 966 2720 966 2147 
Q 966 1574 1344 1177 
Q 1722 781 2266 781 
z
" transform="scale(0.015625)"/>
        <path id="STHeitiTC-Medium-65" d="M 3878 2035 
L 819 2035 
Q 851 1459 1206 1110 
Q 1562 762 2054 762 
Q 2893 762 3334 1587 
L 3782 1357 
Q 3482 800 3072 534 
Q 2662 269 2093 269 
Q 1306 269 794 809 
Q 282 1350 282 2112 
Q 282 2874 797 3418 
Q 1312 3962 2073 3962 
Q 2835 3962 3347 3446 
Q 3859 2931 3878 2035 
z
M 3290 2502 
Q 3194 2950 2854 3200 
Q 2515 3450 2074 3450 
Q 1178 3450 883 2502 
L 3290 2502 
z
" transform="scale(0.015625)"/>
        <path id="STHeitiTC-Medium-6e" d="M 3501 384 
L 2976 384 
L 2976 2048 
Q 2976 2624 2921 2832 
Q 2867 3040 2761 3184 
Q 2656 3328 2493 3398 
Q 2330 3469 2096 3469 
Q 1862 3469 1638 3353 
Q 1414 3238 1254 3033 
Q 1094 2829 1033 2598 
Q 973 2368 973 1677 
L 973 384 
L 442 384 
L 442 3872 
L 973 3872 
L 973 3347 
Q 1491 3962 2202 3962 
Q 2579 3962 2886 3766 
Q 3194 3571 3347 3228 
Q 3501 2886 3501 2176 
L 3501 384 
z
" transform="scale(0.015625)"/>
        <path id="STHeitiTC-Medium-63" d="M 3853 1094 
Q 3578 691 3133 480 
Q 2688 269 2170 269 
Q 1363 269 822 800 
Q 282 1331 282 2099 
Q 282 2867 826 3414 
Q 1370 3962 2234 3962 
Q 2746 3962 3178 3738 
Q 3610 3514 3853 3110 
L 3437 2848 
Q 2970 3456 2214 3456 
Q 1619 3456 1216 3075 
Q 813 2694 813 2131 
Q 813 1568 1209 1165 
Q 1606 762 2214 762 
Q 2944 762 3443 1376 
L 3853 1094 
z
" transform="scale(0.015625)"/>
        <path id="STHeitiTC-Medium-68" d="M 3501 384 
L 2970 384 
L 2970 2048 
Q 2970 2534 2941 2732 
Q 2912 2931 2809 3107 
Q 2707 3283 2531 3376 
Q 2355 3469 2108 3469 
Q 1862 3469 1638 3353 
Q 1414 3238 1254 3033 
Q 1094 2829 1033 2598 
Q 973 2368 973 1677 
L 973 384 
L 442 384 
L 442 5184 
L 973 5184 
L 973 3347 
Q 1491 3962 2202 3962 
Q 2579 3962 2886 3766 
Q 3194 3571 3347 3228 
Q 3501 2886 3501 2176 
L 3501 384 
z
" transform="scale(0.015625)"/>
        <path id="STHeitiTC-Medium-20" transform="scale(0.015625)"/>
        <path id="STHeitiTC-Medium-56" d="M 4346 5069 
L 2304 269 
L 2157 269 
L 147 5069 
L 736 5069 
L 2234 1466 
L 3757 5069 
L 4346 5069 
z
" transform="scale(0.015625)"/>
        <path id="STHeitiTC-Medium-72" d="M 1914 3821 
L 1638 3373 
Q 1530 3430 1427 3430 
Q 1229 3430 1069 3235 
Q 909 3040 829 2723 
Q 749 2406 749 1581 
L 749 384 
L 211 384 
L 211 3872 
L 749 3872 
L 749 3494 
Q 909 3731 1072 3846 
Q 1235 3962 1443 3962 
Q 1651 3962 1914 3821 
z
" transform="scale(0.015625)"/>
        <path id="STHeitiTC-Medium-69" d="M 640 5184 
Q 813 5184 931 5065 
Q 1050 4947 1050 4777 
Q 1050 4608 931 4489 
Q 813 4371 643 4371 
Q 474 4371 355 4492 
Q 237 4614 237 4777 
Q 237 4941 355 5062 
Q 474 5184 640 5184 
z
M 909 384 
L 378 384 
L 378 3872 
L 909 3872 
L 909 384 
z
" transform="scale(0.015625)"/>
        <path id="STHeitiTC-Medium-66" d="M 1933 4557 
Q 1626 4685 1453 4685 
Q 1280 4685 1229 4573 
Q 1178 4461 1178 4198 
L 1178 3872 
L 1888 3872 
L 1888 3411 
L 1178 3411 
L 1178 384 
L 646 384 
L 646 3411 
L 205 3411 
L 205 3872 
L 646 3872 
L 646 4269 
Q 646 4742 822 4963 
Q 998 5184 1376 5184 
Q 1581 5184 1933 5088 
L 1933 4557 
z
" transform="scale(0.015625)"/>
        <path id="STHeitiTC-Medium-64" d="M 3923 384 
L 3405 384 
L 3405 896 
Q 2835 269 2089 269 
Q 1344 269 819 813 
Q 294 1357 294 2118 
Q 294 2880 825 3421 
Q 1357 3962 2121 3962 
Q 2886 3962 3405 3341 
L 3405 5184 
L 3923 5184 
L 3923 384 
z
M 2131 762 
Q 2637 762 3033 1139 
Q 3430 1517 3430 2096 
Q 3430 2675 3062 3062 
Q 2694 3450 2134 3450 
Q 1574 3450 1200 3050 
Q 826 2650 826 2109 
Q 826 1568 1210 1165 
Q 1594 762 2131 762 
z
" transform="scale(0.015625)"/>
        <path id="STHeitiTC-Medium-ff08" d="M 5651 -749 
L 5274 -749 
Q 4646 173 4409 835 
Q 4173 1498 4173 2266 
Q 4173 3034 4432 3750 
Q 4691 4467 5254 5267 
L 5645 5267 
Q 5082 4237 4928 3606 
Q 4774 2976 4774 2093 
Q 4774 1472 4953 861 
Q 5133 250 5651 -749 
z
" transform="scale(0.015625)"/>
        <path id="STHeitiTC-Medium-65e7" d="M 1498 4525 
Q 1446 4493 1424 4387 
Q 1402 4282 1402 4038 
L 1402 640 
Q 1402 365 1421 83 
Q 1440 -198 1472 -544 
L 806 -544 
Q 838 -198 851 77 
Q 864 352 864 640 
L 864 3718 
Q 864 4416 806 4678 
Q 973 4659 1126 4652 
Q 1280 4646 1453 4659 
Q 1562 4666 1578 4630 
Q 1594 4595 1498 4525 
z
M 2784 -646 
L 2195 -646 
Q 2227 -339 2236 -73 
Q 2246 192 2246 493 
L 2246 3821 
Q 2246 4058 2230 4291 
Q 2214 4525 2189 4646 
Q 2291 4634 2432 4624 
Q 2573 4614 2774 4611 
Q 2976 4608 3248 4605 
Q 3520 4602 3891 4602 
Q 4262 4602 4537 4605 
Q 4813 4608 5014 4614 
Q 5216 4621 5353 4627 
Q 5491 4634 5587 4646 
Q 5562 4531 5546 4294 
Q 5530 4058 5530 3821 
L 5530 442 
Q 5530 179 5542 -48 
Q 5555 -275 5587 -544 
L 4979 -544 
L 4979 -70 
L 2784 -70 
L 2784 -646 
z
M 4979 4115 
L 2784 4115 
L 2784 2586 
L 4979 2586 
L 4979 4115 
z
M 2784 410 
L 4979 410 
L 4979 2106 
L 2784 2106 
L 2784 410 
z
" transform="scale(0.015625)"/>
        <path id="STHeitiTC-Medium-5377" d="M 1606 3910 
Q 1478 4096 1318 4275 
Q 1158 4454 1011 4538 
L 1453 4883 
Q 1574 4749 1734 4592 
Q 1894 4435 2067 4288 
L 1606 3910 
z
M 5139 4685 
Q 5197 4666 5190 4614 
Q 5184 4563 5114 4538 
Q 5082 4525 5008 4470 
Q 4934 4416 4841 4333 
Q 4749 4250 4646 4147 
Q 4544 4045 4461 3942 
Q 4365 4026 4243 4096 
Q 4122 4166 3987 4218 
Q 4173 4384 4310 4557 
Q 4448 4730 4538 4941 
Q 4608 4902 4694 4860 
Q 4781 4819 4867 4784 
Q 4954 4749 5027 4720 
Q 5101 4691 5139 4685 
z
M 1702 1472 
Q 1498 1306 1254 1133 
Q 1011 960 704 762 
Q 646 870 544 982 
Q 442 1094 314 1184 
Q 870 1421 1280 1734 
Q 1690 2048 1978 2406 
Q 1530 2400 1155 2384 
Q 781 2368 448 2349 
L 448 2880 
Q 819 2848 1257 2838 
Q 1696 2829 2259 2829 
Q 2432 3123 2534 3443 
L 2112 3443 
Q 1907 3443 1737 3440 
Q 1568 3437 1414 3433 
Q 1261 3430 1110 3420 
Q 960 3411 794 3392 
L 794 3917 
Q 1158 3891 1593 3881 
Q 2029 3872 2630 3866 
Q 2701 4243 2723 4553 
Q 2746 4864 2714 5171 
Q 2790 5152 2886 5139 
Q 2982 5126 3078 5120 
Q 3174 5114 3264 5110 
Q 3354 5107 3411 5107 
Q 3462 5107 3465 5056 
Q 3469 5005 3430 4973 
Q 3398 4947 3366 4857 
Q 3334 4768 3309 4653 
Q 3245 4314 3123 3866 
Q 3526 3866 3859 3869 
Q 4192 3872 4473 3878 
Q 4755 3885 4998 3894 
Q 5242 3904 5453 3917 
L 5453 3392 
Q 5286 3405 5136 3414 
Q 4986 3424 4832 3430 
Q 4678 3437 4508 3440 
Q 4339 3443 4134 3443 
L 3002 3443 
Q 2950 3270 2896 3120 
Q 2842 2970 2778 2829 
L 4013 2829 
Q 4339 2829 4592 2832 
Q 4845 2835 5056 2838 
Q 5267 2842 5452 2851 
Q 5638 2861 5830 2880 
L 5830 2349 
Q 5664 2355 5494 2364 
Q 5325 2374 5139 2384 
Q 4954 2394 4739 2400 
Q 4525 2406 4269 2406 
Q 4518 2022 4982 1820 
Q 5446 1619 6086 1530 
Q 5971 1402 5904 1238 
Q 5837 1075 5818 915 
Q 5472 986 5113 1152 
Q 4755 1318 4448 1568 
L 4448 1210 
Q 4448 986 4416 832 
Q 4384 678 4259 572 
Q 4134 467 3891 393 
Q 3648 320 3226 262 
Q 3232 403 3187 572 
Q 3142 742 3046 870 
Q 3347 832 3526 835 
Q 3706 838 3798 896 
Q 3891 954 3916 1066 
Q 3942 1178 3942 1363 
L 2182 1363 
L 2182 160 
Q 2182 77 2188 22 
Q 2195 -32 2217 -64 
Q 2240 -96 2288 -115 
Q 2336 -134 2419 -141 
Q 2586 -160 2842 -169 
Q 3098 -179 3373 -172 
Q 3648 -166 3901 -150 
Q 4154 -134 4307 -102 
Q 4403 -83 4467 -44 
Q 4531 -6 4572 61 
Q 4614 128 4646 237 
Q 4678 346 4710 512 
Q 4832 378 4989 307 
Q 5146 237 5299 211 
Q 5242 -26 5181 -173 
Q 5120 -320 5027 -409 
Q 4934 -499 4790 -544 
Q 4646 -589 4422 -614 
Q 4307 -627 4115 -636 
Q 3923 -646 3692 -652 
Q 3462 -659 3219 -659 
Q 2976 -659 2761 -652 
Q 2547 -646 2380 -636 
Q 2214 -627 2138 -614 
Q 1984 -582 1897 -544 
Q 1811 -506 1766 -438 
Q 1722 -371 1712 -265 
Q 1702 -160 1702 13 
L 1702 1472 
z
M 2560 2406 
Q 2349 2061 2022 1754 
L 4243 1754 
Q 4102 1901 3990 2064 
Q 3878 2227 3808 2406 
L 2560 2406 
z
" transform="scale(0.015625)"/>
        <path id="STHeitiTC-Medium-ff09" d="M 1120 5267 
Q 1747 4346 1984 3683 
Q 2221 3021 2221 2253 
Q 2221 1485 1961 768 
Q 1702 51 1139 -749 
L 749 -749 
Q 1312 282 1465 912 
Q 1619 1542 1619 2426 
Q 1619 3046 1440 3657 
Q 1261 4269 742 5267 
L 1120 5267 
z
" transform="scale(0.015625)"/>
       </defs>
       <use xlink:href="#STHeitiTC-Medium-53"/>
       <use xlink:href="#STHeitiTC-Medium-57" x="49.799988"/>
       <use xlink:href="#STHeitiTC-Medium-45" x="145.799973"/>
       <use xlink:href="#STHeitiTC-Medium-2d" x="199.399963"/>
       <use xlink:href="#STHeitiTC-Medium-62" x="232.59996"/>
       <use xlink:href="#STHeitiTC-Medium-65" x="300.799942"/>
       <use xlink:href="#STHeitiTC-Medium-6e" x="365.799927"/>
       <use xlink:href="#STHeitiTC-Medium-63" x="426.799911"/>
       <use xlink:href="#STHeitiTC-Medium-68" x="491.499908"/>
       <use xlink:href="#STHeitiTC-Medium-20" x="552.499893"/>
       <use xlink:href="#STHeitiTC-Medium-56" x="577.499878"/>
       <use xlink:href="#STHeitiTC-Medium-65" x="647.69986"/>
       <use xlink:href="#STHeitiTC-Medium-72" x="712.699844"/>
       <use xlink:href="#STHeitiTC-Medium-69" x="742.799835"/>
       <use xlink:href="#STHeitiTC-Medium-66" x="762.79982"/>
       <use xlink:href="#STHeitiTC-Medium-69" x="794.199814"/>
       <use xlink:href="#STHeitiTC-Medium-65" x="814.199799"/>
       <use xlink:href="#STHeitiTC-Medium-64" x="879.199783"/>
       <use xlink:href="#STHeitiTC-Medium-ff08" x="947.699768"/>
       <use xlink:href="#STHeitiTC-Medium-65e7" x="1047.699753"/>
       <use xlink:href="#STHeitiTC-Medium-5377" x="1147.699738"/>
       <use xlink:href="#STHeitiTC-Medium-ff09" x="1247.699722"/>
      </g>
     </g>
    </g>
    <g id="xtick_2">
     <g id="line2d_2">
      <g>
       <use xlink:href="#me08198f919" x="327.917187" y="218.566341" style="fill: #333333; stroke: #333333; stroke-width: 0.8"/>
      </g>
     </g>
     <g id="text_2">
      <!-- SWE-bench Pro（去污染） -->
      <g style="fill: #333333" transform="translate(269.383086 233.261341) scale(0.095 -0.095)">
       <defs>
        <path id="STHeitiTC-Medium-50" d="M 512 5069 
L 1472 5069 
Q 2291 5069 2547 5005 
Q 2803 4941 3017 4774 
Q 3232 4608 3353 4358 
Q 3475 4109 3475 3795 
Q 3475 3482 3356 3232 
Q 3238 2982 3017 2819 
Q 2797 2656 2477 2589 
Q 2157 2522 1344 2522 
L 1062 2522 
L 1062 384 
L 512 384 
L 512 5069 
z
M 1062 3053 
L 1792 3053 
Q 2438 3040 2672 3257 
Q 2906 3475 2906 3802 
Q 2906 4531 1830 4531 
L 1062 4531 
L 1062 3053 
z
" transform="scale(0.015625)"/>
        <path id="STHeitiTC-Medium-6f" d="M 2099 3962 
Q 2854 3962 3382 3418 
Q 3910 2874 3910 2112 
Q 3910 1350 3388 809 
Q 2867 269 2099 269 
Q 1331 269 806 809 
Q 282 1350 282 2112 
Q 282 2874 810 3418 
Q 1338 3962 2099 3962 
z
M 2099 774 
Q 2630 774 3004 1161 
Q 3379 1549 3379 2096 
Q 3379 2643 2998 3043 
Q 2618 3443 2096 3443 
Q 1574 3443 1196 3043 
Q 819 2643 819 2092 
Q 819 1542 1184 1158 
Q 1549 774 2099 774 
z
" transform="scale(0.015625)"/>
        <path id="STHeitiTC-Medium-53bb" d="M 2957 3565 
Q 2310 3565 1859 3545 
Q 1408 3526 1050 3501 
L 1050 4090 
Q 1229 4077 1430 4064 
Q 1632 4051 1862 4041 
Q 2093 4032 2365 4029 
Q 2637 4026 2957 4026 
Q 2957 4288 2953 4477 
Q 2950 4666 2940 4797 
Q 2931 4928 2918 5014 
Q 2906 5101 2893 5158 
Q 3027 5133 3212 5120 
Q 3398 5107 3565 5101 
Q 3725 5101 3610 5005 
Q 3488 4902 3488 4634 
L 3488 4026 
Q 4096 4032 4525 4045 
Q 4954 4058 5299 4090 
L 5299 3501 
Q 4954 3533 4525 3545 
Q 4096 3558 3488 3565 
L 3488 2470 
Q 3910 2470 4265 2473 
Q 4621 2477 4925 2486 
Q 5229 2496 5491 2509 
Q 5754 2522 5990 2534 
L 5990 1946 
Q 5734 1965 5449 1974 
Q 5165 1984 4825 1993 
Q 4486 2003 4083 2006 
Q 3680 2010 3200 2010 
Q 2720 2010 2317 2006 
Q 1914 2003 1574 1993 
Q 1235 1984 950 1974 
Q 666 1965 410 1946 
L 410 2534 
Q 890 2502 1494 2486 
Q 2099 2470 2957 2470 
L 2957 3565 
z
M 4371 397 
Q 4186 640 4006 851 
Q 3827 1062 3648 1229 
L 4128 1504 
Q 4474 1139 4858 688 
Q 5242 237 5613 -262 
L 5037 -602 
Q 4947 -454 4857 -313 
Q 4768 -173 4678 -32 
L 2374 -211 
Q 1997 -243 1673 -300 
Q 1350 -358 1146 -429 
Q 1114 -275 1059 -124 
Q 1005 26 915 192 
Q 1005 198 1104 198 
Q 1203 198 1312 205 
Q 1472 371 1651 582 
Q 1830 794 2006 1030 
Q 2182 1267 2342 1510 
Q 2502 1754 2624 1984 
Q 2765 1914 2893 1850 
Q 3021 1786 3130 1734 
Q 3251 1683 3241 1648 
Q 3232 1613 3123 1562 
Q 3104 1549 3049 1494 
Q 2995 1440 2867 1299 
Q 2739 1158 2521 902 
Q 2304 646 1952 237 
Q 2259 256 2592 275 
Q 2925 294 3241 313 
Q 3558 333 3849 355 
Q 4141 378 4371 397 
z
" transform="scale(0.015625)"/>
        <path id="STHeitiTC-Medium-6c61" d="M 1843 1619 
Q 1779 1434 1705 1187 
Q 1632 941 1523 576 
Q 1446 294 1376 -6 
Q 1306 -307 1254 -621 
Q 1069 -493 909 -403 
Q 749 -314 582 -237 
Q 704 -13 813 272 
Q 922 557 1030 883 
Q 1107 1146 1174 1414 
Q 1242 1683 1293 1965 
Q 1395 1843 1532 1763 
Q 1670 1683 1843 1619 
z
M 1254 2310 
Q 1024 2528 803 2685 
Q 582 2842 352 2970 
L 691 3430 
Q 902 3302 1145 3145 
Q 1389 2989 1619 2835 
L 1254 2310 
z
M 3059 2797 
Q 2893 2797 2717 2790 
Q 2541 2784 2384 2774 
Q 2227 2765 2102 2755 
Q 1978 2746 1907 2733 
L 1907 3334 
Q 1990 3322 2105 3309 
Q 2221 3296 2441 3289 
Q 2662 3283 3030 3280 
Q 3398 3277 3981 3277 
Q 4794 3277 5318 3289 
Q 5843 3302 6048 3334 
L 6048 2733 
Q 5862 2758 5577 2777 
Q 5293 2797 4819 2797 
L 3603 2797 
L 3443 1805 
L 4666 1805 
Q 4858 1805 5104 1827 
Q 5350 1850 5536 1882 
Q 5485 1363 5443 1014 
Q 5402 666 5370 442 
Q 5338 218 5315 96 
Q 5293 -26 5274 -90 
Q 5197 -358 4889 -499 
Q 4582 -640 4026 -691 
Q 3994 -518 3914 -329 
Q 3834 -141 3706 51 
Q 3974 19 4153 19 
Q 4333 19 4448 48 
Q 4563 77 4624 128 
Q 4685 179 4710 256 
Q 4781 480 4825 723 
Q 4870 966 4877 1318 
L 3712 1318 
Q 3533 1318 3280 1299 
Q 3027 1280 2790 1248 
L 3059 2797 
z
M 1709 3770 
Q 1466 3981 1216 4160 
Q 966 4339 723 4480 
L 1120 4947 
Q 1370 4787 1632 4592 
Q 1894 4397 2080 4230 
L 1709 3770 
z
M 5594 4205 
Q 5286 4230 4905 4230 
Q 4525 4230 3962 4230 
Q 3398 4230 3017 4220 
Q 2637 4211 2330 4186 
L 2330 4787 
Q 2643 4762 3020 4749 
Q 3398 4736 3962 4736 
Q 4525 4736 4905 4749 
Q 5286 4762 5594 4787 
L 5594 4205 
z
" transform="scale(0.015625)"/>
        <path id="STHeitiTC-Medium-67d3" d="M 2150 2746 
Q 2042 2694 1894 2608 
Q 1747 2522 1504 2355 
Q 1293 2208 1136 2089 
Q 979 1971 838 1862 
Q 762 2003 672 2134 
Q 582 2266 474 2400 
Q 627 2445 870 2557 
Q 1114 2669 1350 2803 
Q 1542 2912 1724 3027 
Q 1907 3142 2016 3238 
Q 2016 3110 2054 2982 
Q 2093 2854 2150 2746 
z
M 1229 3168 
Q 1043 3302 816 3433 
Q 589 3565 365 3680 
L 653 4077 
Q 896 3955 1120 3830 
Q 1344 3706 1530 3578 
L 1229 3168 
z
M 1696 4064 
Q 1350 4346 877 4621 
L 1184 4973 
Q 1408 4858 1629 4733 
Q 1850 4608 2022 4493 
L 1696 4064 
z
M 3200 3878 
Q 2912 3853 2720 3824 
Q 2528 3795 2419 3770 
L 2387 4282 
Q 2579 4275 2796 4281 
Q 3014 4288 3219 4301 
Q 3226 4525 3216 4749 
Q 3206 4973 3194 5171 
Q 3354 5152 3542 5142 
Q 3731 5133 3834 5146 
Q 3955 5158 3840 5062 
Q 3757 4998 3750 4794 
Q 3744 4710 3741 4595 
Q 3738 4480 3725 4346 
Q 4128 4384 4445 4429 
Q 4762 4474 4998 4506 
Q 4973 4378 4960 4234 
Q 4947 4090 4941 3987 
L 4851 2867 
Q 4838 2720 4883 2675 
Q 4928 2630 5088 2618 
Q 5190 2611 5260 2630 
Q 5331 2650 5379 2720 
Q 5427 2790 5462 2928 
Q 5498 3066 5530 3302 
Q 5651 3187 5772 3110 
Q 5894 3034 6035 2976 
Q 5958 2694 5884 2528 
Q 5811 2362 5702 2272 
Q 5594 2182 5437 2153 
Q 5280 2125 5037 2125 
Q 4813 2125 4675 2144 
Q 4538 2163 4461 2224 
Q 4384 2285 4361 2390 
Q 4339 2496 4352 2669 
L 4448 3974 
L 3686 3917 
Q 3667 3706 3629 3501 
Q 3590 3245 3526 3059 
Q 3462 2874 3337 2710 
Q 3213 2547 3005 2380 
Q 2797 2214 2464 2003 
Q 2394 2093 2285 2195 
Q 2176 2298 2061 2374 
Q 2374 2515 2576 2646 
Q 2778 2778 2896 2922 
Q 3014 3066 3075 3235 
Q 3136 3405 3168 3616 
Q 3181 3680 3187 3744 
Q 3194 3808 3200 3878 
z
M 2912 1184 
Q 2714 883 2509 643 
Q 2304 403 2054 195 
Q 1805 -13 1501 -192 
Q 1197 -371 794 -544 
Q 736 -435 621 -310 
Q 506 -186 378 -90 
Q 736 26 1030 150 
Q 1325 275 1577 425 
Q 1830 576 2051 761 
Q 2272 947 2490 1184 
Q 1946 1184 1398 1171 
Q 851 1158 384 1126 
L 384 1658 
Q 845 1626 1459 1613 
Q 2074 1600 2918 1600 
Q 2912 1779 2896 1913 
Q 2880 2048 2854 2150 
Q 2918 2144 3001 2137 
Q 3085 2131 3171 2131 
Q 3258 2131 3341 2131 
Q 3424 2131 3482 2131 
Q 3552 2138 3558 2106 
Q 3565 2074 3494 2042 
Q 3462 2029 3443 1961 
Q 3424 1894 3424 1824 
L 3424 1600 
Q 4224 1606 4813 1619 
Q 5402 1632 5843 1658 
L 5843 1126 
Q 5446 1152 4924 1165 
Q 4403 1178 3853 1184 
Q 4557 320 5933 224 
Q 5792 83 5712 -70 
Q 5632 -224 5574 -429 
Q 5190 -320 4880 -179 
Q 4570 -38 4310 154 
Q 4051 346 3846 595 
Q 3642 845 3469 1184 
L 3424 1184 
L 3424 128 
Q 3424 -19 3430 -220 
Q 3437 -422 3469 -691 
L 2861 -691 
Q 2893 -410 2905 -214 
Q 2918 -19 2918 128 
L 2918 1184 
L 2912 1184 
z
" transform="scale(0.015625)"/>
       </defs>
       <use xlink:href="#STHeitiTC-Medium-53"/>
       <use xlink:href="#STHeitiTC-Medium-57" x="49.799988"/>
       <use xlink:href="#STHeitiTC-Medium-45" x="145.799973"/>
       <use xlink:href="#STHeitiTC-Medium-2d" x="199.399963"/>
       <use xlink:href="#STHeitiTC-Medium-62" x="232.59996"/>
       <use xlink:href="#STHeitiTC-Medium-65" x="300.799942"/>
       <use xlink:href="#STHeitiTC-Medium-6e" x="365.799927"/>
       <use xlink:href="#STHeitiTC-Medium-63" x="426.799911"/>
       <use xlink:href="#STHeitiTC-Medium-68" x="491.499908"/>
       <use xlink:href="#STHeitiTC-Medium-20" x="552.499893"/>
       <use xlink:href="#STHeitiTC-Medium-50" x="577.499878"/>
       <use xlink:href="#STHeitiTC-Medium-72" x="636.699875"/>
       <use xlink:href="#STHeitiTC-Medium-6f" x="666.799866"/>
       <use xlink:href="#STHeitiTC-Medium-ff08" x="732.29985"/>
       <use xlink:href="#STHeitiTC-Medium-53bb" x="832.299835"/>
       <use xlink:href="#STHeitiTC-Medium-6c61" x="932.29982"/>
       <use xlink:href="#STHeitiTC-Medium-67d3" x="1032.299805"/>
       <use xlink:href="#STHeitiTC-Medium-ff09" x="1132.299789"/>
      </g>
     </g>
    </g>
    <g id="xtick_3">
     <g id="line2d_3">
      <g>
       <use xlink:href="#me08198f919" x="544.095441" y="218.566341" style="fill: #333333; stroke: #333333; stroke-width: 0.8"/>
      </g>
     </g>
     <g id="text_3">
      <!-- 企业试点跑出回报的比例 -->
      <g style="fill: #333333" transform="translate(491.845441 233.261341) scale(0.095 -0.095)">
       <defs>
        <path id="STHeitiTC-Medium-4f01" d="M 3648 2048 
Q 3994 2048 4259 2051 
Q 4525 2054 4729 2060 
Q 4934 2067 5081 2080 
Q 5229 2093 5338 2106 
L 5338 1530 
Q 5229 1542 5081 1552 
Q 4934 1562 4729 1568 
Q 4525 1574 4259 1577 
Q 3994 1581 3648 1581 
L 3648 192 
Q 4026 192 4333 195 
Q 4640 198 4909 208 
Q 5178 218 5421 234 
Q 5664 250 5914 269 
L 5914 -371 
Q 5677 -352 5430 -339 
Q 5184 -326 4877 -316 
Q 4570 -307 4176 -304 
Q 3782 -301 3251 -301 
Q 2688 -301 2269 -304 
Q 1850 -307 1523 -316 
Q 1197 -326 937 -339 
Q 678 -352 442 -371 
L 442 269 
Q 794 237 1066 221 
Q 1338 205 1562 198 
L 1562 1517 
Q 1562 1754 1558 1920 
Q 1555 2086 1552 2208 
Q 1549 2330 1539 2410 
Q 1530 2490 1517 2560 
Q 1664 2541 1840 2528 
Q 2016 2515 2144 2522 
Q 2221 2528 2230 2496 
Q 2240 2464 2170 2419 
Q 2125 2394 2105 2333 
Q 2086 2272 2086 2202 
L 2086 192 
L 3123 192 
L 3123 2285 
Q 3123 2490 3120 2643 
Q 3117 2797 3110 2918 
Q 3104 3040 3094 3139 
Q 3085 3238 3072 3328 
Q 3226 3302 3418 3289 
Q 3610 3277 3782 3290 
Q 3872 3296 3881 3261 
Q 3891 3226 3814 3187 
Q 3744 3149 3696 3043 
Q 3648 2938 3648 2835 
L 3648 2048 
z
M 3238 4640 
Q 2970 4250 2707 3939 
Q 2445 3629 2150 3363 
Q 1856 3098 1510 2861 
Q 1165 2624 742 2387 
Q 634 2534 525 2646 
Q 416 2758 256 2867 
Q 506 2931 774 3062 
Q 1043 3194 1299 3363 
Q 1555 3533 1785 3728 
Q 2016 3923 2195 4122 
Q 2362 4301 2483 4454 
Q 2605 4608 2685 4742 
Q 2765 4877 2819 4995 
Q 2874 5114 2906 5229 
Q 3098 5178 3283 5146 
Q 3469 5114 3597 5101 
Q 3686 5088 3680 5040 
Q 3674 4992 3533 4941 
Q 3731 4614 4006 4336 
Q 4282 4058 4614 3850 
Q 4947 3642 5334 3510 
Q 5722 3379 6144 3341 
Q 6016 3213 5904 3059 
Q 5792 2906 5702 2707 
Q 5229 2867 4864 3043 
Q 4499 3219 4208 3443 
Q 3917 3667 3683 3958 
Q 3450 4250 3238 4640 
z
" transform="scale(0.015625)"/>
        <path id="STHeitiTC-Medium-4e1a" d="M 2240 4134 
Q 2240 4358 2227 4601 
Q 2214 4845 2189 5043 
Q 2336 5011 2509 4998 
Q 2682 4986 2848 4992 
Q 2918 4992 2931 4963 
Q 2944 4934 2886 4883 
Q 2822 4832 2800 4790 
Q 2778 4749 2778 4678 
L 2778 237 
L 3507 237 
L 3507 4122 
Q 3507 4326 3494 4560 
Q 3482 4794 3456 5030 
Q 3597 4998 3773 4988 
Q 3949 4979 4115 4986 
Q 4186 4986 4198 4957 
Q 4211 4928 4154 4877 
Q 4090 4826 4067 4781 
Q 4045 4736 4045 4666 
L 4045 237 
Q 4768 237 5264 253 
Q 5760 269 5965 294 
L 5965 -314 
Q 5850 -301 5658 -288 
Q 5466 -275 5139 -268 
Q 4813 -262 4326 -259 
Q 3840 -256 3142 -256 
Q 2509 -256 2057 -259 
Q 1606 -262 1292 -268 
Q 979 -275 774 -288 
Q 570 -301 429 -314 
L 429 294 
Q 710 262 1180 249 
Q 1651 237 2240 237 
L 2240 4134 
z
M 1318 1242 
Q 1267 1536 1190 1853 
Q 1114 2170 1011 2470 
Q 909 2771 790 3046 
Q 672 3322 544 3539 
L 1133 3789 
Q 1216 3526 1312 3235 
Q 1408 2944 1517 2643 
Q 1626 2342 1744 2041 
Q 1862 1741 1978 1459 
L 1318 1242 
z
M 5760 3629 
Q 5728 3610 5680 3539 
Q 5632 3469 5584 3369 
Q 5536 3270 5488 3155 
Q 5440 3040 5408 2931 
Q 5254 2387 5113 1974 
Q 4973 1562 4870 1299 
Q 4723 1382 4608 1408 
Q 4493 1434 4320 1421 
Q 4442 1658 4547 1955 
Q 4653 2253 4745 2582 
Q 4838 2912 4912 3257 
Q 4986 3603 5043 3942 
Q 5190 3872 5392 3814 
Q 5594 3757 5760 3744 
Q 5830 3738 5830 3706 
Q 5830 3674 5760 3629 
z
" transform="scale(0.015625)"/>
        <path id="STHeitiTC-Medium-8bd5" d="M 1510 -147 
Q 1370 -314 1299 -419 
Q 1229 -525 1184 -634 
Q 1094 -506 960 -384 
Q 826 -262 710 -186 
Q 838 -58 892 80 
Q 947 218 947 429 
L 947 2618 
Q 800 2618 694 2614 
Q 589 2611 509 2608 
Q 429 2605 365 2598 
Q 301 2592 237 2586 
L 237 3168 
Q 365 3155 521 3145 
Q 678 3136 890 3136 
Q 1094 3136 1241 3145 
Q 1389 3155 1523 3168 
Q 1491 3021 1472 2803 
Q 1453 2586 1453 2368 
L 1453 531 
Q 1606 704 1715 851 
Q 1824 998 1952 1203 
Q 1997 1050 2073 928 
Q 2150 806 2253 717 
L 1510 -147 
z
M 1293 3635 
Q 1165 3878 998 4131 
Q 832 4384 627 4646 
L 1133 4960 
Q 1299 4736 1478 4483 
Q 1658 4230 1798 4006 
L 1293 3635 
z
M 5120 4051 
Q 5069 4218 4973 4400 
Q 4877 4582 4774 4710 
L 5280 4941 
Q 5402 4794 5501 4621 
Q 5600 4448 5664 4314 
L 5120 4051 
z
M 3283 653 
Q 3475 698 3670 746 
Q 3866 794 4077 858 
Q 4058 704 4048 595 
Q 4038 486 4051 339 
Q 3571 256 3129 131 
Q 2688 6 2285 -179 
Q 2259 6 2233 150 
Q 2208 294 2157 461 
Q 2330 486 2483 508 
Q 2637 531 2784 557 
L 2784 2163 
Q 2598 2157 2457 2150 
Q 2317 2144 2208 2112 
L 2208 2675 
Q 2355 2643 2531 2633 
Q 2707 2624 2976 2624 
Q 3245 2624 3427 2633 
Q 3610 2643 3750 2675 
L 3750 2112 
Q 3571 2157 3283 2157 
L 3283 653 
z
M 3904 3834 
Q 3872 4288 3849 4605 
Q 3827 4922 3821 5139 
Q 3891 5120 3984 5113 
Q 4077 5107 4169 5104 
Q 4262 5101 4345 5107 
Q 4429 5114 4486 5126 
Q 4589 5146 4601 5107 
Q 4614 5069 4518 4979 
Q 4448 4915 4432 4611 
Q 4416 4307 4442 3846 
Q 4922 3859 5264 3884 
Q 5606 3910 5824 3942 
L 5837 3334 
Q 5626 3366 5283 3369 
Q 4941 3373 4474 3360 
Q 4525 2637 4614 2086 
Q 4704 1536 4832 1203 
Q 4947 902 5040 697 
Q 5133 493 5206 371 
Q 5280 250 5337 198 
Q 5395 147 5440 154 
Q 5510 166 5568 323 
Q 5626 480 5664 883 
Q 5792 678 5910 569 
Q 6029 461 6157 371 
Q 6035 -51 5920 -278 
Q 5805 -506 5686 -582 
Q 5568 -659 5440 -614 
Q 5312 -570 5165 -442 
Q 4896 -211 4675 192 
Q 4454 595 4301 1088 
Q 4256 1235 4205 1468 
Q 4154 1702 4106 1996 
Q 4058 2291 4016 2636 
Q 3974 2982 3942 3354 
L 3450 3341 
Q 2470 3309 2022 3245 
L 2010 3853 
Q 2234 3821 2589 3817 
Q 2944 3814 3443 3827 
L 3904 3834 
z
" transform="scale(0.015625)"/>
        <path id="STHeitiTC-Medium-70b9" d="M 4608 2688 
L 1830 2688 
L 1830 1690 
L 4608 1690 
L 4608 2688 
z
M 2266 -486 
Q 2272 -186 2243 57 
Q 2214 301 2131 589 
L 2656 646 
Q 2707 358 2758 102 
Q 2810 -154 2886 -422 
L 2266 -486 
z
M 1530 640 
Q 1363 294 1225 -3 
Q 1088 -301 960 -602 
L 326 -358 
Q 589 -83 765 198 
Q 941 480 1056 832 
L 1530 640 
z
M 3757 -397 
Q 3699 -96 3635 153 
Q 3571 403 3456 698 
L 3974 826 
Q 4070 499 4160 243 
Q 4250 -13 4371 -314 
L 3757 -397 
z
M 5440 -461 
Q 5331 -128 5180 166 
Q 5030 461 4832 749 
L 5318 934 
Q 5504 634 5686 358 
Q 5869 83 6074 -205 
L 5440 -461 
z
M 3290 3142 
Q 3789 3142 4115 3148 
Q 4442 3155 4650 3164 
Q 4858 3174 4976 3184 
Q 5094 3194 5171 3206 
Q 5152 3021 5142 2761 
Q 5133 2502 5133 2240 
Q 5133 1958 5139 1664 
Q 5146 1370 5171 1184 
Q 5005 1197 4841 1206 
Q 4678 1216 4467 1222 
Q 4256 1229 3965 1232 
Q 3674 1235 3258 1235 
Q 2746 1235 2416 1232 
Q 2086 1229 1872 1219 
Q 1658 1210 1523 1197 
Q 1389 1184 1267 1171 
Q 1299 1389 1315 1680 
Q 1331 1971 1331 2259 
Q 1331 2522 1312 2781 
Q 1293 3040 1267 3206 
Q 1376 3194 1485 3184 
Q 1594 3174 1754 3164 
Q 1914 3155 2141 3148 
Q 2368 3142 2714 3142 
L 2714 4160 
Q 2714 4499 2698 4748 
Q 2682 4998 2650 5165 
Q 2733 5146 2838 5130 
Q 2944 5114 3049 5098 
Q 3155 5082 3248 5075 
Q 3341 5069 3405 5069 
Q 3578 5069 3437 4973 
Q 3341 4909 3315 4854 
Q 3290 4800 3290 4691 
L 3290 4365 
L 4410 4365 
Q 4755 4365 5046 4377 
Q 5338 4390 5645 4422 
L 5645 3840 
Q 5357 3872 5056 3885 
Q 4755 3898 4416 3898 
L 3290 3898 
L 3290 3142 
z
" transform="scale(0.015625)"/>
        <path id="STHeitiTC-Medium-8dd1" d="M 1222 3181 
L 2093 3181 
L 2093 4224 
L 1222 4224 
L 1222 3181 
z
M 3590 1747 
L 4218 1747 
L 4218 2752 
L 3590 2752 
L 3590 1747 
z
M 5210 4256 
Q 5395 4256 5561 4265 
Q 5728 4275 5830 4288 
Q 5805 4141 5792 3984 
Q 5779 3827 5773 3565 
L 5709 1658 
Q 5702 1446 5680 1312 
Q 5658 1178 5571 1091 
Q 5485 1005 5315 937 
Q 5146 870 4851 794 
Q 4845 902 4816 1036 
Q 4787 1171 4698 1376 
Q 4877 1370 4979 1373 
Q 5082 1376 5130 1398 
Q 5178 1421 5190 1465 
Q 5203 1510 5203 1587 
L 5274 3827 
L 3590 3827 
Q 3488 3635 3389 3465 
Q 3290 3296 3194 3142 
L 4320 3142 
Q 4557 3142 4691 3162 
Q 4678 3021 4665 2771 
Q 4653 2522 4653 2246 
Q 4653 1971 4662 1718 
Q 4672 1466 4685 1331 
Q 4550 1350 4352 1350 
L 3590 1350 
L 3590 384 
Q 3590 237 3606 150 
Q 3622 64 3705 22 
Q 3789 -19 3955 -28 
Q 4122 -38 4429 -38 
Q 4781 -38 4982 -25 
Q 5184 -13 5289 57 
Q 5395 128 5446 278 
Q 5498 429 5555 698 
Q 5696 550 5795 499 
Q 5894 448 6035 416 
Q 5946 90 5872 -89 
Q 5798 -269 5641 -355 
Q 5485 -442 5203 -458 
Q 4922 -474 4422 -474 
Q 3942 -474 3680 -461 
Q 3418 -448 3296 -381 
Q 3174 -314 3152 -163 
Q 3130 -13 3130 256 
L 3130 3040 
Q 3034 2899 2941 2777 
Q 2848 2656 2758 2547 
Q 2650 2707 2547 2778 
L 2547 2771 
Q 2394 2778 2291 2781 
Q 2189 2784 1997 2784 
L 1997 2048 
Q 2138 2048 2246 2048 
Q 2355 2048 2438 2054 
Q 2522 2061 2592 2070 
Q 2662 2080 2733 2093 
L 2733 1619 
Q 2592 1645 2438 1648 
Q 2285 1651 1997 1651 
L 1997 461 
Q 2202 512 2403 576 
Q 2605 640 2797 710 
Q 2739 442 2790 205 
Q 2221 70 1856 -22 
Q 1491 -115 1248 -185 
Q 1005 -256 835 -320 
Q 666 -384 493 -467 
Q 480 -262 454 -108 
Q 429 45 365 173 
Q 435 173 508 179 
Q 582 186 666 192 
L 666 1242 
Q 666 1587 659 1776 
Q 653 1965 640 2086 
Q 794 2054 906 2054 
Q 1018 2054 1165 2074 
Q 1331 2093 1197 1958 
Q 1146 1907 1123 1827 
Q 1101 1747 1101 1562 
L 1101 256 
Q 1210 275 1322 297 
Q 1434 320 1549 346 
L 1549 2784 
Q 1395 2784 1286 2784 
Q 1178 2784 1094 2784 
Q 1011 2784 934 2781 
Q 858 2778 774 2771 
Q 787 2925 790 3181 
Q 794 3437 794 3718 
Q 794 4006 790 4262 
Q 787 4518 774 4666 
Q 870 4659 953 4652 
Q 1037 4646 1136 4643 
Q 1235 4640 1363 4640 
Q 1491 4640 1677 4640 
Q 1856 4640 1977 4640 
Q 2099 4640 2195 4643 
Q 2291 4646 2371 4652 
Q 2451 4659 2547 4666 
Q 2541 4518 2537 4262 
Q 2534 4006 2534 3718 
Q 2534 3501 2534 3286 
Q 2534 3072 2541 2912 
Q 2694 3104 2876 3427 
Q 3059 3750 3245 4173 
Q 3360 4442 3440 4682 
Q 3520 4922 3565 5165 
Q 3750 5082 3929 5024 
Q 4109 4966 4218 4954 
Q 4288 4947 4285 4908 
Q 4282 4870 4211 4832 
Q 4173 4813 4137 4784 
Q 4102 4755 4057 4691 
Q 4013 4627 3952 4524 
Q 3891 4422 3808 4256 
L 5210 4256 
z
" transform="scale(0.015625)"/>
        <path id="STHeitiTC-Medium-51fa" d="M 4973 320 
L 4973 1203 
Q 4973 1402 4963 1546 
Q 4954 1690 4934 1824 
Q 5120 1792 5251 1789 
Q 5382 1786 5536 1798 
Q 5606 1805 5616 1773 
Q 5626 1741 5574 1690 
Q 5530 1645 5514 1517 
Q 5498 1389 5498 1197 
L 5498 115 
Q 5498 -70 5504 -236 
Q 5510 -403 5523 -595 
L 4973 -595 
L 4973 -141 
L 1318 -141 
L 1318 -646 
L 768 -646 
Q 794 -480 803 -304 
Q 813 -128 813 141 
L 813 1146 
Q 813 1453 803 1619 
Q 794 1786 768 1888 
Q 934 1856 1094 1849 
Q 1254 1843 1370 1856 
Q 1440 1869 1453 1830 
Q 1466 1792 1402 1741 
Q 1344 1690 1331 1635 
Q 1318 1581 1318 1510 
L 1318 320 
L 2893 320 
L 2893 2387 
Q 2208 2387 1731 2374 
Q 1254 2362 1050 2349 
Q 1075 2496 1088 2637 
Q 1101 2778 1101 2918 
L 1101 3942 
Q 1101 4096 1091 4240 
Q 1082 4384 1050 4512 
Q 1254 4480 1411 4470 
Q 1568 4461 1709 4474 
Q 1798 4480 1804 4435 
Q 1811 4390 1734 4333 
Q 1683 4294 1664 4195 
Q 1645 4096 1645 3949 
L 1645 2848 
L 2893 2848 
L 2893 4262 
Q 2893 4589 2883 4774 
Q 2874 4960 2848 5114 
Q 3034 5082 3190 5072 
Q 3347 5062 3533 5075 
Q 3622 5082 3632 5040 
Q 3642 4998 3578 4947 
Q 3514 4896 3482 4710 
Q 3450 4525 3450 4269 
L 3450 2848 
L 4813 2848 
L 4813 3942 
Q 4813 4141 4800 4285 
Q 4787 4429 4755 4563 
Q 4941 4531 5104 4524 
Q 5267 4518 5414 4531 
Q 5478 4538 5488 4502 
Q 5498 4467 5453 4416 
Q 5402 4365 5379 4253 
Q 5357 4141 5357 3936 
L 5357 2989 
Q 5357 2803 5363 2656 
Q 5370 2509 5382 2349 
Q 5267 2355 5104 2364 
Q 4941 2374 4707 2377 
Q 4474 2381 4163 2384 
Q 3853 2387 3450 2387 
L 3450 320 
L 4973 320 
z
" transform="scale(0.015625)"/>
        <path id="STHeitiTC-Medium-56de" d="M 2554 1709 
L 3802 1709 
L 3802 2880 
L 2554 2880 
L 2554 1709 
z
M 3174 3334 
Q 3546 3341 3798 3350 
Q 4051 3360 4275 3386 
Q 4269 3334 4265 3260 
Q 4262 3187 4259 3100 
Q 4256 3014 4253 2924 
Q 4250 2835 4250 2765 
L 4250 1907 
Q 4250 1683 4256 1523 
Q 4262 1363 4275 1222 
Q 4090 1242 3811 1254 
Q 3533 1267 3136 1267 
Q 2771 1267 2524 1254 
Q 2278 1242 2042 1222 
Q 2061 1370 2070 1533 
Q 2080 1696 2080 1914 
L 2080 2765 
Q 2080 2931 2067 3107 
Q 2054 3283 2042 3386 
Q 2259 3354 2515 3341 
Q 2771 3328 3174 3334 
z
M 5024 4064 
L 1370 4064 
L 1370 448 
L 5024 448 
L 5024 4064 
z
M 1370 -422 
L 781 -422 
Q 813 -186 829 99 
Q 845 384 845 672 
L 845 3648 
Q 845 3782 841 3923 
Q 838 4064 828 4198 
Q 819 4333 809 4441 
Q 800 4550 787 4614 
Q 877 4602 1021 4592 
Q 1165 4582 1424 4572 
Q 1683 4563 2086 4560 
Q 2490 4557 3085 4557 
Q 3770 4557 4218 4563 
Q 4666 4570 4947 4576 
Q 5229 4582 5379 4592 
Q 5530 4602 5619 4614 
Q 5587 4429 5574 4179 
Q 5562 3930 5562 3661 
L 5562 672 
Q 5562 390 5574 131 
Q 5587 -128 5606 -390 
L 5024 -390 
L 5024 -26 
L 1370 -26 
L 1370 -422 
z
" transform="scale(0.015625)"/>
        <path id="STHeitiTC-Medium-62a5" d="M 1408 3392 
Q 736 3392 352 3334 
L 352 3885 
Q 544 3853 803 3843 
Q 1062 3834 1408 3834 
Q 1408 4198 1405 4425 
Q 1402 4653 1395 4790 
Q 1389 4928 1379 5005 
Q 1370 5082 1350 5152 
Q 1523 5120 1676 5113 
Q 1830 5107 1965 5114 
Q 2227 5120 2035 4973 
Q 1965 4922 1945 4870 
Q 1926 4819 1926 4736 
L 1926 3840 
Q 2157 3846 2323 3856 
Q 2490 3866 2630 3885 
L 2630 3334 
Q 2490 3354 2317 3366 
Q 2144 3379 1926 3386 
L 1926 2381 
Q 2118 2451 2300 2528 
Q 2483 2605 2656 2694 
Q 2643 2547 2662 2400 
Q 2682 2253 2720 2144 
Q 2483 2074 2288 2006 
Q 2093 1939 1926 1875 
L 1926 166 
Q 1926 -45 1900 -176 
Q 1875 -307 1763 -387 
Q 1651 -467 1430 -521 
Q 1210 -576 826 -634 
Q 800 -454 733 -313 
Q 666 -173 518 0 
Q 832 -6 1011 3 
Q 1190 13 1280 51 
Q 1370 90 1389 163 
Q 1408 237 1408 365 
L 1408 1683 
Q 1158 1581 940 1485 
Q 723 1389 480 1261 
Q 461 1408 416 1600 
Q 371 1792 320 1946 
Q 621 2010 889 2077 
Q 1158 2144 1408 2214 
L 1408 3392 
z
M 4192 2317 
Q 4243 1958 4358 1609 
Q 4474 1261 4659 992 
Q 4826 1261 4902 1581 
Q 4979 1901 4998 2317 
L 4192 2317 
z
M 3507 -659 
L 2938 -659 
Q 2950 -448 2956 -265 
Q 2963 -83 2969 89 
Q 2976 262 2976 435 
Q 2976 608 2976 806 
L 2976 4198 
Q 2976 4378 2973 4554 
Q 2970 4730 2957 4819 
Q 3142 4806 3478 4803 
Q 3814 4800 4250 4800 
Q 4736 4800 5046 4803 
Q 5357 4806 5542 4819 
Q 5542 4723 5532 4579 
Q 5523 4435 5507 4281 
Q 5491 4128 5472 3977 
Q 5453 3827 5434 3718 
Q 5408 3578 5347 3472 
Q 5286 3366 5164 3286 
Q 5043 3206 4844 3145 
Q 4646 3085 4339 3027 
Q 4301 3174 4233 3312 
Q 4166 3450 4026 3597 
Q 4250 3597 4403 3606 
Q 4557 3616 4659 3641 
Q 4762 3667 4816 3715 
Q 4870 3763 4902 3846 
Q 4934 3936 4950 4093 
Q 4966 4250 4954 4358 
L 3507 4358 
L 3507 2739 
L 4806 2739 
Q 5043 2739 5244 2752 
Q 5446 2765 5613 2784 
Q 5549 2330 5478 2003 
Q 5408 1677 5328 1430 
Q 5248 1184 5161 998 
Q 5075 813 4979 640 
Q 5216 410 5510 259 
Q 5805 109 6080 64 
Q 5920 -64 5837 -205 
Q 5754 -346 5715 -493 
Q 5459 -365 5203 -195 
Q 4947 -26 4678 282 
Q 4512 45 4310 -137 
Q 4109 -320 3802 -518 
Q 3757 -442 3686 -362 
Q 3616 -282 3507 -211 
L 3507 -659 
z
M 3507 -96 
Q 3731 32 3971 227 
Q 4211 422 4378 621 
Q 4275 730 4179 909 
Q 4083 1088 4000 1315 
Q 3917 1542 3846 1798 
Q 3776 2054 3731 2317 
L 3507 2317 
L 3507 -96 
z
" transform="scale(0.015625)"/>
        <path id="STHeitiTC-Medium-7684" d="M 4032 1120 
Q 3994 1267 3933 1433 
Q 3872 1600 3798 1760 
Q 3725 1920 3648 2064 
Q 3571 2208 3494 2317 
L 4013 2541 
Q 4064 2413 4131 2265 
Q 4198 2118 4275 1971 
Q 4352 1824 4435 1680 
Q 4518 1536 4595 1414 
L 4032 1120 
z
M 5107 3981 
Q 5293 3981 5501 3997 
Q 5709 4013 5830 4032 
Q 5805 3891 5795 3728 
Q 5786 3565 5779 3398 
L 5645 179 
Q 5638 6 5574 -131 
Q 5510 -269 5369 -374 
Q 5229 -480 4995 -547 
Q 4762 -614 4410 -640 
Q 4390 -467 4300 -265 
Q 4211 -64 4058 70 
Q 4384 32 4585 38 
Q 4787 45 4902 93 
Q 5018 141 5062 233 
Q 5107 326 5114 467 
L 5235 3488 
L 3878 3488 
Q 3770 3174 3654 2937 
Q 3539 2701 3398 2445 
Q 3155 2694 2925 2765 
Q 3200 3130 3417 3702 
Q 3635 4275 3770 5056 
Q 3904 5005 4096 4973 
Q 4288 4941 4435 4947 
Q 4525 4954 4531 4906 
Q 4538 4858 4442 4787 
Q 4371 4736 4262 4512 
Q 4154 4288 4045 3981 
L 5107 3981 
z
M 2304 3469 
L 1152 3469 
L 1152 2342 
L 2304 2342 
L 2304 3469 
z
M 2304 1907 
L 1152 1907 
L 1152 634 
L 2304 634 
L 2304 1907 
z
M 1152 -422 
L 563 -422 
Q 582 -275 592 -156 
Q 602 -38 605 67 
Q 608 173 611 278 
Q 614 384 614 518 
L 614 3379 
Q 614 3526 604 3683 
Q 595 3840 570 3962 
Q 698 3949 870 3939 
Q 1043 3930 1235 3917 
Q 1363 4576 1363 5062 
Q 1517 5024 1709 4998 
Q 1901 4973 2054 4966 
Q 2131 4960 2137 4918 
Q 2144 4877 2067 4806 
Q 2029 4774 1997 4723 
Q 1965 4672 1929 4573 
Q 1894 4474 1849 4317 
Q 1805 4160 1741 3910 
Q 2099 3910 2374 3920 
Q 2650 3930 2893 3962 
Q 2867 3834 2857 3677 
Q 2848 3520 2848 3379 
L 2848 563 
Q 2848 429 2851 320 
Q 2854 211 2860 105 
Q 2867 0 2876 -115 
Q 2886 -230 2899 -371 
L 2304 -371 
L 2304 198 
L 1152 198 
L 1152 -422 
z
" transform="scale(0.015625)"/>
        <path id="STHeitiTC-Medium-6bd4" d="M 1370 3245 
Q 1850 3245 2205 3254 
Q 2560 3264 2874 3283 
L 2874 2726 
Q 2554 2746 2208 2758 
Q 1862 2771 1370 2771 
L 1370 288 
L 2848 947 
Q 2854 806 2880 662 
Q 2906 518 2938 461 
L 1325 -262 
Q 1126 -352 963 -457 
Q 800 -563 710 -653 
Q 634 -467 534 -310 
Q 435 -154 346 -70 
Q 608 -13 851 70 
L 851 4230 
Q 851 4442 841 4624 
Q 832 4806 800 4954 
Q 928 4922 1085 4909 
Q 1242 4896 1331 4902 
Q 1472 4915 1491 4880 
Q 1510 4845 1440 4781 
Q 1370 4723 1370 4602 
L 1370 3245 
z
M 3904 403 
Q 3904 294 3923 233 
Q 3942 173 4009 141 
Q 4077 109 4214 99 
Q 4352 90 4589 90 
Q 4813 90 4944 109 
Q 5075 128 5161 221 
Q 5248 314 5312 506 
Q 5376 698 5459 1043 
Q 5581 902 5731 800 
Q 5882 698 6048 653 
Q 5926 282 5811 64 
Q 5696 -154 5526 -269 
Q 5357 -384 5101 -419 
Q 4845 -454 4442 -454 
Q 4070 -454 3856 -422 
Q 3642 -390 3533 -300 
Q 3424 -211 3395 -41 
Q 3366 128 3366 397 
L 3366 4237 
Q 3366 4448 3366 4589 
Q 3366 4730 3360 4832 
Q 3354 4934 3347 5008 
Q 3341 5082 3328 5158 
Q 3488 5126 3673 5116 
Q 3859 5107 3981 5120 
Q 4064 5126 4073 5100 
Q 4083 5075 4019 4986 
Q 3955 4896 3929 4787 
Q 3904 4678 3904 4435 
L 3904 2778 
Q 4115 2912 4326 3059 
Q 4538 3206 4723 3350 
Q 4909 3494 5062 3628 
Q 5216 3763 5325 3872 
Q 5421 3725 5542 3593 
Q 5664 3462 5792 3379 
Q 5914 3302 5728 3258 
Q 5677 3245 5510 3158 
Q 5344 3072 5097 2934 
Q 4851 2797 4540 2614 
Q 4230 2432 3904 2227 
L 3904 403 
z
" transform="scale(0.015625)"/>
        <path id="STHeitiTC-Medium-4f8b" d="M 5958 4819 
Q 5926 4774 5910 4732 
Q 5894 4691 5894 4614 
L 5894 -96 
Q 5894 -237 5872 -329 
Q 5850 -422 5747 -483 
Q 5645 -544 5443 -582 
Q 5242 -621 4877 -646 
Q 4864 -474 4803 -336 
Q 4742 -198 4621 -32 
Q 4896 -51 5049 -51 
Q 5203 -51 5280 -28 
Q 5357 -6 5373 42 
Q 5389 90 5389 166 
L 5389 3949 
Q 5389 4326 5382 4582 
Q 5376 4838 5357 4998 
Q 5485 4947 5635 4931 
Q 5786 4915 5914 4922 
Q 5997 4928 6006 4909 
Q 6016 4890 5958 4819 
z
M 4960 3981 
Q 4909 3930 4909 3789 
L 4909 1594 
Q 4909 1402 4915 1203 
Q 4922 1005 4934 774 
L 4384 774 
Q 4397 1018 4403 1210 
Q 4410 1402 4410 1594 
L 4410 3437 
Q 4410 3674 4403 3840 
Q 4397 4006 4384 4134 
Q 4538 4115 4685 4102 
Q 4832 4090 4928 4090 
Q 5088 4090 4960 3981 
z
M 1139 2822 
Q 1030 2630 924 2451 
Q 819 2272 698 2093 
Q 627 2234 544 2374 
Q 461 2515 384 2611 
Q 512 2771 611 2915 
Q 710 3059 790 3203 
Q 870 3347 934 3497 
Q 998 3648 1069 3827 
Q 1178 4128 1267 4483 
Q 1357 4838 1395 5101 
Q 1568 5024 1734 4960 
Q 1901 4896 2048 4864 
Q 2118 4851 2115 4825 
Q 2112 4800 2035 4710 
Q 2016 4685 1990 4646 
Q 1965 4608 1920 4521 
Q 1875 4435 1808 4278 
Q 1741 4122 1626 3866 
L 1626 -678 
L 1069 -678 
Q 1094 -403 1116 -25 
Q 1139 352 1139 698 
L 1139 2822 
z
M 3302 1702 
Q 3366 1946 3414 2256 
Q 3462 2566 3488 2893 
L 2899 2893 
Q 2784 2560 2621 2217 
Q 2458 1875 2195 1414 
Q 2093 1504 1984 1558 
Q 1875 1613 1747 1645 
Q 2131 2144 2358 2781 
Q 2586 3418 2694 4211 
Q 2528 4205 2403 4195 
Q 2278 4186 2163 4166 
L 2163 4723 
Q 2349 4691 2595 4681 
Q 2842 4672 3187 4672 
Q 3533 4672 3773 4681 
Q 4013 4691 4192 4723 
L 4192 4166 
Q 4026 4192 3776 4205 
Q 3526 4218 3219 4218 
Q 3168 3949 3123 3734 
Q 3078 3520 3027 3328 
L 3610 3328 
Q 3718 3328 3843 3331 
Q 3968 3334 4051 3347 
Q 4019 2989 3987 2697 
Q 3955 2406 3910 2150 
Q 3866 1894 3802 1657 
Q 3738 1421 3648 1178 
Q 3488 762 3155 323 
Q 2822 -115 2291 -544 
Q 2202 -429 2070 -352 
Q 1939 -275 1760 -224 
Q 2029 -45 2243 128 
Q 2458 301 2624 477 
Q 2790 653 2915 841 
Q 3040 1030 3136 1235 
Q 3027 1363 2848 1507 
Q 2669 1651 2515 1754 
L 2810 2106 
Q 2938 1997 3056 1897 
Q 3174 1798 3302 1702 
z
" transform="scale(0.015625)"/>
       </defs>
       <use xlink:href="#STHeitiTC-Medium-4f01"/>
       <use xlink:href="#STHeitiTC-Medium-4e1a" x="99.999985"/>
       <use xlink:href="#STHeitiTC-Medium-8bd5" x="199.999969"/>
       <use xlink:href="#STHeitiTC-Medium-70b9" x="299.999954"/>
       <use xlink:href="#STHeitiTC-Medium-8dd1" x="399.999939"/>
       <use xlink:href="#STHeitiTC-Medium-51fa" x="499.999924"/>
       <use xlink:href="#STHeitiTC-Medium-56de" x="599.999908"/>
       <use xlink:href="#STHeitiTC-Medium-62a5" x="699.999893"/>
       <use xlink:href="#STHeitiTC-Medium-7684" x="799.999878"/>
       <use xlink:href="#STHeitiTC-Medium-6bd4" x="899.999863"/>
       <use xlink:href="#STHeitiTC-Medium-4f8b" x="999.999847"/>
      </g>
     </g>
    </g>
   </g>
   <g id="matplotlib.axis_2">
    <g id="ytick_1">
     <g id="line2d_4">
      <path d="M 24.727187 218.566341 
L 631.107188 218.566341 
" clip-path="url(#p98cef3479c)" style="fill: none; stroke-dasharray: 2.96,1.28; stroke-dashoffset: 0; stroke: #b0b0b0; stroke-opacity: 0.35; stroke-width: 0.8"/>
     </g>
     <g id="line2d_5">
      <defs>
       <path id="m3752704c96" d="M 0 0 
L -3.5 0 
" style="stroke: #333333; stroke-width: 0.8"/>
      </defs>
      <g>
       <use xlink:href="#m3752704c96" x="24.727187" y="218.566341" style="fill: #333333; stroke: #333333; stroke-width: 0.8"/>
      </g>
     </g>
     <g id="text_4">
      <!-- 0 -->
      <g style="fill: #333333" transform="translate(12.463594 222.413841) scale(0.095 -0.095)">
       <defs>
        <path id="STHeitiTC-Medium-30" d="M 1747 5184 
Q 2502 5184 2944 4547 
Q 3386 3910 3386 2723 
Q 3386 1536 2938 902 
Q 2490 269 1738 269 
Q 986 269 573 893 
Q 160 1517 160 2729 
Q 160 3942 573 4563 
Q 986 5184 1747 5184 
z
M 1760 774 
Q 2285 774 2576 1283 
Q 2867 1792 2867 2726 
Q 2867 3661 2566 4160 
Q 2266 4659 1757 4659 
Q 1248 4659 966 4160 
Q 685 3661 685 2714 
Q 685 774 1760 774 
z
" transform="scale(0.015625)"/>
       </defs>
       <use xlink:href="#STHeitiTC-Medium-30"/>
      </g>
     </g>
    </g>
    <g id="ytick_2">
     <g id="line2d_6">
      <path d="M 24.727187 189.855967 
L 631.107188 189.855967 
" clip-path="url(#p98cef3479c)" style="fill: none; stroke-dasharray: 2.96,1.28; stroke-dashoffset: 0; stroke: #b0b0b0; stroke-opacity: 0.35; stroke-width: 0.8"/>
     </g>
     <g id="line2d_7">
      <g>
       <use xlink:href="#m3752704c96" x="24.727187" y="189.855967" style="fill: #333333; stroke: #333333; stroke-width: 0.8"/>
      </g>
     </g>
     <g id="text_5">
      <!-- 10 -->
      <g style="fill: #333333" transform="translate(7.2 193.703467) scale(0.095 -0.095)">
       <defs>
        <path id="STHeitiTC-Medium-31" d="M 2131 384 
L 1587 384 
L 1587 4531 
L 826 4531 
L 1158 5069 
L 2131 5069 
L 2131 384 
z
" transform="scale(0.015625)"/>
       </defs>
       <use xlink:href="#STHeitiTC-Medium-31"/>
       <use xlink:href="#STHeitiTC-Medium-30" x="55.399994"/>
      </g>
     </g>
    </g>
    <g id="ytick_3">
     <g id="line2d_8">
      <path d="M 24.727187 161.145593 
L 631.107188 161.145593 
" clip-path="url(#p98cef3479c)" style="fill: none; stroke-dasharray: 2.96,1.28; stroke-dashoffset: 0; stroke: #b0b0b0; stroke-opacity: 0.35; stroke-width: 0.8"/>
     </g>
     <g id="line2d_9">
      <g>
       <use xlink:href="#m3752704c96" x="24.727187" y="161.145593" style="fill: #333333; stroke: #333333; stroke-width: 0.8"/>
      </g>
     </g>
     <g id="text_6">
      <!-- 20 -->
      <g style="fill: #333333" transform="translate(7.2 164.993093) scale(0.095 -0.095)">
       <defs>
        <path id="STHeitiTC-Medium-32" d="M 3360 384 
L 90 384 
L 1914 2355 
Q 2374 2842 2566 3123 
Q 2758 3405 2758 3763 
Q 2758 4122 2480 4390 
Q 2202 4659 1789 4659 
Q 1376 4659 1101 4368 
Q 826 4077 787 3539 
L 256 3539 
Q 288 4294 736 4739 
Q 1184 5184 1821 5184 
Q 2458 5184 2877 4771 
Q 3296 4358 3296 3763 
Q 3296 3328 3065 2950 
Q 2835 2573 2368 2074 
L 1293 915 
L 3360 915 
L 3360 384 
z
" transform="scale(0.015625)"/>
       </defs>
       <use xlink:href="#STHeitiTC-Medium-32"/>
       <use xlink:href="#STHeitiTC-Medium-30" x="55.399994"/>
      </g>
     </g>
    </g>
    <g id="ytick_4">
     <g id="line2d_10">
      <path d="M 24.727187 132.435218 
L 631.107188 132.435218 
" clip-path="url(#p98cef3479c)" style="fill: none; stroke-dasharray: 2.96,1.28; stroke-dashoffset: 0; stroke: #b0b0b0; stroke-opacity: 0.35; stroke-width: 0.8"/>
     </g>
     <g id="line2d_11">
      <g>
       <use xlink:href="#m3752704c96" x="24.727187" y="132.435218" style="fill: #333333; stroke: #333333; stroke-width: 0.8"/>
      </g>
     </g>
     <g id="text_7">
      <!-- 30 -->
      <g style="fill: #333333" transform="translate(7.2 136.282718) scale(0.095 -0.095)">
       <defs>
        <path id="STHeitiTC-Medium-33" d="M 2554 3021 
Q 2931 2835 3139 2508 
Q 3347 2182 3347 1798 
Q 3347 1171 2889 720 
Q 2432 269 1734 269 
Q 1107 269 707 630 
Q 307 992 166 1702 
L 710 1702 
Q 832 1248 1072 1027 
Q 1312 806 1757 806 
Q 2202 806 2502 1084 
Q 2803 1363 2803 1785 
Q 2803 2208 2460 2457 
Q 2118 2707 1453 2720 
L 1453 3232 
Q 1933 3232 2227 3437 
Q 2522 3642 2522 3946 
Q 2522 4250 2294 4451 
Q 2067 4653 1744 4653 
Q 1421 4653 1219 4470 
Q 1018 4288 877 3917 
L 320 3917 
Q 461 4531 832 4857 
Q 1203 5184 1747 5184 
Q 2291 5184 2691 4825 
Q 3091 4467 3091 3955 
Q 3091 3366 2554 3021 
z
" transform="scale(0.015625)"/>
       </defs>
       <use xlink:href="#STHeitiTC-Medium-33"/>
       <use xlink:href="#STHeitiTC-Medium-30" x="55.399994"/>
      </g>
     </g>
    </g>
    <g id="ytick_5">
     <g id="line2d_12">
      <path d="M 24.727187 103.724844 
L 631.107188 103.724844 
" clip-path="url(#p98cef3479c)" style="fill: none; stroke-dasharray: 2.96,1.28; stroke-dashoffset: 0; stroke: #b0b0b0; stroke-opacity: 0.35; stroke-width: 0.8"/>
     </g>
     <g id="line2d_13">
      <g>
       <use xlink:href="#m3752704c96" x="24.727187" y="103.724844" style="fill: #333333; stroke: #333333; stroke-width: 0.8"/>
      </g>
     </g>
     <g id="text_8">
      <!-- 40 -->
      <g style="fill: #333333" transform="translate(7.2 107.572344) scale(0.095 -0.095)">
       <defs>
        <path id="STHeitiTC-Medium-34" d="M 3418 1453 
L 2861 1453 
L 2861 384 
L 2317 384 
L 2317 1453 
L 70 1453 
L 2701 5184 
L 2861 5184 
L 2861 1984 
L 3418 1984 
L 3418 1453 
z
M 2317 1984 
L 2317 3712 
L 1094 1984 
L 2317 1984 
z
" transform="scale(0.015625)"/>
       </defs>
       <use xlink:href="#STHeitiTC-Medium-34"/>
       <use xlink:href="#STHeitiTC-Medium-30" x="55.399994"/>
      </g>
     </g>
    </g>
    <g id="ytick_6">
     <g id="line2d_14">
      <path d="M 24.727187 75.01447 
L 631.107188 75.01447 
" clip-path="url(#p98cef3479c)" style="fill: none; stroke-dasharray: 2.96,1.28; stroke-dashoffset: 0; stroke: #b0b0b0; stroke-opacity: 0.35; stroke-width: 0.8"/>
     </g>
     <g id="line2d_15">
      <g>
       <use xlink:href="#m3752704c96" x="24.727187" y="75.01447" style="fill: #333333; stroke: #333333; stroke-width: 0.8"/>
      </g>
     </g>
     <g id="text_9">
      <!-- 50 -->
      <g style="fill: #333333" transform="translate(7.2 78.86197) scale(0.095 -0.095)">
       <defs>
        <path id="STHeitiTC-Medium-35" d="M 3194 4544 
L 1549 4544 
L 1338 3398 
Q 1613 3469 1856 3469 
Q 2477 3469 2893 3030 
Q 3309 2592 3309 1913 
Q 3309 1235 2861 752 
Q 2413 269 1664 269 
Q 1088 269 691 621 
Q 294 973 211 1587 
L 768 1587 
Q 851 1203 1107 998 
Q 1363 794 1690 794 
Q 2125 794 2438 1123 
Q 2752 1453 2752 1939 
Q 2752 2374 2480 2656 
Q 2208 2938 1747 2938 
Q 1286 2938 672 2675 
L 1120 5069 
L 3194 5069 
L 3194 4544 
z
" transform="scale(0.015625)"/>
       </defs>
       <use xlink:href="#STHeitiTC-Medium-35"/>
       <use xlink:href="#STHeitiTC-Medium-30" x="55.399994"/>
      </g>
     </g>
    </g>
    <g id="ytick_7">
     <g id="line2d_16">
      <path d="M 24.727187 46.304096 
L 631.107188 46.304096 
" clip-path="url(#p98cef3479c)" style="fill: none; stroke-dasharray: 2.96,1.28; stroke-dashoffset: 0; stroke: #b0b0b0; stroke-opacity: 0.35; stroke-width: 0.8"/>
     </g>
     <g id="line2d_17">
      <g>
       <use xlink:href="#m3752704c96" x="24.727187" y="46.304096" style="fill: #333333; stroke: #333333; stroke-width: 0.8"/>
      </g>
     </g>
     <g id="text_10">
      <!-- 60 -->
      <g style="fill: #333333" transform="translate(7.2 50.151596) scale(0.095 -0.095)">
       <defs>
        <path id="STHeitiTC-Medium-36" d="M 1594 3098 
Q 1798 3155 1984 3155 
Q 2515 3155 2912 2732 
Q 3309 2310 3309 1708 
Q 3309 1107 2880 688 
Q 2451 269 1830 269 
Q 1210 269 797 691 
Q 384 1114 384 1722 
Q 384 2016 499 2326 
Q 614 2637 915 3085 
L 2336 5203 
L 2797 4915 
L 1594 3098 
z
M 1843 806 
Q 2221 806 2493 1075 
Q 2765 1344 2765 1728 
Q 2765 2112 2496 2381 
Q 2227 2650 1843 2650 
Q 1459 2650 1190 2381 
Q 922 2112 922 1728 
Q 922 1344 1194 1075 
Q 1466 806 1843 806 
z
" transform="scale(0.015625)"/>
       </defs>
       <use xlink:href="#STHeitiTC-Medium-36"/>
       <use xlink:href="#STHeitiTC-Medium-30" x="55.399994"/>
      </g>
     </g>
    </g>
    <g id="ytick_8">
     <g id="line2d_18">
      <path d="M 24.727187 17.593722 
L 631.107188 17.593722 
" clip-path="url(#p98cef3479c)" style="fill: none; stroke-dasharray: 2.96,1.28; stroke-dashoffset: 0; stroke: #b0b0b0; stroke-opacity: 0.35; stroke-width: 0.8"/>
     </g>
     <g id="line2d_19">
      <g>
       <use xlink:href="#m3752704c96" x="24.727187" y="17.593722" style="fill: #333333; stroke: #333333; stroke-width: 0.8"/>
      </g>
     </g>
     <g id="text_11">
      <!-- 70 -->
      <g style="fill: #333333" transform="translate(7.2 21.441222) scale(0.095 -0.095)">
       <defs>
        <path id="STHeitiTC-Medium-37" d="M 3443 5069 
L 934 250 
L 480 493 
L 2592 4544 
L 416 4544 
L 416 5069 
L 3443 5069 
z
" transform="scale(0.015625)"/>
       </defs>
       <use xlink:href="#STHeitiTC-Medium-37"/>
       <use xlink:href="#STHeitiTC-Medium-30" x="55.399994"/>
      </g>
     </g>
    </g>
   </g>
   <g id="patch_3">
    <path d="M 24.727187 218.566341 
L 24.727187 7.545091 
" style="fill: none; stroke: #000000; stroke-width: 0.8; stroke-linejoin: miter; stroke-linecap: square"/>
   </g>
   <g id="patch_4">
    <path d="M 24.727187 218.566341 
L 631.107187 218.566341 
" style="fill: none; stroke: #000000; stroke-width: 0.8; stroke-linejoin: miter; stroke-linecap: square"/>
   </g>
   <g id="patch_5">
    <path d="M 52.289915 218.566341 
L 171.187954 218.566341 
L 171.187954 17.593722 
L 52.289915 17.593722 
z
" clip-path="url(#p98cef3479c)" style="fill: #1a56db"/>
   </g>
   <g id="patch_6">
    <path d="M 268.468168 218.566341 
L 387.366207 218.566341 
L 387.366207 152.53248 
L 268.468168 152.53248 
z
" clip-path="url(#p98cef3479c)" style="fill: #1a56db"/>
   </g>
   <g id="patch_7">
    <path d="M 484.646421 218.566341 
L 603.54446 218.566341 
L 603.54446 204.211154 
L 484.646421 204.211154 
z
" clip-path="url(#p98cef3479c)" style="fill: #1a56db"/>
   </g>
   <g id="text_12">
    <!-- 70 -->
    <g transform="translate(106.475341 14.895) scale(0.095 -0.095)">
     <use xlink:href="#STHeitiTC-Medium-37"/>
     <use xlink:href="#STHeitiTC-Medium-30" x="55.399994"/>
    </g>
   </g>
   <g id="text_13">
    <!-- 23 -->
    <g transform="translate(322.653594 149.833759) scale(0.095 -0.095)">
     <use xlink:href="#STHeitiTC-Medium-32"/>
     <use xlink:href="#STHeitiTC-Medium-33" x="55.399994"/>
    </g>
   </g>
   <g id="text_14">
    <!-- 5 -->
    <g transform="translate(541.463644 201.512432) scale(0.095 -0.095)">
     <use xlink:href="#STHeitiTC-Medium-35"/>
    </g>
   </g>
  </g>
 </g>
 <defs>
  <clipPath id="p98cef3479c">
   <rect x="24.727187" y="7.545091" width="606.38" height="211.02125"/>
  </clipPath>
 </defs>
</svg>
