<?xml version="1.0" encoding="utf-8" standalone="no"?>
<!DOCTYPE svg PUBLIC "-//W3C//DTD SVG 1.1//EN"
  "http://www.w3.org/Graphics/SVG/1.1/DTD/svg11.dtd">
<svg xmlns:xlink="http://www.w3.org/1999/xlink" width="630.430067pt" height="241.413982pt" viewBox="0 0 630.430067 241.413982" xmlns="http://www.w3.org/2000/svg" version="1.1">
 <metadata>
  <rdf:RDF xmlns:dc="http://purl.org/dc/elements/1.1/" xmlns:cc="http://creativecommons.org/ns#" xmlns:rdf="http://www.w3.org/1999/02/22-rdf-syntax-ns#">
   <cc:Work>
    <dc:type rdf:resource="http://purl.org/dc/dcmitype/StillImage"/>
    <dc:date>2026-05-31T01:32:53.287579</dc:date>
    <dc:format>image/svg+xml</dc:format>
    <dc:creator>
     <cc:Agent>
      <dc:title>Matplotlib v3.10.9, https://matplotlib.org/</dc:title>
     </cc:Agent>
    </dc:creator>
   </cc:Work>
  </rdf:RDF>
 </metadata>
 <defs>
  <style type="text/css">*{stroke-linejoin: round; stroke-linecap: butt}</style>
 </defs>
 <g id="figure_1">
  <g id="patch_1">
   <path d="M 0 241.413982 
L 630.430067 241.413982 
L 630.430067 0 
L 0 0 
z
" style="fill: #ffffff"/>
  </g>
  <g id="axes_1">
   <g id="patch_2">
    <path d="M 30.0175 217.381482 
L 623.230067 217.381482 
L 623.230067 7.842982 
L 30.0175 7.842982 
z
" style="fill: #fafafa"/>
   </g>
   <g id="matplotlib.axis_1">
    <g id="xtick_1">
     <g id="line2d_1">
      <defs>
       <path id="m756113c7a1" d="M 0 0 
L 0 3.5 
" style="stroke: #333333; stroke-width: 0.8"/>
      </defs>
      <g>
       <use xlink:href="#m756113c7a1" x="115.139802" y="217.381482" style="fill: #333333; stroke: #333333; stroke-width: 0.8"/>
      </g>
     </g>
     <g id="text_1">
      <!-- 5/27 公关稿「Devin 写 89% 代码」 -->
      <g style="fill: #333333" transform="translate(40.886912 231.942888) scale(0.095 -0.095)">
       <defs>
        <path id="NotoSansCJKjp-Regular-35" d="M 1677 -83 
C 2464 -83 3213 499 3213 1523 
C 3213 2560 2573 3021 1798 3021 
C 1517 3021 1306 2950 1094 2835 
L 1216 4192 
L 2982 4192 
L 2982 4691 
L 704 4691 
L 550 2502 
L 864 2304 
C 1133 2483 1331 2579 1645 2579 
C 2234 2579 2618 2182 2618 1510 
C 2618 826 2176 403 1619 403 
C 1075 403 730 653 467 922 
L 173 538 
C 493 224 941 -83 1677 -83 
z
" transform="scale(0.015625)"/>
        <path id="NotoSansCJKjp-Regular-2f" d="M 70 -1146 
L 499 -1146 
L 2413 5082 
L 1990 5082 
L 70 -1146 
z
" transform="scale(0.015625)"/>
        <path id="NotoSansCJKjp-Regular-32" d="M 282 0 
L 3232 0 
L 3232 506 
L 1933 506 
C 1696 506 1408 480 1165 461 
C 2266 1504 3008 2458 3008 3398 
C 3008 4230 2477 4774 1638 4774 
C 1043 4774 634 4506 256 4090 
L 595 3757 
C 858 4070 1184 4301 1568 4301 
C 2150 4301 2432 3910 2432 3373 
C 2432 2566 1754 1632 282 346 
L 282 0 
z
" transform="scale(0.015625)"/>
        <path id="NotoSansCJKjp-Regular-37" d="M 1267 0 
L 1875 0 
C 1952 1837 2150 2931 3251 4339 
L 3251 4691 
L 314 4691 
L 314 4192 
L 2592 4192 
C 1670 2912 1350 1779 1267 0 
z
" transform="scale(0.015625)"/>
        <path id="NotoSansCJKjp-Regular-20" transform="scale(0.015625)"/>
        <path id="NotoSansCJKjp-Regular-516c" d="M 2029 5190 
C 1651 4243 1018 3322 320 2746 
C 448 2669 678 2496 774 2400 
C 1459 3034 2131 4013 2560 5043 
L 2029 5190 
z
M 4314 5190 
L 3846 4998 
C 4333 4096 5139 3014 5728 2400 
C 5824 2528 6003 2714 6138 2810 
C 5542 3347 4742 4358 4314 5190 
z
M 3904 1651 
C 4211 1293 4538 858 4826 442 
L 2003 320 
C 2426 1075 2893 2086 3238 2912 
L 2675 3059 
C 2394 2214 1894 1082 1459 294 
L 576 269 
L 640 -237 
C 1792 -186 3501 -102 5126 -6 
C 5248 -205 5357 -384 5440 -544 
L 5920 -282 
C 5600 301 4947 1197 4358 1869 
L 3904 1651 
z
" transform="scale(0.015625)"/>
        <path id="NotoSansCJKjp-Regular-5173" d="M 4378 5370 
C 4237 5005 3968 4493 3750 4173 
L 4141 4013 
C 4371 4314 4646 4781 4877 5197 
L 4378 5370 
z
M 1574 5107 
C 1837 4768 2106 4301 2214 3987 
L 2637 4218 
C 2522 4518 2240 4973 1965 5299 
L 1574 5107 
z
M 1075 2374 
L 1075 1920 
L 2880 1920 
C 2778 1203 2374 410 877 -154 
C 992 -250 1146 -422 1210 -531 
C 2483 0 3034 698 3258 1395 
C 3635 480 4250 -173 5158 -512 
C 5229 -378 5370 -192 5485 -90 
C 4493 218 3853 941 3520 1920 
L 5338 1920 
L 5338 2374 
L 3411 2374 
L 3411 2490 
L 3411 3469 
L 5082 3469 
L 5082 3930 
L 1318 3930 
L 1318 3469 
L 2918 3469 
L 2918 2496 
L 2918 2374 
L 1075 2374 
z
" transform="scale(0.015625)"/>
        <path id="NotoSansCJKjp-Regular-7a3f" d="M 3456 3622 
L 5139 3622 
L 5139 3002 
L 3456 3002 
L 3456 3622 
z
M 3034 3974 
L 3034 2650 
L 5581 2650 
L 5581 3974 
L 3034 3974 
z
M 2515 4717 
L 2515 4326 
L 6035 4326 
L 6035 4717 
L 4512 4717 
L 4512 5370 
L 4051 5370 
L 4051 4717 
L 2515 4717 
z
M 2566 2291 
L 2566 -506 
L 3002 -506 
L 3002 1901 
L 5574 1901 
L 5574 -38 
C 5574 -102 5555 -122 5485 -128 
C 5414 -128 5197 -128 4947 -122 
C 4998 -230 5062 -397 5075 -506 
C 5446 -506 5677 -506 5830 -442 
C 5978 -371 6016 -256 6016 -38 
L 6016 2291 
L 2566 2291 
z
M 3827 1190 
L 4749 1190 
L 4749 538 
L 3827 538 
L 3827 1190 
z
M 3469 1517 
L 3469 -96 
L 3827 -96 
L 3827 211 
L 5114 211 
L 5114 1517 
L 3469 1517 
z
M 2144 5274 
C 1715 5075 941 4915 282 4813 
C 339 4710 403 4544 422 4448 
C 685 4480 960 4518 1235 4570 
L 1235 3603 
L 288 3603 
L 288 3155 
L 1184 3155 
C 954 2426 563 1587 198 1126 
C 275 1018 390 819 442 685 
C 730 1062 1011 1664 1235 2278 
L 1235 -512 
L 1696 -512 
L 1696 2413 
C 1882 2144 2093 1811 2182 1638 
L 2477 2003 
C 2362 2163 1862 2746 1696 2925 
L 1696 3155 
L 2502 3155 
L 2502 3603 
L 1696 3603 
L 1696 4672 
C 1990 4742 2272 4819 2502 4915 
L 2144 5274 
z
" transform="scale(0.015625)"/>
        <path id="NotoSansCJKjp-Regular-300c" d="M 4160 5414 
L 4160 1274 
L 4634 1274 
L 4634 4973 
L 6182 4973 
L 6182 5414 
L 4160 5414 
z
" transform="scale(0.015625)"/>
        <path id="NotoSansCJKjp-Regular-44" d="M 646 0 
L 1843 0 
C 3258 0 4026 877 4026 2362 
C 4026 3859 3258 4691 1818 4691 
L 646 4691 
L 646 0 
z
M 1235 486 
L 1235 4211 
L 1766 4211 
C 2874 4211 3418 3552 3418 2362 
C 3418 1178 2874 486 1766 486 
L 1235 486 
z
" transform="scale(0.015625)"/>
        <path id="NotoSansCJKjp-Regular-65" d="M 1997 -83 
C 2464 -83 2835 70 3136 269 
L 2931 659 
C 2669 486 2400 384 2061 384 
C 1402 384 947 858 909 1600 
L 3251 1600 
C 3264 1690 3277 1805 3277 1933 
C 3277 2925 2778 3565 1888 3565 
C 1094 3565 333 2867 333 1734 
C 333 589 1069 -83 1997 -83 
z
M 902 2016 
C 973 2707 1408 3098 1901 3098 
C 2445 3098 2765 2720 2765 2016 
L 902 2016 
z
" transform="scale(0.015625)"/>
        <path id="NotoSansCJKjp-Regular-76" d="M 1338 0 
L 2022 0 
L 3251 3475 
L 2675 3475 
L 2016 1498 
C 1914 1158 1798 806 1696 474 
L 1664 474 
C 1562 806 1453 1158 1344 1498 
L 691 3475 
L 83 3475 
L 1338 0 
z
" transform="scale(0.015625)"/>
        <path id="NotoSansCJKjp-Regular-69" d="M 589 0 
L 1178 0 
L 1178 3475 
L 589 3475 
L 589 0 
z
M 883 4192 
C 1114 4192 1274 4346 1274 4582 
C 1274 4806 1114 4960 883 4960 
C 653 4960 499 4806 499 4582 
C 499 4346 653 4192 883 4192 
z
" transform="scale(0.015625)"/>
        <path id="NotoSansCJKjp-Regular-6e" d="M 589 0 
L 1178 0 
L 1178 2522 
C 1523 2874 1766 3053 2125 3053 
C 2586 3053 2784 2778 2784 2125 
L 2784 0 
L 3366 0 
L 3366 2202 
C 3366 3085 3034 3565 2304 3565 
C 1830 3565 1466 3302 1139 2970 
L 1126 2970 
L 1069 3475 
L 589 3475 
L 589 0 
z
" transform="scale(0.015625)"/>
        <path id="NotoSansCJKjp-Regular-5199" d="M 499 5030 
L 499 3629 
L 979 3629 
L 979 4582 
L 5414 4582 
L 5414 3629 
L 5914 3629 
L 5914 5030 
L 499 5030 
z
M 1920 4531 
C 1773 3725 1536 2630 1344 1978 
L 1830 1933 
L 1888 2150 
L 4384 2150 
L 4301 1389 
L 352 1389 
L 352 947 
L 4237 947 
C 4147 390 4045 102 3917 -6 
C 3840 -70 3757 -83 3610 -83 
C 3450 -83 3014 -77 2566 -38 
C 2656 -166 2720 -358 2733 -493 
C 3149 -518 3558 -525 3776 -512 
C 4013 -499 4166 -448 4314 -301 
C 4486 -134 4614 218 4723 947 
L 6067 947 
L 6067 1389 
L 4781 1389 
C 4813 1670 4845 1990 4877 2355 
C 4890 2426 4896 2579 4896 2579 
L 1990 2579 
L 2170 3347 
L 4973 3347 
L 4973 3770 
L 2259 3770 
L 2400 4486 
L 1920 4531 
z
" transform="scale(0.015625)"/>
        <path id="NotoSansCJKjp-Regular-38" d="M 1792 -83 
C 2669 -83 3258 448 3258 1126 
C 3258 1773 2880 2125 2470 2362 
L 2470 2394 
C 2746 2611 3091 3034 3091 3526 
C 3091 4250 2605 4762 1805 4762 
C 1075 4762 518 4282 518 3571 
C 518 3078 813 2726 1152 2490 
L 1152 2464 
C 723 2234 294 1792 294 1165 
C 294 442 922 -83 1792 -83 
z
M 2112 2547 
C 1555 2765 1050 3014 1050 3571 
C 1050 4026 1363 4326 1798 4326 
C 2298 4326 2592 3962 2592 3494 
C 2592 3149 2426 2829 2112 2547 
z
M 1798 352 
C 1235 352 813 717 813 1216 
C 813 1664 1082 2035 1459 2278 
C 2125 2010 2701 1779 2701 1146 
C 2701 678 2342 352 1798 352 
z
" transform="scale(0.015625)"/>
        <path id="NotoSansCJKjp-Regular-39" d="M 1504 -83 
C 2381 -83 3206 646 3206 2547 
C 3206 4038 2528 4774 1626 4774 
C 896 4774 282 4166 282 3251 
C 282 2285 794 1779 1574 1779 
C 1965 1779 2368 2003 2656 2349 
C 2611 896 2086 403 1485 403 
C 1178 403 896 538 691 762 
L 371 397 
C 634 122 992 -83 1504 -83 
z
M 2650 2842 
C 2336 2394 1984 2214 1670 2214 
C 1114 2214 832 2624 832 3251 
C 832 3898 1178 4320 1632 4320 
C 2227 4320 2586 3808 2650 2842 
z
" transform="scale(0.015625)"/>
        <path id="NotoSansCJKjp-Regular-25" d="M 1312 1818 
C 1958 1818 2381 2362 2381 3309 
C 2381 4243 1958 4774 1312 4774 
C 672 4774 250 4243 250 3309 
C 250 2362 672 1818 1312 1818 
z
M 1312 2176 
C 941 2176 691 2560 691 3309 
C 691 4058 941 4416 1312 4416 
C 1683 4416 1933 4058 1933 3309 
C 1933 2560 1683 2176 1312 2176 
z
M 1446 -83 
L 1843 -83 
L 4435 4774 
L 4038 4774 
L 1446 -83 
z
M 4582 -83 
C 5222 -83 5645 454 5645 1402 
C 5645 2342 5222 2874 4582 2874 
C 3942 2874 3520 2342 3520 1402 
C 3520 454 3942 -83 4582 -83 
z
M 4582 275 
C 4211 275 3955 653 3955 1402 
C 3955 2150 4211 2515 4582 2515 
C 4947 2515 5210 2150 5210 1402 
C 5210 653 4947 275 4582 275 
z
" transform="scale(0.015625)"/>
        <path id="NotoSansCJKjp-Regular-4ee3" d="M 4576 5011 
C 4954 4691 5402 4243 5613 3955 
L 5984 4211 
C 5766 4499 5306 4934 4922 5242 
L 4576 5011 
z
M 3507 5286 
C 3533 4608 3578 3968 3635 3379 
L 2074 3181 
L 2144 2726 
L 3686 2918 
C 3930 909 4442 -429 5504 -506 
C 5843 -525 6099 -192 6240 915 
C 6144 960 5933 1075 5837 1171 
C 5773 429 5670 51 5485 58 
C 4800 128 4378 1280 4160 2982 
L 6112 3226 
L 6042 3680 
L 4109 3437 
C 4045 4006 4006 4634 3987 5286 
L 3507 5286 
z
M 2003 5312 
C 1581 4294 870 3315 134 2688 
C 218 2579 365 2336 416 2227 
C 710 2490 998 2810 1274 3162 
L 1274 -499 
L 1766 -499 
L 1766 3866 
C 2029 4275 2266 4717 2458 5165 
L 2003 5312 
z
" transform="scale(0.015625)"/>
        <path id="NotoSansCJKjp-Regular-7801" d="M 2624 1312 
L 2624 877 
L 5069 877 
L 5069 1312 
L 2624 1312 
z
M 3142 4160 
C 3098 3526 3014 2669 2931 2157 
L 3059 2157 
L 5523 2150 
C 5402 749 5261 179 5094 13 
C 5030 -51 4966 -64 4851 -58 
C 4736 -58 4448 -58 4141 -26 
C 4218 -147 4262 -333 4275 -467 
C 4582 -486 4877 -486 5043 -474 
C 5235 -461 5357 -416 5478 -275 
C 5709 -45 5856 627 6003 2355 
C 6010 2426 6016 2566 6016 2566 
L 5222 2566 
C 5325 3360 5427 4320 5478 4986 
L 5139 5024 
L 5062 4998 
L 2835 4998 
L 2835 4557 
L 4979 4557 
C 4928 3994 4845 3213 4768 2566 
L 3437 2566 
C 3494 3040 3558 3642 3590 4128 
L 3142 4160 
z
M 326 5037 
L 326 4595 
L 1107 4595 
C 928 3616 640 2707 186 2099 
C 262 1971 371 1702 403 1581 
C 525 1741 640 1914 742 2106 
L 742 -218 
L 1158 -218 
L 1158 294 
L 2336 294 
L 2336 3066 
L 1165 3066 
C 1331 3546 1466 4064 1568 4595 
L 2522 4595 
L 2522 5037 
L 326 5037 
z
M 1158 2630 
L 1914 2630 
L 1914 723 
L 1158 723 
L 1158 2630 
z
" transform="scale(0.015625)"/>
        <path id="NotoSansCJKjp-Regular-300d" d="M 2240 -550 
L 2240 3590 
L 1766 3590 
L 1766 -109 
L 218 -109 
L 218 -550 
L 2240 -550 
z
" transform="scale(0.015625)"/>
       </defs>
       <use xlink:href="#NotoSansCJKjp-Regular-35"/>
       <use xlink:href="#NotoSansCJKjp-Regular-2f" transform="translate(55.499985 0)"/>
       <use xlink:href="#NotoSansCJKjp-Regular-32" transform="translate(94.699982 0)"/>
       <use xlink:href="#NotoSansCJKjp-Regular-37" transform="translate(150.199966 0)"/>
       <use xlink:href="#NotoSansCJKjp-Regular-20" transform="translate(205.699951 0)"/>
       <use xlink:href="#NotoSansCJKjp-Regular-516c" transform="translate(228.099945 0)"/>
       <use xlink:href="#NotoSansCJKjp-Regular-5173" transform="translate(328.09993 0)"/>
       <use xlink:href="#NotoSansCJKjp-Regular-7a3f" transform="translate(428.099915 0)"/>
       <use xlink:href="#NotoSansCJKjp-Regular-300c" transform="translate(528.099899 0)"/>
       <use xlink:href="#NotoSansCJKjp-Regular-44" transform="translate(628.099884 0)"/>
       <use xlink:href="#NotoSansCJKjp-Regular-65" transform="translate(696.899872 0)"/>
       <use xlink:href="#NotoSansCJKjp-Regular-76" transform="translate(752.299866 0)"/>
       <use xlink:href="#NotoSansCJKjp-Regular-69" transform="translate(804.399857 0)"/>
       <use xlink:href="#NotoSansCJKjp-Regular-6e" transform="translate(831.899841 0)"/>
       <use xlink:href="#NotoSansCJKjp-Regular-20" transform="translate(892.899826 0)"/>
       <use xlink:href="#NotoSansCJKjp-Regular-5199" transform="translate(915.29982 0)"/>
       <use xlink:href="#NotoSansCJKjp-Regular-20" transform="translate(1015.299805 0)"/>
       <use xlink:href="#NotoSansCJKjp-Regular-38" transform="translate(1037.699799 0)"/>
       <use xlink:href="#NotoSansCJKjp-Regular-39" transform="translate(1093.199783 0)"/>
       <use xlink:href="#NotoSansCJKjp-Regular-25" transform="translate(1148.699768 0)"/>
       <use xlink:href="#NotoSansCJKjp-Regular-20" transform="translate(1240.799759 0)"/>
       <use xlink:href="#NotoSansCJKjp-Regular-4ee3" transform="translate(1263.199753 0)"/>
       <use xlink:href="#NotoSansCJKjp-Regular-7801" transform="translate(1363.199738 0)"/>
       <use xlink:href="#NotoSansCJKjp-Regular-300d" transform="translate(1463.199722 0)"/>
      </g>
     </g>
    </g>
    <g id="xtick_2">
     <g id="line2d_2">
      <g>
       <use xlink:href="#m756113c7a1" x="326.623783" y="217.381482" style="fill: #333333; stroke: #333333; stroke-width: 0.8"/>
      </g>
     </g>
     <g id="text_2">
      <!-- 5/29 现场「我们从没想过取代人」 -->
      <g style="fill: #333333" transform="translate(254.038588 231.942888) scale(0.095 -0.095)">
       <defs>
        <path id="NotoSansCJKjp-Regular-73b0" d="M 2765 5062 
L 2765 1658 
L 3226 1658 
L 3226 4640 
L 5165 4640 
L 5165 1658 
L 5638 1658 
L 5638 5062 
L 2765 5062 
z
M 275 640 
L 384 173 
C 992 358 1805 602 2566 826 
L 2509 1274 
L 1670 1024 
L 1670 2643 
L 2342 2643 
L 2342 3091 
L 1670 3091 
L 1670 4493 
L 2470 4493 
L 2470 4941 
L 352 4941 
L 352 4493 
L 1210 4493 
L 1210 3091 
L 448 3091 
L 448 2643 
L 1210 2643 
L 1210 890 
C 858 794 538 704 275 640 
z
M 3949 4096 
L 3949 2861 
C 3949 1856 3744 646 2125 -186 
C 2221 -256 2374 -435 2426 -531 
C 3488 26 3994 787 4224 1555 
L 4224 205 
C 4224 -230 4390 -346 4838 -346 
L 5427 -346 
C 5978 -346 6054 -90 6112 922 
C 5990 947 5837 1018 5722 1114 
C 5690 198 5651 19 5427 19 
L 4902 19 
C 4723 19 4672 64 4672 250 
L 4672 1766 
L 4282 1766 
C 4371 2138 4397 2509 4397 2848 
L 4397 4096 
L 3949 4096 
z
" transform="scale(0.015625)"/>
        <path id="NotoSansCJKjp-Regular-573a" d="M 2630 2778 
C 2688 2829 2893 2854 3187 2854 
L 3642 2854 
C 3373 2150 2912 1568 2323 1184 
L 2246 1555 
L 1562 1299 
L 1562 3360 
L 2266 3360 
L 2266 3814 
L 1562 3814 
L 1562 5299 
L 1107 5299 
L 1107 3814 
L 320 3814 
L 320 3360 
L 1107 3360 
L 1107 1133 
C 774 1011 474 902 230 826 
L 390 339 
C 941 557 1664 845 2336 1114 
L 2323 1171 
C 2426 1107 2598 979 2669 902 
C 3283 1350 3808 2022 4096 2854 
L 4634 2854 
C 4230 1485 3514 422 2426 -230 
C 2534 -294 2720 -429 2797 -506 
C 3878 218 4640 1350 5082 2854 
L 5517 2854 
C 5402 973 5267 243 5101 64 
C 5037 -13 4979 -32 4877 -26 
C 4762 -26 4518 -26 4256 0 
C 4333 -128 4384 -320 4390 -454 
C 4659 -467 4922 -474 5075 -454 
C 5261 -435 5389 -384 5510 -230 
C 5734 32 5869 826 6003 3072 
C 6010 3142 6016 3309 6016 3309 
L 3443 3309 
C 4077 3712 4749 4237 5434 4845 
L 5075 5114 
L 4973 5075 
L 2400 5075 
L 2400 4621 
L 4461 4621 
C 3904 4115 3283 3680 3072 3546 
C 2822 3386 2586 3251 2426 3232 
C 2490 3110 2592 2886 2630 2778 
z
" transform="scale(0.015625)"/>
        <path id="NotoSansCJKjp-Regular-6211" d="M 4506 4954 
C 4877 4627 5312 4160 5510 3853 
L 5901 4134 
C 5690 4435 5242 4890 4870 5210 
L 4506 4954 
z
M 5325 2733 
C 5107 2323 4819 1920 4480 1555 
C 4371 1984 4282 2483 4218 3027 
L 6054 3027 
L 6054 3482 
L 4166 3482 
C 4115 4058 4090 4678 4090 5325 
L 3584 5325 
C 3590 4691 3622 4070 3674 3482 
L 2208 3482 
L 2208 4608 
C 2598 4691 2970 4787 3283 4896 
L 2944 5299 
C 2330 5069 1293 4851 397 4717 
C 454 4602 518 4429 544 4314 
C 922 4365 1331 4429 1728 4506 
L 1728 3482 
L 358 3482 
L 358 3027 
L 1728 3027 
L 1728 1894 
L 262 1606 
L 403 1120 
L 1728 1421 
L 1728 109 
C 1728 0 1690 -32 1581 -38 
C 1466 -45 1088 -45 678 -32 
C 749 -166 832 -384 851 -518 
C 1382 -518 1728 -506 1926 -429 
C 2138 -352 2208 -205 2208 109 
L 2208 1536 
L 3392 1811 
L 3354 2240 
L 2208 1997 
L 2208 3027 
L 3718 3027 
C 3802 2330 3923 1690 4077 1152 
C 3616 730 3098 371 2554 109 
C 2675 6 2816 -154 2886 -269 
C 3366 -19 3827 301 4243 672 
C 4531 -77 4928 -531 5434 -531 
C 5914 -531 6093 -218 6176 845 
C 6048 890 5875 998 5773 1107 
C 5734 282 5658 -45 5478 -45 
C 5158 -45 4864 365 4634 1043 
C 5075 1498 5459 2010 5747 2554 
L 5325 2733 
z
" transform="scale(0.015625)"/>
        <path id="NotoSansCJKjp-Regular-4eec" d="M 2438 5171 
C 2714 4774 3040 4237 3181 3910 
L 3578 4141 
C 3430 4467 3091 4992 2810 5370 
L 2438 5171 
z
M 2163 4083 
L 2163 -512 
L 2630 -512 
L 2630 4083 
L 2163 4083 
z
M 3680 5139 
L 3680 4704 
L 5421 4704 
L 5421 102 
C 5421 -6 5389 -38 5286 -45 
C 5178 -51 4819 -51 4454 -38 
C 4518 -166 4589 -371 4608 -493 
C 5114 -493 5446 -486 5638 -416 
C 5830 -333 5901 -192 5901 96 
L 5901 5139 
L 3680 5139 
z
M 1440 5338 
C 1171 4358 736 3373 230 2720 
C 314 2605 448 2349 486 2234 
C 640 2438 794 2669 934 2918 
L 934 -506 
L 1389 -506 
L 1389 3834 
C 1581 4275 1754 4749 1888 5216 
L 1440 5338 
z
" transform="scale(0.015625)"/>
        <path id="NotoSansCJKjp-Regular-4ece" d="M 3974 5146 
C 3949 3827 3917 1126 2099 -141 
C 2259 -237 2419 -371 2528 -499 
C 3520 243 4006 1408 4243 2547 
C 4493 1382 4941 211 5824 -512 
C 5907 -371 6086 -147 6202 -45 
C 5005 832 4614 2624 4448 4128 
C 4474 4506 4480 4851 4486 5146 
L 3974 5146 
z
M 1670 5158 
C 1574 2803 1306 915 230 -192 
C 358 -269 614 -442 698 -518 
C 1306 179 1658 1094 1882 2208 
C 2234 1760 2579 1261 2758 909 
L 3117 1318 
C 2893 1734 2432 2355 1990 2848 
C 2093 3546 2157 4314 2202 5139 
L 1670 5158 
z
" transform="scale(0.015625)"/>
        <path id="NotoSansCJKjp-Regular-6ca1" d="M 589 4979 
C 1005 4787 1504 4474 1747 4230 
L 2029 4627 
C 1779 4858 1267 5146 858 5325 
L 589 4979 
z
M 243 3245 
C 666 3066 1178 2765 1427 2547 
L 1696 2944 
C 1440 3155 915 3443 499 3603 
L 243 3245 
z
M 454 -109 
L 864 -422 
C 1216 166 1645 973 1958 1651 
L 1600 1958 
C 1248 1229 781 390 454 -109 
z
M 2746 5146 
L 2746 4410 
C 2746 3923 2624 3373 1869 2963 
C 1971 2899 2144 2714 2208 2611 
C 3034 3085 3219 3802 3219 4397 
L 3219 4698 
L 4563 4698 
L 4563 3597 
C 4563 3213 4608 3104 4710 3021 
C 4813 2938 4986 2906 5126 2906 
C 5203 2906 5421 2906 5510 2906 
C 5632 2906 5786 2925 5875 2963 
C 5978 3008 6054 3078 6093 3194 
C 6138 3302 6157 3603 6170 3872 
C 6035 3917 5862 4000 5766 4090 
C 5766 3802 5754 3590 5741 3494 
C 5728 3405 5690 3354 5651 3341 
C 5619 3322 5542 3309 5478 3309 
C 5402 3309 5286 3309 5229 3309 
C 5165 3309 5120 3315 5082 3341 
C 5043 3360 5037 3443 5037 3571 
L 5037 5146 
L 2746 5146 
z
M 4986 2099 
C 4755 1632 4416 1242 4013 922 
C 3622 1254 3322 1651 3110 2099 
L 4986 2099 
z
M 2182 2547 
L 2182 2099 
L 2982 2099 
L 2662 1990 
C 2899 1472 3226 1024 3622 646 
C 3046 294 2381 51 1690 -83 
C 1779 -192 1894 -390 1939 -525 
C 2682 -352 3392 -77 4000 333 
C 4531 -64 5165 -352 5894 -525 
C 5965 -390 6106 -192 6214 -90 
C 5523 45 4915 288 4403 627 
C 4954 1088 5389 1677 5658 2432 
L 5331 2566 
L 5242 2547 
L 2182 2547 
z
" transform="scale(0.015625)"/>
        <path id="NotoSansCJKjp-Regular-60f3" d="M 1811 1280 
L 1811 256 
C 1811 -243 1990 -378 2694 -378 
C 2835 -378 3872 -378 4026 -378 
C 4614 -378 4755 -179 4819 627 
C 4685 653 4493 723 4384 806 
C 4352 147 4307 64 3994 64 
C 3757 64 2893 64 2720 64 
C 2349 64 2278 90 2278 262 
L 2278 1280 
L 1811 1280 
z
M 2650 1498 
C 2950 1203 3334 794 3526 550 
L 3878 838 
C 3680 1075 3283 1472 2982 1747 
L 2650 1498 
z
M 4909 1286 
C 5165 864 5498 301 5651 -32 
L 6099 186 
C 5939 512 5594 1069 5331 1472 
L 4909 1286 
z
M 902 1357 
C 781 928 557 378 294 38 
L 717 -179 
C 979 179 1190 755 1318 1190 
L 902 1357 
z
M 3718 3674 
L 5318 3674 
L 5318 3072 
L 3718 3072 
L 3718 3674 
z
M 3718 2694 
L 5318 2694 
L 5318 2086 
L 3718 2086 
L 3718 2694 
z
M 3718 4640 
L 5318 4640 
L 5318 4051 
L 3718 4051 
L 3718 4640 
z
M 3277 5037 
L 3277 1696 
L 5779 1696 
L 5779 5037 
L 3277 5037 
z
M 1523 5363 
L 1523 4416 
L 352 4416 
L 352 4000 
L 1440 4000 
C 1158 3347 678 2682 205 2349 
C 307 2266 448 2112 525 2003 
C 877 2304 1242 2790 1523 3322 
L 1523 1632 
L 1984 1632 
L 1984 3187 
C 2266 2957 2624 2643 2790 2477 
L 3053 2867 
C 2886 3002 2240 3475 1984 3642 
L 1984 4000 
L 3002 4000 
L 3002 4416 
L 1984 4416 
L 1984 5363 
L 1523 5363 
z
" transform="scale(0.015625)"/>
        <path id="NotoSansCJKjp-Regular-8fc7" d="M 506 4954 
C 864 4621 1274 4154 1453 3853 
L 1856 4134 
C 1658 4435 1235 4883 877 5203 
L 506 4954 
z
M 2438 3053 
C 2765 2656 3155 2093 3334 1760 
L 3738 2003 
C 3552 2336 3149 2874 2822 3264 
L 2438 3053 
z
M 1677 2976 
L 320 2976 
L 320 2528 
L 1203 2528 
L 1203 851 
C 915 749 582 461 237 90 
L 570 -365 
C 896 77 1210 454 1421 454 
C 1568 454 1773 237 2042 70 
C 2490 -211 3027 -275 3821 -275 
C 4435 -275 5568 -243 6022 -218 
C 6029 -70 6112 173 6170 301 
C 5549 237 4582 179 3834 179 
C 3117 179 2573 230 2150 486 
C 1933 614 1798 742 1677 819 
L 1677 2976 
z
M 4608 5357 
L 4608 4224 
L 2125 4224 
L 2125 3770 
L 4608 3770 
L 4608 1229 
C 4608 1114 4563 1082 4435 1075 
C 4307 1069 3859 1069 3392 1088 
C 3462 947 3539 736 3565 595 
C 4166 595 4557 602 4781 685 
C 5011 762 5094 902 5094 1229 
L 5094 3770 
L 5984 3770 
L 5984 4224 
L 5094 4224 
L 5094 5357 
L 4608 5357 
z
" transform="scale(0.015625)"/>
        <path id="NotoSansCJKjp-Regular-53d6" d="M 3853 4000 
L 3392 3910 
C 3603 2854 3904 1926 4346 1165 
C 3968 634 3507 237 3002 -26 
C 3110 -122 3245 -301 3315 -422 
C 3808 -134 4256 243 4634 723 
C 4986 243 5408 -154 5920 -442 
C 5997 -320 6144 -134 6253 -45 
C 5722 230 5286 640 4928 1152 
C 5446 1971 5811 3046 5971 4429 
L 5664 4512 
L 5581 4493 
L 3270 4493 
L 3270 4026 
L 5440 4026 
C 5286 3078 5011 2272 4640 1619 
C 4275 2304 4019 3110 3853 4000 
z
M 173 787 
L 262 314 
C 870 403 1702 531 2515 666 
L 2515 -499 
L 2982 -499 
L 2982 4525 
L 3430 4525 
L 3430 4979 
L 307 4979 
L 307 4525 
L 800 4525 
L 800 870 
L 173 787 
z
M 1261 4525 
L 2515 4525 
L 2515 3674 
L 1261 3674 
L 1261 4525 
z
M 1261 3238 
L 2515 3238 
L 2515 2342 
L 1261 2342 
L 1261 3238 
z
M 1261 1907 
L 2515 1907 
L 2515 1114 
L 1261 934 
L 1261 1907 
z
" transform="scale(0.015625)"/>
        <path id="NotoSansCJKjp-Regular-4eba" d="M 2867 5178 
C 2829 4333 2829 1254 211 -83 
C 365 -186 518 -333 602 -454 
C 2234 429 2893 1978 3174 3270 
C 3488 1978 4205 339 5856 -454 
C 5933 -326 6080 -160 6227 -51 
C 3782 1062 3443 4064 3386 4890 
L 3405 5178 
L 2867 5178 
z
" transform="scale(0.015625)"/>
       </defs>
       <use xlink:href="#NotoSansCJKjp-Regular-35"/>
       <use xlink:href="#NotoSansCJKjp-Regular-2f" transform="translate(55.499985 0)"/>
       <use xlink:href="#NotoSansCJKjp-Regular-32" transform="translate(94.699982 0)"/>
       <use xlink:href="#NotoSansCJKjp-Regular-39" transform="translate(150.199966 0)"/>
       <use xlink:href="#NotoSansCJKjp-Regular-20" transform="translate(205.699951 0)"/>
       <use xlink:href="#NotoSansCJKjp-Regular-73b0" transform="translate(228.099945 0)"/>
       <use xlink:href="#NotoSansCJKjp-Regular-573a" transform="translate(328.09993 0)"/>
       <use xlink:href="#NotoSansCJKjp-Regular-300c" transform="translate(428.099915 0)"/>
       <use xlink:href="#NotoSansCJKjp-Regular-6211" transform="translate(528.099899 0)"/>
       <use xlink:href="#NotoSansCJKjp-Regular-4eec" transform="translate(628.099884 0)"/>
       <use xlink:href="#NotoSansCJKjp-Regular-4ece" transform="translate(728.099869 0)"/>
       <use xlink:href="#NotoSansCJKjp-Regular-6ca1" transform="translate(828.099854 0)"/>
       <use xlink:href="#NotoSansCJKjp-Regular-60f3" transform="translate(928.099838 0)"/>
       <use xlink:href="#NotoSansCJKjp-Regular-8fc7" transform="translate(1028.099823 0)"/>
       <use xlink:href="#NotoSansCJKjp-Regular-53d6" transform="translate(1128.099808 0)"/>
       <use xlink:href="#NotoSansCJKjp-Regular-4ee3" transform="translate(1228.099792 0)"/>
       <use xlink:href="#NotoSansCJKjp-Regular-4eba" transform="translate(1328.099777 0)"/>
       <use xlink:href="#NotoSansCJKjp-Regular-300d" transform="translate(1428.099762 0)"/>
      </g>
     </g>
    </g>
    <g id="xtick_3">
     <g id="line2d_3">
      <g>
       <use xlink:href="#m756113c7a1" x="538.107764" y="217.381482" style="fill: #333333; stroke: #333333; stroke-width: 0.8"/>
      </g>
     </g>
     <g id="text_3">
      <!-- 12/2025 基线（5 个月前 Devin 占比） -->
      <g style="fill: #333333" transform="translate(458.206827 232.037888) scale(0.095 -0.095)">
       <defs>
        <path id="NotoSansCJKjp-Regular-31" d="M 563 0 
L 3136 0 
L 3136 486 
L 2195 486 
L 2195 4691 
L 1747 4691 
C 1491 4544 1190 4435 774 4358 
L 774 3987 
L 1613 3987 
L 1613 486 
L 563 486 
L 563 0 
z
" transform="scale(0.015625)"/>
        <path id="NotoSansCJKjp-Regular-30" d="M 1779 -83 
C 2669 -83 3238 723 3238 2362 
C 3238 3987 2669 4774 1779 4774 
C 883 4774 320 3987 320 2362 
C 320 723 883 -83 1779 -83 
z
M 1779 390 
C 1248 390 883 986 883 2362 
C 883 3731 1248 4314 1779 4314 
C 2310 4314 2675 3731 2675 2362 
C 2675 986 2310 390 1779 390 
z
" transform="scale(0.015625)"/>
        <path id="NotoSansCJKjp-Regular-57fa" d="M 4378 5370 
L 4378 4755 
L 2048 4755 
L 2048 5376 
L 1568 5376 
L 1568 4755 
L 589 4755 
L 589 4352 
L 1568 4352 
L 1568 2298 
L 294 2298 
L 294 1888 
L 1690 1888 
C 1318 1434 755 1030 230 819 
C 333 730 474 563 544 448 
C 1165 742 1818 1286 2214 1888 
L 4237 1888 
C 4627 1318 5254 787 5869 525 
C 5946 640 6086 813 6189 902 
C 5651 1094 5107 1466 4742 1888 
L 6112 1888 
L 6112 2298 
L 4864 2298 
L 4864 4352 
L 5830 4352 
L 5830 4755 
L 4864 4755 
L 4864 5370 
L 4378 5370 
z
M 2048 4352 
L 4378 4352 
L 4378 3923 
L 2048 3923 
L 2048 4352 
z
M 2944 1683 
L 2944 1146 
L 1632 1146 
L 1632 749 
L 2944 749 
L 2944 70 
L 794 70 
L 794 -339 
L 5645 -339 
L 5645 70 
L 3430 70 
L 3430 749 
L 4774 749 
L 4774 1146 
L 3430 1146 
L 3430 1683 
L 2944 1683 
z
M 2048 3565 
L 4378 3565 
L 4378 3117 
L 2048 3117 
L 2048 3565 
z
M 2048 2752 
L 4378 2752 
L 4378 2298 
L 2048 2298 
L 2048 2752 
z
" transform="scale(0.015625)"/>
        <path id="NotoSansCJKjp-Regular-7ebf" d="M 346 346 
L 448 -115 
C 1037 64 1805 294 2547 512 
L 2477 922 
C 1690 698 877 474 346 346 
z
M 4506 4992 
C 4826 4838 5229 4589 5434 4410 
L 5715 4710 
C 5510 4883 5101 5120 4787 5261 
L 4506 4992 
z
M 461 2707 
C 550 2752 704 2790 1485 2893 
C 1203 2477 954 2157 832 2029 
C 634 1792 486 1632 346 1606 
C 403 1485 474 1261 499 1165 
C 634 1242 851 1306 2458 1632 
C 2445 1728 2445 1907 2458 2035 
L 1184 1805 
C 1670 2381 2157 3085 2566 3789 
L 2163 4032 
C 2042 3795 1901 3552 1760 3322 
L 947 3238 
C 1331 3782 1702 4474 1978 5146 
L 1530 5357 
C 1274 4589 806 3770 666 3558 
C 525 3341 416 3194 301 3162 
C 358 3034 435 2803 461 2707 
z
M 5677 2234 
C 5421 1830 5075 1459 4659 1139 
C 4557 1478 4467 1888 4403 2349 
L 6035 2656 
L 5958 3078 
L 4346 2778 
C 4314 3046 4282 3328 4262 3622 
L 5856 3866 
L 5779 4288 
L 4237 4058 
C 4218 4486 4211 4928 4211 5389 
L 3738 5389 
C 3744 4909 3757 4442 3782 3987 
L 2771 3840 
L 2848 3405 
L 3808 3552 
C 3827 3258 3859 2970 3891 2694 
L 2643 2464 
L 2720 2029 
L 3949 2259 
C 4026 1728 4128 1248 4262 851 
C 3718 486 3091 198 2438 0 
C 2554 -109 2675 -282 2739 -397 
C 3341 -186 3910 90 4422 422 
C 4685 -154 5030 -493 5485 -493 
C 5926 -493 6074 -282 6163 435 
C 6054 480 5901 582 5805 691 
C 5773 122 5709 -26 5536 -26 
C 5254 -26 5018 237 4819 704 
C 5325 1088 5760 1542 6080 2042 
L 5677 2234 
z
" transform="scale(0.015625)"/>
        <path id="NotoSansCJKjp-Regular-ff08" d="M 4448 2432 
C 4448 1184 4954 166 5722 -614 
L 6106 -416 
C 5370 346 4915 1293 4915 2432 
C 4915 3571 5370 4518 6106 5280 
L 5722 5478 
C 4954 4698 4448 3680 4448 2432 
z
" transform="scale(0.015625)"/>
        <path id="NotoSansCJKjp-Regular-4e2a" d="M 3174 4858 
C 3770 4026 4941 3014 5990 2406 
C 6080 2554 6189 2720 6317 2842 
C 5261 3373 4090 4365 3398 5357 
L 2893 5357 
C 2387 4493 1274 3411 115 2758 
C 224 2656 358 2483 422 2368 
C 1562 3040 2650 4051 3174 4858 
z
M 2925 3264 
L 2925 -512 
L 3430 -512 
L 3430 3264 
L 2925 3264 
z
" transform="scale(0.015625)"/>
        <path id="NotoSansCJKjp-Regular-6708" d="M 1325 5037 
L 1325 3066 
C 1325 2035 1222 736 186 -173 
C 294 -237 480 -416 550 -518 
C 1178 32 1498 755 1658 1485 
L 4749 1485 
L 4749 205 
C 4749 64 4704 19 4550 13 
C 4403 6 3885 0 3354 19 
C 3437 -115 3526 -339 3558 -486 
C 4243 -486 4672 -480 4922 -390 
C 5158 -307 5254 -147 5254 198 
L 5254 5037 
L 1325 5037 
z
M 1811 4570 
L 4749 4570 
L 4749 3494 
L 1811 3494 
L 1811 4570 
z
M 1811 3040 
L 4749 3040 
L 4749 1952 
L 1741 1952 
C 1792 2330 1811 2701 1811 3040 
z
" transform="scale(0.015625)"/>
        <path id="NotoSansCJKjp-Regular-524d" d="M 3866 3290 
L 3866 666 
L 4314 666 
L 4314 3290 
L 3866 3290 
z
M 5165 3482 
L 5165 90 
C 5165 -6 5133 -32 5030 -32 
C 4922 -38 4576 -38 4186 -26 
C 4256 -154 4333 -358 4358 -486 
C 4851 -493 5178 -480 5370 -403 
C 5568 -326 5638 -192 5638 83 
L 5638 3482 
L 5165 3482 
z
M 4627 5408 
C 4486 5094 4243 4672 4026 4365 
L 2106 4365 
L 2419 4480 
C 2298 4736 2022 5114 1779 5382 
L 1331 5222 
C 1562 4960 1798 4614 1920 4365 
L 339 4365 
L 339 3923 
L 6061 3923 
L 6061 4365 
L 4570 4365 
C 4755 4627 4960 4947 5139 5242 
L 4627 5408 
z
M 2618 1926 
L 2618 1280 
L 1197 1280 
L 1197 1926 
L 2618 1926 
z
M 2618 2304 
L 1197 2304 
L 1197 2938 
L 2618 2938 
L 2618 2304 
z
M 742 3347 
L 742 -480 
L 1197 -480 
L 1197 902 
L 2618 902 
L 2618 45 
C 2618 -38 2592 -64 2502 -64 
C 2419 -70 2125 -70 1798 -58 
C 1862 -179 1933 -365 1965 -486 
C 2394 -486 2682 -480 2854 -403 
C 3034 -333 3085 -205 3085 38 
L 3085 3347 
L 742 3347 
z
" transform="scale(0.015625)"/>
        <path id="NotoSansCJKjp-Regular-5360" d="M 992 2445 
L 992 -506 
L 1459 -506 
L 1459 -102 
L 4915 -102 
L 4915 -474 
L 5402 -474 
L 5402 2445 
L 3341 2445 
L 3341 3725 
L 5926 3725 
L 5926 4173 
L 3341 4173 
L 3341 5376 
L 2854 5376 
L 2854 2445 
L 992 2445 
z
M 1459 352 
L 1459 1990 
L 4915 1990 
L 4915 352 
L 1459 352 
z
" transform="scale(0.015625)"/>
        <path id="NotoSansCJKjp-Regular-6bd4" d="M 250 128 
L 397 -371 
C 1197 -179 2278 77 3290 326 
L 3245 787 
C 2694 659 2125 525 1600 410 
L 1600 2925 
L 3046 2925 
L 3046 3398 
L 1600 3398 
L 1600 5344 
L 1107 5344 
L 1107 301 
L 250 128 
z
M 3520 5344 
L 3520 512 
C 3520 -186 3693 -371 4320 -371 
C 4448 -371 5261 -371 5395 -371 
C 6003 -371 6138 -13 6202 1037 
C 6061 1069 5869 1152 5747 1248 
C 5709 320 5670 83 5370 83 
C 5190 83 4506 83 4371 83 
C 4064 83 4013 147 4013 499 
L 4013 2586 
C 4691 2874 5414 3219 5952 3571 
L 5594 3974 
C 5216 3674 4608 3328 4013 3046 
L 4013 5344 
L 3520 5344 
z
" transform="scale(0.015625)"/>
        <path id="NotoSansCJKjp-Regular-ff09" d="M 1952 2432 
C 1952 3680 1446 4698 678 5478 
L 294 5280 
C 1030 4518 1485 3571 1485 2432 
C 1485 1293 1030 346 294 -416 
L 678 -614 
C 1446 166 1952 1184 1952 2432 
z
" transform="scale(0.015625)"/>
       </defs>
       <use xlink:href="#NotoSansCJKjp-Regular-31"/>
       <use xlink:href="#NotoSansCJKjp-Regular-32" transform="translate(55.499985 0)"/>
       <use xlink:href="#NotoSansCJKjp-Regular-2f" transform="translate(110.999969 0)"/>
       <use xlink:href="#NotoSansCJKjp-Regular-32" transform="translate(150.199966 0)"/>
       <use xlink:href="#NotoSansCJKjp-Regular-30" transform="translate(205.699951 0)"/>
       <use xlink:href="#NotoSansCJKjp-Regular-32" transform="translate(261.199936 0)"/>
       <use xlink:href="#NotoSansCJKjp-Regular-35" transform="translate(316.699921 0)"/>
       <use xlink:href="#NotoSansCJKjp-Regular-20" transform="translate(372.199905 0)"/>
       <use xlink:href="#NotoSansCJKjp-Regular-57fa" transform="translate(394.599899 0)"/>
       <use xlink:href="#NotoSansCJKjp-Regular-7ebf" transform="translate(494.599884 0)"/>
       <use xlink:href="#NotoSansCJKjp-Regular-ff08" transform="translate(594.599869 0)"/>
       <use xlink:href="#NotoSansCJKjp-Regular-35" transform="translate(694.599854 0)"/>
       <use xlink:href="#NotoSansCJKjp-Regular-20" transform="translate(750.099838 0)"/>
       <use xlink:href="#NotoSansCJKjp-Regular-4e2a" transform="translate(772.499832 0)"/>
       <use xlink:href="#NotoSansCJKjp-Regular-6708" transform="translate(872.499817 0)"/>
       <use xlink:href="#NotoSansCJKjp-Regular-524d" transform="translate(972.499802 0)"/>
       <use xlink:href="#NotoSansCJKjp-Regular-20" transform="translate(1072.499786 0)"/>
       <use xlink:href="#NotoSansCJKjp-Regular-44" transform="translate(1094.89978 0)"/>
       <use xlink:href="#NotoSansCJKjp-Regular-65" transform="translate(1163.699768 0)"/>
       <use xlink:href="#NotoSansCJKjp-Regular-76" transform="translate(1219.099762 0)"/>
       <use xlink:href="#NotoSansCJKjp-Regular-69" transform="translate(1271.199753 0)"/>
       <use xlink:href="#NotoSansCJKjp-Regular-6e" transform="translate(1298.699738 0)"/>
       <use xlink:href="#NotoSansCJKjp-Regular-20" transform="translate(1359.699722 0)"/>
       <use xlink:href="#NotoSansCJKjp-Regular-5360" transform="translate(1382.099716 0)"/>
       <use xlink:href="#NotoSansCJKjp-Regular-6bd4" transform="translate(1482.099701 0)"/>
       <use xlink:href="#NotoSansCJKjp-Regular-ff09" transform="translate(1582.099686 0)"/>
      </g>
     </g>
    </g>
   </g>
   <g id="matplotlib.axis_2">
    <g id="ytick_1">
     <g id="line2d_4">
      <path d="M 30.0175 217.381482 
L 623.230067 217.381482 
" clip-path="url(#p00fe2a422f)" style="fill: none; stroke-dasharray: 2.96,1.28; stroke-dashoffset: 0; stroke: #b0b0b0; stroke-opacity: 0.35; stroke-width: 0.8"/>
     </g>
     <g id="line2d_5">
      <defs>
       <path id="m362c715736" d="M 0 0 
L -3.5 0 
" style="stroke: #333333; stroke-width: 0.8"/>
      </defs>
      <g>
       <use xlink:href="#m362c715736" x="30.0175" y="217.381482" style="fill: #333333; stroke: #333333; stroke-width: 0.8"/>
      </g>
     </g>
     <g id="text_4">
      <!-- 0 -->
      <g style="fill: #333333" transform="translate(17.745 221.162185) scale(0.095 -0.095)">
       <use xlink:href="#NotoSansCJKjp-Regular-30"/>
      </g>
     </g>
    </g>
    <g id="ytick_2">
     <g id="line2d_6">
      <path d="M 30.0175 177.469386 
L 623.230067 177.469386 
" clip-path="url(#p00fe2a422f)" style="fill: none; stroke-dasharray: 2.96,1.28; stroke-dashoffset: 0; stroke: #b0b0b0; stroke-opacity: 0.35; stroke-width: 0.8"/>
     </g>
     <g id="line2d_7">
      <g>
       <use xlink:href="#m362c715736" x="30.0175" y="177.469386" style="fill: #333333; stroke: #333333; stroke-width: 0.8"/>
      </g>
     </g>
     <g id="text_5">
      <!-- 20 -->
      <g style="fill: #333333" transform="translate(12.4725 181.25009) scale(0.095 -0.095)">
       <use xlink:href="#NotoSansCJKjp-Regular-32"/>
       <use xlink:href="#NotoSansCJKjp-Regular-30" transform="translate(55.499985 0)"/>
      </g>
     </g>
    </g>
    <g id="ytick_3">
     <g id="line2d_8">
      <path d="M 30.0175 137.557291 
L 623.230067 137.557291 
" clip-path="url(#p00fe2a422f)" style="fill: none; stroke-dasharray: 2.96,1.28; stroke-dashoffset: 0; stroke: #b0b0b0; stroke-opacity: 0.35; stroke-width: 0.8"/>
     </g>
     <g id="line2d_9">
      <g>
       <use xlink:href="#m362c715736" x="30.0175" y="137.557291" style="fill: #333333; stroke: #333333; stroke-width: 0.8"/>
      </g>
     </g>
     <g id="text_6">
      <!-- 40 -->
      <g style="fill: #333333" transform="translate(12.4725 141.337994) scale(0.095 -0.095)">
       <defs>
        <path id="NotoSansCJKjp-Regular-34" d="M 2176 0 
L 2726 0 
L 2726 1293 
L 3354 1293 
L 3354 1760 
L 2726 1760 
L 2726 4691 
L 2080 4691 
L 128 1677 
L 128 1293 
L 2176 1293 
L 2176 0 
z
M 2176 1760 
L 736 1760 
L 1805 3360 
C 1939 3590 2067 3827 2182 4051 
L 2208 4051 
C 2195 3814 2176 3430 2176 3200 
L 2176 1760 
z
" transform="scale(0.015625)"/>
       </defs>
       <use xlink:href="#NotoSansCJKjp-Regular-34"/>
       <use xlink:href="#NotoSansCJKjp-Regular-30" transform="translate(55.499985 0)"/>
      </g>
     </g>
    </g>
    <g id="ytick_4">
     <g id="line2d_10">
      <path d="M 30.0175 97.645196 
L 623.230067 97.645196 
" clip-path="url(#p00fe2a422f)" style="fill: none; stroke-dasharray: 2.96,1.28; stroke-dashoffset: 0; stroke: #b0b0b0; stroke-opacity: 0.35; stroke-width: 0.8"/>
     </g>
     <g id="line2d_11">
      <g>
       <use xlink:href="#m362c715736" x="30.0175" y="97.645196" style="fill: #333333; stroke: #333333; stroke-width: 0.8"/>
      </g>
     </g>
     <g id="text_7">
      <!-- 60 -->
      <g style="fill: #333333" transform="translate(12.4725 101.425899) scale(0.095 -0.095)">
       <defs>
        <path id="NotoSansCJKjp-Regular-36" d="M 1926 -83 
C 2656 -83 3277 531 3277 1440 
C 3277 2426 2765 2912 1971 2912 
C 1606 2912 1197 2701 909 2349 
C 934 3802 1466 4294 2118 4294 
C 2400 4294 2682 4154 2861 3936 
L 3194 4294 
C 2931 4576 2579 4774 2093 4774 
C 1184 4774 358 4077 358 2240 
C 358 691 1030 -83 1926 -83 
z
M 922 1882 
C 1229 2317 1587 2477 1875 2477 
C 2445 2477 2720 2074 2720 1440 
C 2720 800 2374 378 1926 378 
C 1338 378 986 909 922 1882 
z
" transform="scale(0.015625)"/>
       </defs>
       <use xlink:href="#NotoSansCJKjp-Regular-36"/>
       <use xlink:href="#NotoSansCJKjp-Regular-30" transform="translate(55.499985 0)"/>
      </g>
     </g>
    </g>
    <g id="ytick_5">
     <g id="line2d_12">
      <path d="M 30.0175 57.733101 
L 623.230067 57.733101 
" clip-path="url(#p00fe2a422f)" style="fill: none; stroke-dasharray: 2.96,1.28; stroke-dashoffset: 0; stroke: #b0b0b0; stroke-opacity: 0.35; stroke-width: 0.8"/>
     </g>
     <g id="line2d_13">
      <g>
       <use xlink:href="#m362c715736" x="30.0175" y="57.733101" style="fill: #333333; stroke: #333333; stroke-width: 0.8"/>
      </g>
     </g>
     <g id="text_8">
      <!-- 80 -->
      <g style="fill: #333333" transform="translate(12.4725 61.513804) scale(0.095 -0.095)">
       <use xlink:href="#NotoSansCJKjp-Regular-38"/>
       <use xlink:href="#NotoSansCJKjp-Regular-30" transform="translate(55.499985 0)"/>
      </g>
     </g>
    </g>
    <g id="ytick_6">
     <g id="line2d_14">
      <path d="M 30.0175 17.821006 
L 623.230067 17.821006 
" clip-path="url(#p00fe2a422f)" style="fill: none; stroke-dasharray: 2.96,1.28; stroke-dashoffset: 0; stroke: #b0b0b0; stroke-opacity: 0.35; stroke-width: 0.8"/>
     </g>
     <g id="line2d_15">
      <g>
       <use xlink:href="#m362c715736" x="30.0175" y="17.821006" style="fill: #333333; stroke: #333333; stroke-width: 0.8"/>
      </g>
     </g>
     <g id="text_9">
      <!-- 100 -->
      <g style="fill: #333333" transform="translate(7.2 21.601709) scale(0.095 -0.095)">
       <use xlink:href="#NotoSansCJKjp-Regular-31"/>
       <use xlink:href="#NotoSansCJKjp-Regular-30" transform="translate(55.499985 0)"/>
       <use xlink:href="#NotoSansCJKjp-Regular-30" transform="translate(110.999969 0)"/>
      </g>
     </g>
    </g>
   </g>
   <g id="patch_3">
    <path d="M 30.0175 217.381482 
L 30.0175 7.842982 
" style="fill: none; stroke: #000000; stroke-width: 0.8; stroke-linejoin: miter; stroke-linecap: square"/>
   </g>
   <g id="patch_4">
    <path d="M 30.0175 217.381482 
L 623.230067 217.381482 
" style="fill: none; stroke: #000000; stroke-width: 0.8; stroke-linejoin: miter; stroke-linecap: square"/>
   </g>
   <g id="patch_5">
    <path d="M 56.981708 217.381482 
L 173.297897 217.381482 
L 173.297897 39.772658 
L 56.981708 39.772658 
z
" clip-path="url(#p00fe2a422f)" style="fill: #1a56db"/>
   </g>
   <g id="patch_6">
    <path d="M 268.465689 217.381482 
L 384.781878 217.381482 
L 384.781878 17.821006 
L 268.465689 17.821006 
z
" clip-path="url(#p00fe2a422f)" style="fill: #1a56db"/>
   </g>
   <g id="patch_7">
    <path d="M 479.94967 217.381482 
L 596.265859 217.381482 
L 596.265859 191.43862 
L 479.94967 191.43862 
z
" clip-path="url(#p00fe2a422f)" style="fill: #1a56db"/>
   </g>
   <g id="text_10">
    <!-- 89 -->
    <g transform="translate(109.534802 36.732356) scale(0.095 -0.095)">
     <defs>
      <path id="NotoSansCJKjp-Bold-38" d="M 1888 -90 
C 2842 -90 3482 461 3482 1178 
C 3482 1824 3123 2208 2682 2445 
L 2682 2477 
C 2989 2701 3290 3091 3290 3558 
C 3290 4314 2752 4819 1914 4819 
C 1088 4819 486 4333 486 3565 
C 486 3066 749 2707 1114 2445 
L 1114 2413 
C 672 2182 301 1786 301 1178 
C 301 435 973 -90 1888 -90 
z
M 2182 2707 
C 1690 2906 1318 3123 1318 3565 
C 1318 3949 1574 4160 1894 4160 
C 2291 4160 2522 3885 2522 3501 
C 2522 3219 2413 2944 2182 2707 
z
M 1907 576 
C 1466 576 1114 851 1114 1280 
C 1114 1638 1293 1952 1549 2163 
C 2163 1901 2605 1702 2605 1210 
C 2605 800 2310 576 1907 576 
z
" transform="scale(0.015625)"/>
      <path id="NotoSansCJKjp-Bold-39" d="M 1632 -90 
C 2573 -90 3450 685 3450 2477 
C 3450 4122 2650 4826 1747 4826 
C 934 4826 256 4218 256 3245 
C 256 2240 819 1754 1613 1754 
C 1933 1754 2336 1946 2586 2266 
C 2541 1082 2106 678 1581 678 
C 1299 678 1005 826 832 1018 
L 333 448 
C 614 160 1043 -90 1632 -90 
z
M 2573 2938 
C 2342 2566 2048 2426 1792 2426 
C 1382 2426 1120 2688 1120 3245 
C 1120 3827 1408 4115 1760 4115 
C 2163 4115 2490 3795 2573 2938 
z
" transform="scale(0.015625)"/>
     </defs>
     <use xlink:href="#NotoSansCJKjp-Bold-38"/>
     <use xlink:href="#NotoSansCJKjp-Bold-39" transform="translate(58.999985 0)"/>
    </g>
   </g>
   <g id="text_11">
    <!-- 100 -->
    <g transform="translate(318.216283 14.780703) scale(0.095 -0.095)">
     <defs>
      <path id="NotoSansCJKjp-Bold-31" d="M 525 0 
L 3373 0 
L 3373 768 
L 2483 768 
L 2483 4742 
L 1786 4742 
C 1485 4550 1165 4429 685 4346 
L 685 3757 
L 1549 3757 
L 1549 768 
L 525 768 
L 525 0 
z
" transform="scale(0.015625)"/>
      <path id="NotoSansCJKjp-Bold-30" d="M 1888 -90 
C 2854 -90 3494 755 3494 2394 
C 3494 4019 2854 4826 1888 4826 
C 922 4826 282 4026 282 2394 
C 282 755 922 -90 1888 -90 
z
M 1888 646 
C 1478 646 1171 1056 1171 2394 
C 1171 3712 1478 4102 1888 4102 
C 2298 4102 2598 3712 2598 2394 
C 2598 1056 2298 646 1888 646 
z
" transform="scale(0.015625)"/>
     </defs>
     <use xlink:href="#NotoSansCJKjp-Bold-31"/>
     <use xlink:href="#NotoSansCJKjp-Bold-30" transform="translate(58.999985 0)"/>
     <use xlink:href="#NotoSansCJKjp-Bold-30" transform="translate(117.999969 0)"/>
    </g>
   </g>
   <g id="text_12">
    <!-- 13 -->
    <g transform="translate(532.502764 188.398317) scale(0.095 -0.095)">
     <defs>
      <path id="NotoSansCJKjp-Bold-33" d="M 1747 -90 
C 2656 -90 3418 410 3418 1280 
C 3418 1907 3008 2304 2477 2451 
L 2477 2483 
C 2976 2682 3264 3053 3264 3565 
C 3264 4378 2643 4826 1728 4826 
C 1171 4826 717 4602 307 4250 
L 794 3667 
C 1069 3930 1344 4083 1683 4083 
C 2086 4083 2317 3866 2317 3494 
C 2317 3066 2035 2771 1171 2771 
L 1171 2093 
C 2195 2093 2470 1805 2470 1338 
C 2470 915 2144 678 1664 678 
C 1229 678 890 890 608 1165 
L 166 570 
C 499 192 1005 -90 1747 -90 
z
" transform="scale(0.015625)"/>
     </defs>
     <use xlink:href="#NotoSansCJKjp-Bold-31"/>
     <use xlink:href="#NotoSansCJKjp-Bold-33" transform="translate(58.999985 0)"/>
    </g>
   </g>
  </g>
 </g>
 <defs>
  <clipPath id="p00fe2a422f">
   <rect x="30.0175" y="7.842982" width="593.212567" height="209.5385"/>
  </clipPath>
 </defs>
</svg>
