<?xml version="1.0" encoding="utf-8" standalone="no"?>
<!DOCTYPE svg PUBLIC "-//W3C//DTD SVG 1.1//EN"
  "http://www.w3.org/Graphics/SVG/1.1/DTD/svg11.dtd">
<svg xmlns:xlink="http://www.w3.org/1999/xlink" width="638.328984pt" height="242.737835pt" viewBox="0 0 638.328984 242.737835" xmlns="http://www.w3.org/2000/svg" version="1.1">
 <metadata>
  <rdf:RDF xmlns:dc="http://purl.org/dc/elements/1.1/" xmlns:cc="http://creativecommons.org/ns#" xmlns:rdf="http://www.w3.org/1999/02/22-rdf-syntax-ns#">
   <cc:Work>
    <dc:type rdf:resource="http://purl.org/dc/dcmitype/StillImage"/>
    <dc:date>2026-06-14T16:22:15.659379</dc:date>
    <dc:format>image/svg+xml</dc:format>
    <dc:creator>
     <cc:Agent>
      <dc:title>Matplotlib v3.9.4, https://matplotlib.org/</dc:title>
     </cc:Agent>
    </dc:creator>
   </cc:Work>
  </rdf:RDF>
 </metadata>
 <defs>
  <style type="text/css">*{stroke-linejoin: round; stroke-linecap: butt}</style>
 </defs>
 <g id="figure_1">
  <g id="patch_1">
   <path d="M 0 242.737835 
L 638.328984 242.737835 
L 638.328984 0 
L 0 0 
z
" style="fill: #ffffff"/>
  </g>
  <g id="axes_1">
   <g id="patch_2">
    <path d="M 27.358984 219.579632 
L 631.128984 219.579632 
L 631.128984 29.719632 
L 27.358984 29.719632 
z
" style="fill: #fafafa"/>
   </g>
   <g id="matplotlib.axis_1">
    <g id="xtick_1">
     <g id="line2d_1">
      <defs>
       <path id="m76f5c59103" d="M 0 0 
L 0 3.5 
" style="stroke: #333333; stroke-width: 0.8"/>
      </defs>
      <g>
       <use xlink:href="#m76f5c59103" x="329.243984" y="219.579632" style="fill: #333333; stroke: #333333; stroke-width: 0.8"/>
      </g>
     </g>
     <g id="text_1">
      <!-- level -->
      <g style="fill: #333333" transform="translate(318.537187 234.274632) scale(0.095 -0.095)">
       <defs>
        <path id="STHeitiTC-Medium-6c" d="M 902 384 
L 378 384 
L 378 5184 
L 902 5184 
L 902 384 
z
" transform="scale(0.015625)"/>
        <path id="STHeitiTC-Medium-65" d="M 3878 2035 
L 819 2035 
Q 851 1459 1206 1110 
Q 1562 762 2054 762 
Q 2893 762 3334 1587 
L 3782 1357 
Q 3482 800 3072 534 
Q 2662 269 2093 269 
Q 1306 269 794 809 
Q 282 1350 282 2112 
Q 282 2874 797 3418 
Q 1312 3962 2073 3962 
Q 2835 3962 3347 3446 
Q 3859 2931 3878 2035 
z
M 3290 2502 
Q 3194 2950 2854 3200 
Q 2515 3450 2074 3450 
Q 1178 3450 883 2502 
L 3290 2502 
z
" transform="scale(0.015625)"/>
        <path id="STHeitiTC-Medium-76" d="M 3430 3872 
L 1837 269 
L 1709 269 
L 102 3872 
L 659 3872 
L 1766 1350 
L 2874 3872 
L 3430 3872 
z
" transform="scale(0.015625)"/>
       </defs>
       <use xlink:href="#STHeitiTC-Medium-6c"/>
       <use xlink:href="#STHeitiTC-Medium-65" x="19.999985"/>
       <use xlink:href="#STHeitiTC-Medium-76" x="84.999969"/>
       <use xlink:href="#STHeitiTC-Medium-65" x="140.399963"/>
       <use xlink:href="#STHeitiTC-Medium-6c" x="205.399948"/>
      </g>
     </g>
    </g>
   </g>
   <g id="matplotlib.axis_2">
    <g id="ytick_1">
     <g id="line2d_2">
      <path d="M 27.358984 219.579632 
L 631.128984 219.579632 
" clip-path="url(#pc84c10c0e6)" style="fill: none; stroke-dasharray: 2.96,1.28; stroke-dashoffset: 0; stroke: #b0b0b0; stroke-opacity: 0.35; stroke-width: 0.8"/>
     </g>
     <g id="line2d_3">
      <defs>
       <path id="mc2fa80f670" d="M 0 0 
L -3.5 0 
" style="stroke: #333333; stroke-width: 0.8"/>
      </defs>
      <g>
       <use xlink:href="#mc2fa80f670" x="27.358984" y="219.579632" style="fill: #333333; stroke: #333333; stroke-width: 0.8"/>
      </g>
     </g>
     <g id="text_2">
      <!-- 0.0 -->
      <g style="fill: #333333" transform="translate(7.2 223.427132) scale(0.095 -0.095)">
       <defs>
        <path id="STHeitiTC-Medium-30" d="M 1747 5184 
Q 2502 5184 2944 4547 
Q 3386 3910 3386 2723 
Q 3386 1536 2938 902 
Q 2490 269 1738 269 
Q 986 269 573 893 
Q 160 1517 160 2729 
Q 160 3942 573 4563 
Q 986 5184 1747 5184 
z
M 1760 774 
Q 2285 774 2576 1283 
Q 2867 1792 2867 2726 
Q 2867 3661 2566 4160 
Q 2266 4659 1757 4659 
Q 1248 4659 966 4160 
Q 685 3661 685 2714 
Q 685 774 1760 774 
z
" transform="scale(0.015625)"/>
        <path id="STHeitiTC-Medium-2e" d="M 966 1478 
Q 1146 1478 1270 1353 
Q 1395 1229 1395 1046 
Q 1395 864 1270 739 
Q 1146 614 970 614 
Q 794 614 666 742 
Q 538 870 538 1049 
Q 538 1229 666 1353 
Q 794 1478 966 1478 
z
" transform="scale(0.015625)"/>
       </defs>
       <use xlink:href="#STHeitiTC-Medium-30"/>
       <use xlink:href="#STHeitiTC-Medium-2e" x="55.399994"/>
       <use xlink:href="#STHeitiTC-Medium-30" x="83.099991"/>
      </g>
     </g>
    </g>
    <g id="ytick_2">
     <g id="line2d_4">
      <path d="M 27.358984 196.977251 
L 631.128984 196.977251 
" clip-path="url(#pc84c10c0e6)" style="fill: none; stroke-dasharray: 2.96,1.28; stroke-dashoffset: 0; stroke: #b0b0b0; stroke-opacity: 0.35; stroke-width: 0.8"/>
     </g>
     <g id="line2d_5">
      <g>
       <use xlink:href="#mc2fa80f670" x="27.358984" y="196.977251" style="fill: #333333; stroke: #333333; stroke-width: 0.8"/>
      </g>
     </g>
     <g id="text_3">
      <!-- 0.5 -->
      <g style="fill: #333333" transform="translate(7.2 200.824751) scale(0.095 -0.095)">
       <defs>
        <path id="STHeitiTC-Medium-35" d="M 3194 4544 
L 1549 4544 
L 1338 3398 
Q 1613 3469 1856 3469 
Q 2477 3469 2893 3030 
Q 3309 2592 3309 1913 
Q 3309 1235 2861 752 
Q 2413 269 1664 269 
Q 1088 269 691 621 
Q 294 973 211 1587 
L 768 1587 
Q 851 1203 1107 998 
Q 1363 794 1690 794 
Q 2125 794 2438 1123 
Q 2752 1453 2752 1939 
Q 2752 2374 2480 2656 
Q 2208 2938 1747 2938 
Q 1286 2938 672 2675 
L 1120 5069 
L 3194 5069 
L 3194 4544 
z
" transform="scale(0.015625)"/>
       </defs>
       <use xlink:href="#STHeitiTC-Medium-30"/>
       <use xlink:href="#STHeitiTC-Medium-2e" x="55.399994"/>
       <use xlink:href="#STHeitiTC-Medium-35" x="83.099991"/>
      </g>
     </g>
    </g>
    <g id="ytick_3">
     <g id="line2d_6">
      <path d="M 27.358984 174.37487 
L 631.128984 174.37487 
" clip-path="url(#pc84c10c0e6)" style="fill: none; stroke-dasharray: 2.96,1.28; stroke-dashoffset: 0; stroke: #b0b0b0; stroke-opacity: 0.35; stroke-width: 0.8"/>
     </g>
     <g id="line2d_7">
      <g>
       <use xlink:href="#mc2fa80f670" x="27.358984" y="174.37487" style="fill: #333333; stroke: #333333; stroke-width: 0.8"/>
      </g>
     </g>
     <g id="text_4">
      <!-- 1.0 -->
      <g style="fill: #333333" transform="translate(7.2 178.22237) scale(0.095 -0.095)">
       <defs>
        <path id="STHeitiTC-Medium-31" d="M 2131 384 
L 1587 384 
L 1587 4531 
L 826 4531 
L 1158 5069 
L 2131 5069 
L 2131 384 
z
" transform="scale(0.015625)"/>
       </defs>
       <use xlink:href="#STHeitiTC-Medium-31"/>
       <use xlink:href="#STHeitiTC-Medium-2e" x="55.399994"/>
       <use xlink:href="#STHeitiTC-Medium-30" x="83.099991"/>
      </g>
     </g>
    </g>
    <g id="ytick_4">
     <g id="line2d_8">
      <path d="M 27.358984 151.772489 
L 631.128984 151.772489 
" clip-path="url(#pc84c10c0e6)" style="fill: none; stroke-dasharray: 2.96,1.28; stroke-dashoffset: 0; stroke: #b0b0b0; stroke-opacity: 0.35; stroke-width: 0.8"/>
     </g>
     <g id="line2d_9">
      <g>
       <use xlink:href="#mc2fa80f670" x="27.358984" y="151.772489" style="fill: #333333; stroke: #333333; stroke-width: 0.8"/>
      </g>
     </g>
     <g id="text_5">
      <!-- 1.5 -->
      <g style="fill: #333333" transform="translate(7.2 155.619989) scale(0.095 -0.095)">
       <use xlink:href="#STHeitiTC-Medium-31"/>
       <use xlink:href="#STHeitiTC-Medium-2e" x="55.399994"/>
       <use xlink:href="#STHeitiTC-Medium-35" x="83.099991"/>
      </g>
     </g>
    </g>
    <g id="ytick_5">
     <g id="line2d_10">
      <path d="M 27.358984 129.170108 
L 631.128984 129.170108 
" clip-path="url(#pc84c10c0e6)" style="fill: none; stroke-dasharray: 2.96,1.28; stroke-dashoffset: 0; stroke: #b0b0b0; stroke-opacity: 0.35; stroke-width: 0.8"/>
     </g>
     <g id="line2d_11">
      <g>
       <use xlink:href="#mc2fa80f670" x="27.358984" y="129.170108" style="fill: #333333; stroke: #333333; stroke-width: 0.8"/>
      </g>
     </g>
     <g id="text_6">
      <!-- 2.0 -->
      <g style="fill: #333333" transform="translate(7.2 133.017608) scale(0.095 -0.095)">
       <defs>
        <path id="STHeitiTC-Medium-32" d="M 3360 384 
L 90 384 
L 1914 2355 
Q 2374 2842 2566 3123 
Q 2758 3405 2758 3763 
Q 2758 4122 2480 4390 
Q 2202 4659 1789 4659 
Q 1376 4659 1101 4368 
Q 826 4077 787 3539 
L 256 3539 
Q 288 4294 736 4739 
Q 1184 5184 1821 5184 
Q 2458 5184 2877 4771 
Q 3296 4358 3296 3763 
Q 3296 3328 3065 2950 
Q 2835 2573 2368 2074 
L 1293 915 
L 3360 915 
L 3360 384 
z
" transform="scale(0.015625)"/>
       </defs>
       <use xlink:href="#STHeitiTC-Medium-32"/>
       <use xlink:href="#STHeitiTC-Medium-2e" x="55.399994"/>
       <use xlink:href="#STHeitiTC-Medium-30" x="83.099991"/>
      </g>
     </g>
    </g>
    <g id="ytick_6">
     <g id="line2d_12">
      <path d="M 27.358984 106.567727 
L 631.128984 106.567727 
" clip-path="url(#pc84c10c0e6)" style="fill: none; stroke-dasharray: 2.96,1.28; stroke-dashoffset: 0; stroke: #b0b0b0; stroke-opacity: 0.35; stroke-width: 0.8"/>
     </g>
     <g id="line2d_13">
      <g>
       <use xlink:href="#mc2fa80f670" x="27.358984" y="106.567727" style="fill: #333333; stroke: #333333; stroke-width: 0.8"/>
      </g>
     </g>
     <g id="text_7">
      <!-- 2.5 -->
      <g style="fill: #333333" transform="translate(7.2 110.415227) scale(0.095 -0.095)">
       <use xlink:href="#STHeitiTC-Medium-32"/>
       <use xlink:href="#STHeitiTC-Medium-2e" x="55.399994"/>
       <use xlink:href="#STHeitiTC-Medium-35" x="83.099991"/>
      </g>
     </g>
    </g>
    <g id="ytick_7">
     <g id="line2d_14">
      <path d="M 27.358984 83.965346 
L 631.128984 83.965346 
" clip-path="url(#pc84c10c0e6)" style="fill: none; stroke-dasharray: 2.96,1.28; stroke-dashoffset: 0; stroke: #b0b0b0; stroke-opacity: 0.35; stroke-width: 0.8"/>
     </g>
     <g id="line2d_15">
      <g>
       <use xlink:href="#mc2fa80f670" x="27.358984" y="83.965346" style="fill: #333333; stroke: #333333; stroke-width: 0.8"/>
      </g>
     </g>
     <g id="text_8">
      <!-- 3.0 -->
      <g style="fill: #333333" transform="translate(7.2 87.812846) scale(0.095 -0.095)">
       <defs>
        <path id="STHeitiTC-Medium-33" d="M 2554 3021 
Q 2931 2835 3139 2508 
Q 3347 2182 3347 1798 
Q 3347 1171 2889 720 
Q 2432 269 1734 269 
Q 1107 269 707 630 
Q 307 992 166 1702 
L 710 1702 
Q 832 1248 1072 1027 
Q 1312 806 1757 806 
Q 2202 806 2502 1084 
Q 2803 1363 2803 1785 
Q 2803 2208 2460 2457 
Q 2118 2707 1453 2720 
L 1453 3232 
Q 1933 3232 2227 3437 
Q 2522 3642 2522 3946 
Q 2522 4250 2294 4451 
Q 2067 4653 1744 4653 
Q 1421 4653 1219 4470 
Q 1018 4288 877 3917 
L 320 3917 
Q 461 4531 832 4857 
Q 1203 5184 1747 5184 
Q 2291 5184 2691 4825 
Q 3091 4467 3091 3955 
Q 3091 3366 2554 3021 
z
" transform="scale(0.015625)"/>
       </defs>
       <use xlink:href="#STHeitiTC-Medium-33"/>
       <use xlink:href="#STHeitiTC-Medium-2e" x="55.399994"/>
       <use xlink:href="#STHeitiTC-Medium-30" x="83.099991"/>
      </g>
     </g>
    </g>
    <g id="ytick_8">
     <g id="line2d_16">
      <path d="M 27.358984 61.362965 
L 631.128984 61.362965 
" clip-path="url(#pc84c10c0e6)" style="fill: none; stroke-dasharray: 2.96,1.28; stroke-dashoffset: 0; stroke: #b0b0b0; stroke-opacity: 0.35; stroke-width: 0.8"/>
     </g>
     <g id="line2d_17">
      <g>
       <use xlink:href="#mc2fa80f670" x="27.358984" y="61.362965" style="fill: #333333; stroke: #333333; stroke-width: 0.8"/>
      </g>
     </g>
     <g id="text_9">
      <!-- 3.5 -->
      <g style="fill: #333333" transform="translate(7.2 65.210465) scale(0.095 -0.095)">
       <use xlink:href="#STHeitiTC-Medium-33"/>
       <use xlink:href="#STHeitiTC-Medium-2e" x="55.399994"/>
       <use xlink:href="#STHeitiTC-Medium-35" x="83.099991"/>
      </g>
     </g>
    </g>
    <g id="ytick_9">
     <g id="line2d_18">
      <path d="M 27.358984 38.760584 
L 631.128984 38.760584 
" clip-path="url(#pc84c10c0e6)" style="fill: none; stroke-dasharray: 2.96,1.28; stroke-dashoffset: 0; stroke: #b0b0b0; stroke-opacity: 0.35; stroke-width: 0.8"/>
     </g>
     <g id="line2d_19">
      <g>
       <use xlink:href="#mc2fa80f670" x="27.358984" y="38.760584" style="fill: #333333; stroke: #333333; stroke-width: 0.8"/>
      </g>
     </g>
     <g id="text_10">
      <!-- 4.0 -->
      <g style="fill: #333333" transform="translate(7.2 42.608084) scale(0.095 -0.095)">
       <defs>
        <path id="STHeitiTC-Medium-34" d="M 3418 1453 
L 2861 1453 
L 2861 384 
L 2317 384 
L 2317 1453 
L 70 1453 
L 2701 5184 
L 2861 5184 
L 2861 1984 
L 3418 1984 
L 3418 1453 
z
M 2317 1984 
L 2317 3712 
L 1094 1984 
L 2317 1984 
z
" transform="scale(0.015625)"/>
       </defs>
       <use xlink:href="#STHeitiTC-Medium-34"/>
       <use xlink:href="#STHeitiTC-Medium-2e" x="55.399994"/>
       <use xlink:href="#STHeitiTC-Medium-30" x="83.099991"/>
      </g>
     </g>
    </g>
   </g>
   <g id="patch_3">
    <path d="M 27.358984 219.579632 
L 27.358984 29.719632 
" style="fill: none; stroke: #000000; stroke-width: 0.8; stroke-linejoin: miter; stroke-linecap: square"/>
   </g>
   <g id="patch_4">
    <path d="M 27.358984 219.579632 
L 631.128984 219.579632 
" style="fill: none; stroke: #000000; stroke-width: 0.8; stroke-linejoin: miter; stroke-linecap: square"/>
   </g>
   <g id="patch_5">
    <path d="M 54.803075 219.579632 
L 603.684893 219.579632 
L 603.684893 174.37487 
L 54.803075 174.37487 
z
" clip-path="url(#pc84c10c0e6)" style="fill: #1a56db"/>
   </g>
   <g id="patch_6">
    <path d="M 54.803075 219.579632 
L 603.684893 219.579632 
L 603.684893 129.170108 
L 54.803075 129.170108 
z
" clip-path="url(#pc84c10c0e6)" style="fill: #1a56db"/>
   </g>
   <g id="patch_7">
    <path d="M 54.803075 219.579632 
L 603.684893 219.579632 
L 603.684893 83.965346 
L 54.803075 83.965346 
z
" clip-path="url(#pc84c10c0e6)" style="fill: #1a56db"/>
   </g>
   <g id="patch_8">
    <path d="M 54.803075 219.579632 
L 603.684893 219.579632 
L 603.684893 38.760584 
L 54.803075 38.760584 
z
" clip-path="url(#pc84c10c0e6)" style="fill: #1a56db"/>
   </g>
   <g id="text_11">
    <!-- 1 -->
    <g transform="translate(326.612187 150.509286) scale(0.095 -0.095)">
     <use xlink:href="#STHeitiTC-Medium-31"/>
    </g>
   </g>
   <g id="text_12">
    <!-- 2 -->
    <g transform="translate(326.612187 105.304524) scale(0.095 -0.095)">
     <use xlink:href="#STHeitiTC-Medium-32"/>
    </g>
   </g>
   <g id="text_13">
    <!-- 3 -->
    <g transform="translate(326.612187 60.099762) scale(0.095 -0.095)">
     <use xlink:href="#STHeitiTC-Medium-33"/>
    </g>
   </g>
   <g id="text_14">
    <!-- 4 -->
    <g transform="translate(326.612187 14.895) scale(0.095 -0.095)">
     <use xlink:href="#STHeitiTC-Medium-34"/>
    </g>
   </g>
  </g>
 </g>
 <defs>
  <clipPath id="pc84c10c0e6">
   <rect x="27.358984" y="29.719632" width="603.77" height="189.86"/>
  </clipPath>
 </defs>
</svg>
