<?xml version="1.0" encoding="utf-8" standalone="no"?>
<!DOCTYPE svg PUBLIC "-//W3C//DTD SVG 1.1//EN"
  "http://www.w3.org/Graphics/SVG/1.1/DTD/svg11.dtd">
<svg xmlns:xlink="http://www.w3.org/1999/xlink" width="638.092812pt" height="242.718203pt" viewBox="0 0 638.092812 242.718203" xmlns="http://www.w3.org/2000/svg" version="1.1">
 <metadata>
  <rdf:RDF xmlns:dc="http://purl.org/dc/elements/1.1/" xmlns:cc="http://creativecommons.org/ns#" xmlns:rdf="http://www.w3.org/1999/02/22-rdf-syntax-ns#">
   <cc:Work>
    <dc:type rdf:resource="http://purl.org/dc/dcmitype/StillImage"/>
    <dc:date>2026-06-08T08:22:47.005081</dc:date>
    <dc:format>image/svg+xml</dc:format>
    <dc:creator>
     <cc:Agent>
      <dc:title>Matplotlib v3.9.4, https://matplotlib.org/</dc:title>
     </cc:Agent>
    </dc:creator>
   </cc:Work>
  </rdf:RDF>
 </metadata>
 <defs>
  <style type="text/css">*{stroke-linejoin: round; stroke-linecap: butt}</style>
 </defs>
 <g id="figure_1">
  <g id="patch_1">
   <path d="M 0 242.718203 
L 638.092812 242.718203 
L 638.092812 0 
L 0 0 
z
" style="fill: #ffffff"/>
  </g>
  <g id="axes_1">
   <g id="patch_2">
    <path d="M 129.452812 219.56 
L 630.892812 219.56 
L 630.892812 7.2 
L 129.452812 7.2 
z
" style="fill: #fafafa"/>
   </g>
   <g id="matplotlib.axis_1">
    <g id="xtick_1">
     <g id="line2d_1">
      <path d="M 129.452812 219.56 
L 129.452812 7.2 
" clip-path="url(#p7807780197)" style="fill: none; stroke-dasharray: 2.96,1.28; stroke-dashoffset: 0; stroke: #b0b0b0; stroke-opacity: 0.35; stroke-width: 0.8"/>
     </g>
     <g id="line2d_2">
      <defs>
       <path id="mdcaaafd097" d="M 0 0 
L 0 3.5 
" style="stroke: #333333; stroke-width: 0.8"/>
      </defs>
      <g>
       <use xlink:href="#mdcaaafd097" x="129.452812" y="219.56" style="fill: #333333; stroke: #333333; stroke-width: 0.8"/>
      </g>
     </g>
     <g id="text_1">
      <!-- 0 -->
      <g style="fill: #333333" transform="translate(126.821016 234.255) scale(0.095 -0.095)">
       <defs>
        <path id="STHeitiTC-Medium-30" d="M 1747 5184 
Q 2502 5184 2944 4547 
Q 3386 3910 3386 2723 
Q 3386 1536 2938 902 
Q 2490 269 1738 269 
Q 986 269 573 893 
Q 160 1517 160 2729 
Q 160 3942 573 4563 
Q 986 5184 1747 5184 
z
M 1760 774 
Q 2285 774 2576 1283 
Q 2867 1792 2867 2726 
Q 2867 3661 2566 4160 
Q 2266 4659 1757 4659 
Q 1248 4659 966 4160 
Q 685 3661 685 2714 
Q 685 774 1760 774 
z
" transform="scale(0.015625)"/>
       </defs>
       <use xlink:href="#STHeitiTC-Medium-30"/>
      </g>
     </g>
    </g>
    <g id="xtick_2">
     <g id="line2d_3">
      <path d="M 211.791072 219.56 
L 211.791072 7.2 
" clip-path="url(#p7807780197)" style="fill: none; stroke-dasharray: 2.96,1.28; stroke-dashoffset: 0; stroke: #b0b0b0; stroke-opacity: 0.35; stroke-width: 0.8"/>
     </g>
     <g id="line2d_4">
      <g>
       <use xlink:href="#mdcaaafd097" x="211.791072" y="219.56" style="fill: #333333; stroke: #333333; stroke-width: 0.8"/>
      </g>
     </g>
     <g id="text_2">
      <!-- 10 -->
      <g style="fill: #333333" transform="translate(206.527478 234.255) scale(0.095 -0.095)">
       <defs>
        <path id="STHeitiTC-Medium-31" d="M 2131 384 
L 1587 384 
L 1587 4531 
L 826 4531 
L 1158 5069 
L 2131 5069 
L 2131 384 
z
" transform="scale(0.015625)"/>
       </defs>
       <use xlink:href="#STHeitiTC-Medium-31"/>
       <use xlink:href="#STHeitiTC-Medium-30" x="55.399994"/>
      </g>
     </g>
    </g>
    <g id="xtick_3">
     <g id="line2d_5">
      <path d="M 294.129331 219.56 
L 294.129331 7.2 
" clip-path="url(#p7807780197)" style="fill: none; stroke-dasharray: 2.96,1.28; stroke-dashoffset: 0; stroke: #b0b0b0; stroke-opacity: 0.35; stroke-width: 0.8"/>
     </g>
     <g id="line2d_6">
      <g>
       <use xlink:href="#mdcaaafd097" x="294.129331" y="219.56" style="fill: #333333; stroke: #333333; stroke-width: 0.8"/>
      </g>
     </g>
     <g id="text_3">
      <!-- 20 -->
      <g style="fill: #333333" transform="translate(288.865738 234.255) scale(0.095 -0.095)">
       <defs>
        <path id="STHeitiTC-Medium-32" d="M 3360 384 
L 90 384 
L 1914 2355 
Q 2374 2842 2566 3123 
Q 2758 3405 2758 3763 
Q 2758 4122 2480 4390 
Q 2202 4659 1789 4659 
Q 1376 4659 1101 4368 
Q 826 4077 787 3539 
L 256 3539 
Q 288 4294 736 4739 
Q 1184 5184 1821 5184 
Q 2458 5184 2877 4771 
Q 3296 4358 3296 3763 
Q 3296 3328 3065 2950 
Q 2835 2573 2368 2074 
L 1293 915 
L 3360 915 
L 3360 384 
z
" transform="scale(0.015625)"/>
       </defs>
       <use xlink:href="#STHeitiTC-Medium-32"/>
       <use xlink:href="#STHeitiTC-Medium-30" x="55.399994"/>
      </g>
     </g>
    </g>
    <g id="xtick_4">
     <g id="line2d_7">
      <path d="M 376.467591 219.56 
L 376.467591 7.2 
" clip-path="url(#p7807780197)" style="fill: none; stroke-dasharray: 2.96,1.28; stroke-dashoffset: 0; stroke: #b0b0b0; stroke-opacity: 0.35; stroke-width: 0.8"/>
     </g>
     <g id="line2d_8">
      <g>
       <use xlink:href="#mdcaaafd097" x="376.467591" y="219.56" style="fill: #333333; stroke: #333333; stroke-width: 0.8"/>
      </g>
     </g>
     <g id="text_4">
      <!-- 30 -->
      <g style="fill: #333333" transform="translate(371.203997 234.255) scale(0.095 -0.095)">
       <defs>
        <path id="STHeitiTC-Medium-33" d="M 2554 3021 
Q 2931 2835 3139 2508 
Q 3347 2182 3347 1798 
Q 3347 1171 2889 720 
Q 2432 269 1734 269 
Q 1107 269 707 630 
Q 307 992 166 1702 
L 710 1702 
Q 832 1248 1072 1027 
Q 1312 806 1757 806 
Q 2202 806 2502 1084 
Q 2803 1363 2803 1785 
Q 2803 2208 2460 2457 
Q 2118 2707 1453 2720 
L 1453 3232 
Q 1933 3232 2227 3437 
Q 2522 3642 2522 3946 
Q 2522 4250 2294 4451 
Q 2067 4653 1744 4653 
Q 1421 4653 1219 4470 
Q 1018 4288 877 3917 
L 320 3917 
Q 461 4531 832 4857 
Q 1203 5184 1747 5184 
Q 2291 5184 2691 4825 
Q 3091 4467 3091 3955 
Q 3091 3366 2554 3021 
z
" transform="scale(0.015625)"/>
       </defs>
       <use xlink:href="#STHeitiTC-Medium-33"/>
       <use xlink:href="#STHeitiTC-Medium-30" x="55.399994"/>
      </g>
     </g>
    </g>
    <g id="xtick_5">
     <g id="line2d_9">
      <path d="M 458.80585 219.56 
L 458.80585 7.2 
" clip-path="url(#p7807780197)" style="fill: none; stroke-dasharray: 2.96,1.28; stroke-dashoffset: 0; stroke: #b0b0b0; stroke-opacity: 0.35; stroke-width: 0.8"/>
     </g>
     <g id="line2d_10">
      <g>
       <use xlink:href="#mdcaaafd097" x="458.80585" y="219.56" style="fill: #333333; stroke: #333333; stroke-width: 0.8"/>
      </g>
     </g>
     <g id="text_5">
      <!-- 40 -->
      <g style="fill: #333333" transform="translate(453.542257 234.255) scale(0.095 -0.095)">
       <defs>
        <path id="STHeitiTC-Medium-34" d="M 3418 1453 
L 2861 1453 
L 2861 384 
L 2317 384 
L 2317 1453 
L 70 1453 
L 2701 5184 
L 2861 5184 
L 2861 1984 
L 3418 1984 
L 3418 1453 
z
M 2317 1984 
L 2317 3712 
L 1094 1984 
L 2317 1984 
z
" transform="scale(0.015625)"/>
       </defs>
       <use xlink:href="#STHeitiTC-Medium-34"/>
       <use xlink:href="#STHeitiTC-Medium-30" x="55.399994"/>
      </g>
     </g>
    </g>
    <g id="xtick_6">
     <g id="line2d_11">
      <path d="M 541.14411 219.56 
L 541.14411 7.2 
" clip-path="url(#p7807780197)" style="fill: none; stroke-dasharray: 2.96,1.28; stroke-dashoffset: 0; stroke: #b0b0b0; stroke-opacity: 0.35; stroke-width: 0.8"/>
     </g>
     <g id="line2d_12">
      <g>
       <use xlink:href="#mdcaaafd097" x="541.14411" y="219.56" style="fill: #333333; stroke: #333333; stroke-width: 0.8"/>
      </g>
     </g>
     <g id="text_6">
      <!-- 50 -->
      <g style="fill: #333333" transform="translate(535.880516 234.255) scale(0.095 -0.095)">
       <defs>
        <path id="STHeitiTC-Medium-35" d="M 3194 4544 
L 1549 4544 
L 1338 3398 
Q 1613 3469 1856 3469 
Q 2477 3469 2893 3030 
Q 3309 2592 3309 1913 
Q 3309 1235 2861 752 
Q 2413 269 1664 269 
Q 1088 269 691 621 
Q 294 973 211 1587 
L 768 1587 
Q 851 1203 1107 998 
Q 1363 794 1690 794 
Q 2125 794 2438 1123 
Q 2752 1453 2752 1939 
Q 2752 2374 2480 2656 
Q 2208 2938 1747 2938 
Q 1286 2938 672 2675 
L 1120 5069 
L 3194 5069 
L 3194 4544 
z
" transform="scale(0.015625)"/>
       </defs>
       <use xlink:href="#STHeitiTC-Medium-35"/>
       <use xlink:href="#STHeitiTC-Medium-30" x="55.399994"/>
      </g>
     </g>
    </g>
    <g id="xtick_7">
     <g id="line2d_13">
      <path d="M 623.482369 219.56 
L 623.482369 7.2 
" clip-path="url(#p7807780197)" style="fill: none; stroke-dasharray: 2.96,1.28; stroke-dashoffset: 0; stroke: #b0b0b0; stroke-opacity: 0.35; stroke-width: 0.8"/>
     </g>
     <g id="line2d_14">
      <g>
       <use xlink:href="#mdcaaafd097" x="623.482369" y="219.56" style="fill: #333333; stroke: #333333; stroke-width: 0.8"/>
      </g>
     </g>
     <g id="text_7">
      <!-- 60 -->
      <g style="fill: #333333" transform="translate(618.218775 234.255) scale(0.095 -0.095)">
       <defs>
        <path id="STHeitiTC-Medium-36" d="M 1594 3098 
Q 1798 3155 1984 3155 
Q 2515 3155 2912 2732 
Q 3309 2310 3309 1708 
Q 3309 1107 2880 688 
Q 2451 269 1830 269 
Q 1210 269 797 691 
Q 384 1114 384 1722 
Q 384 2016 499 2326 
Q 614 2637 915 3085 
L 2336 5203 
L 2797 4915 
L 1594 3098 
z
M 1843 806 
Q 2221 806 2493 1075 
Q 2765 1344 2765 1728 
Q 2765 2112 2496 2381 
Q 2227 2650 1843 2650 
Q 1459 2650 1190 2381 
Q 922 2112 922 1728 
Q 922 1344 1194 1075 
Q 1466 806 1843 806 
z
" transform="scale(0.015625)"/>
       </defs>
       <use xlink:href="#STHeitiTC-Medium-36"/>
       <use xlink:href="#STHeitiTC-Medium-30" x="55.399994"/>
      </g>
     </g>
    </g>
   </g>
   <g id="matplotlib.axis_2">
    <g id="ytick_1">
     <g id="line2d_15">
      <defs>
       <path id="m42d90a2b43" d="M 0 0 
L -3.5 0 
" style="stroke: #333333; stroke-width: 0.8"/>
      </defs>
      <g>
       <use xlink:href="#m42d90a2b43" x="129.452812" y="198.239141" style="fill: #333333; stroke: #333333; stroke-width: 0.8"/>
      </g>
     </g>
     <g id="text_8">
      <!-- 比人类多肯定用户行为 -->
      <g style="fill: #333333" transform="translate(27.452812 202.086641) scale(0.095 -0.095)">
       <defs>
        <path id="STHeitiTC-Medium-6bd4" d="M 1370 3245 
Q 1850 3245 2205 3254 
Q 2560 3264 2874 3283 
L 2874 2726 
Q 2554 2746 2208 2758 
Q 1862 2771 1370 2771 
L 1370 288 
L 2848 947 
Q 2854 806 2880 662 
Q 2906 518 2938 461 
L 1325 -262 
Q 1126 -352 963 -457 
Q 800 -563 710 -653 
Q 634 -467 534 -310 
Q 435 -154 346 -70 
Q 608 -13 851 70 
L 851 4230 
Q 851 4442 841 4624 
Q 832 4806 800 4954 
Q 928 4922 1085 4909 
Q 1242 4896 1331 4902 
Q 1472 4915 1491 4880 
Q 1510 4845 1440 4781 
Q 1370 4723 1370 4602 
L 1370 3245 
z
M 3904 403 
Q 3904 294 3923 233 
Q 3942 173 4009 141 
Q 4077 109 4214 99 
Q 4352 90 4589 90 
Q 4813 90 4944 109 
Q 5075 128 5161 221 
Q 5248 314 5312 506 
Q 5376 698 5459 1043 
Q 5581 902 5731 800 
Q 5882 698 6048 653 
Q 5926 282 5811 64 
Q 5696 -154 5526 -269 
Q 5357 -384 5101 -419 
Q 4845 -454 4442 -454 
Q 4070 -454 3856 -422 
Q 3642 -390 3533 -300 
Q 3424 -211 3395 -41 
Q 3366 128 3366 397 
L 3366 4237 
Q 3366 4448 3366 4589 
Q 3366 4730 3360 4832 
Q 3354 4934 3347 5008 
Q 3341 5082 3328 5158 
Q 3488 5126 3673 5116 
Q 3859 5107 3981 5120 
Q 4064 5126 4073 5100 
Q 4083 5075 4019 4986 
Q 3955 4896 3929 4787 
Q 3904 4678 3904 4435 
L 3904 2778 
Q 4115 2912 4326 3059 
Q 4538 3206 4723 3350 
Q 4909 3494 5062 3628 
Q 5216 3763 5325 3872 
Q 5421 3725 5542 3593 
Q 5664 3462 5792 3379 
Q 5914 3302 5728 3258 
Q 5677 3245 5510 3158 
Q 5344 3072 5097 2934 
Q 4851 2797 4540 2614 
Q 4230 2432 3904 2227 
L 3904 403 
z
" transform="scale(0.015625)"/>
        <path id="STHeitiTC-Medium-4eba" d="M 3206 2694 
Q 3021 2106 2797 1642 
Q 2573 1178 2281 800 
Q 1990 422 1628 112 
Q 1267 -198 806 -474 
Q 685 -326 576 -230 
Q 467 -134 307 -38 
Q 762 192 1158 518 
Q 1555 845 1865 1229 
Q 2176 1613 2390 2045 
Q 2605 2477 2701 2931 
Q 2758 3187 2790 3436 
Q 2822 3686 2838 3936 
Q 2854 4186 2844 4451 
Q 2835 4717 2803 5011 
Q 2893 4998 3008 4988 
Q 3123 4979 3241 4976 
Q 3360 4973 3469 4969 
Q 3578 4966 3661 4973 
Q 3718 4979 3728 4937 
Q 3738 4896 3686 4864 
Q 3654 4845 3628 4790 
Q 3603 4736 3580 4675 
Q 3558 4614 3542 4550 
Q 3526 4486 3526 4442 
Q 3507 4173 3481 3955 
Q 3456 3738 3424 3539 
Q 3571 2624 3920 1974 
Q 4269 1325 4749 941 
Q 4915 806 5068 700 
Q 5222 595 5379 508 
Q 5536 422 5709 348 
Q 5882 275 6093 205 
Q 5907 58 5808 -86 
Q 5709 -230 5619 -448 
Q 5216 -230 4873 16 
Q 4531 262 4243 563 
Q 4038 774 3878 985 
Q 3718 1197 3596 1443 
Q 3475 1690 3379 1990 
Q 3283 2291 3206 2694 
z
" transform="scale(0.015625)"/>
        <path id="STHeitiTC-Medium-7c7b" d="M 3456 3315 
Q 3456 2982 3462 2713 
Q 3469 2445 3494 2144 
L 2899 2144 
Q 2925 2445 2931 2717 
Q 2938 2989 2938 3315 
L 2861 3315 
Q 2669 2989 2470 2742 
Q 2272 2496 2045 2297 
Q 1818 2099 1558 1942 
Q 1299 1786 986 1632 
Q 915 1734 800 1830 
Q 685 1926 538 2016 
Q 1152 2240 1616 2547 
Q 2080 2854 2432 3315 
Q 2189 3315 1929 3312 
Q 1670 3309 1424 3299 
Q 1178 3290 950 3277 
Q 723 3264 544 3251 
L 544 3821 
Q 986 3789 1568 3773 
Q 2150 3757 2938 3757 
L 2938 4390 
Q 2938 4614 2925 4800 
Q 2912 4986 2886 5158 
Q 3046 5133 3193 5120 
Q 3341 5107 3488 5107 
Q 3584 5107 3597 5072 
Q 3610 5037 3526 4973 
Q 3488 4941 3472 4889 
Q 3456 4838 3456 4781 
L 3456 3757 
Q 4243 3757 4832 3769 
Q 5421 3782 5862 3814 
L 5862 3251 
Q 5683 3264 5443 3273 
Q 5203 3283 4950 3292 
Q 4698 3302 4454 3308 
Q 4211 3315 4032 3315 
Q 4198 3110 4387 2966 
Q 4576 2822 4813 2720 
Q 5050 2618 5344 2547 
Q 5638 2477 6016 2419 
Q 5914 2285 5837 2147 
Q 5760 2010 5728 1875 
Q 5318 1990 4992 2118 
Q 4666 2246 4403 2412 
Q 4141 2579 3933 2800 
Q 3725 3021 3552 3315 
L 3456 3315 
z
M 3795 1050 
Q 3974 787 4163 611 
Q 4352 435 4601 326 
Q 4851 218 5184 166 
Q 5517 115 5990 102 
Q 5786 -250 5760 -506 
Q 5203 -422 4819 -304 
Q 4435 -186 4169 -3 
Q 3904 179 3728 435 
Q 3552 691 3405 1050 
L 3200 1050 
Q 2976 486 2390 57 
Q 1805 -371 813 -640 
Q 762 -493 688 -371 
Q 614 -250 467 -90 
Q 1299 6 1868 307 
Q 2438 608 2682 1050 
Q 2381 1050 2080 1043 
Q 1779 1037 1491 1027 
Q 1203 1018 944 1005 
Q 685 992 480 979 
L 480 1549 
Q 698 1536 976 1523 
Q 1254 1510 1561 1500 
Q 1869 1491 2192 1488 
Q 2515 1485 2835 1485 
Q 2848 1613 2861 1782 
Q 2874 1952 2880 2054 
Q 3027 2022 3193 2009 
Q 3360 1997 3526 1990 
Q 3616 1990 3625 1936 
Q 3635 1882 3546 1843 
Q 3494 1824 3436 1718 
Q 3379 1613 3347 1485 
Q 4205 1485 4832 1501 
Q 5459 1517 5926 1549 
L 5926 979 
Q 5523 1011 5001 1030 
Q 4480 1050 3795 1050 
z
M 1939 3923 
Q 1754 4096 1571 4249 
Q 1389 4403 1152 4582 
L 1574 4877 
Q 1805 4717 1993 4576 
Q 2182 4435 2387 4262 
L 1939 3923 
z
M 5248 4589 
Q 5216 4589 5171 4566 
Q 5126 4544 5033 4473 
Q 4941 4403 4784 4268 
Q 4627 4134 4384 3904 
Q 4211 4064 3968 4141 
Q 4250 4384 4426 4582 
Q 4602 4781 4749 5024 
Q 5024 4826 5274 4717 
Q 5357 4678 5347 4633 
Q 5338 4589 5248 4589 
z
" transform="scale(0.015625)"/>
        <path id="STHeitiTC-Medium-591a" d="M 3002 1645 
Q 2957 1600 2912 1558 
Q 2867 1517 2816 1472 
Q 3130 1248 3427 1011 
Q 3725 774 3974 563 
Q 4326 781 4585 1081 
Q 4845 1382 4934 1645 
L 3002 1645 
z
M 1882 3386 
Q 1760 3277 1619 3158 
Q 1478 3040 1318 2925 
Q 1267 3040 1177 3120 
Q 1088 3200 870 3296 
Q 1184 3456 1453 3677 
Q 1722 3898 1936 4147 
Q 2150 4397 2300 4656 
Q 2451 4915 2522 5146 
Q 2694 5075 2860 5017 
Q 3027 4960 3181 4934 
Q 3264 4922 3270 4883 
Q 3277 4845 3181 4806 
Q 3034 4749 2778 4442 
L 3859 4442 
Q 4422 4442 4822 4451 
Q 5222 4461 5491 4493 
Q 5229 4109 5001 3840 
Q 4774 3571 4521 3353 
Q 4269 3136 3952 2937 
Q 3635 2739 3194 2509 
Q 3322 2458 3459 2422 
Q 3597 2387 3699 2374 
Q 3770 2368 3773 2339 
Q 3776 2310 3706 2266 
Q 3578 2189 3430 2074 
L 4422 2074 
Q 4902 2074 5235 2083 
Q 5568 2093 5792 2125 
Q 5581 1664 5373 1312 
Q 5165 960 4925 697 
Q 4685 435 4403 246 
Q 4122 58 3770 -83 
Q 3091 -352 2409 -480 
Q 1728 -608 915 -614 
Q 870 -435 803 -300 
Q 736 -166 602 -19 
Q 774 -70 1126 -67 
Q 1478 -64 1894 -16 
Q 2310 32 2739 121 
Q 3168 211 3501 333 
Q 3302 525 3030 742 
Q 2758 960 2464 1165 
Q 2010 800 1478 525 
Q 1414 634 1299 733 
Q 1184 832 979 928 
Q 1274 1030 1587 1203 
Q 1901 1376 2195 1587 
Q 2490 1798 2736 2032 
Q 2982 2266 3142 2483 
Q 2957 2381 2720 2272 
Q 2483 2163 2208 2064 
Q 1933 1965 1641 1875 
Q 1350 1786 1062 1722 
Q 1018 1875 950 1984 
Q 883 2093 723 2227 
Q 1165 2298 1661 2438 
Q 2157 2579 2637 2778 
Q 2477 2925 2288 3081 
Q 2099 3238 1882 3386 
z
M 2470 4038 
Q 2413 3955 2342 3868 
Q 2272 3782 2189 3693 
Q 2432 3526 2659 3356 
Q 2886 3187 3123 2995 
Q 3322 3098 3530 3232 
Q 3738 3366 3923 3510 
Q 4109 3654 4249 3792 
Q 4390 3930 4461 4038 
L 2470 4038 
z
" transform="scale(0.015625)"/>
        <path id="STHeitiTC-Medium-80af" d="M 1888 416 
L 1888 -678 
L 1293 -678 
Q 1331 -301 1347 -41 
Q 1363 218 1363 454 
L 1363 2042 
Q 1363 2272 1353 2429 
Q 1344 2586 1312 2714 
Q 1709 2682 2214 2669 
Q 2720 2656 3270 2656 
Q 3827 2656 4352 2669 
Q 4877 2682 5242 2714 
Q 5210 2554 5197 2400 
Q 5184 2246 5184 2042 
L 5184 -26 
Q 5184 -198 5161 -304 
Q 5139 -410 5040 -477 
Q 4941 -544 4739 -589 
Q 4538 -634 4186 -678 
Q 4179 -531 4137 -400 
Q 4096 -269 3987 -122 
Q 4205 -134 4336 -128 
Q 4467 -122 4531 -90 
Q 4595 -58 4614 3 
Q 4634 64 4634 166 
L 4634 416 
L 1888 416 
z
M 4634 1766 
L 4634 2234 
L 1888 2234 
L 1888 1766 
L 4634 1766 
z
M 1888 1344 
L 1888 838 
L 4634 838 
L 4634 1344 
L 1888 1344 
z
M 3469 4582 
Q 4275 4582 4742 4598 
Q 5210 4614 5446 4640 
L 5446 4115 
Q 5210 4141 4742 4150 
Q 4275 4160 3469 4160 
L 3469 3565 
Q 4294 3565 4937 3581 
Q 5581 3597 6029 3629 
L 6029 3059 
Q 5805 3072 5529 3085 
Q 5254 3098 4912 3104 
Q 4570 3110 4144 3113 
Q 3718 3117 3194 3117 
Q 2637 3117 2211 3113 
Q 1786 3110 1456 3104 
Q 1126 3098 864 3088 
Q 602 3078 365 3059 
L 365 3629 
Q 710 3597 969 3587 
Q 1229 3578 1453 3571 
Q 1453 3853 1449 4048 
Q 1446 4243 1440 4377 
Q 1434 4512 1424 4598 
Q 1414 4685 1395 4755 
Q 1536 4736 1721 4726 
Q 1907 4717 2029 4723 
Q 2112 4730 2118 4698 
Q 2125 4666 2054 4634 
Q 2016 4614 1993 4563 
Q 1971 4512 1971 4461 
L 1971 3565 
L 2918 3565 
L 2918 4467 
Q 2918 4704 2908 4861 
Q 2899 5018 2867 5178 
Q 3021 5165 3225 5155 
Q 3430 5146 3597 5146 
Q 3686 5146 3699 5098 
Q 3712 5050 3629 5018 
Q 3539 4986 3504 4915 
Q 3469 4845 3469 4755 
L 3469 4582 
z
" transform="scale(0.015625)"/>
        <path id="STHeitiTC-Medium-5b9a" d="M 3059 4250 
Q 2989 4448 2912 4617 
Q 2835 4787 2726 4973 
L 3328 5165 
Q 3411 5030 3520 4816 
Q 3629 4602 3712 4416 
L 3059 4250 
z
M 4365 1773 
Q 4634 1773 4883 1789 
Q 5133 1805 5357 1837 
L 5357 1254 
Q 5152 1286 4905 1302 
Q 4659 1318 4365 1318 
L 3475 1318 
L 3475 90 
Q 4019 6 4684 6 
Q 5350 6 6042 115 
Q 5952 -32 5923 -169 
Q 5894 -307 5894 -550 
Q 5677 -570 5347 -570 
Q 5018 -570 4662 -550 
Q 4307 -531 3971 -499 
Q 3635 -467 3398 -416 
Q 3078 -352 2825 -259 
Q 2573 -166 2358 -25 
Q 2144 115 1955 304 
Q 1766 493 1587 749 
Q 1478 512 1388 329 
Q 1299 147 1209 -13 
Q 1120 -173 1024 -320 
Q 928 -467 813 -627 
Q 672 -518 576 -454 
Q 480 -390 352 -320 
Q 742 134 1062 774 
Q 1382 1414 1562 2118 
Q 1690 2054 1853 2006 
Q 2016 1958 2125 1939 
Q 2214 1926 2220 1888 
Q 2227 1850 2144 1760 
Q 2054 1664 1968 1533 
Q 1882 1402 1773 1171 
Q 1958 838 2275 595 
Q 2592 352 2950 218 
L 2950 2643 
Q 2432 2637 2048 2624 
Q 1664 2611 1376 2586 
L 1376 3130 
Q 1702 3098 2131 3085 
Q 2560 3072 3162 3072 
Q 3770 3072 4202 3085 
Q 4634 3098 4960 3130 
L 4960 2586 
Q 4678 2611 4316 2624 
Q 3955 2637 3475 2643 
L 3475 1773 
L 4365 1773 
z
M 3181 4186 
Q 3757 4186 4163 4189 
Q 4570 4192 4864 4201 
Q 5158 4211 5363 4220 
Q 5568 4230 5741 4243 
L 5741 2963 
L 5184 2963 
L 5184 3744 
L 1184 3744 
L 1184 2874 
L 627 2874 
L 627 4243 
Q 800 4230 1005 4217 
Q 1210 4205 1501 4198 
Q 1792 4192 2198 4189 
Q 2605 4186 3181 4186 
z
" transform="scale(0.015625)"/>
        <path id="STHeitiTC-Medium-7528" d="M 3706 960 
Q 3706 659 3715 406 
Q 3725 154 3750 -134 
L 3136 -134 
Q 3162 160 3171 416 
Q 3181 672 3181 960 
L 3181 1427 
L 1914 1427 
Q 1850 794 1651 256 
Q 1453 -282 1229 -634 
Q 1088 -512 969 -438 
Q 851 -365 666 -294 
Q 1030 122 1219 746 
Q 1408 1370 1408 2246 
L 1408 3891 
Q 1408 4192 1395 4425 
Q 1382 4659 1357 4800 
Q 1606 4787 1849 4777 
Q 2093 4768 2355 4765 
Q 2618 4762 2909 4758 
Q 3200 4755 3539 4755 
Q 3974 4755 4291 4758 
Q 4608 4762 4854 4765 
Q 5101 4768 5305 4777 
Q 5510 4787 5734 4800 
Q 5709 4666 5693 4429 
Q 5677 4192 5677 3891 
L 5677 70 
Q 5677 -102 5657 -208 
Q 5638 -314 5536 -381 
Q 5434 -448 5226 -493 
Q 5018 -538 4640 -595 
Q 4602 -422 4557 -284 
Q 4512 -147 4435 19 
Q 4659 13 4796 25 
Q 4934 38 5011 70 
Q 5088 102 5117 156 
Q 5146 211 5146 294 
L 5146 1427 
L 3706 1427 
L 3706 960 
z
M 1933 2874 
L 1933 1894 
L 3181 1894 
L 3181 2874 
L 1933 2874 
z
M 3181 3341 
L 3181 4282 
L 1933 4282 
L 1933 3341 
L 3181 3341 
z
M 5146 3341 
L 5146 4282 
L 3706 4282 
L 3706 3341 
L 5146 3341 
z
M 3706 2874 
L 3706 1894 
L 5146 1894 
L 5146 2874 
L 3706 2874 
z
" transform="scale(0.015625)"/>
        <path id="STHeitiTC-Medium-6237" d="M 3430 4243 
Q 3366 4467 3289 4646 
Q 3213 4826 3104 5011 
L 3712 5210 
Q 3802 5024 3882 4841 
Q 3962 4659 4070 4454 
L 3430 4243 
z
M 2118 1728 
Q 2086 1011 1843 368 
Q 1600 -275 1216 -730 
Q 1088 -627 915 -547 
Q 742 -467 570 -416 
Q 838 -166 1027 96 
Q 1216 358 1337 678 
Q 1459 998 1516 1395 
Q 1574 1792 1574 2304 
L 1574 3622 
Q 1574 3795 1568 3904 
Q 1562 4013 1536 4122 
Q 1683 4115 1836 4108 
Q 1990 4102 2220 4099 
Q 2451 4096 2800 4096 
Q 3149 4096 3686 4096 
Q 4224 4096 4576 4096 
Q 4928 4096 5161 4099 
Q 5395 4102 5545 4108 
Q 5696 4115 5830 4122 
Q 5805 4032 5792 3923 
Q 5779 3814 5779 3622 
L 5779 2067 
Q 5779 1862 5785 1660 
Q 5792 1459 5824 1235 
L 5216 1235 
L 5216 1728 
L 2118 1728 
z
M 5216 2208 
L 5216 3616 
L 2125 3616 
L 2125 2208 
L 5216 2208 
z
" transform="scale(0.015625)"/>
        <path id="STHeitiTC-Medium-884c" d="M 2266 4749 
Q 2355 4710 2348 4672 
Q 2342 4634 2253 4614 
Q 2221 4608 2176 4582 
Q 2131 4557 2064 4499 
Q 1997 4442 1904 4339 
Q 1811 4237 1683 4083 
Q 1626 4013 1523 3904 
Q 1421 3795 1299 3673 
Q 1178 3552 1050 3433 
Q 922 3315 826 3226 
Q 755 3334 649 3427 
Q 544 3520 435 3584 
Q 678 3750 873 3955 
Q 1069 4160 1254 4416 
Q 1421 4627 1526 4800 
Q 1632 4973 1702 5120 
Q 1760 5069 1833 5014 
Q 1907 4960 1987 4909 
Q 2067 4858 2140 4813 
Q 2214 4768 2266 4749 
z
M 5683 4096 
Q 5440 4128 5120 4141 
Q 4800 4154 4358 4154 
Q 3917 4154 3593 4141 
Q 3270 4128 3027 4096 
L 3027 4685 
Q 3270 4653 3593 4643 
Q 3917 4634 4358 4634 
Q 4800 4634 5120 4643 
Q 5440 4653 5683 4685 
L 5683 4096 
z
M 4960 64 
Q 4960 -122 4918 -250 
Q 4877 -378 4742 -461 
Q 4608 -544 4361 -585 
Q 4115 -627 3706 -646 
Q 3693 -493 3622 -339 
Q 3552 -186 3405 26 
Q 3712 -13 3907 -9 
Q 4102 -6 4211 29 
Q 4320 64 4361 125 
Q 4403 186 4403 262 
L 4403 2509 
Q 3795 2509 3385 2493 
Q 2976 2477 2656 2451 
L 2656 3040 
Q 2816 3027 2998 3017 
Q 3181 3008 3392 3001 
Q 3603 2995 3856 2992 
Q 4109 2989 4410 2989 
Q 4710 2989 4950 2992 
Q 5190 2995 5388 3001 
Q 5587 3008 5756 3017 
Q 5926 3027 6093 3040 
L 6093 2451 
Q 5843 2477 5580 2486 
Q 5318 2496 4960 2502 
L 4960 64 
z
M 1773 -640 
L 1184 -640 
Q 1216 -371 1229 -131 
Q 1242 109 1242 390 
L 1242 1830 
Q 1101 1670 957 1516 
Q 813 1363 678 1216 
Q 570 1466 307 1696 
Q 570 1894 842 2172 
Q 1114 2451 1318 2752 
Q 1498 3014 1626 3222 
Q 1754 3430 1850 3635 
Q 1907 3590 1977 3539 
Q 2048 3488 2121 3440 
Q 2195 3392 2265 3350 
Q 2336 3309 2387 3283 
Q 2470 3238 2467 3203 
Q 2464 3168 2374 3149 
Q 2336 3136 2173 2979 
Q 2010 2822 1773 2496 
L 1773 -640 
z
" transform="scale(0.015625)"/>
        <path id="STHeitiTC-Medium-4e3a" d="M 4083 858 
Q 3955 1082 3785 1286 
Q 3616 1491 3418 1677 
L 3891 2022 
Q 4045 1811 4208 1625 
Q 4371 1440 4576 1248 
L 4083 858 
z
M 2112 3706 
Q 2016 3994 1891 4227 
Q 1766 4461 1594 4666 
L 2189 4954 
Q 2266 4806 2333 4688 
Q 2400 4570 2464 4458 
Q 2528 4346 2595 4230 
Q 2662 4115 2746 3974 
L 2112 3706 
z
M 3699 2995 
Q 3533 2349 3331 1869 
Q 3130 1389 2845 985 
Q 2560 582 2160 214 
Q 1760 -154 1197 -563 
Q 1082 -435 934 -326 
Q 787 -218 589 -128 
Q 1050 77 1456 377 
Q 1862 678 2195 1068 
Q 2528 1459 2774 1939 
Q 3021 2419 3168 2995 
Q 2432 2989 1888 2976 
Q 1344 2963 960 2944 
L 960 3533 
Q 1344 3501 1910 3491 
Q 2477 3482 3270 3482 
Q 3309 3731 3341 3977 
Q 3373 4224 3389 4445 
Q 3405 4666 3408 4851 
Q 3411 5037 3405 5165 
Q 3475 5139 3574 5113 
Q 3674 5088 3779 5062 
Q 3885 5037 3987 5017 
Q 4090 4998 4179 4992 
Q 4211 4986 4217 4963 
Q 4224 4941 4205 4928 
Q 4115 4877 4073 4771 
Q 4032 4666 3987 4397 
Q 3974 4333 3958 4227 
Q 3942 4122 3916 3997 
Q 3891 3872 3865 3737 
Q 3840 3603 3814 3482 
Q 4454 3488 4956 3501 
Q 5459 3514 5805 3539 
Q 5779 3136 5744 2707 
Q 5709 2278 5670 1881 
Q 5632 1485 5593 1142 
Q 5555 800 5523 570 
Q 5478 301 5411 86 
Q 5344 -128 5197 -275 
Q 5050 -422 4784 -508 
Q 4518 -595 4083 -608 
Q 4070 -403 3996 -214 
Q 3923 -26 3795 122 
Q 4115 83 4323 96 
Q 4531 109 4656 169 
Q 4781 230 4845 345 
Q 4909 461 4947 627 
Q 4979 774 5011 1030 
Q 5043 1286 5072 1606 
Q 5101 1926 5126 2284 
Q 5152 2643 5171 2995 
L 3699 2995 
z
" transform="scale(0.015625)"/>
       </defs>
       <use xlink:href="#STHeitiTC-Medium-6bd4"/>
       <use xlink:href="#STHeitiTC-Medium-4eba" x="99.999985"/>
       <use xlink:href="#STHeitiTC-Medium-7c7b" x="199.999969"/>
       <use xlink:href="#STHeitiTC-Medium-591a" x="299.999954"/>
       <use xlink:href="#STHeitiTC-Medium-80af" x="399.999939"/>
       <use xlink:href="#STHeitiTC-Medium-5b9a" x="499.999924"/>
       <use xlink:href="#STHeitiTC-Medium-7528" x="599.999908"/>
       <use xlink:href="#STHeitiTC-Medium-6237" x="699.999893"/>
       <use xlink:href="#STHeitiTC-Medium-884c" x="799.999878"/>
       <use xlink:href="#STHeitiTC-Medium-4e3a" x="899.999863"/>
      </g>
     </g>
    </g>
    <g id="ytick_2">
     <g id="line2d_16">
      <g>
       <use xlink:href="#m42d90a2b43" x="129.452812" y="155.80957" style="fill: #333333; stroke: #333333; stroke-width: 0.8"/>
      </g>
     </g>
     <g id="text_9">
      <!-- 错误认可有错一方（AITA） -->
      <g style="fill: #333333" transform="translate(7.2 159.65707) scale(0.095 -0.095)">
       <defs>
        <path id="STHeitiTC-Medium-9519" d="M 1690 307 
Q 1946 474 2144 643 
Q 2342 813 2515 1005 
Q 2528 838 2553 704 
Q 2579 570 2618 461 
L 1760 -230 
Q 1574 -378 1491 -467 
Q 1408 -557 1357 -653 
Q 1197 -333 966 -198 
Q 1107 -70 1152 90 
Q 1197 250 1197 518 
L 1197 1568 
Q 979 1562 806 1552 
Q 634 1542 499 1523 
L 499 2016 
Q 634 1997 806 1984 
Q 979 1971 1197 1965 
L 1197 2682 
Q 973 2669 832 2643 
L 832 3136 
Q 960 3110 1152 3100 
Q 1344 3091 1587 3091 
Q 1830 3091 2019 3100 
Q 2208 3110 2336 3136 
L 2336 2643 
Q 2221 2662 2057 2675 
Q 1894 2688 1690 2688 
L 1690 1965 
Q 1984 1971 2208 1984 
Q 2432 1997 2598 2016 
L 2598 1523 
Q 2432 1542 2208 1555 
Q 1984 1568 1690 1574 
L 1690 307 
z
M 1222 3731 
Q 1037 3462 861 3235 
Q 685 3008 557 2854 
Q 506 2982 435 3094 
Q 365 3206 282 3296 
Q 435 3430 601 3644 
Q 768 3859 918 4112 
Q 1069 4365 1197 4637 
Q 1325 4909 1408 5158 
Q 1530 5082 1654 5021 
Q 1779 4960 1869 4934 
Q 1997 4902 2003 4854 
Q 2010 4806 1907 4723 
Q 1875 4704 1792 4582 
Q 1709 4461 1504 4154 
Q 1811 4154 2016 4160 
Q 2221 4166 2426 4186 
L 2426 3699 
Q 2317 3706 2205 3712 
Q 2093 3718 1955 3721 
Q 1818 3725 1638 3728 
Q 1459 3731 1222 3731 
z
M 4614 4160 
Q 4614 4467 4598 4707 
Q 4582 4947 4550 5088 
Q 4627 5069 4710 5056 
Q 4794 5043 4877 5036 
Q 4960 5030 5027 5027 
Q 5094 5024 5139 5030 
Q 5197 5037 5206 5011 
Q 5216 4986 5165 4934 
Q 5133 4902 5110 4803 
Q 5088 4704 5088 4634 
L 5088 4166 
Q 5312 4173 5504 4182 
Q 5696 4192 5824 4218 
L 5824 3699 
Q 5696 3725 5504 3734 
Q 5312 3744 5088 3750 
L 5088 2931 
Q 5472 2931 5712 2944 
Q 5952 2957 6118 2989 
L 6118 2477 
Q 6061 2490 5952 2499 
Q 5843 2509 5648 2518 
Q 5453 2528 5158 2531 
Q 4864 2534 4429 2534 
Q 3987 2534 3692 2528 
Q 3398 2522 3200 2515 
Q 3002 2509 2874 2499 
Q 2746 2490 2643 2477 
L 2643 2989 
Q 2784 2970 2950 2957 
Q 3117 2944 3341 2938 
L 3341 3750 
Q 3174 3738 3027 3725 
Q 2880 3712 2739 3699 
L 2739 4218 
Q 2867 4198 3017 4188 
Q 3168 4179 3341 4166 
Q 3341 4486 3325 4713 
Q 3309 4941 3277 5082 
Q 3354 5062 3443 5052 
Q 3533 5043 3622 5033 
Q 3712 5024 3782 5024 
Q 3853 5024 3891 5024 
Q 3949 5030 3952 5001 
Q 3955 4973 3904 4922 
Q 3872 4890 3843 4794 
Q 3814 4698 3814 4627 
L 3814 4160 
L 4614 4160 
z
M 3814 3757 
L 3814 2931 
L 4614 2931 
L 4614 3757 
L 3814 3757 
z
M 3418 -659 
L 2925 -659 
Q 2957 -435 2963 -243 
Q 2970 -51 2970 198 
L 2970 1363 
Q 2970 1446 2966 1552 
Q 2963 1658 2960 1757 
Q 2957 1856 2950 1942 
Q 2944 2029 2938 2080 
Q 3021 2067 3113 2057 
Q 3206 2048 3350 2045 
Q 3494 2042 3708 2038 
Q 3923 2035 4256 2035 
Q 4582 2035 4796 2038 
Q 5011 2042 5155 2045 
Q 5299 2048 5392 2057 
Q 5485 2067 5568 2080 
Q 5555 1984 5545 1776 
Q 5536 1568 5536 1363 
L 5536 243 
Q 5536 13 5545 -192 
Q 5555 -397 5581 -614 
L 5082 -614 
L 5082 -230 
L 3418 -230 
L 3418 -659 
z
M 5082 1632 
L 3418 1632 
L 3418 1120 
L 5082 1120 
L 5082 1632 
z
M 3418 186 
L 5082 186 
L 5082 704 
L 3418 704 
L 3418 186 
z
" transform="scale(0.015625)"/>
        <path id="STHeitiTC-Medium-8bef" d="M 4934 4365 
L 2976 4365 
L 2976 3514 
L 4934 3514 
L 4934 4365 
z
M 5504 3040 
Q 5357 3046 5203 3052 
Q 5050 3059 4867 3065 
Q 4685 3072 4464 3072 
Q 4243 3072 3968 3072 
Q 3411 3072 3059 3062 
Q 2707 3053 2426 3040 
Q 2432 3123 2435 3241 
Q 2438 3360 2441 3494 
Q 2445 3629 2445 3769 
Q 2445 3910 2445 4026 
Q 2445 4256 2441 4477 
Q 2438 4698 2426 4858 
Q 2566 4845 2723 4838 
Q 2880 4832 3062 4825 
Q 3245 4819 3465 4819 
Q 3686 4819 3968 4819 
Q 4250 4819 4470 4819 
Q 4691 4819 4870 4825 
Q 5050 4832 5203 4838 
Q 5357 4845 5504 4858 
Q 5491 4698 5481 4477 
Q 5472 4256 5472 4026 
Q 5472 3904 5475 3763 
Q 5478 3622 5481 3488 
Q 5485 3354 5491 3235 
Q 5498 3117 5504 3040 
z
M 1498 -64 
Q 1350 -224 1273 -326 
Q 1197 -429 1146 -525 
Q 1069 -397 963 -262 
Q 858 -128 755 -32 
Q 826 32 867 89 
Q 909 147 931 227 
Q 954 307 960 432 
Q 966 557 966 749 
L 966 2797 
Q 838 2797 752 2793 
Q 666 2790 598 2787 
Q 531 2784 473 2777 
Q 416 2771 352 2765 
L 352 3290 
Q 480 3277 624 3267 
Q 768 3258 966 3258 
Q 1158 3258 1302 3267 
Q 1446 3277 1574 3290 
Q 1504 2995 1504 2522 
L 1504 614 
Q 1581 704 1635 771 
Q 1690 838 1734 899 
Q 1779 960 1820 1021 
Q 1862 1082 1907 1158 
Q 1939 1005 2016 845 
Q 2093 685 2150 627 
L 1498 -64 
z
M 1299 3706 
Q 1203 3955 1072 4192 
Q 941 4429 762 4698 
L 1293 4986 
Q 1421 4742 1571 4480 
Q 1722 4218 1869 4013 
L 1299 3706 
z
M 4000 1254 
Q 3910 934 3760 672 
Q 3610 410 3386 179 
Q 3162 -51 2854 -262 
Q 2547 -474 2150 -685 
Q 2093 -589 1990 -480 
Q 1888 -371 1722 -262 
Q 2029 -141 2313 19 
Q 2598 179 2832 371 
Q 3066 563 3232 784 
Q 3398 1005 3475 1254 
Q 3027 1248 2652 1235 
Q 2278 1222 2022 1203 
L 2022 1741 
Q 2291 1722 2688 1712 
Q 3085 1702 3565 1696 
Q 3584 1830 3603 1974 
Q 3622 2118 3629 2246 
Q 3219 2240 2880 2230 
Q 2541 2221 2317 2202 
L 2317 2733 
Q 2586 2707 3005 2697 
Q 3424 2688 3930 2688 
Q 4563 2688 4992 2697 
Q 5421 2707 5690 2733 
L 5690 2202 
Q 5574 2208 5404 2217 
Q 5235 2227 5040 2230 
Q 4845 2234 4624 2240 
Q 4403 2246 4186 2246 
Q 4166 2061 4147 1936 
Q 4128 1811 4102 1696 
Q 4390 1690 4672 1693 
Q 4954 1696 5206 1702 
Q 5459 1709 5673 1718 
Q 5888 1728 6042 1741 
L 6042 1203 
Q 5779 1222 5334 1235 
Q 4890 1248 4397 1254 
Q 4544 986 4717 781 
Q 4890 576 5094 419 
Q 5299 262 5532 150 
Q 5766 38 6042 -38 
Q 5920 -166 5824 -342 
Q 5728 -518 5696 -666 
Q 5402 -525 5130 -317 
Q 4858 -109 4634 140 
Q 4410 390 4246 672 
Q 4083 954 4000 1254 
z
" transform="scale(0.015625)"/>
        <path id="STHeitiTC-Medium-8ba4" d="M 1907 371 
Q 1779 218 1635 32 
Q 1491 -154 1376 -320 
Q 1267 -173 1171 -67 
Q 1075 38 960 128 
Q 1082 294 1139 448 
Q 1197 602 1197 800 
L 1197 2733 
Q 896 2733 633 2720 
Q 371 2707 237 2694 
L 237 3251 
Q 371 3238 579 3228 
Q 787 3219 998 3219 
Q 1203 3219 1414 3228 
Q 1626 3238 1754 3251 
Q 1728 3104 1712 2896 
Q 1696 2688 1696 2470 
L 1696 851 
Q 1818 973 1923 1085 
Q 2029 1197 2128 1309 
Q 2227 1421 2329 1539 
Q 2432 1658 2541 1798 
Q 2586 1651 2653 1529 
Q 2720 1408 2790 1344 
L 1907 371 
z
M 1715 3712 
Q 1549 4000 1366 4237 
Q 1184 4474 954 4710 
L 1421 5011 
Q 1658 4787 1862 4547 
Q 2067 4307 2240 4064 
L 1715 3712 
z
M 4224 2534 
Q 4115 1856 3980 1385 
Q 3846 915 3651 566 
Q 3456 218 3187 -60 
Q 2918 -339 2541 -640 
Q 2419 -518 2304 -435 
Q 2189 -352 2022 -262 
Q 2381 -26 2672 265 
Q 2963 557 3180 928 
Q 3398 1299 3542 1763 
Q 3686 2227 3744 2803 
Q 3789 3206 3814 3529 
Q 3840 3853 3849 4128 
Q 3859 4403 3852 4649 
Q 3846 4896 3827 5146 
Q 4013 5114 4185 5094 
Q 4358 5075 4582 5062 
Q 4646 5056 4652 5027 
Q 4659 4998 4608 4954 
Q 4570 4922 4531 4778 
Q 4493 4634 4480 4499 
Q 4467 4352 4451 4182 
Q 4435 4013 4403 3782 
Q 4448 3194 4509 2768 
Q 4570 2342 4650 2022 
Q 4730 1702 4838 1468 
Q 4947 1235 5082 1037 
Q 5267 768 5539 541 
Q 5811 314 6163 147 
Q 6074 64 6006 -6 
Q 5939 -77 5884 -147 
Q 5830 -218 5782 -294 
Q 5734 -371 5690 -467 
Q 5363 -269 5084 44 
Q 4806 358 4621 774 
Q 4493 1050 4393 1478 
Q 4294 1907 4224 2534 
z
" transform="scale(0.015625)"/>
        <path id="STHeitiTC-Medium-53ef" d="M 1920 4134 
Q 1594 4134 1373 4131 
Q 1152 4128 992 4121 
Q 832 4115 713 4105 
Q 595 4096 474 4083 
L 474 4685 
Q 595 4666 716 4650 
Q 838 4634 998 4627 
Q 1158 4621 1376 4617 
Q 1594 4614 1920 4614 
L 4486 4614 
Q 4979 4614 5337 4633 
Q 5696 4653 5920 4685 
L 5920 4077 
Q 5754 4096 5526 4109 
Q 5299 4122 5011 4128 
L 5011 38 
Q 5011 -173 4966 -317 
Q 4922 -461 4774 -547 
Q 4627 -634 4352 -662 
Q 4077 -691 3616 -678 
Q 3610 -531 3539 -342 
Q 3469 -154 3322 -6 
Q 3706 -70 3933 -86 
Q 4160 -102 4278 -70 
Q 4397 -38 4429 38 
Q 4461 115 4461 243 
L 4461 4134 
L 1920 4134 
z
M 3136 2899 
L 1670 2899 
L 1670 1664 
L 3136 1664 
L 3136 2899 
z
M 1670 397 
L 1082 397 
Q 1094 518 1104 684 
Q 1114 851 1123 1024 
Q 1133 1197 1136 1357 
Q 1139 1517 1139 1626 
L 1139 2509 
Q 1139 2726 1126 2995 
Q 1114 3264 1094 3450 
Q 1274 3430 1597 3417 
Q 1920 3405 2451 3405 
Q 2982 3405 3260 3417 
Q 3539 3430 3686 3450 
Q 3680 3373 3670 3254 
Q 3661 3136 3654 3005 
Q 3648 2874 3645 2742 
Q 3642 2611 3642 2509 
L 3642 1626 
Q 3642 1408 3654 1171 
Q 3667 934 3699 730 
L 3136 730 
L 3136 1190 
L 1670 1190 
L 1670 397 
z
" transform="scale(0.015625)"/>
        <path id="STHeitiTC-Medium-6709" d="M 4608 2790 
L 2266 2790 
L 2266 2227 
L 4608 2227 
L 4608 2790 
z
M 2266 1178 
L 4608 1178 
L 4608 1805 
L 2266 1805 
L 2266 1178 
z
M 2189 3904 
Q 1907 3904 1673 3901 
Q 1440 3898 1238 3891 
Q 1037 3885 854 3872 
Q 672 3859 486 3846 
L 486 4397 
Q 691 4384 892 4374 
Q 1094 4365 1318 4358 
Q 1542 4352 1801 4345 
Q 2061 4339 2387 4339 
Q 2490 4595 2560 4841 
Q 2630 5088 2662 5235 
Q 2854 5165 3017 5129 
Q 3181 5094 3366 5069 
Q 3558 5037 3386 4934 
Q 3264 4858 3171 4717 
Q 3078 4576 2989 4339 
Q 3757 4339 4237 4339 
Q 4717 4339 5030 4345 
Q 5344 4352 5561 4365 
Q 5779 4378 6022 4397 
L 6022 3846 
Q 5843 3859 5673 3868 
Q 5504 3878 5315 3884 
Q 5126 3891 4896 3897 
Q 4666 3904 4365 3907 
Q 4064 3910 3673 3910 
Q 3283 3910 2771 3910 
Q 2675 3725 2569 3552 
Q 2464 3379 2355 3206 
L 3488 3206 
Q 3974 3206 4419 3222 
Q 4864 3238 5203 3270 
Q 5184 3136 5168 2902 
Q 5152 2669 5152 2400 
L 5152 230 
Q 5152 0 5133 -137 
Q 5114 -275 5018 -358 
Q 4922 -442 4717 -496 
Q 4512 -550 4141 -614 
Q 4128 -467 4070 -294 
Q 4013 -122 3904 38 
Q 4128 0 4265 -3 
Q 4403 -6 4480 32 
Q 4557 70 4582 156 
Q 4608 243 4608 390 
L 4608 755 
L 2266 755 
L 2266 -582 
L 1670 -582 
Q 1702 -339 1715 -99 
Q 1728 141 1728 333 
L 1728 2349 
Q 1517 2080 1296 1840 
Q 1075 1600 858 1376 
Q 762 1485 621 1577 
Q 480 1670 371 1709 
Q 896 2080 1360 2633 
Q 1824 3187 2189 3904 
z
" transform="scale(0.015625)"/>
        <path id="STHeitiTC-Medium-4e00" d="M 5926 2003 
Q 5434 2035 4774 2051 
Q 4115 2067 3194 2067 
Q 2272 2067 1616 2051 
Q 960 2035 467 2003 
L 467 2733 
Q 966 2701 1619 2685 
Q 2272 2669 3194 2669 
Q 4115 2669 4774 2685 
Q 5434 2701 5926 2733 
L 5926 2003 
z
" transform="scale(0.015625)"/>
        <path id="STHeitiTC-Medium-65b9" d="M 2970 4070 
Q 2944 4173 2902 4294 
Q 2861 4416 2813 4534 
Q 2765 4653 2713 4758 
Q 2662 4864 2618 4941 
L 3309 5158 
Q 3328 5069 3363 4960 
Q 3398 4851 3443 4736 
Q 3488 4621 3539 4512 
Q 3590 4403 3642 4314 
L 2970 4070 
z
M 4486 2694 
Q 4678 2694 4851 2704 
Q 5024 2714 5139 2726 
L 4934 390 
Q 4915 134 4867 -32 
Q 4819 -198 4691 -307 
Q 4563 -416 4326 -483 
Q 4090 -550 3686 -614 
Q 3661 -429 3552 -221 
Q 3443 -13 3270 160 
Q 3552 96 3747 89 
Q 3942 83 4070 128 
Q 4198 173 4262 269 
Q 4326 365 4346 499 
L 4544 2195 
L 2784 2195 
Q 2726 1722 2624 1366 
Q 2522 1011 2339 697 
Q 2157 384 1881 80 
Q 1606 -224 1197 -589 
Q 1094 -416 931 -304 
Q 768 -192 576 -141 
Q 928 32 1213 278 
Q 1498 525 1709 825 
Q 1920 1126 2054 1475 
Q 2189 1824 2240 2208 
Q 2278 2490 2297 2806 
Q 2317 3123 2330 3507 
Q 2022 3507 1766 3500 
Q 1510 3494 1283 3491 
Q 1056 3488 851 3478 
Q 646 3469 448 3462 
L 448 4038 
Q 947 4013 1622 4003 
Q 2298 3994 3194 3994 
Q 4102 3994 4784 4003 
Q 5466 4013 5946 4038 
L 5946 3462 
Q 5709 3475 5376 3484 
Q 5043 3494 4649 3497 
Q 4256 3501 3814 3504 
Q 3373 3507 2925 3507 
Q 2906 3290 2886 3094 
Q 2867 2899 2842 2694 
L 4486 2694 
z
" transform="scale(0.015625)"/>
        <path id="STHeitiTC-Medium-ff08" d="M 5651 -749 
L 5274 -749 
Q 4646 173 4409 835 
Q 4173 1498 4173 2266 
Q 4173 3034 4432 3750 
Q 4691 4467 5254 5267 
L 5645 5267 
Q 5082 4237 4928 3606 
Q 4774 2976 4774 2093 
Q 4774 1472 4953 861 
Q 5133 250 5651 -749 
z
" transform="scale(0.015625)"/>
        <path id="STHeitiTC-Medium-41" d="M 4646 384 
L 4064 384 
L 3341 1952 
L 1408 1952 
L 691 384 
L 83 384 
L 2298 5254 
L 2464 5254 
L 4646 384 
z
M 3091 2509 
L 2381 4090 
L 1664 2509 
L 3091 2509 
z
" transform="scale(0.015625)"/>
        <path id="STHeitiTC-Medium-49" d="M 998 384 
L 448 384 
L 448 5069 
L 998 5069 
L 998 384 
z
" transform="scale(0.015625)"/>
        <path id="STHeitiTC-Medium-54" d="M 2669 4531 
L 1645 4531 
L 1645 384 
L 1088 384 
L 1088 4531 
L 58 4531 
L 58 5069 
L 2669 5069 
L 2669 4531 
z
" transform="scale(0.015625)"/>
        <path id="STHeitiTC-Medium-ff09" d="M 1120 5267 
Q 1747 4346 1984 3683 
Q 2221 3021 2221 2253 
Q 2221 1485 1961 768 
Q 1702 51 1139 -749 
L 749 -749 
Q 1312 282 1465 912 
Q 1619 1542 1619 2426 
Q 1619 3046 1440 3657 
Q 1261 4269 742 5267 
L 1120 5267 
z
" transform="scale(0.015625)"/>
       </defs>
       <use xlink:href="#STHeitiTC-Medium-9519"/>
       <use xlink:href="#STHeitiTC-Medium-8bef" x="99.999985"/>
       <use xlink:href="#STHeitiTC-Medium-8ba4" x="199.999969"/>
       <use xlink:href="#STHeitiTC-Medium-53ef" x="299.999954"/>
       <use xlink:href="#STHeitiTC-Medium-6709" x="399.999939"/>
       <use xlink:href="#STHeitiTC-Medium-9519" x="499.999924"/>
       <use xlink:href="#STHeitiTC-Medium-4e00" x="599.999908"/>
       <use xlink:href="#STHeitiTC-Medium-65b9" x="699.999893"/>
       <use xlink:href="#STHeitiTC-Medium-ff08" x="799.999878"/>
       <use xlink:href="#STHeitiTC-Medium-41" x="899.999863"/>
       <use xlink:href="#STHeitiTC-Medium-49" x="973.999847"/>
       <use xlink:href="#STHeitiTC-Medium-54" x="996.599838"/>
       <use xlink:href="#STHeitiTC-Medium-41" x="1039.199829"/>
       <use xlink:href="#STHeitiTC-Medium-ff09" x="1113.199814"/>
      </g>
     </g>
    </g>
    <g id="ytick_3">
     <g id="line2d_17">
      <g>
       <use xlink:href="#m42d90a2b43" x="129.452812" y="113.38" style="fill: #333333; stroke: #333333; stroke-width: 0.8"/>
      </g>
     </g>
     <g id="text_10">
      <!-- 背书明显有害的请求 -->
      <g style="fill: #333333" transform="translate(36.952812 117.2275) scale(0.095 -0.095)">
       <defs>
        <path id="STHeitiTC-Medium-80cc" d="M 1920 -634 
L 1370 -634 
Q 1389 -429 1398 -224 
Q 1408 -19 1408 224 
L 1408 1683 
Q 1408 1978 1401 2170 
Q 1395 2362 1382 2490 
Q 1491 2483 1622 2476 
Q 1754 2470 1962 2467 
Q 2170 2464 2474 2464 
Q 2778 2464 3226 2464 
Q 3674 2464 3974 2464 
Q 4275 2464 4483 2467 
Q 4691 2470 4832 2476 
Q 4973 2483 5088 2490 
Q 5075 2362 5068 2170 
Q 5062 1978 5062 1683 
L 5062 -141 
Q 5062 -282 5043 -368 
Q 5024 -454 4925 -515 
Q 4826 -576 4618 -621 
Q 4410 -666 4032 -723 
Q 4013 -410 3827 -122 
Q 4058 -134 4198 -128 
Q 4339 -122 4416 -96 
Q 4493 -70 4518 -25 
Q 4544 19 4544 90 
L 4544 352 
L 1920 352 
L 1920 -634 
z
M 4544 2035 
L 1920 2035 
L 1920 1619 
L 4544 1619 
L 4544 2035 
z
M 1920 781 
L 4544 781 
L 4544 1197 
L 1920 1197 
L 1920 781 
z
M 4058 3558 
Q 4058 3456 4070 3398 
Q 4083 3341 4147 3312 
Q 4211 3283 4336 3273 
Q 4461 3264 4691 3264 
Q 4941 3264 5088 3280 
Q 5235 3296 5315 3347 
Q 5395 3398 5433 3494 
Q 5472 3590 5504 3757 
Q 5645 3629 5773 3561 
Q 5901 3494 6048 3462 
Q 5946 3219 5862 3084 
Q 5779 2950 5648 2883 
Q 5517 2816 5299 2800 
Q 5082 2784 4710 2784 
Q 4301 2784 4070 2797 
Q 3840 2810 3728 2854 
Q 3616 2899 3590 2985 
Q 3565 3072 3565 3219 
L 3565 4301 
Q 3565 4435 3561 4563 
Q 3558 4691 3552 4803 
Q 3546 4915 3536 4995 
Q 3526 5075 3520 5107 
Q 3674 5075 3840 5062 
Q 4006 5050 4122 5056 
Q 4205 5062 4211 5033 
Q 4218 5005 4147 4954 
Q 4096 4922 4077 4861 
Q 4058 4800 4058 4755 
L 4058 4358 
Q 4314 4429 4509 4486 
Q 4704 4544 4857 4598 
Q 5011 4653 5126 4704 
Q 5242 4755 5350 4813 
Q 5376 4749 5421 4672 
Q 5466 4595 5517 4518 
Q 5568 4442 5616 4381 
Q 5664 4320 5696 4288 
Q 5862 4147 5619 4173 
Q 5504 4186 5382 4186 
Q 5261 4186 5088 4160 
Q 4915 4134 4668 4086 
Q 4422 4038 4058 3955 
L 4058 3558 
z
M 2266 4448 
Q 2266 4531 2259 4633 
Q 2253 4736 2249 4829 
Q 2246 4922 2240 4998 
Q 2234 5075 2227 5114 
Q 2406 5088 2544 5078 
Q 2682 5069 2810 5082 
Q 2906 5094 2912 5056 
Q 2918 5018 2835 4966 
Q 2797 4941 2781 4829 
Q 2765 4717 2765 4390 
L 2765 3322 
Q 2765 3181 2771 3049 
Q 2778 2918 2790 2778 
L 2234 2778 
Q 2246 2874 2252 2973 
Q 2259 3072 2266 3168 
Q 1946 3098 1696 3043 
Q 1446 2989 1238 2934 
Q 1030 2880 848 2825 
Q 666 2771 480 2707 
Q 467 2835 432 3001 
Q 397 3168 346 3328 
Q 544 3341 742 3357 
Q 941 3373 1165 3398 
Q 1389 3424 1657 3462 
Q 1926 3501 2266 3552 
L 2266 4032 
L 1197 4032 
Q 1005 4032 864 4025 
Q 723 4019 614 4000 
L 614 4486 
Q 736 4467 867 4457 
Q 998 4448 1203 4448 
L 2266 4448 
z
" transform="scale(0.015625)"/>
        <path id="STHeitiTC-Medium-4e66" d="M 5459 3610 
Q 5184 3872 4880 4099 
Q 4576 4326 4262 4512 
L 4634 4896 
Q 5299 4493 5882 4058 
L 5459 3610 
z
M 2496 3354 
Q 2138 3354 1894 3350 
Q 1651 3347 1475 3340 
Q 1299 3334 1158 3324 
Q 1018 3315 877 3302 
L 877 3866 
Q 1165 3840 1552 3827 
Q 1939 3814 2496 3808 
Q 2490 4326 2474 4694 
Q 2458 5062 2426 5203 
Q 2611 5171 2764 5158 
Q 2918 5146 3091 5146 
Q 3200 5146 3219 5110 
Q 3238 5075 3142 5018 
Q 3091 4986 3068 4886 
Q 3046 4787 3046 4544 
L 3046 3808 
Q 3712 3808 4163 3821 
Q 4614 3834 4954 3859 
L 4698 2080 
Q 4947 2086 5190 2096 
Q 5434 2106 5581 2118 
Q 5555 1779 5532 1472 
Q 5510 1165 5491 941 
Q 5459 589 5424 387 
Q 5389 186 5273 67 
Q 5158 -51 4928 -118 
Q 4698 -186 4275 -269 
Q 4256 -128 4169 64 
Q 4083 256 3968 410 
Q 4282 384 4464 387 
Q 4646 390 4742 448 
Q 4838 506 4876 637 
Q 4915 768 4941 1005 
Q 4954 1133 4966 1286 
Q 4979 1440 4992 1613 
L 3046 1613 
L 3046 512 
Q 3046 403 3049 259 
Q 3053 115 3062 -41 
Q 3072 -198 3085 -352 
Q 3098 -506 3110 -640 
L 2438 -640 
Q 2451 -525 2460 -371 
Q 2470 -218 2480 -58 
Q 2490 102 2493 252 
Q 2496 403 2496 512 
L 2496 1613 
Q 2086 1613 1788 1609 
Q 1491 1606 1260 1603 
Q 1030 1600 851 1590 
Q 672 1581 512 1568 
L 512 2112 
Q 685 2099 864 2092 
Q 1043 2086 1267 2083 
Q 1491 2080 1788 2077 
Q 2086 2074 2496 2074 
L 2496 3354 
z
M 4358 3354 
L 3046 3354 
L 3046 2074 
L 4205 2074 
L 4358 3354 
z
" transform="scale(0.015625)"/>
        <path id="STHeitiTC-Medium-660e" d="M 3750 1466 
Q 3712 896 3472 365 
Q 3232 -166 2714 -691 
Q 2586 -563 2458 -473 
Q 2330 -384 2163 -294 
Q 2509 -64 2720 230 
Q 2931 525 3049 838 
Q 3168 1152 3206 1462 
Q 3245 1773 3245 2042 
L 3245 3968 
Q 3245 4262 3238 4454 
Q 3232 4646 3213 4774 
Q 3494 4762 3776 4755 
Q 4058 4749 4448 4749 
Q 4845 4749 5126 4755 
Q 5408 4762 5696 4774 
Q 5670 4646 5664 4454 
Q 5658 4262 5658 3968 
L 5658 -83 
Q 5658 -198 5626 -281 
Q 5594 -365 5485 -432 
Q 5376 -499 5155 -550 
Q 4934 -602 4563 -640 
Q 4550 -486 4486 -313 
Q 4422 -141 4282 6 
Q 4563 -19 4729 -9 
Q 4896 0 4982 38 
Q 5069 77 5094 144 
Q 5120 211 5120 301 
L 5120 1466 
L 3750 1466 
z
M 5120 4275 
L 3763 4275 
L 3763 3328 
L 5120 3328 
L 5120 4275 
z
M 3763 1926 
L 5120 1926 
L 5120 2854 
L 3763 2854 
L 3763 1926 
z
M 2086 4230 
L 1248 4230 
L 1248 3091 
L 2086 3091 
L 2086 4230 
z
M 2086 2637 
L 1248 2637 
L 1248 1414 
L 2086 1414 
L 2086 2637 
z
M 1248 90 
L 698 90 
Q 717 512 717 960 
L 717 4096 
Q 717 4262 717 4441 
Q 717 4621 710 4742 
Q 826 4710 1046 4700 
Q 1267 4691 1664 4691 
Q 2061 4691 2275 4700 
Q 2490 4710 2598 4742 
Q 2586 4621 2582 4441 
Q 2579 4262 2579 4096 
L 2579 1408 
Q 2579 1184 2588 973 
Q 2598 762 2611 557 
L 2086 557 
L 2086 954 
L 1248 954 
L 1248 90 
z
" transform="scale(0.015625)"/>
        <path id="STHeitiTC-Medium-663e" d="M 1798 2829 
L 4883 2829 
L 4883 3373 
L 1798 3373 
L 1798 2829 
z
M 4883 4352 
L 1798 4352 
L 1798 3821 
L 4883 3821 
L 4883 4352 
z
M 2899 115 
L 3654 115 
L 3654 2406 
L 2899 2406 
L 2899 115 
z
M 2387 2406 
Q 2189 2406 2032 2400 
Q 1875 2394 1740 2387 
Q 1606 2381 1484 2371 
Q 1363 2362 1242 2349 
Q 1267 2592 1280 2931 
Q 1293 3270 1286 3622 
Q 1286 3962 1276 4288 
Q 1267 4614 1242 4858 
Q 1434 4838 1645 4828 
Q 1856 4819 2112 4812 
Q 2368 4806 2669 4803 
Q 2970 4800 3347 4800 
Q 3725 4800 4035 4803 
Q 4346 4806 4602 4812 
Q 4858 4819 5069 4828 
Q 5280 4838 5466 4858 
Q 5453 4755 5443 4611 
Q 5434 4467 5427 4304 
Q 5421 4141 5417 3965 
Q 5414 3789 5414 3622 
Q 5408 3277 5421 2928 
Q 5434 2579 5466 2336 
Q 5184 2368 4857 2381 
Q 4531 2394 4166 2400 
L 4166 115 
Q 4442 115 4726 121 
Q 5011 128 5264 137 
Q 5517 147 5715 153 
Q 5914 160 6016 173 
L 6016 -416 
Q 5901 -397 5683 -387 
Q 5466 -378 5117 -371 
Q 4768 -365 4281 -361 
Q 3795 -358 3142 -358 
Q 2483 -358 2022 -361 
Q 1562 -365 1245 -371 
Q 928 -378 726 -390 
Q 525 -403 384 -416 
L 384 173 
Q 518 160 726 150 
Q 934 141 1193 131 
Q 1453 122 1757 118 
Q 2061 115 2387 115 
L 2387 2406 
z
M 5798 1651 
Q 5741 1613 5632 1497 
Q 5523 1382 5392 1222 
Q 5261 1062 5126 870 
Q 4992 678 4877 499 
L 4429 710 
Q 4557 870 4672 1046 
Q 4787 1222 4883 1395 
Q 4979 1568 5049 1728 
Q 5120 1888 5152 2016 
Q 5293 1946 5465 1872 
Q 5638 1798 5786 1760 
Q 5837 1747 5843 1715 
Q 5850 1683 5798 1651 
z
M 1478 563 
Q 1382 883 1228 1193 
Q 1075 1504 832 1830 
L 1331 2061 
Q 1530 1728 1699 1417 
Q 1869 1107 2016 800 
L 1478 563 
z
" transform="scale(0.015625)"/>
        <path id="STHeitiTC-Medium-5bb3" d="M 4621 698 
L 1734 698 
L 1734 77 
L 4621 77 
L 4621 698 
z
M 2976 4557 
Q 2944 4698 2912 4842 
Q 2880 4986 2835 5133 
L 3418 5235 
Q 3450 5062 3494 4902 
Q 3539 4742 3590 4557 
Q 4058 4557 4413 4560 
Q 4768 4563 5040 4566 
Q 5312 4570 5513 4576 
Q 5715 4582 5875 4595 
L 5875 3405 
L 5357 3405 
L 5357 4154 
L 1056 4154 
L 1056 3366 
L 538 3366 
L 538 4595 
Q 698 4582 909 4576 
Q 1120 4570 1411 4566 
Q 1702 4563 2083 4560 
Q 2464 4557 2976 4557 
z
M 2944 1562 
Q 2419 1562 2060 1558 
Q 1702 1555 1427 1552 
Q 1152 1549 918 1539 
Q 685 1530 416 1517 
L 416 1997 
Q 685 1978 918 1968 
Q 1152 1958 1427 1955 
Q 1702 1952 2060 1949 
Q 2419 1946 2944 1946 
L 2944 2362 
Q 2413 2362 1955 2346 
Q 1498 2330 1210 2310 
L 1210 2771 
Q 1498 2752 1955 2739 
Q 2413 2726 2944 2726 
L 2944 3091 
Q 2566 3059 2172 3043 
Q 1779 3027 1485 3021 
Q 1472 3136 1446 3225 
Q 1421 3315 1363 3437 
Q 1747 3418 2153 3424 
Q 2560 3430 2944 3456 
Q 2944 3821 2925 3930 
Q 3072 3917 3200 3907 
Q 3328 3898 3494 3898 
Q 3680 3898 3520 3789 
Q 3469 3757 3453 3705 
Q 3437 3654 3437 3488 
Q 3936 3539 4307 3603 
Q 4678 3667 4826 3738 
Q 4870 3610 4918 3520 
Q 4966 3430 5037 3341 
Q 5094 3270 5072 3228 
Q 5050 3187 4947 3206 
Q 4877 3219 4771 3225 
Q 4666 3232 4490 3222 
Q 4314 3213 4058 3190 
Q 3802 3168 3437 3130 
L 3437 2726 
Q 4000 2726 4451 2736 
Q 4902 2746 5210 2771 
L 5210 2310 
Q 4902 2336 4451 2349 
Q 4000 2362 3437 2362 
L 3437 1946 
Q 3936 1946 4288 1949 
Q 4640 1952 4925 1958 
Q 5210 1965 5456 1974 
Q 5702 1984 5984 1997 
L 5984 1517 
Q 5690 1530 5440 1539 
Q 5190 1549 4908 1552 
Q 4627 1555 4278 1558 
Q 3930 1562 3437 1562 
L 3437 1082 
Q 3744 1082 4019 1085 
Q 4294 1088 4518 1091 
Q 4742 1094 4908 1100 
Q 5075 1107 5165 1114 
Q 5152 1018 5145 906 
Q 5139 794 5139 634 
L 5139 -51 
Q 5139 -205 5148 -365 
Q 5158 -525 5171 -640 
L 4621 -640 
L 4621 -301 
L 1734 -301 
L 1734 -691 
L 1184 -691 
Q 1203 -512 1209 -365 
Q 1216 -218 1216 -51 
L 1216 634 
Q 1216 800 1209 905 
Q 1203 1011 1190 1114 
Q 1280 1107 1446 1100 
Q 1613 1094 1843 1091 
Q 2074 1088 2352 1085 
Q 2630 1082 2944 1082 
L 2944 1562 
z
" transform="scale(0.015625)"/>
        <path id="STHeitiTC-Medium-7684" d="M 4032 1120 
Q 3994 1267 3933 1433 
Q 3872 1600 3798 1760 
Q 3725 1920 3648 2064 
Q 3571 2208 3494 2317 
L 4013 2541 
Q 4064 2413 4131 2265 
Q 4198 2118 4275 1971 
Q 4352 1824 4435 1680 
Q 4518 1536 4595 1414 
L 4032 1120 
z
M 5107 3981 
Q 5293 3981 5501 3997 
Q 5709 4013 5830 4032 
Q 5805 3891 5795 3728 
Q 5786 3565 5779 3398 
L 5645 179 
Q 5638 6 5574 -131 
Q 5510 -269 5369 -374 
Q 5229 -480 4995 -547 
Q 4762 -614 4410 -640 
Q 4390 -467 4300 -265 
Q 4211 -64 4058 70 
Q 4384 32 4585 38 
Q 4787 45 4902 93 
Q 5018 141 5062 233 
Q 5107 326 5114 467 
L 5235 3488 
L 3878 3488 
Q 3770 3174 3654 2937 
Q 3539 2701 3398 2445 
Q 3155 2694 2925 2765 
Q 3200 3130 3417 3702 
Q 3635 4275 3770 5056 
Q 3904 5005 4096 4973 
Q 4288 4941 4435 4947 
Q 4525 4954 4531 4906 
Q 4538 4858 4442 4787 
Q 4371 4736 4262 4512 
Q 4154 4288 4045 3981 
L 5107 3981 
z
M 2304 3469 
L 1152 3469 
L 1152 2342 
L 2304 2342 
L 2304 3469 
z
M 2304 1907 
L 1152 1907 
L 1152 634 
L 2304 634 
L 2304 1907 
z
M 1152 -422 
L 563 -422 
Q 582 -275 592 -156 
Q 602 -38 605 67 
Q 608 173 611 278 
Q 614 384 614 518 
L 614 3379 
Q 614 3526 604 3683 
Q 595 3840 570 3962 
Q 698 3949 870 3939 
Q 1043 3930 1235 3917 
Q 1363 4576 1363 5062 
Q 1517 5024 1709 4998 
Q 1901 4973 2054 4966 
Q 2131 4960 2137 4918 
Q 2144 4877 2067 4806 
Q 2029 4774 1997 4723 
Q 1965 4672 1929 4573 
Q 1894 4474 1849 4317 
Q 1805 4160 1741 3910 
Q 2099 3910 2374 3920 
Q 2650 3930 2893 3962 
Q 2867 3834 2857 3677 
Q 2848 3520 2848 3379 
L 2848 563 
Q 2848 429 2851 320 
Q 2854 211 2860 105 
Q 2867 0 2876 -115 
Q 2886 -230 2899 -371 
L 2304 -371 
L 2304 198 
L 1152 198 
L 1152 -422 
z
" transform="scale(0.015625)"/>
        <path id="STHeitiTC-Medium-8bf7" d="M 5030 1446 
L 5030 1811 
L 3078 1811 
L 3078 1446 
L 5030 1446 
z
M 3718 4205 
Q 3507 4198 3276 4192 
Q 3046 4186 2838 4176 
Q 2630 4166 2464 4156 
Q 2298 4147 2214 4134 
L 2214 4627 
Q 2298 4614 2467 4601 
Q 2637 4589 2841 4579 
Q 3046 4570 3276 4563 
Q 3507 4557 3718 4550 
Q 3718 4794 3715 4931 
Q 3712 5069 3706 5158 
Q 3814 5139 3971 5136 
Q 4128 5133 4243 5146 
Q 4301 5152 4307 5123 
Q 4314 5094 4262 5043 
Q 4230 5011 4217 4944 
Q 4205 4877 4205 4813 
L 4205 4550 
Q 4429 4550 4675 4560 
Q 4922 4570 5152 4579 
Q 5382 4589 5568 4601 
Q 5754 4614 5856 4627 
L 5856 4134 
Q 5754 4147 5568 4156 
Q 5382 4166 5152 4176 
Q 4922 4186 4675 4195 
Q 4429 4205 4205 4205 
L 4205 3776 
Q 4403 3776 4617 3782 
Q 4832 3789 5027 3798 
Q 5222 3808 5385 3821 
Q 5549 3834 5645 3846 
L 5645 3366 
Q 5549 3379 5385 3388 
Q 5222 3398 5027 3408 
Q 4832 3418 4617 3427 
Q 4403 3437 4205 3437 
L 4205 2970 
Q 4454 2970 4739 2976 
Q 5024 2982 5286 2992 
Q 5549 3002 5760 3011 
Q 5971 3021 6080 3034 
L 6080 2547 
Q 5952 2566 5709 2579 
Q 5466 2592 5178 2601 
Q 4890 2611 4592 2614 
Q 4294 2618 4058 2618 
Q 3814 2618 3516 2614 
Q 3219 2611 2928 2601 
Q 2637 2592 2393 2579 
Q 2150 2566 2022 2547 
L 2022 3034 
Q 2118 3021 2310 3011 
Q 2502 3002 2736 2992 
Q 2970 2982 3229 2976 
Q 3488 2970 3718 2970 
L 3718 3437 
Q 3533 3437 3341 3427 
Q 3149 3418 2969 3408 
Q 2790 3398 2646 3388 
Q 2502 3379 2413 3366 
L 2413 3846 
Q 2502 3834 2649 3821 
Q 2797 3808 2973 3798 
Q 3149 3789 3341 3782 
Q 3533 3776 3718 3776 
L 3718 4205 
z
M 3078 352 
L 3078 -653 
L 2547 -653 
Q 2566 -390 2576 -156 
Q 2586 77 2586 262 
L 2586 1645 
Q 2586 1818 2582 1974 
Q 2579 2131 2566 2202 
Q 2656 2195 2829 2192 
Q 3002 2189 3210 2189 
Q 3418 2189 3642 2189 
Q 3866 2189 4051 2189 
Q 4301 2189 4531 2189 
Q 4762 2189 4957 2189 
Q 5152 2189 5299 2192 
Q 5446 2195 5530 2202 
Q 5523 2131 5520 1974 
Q 5517 1818 5517 1645 
L 5517 19 
Q 5517 -205 5497 -333 
Q 5478 -461 5385 -534 
Q 5293 -608 5110 -640 
Q 4928 -672 4602 -698 
Q 4589 -570 4534 -442 
Q 4480 -314 4371 -134 
Q 4582 -154 4710 -150 
Q 4838 -147 4908 -115 
Q 4979 -83 5004 -22 
Q 5030 38 5030 134 
L 5030 352 
L 3078 352 
z
M 5030 723 
L 5030 1088 
L 3078 1088 
L 3078 723 
L 5030 723 
z
M 1632 58 
Q 1504 -70 1382 -208 
Q 1261 -346 1197 -435 
Q 1107 -307 1011 -204 
Q 915 -102 794 0 
Q 909 109 953 253 
Q 998 397 998 659 
L 998 2771 
Q 851 2771 752 2771 
Q 653 2771 579 2764 
Q 506 2758 445 2752 
Q 384 2746 314 2739 
L 314 3283 
Q 448 3264 566 3257 
Q 685 3251 896 3251 
Q 1107 3251 1254 3257 
Q 1402 3264 1536 3283 
Q 1504 3130 1494 2912 
Q 1485 2694 1485 2470 
L 1485 602 
Q 1645 730 1789 874 
Q 1933 1018 2112 1222 
Q 2214 915 2362 762 
L 1632 58 
z
M 1318 3802 
Q 1203 4045 1052 4281 
Q 902 4518 685 4762 
L 1184 5050 
Q 1331 4806 1500 4550 
Q 1670 4294 1830 4090 
L 1318 3802 
z
" transform="scale(0.015625)"/>
        <path id="STHeitiTC-Medium-6c42" d="M 2054 1843 
Q 1946 1958 1786 2096 
Q 1626 2234 1456 2362 
Q 1286 2490 1123 2602 
Q 960 2714 838 2784 
L 1203 3181 
Q 1325 3104 1497 2985 
Q 1670 2867 1846 2736 
Q 2022 2605 2182 2480 
Q 2342 2355 2445 2266 
L 2054 1843 
z
M 4755 4192 
Q 4435 4486 4038 4730 
L 4365 5139 
Q 4570 5024 4774 4883 
Q 4979 4742 5152 4614 
L 4755 4192 
z
M 2477 1888 
Q 2515 1747 2560 1664 
Q 2605 1581 2701 1459 
Q 2061 1043 1581 710 
Q 1101 378 781 128 
Q 634 416 397 678 
Q 653 774 925 908 
Q 1197 1043 1465 1200 
Q 1734 1357 1993 1533 
Q 2253 1709 2477 1888 
z
M 3731 2246 
Q 4147 2541 4400 2800 
Q 4653 3059 4838 3322 
Q 4954 3213 5078 3126 
Q 5203 3040 5370 2950 
Q 5478 2893 5462 2835 
Q 5446 2778 5338 2765 
Q 5280 2758 5193 2723 
Q 5107 2688 4963 2598 
Q 4819 2509 4601 2342 
Q 4384 2176 4070 1907 
L 3731 2246 
z
M 3366 -160 
Q 3366 -301 3344 -384 
Q 3322 -467 3226 -524 
Q 3130 -582 2934 -627 
Q 2739 -672 2394 -730 
Q 2368 -563 2304 -409 
Q 2240 -256 2112 -64 
Q 2342 -77 2480 -73 
Q 2618 -70 2691 -44 
Q 2765 -19 2790 29 
Q 2816 77 2816 160 
L 2816 3629 
Q 2061 3622 1507 3609 
Q 954 3597 525 3565 
L 525 4160 
Q 742 4147 1017 4134 
Q 1293 4122 1593 4112 
Q 1894 4102 2208 4099 
Q 2522 4096 2816 4096 
Q 2816 4371 2816 4553 
Q 2816 4736 2809 4854 
Q 2803 4973 2796 5046 
Q 2790 5120 2784 5184 
Q 3046 5126 3379 5139 
Q 3494 5146 3507 5098 
Q 3520 5050 3430 4992 
Q 3366 4954 3366 4813 
L 3366 4096 
Q 4173 4096 4761 4112 
Q 5350 4128 5798 4160 
L 5798 3565 
Q 5350 3597 4761 3613 
Q 4173 3629 3366 3629 
L 3366 -160 
z
M 3808 1901 
Q 4403 1504 4876 1171 
Q 5350 838 5658 608 
L 5293 154 
Q 4883 512 4457 838 
Q 4032 1165 3526 1530 
L 3808 1901 
z
" transform="scale(0.015625)"/>
       </defs>
       <use xlink:href="#STHeitiTC-Medium-80cc"/>
       <use xlink:href="#STHeitiTC-Medium-4e66" x="99.999985"/>
       <use xlink:href="#STHeitiTC-Medium-660e" x="199.999969"/>
       <use xlink:href="#STHeitiTC-Medium-663e" x="299.999954"/>
       <use xlink:href="#STHeitiTC-Medium-6709" x="399.999939"/>
       <use xlink:href="#STHeitiTC-Medium-5bb3" x="499.999924"/>
       <use xlink:href="#STHeitiTC-Medium-7684" x="599.999908"/>
       <use xlink:href="#STHeitiTC-Medium-8bf7" x="699.999893"/>
       <use xlink:href="#STHeitiTC-Medium-6c42" x="799.999878"/>
      </g>
     </g>
    </g>
    <g id="ytick_4">
     <g id="line2d_18">
      <g>
       <use xlink:href="#m42d90a2b43" x="129.452812" y="70.95043" style="fill: #333333; stroke: #333333; stroke-width: 0.8"/>
      </g>
     </g>
     <g id="text_11">
      <!-- 整体谄媚率（SycEval） -->
      <g style="fill: #333333" transform="translate(21.240703 74.859531) scale(0.095 -0.095)">
       <defs>
        <path id="STHeitiTC-Medium-6574" d="M 2982 1875 
Q 2854 2022 2691 2160 
Q 2528 2298 2368 2394 
L 2675 2643 
Q 2822 2534 2982 2412 
Q 3142 2291 3296 2163 
L 2982 1875 
z
M 2227 3072 
L 2918 3072 
L 2918 3494 
L 2227 3494 
L 2227 3072 
z
M 1824 3494 
L 1120 3494 
L 1120 3072 
L 1824 3072 
L 1824 3494 
z
M 1824 2746 
Q 1581 2304 1318 2038 
Q 1056 1773 755 1587 
Q 653 1709 579 1763 
Q 506 1818 358 1875 
Q 704 2022 982 2246 
Q 1261 2470 1466 2771 
Q 1222 2771 1043 2771 
Q 864 2771 691 2758 
Q 730 2957 730 3251 
Q 730 3411 720 3561 
Q 710 3712 691 3821 
Q 806 3814 924 3808 
Q 1043 3802 1177 3798 
Q 1312 3795 1469 3795 
Q 1626 3795 1824 3795 
L 1824 4186 
Q 1382 4186 1081 4176 
Q 781 4166 538 4141 
L 538 4589 
Q 800 4557 1094 4547 
Q 1389 4538 1824 4538 
Q 1824 4800 1814 4915 
Q 1805 5030 1779 5120 
Q 2048 5082 2234 5101 
Q 2342 5114 2352 5088 
Q 2362 5062 2298 4992 
Q 2266 4960 2246 4838 
Q 2227 4717 2227 4538 
Q 2630 4538 2912 4547 
Q 3194 4557 3430 4576 
L 3430 4141 
Q 3194 4160 2912 4169 
Q 2630 4179 2227 4186 
L 2227 3795 
Q 2611 3795 2864 3801 
Q 3117 3808 3347 3821 
Q 3334 3712 3328 3565 
Q 3322 3418 3322 3251 
Q 3322 3104 3328 2973 
Q 3334 2842 3347 2746 
Q 3123 2758 2867 2764 
Q 2611 2771 2227 2771 
Q 2227 2483 2240 2268 
Q 2253 2054 2285 1875 
L 1766 1875 
Q 1798 2048 1811 2259 
Q 1824 2470 1824 2746 
z
M 4653 2445 
Q 4454 2259 4217 2118 
Q 3981 1978 3706 1856 
Q 3661 1958 3581 2054 
Q 3501 2150 3392 2221 
Q 3987 2432 4346 2733 
Q 4224 2874 4121 3037 
Q 4019 3200 3942 3386 
L 4307 3539 
Q 4429 3238 4614 3014 
Q 4922 3418 5005 3987 
L 4218 3987 
Q 4109 3750 3987 3552 
Q 3866 3354 3731 3162 
Q 3565 3290 3379 3334 
Q 3533 3558 3648 3763 
Q 3763 3968 3846 4179 
Q 3930 4390 3987 4620 
Q 4045 4851 4083 5126 
Q 4230 5075 4368 5040 
Q 4506 5005 4621 4992 
Q 4691 4979 4694 4953 
Q 4698 4928 4614 4858 
Q 4582 4832 4534 4739 
Q 4486 4646 4384 4384 
L 5210 4384 
Q 5478 4384 5651 4393 
Q 5824 4403 5933 4422 
L 5933 3962 
Q 5837 3974 5741 3977 
Q 5645 3981 5478 3987 
Q 5389 3590 5254 3289 
Q 5120 2989 4934 2746 
Q 5139 2618 5404 2534 
Q 5670 2451 6035 2394 
Q 5907 2291 5843 2169 
Q 5779 2048 5728 1875 
Q 5434 1978 5162 2118 
Q 4890 2259 4653 2445 
z
M 3418 13 
Q 3846 13 4198 16 
Q 4550 19 4851 25 
Q 5152 32 5411 41 
Q 5670 51 5907 64 
L 5907 -461 
Q 5658 -448 5382 -438 
Q 5107 -429 4784 -422 
Q 4461 -416 4073 -413 
Q 3686 -410 3219 -410 
Q 2746 -410 2362 -413 
Q 1978 -416 1654 -422 
Q 1331 -429 1056 -438 
Q 781 -448 531 -461 
L 531 64 
Q 774 51 1043 44 
Q 1312 38 1619 26 
L 1619 410 
Q 1619 582 1609 752 
Q 1600 922 1581 1024 
Q 1715 998 1872 992 
Q 2029 986 2106 992 
Q 2253 998 2150 896 
Q 2106 851 2090 755 
Q 2074 659 2074 550 
L 2074 13 
L 2957 13 
L 2957 1338 
Q 2650 1338 2390 1331 
Q 2131 1325 1907 1321 
Q 1683 1318 1491 1308 
Q 1299 1299 1120 1286 
L 1120 1754 
Q 1318 1741 1532 1731 
Q 1747 1722 2000 1718 
Q 2253 1715 2553 1712 
Q 2854 1709 3226 1709 
Q 3597 1709 3897 1712 
Q 4198 1715 4448 1721 
Q 4698 1728 4912 1734 
Q 5126 1741 5325 1754 
L 5325 1286 
Q 5139 1299 4940 1308 
Q 4742 1318 4512 1324 
Q 4282 1331 4013 1334 
Q 3744 1338 3418 1338 
L 3418 902 
Q 3808 902 4077 902 
Q 4346 902 4547 905 
Q 4749 909 4902 912 
Q 5056 915 5216 928 
L 5216 499 
Q 5069 506 4915 512 
Q 4762 518 4560 521 
Q 4358 525 4083 528 
Q 3808 531 3418 531 
L 3418 13 
z
" transform="scale(0.015625)"/>
        <path id="STHeitiTC-Medium-4f53" d="M 1069 2810 
Q 947 2573 828 2358 
Q 710 2144 582 1920 
Q 416 2157 186 2336 
Q 454 2630 678 3043 
Q 902 3456 1043 3904 
Q 1152 4243 1232 4566 
Q 1312 4890 1357 5133 
Q 1523 5069 1712 5017 
Q 1901 4966 2029 4941 
Q 2176 4915 2035 4800 
Q 2016 4787 1984 4732 
Q 1952 4678 1894 4572 
Q 1837 4467 1753 4297 
Q 1670 4128 1562 3885 
L 1562 -685 
L 992 -685 
Q 1024 -352 1046 -13 
Q 1069 326 1069 672 
L 1069 2810 
z
M 3469 3475 
Q 3424 3008 3321 2595 
Q 3219 2182 3049 1798 
Q 2880 1414 2640 1046 
Q 2400 678 2074 307 
Q 1901 563 1677 749 
Q 2195 1216 2553 1897 
Q 2912 2579 3078 3469 
Q 2739 3462 2464 3449 
Q 2189 3437 1952 3418 
L 1952 3974 
Q 2278 3949 2688 3936 
Q 3098 3923 3654 3917 
Q 3654 4192 3651 4387 
Q 3648 4582 3641 4729 
Q 3635 4877 3625 4989 
Q 3616 5101 3597 5210 
Q 3731 5184 3888 5174 
Q 4045 5165 4173 5171 
Q 4378 5184 4211 5043 
Q 4166 5011 4150 4947 
Q 4134 4883 4134 4819 
L 4134 3917 
Q 4730 3917 5165 3929 
Q 5600 3942 5939 3974 
L 5939 3418 
Q 5651 3443 5302 3456 
Q 4954 3469 4499 3475 
Q 4589 3072 4745 2678 
Q 4902 2285 5088 2010 
Q 5312 1683 5597 1427 
Q 5882 1171 6208 1005 
Q 5965 755 5773 397 
Q 5402 723 5098 1084 
Q 4794 1446 4646 1766 
Q 4486 2112 4374 2544 
Q 4262 2976 4192 3475 
L 4134 3475 
L 4134 966 
Q 4390 973 4595 982 
Q 4800 992 4947 1018 
L 4947 499 
Q 4800 518 4595 531 
Q 4390 544 4134 550 
Q 4141 262 4157 -29 
Q 4173 -320 4205 -627 
L 3584 -627 
Q 3616 -320 3632 -29 
Q 3648 262 3654 550 
Q 3354 544 3120 531 
Q 2886 518 2720 499 
L 2720 1018 
Q 2886 992 3120 982 
Q 3354 973 3654 966 
L 3654 3475 
L 3469 3475 
z
" transform="scale(0.015625)"/>
        <path id="STHeitiTC-Medium-8c04" d="M 3142 1536 
Q 3354 1536 3494 1539 
Q 3635 1542 3734 1545 
Q 3834 1549 3904 1558 
Q 3974 1568 4045 1581 
L 4045 1050 
Q 3904 1062 3702 1072 
Q 3501 1082 3142 1082 
L 3142 243 
L 5427 243 
L 5427 1082 
Q 5171 1082 5014 1078 
Q 4858 1075 4762 1072 
Q 4666 1069 4602 1059 
Q 4538 1050 4467 1037 
L 4467 1574 
Q 4589 1562 4685 1555 
Q 4781 1549 4880 1542 
Q 4979 1536 5107 1536 
Q 5235 1536 5427 1536 
L 5427 2266 
Q 5197 2266 5040 2262 
Q 4883 2259 4768 2249 
Q 4653 2240 4566 2227 
Q 4480 2214 4390 2195 
L 4390 2784 
Q 4480 2765 4557 2755 
Q 4634 2746 4723 2742 
Q 4813 2739 4921 2736 
Q 5030 2733 5184 2733 
Q 5427 2733 5593 2742 
Q 5760 2752 5952 2784 
Q 5939 2598 5936 2393 
Q 5933 2189 5933 1856 
L 5933 448 
Q 5933 173 5939 -76 
Q 5946 -326 5958 -595 
L 5427 -595 
L 5427 -186 
L 3142 -186 
L 3142 -710 
L 2579 -710 
Q 2618 -467 2634 -300 
Q 2650 -134 2650 32 
L 2650 1734 
Q 2650 2054 2634 2300 
Q 2618 2547 2592 2675 
Q 2842 2662 3107 2716 
Q 3373 2771 3718 2931 
Q 3731 2874 3763 2800 
Q 3795 2726 3830 2659 
Q 3866 2592 3901 2534 
Q 3936 2477 3962 2445 
Q 4096 2298 3885 2349 
Q 3866 2355 3821 2355 
Q 3776 2355 3728 2355 
Q 3680 2355 3632 2352 
Q 3584 2349 3558 2342 
Q 3469 2330 3360 2310 
Q 3251 2291 3142 2278 
L 3142 1536 
z
M 1690 -6 
Q 1613 -96 1561 -157 
Q 1510 -218 1472 -275 
Q 1434 -333 1398 -397 
Q 1363 -461 1318 -557 
Q 1229 -378 1123 -275 
Q 1018 -173 870 -77 
Q 941 26 992 118 
Q 1043 211 1075 310 
Q 1107 410 1120 522 
Q 1133 634 1133 774 
L 1133 2784 
Q 870 2784 726 2777 
Q 582 2771 435 2752 
L 435 3328 
Q 576 3302 704 3296 
Q 832 3290 1050 3290 
Q 1312 3290 1443 3299 
Q 1574 3309 1709 3328 
Q 1638 3008 1638 2566 
L 1638 589 
Q 1734 710 1801 793 
Q 1869 877 1920 950 
Q 1971 1024 2019 1094 
Q 2067 1165 2131 1267 
Q 2202 1069 2259 969 
Q 2317 870 2406 800 
L 1690 -6 
z
M 3616 4013 
Q 3546 3872 3475 3747 
Q 3405 3622 3325 3494 
Q 3245 3366 3152 3225 
Q 3059 3085 2944 2925 
Q 2842 3034 2726 3091 
Q 2611 3149 2432 3181 
Q 2656 3430 2832 3667 
Q 3008 3904 3139 4150 
Q 3270 4397 3366 4662 
Q 3462 4928 3533 5235 
Q 3744 5165 3885 5129 
Q 4026 5094 4179 5069 
Q 4314 5050 4173 4947 
Q 4154 4934 4118 4896 
Q 4083 4858 4044 4813 
Q 4006 4768 3974 4720 
Q 3942 4672 3923 4634 
Q 3904 4589 3885 4550 
Q 3866 4512 3846 4474 
L 4531 4474 
Q 4742 4474 4902 4477 
Q 5062 4480 5206 4483 
Q 5350 4486 5491 4496 
Q 5632 4506 5798 4518 
L 5043 2982 
L 4531 3174 
L 4973 4013 
L 3616 4013 
z
M 1395 3942 
Q 1299 4198 1193 4422 
Q 1088 4646 934 4915 
L 1466 5171 
Q 1594 4902 1718 4665 
Q 1843 4429 1971 4198 
L 1395 3942 
z
" transform="scale(0.015625)"/>
        <path id="STHeitiTC-Medium-5a9a" d="M 5894 3219 
Q 5824 3232 5651 3241 
Q 5478 3251 5139 3251 
L 3238 3251 
Q 3251 2029 3110 1069 
Q 2970 109 2598 -627 
Q 2566 -582 2518 -528 
Q 2470 -474 2412 -416 
Q 2355 -358 2294 -310 
Q 2234 -262 2189 -230 
Q 2323 -32 2416 163 
Q 2509 358 2579 620 
Q 2650 883 2698 1241 
Q 2746 1600 2790 2125 
Q 2810 2355 2816 2656 
Q 2822 2957 2819 3302 
Q 2816 3648 2803 4025 
Q 2790 4403 2771 4787 
Q 2829 4774 2928 4768 
Q 3027 4762 3209 4758 
Q 3392 4755 3667 4752 
Q 3942 4749 4358 4749 
Q 4774 4749 5046 4749 
Q 5318 4749 5491 4755 
Q 5664 4762 5753 4768 
Q 5843 4774 5894 4787 
L 5894 3219 
z
M 4122 4352 
L 3238 4352 
L 3238 3654 
L 4122 3654 
L 4122 4352 
z
M 4550 3654 
L 5478 3654 
L 5478 4352 
L 4550 4352 
L 4550 3654 
z
M 3974 -595 
L 3520 -595 
Q 3539 -410 3542 -227 
Q 3546 -45 3546 192 
L 3546 2368 
Q 3546 2509 3546 2617 
Q 3546 2726 3539 2816 
Q 3590 2810 3708 2806 
Q 3827 2803 3990 2800 
Q 4154 2797 4349 2793 
Q 4544 2790 4742 2790 
Q 5146 2790 5437 2796 
Q 5728 2803 5837 2816 
Q 5824 2733 5824 2633 
Q 5824 2534 5824 2368 
L 5824 211 
Q 5824 -13 5830 -192 
Q 5837 -371 5856 -570 
L 5395 -570 
L 5395 -147 
L 3974 -147 
L 3974 -595 
z
M 3974 250 
L 5395 250 
L 5395 691 
L 3974 691 
L 3974 250 
z
M 3974 1555 
L 3974 1088 
L 5395 1088 
L 5395 1555 
L 3974 1555 
z
M 5395 1952 
L 5395 2394 
L 3974 2394 
L 3974 1952 
L 5395 1952 
z
M 2067 1101 
Q 2214 1005 2332 915 
Q 2451 826 2579 730 
Q 2362 557 2253 339 
Q 2176 429 2089 518 
Q 2003 608 1894 698 
Q 1715 307 1484 -6 
Q 1254 -320 998 -570 
Q 890 -467 755 -390 
Q 621 -314 506 -275 
Q 1190 211 1549 954 
Q 1389 1056 1184 1177 
Q 979 1299 704 1453 
Q 832 1869 918 2310 
Q 1005 2752 1075 3251 
Q 928 3245 813 3235 
Q 698 3226 589 3206 
L 589 3706 
Q 698 3693 819 3683 
Q 941 3674 1126 3667 
Q 1178 4109 1210 4445 
Q 1242 4781 1254 5094 
Q 1402 5030 1530 5004 
Q 1658 4979 1811 4966 
Q 2048 4954 1830 4819 
Q 1811 4806 1795 4771 
Q 1779 4736 1750 4621 
Q 1722 4506 1680 4282 
Q 1638 4058 1568 3661 
Q 1946 3661 2157 3670 
Q 2368 3680 2509 3706 
Q 2451 3110 2400 2704 
Q 2349 2298 2301 2006 
Q 2253 1715 2198 1507 
Q 2144 1299 2067 1101 
z
M 1498 3258 
Q 1440 2944 1373 2547 
Q 1306 2150 1216 1645 
Q 1363 1555 1481 1484 
Q 1600 1414 1702 1344 
Q 1837 1741 1910 2208 
Q 1984 2675 2003 3258 
L 1498 3258 
z
" transform="scale(0.015625)"/>
        <path id="STHeitiTC-Medium-7387" d="M 2138 3002 
Q 2221 3117 2297 3225 
Q 2374 3334 2451 3456 
Q 2528 3578 2611 3725 
Q 2694 3872 2790 4064 
Q 2918 3981 3030 3923 
Q 3142 3866 3226 3840 
Q 3341 3808 3331 3760 
Q 3322 3712 3194 3693 
Q 3130 3680 3046 3606 
Q 2963 3533 2886 3430 
Q 2810 3328 2717 3222 
Q 2624 3117 2534 3027 
L 3322 3078 
Q 3469 3245 3597 3411 
Q 3725 3578 3808 3706 
Q 3923 3584 4044 3501 
Q 4166 3418 4256 3379 
Q 4346 3341 4336 3289 
Q 4326 3238 4198 3226 
Q 4166 3226 4086 3178 
Q 4006 3130 3900 3056 
Q 3795 2982 3680 2883 
Q 3565 2784 3462 2682 
Q 3283 2496 3062 2297 
Q 2842 2099 2611 1914 
L 3757 1971 
Q 3686 2080 3622 2179 
Q 3558 2278 3501 2349 
L 3885 2586 
Q 4032 2342 4198 2076 
Q 4365 1811 4544 1536 
L 4090 1325 
Q 4058 1395 4022 1468 
Q 3987 1542 3949 1619 
L 3405 1587 
L 3405 954 
Q 4179 954 4848 966 
Q 5517 979 5939 1011 
L 5939 454 
Q 5728 467 5453 480 
Q 5178 493 4851 499 
Q 4525 506 4157 509 
Q 3789 512 3405 512 
Q 3405 378 3411 208 
Q 3418 38 3427 -134 
Q 3437 -307 3446 -470 
Q 3456 -634 3469 -755 
L 2835 -755 
Q 2848 -634 2857 -474 
Q 2867 -314 2876 -141 
Q 2886 32 2889 205 
Q 2893 378 2893 512 
Q 2150 512 1507 496 
Q 864 480 454 454 
L 454 1011 
Q 659 998 960 988 
Q 1261 979 1597 969 
Q 1933 960 2272 957 
Q 2611 954 2899 954 
L 2899 1549 
Q 2630 1530 2400 1498 
Q 2170 1466 2016 1427 
Q 1978 1664 1862 1875 
L 2138 1888 
Q 2285 2022 2486 2217 
Q 2688 2413 2995 2726 
Q 2739 2694 2579 2672 
Q 2419 2650 2320 2634 
Q 2221 2618 2163 2605 
Q 2106 2592 2054 2573 
Q 2042 2662 2010 2787 
Q 1978 2912 1939 2989 
L 2138 3002 
z
M 3014 4557 
Q 2970 4704 2922 4835 
Q 2874 4966 2816 5088 
L 3475 5190 
Q 3488 5030 3507 4873 
Q 3526 4717 3565 4557 
Q 4256 4557 4797 4573 
Q 5338 4589 5786 4621 
L 5786 4051 
Q 5536 4070 5273 4080 
Q 5011 4090 4707 4099 
Q 4403 4109 4035 4112 
Q 3667 4115 3206 4115 
Q 2746 4115 2384 4112 
Q 2022 4109 1718 4099 
Q 1414 4090 1152 4080 
Q 890 4070 627 4051 
L 627 4621 
Q 877 4602 1123 4592 
Q 1370 4582 1651 4572 
Q 1933 4563 2265 4560 
Q 2598 4557 3014 4557 
z
M 5658 3411 
Q 5715 3379 5696 3334 
Q 5677 3290 5574 3296 
Q 5517 3302 5443 3280 
Q 5370 3258 5270 3197 
Q 5171 3136 5033 3024 
Q 4896 2912 4704 2739 
Q 4544 2938 4333 3053 
Q 4582 3219 4822 3433 
Q 5062 3648 5197 3834 
Q 5299 3699 5417 3590 
Q 5536 3482 5658 3411 
z
M 1536 2784 
Q 1350 2995 1187 3145 
Q 1024 3296 826 3443 
L 1171 3795 
Q 1363 3603 1523 3468 
Q 1683 3334 1907 3174 
L 1536 2784 
z
M 5363 1421 
Q 5158 1651 4905 1859 
Q 4653 2067 4410 2227 
L 4774 2611 
Q 4986 2426 5248 2230 
Q 5510 2035 5760 1869 
L 5363 1421 
z
M 1952 2106 
Q 1901 2080 1827 2029 
Q 1754 1978 1642 1885 
Q 1530 1792 1366 1645 
Q 1203 1498 973 1286 
Q 838 1581 653 1824 
Q 800 1882 928 1952 
Q 1056 2022 1181 2112 
Q 1306 2202 1443 2320 
Q 1581 2438 1747 2598 
Q 1766 2464 1814 2349 
Q 1862 2234 1952 2106 
z
" transform="scale(0.015625)"/>
        <path id="STHeitiTC-Medium-53" d="M 2317 4038 
Q 2061 4384 1881 4502 
Q 1702 4621 1462 4621 
Q 1222 4621 1059 4467 
Q 896 4314 896 4074 
Q 896 3834 1049 3654 
Q 1203 3475 1756 3068 
Q 2310 2662 2566 2304 
Q 2822 1946 2822 1549 
Q 2822 1030 2422 649 
Q 2022 269 1491 269 
Q 557 269 26 1312 
L 493 1581 
Q 909 806 1427 806 
Q 1760 806 1997 1017 
Q 2234 1229 2234 1510 
Q 2234 1792 2035 2045 
Q 1837 2298 1350 2666 
Q 864 3034 681 3226 
Q 499 3418 416 3635 
Q 333 3853 333 4070 
Q 333 4538 656 4861 
Q 979 5184 1491 5184 
Q 1888 5184 2182 4982 
Q 2477 4781 2758 4384 
L 2317 4038 
z
" transform="scale(0.015625)"/>
        <path id="STHeitiTC-Medium-79" d="M 3418 3872 
L 1350 -851 
L 800 -851 
L 1472 685 
L 58 3872 
L 608 3872 
L 1754 1318 
L 2861 3872 
L 3418 3872 
z
" transform="scale(0.015625)"/>
        <path id="STHeitiTC-Medium-63" d="M 3853 1094 
Q 3578 691 3133 480 
Q 2688 269 2170 269 
Q 1363 269 822 800 
Q 282 1331 282 2099 
Q 282 2867 826 3414 
Q 1370 3962 2234 3962 
Q 2746 3962 3178 3738 
Q 3610 3514 3853 3110 
L 3437 2848 
Q 2970 3456 2214 3456 
Q 1619 3456 1216 3075 
Q 813 2694 813 2131 
Q 813 1568 1209 1165 
Q 1606 762 2214 762 
Q 2944 762 3443 1376 
L 3853 1094 
z
" transform="scale(0.015625)"/>
        <path id="STHeitiTC-Medium-45" d="M 3245 4525 
L 1069 4525 
L 1069 3181 
L 3226 3181 
L 3226 2643 
L 1069 2643 
L 1069 928 
L 3226 928 
L 3226 384 
L 518 384 
L 518 5069 
L 3245 5069 
L 3245 4525 
z
" transform="scale(0.015625)"/>
        <path id="STHeitiTC-Medium-76" d="M 3430 3872 
L 1837 269 
L 1709 269 
L 102 3872 
L 659 3872 
L 1766 1350 
L 2874 3872 
L 3430 3872 
z
" transform="scale(0.015625)"/>
        <path id="STHeitiTC-Medium-61" d="M 3917 384 
L 3398 384 
L 3398 896 
Q 2829 269 2086 269 
Q 1344 269 816 816 
Q 288 1363 288 2121 
Q 288 2880 819 3421 
Q 1350 3962 2115 3962 
Q 2880 3962 3398 3341 
L 3398 3872 
L 3917 3872 
L 3917 384 
z
M 2125 762 
Q 2656 762 3040 1146 
Q 3424 1530 3424 2102 
Q 3424 2675 3046 3062 
Q 2669 3450 2121 3450 
Q 1574 3450 1196 3050 
Q 819 2650 819 2106 
Q 819 1562 1203 1162 
Q 1587 762 2125 762 
z
" transform="scale(0.015625)"/>
        <path id="STHeitiTC-Medium-6c" d="M 902 384 
L 378 384 
L 378 5184 
L 902 5184 
L 902 384 
z
" transform="scale(0.015625)"/>
       </defs>
       <use xlink:href="#STHeitiTC-Medium-6574"/>
       <use xlink:href="#STHeitiTC-Medium-4f53" x="99.999985"/>
       <use xlink:href="#STHeitiTC-Medium-8c04" x="199.999969"/>
       <use xlink:href="#STHeitiTC-Medium-5a9a" x="299.999954"/>
       <use xlink:href="#STHeitiTC-Medium-7387" x="399.999939"/>
       <use xlink:href="#STHeitiTC-Medium-ff08" x="499.999924"/>
       <use xlink:href="#STHeitiTC-Medium-53" x="599.999908"/>
       <use xlink:href="#STHeitiTC-Medium-79" x="649.799896"/>
       <use xlink:href="#STHeitiTC-Medium-63" x="703.399887"/>
       <use xlink:href="#STHeitiTC-Medium-45" x="768.099884"/>
       <use xlink:href="#STHeitiTC-Medium-76" x="821.699875"/>
       <use xlink:href="#STHeitiTC-Medium-61" x="877.099869"/>
       <use xlink:href="#STHeitiTC-Medium-6c" x="945.399857"/>
       <use xlink:href="#STHeitiTC-Medium-ff09" x="965.399841"/>
      </g>
     </g>
    </g>
    <g id="ytick_5">
     <g id="line2d_19">
      <g>
       <use xlink:href="#m42d90a2b43" x="129.452812" y="28.520859" style="fill: #333333; stroke: #333333; stroke-width: 0.8"/>
      </g>
     </g>
     <g id="text_12">
      <!-- 被反对后从对改错 -->
      <g style="fill: #333333" transform="translate(46.452812 32.368359) scale(0.095 -0.095)">
       <defs>
        <path id="STHeitiTC-Medium-88ab" d="M 1536 4147 
Q 1510 4224 1465 4333 
Q 1421 4442 1369 4554 
Q 1318 4666 1264 4768 
Q 1210 4870 1165 4941 
L 1670 5152 
Q 1760 4966 1878 4764 
Q 1997 4563 2093 4410 
L 1536 4147 
z
M 1568 -563 
L 1024 -563 
Q 1056 -288 1072 -22 
Q 1088 243 1088 493 
L 1088 2022 
Q 915 1850 748 1702 
Q 582 1555 448 1453 
Q 397 1626 349 1754 
Q 301 1882 224 1997 
Q 416 2106 624 2262 
Q 832 2419 1037 2617 
Q 1242 2816 1424 3049 
Q 1606 3283 1754 3546 
Q 1478 3546 1276 3542 
Q 1075 3539 931 3532 
Q 787 3526 688 3516 
Q 589 3507 512 3494 
L 512 4032 
Q 678 4000 915 3990 
Q 1152 3981 1414 3981 
Q 1811 3981 2054 3993 
Q 2298 4006 2477 4032 
Q 2426 3891 2346 3712 
Q 2266 3533 2176 3366 
Q 2086 3200 1926 2985 
Q 1766 2771 1568 2541 
L 1568 2208 
Q 1606 2176 1644 2147 
Q 1683 2118 1722 2086 
Q 1894 2266 2022 2448 
Q 2150 2630 2240 2803 
Q 2310 2714 2403 2624 
Q 2496 2534 2598 2477 
Q 2630 2458 2627 2435 
Q 2624 2413 2573 2400 
Q 2534 2387 2396 2268 
Q 2259 2150 1984 1862 
Q 2138 1722 2266 1584 
Q 2394 1446 2483 1338 
L 2144 960 
Q 2029 1158 1881 1366 
Q 1734 1574 1568 1754 
L 1568 -563 
z
M 4064 2624 
L 4064 3808 
L 3309 3808 
Q 3322 3226 3309 2624 
L 4064 2624 
z
M 3821 2214 
Q 3936 1830 4083 1507 
Q 4230 1184 4378 941 
Q 4589 1229 4713 1536 
Q 4838 1843 4909 2214 
L 3821 2214 
z
M 3296 2214 
Q 3277 1747 3213 1353 
Q 3149 960 3040 611 
Q 2931 262 2764 -45 
Q 2598 -352 2374 -646 
Q 2285 -576 2134 -518 
Q 1984 -461 1862 -435 
Q 2285 38 2534 649 
Q 2784 1261 2816 1920 
Q 2848 2650 2845 3213 
Q 2842 3776 2803 4269 
Q 2989 4250 3270 4240 
Q 3552 4230 4064 4230 
Q 4058 4570 4042 4822 
Q 4026 5075 3994 5203 
Q 4070 5190 4166 5180 
Q 4262 5171 4355 5164 
Q 4448 5158 4528 5158 
Q 4608 5158 4666 5158 
Q 4730 5158 4739 5132 
Q 4749 5107 4691 5069 
Q 4627 5024 4595 4934 
Q 4563 4845 4563 4774 
L 4563 4230 
Q 5037 4230 5408 4240 
Q 5779 4250 6003 4269 
L 5728 3200 
L 5178 3251 
L 5357 3808 
L 4563 3808 
L 4563 2624 
Q 4870 2630 5148 2643 
Q 5427 2656 5568 2669 
Q 5421 1978 5213 1478 
Q 5005 979 4730 602 
Q 4864 486 5008 400 
Q 5152 314 5321 240 
Q 5491 166 5699 105 
Q 5907 45 6176 -13 
Q 6067 -141 5980 -301 
Q 5894 -461 5837 -614 
Q 5587 -518 5392 -425 
Q 5197 -333 5030 -233 
Q 4864 -134 4717 -19 
Q 4570 96 4429 237 
Q 4224 26 3929 -227 
Q 3635 -480 3309 -698 
Q 3238 -602 3084 -496 
Q 2931 -390 2810 -339 
Q 2918 -301 3078 -205 
Q 3238 -109 3417 22 
Q 3597 154 3773 304 
Q 3949 454 4096 602 
Q 3840 909 3664 1315 
Q 3488 1722 3379 2214 
L 3296 2214 
z
" transform="scale(0.015625)"/>
        <path id="STHeitiTC-Medium-53cd" d="M 2682 2656 
Q 2778 2195 3014 1747 
Q 3251 1299 3590 954 
Q 3994 1350 4214 1760 
Q 4435 2170 4531 2656 
L 2682 2656 
z
M 1722 2656 
Q 1722 2048 1674 1593 
Q 1626 1139 1523 768 
Q 1421 397 1251 83 
Q 1082 -230 838 -557 
Q 589 -346 282 -301 
Q 480 -83 633 134 
Q 787 352 896 617 
Q 1005 883 1069 1219 
Q 1133 1555 1158 2006 
Q 1184 2458 1177 3053 
Q 1171 3648 1133 4435 
Q 1427 4416 2003 4451 
Q 2579 4486 3386 4576 
Q 4064 4646 4464 4729 
Q 4864 4813 5094 4902 
Q 5216 4685 5613 4371 
Q 5664 4333 5654 4288 
Q 5645 4243 5581 4243 
Q 5504 4243 5392 4236 
Q 5280 4230 5069 4214 
Q 4858 4198 4502 4163 
Q 4147 4128 3578 4070 
Q 3386 4051 3133 4032 
Q 2880 4013 2617 4000 
Q 2355 3987 2118 3974 
Q 1882 3962 1722 3962 
L 1722 3110 
L 3507 3110 
Q 3968 3110 4265 3113 
Q 4563 3117 4764 3123 
Q 4966 3130 5097 3139 
Q 5229 3149 5344 3162 
Q 5184 2643 5027 2252 
Q 4870 1862 4710 1564 
Q 4550 1267 4377 1040 
Q 4205 813 4013 634 
Q 4435 390 4944 259 
Q 5453 128 6112 96 
Q 6042 26 5990 -67 
Q 5939 -160 5904 -259 
Q 5869 -358 5853 -454 
Q 5837 -550 5850 -621 
Q 5050 -429 4509 -201 
Q 3968 26 3603 282 
Q 3392 109 3203 -19 
Q 3014 -147 2816 -256 
Q 2618 -365 2387 -464 
Q 2157 -563 1850 -678 
Q 1792 -544 1699 -432 
Q 1606 -320 1427 -192 
Q 1734 -102 1987 -16 
Q 2240 70 2454 166 
Q 2669 262 2854 371 
Q 3040 480 3206 608 
Q 3021 800 2857 1040 
Q 2694 1280 2556 1549 
Q 2419 1818 2310 2099 
Q 2202 2381 2138 2656 
L 1722 2656 
z
" transform="scale(0.015625)"/>
        <path id="STHeitiTC-Medium-5bf9" d="M 1971 1139 
Q 1856 934 1718 720 
Q 1581 506 1424 304 
Q 1267 102 1100 -80 
Q 934 -262 774 -403 
Q 582 -154 269 0 
Q 710 326 1043 726 
Q 1376 1126 1645 1683 
Q 1402 2080 1171 2400 
Q 941 2720 755 2893 
L 1184 3174 
Q 1338 2982 1510 2758 
Q 1683 2534 1888 2246 
Q 2029 2624 2125 3024 
Q 2221 3424 2285 3904 
L 1216 3904 
Q 998 3904 835 3897 
Q 672 3891 474 3878 
L 474 4403 
Q 634 4390 765 4380 
Q 896 4371 1030 4368 
Q 1165 4365 1325 4365 
Q 1485 4365 1715 4365 
Q 1946 4365 2102 4365 
Q 2259 4365 2390 4371 
Q 2522 4378 2650 4384 
Q 2778 4390 2944 4403 
Q 2893 4026 2829 3686 
Q 2765 3347 2678 3020 
Q 2592 2694 2486 2374 
Q 2381 2054 2246 1728 
Q 2515 1338 2726 966 
Q 2938 595 3046 326 
L 2515 32 
Q 2426 275 2288 553 
Q 2150 832 1971 1139 
z
M 3763 2605 
Q 3898 2355 4035 2016 
Q 4173 1677 4269 1363 
L 3763 1165 
Q 3731 1299 3680 1459 
Q 3629 1619 3565 1788 
Q 3501 1958 3430 2118 
Q 3360 2278 3290 2406 
L 3763 2605 
z
M 5344 3782 
Q 5491 3782 5600 3782 
Q 5709 3782 5798 3788 
Q 5888 3795 5968 3804 
Q 6048 3814 6131 3827 
L 6131 3277 
Q 5971 3290 5798 3302 
Q 5626 3315 5344 3315 
L 5344 -26 
Q 5344 -173 5289 -285 
Q 5235 -397 5107 -473 
Q 4979 -550 4768 -598 
Q 4557 -646 4243 -666 
Q 4211 -525 4150 -371 
Q 4090 -218 3987 -38 
Q 4250 -58 4410 -48 
Q 4570 -38 4656 -6 
Q 4742 26 4768 80 
Q 4794 134 4794 211 
L 4794 3315 
L 3885 3315 
Q 3565 3315 3385 3305 
Q 3206 3296 3046 3283 
L 3046 3827 
Q 3130 3814 3210 3804 
Q 3290 3795 3386 3792 
Q 3482 3789 3600 3785 
Q 3718 3782 3885 3782 
L 4794 3782 
Q 4794 4365 4787 4707 
Q 4781 5050 4768 5190 
Q 4928 5158 5101 5139 
Q 5274 5120 5402 5126 
Q 5504 5133 5520 5094 
Q 5536 5056 5466 5011 
Q 5389 4960 5366 4921 
Q 5344 4883 5344 4813 
L 5344 3782 
z
" transform="scale(0.015625)"/>
        <path id="STHeitiTC-Medium-540e" d="M 4851 454 
L 4851 1555 
L 2669 1555 
L 2669 454 
L 4851 454 
z
M 2669 -6 
L 2669 -685 
L 2086 -685 
Q 2106 -467 2112 -278 
Q 2118 -90 2118 134 
L 2118 1446 
Q 2118 1619 2112 1779 
Q 2106 1939 2093 2048 
Q 2259 2035 2672 2028 
Q 3085 2022 3750 2022 
Q 4416 2022 4845 2028 
Q 5274 2035 5414 2048 
Q 5395 1958 5388 1798 
Q 5382 1638 5382 1446 
L 5382 173 
Q 5382 -51 5395 -246 
Q 5408 -442 5421 -646 
L 4851 -646 
L 4851 -6 
L 2669 -6 
z
M 1747 2842 
Q 1734 2246 1673 1766 
Q 1613 1286 1507 889 
Q 1402 493 1258 169 
Q 1114 -154 947 -435 
Q 736 -192 358 -115 
Q 781 307 976 1014 
Q 1171 1722 1197 2650 
Q 1203 2925 1200 3209 
Q 1197 3494 1184 3753 
Q 1171 4013 1155 4240 
Q 1139 4467 1120 4634 
Q 1638 4621 2214 4646 
Q 2790 4672 3340 4736 
Q 3891 4800 4374 4889 
Q 4858 4979 5190 5088 
Q 5254 4922 5347 4746 
Q 5440 4570 5510 4480 
Q 5562 4416 5549 4387 
Q 5536 4358 5478 4371 
Q 5357 4390 5136 4384 
Q 4915 4378 4467 4339 
Q 4205 4320 3843 4294 
Q 3482 4269 3098 4249 
Q 2714 4230 2355 4211 
Q 1997 4192 1747 4186 
L 1747 3322 
L 4896 3322 
Q 5229 3322 5529 3334 
Q 5830 3347 6035 3366 
L 6035 2797 
Q 5830 2816 5529 2829 
Q 5229 2842 4896 2842 
L 1747 2842 
z
" transform="scale(0.015625)"/>
        <path id="STHeitiTC-Medium-4ece" d="M 4314 2189 
Q 3910 410 2502 -653 
Q 2400 -512 2259 -406 
Q 2118 -301 1939 -250 
Q 2502 122 2867 493 
Q 3232 864 3453 1283 
Q 3674 1702 3776 2192 
Q 3878 2682 3917 3290 
Q 3962 4019 3952 4454 
Q 3942 4890 3910 5043 
Q 4058 4998 4243 4969 
Q 4429 4941 4678 4928 
Q 4768 4922 4777 4880 
Q 4787 4838 4710 4787 
Q 4640 4736 4569 4425 
Q 4499 4115 4486 3597 
Q 4474 3296 4448 3008 
Q 4563 2336 4694 1875 
Q 4826 1414 5018 1097 
Q 5210 781 5482 573 
Q 5754 365 6138 198 
Q 5990 51 5878 -125 
Q 5766 -301 5696 -486 
Q 5338 -198 5094 70 
Q 4851 339 4694 646 
Q 4538 954 4448 1325 
Q 4358 1696 4314 2189 
z
M 2022 2016 
Q 1856 1280 1561 726 
Q 1267 173 845 -250 
Q 762 -134 592 -6 
Q 422 122 256 179 
Q 589 397 835 659 
Q 1082 922 1254 1277 
Q 1427 1632 1526 2102 
Q 1626 2573 1664 3213 
Q 1709 3936 1699 4339 
Q 1690 4742 1651 4922 
Q 1971 4851 2406 4851 
Q 2496 4851 2509 4816 
Q 2522 4781 2438 4730 
Q 2406 4710 2371 4592 
Q 2336 4474 2307 4301 
Q 2278 4128 2252 3923 
Q 2227 3718 2221 3520 
Q 2189 2989 2125 2528 
Q 2406 2278 2691 1980 
Q 2976 1683 3200 1414 
L 2797 954 
Q 2650 1197 2442 1485 
Q 2234 1773 2022 2016 
z
" transform="scale(0.015625)"/>
        <path id="STHeitiTC-Medium-6539" d="M 3494 3226 
Q 3546 2970 3622 2698 
Q 3699 2426 3792 2173 
Q 3885 1920 3987 1699 
Q 4090 1478 4198 1331 
Q 4352 1683 4461 2275 
Q 4570 2867 4602 3616 
L 3725 3616 
Q 3648 3456 3494 3226 
z
M 3136 2675 
Q 3008 2496 2925 2394 
Q 2867 2522 2796 2678 
Q 2726 2835 2637 2938 
Q 2835 3181 3001 3421 
Q 3168 3661 3296 3926 
Q 3424 4192 3510 4493 
Q 3597 4794 3642 5165 
Q 3795 5101 3961 5059 
Q 4128 5018 4275 4992 
Q 4358 4979 4364 4937 
Q 4371 4896 4262 4845 
Q 4230 4826 4204 4800 
Q 4179 4774 4144 4700 
Q 4109 4627 4061 4486 
Q 4013 4346 3936 4096 
L 5062 4096 
Q 5344 4096 5555 4115 
Q 5766 4134 5920 4166 
L 5920 3578 
Q 5773 3603 5593 3609 
Q 5414 3616 5171 3616 
Q 5114 3021 5056 2598 
Q 4998 2176 4928 1869 
Q 4858 1562 4768 1334 
Q 4678 1107 4557 902 
Q 4864 608 5267 393 
Q 5670 179 6093 109 
Q 5939 -38 5849 -208 
Q 5760 -378 5715 -550 
Q 5530 -474 5331 -365 
Q 5133 -256 4937 -128 
Q 4742 0 4560 144 
Q 4378 288 4224 442 
Q 3930 115 3469 -160 
Q 3008 -435 2336 -653 
Q 2272 -531 2166 -393 
Q 2061 -256 1933 -166 
Q 2266 -90 2541 3 
Q 2816 96 3053 217 
Q 3290 339 3491 496 
Q 3693 653 3878 858 
Q 3661 1171 3472 1616 
Q 3283 2061 3136 2675 
z
M 614 2451 
Q 614 2573 608 2701 
Q 602 2829 589 2912 
Q 653 2906 723 2899 
Q 794 2893 883 2889 
Q 973 2886 1104 2886 
Q 1235 2886 1427 2886 
L 2029 2886 
L 2074 4090 
L 1350 4090 
Q 1094 4090 857 4080 
Q 621 4070 410 4045 
L 410 4602 
Q 659 4589 912 4582 
Q 1165 4576 1510 4576 
Q 1741 4576 1907 4576 
Q 2074 4576 2202 4582 
Q 2330 4589 2429 4592 
Q 2528 4595 2618 4608 
L 2528 2381 
Q 2419 2387 2304 2387 
Q 2189 2387 2010 2387 
L 1139 2387 
L 1139 557 
Q 1434 736 1747 957 
Q 2061 1178 2387 1440 
Q 2362 1274 2406 1098 
Q 2451 922 2502 832 
L 1402 83 
Q 1184 -64 1021 -198 
Q 858 -333 723 -467 
Q 672 -339 566 -192 
Q 461 -45 307 102 
Q 448 166 614 256 
L 614 2451 
z
" transform="scale(0.015625)"/>
       </defs>
       <use xlink:href="#STHeitiTC-Medium-88ab"/>
       <use xlink:href="#STHeitiTC-Medium-53cd" x="99.999985"/>
       <use xlink:href="#STHeitiTC-Medium-5bf9" x="199.999969"/>
       <use xlink:href="#STHeitiTC-Medium-540e" x="299.999954"/>
       <use xlink:href="#STHeitiTC-Medium-4ece" x="399.999939"/>
       <use xlink:href="#STHeitiTC-Medium-5bf9" x="499.999924"/>
       <use xlink:href="#STHeitiTC-Medium-6539" x="599.999908"/>
       <use xlink:href="#STHeitiTC-Medium-9519" x="699.999893"/>
      </g>
     </g>
    </g>
   </g>
   <g id="line2d_20">
    <path d="M 129.452812 219.56 
L 129.452812 7.2 
" clip-path="url(#p7807780197)" style="fill: none; stroke: #cccccc; stroke-width: 0.8; stroke-linecap: square"/>
   </g>
   <g id="patch_3">
    <path d="M 129.452812 219.56 
L 630.892812 219.56 
" style="fill: none; stroke: #000000; stroke-width: 0.8; stroke-linejoin: miter; stroke-linecap: square"/>
   </g>
   <g id="patch_4">
    <path d="M 129.452812 209.907273 
L 541.14411 209.907273 
L 541.14411 186.571009 
L 129.452812 186.571009 
z
" clip-path="url(#p7807780197)" style="fill: #1a56db"/>
   </g>
   <g id="patch_5">
    <path d="M 129.452812 167.477702 
L 475.273502 167.477702 
L 475.273502 144.141439 
L 129.452812 144.141439 
z
" clip-path="url(#p7807780197)" style="fill: #1a56db"/>
   </g>
   <g id="patch_6">
    <path d="M 129.452812 125.048132 
L 516.442632 125.048132 
L 516.442632 101.711868 
L 129.452812 101.711868 
z
" clip-path="url(#p7807780197)" style="fill: #1a56db"/>
   </g>
   <g id="patch_7">
    <path d="M 129.452812 82.618561 
L 607.014717 82.618561 
L 607.014717 59.282298 
L 129.452812 59.282298 
z
" clip-path="url(#p7807780197)" style="fill: #1a56db"/>
   </g>
   <g id="patch_8">
    <path d="M 129.452812 40.188991 
L 252.960202 40.188991 
L 252.960202 16.852727 
L 129.452812 16.852727 
z
" clip-path="url(#p7807780197)" style="fill: #1a56db"/>
   </g>
   <g id="text_13">
    <!-- 50 -->
    <g style="fill: #333333" transform="translate(541.967492 201.455039) scale(0.095 -0.095)">
     <use xlink:href="#STHeitiTC-Medium-35"/>
     <use xlink:href="#STHeitiTC-Medium-30" x="55.399994"/>
    </g>
   </g>
   <g id="text_14">
    <!-- 42 -->
    <g style="fill: #333333" transform="translate(476.096885 159.025469) scale(0.095 -0.095)">
     <use xlink:href="#STHeitiTC-Medium-34"/>
     <use xlink:href="#STHeitiTC-Medium-32" x="55.399994"/>
    </g>
   </g>
   <g id="text_15">
    <!-- 47 -->
    <g style="fill: #333333" transform="translate(517.266014 116.595898) scale(0.095 -0.095)">
     <defs>
      <path id="STHeitiTC-Medium-37" d="M 3443 5069 
L 934 250 
L 480 493 
L 2592 4544 
L 416 4544 
L 416 5069 
L 3443 5069 
z
" transform="scale(0.015625)"/>
     </defs>
     <use xlink:href="#STHeitiTC-Medium-34"/>
     <use xlink:href="#STHeitiTC-Medium-37" x="55.399994"/>
    </g>
   </g>
   <g id="text_16">
    <!-- 58 -->
    <g style="fill: #333333" transform="translate(607.8381 74.166328) scale(0.095 -0.095)">
     <defs>
      <path id="STHeitiTC-Medium-38" d="M 2547 2950 
Q 3373 2522 3373 1747 
Q 3373 1114 2928 691 
Q 2483 269 1763 269 
Q 1043 269 608 691 
Q 173 1114 173 1709 
Q 173 2515 1018 2950 
Q 390 3315 390 3942 
Q 390 4435 800 4809 
Q 1210 5184 1782 5184 
Q 2355 5184 2758 4819 
Q 3162 4454 3162 3930 
Q 3162 3322 2547 2950 
z
M 1792 3181 
Q 2118 3181 2364 3411 
Q 2611 3642 2611 3939 
Q 2611 4237 2380 4445 
Q 2150 4653 1785 4653 
Q 1421 4653 1184 4445 
Q 947 4237 947 3939 
Q 947 3642 1203 3411 
Q 1459 3181 1792 3181 
z
M 1773 794 
Q 2234 794 2528 1069 
Q 2822 1344 2822 1728 
Q 2822 2112 2518 2393 
Q 2214 2675 1782 2675 
Q 1350 2675 1036 2384 
Q 723 2093 723 1699 
Q 723 1306 1014 1050 
Q 1306 794 1773 794 
z
" transform="scale(0.015625)"/>
     </defs>
     <use xlink:href="#STHeitiTC-Medium-35"/>
     <use xlink:href="#STHeitiTC-Medium-38" x="55.399994"/>
    </g>
   </g>
   <g id="text_17">
    <!-- 15 -->
    <g style="fill: #333333" transform="translate(253.783584 31.736758) scale(0.095 -0.095)">
     <use xlink:href="#STHeitiTC-Medium-31"/>
     <use xlink:href="#STHeitiTC-Medium-35" x="55.399994"/>
    </g>
   </g>
  </g>
 </g>
 <defs>
  <clipPath id="p7807780197">
   <rect x="129.452812" y="7.2" width="501.44" height="212.36"/>
  </clipPath>
 </defs>
</svg>
