<?xml version="1.0" encoding="utf-8" standalone="no"?>
<!DOCTYPE svg PUBLIC "-//W3C//DTD SVG 1.1//EN"
  "http://www.w3.org/Graphics/SVG/1.1/DTD/svg11.dtd">
<svg xmlns:xlink="http://www.w3.org/1999/xlink" width="638.353594pt" height="242.456287pt" viewBox="0 0 638.353594 242.456287" xmlns="http://www.w3.org/2000/svg" version="1.1">
 <metadata>
  <rdf:RDF xmlns:dc="http://purl.org/dc/elements/1.1/" xmlns:cc="http://creativecommons.org/ns#" xmlns:rdf="http://www.w3.org/1999/02/22-rdf-syntax-ns#">
   <cc:Work>
    <dc:type rdf:resource="http://purl.org/dc/dcmitype/StillImage"/>
    <dc:date>2026-06-08T08:23:17.156372</dc:date>
    <dc:format>image/svg+xml</dc:format>
    <dc:creator>
     <cc:Agent>
      <dc:title>Matplotlib v3.9.4, https://matplotlib.org/</dc:title>
     </cc:Agent>
    </dc:creator>
   </cc:Work>
  </rdf:RDF>
 </metadata>
 <defs>
  <style type="text/css">*{stroke-linejoin: round; stroke-linecap: butt}</style>
 </defs>
 <g id="figure_1">
  <g id="patch_1">
   <path d="M 0 242.456287 
L 638.353594 242.456287 
L 638.353594 0 
L 0 0 
z
" style="fill: #ffffff"/>
  </g>
  <g id="axes_1">
   <g id="patch_2">
    <path d="M 19.463594 219.298084 
L 631.153594 219.298084 
L 631.153594 25.391834 
L 19.463594 25.391834 
z
" style="fill: #fafafa"/>
   </g>
   <g id="matplotlib.axis_1">
    <g id="xtick_1">
     <g id="line2d_1">
      <defs>
       <path id="mb5637f67bd" d="M 0 0 
L 0 3.5 
" style="stroke: #333333; stroke-width: 0.8"/>
      </defs>
      <g>
       <use xlink:href="#mb5637f67bd" x="90.344445" y="219.298084" style="fill: #333333; stroke: #333333; stroke-width: 0.8"/>
      </g>
     </g>
     <g id="text_1">
      <!-- 社交媒体·操控你看什么 -->
      <g style="fill: #333333" transform="translate(38.094445 233.993084) scale(0.095 -0.095)">
       <defs>
        <path id="STHeitiTC-Medium-793e" d="M 2477 1152 
Q 2374 1402 2265 1616 
Q 2157 1830 2003 2067 
L 2432 2336 
Q 2541 2106 2681 1904 
Q 2822 1702 3002 1485 
L 2477 1152 
z
M 1818 3942 
Q 1734 4179 1612 4409 
Q 1491 4640 1344 4813 
L 1882 5120 
Q 1984 4890 2102 4698 
Q 2221 4506 2387 4282 
L 1818 3942 
z
M 1914 378 
Q 1914 90 1920 -153 
Q 1926 -397 1946 -691 
L 1357 -691 
Q 1376 -397 1382 -153 
Q 1389 90 1389 378 
L 1389 1875 
Q 1222 1683 1024 1472 
Q 826 1261 608 1043 
Q 499 1395 275 1651 
Q 384 1690 557 1818 
Q 730 1946 944 2157 
Q 1158 2368 1401 2662 
Q 1645 2957 1901 3322 
L 1101 3322 
Q 1030 3322 934 3315 
Q 838 3309 742 3299 
Q 646 3290 560 3274 
Q 474 3258 416 3245 
L 416 3872 
Q 608 3840 886 3824 
Q 1165 3808 1587 3808 
Q 2003 3808 2275 3821 
Q 2547 3834 2752 3866 
Q 2682 3718 2582 3542 
Q 2483 3366 2371 3184 
Q 2259 3002 2140 2826 
Q 2022 2650 1914 2509 
L 1914 378 
z
M 4090 2867 
Q 3738 2861 3421 2848 
Q 3104 2835 2918 2803 
L 2918 3418 
Q 3104 3386 3424 3373 
Q 3744 3360 4090 3354 
Q 4090 4230 4074 4659 
Q 4058 5088 4032 5197 
Q 4173 5171 4349 5171 
Q 4525 5171 4691 5171 
Q 4781 5171 4787 5139 
Q 4794 5107 4723 5056 
Q 4685 5024 4659 4963 
Q 4634 4902 4634 4845 
L 4634 3354 
Q 4998 3360 5344 3373 
Q 5690 3386 5875 3418 
L 5875 2803 
Q 5690 2835 5344 2848 
Q 4998 2861 4634 2867 
L 4634 237 
Q 4851 237 5068 243 
Q 5286 250 5481 256 
Q 5677 262 5843 275 
Q 6010 288 6125 301 
L 6125 -326 
Q 5990 -307 5779 -297 
Q 5568 -288 5318 -278 
Q 5069 -269 4800 -265 
Q 4531 -262 4282 -262 
Q 4026 -262 3770 -265 
Q 3514 -269 3277 -278 
Q 3040 -288 2841 -297 
Q 2643 -307 2509 -326 
L 2509 301 
Q 2765 269 3193 256 
Q 3622 243 4090 237 
L 4090 2867 
z
" transform="scale(0.015625)"/>
        <path id="STHeitiTC-Medium-4ea4" d="M 2707 3245 
Q 2829 3194 2813 3152 
Q 2797 3110 2662 3091 
Q 2630 3085 2528 3005 
Q 2426 2925 2317 2816 
Q 2003 2502 1664 2227 
Q 1325 1952 1043 1760 
Q 947 1888 825 1984 
Q 704 2080 570 2144 
Q 832 2285 1072 2454 
Q 1312 2624 1517 2806 
Q 1722 2989 1882 3181 
Q 2042 3373 2144 3565 
Q 2291 3456 2435 3376 
Q 2579 3296 2707 3245 
z
M 5421 1850 
Q 5082 2234 4685 2573 
Q 4288 2912 3917 3174 
L 4307 3539 
Q 4710 3258 5104 2954 
Q 5498 2650 5875 2336 
L 5421 1850 
z
M 5920 3706 
Q 5555 3718 4912 3731 
Q 4269 3744 3283 3744 
Q 2259 3744 1568 3731 
Q 877 3718 608 3699 
L 608 4294 
Q 870 4275 1558 4262 
Q 2246 4250 3296 4250 
Q 5216 4250 5920 4288 
L 5920 3706 
z
M 3040 4320 
Q 2995 4480 2931 4643 
Q 2867 4806 2758 5037 
L 3437 5235 
Q 3488 5050 3555 4854 
Q 3622 4659 3706 4480 
L 3040 4320 
z
M 2778 749 
Q 2650 877 2541 1017 
Q 2432 1158 2329 1328 
Q 2227 1498 2124 1706 
Q 2022 1914 1914 2176 
L 2419 2362 
Q 2605 1926 2793 1619 
Q 2982 1312 3194 1088 
Q 3462 1350 3689 1708 
Q 3917 2067 4032 2426 
Q 4115 2374 4204 2326 
Q 4294 2278 4374 2236 
Q 4454 2195 4521 2166 
Q 4589 2138 4627 2131 
Q 4736 2099 4736 2073 
Q 4736 2048 4621 1978 
Q 4576 1952 4531 1907 
Q 4486 1862 4422 1754 
Q 4294 1549 4073 1277 
Q 3853 1005 3603 749 
Q 3821 595 4048 476 
Q 4275 358 4550 268 
Q 4826 179 5165 124 
Q 5504 70 5946 45 
Q 5805 -141 5715 -310 
Q 5626 -480 5555 -678 
Q 4794 -461 4218 -221 
Q 3642 19 3200 371 
Q 2982 186 2755 32 
Q 2528 -122 2256 -250 
Q 1984 -378 1645 -486 
Q 1306 -595 864 -698 
Q 781 -538 672 -384 
Q 563 -230 448 -109 
Q 1107 -58 1692 172 
Q 2278 403 2778 749 
z
" transform="scale(0.015625)"/>
        <path id="STHeitiTC-Medium-5a92" d="M 1056 3686 
Q 1120 4128 1145 4464 
Q 1171 4800 1171 5069 
Q 1318 5011 1488 4976 
Q 1658 4941 1805 4928 
Q 1901 4922 1907 4896 
Q 1914 4870 1824 4781 
Q 1811 4768 1792 4717 
Q 1773 4666 1741 4541 
Q 1709 4416 1661 4211 
Q 1613 4006 1549 3686 
Q 1914 3693 2118 3705 
Q 2323 3718 2432 3738 
Q 2394 3296 2352 2918 
Q 2310 2541 2256 2221 
Q 2202 1901 2131 1625 
Q 2061 1350 1965 1114 
Q 2118 1005 2278 893 
Q 2438 781 2624 646 
Q 2496 550 2397 448 
Q 2298 346 2214 230 
Q 2106 333 1990 438 
Q 1875 544 1747 653 
Q 1568 333 1318 45 
Q 1069 -243 723 -550 
Q 640 -442 544 -362 
Q 448 -282 262 -192 
Q 614 32 883 313 
Q 1152 595 1357 960 
Q 1005 1216 563 1440 
Q 710 1946 812 2410 
Q 915 2874 986 3258 
Q 762 3251 602 3241 
Q 442 3232 314 3206 
L 314 3731 
Q 422 3712 585 3702 
Q 749 3693 1056 3686 
z
M 1459 3258 
Q 1395 2944 1315 2544 
Q 1235 2144 1133 1638 
Q 1248 1574 1350 1513 
Q 1453 1453 1555 1389 
Q 1702 1773 1788 2230 
Q 1875 2688 1907 3258 
L 1459 3258 
z
M 3520 2650 
L 4877 2650 
L 4877 3181 
L 3520 3181 
L 3520 2650 
z
M 3059 4467 
Q 3046 4819 3008 5056 
Q 3149 5030 3305 5027 
Q 3462 5024 3590 5037 
Q 3667 5050 3670 5008 
Q 3674 4966 3610 4928 
Q 3578 4909 3549 4848 
Q 3520 4787 3520 4666 
L 3520 4461 
L 4877 4461 
Q 4870 4653 4860 4822 
Q 4851 4992 4838 5082 
Q 5094 5030 5395 5062 
Q 5466 5069 5475 5033 
Q 5485 4998 5421 4954 
Q 5325 4890 5325 4691 
L 5325 4461 
Q 5645 4480 5958 4518 
L 5958 4000 
Q 5805 4019 5648 4032 
Q 5491 4045 5325 4051 
L 5325 2227 
Q 5120 2246 4880 2252 
Q 4640 2259 4333 2259 
L 4333 1702 
Q 4896 1702 5299 1715 
Q 5702 1728 6003 1760 
L 6003 1267 
Q 5894 1274 5740 1280 
Q 5587 1286 5411 1289 
Q 5235 1293 5046 1299 
Q 4858 1306 4678 1306 
Q 4992 877 5366 605 
Q 5741 333 6138 224 
Q 5811 -58 5754 -346 
Q 5504 -198 5302 -41 
Q 5101 115 4934 307 
Q 4768 499 4621 742 
Q 4474 986 4333 1306 
L 4333 122 
Q 4333 51 4336 -54 
Q 4339 -160 4345 -272 
Q 4352 -384 4361 -489 
Q 4371 -595 4384 -672 
L 3827 -672 
Q 3859 -512 3868 -333 
Q 3878 -154 3878 6 
L 3878 1075 
Q 3610 614 3293 230 
Q 2976 -154 2573 -506 
Q 2502 -384 2384 -294 
Q 2266 -205 2099 -134 
Q 2566 83 2915 451 
Q 3264 819 3552 1306 
Q 3309 1299 3037 1292 
Q 2765 1286 2528 1267 
L 2528 1760 
Q 2790 1734 3113 1721 
Q 3437 1709 3878 1702 
L 3878 2259 
Q 3616 2253 3424 2246 
Q 3232 2240 3066 2227 
L 3066 4051 
Q 2918 4045 2777 4032 
Q 2637 4019 2502 4000 
L 2502 4518 
Q 2637 4499 2774 4489 
Q 2912 4480 3059 4467 
z
M 3520 3565 
L 4877 3565 
L 4877 4058 
L 3520 4058 
L 3520 3565 
z
" transform="scale(0.015625)"/>
        <path id="STHeitiTC-Medium-4f53" d="M 1069 2810 
Q 947 2573 828 2358 
Q 710 2144 582 1920 
Q 416 2157 186 2336 
Q 454 2630 678 3043 
Q 902 3456 1043 3904 
Q 1152 4243 1232 4566 
Q 1312 4890 1357 5133 
Q 1523 5069 1712 5017 
Q 1901 4966 2029 4941 
Q 2176 4915 2035 4800 
Q 2016 4787 1984 4732 
Q 1952 4678 1894 4572 
Q 1837 4467 1753 4297 
Q 1670 4128 1562 3885 
L 1562 -685 
L 992 -685 
Q 1024 -352 1046 -13 
Q 1069 326 1069 672 
L 1069 2810 
z
M 3469 3475 
Q 3424 3008 3321 2595 
Q 3219 2182 3049 1798 
Q 2880 1414 2640 1046 
Q 2400 678 2074 307 
Q 1901 563 1677 749 
Q 2195 1216 2553 1897 
Q 2912 2579 3078 3469 
Q 2739 3462 2464 3449 
Q 2189 3437 1952 3418 
L 1952 3974 
Q 2278 3949 2688 3936 
Q 3098 3923 3654 3917 
Q 3654 4192 3651 4387 
Q 3648 4582 3641 4729 
Q 3635 4877 3625 4989 
Q 3616 5101 3597 5210 
Q 3731 5184 3888 5174 
Q 4045 5165 4173 5171 
Q 4378 5184 4211 5043 
Q 4166 5011 4150 4947 
Q 4134 4883 4134 4819 
L 4134 3917 
Q 4730 3917 5165 3929 
Q 5600 3942 5939 3974 
L 5939 3418 
Q 5651 3443 5302 3456 
Q 4954 3469 4499 3475 
Q 4589 3072 4745 2678 
Q 4902 2285 5088 2010 
Q 5312 1683 5597 1427 
Q 5882 1171 6208 1005 
Q 5965 755 5773 397 
Q 5402 723 5098 1084 
Q 4794 1446 4646 1766 
Q 4486 2112 4374 2544 
Q 4262 2976 4192 3475 
L 4134 3475 
L 4134 966 
Q 4390 973 4595 982 
Q 4800 992 4947 1018 
L 4947 499 
Q 4800 518 4595 531 
Q 4390 544 4134 550 
Q 4141 262 4157 -29 
Q 4173 -320 4205 -627 
L 3584 -627 
Q 3616 -320 3632 -29 
Q 3648 262 3654 550 
Q 3354 544 3120 531 
Q 2886 518 2720 499 
L 2720 1018 
Q 2886 992 3120 982 
Q 3354 973 3654 966 
L 3654 3475 
L 3469 3475 
z
" transform="scale(0.015625)"/>
        <path id="STHeitiTC-Medium-b7" d="M 1734 1741 
L 928 1741 
L 928 2560 
L 1734 2560 
L 1734 1741 
z
" transform="scale(0.015625)"/>
        <path id="STHeitiTC-Medium-64cd" d="M 3411 2803 
L 2746 2803 
L 2746 2234 
L 3411 2234 
L 3411 2803 
z
M 3808 1843 
Q 3674 1862 3507 1872 
Q 3341 1882 3078 1882 
Q 2816 1882 2640 1872 
Q 2464 1862 2330 1850 
Q 2349 1997 2355 2169 
Q 2362 2342 2355 2534 
Q 2355 2714 2348 2899 
Q 2342 3085 2330 3213 
Q 2464 3194 2640 3184 
Q 2816 3174 3078 3174 
Q 3341 3174 3501 3180 
Q 3661 3187 3808 3213 
Q 3795 3078 3788 2899 
Q 3782 2720 3782 2534 
Q 3782 2349 3788 2163 
Q 3795 1978 3808 1843 
z
M 5350 2803 
L 4608 2803 
L 4608 2234 
L 5350 2234 
L 5350 2803 
z
M 5779 1843 
Q 5632 1862 5453 1872 
Q 5274 1882 4992 1882 
Q 4710 1882 4524 1875 
Q 4339 1869 4192 1850 
Q 4211 1997 4220 2166 
Q 4230 2336 4224 2534 
Q 4224 2707 4214 2899 
Q 4205 3091 4192 3213 
Q 4339 3194 4524 3181 
Q 4710 3168 4992 3168 
Q 5274 3168 5453 3177 
Q 5632 3187 5779 3213 
Q 5760 3085 5753 2902 
Q 5747 2720 5747 2534 
Q 5741 2349 5750 2169 
Q 5760 1990 5779 1843 
z
M 4819 4518 
L 3296 4518 
L 3296 3962 
L 4819 3962 
L 4819 4518 
z
M 5280 3546 
Q 5056 3565 4774 3574 
Q 4493 3584 4045 3584 
Q 3603 3584 3312 3574 
Q 3021 3565 2797 3552 
Q 2822 3706 2828 3878 
Q 2835 4051 2835 4243 
Q 2835 4429 2825 4614 
Q 2816 4800 2797 4928 
Q 3021 4909 3312 4899 
Q 3603 4890 4045 4890 
Q 4493 4890 4771 4899 
Q 5050 4909 5280 4928 
Q 5261 4800 5251 4614 
Q 5242 4429 5242 4243 
Q 5242 4051 5254 3872 
Q 5267 3693 5280 3546 
z
M 3270 979 
Q 2925 973 2621 960 
Q 2317 947 2138 922 
L 2138 1434 
Q 2451 1389 2825 1373 
Q 3200 1357 3738 1357 
Q 3725 1632 3699 1696 
Q 3853 1670 3990 1660 
Q 4128 1651 4205 1664 
Q 4320 1677 4250 1594 
Q 4211 1542 4198 1357 
Q 4755 1357 5145 1373 
Q 5536 1389 5850 1434 
L 5850 922 
Q 5638 941 5299 957 
Q 4960 973 4576 979 
Q 4730 768 4886 611 
Q 5043 454 5216 345 
Q 5389 237 5590 163 
Q 5792 90 6035 38 
Q 5926 -90 5827 -250 
Q 5728 -410 5696 -544 
Q 5446 -442 5238 -307 
Q 5030 -173 4854 6 
Q 4678 186 4524 422 
Q 4371 659 4230 979 
L 4198 979 
L 4198 307 
Q 4198 96 4204 -169 
Q 4211 -435 4243 -704 
L 3693 -704 
Q 3706 -570 3715 -454 
Q 3725 -339 3731 -224 
Q 3738 -109 3741 19 
Q 3744 147 3744 307 
L 3744 979 
L 3642 979 
Q 3462 691 3318 483 
Q 3174 275 3020 112 
Q 2867 -51 2688 -195 
Q 2509 -339 2259 -506 
Q 2163 -403 2080 -320 
Q 1997 -237 1888 -134 
Q 2310 38 2643 313 
Q 2976 589 3270 979 
z
M 1133 3341 
Q 717 3334 454 3283 
L 454 3821 
Q 582 3795 748 3785 
Q 915 3776 1133 3770 
Q 1133 4096 1129 4307 
Q 1126 4518 1120 4659 
Q 1114 4800 1101 4893 
Q 1088 4986 1062 5075 
Q 1235 5056 1356 5049 
Q 1478 5043 1613 5050 
Q 1760 5062 1779 5024 
Q 1798 4986 1709 4883 
Q 1613 4768 1613 4538 
L 1613 3770 
Q 1805 3776 1955 3789 
Q 2106 3802 2227 3821 
L 2227 3283 
Q 2106 3302 1955 3315 
Q 1805 3328 1613 3334 
L 1613 2214 
Q 1779 2266 1907 2310 
Q 2035 2355 2150 2413 
Q 2106 2266 2118 2160 
Q 2131 2054 2182 1933 
Q 2042 1901 1901 1862 
Q 1760 1824 1613 1773 
L 1613 115 
Q 1613 -96 1593 -221 
Q 1574 -346 1484 -419 
Q 1395 -493 1209 -541 
Q 1024 -589 698 -653 
Q 646 -467 585 -332 
Q 525 -198 416 -51 
Q 640 -64 781 -57 
Q 922 -51 998 -19 
Q 1075 13 1104 73 
Q 1133 134 1133 230 
L 1133 1626 
Q 966 1568 803 1510 
Q 640 1453 486 1389 
Q 467 1664 358 1984 
Q 582 2016 774 2045 
Q 966 2074 1133 2106 
L 1133 3341 
z
" transform="scale(0.015625)"/>
        <path id="STHeitiTC-Medium-63a7" d="M 3878 1344 
Q 3488 1344 3136 1325 
Q 2784 1306 2547 1280 
L 2547 1850 
Q 2816 1818 3206 1795 
Q 3597 1773 4102 1773 
Q 4608 1773 4998 1795 
Q 5389 1818 5651 1850 
L 5651 1280 
Q 5427 1306 5100 1325 
Q 4774 1344 4352 1344 
L 4352 147 
Q 4890 147 5299 163 
Q 5709 179 6016 205 
L 6016 -358 
Q 5670 -326 5200 -313 
Q 4730 -301 4096 -301 
Q 2842 -301 2163 -358 
L 2163 205 
Q 2490 179 2909 163 
Q 3328 147 3878 147 
L 3878 1344 
z
M 1210 3411 
Q 954 3411 762 3398 
Q 570 3386 422 3360 
L 422 3898 
Q 576 3878 765 3868 
Q 954 3859 1210 3859 
Q 1210 4384 1187 4669 
Q 1165 4954 1133 5101 
Q 1293 5088 1440 5085 
Q 1587 5082 1722 5088 
Q 1869 5094 1888 5043 
Q 1907 4992 1818 4922 
Q 1766 4877 1734 4771 
Q 1702 4666 1702 4582 
L 1702 3859 
Q 1830 3859 2000 3872 
Q 2170 3885 2278 3898 
L 2278 3360 
Q 2170 3379 2022 3392 
Q 1875 3405 1702 3405 
L 1702 2387 
Q 1850 2458 2000 2541 
Q 2150 2624 2304 2726 
Q 2234 2413 2330 2176 
Q 2170 2112 2013 2045 
Q 1856 1978 1702 1901 
L 1702 -38 
Q 1702 -192 1680 -285 
Q 1658 -378 1565 -445 
Q 1472 -512 1283 -560 
Q 1094 -608 768 -672 
Q 762 -506 720 -336 
Q 678 -166 576 26 
Q 922 -38 1066 13 
Q 1210 64 1210 179 
L 1210 1638 
Q 870 1440 582 1216 
Q 570 1286 547 1376 
Q 525 1466 496 1562 
Q 467 1658 435 1747 
Q 403 1837 378 1907 
Q 608 1971 813 2035 
Q 1018 2099 1210 2170 
L 1210 3411 
z
M 4333 5094 
Q 4384 4922 4419 4749 
Q 4454 4576 4486 4365 
Q 5050 4365 5411 4377 
Q 5773 4390 5978 4422 
L 5978 3347 
L 5466 3347 
L 5466 3942 
L 2938 3942 
L 2938 3251 
L 2445 3251 
L 2445 4422 
Q 2541 4410 2672 4403 
Q 2803 4397 2976 4393 
Q 3149 4390 3373 4387 
Q 3597 4384 3891 4384 
Q 3872 4512 3824 4688 
Q 3776 4864 3725 5030 
L 4333 5094 
z
M 3923 3712 
Q 4000 3712 4019 3680 
Q 4038 3648 3987 3610 
Q 3930 3558 3898 3491 
Q 3866 3424 3840 3315 
Q 3795 3104 3715 2931 
Q 3635 2758 3513 2614 
Q 3392 2470 3219 2345 
Q 3046 2221 2816 2106 
Q 2758 2234 2668 2346 
Q 2579 2458 2451 2528 
Q 2931 2656 3187 2966 
Q 3443 3277 3443 3789 
Q 3520 3757 3657 3734 
Q 3795 3712 3923 3712 
z
M 4480 3309 
Q 4480 3430 4470 3555 
Q 4461 3680 4442 3776 
Q 4557 3750 4707 3740 
Q 4858 3731 4979 3738 
Q 5069 3744 5085 3705 
Q 5101 3667 5030 3616 
Q 4973 3571 4950 3536 
Q 4928 3501 4928 3430 
L 4928 2867 
Q 4928 2771 4973 2736 
Q 5018 2701 5146 2701 
Q 5312 2701 5523 2736 
Q 5734 2771 5888 2829 
Q 5856 2720 5849 2592 
Q 5843 2464 5856 2342 
Q 5715 2310 5548 2300 
Q 5382 2291 5101 2291 
Q 4730 2291 4605 2377 
Q 4480 2464 4480 2669 
L 4480 3309 
z
" transform="scale(0.015625)"/>
        <path id="STHeitiTC-Medium-4f60" d="M 3264 1690 
Q 3206 1658 3098 1318 
Q 3021 1094 2896 793 
Q 2771 493 2573 58 
Q 2458 109 2314 147 
Q 2170 186 2010 218 
Q 2278 589 2470 1033 
Q 2662 1478 2752 2061 
Q 2880 1997 3008 1949 
Q 3136 1901 3238 1869 
Q 3469 1805 3264 1690 
z
M 5549 179 
Q 5453 467 5363 691 
Q 5274 915 5178 1113 
Q 5082 1312 4976 1491 
Q 4870 1670 4742 1862 
L 5229 2112 
Q 5459 1722 5673 1306 
Q 5888 890 6086 442 
L 5549 179 
z
M 4397 2893 
Q 4326 2822 4326 2637 
L 4326 -70 
Q 4326 -243 4304 -345 
Q 4282 -448 4179 -512 
Q 4077 -576 3862 -617 
Q 3648 -659 3258 -704 
Q 3264 -550 3209 -377 
Q 3155 -205 3046 -58 
Q 3277 -90 3430 -86 
Q 3584 -83 3673 -54 
Q 3763 -26 3798 22 
Q 3834 70 3834 134 
L 3834 2054 
Q 3834 2394 3821 2637 
Q 3808 2880 3776 3053 
Q 4064 2982 4326 2995 
Q 4429 3002 4438 2976 
Q 4448 2950 4397 2893 
z
M 1235 2970 
Q 1107 2758 976 2544 
Q 845 2330 678 2086 
Q 608 2214 515 2336 
Q 422 2458 314 2566 
Q 416 2669 544 2832 
Q 672 2995 800 3187 
Q 928 3379 1043 3580 
Q 1158 3782 1248 3968 
Q 1350 4186 1420 4358 
Q 1491 4531 1542 4668 
Q 1594 4806 1629 4928 
Q 1664 5050 1690 5178 
Q 1837 5107 1981 5056 
Q 2125 5005 2291 4966 
Q 2394 4941 2400 4905 
Q 2406 4870 2285 4781 
Q 2259 4762 2217 4707 
Q 2176 4653 2128 4576 
Q 2080 4499 2029 4409 
Q 1978 4320 1933 4237 
Q 1882 4134 1830 4038 
Q 1779 3942 1728 3853 
L 1728 -570 
L 1165 -570 
Q 1178 -429 1190 -269 
Q 1203 -109 1212 54 
Q 1222 218 1228 368 
Q 1235 518 1235 640 
L 1235 2970 
z
M 3232 3590 
Q 3162 3443 3088 3305 
Q 3014 3168 2937 3030 
Q 2861 2893 2774 2745 
Q 2688 2598 2586 2432 
Q 2458 2522 2339 2573 
Q 2221 2624 2080 2650 
Q 2304 2899 2483 3196 
Q 2662 3494 2806 3817 
Q 2950 4141 3059 4470 
Q 3168 4800 3245 5120 
Q 3418 5030 3584 4976 
Q 3750 4922 3891 4896 
Q 3962 4883 3962 4860 
Q 3962 4838 3885 4787 
Q 3859 4768 3808 4694 
Q 3757 4621 3689 4515 
Q 3622 4410 3555 4285 
Q 3488 4160 3437 4038 
Q 4058 4038 4493 4041 
Q 4928 4045 5232 4054 
Q 5536 4064 5731 4080 
Q 5926 4096 6074 4122 
L 5555 2637 
L 5011 2714 
L 5363 3590 
L 3232 3590 
z
" transform="scale(0.015625)"/>
        <path id="STHeitiTC-Medium-770b" d="M 2374 90 
L 4749 90 
L 4749 486 
L 2374 486 
L 2374 90 
z
M 4749 1914 
L 2374 1914 
L 2374 1530 
L 4749 1530 
L 4749 1914 
z
M 2374 819 
L 4749 819 
L 4749 1197 
L 2374 1197 
L 2374 819 
z
M 2758 4301 
Q 2170 4269 1702 4256 
Q 1235 4243 1030 4243 
Q 979 4518 883 4730 
Q 1229 4685 1827 4678 
Q 2426 4672 3142 4704 
Q 3782 4736 4352 4806 
Q 4922 4877 5350 5005 
Q 5363 4954 5395 4883 
Q 5427 4813 5465 4739 
Q 5504 4666 5542 4595 
Q 5581 4525 5613 4480 
Q 5664 4410 5654 4394 
Q 5645 4378 5574 4390 
Q 5472 4410 5254 4419 
Q 5037 4429 4717 4410 
Q 4378 4384 4013 4365 
Q 3648 4346 3283 4326 
Q 3264 4205 3238 4089 
Q 3213 3974 3181 3866 
Q 3827 3866 4355 3882 
Q 4883 3898 5210 3923 
L 5210 3475 
Q 5030 3488 4793 3497 
Q 4557 3507 4278 3513 
Q 4000 3520 3693 3520 
Q 3386 3520 3072 3520 
Q 3034 3418 2992 3315 
Q 2950 3213 2906 3110 
L 4160 3110 
Q 4435 3110 4678 3113 
Q 4922 3117 5146 3123 
Q 5370 3130 5590 3139 
Q 5811 3149 6048 3162 
L 6048 2675 
Q 5811 2688 5590 2697 
Q 5370 2707 5146 2713 
Q 4922 2720 4682 2723 
Q 4442 2726 4173 2726 
L 2720 2726 
Q 2662 2618 2588 2496 
Q 2515 2374 2438 2266 
L 3891 2266 
Q 4307 2266 4684 2282 
Q 5062 2298 5299 2317 
Q 5274 2208 5264 2038 
Q 5254 1869 5254 1734 
L 5254 141 
Q 5254 -83 5267 -265 
Q 5280 -448 5306 -640 
L 4749 -640 
L 4749 -243 
L 2374 -243 
L 2374 -691 
L 1818 -691 
Q 1843 -474 1852 -307 
Q 1862 -141 1862 90 
L 1862 1594 
Q 1651 1389 1398 1184 
Q 1146 979 845 762 
Q 736 883 605 992 
Q 474 1101 346 1178 
Q 947 1459 1414 1868 
Q 1882 2278 2176 2720 
Q 1677 2707 1261 2694 
Q 845 2682 538 2662 
L 538 3149 
Q 890 3130 1357 3120 
Q 1824 3110 2394 3110 
Q 2496 3302 2566 3514 
Q 2131 3501 1827 3488 
Q 1523 3475 1242 3450 
L 1242 3904 
Q 1402 3898 1555 3891 
Q 1709 3885 1875 3878 
Q 2042 3872 2237 3869 
Q 2432 3866 2669 3866 
Q 2694 3974 2716 4083 
Q 2739 4192 2758 4301 
z
" transform="scale(0.015625)"/>
        <path id="STHeitiTC-Medium-4ec0" d="M 4499 3194 
Q 5037 3200 5421 3216 
Q 5805 3232 6112 3251 
L 6112 2624 
Q 5805 2650 5421 2662 
Q 5037 2675 4499 2682 
L 4499 506 
Q 4499 269 4508 3 
Q 4518 -262 4550 -646 
L 3866 -646 
Q 3898 -262 3907 3 
Q 3917 269 3917 506 
L 3917 2682 
Q 3386 2675 3008 2662 
Q 2630 2650 2330 2624 
L 2330 3251 
Q 2637 3232 3017 3216 
Q 3398 3200 3917 3194 
L 3917 4154 
Q 3917 4486 3901 4716 
Q 3885 4947 3840 5133 
Q 4026 5101 4198 5088 
Q 4371 5075 4544 5075 
Q 4666 5075 4685 5043 
Q 4704 5011 4595 4947 
Q 4544 4915 4521 4809 
Q 4499 4704 4499 4474 
L 4499 3194 
z
M 1274 2874 
Q 1126 2598 998 2403 
Q 870 2208 704 1984 
Q 506 2272 282 2394 
Q 467 2605 608 2777 
Q 749 2950 857 3120 
Q 966 3290 1056 3469 
Q 1146 3648 1235 3866 
Q 1350 4160 1456 4473 
Q 1562 4787 1645 5075 
Q 1837 4998 1981 4956 
Q 2125 4915 2253 4890 
Q 2330 4877 2330 4832 
Q 2330 4787 2221 4710 
Q 2202 4691 2176 4662 
Q 2150 4634 2112 4557 
Q 2074 4480 2006 4345 
Q 1939 4211 1830 3987 
L 1830 -685 
L 1197 -685 
Q 1216 -499 1232 -342 
Q 1248 -186 1257 -29 
Q 1267 128 1270 297 
Q 1274 467 1274 691 
L 1274 2874 
z
" transform="scale(0.015625)"/>
        <path id="STHeitiTC-Medium-4e48" d="M 3226 4787 
Q 3366 4768 3206 4685 
Q 3117 4634 3049 4573 
Q 2982 4512 2931 4397 
Q 2861 4250 2800 4134 
Q 2739 4019 2681 3913 
Q 2624 3808 2563 3705 
Q 2502 3603 2432 3494 
Q 2112 2982 1785 2534 
Q 1459 2086 1050 1632 
Q 947 1741 812 1837 
Q 678 1933 525 1984 
Q 666 2080 848 2259 
Q 1030 2438 1222 2672 
Q 1414 2906 1609 3190 
Q 1805 3475 1971 3782 
Q 2157 4096 2288 4419 
Q 2419 4742 2496 5050 
Q 2688 4960 2854 4899 
Q 3021 4838 3226 4787 
z
M 4634 474 
Q 4448 736 4272 963 
Q 4096 1190 3968 1338 
L 4429 1626 
Q 4582 1446 4774 1209 
Q 4966 973 5164 720 
Q 5363 467 5548 220 
Q 5734 -26 5875 -224 
L 5350 -582 
Q 5280 -474 5171 -307 
Q 5062 -141 4934 51 
L 1677 -186 
Q 1466 -198 1251 -252 
Q 1037 -307 902 -365 
Q 896 -51 730 256 
Q 864 262 985 265 
Q 1107 269 1222 275 
Q 1478 480 1753 758 
Q 2029 1037 2297 1357 
Q 2566 1677 2819 2016 
Q 3072 2355 3289 2691 
Q 3507 3027 3670 3337 
Q 3834 3648 3930 3904 
Q 4128 3795 4285 3721 
Q 4442 3648 4563 3610 
Q 4672 3578 4678 3552 
Q 4685 3526 4557 3443 
Q 4506 3411 4445 3347 
Q 4384 3283 4285 3152 
Q 4186 3021 4038 2816 
Q 3891 2611 3674 2304 
Q 3526 2093 3318 1833 
Q 3110 1574 2876 1308 
Q 2643 1043 2393 780 
Q 2144 518 1914 301 
Q 2170 314 2438 330 
Q 2707 346 3027 368 
Q 3347 390 3737 416 
Q 4128 442 4634 474 
z
" transform="scale(0.015625)"/>
       </defs>
       <use xlink:href="#STHeitiTC-Medium-793e"/>
       <use xlink:href="#STHeitiTC-Medium-4ea4" x="99.999985"/>
       <use xlink:href="#STHeitiTC-Medium-5a92" x="199.999969"/>
       <use xlink:href="#STHeitiTC-Medium-4f53" x="299.999954"/>
       <use xlink:href="#STHeitiTC-Medium-b7" x="399.999939"/>
       <use xlink:href="#STHeitiTC-Medium-64cd" x="499.999924"/>
       <use xlink:href="#STHeitiTC-Medium-63a7" x="599.999908"/>
       <use xlink:href="#STHeitiTC-Medium-4f60" x="699.999893"/>
       <use xlink:href="#STHeitiTC-Medium-770b" x="799.999878"/>
       <use xlink:href="#STHeitiTC-Medium-4ec0" x="899.999863"/>
       <use xlink:href="#STHeitiTC-Medium-4e48" x="999.999847"/>
      </g>
     </g>
    </g>
    <g id="xtick_2">
     <g id="line2d_2">
      <g>
       <use xlink:href="#mb5637f67bd" x="246.987211" y="219.298084" style="fill: #333333; stroke: #333333; stroke-width: 0.8"/>
      </g>
     </g>
     <g id="text_2">
      <!-- 社交媒体·代价是你的时间 -->
      <g style="fill: #333333" transform="translate(189.987211 233.993084) scale(0.095 -0.095)">
       <defs>
        <path id="STHeitiTC-Medium-4ee3" d="M 4794 3674 
Q 4672 3917 4544 4128 
Q 4416 4339 4250 4550 
L 4781 4851 
Q 5114 4429 5350 4032 
L 4794 3674 
z
M 3898 2566 
Q 3962 2125 4086 1721 
Q 4211 1318 4380 988 
Q 4550 659 4758 416 
Q 4966 173 5203 58 
Q 5235 38 5270 51 
Q 5306 64 5347 141 
Q 5389 218 5440 384 
Q 5491 550 5562 845 
Q 5658 678 5805 588 
Q 5952 499 6112 474 
Q 6003 122 5920 -99 
Q 5837 -320 5760 -441 
Q 5683 -563 5609 -608 
Q 5536 -653 5453 -653 
Q 5338 -653 5168 -585 
Q 4998 -518 4812 -393 
Q 4627 -269 4448 -83 
Q 4269 102 4134 333 
Q 4006 544 3907 752 
Q 3808 960 3718 1206 
Q 3629 1453 3549 1753 
Q 3469 2054 3392 2451 
Q 3149 2394 2966 2349 
Q 2784 2304 2643 2265 
Q 2502 2227 2393 2195 
Q 2285 2163 2202 2138 
L 2093 2701 
Q 2266 2714 2541 2755 
Q 2816 2797 3309 2912 
Q 3270 3130 3232 3437 
Q 3194 3744 3165 4061 
Q 3136 4378 3117 4666 
Q 3098 4954 3098 5126 
Q 3283 5094 3462 5088 
Q 3642 5082 3782 5094 
Q 3910 5107 3929 5078 
Q 3949 5050 3859 4947 
Q 3814 4902 3785 4806 
Q 3757 4710 3753 4502 
Q 3750 4294 3769 3942 
Q 3789 3590 3840 3034 
L 4346 3155 
Q 4627 3219 4838 3276 
Q 5050 3334 5206 3379 
Q 5363 3424 5475 3462 
Q 5587 3501 5670 3533 
L 5837 2976 
Q 5658 2963 5354 2899 
Q 5050 2835 4493 2707 
L 3898 2566 
z
M 1242 2502 
Q 1114 2259 979 2044 
Q 845 1830 704 1645 
Q 614 1805 515 1929 
Q 416 2054 288 2163 
Q 435 2304 566 2461 
Q 698 2618 813 2810 
Q 928 3002 1037 3238 
Q 1146 3475 1254 3782 
Q 1357 4070 1433 4412 
Q 1510 4755 1542 5030 
Q 1709 4973 1885 4928 
Q 2061 4883 2221 4858 
Q 2336 4838 2339 4800 
Q 2342 4762 2221 4685 
Q 2195 4672 2166 4627 
Q 2138 4582 2090 4476 
Q 2042 4371 1965 4185 
Q 1888 4000 1766 3693 
L 1766 -717 
L 1171 -717 
Q 1210 -371 1226 -80 
Q 1242 211 1242 550 
L 1242 2502 
z
" transform="scale(0.015625)"/>
        <path id="STHeitiTC-Medium-4ef7" d="M 3635 2573 
Q 3603 2528 3571 2326 
Q 3539 2125 3526 1837 
Q 3507 1350 3433 988 
Q 3360 627 3222 332 
Q 3085 38 2870 -214 
Q 2656 -467 2349 -736 
Q 2278 -653 2121 -553 
Q 1965 -454 1773 -358 
Q 2176 -109 2429 166 
Q 2682 442 2822 794 
Q 2963 1146 2995 1606 
Q 3027 2067 2989 2694 
Q 3046 2682 3126 2672 
Q 3206 2662 3292 2659 
Q 3379 2656 3459 2656 
Q 3539 2656 3597 2656 
Q 3667 2662 3670 2643 
Q 3674 2624 3635 2573 
z
M 5107 2579 
Q 5069 2547 5053 2438 
Q 5037 2330 5037 2093 
L 5037 512 
Q 5037 403 5040 256 
Q 5043 109 5052 -51 
Q 5062 -211 5068 -368 
Q 5075 -525 5088 -659 
L 4435 -659 
Q 4442 -544 4454 -387 
Q 4467 -230 4473 -67 
Q 4480 96 4486 249 
Q 4493 403 4493 512 
L 4493 1773 
Q 4493 1933 4486 2086 
Q 4480 2240 4473 2371 
Q 4467 2502 4454 2604 
Q 4442 2707 4435 2765 
Q 4589 2733 4758 2720 
Q 4928 2707 5075 2707 
Q 5165 2707 5181 2675 
Q 5197 2643 5107 2579 
z
M 1114 2624 
Q 1005 2458 883 2291 
Q 762 2125 640 1971 
Q 544 2118 425 2227 
Q 307 2336 186 2406 
Q 288 2490 416 2630 
Q 544 2771 669 2947 
Q 794 3123 909 3318 
Q 1024 3514 1101 3706 
Q 1280 4141 1369 4457 
Q 1459 4774 1491 5069 
Q 1798 4928 2118 4870 
Q 2227 4851 2240 4812 
Q 2253 4774 2144 4678 
Q 2125 4659 2096 4614 
Q 2067 4570 2016 4451 
Q 1965 4333 1878 4128 
Q 1792 3923 1651 3590 
L 1651 -678 
L 1043 -678 
Q 1069 -403 1091 -25 
Q 1114 352 1114 698 
L 1114 2624 
z
M 4026 4352 
Q 3782 3923 3568 3606 
Q 3354 3290 3139 3034 
Q 2925 2778 2697 2557 
Q 2470 2336 2202 2099 
Q 2112 2208 1987 2307 
Q 1862 2406 1728 2483 
Q 1997 2643 2198 2796 
Q 2400 2950 2563 3116 
Q 2726 3283 2867 3475 
Q 3008 3667 3155 3904 
Q 3245 4051 3315 4188 
Q 3386 4326 3443 4476 
Q 3501 4627 3545 4790 
Q 3590 4954 3635 5146 
Q 3686 5120 3779 5085 
Q 3872 5050 3974 5014 
Q 4077 4979 4166 4953 
Q 4256 4928 4307 4922 
Q 4378 4915 4378 4864 
Q 4378 4813 4262 4717 
Q 4486 4077 4953 3638 
Q 5421 3200 6214 2944 
Q 6080 2790 5977 2630 
Q 5875 2470 5824 2323 
Q 5498 2496 5226 2694 
Q 4954 2893 4733 3133 
Q 4512 3373 4336 3673 
Q 4160 3974 4026 4352 
z
" transform="scale(0.015625)"/>
        <path id="STHeitiTC-Medium-662f" d="M 4512 3648 
L 1978 3648 
L 1978 3174 
L 4512 3174 
L 4512 3648 
z
M 5062 2765 
Q 4986 2778 4877 2784 
Q 4768 2790 4566 2796 
Q 4365 2803 4041 2803 
Q 3718 2803 3219 2803 
Q 2720 2803 2413 2800 
Q 2106 2797 1917 2793 
Q 1728 2790 1619 2780 
Q 1510 2771 1414 2758 
Q 1434 2912 1440 3101 
Q 1446 3290 1446 3411 
L 1446 4307 
Q 1446 4486 1440 4646 
Q 1434 4806 1414 4934 
Q 1504 4922 1606 4912 
Q 1709 4902 1901 4899 
Q 2093 4896 2406 4893 
Q 2720 4890 3232 4890 
Q 3718 4890 4032 4893 
Q 4346 4896 4544 4899 
Q 4742 4902 4857 4912 
Q 4973 4922 5062 4934 
Q 5050 4858 5037 4682 
Q 5024 4506 5024 4294 
L 5024 3398 
Q 5024 3283 5033 3097 
Q 5043 2912 5062 2765 
z
M 4512 4506 
L 1978 4506 
L 1978 4032 
L 4512 4032 
L 4512 4506 
z
M 2976 1907 
Q 2541 1907 2176 1904 
Q 1811 1901 1504 1894 
Q 1197 1888 937 1878 
Q 678 1869 448 1856 
L 448 2374 
Q 704 2362 985 2352 
Q 1267 2342 1603 2336 
Q 1939 2330 2336 2326 
Q 2733 2323 3213 2323 
Q 3699 2323 4096 2326 
Q 4493 2330 4829 2336 
Q 5165 2342 5446 2352 
Q 5728 2362 5984 2374 
L 5984 1856 
Q 5754 1869 5498 1878 
Q 5242 1888 4938 1894 
Q 4634 1901 4278 1904 
Q 3923 1907 3501 1907 
L 3501 1312 
Q 4941 1312 5318 1370 
L 5318 864 
Q 5178 883 4707 892 
Q 4237 902 3501 902 
L 3501 45 
Q 3814 19 4147 16 
Q 4480 13 4800 22 
Q 5120 32 5421 61 
Q 5722 90 5978 128 
Q 5862 -70 5836 -227 
Q 5811 -384 5850 -557 
Q 4698 -576 4000 -525 
Q 3302 -474 3053 -397 
Q 2765 -314 2560 -224 
Q 2355 -134 2198 -22 
Q 2042 90 1923 227 
Q 1805 365 1690 557 
Q 1594 358 1507 198 
Q 1421 38 1331 -109 
Q 1242 -256 1146 -393 
Q 1050 -531 934 -678 
Q 691 -416 410 -294 
Q 838 6 1123 483 
Q 1408 960 1587 1645 
Q 1638 1606 1715 1577 
Q 1792 1549 1872 1526 
Q 1952 1504 2025 1494 
Q 2099 1485 2157 1485 
Q 2291 1485 2182 1395 
Q 2112 1325 2045 1222 
Q 1978 1120 1869 915 
Q 2118 563 2403 371 
Q 2688 179 2976 109 
L 2976 1907 
z
" transform="scale(0.015625)"/>
        <path id="STHeitiTC-Medium-7684" d="M 4032 1120 
Q 3994 1267 3933 1433 
Q 3872 1600 3798 1760 
Q 3725 1920 3648 2064 
Q 3571 2208 3494 2317 
L 4013 2541 
Q 4064 2413 4131 2265 
Q 4198 2118 4275 1971 
Q 4352 1824 4435 1680 
Q 4518 1536 4595 1414 
L 4032 1120 
z
M 5107 3981 
Q 5293 3981 5501 3997 
Q 5709 4013 5830 4032 
Q 5805 3891 5795 3728 
Q 5786 3565 5779 3398 
L 5645 179 
Q 5638 6 5574 -131 
Q 5510 -269 5369 -374 
Q 5229 -480 4995 -547 
Q 4762 -614 4410 -640 
Q 4390 -467 4300 -265 
Q 4211 -64 4058 70 
Q 4384 32 4585 38 
Q 4787 45 4902 93 
Q 5018 141 5062 233 
Q 5107 326 5114 467 
L 5235 3488 
L 3878 3488 
Q 3770 3174 3654 2937 
Q 3539 2701 3398 2445 
Q 3155 2694 2925 2765 
Q 3200 3130 3417 3702 
Q 3635 4275 3770 5056 
Q 3904 5005 4096 4973 
Q 4288 4941 4435 4947 
Q 4525 4954 4531 4906 
Q 4538 4858 4442 4787 
Q 4371 4736 4262 4512 
Q 4154 4288 4045 3981 
L 5107 3981 
z
M 2304 3469 
L 1152 3469 
L 1152 2342 
L 2304 2342 
L 2304 3469 
z
M 2304 1907 
L 1152 1907 
L 1152 634 
L 2304 634 
L 2304 1907 
z
M 1152 -422 
L 563 -422 
Q 582 -275 592 -156 
Q 602 -38 605 67 
Q 608 173 611 278 
Q 614 384 614 518 
L 614 3379 
Q 614 3526 604 3683 
Q 595 3840 570 3962 
Q 698 3949 870 3939 
Q 1043 3930 1235 3917 
Q 1363 4576 1363 5062 
Q 1517 5024 1709 4998 
Q 1901 4973 2054 4966 
Q 2131 4960 2137 4918 
Q 2144 4877 2067 4806 
Q 2029 4774 1997 4723 
Q 1965 4672 1929 4573 
Q 1894 4474 1849 4317 
Q 1805 4160 1741 3910 
Q 2099 3910 2374 3920 
Q 2650 3930 2893 3962 
Q 2867 3834 2857 3677 
Q 2848 3520 2848 3379 
L 2848 563 
Q 2848 429 2851 320 
Q 2854 211 2860 105 
Q 2867 0 2876 -115 
Q 2886 -230 2899 -371 
L 2304 -371 
L 2304 198 
L 1152 198 
L 1152 -422 
z
" transform="scale(0.015625)"/>
        <path id="STHeitiTC-Medium-65f6" d="M 3488 1306 
Q 3450 1446 3398 1606 
Q 3347 1766 3289 1926 
Q 3232 2086 3171 2236 
Q 3110 2387 3053 2515 
L 3571 2694 
Q 3597 2560 3648 2406 
Q 3699 2253 3763 2096 
Q 3827 1939 3904 1788 
Q 3981 1638 4058 1510 
L 3488 1306 
z
M 4666 3731 
Q 4666 4301 4650 4646 
Q 4634 4992 4595 5197 
Q 4749 5178 4928 5168 
Q 5107 5158 5216 5165 
Q 5318 5171 5340 5136 
Q 5363 5101 5306 5069 
Q 5235 5030 5212 4969 
Q 5190 4909 5190 4819 
L 5190 3738 
Q 5408 3744 5600 3757 
Q 5792 3770 5958 3782 
L 5958 3194 
Q 5798 3213 5606 3222 
Q 5414 3232 5190 3238 
L 5190 19 
Q 5190 -166 5155 -288 
Q 5120 -410 4998 -483 
Q 4877 -557 4653 -601 
Q 4429 -646 4045 -678 
Q 4006 -288 3776 6 
Q 4064 -13 4240 -9 
Q 4416 -6 4512 16 
Q 4608 38 4637 86 
Q 4666 134 4666 211 
L 4666 3245 
L 3891 3245 
Q 3533 3245 3225 3232 
Q 2918 3219 2682 3194 
L 2682 3782 
Q 2912 3757 3225 3744 
Q 3539 3731 3891 3731 
L 4666 3731 
z
M 2010 4090 
L 979 4090 
L 979 2765 
L 2010 2765 
L 2010 4090 
z
M 2010 2317 
L 979 2317 
L 979 998 
L 2010 998 
L 2010 2317 
z
M 979 -288 
L 442 -288 
Q 474 -26 480 176 
Q 486 378 486 563 
L 486 3885 
Q 486 4051 480 4249 
Q 474 4448 448 4595 
Q 595 4563 835 4553 
Q 1075 4544 1498 4544 
Q 1914 4544 2157 4553 
Q 2400 4563 2541 4595 
Q 2515 4454 2508 4252 
Q 2502 4051 2502 3885 
L 2502 832 
Q 2502 608 2512 419 
Q 2522 230 2547 -13 
L 2010 -13 
L 2010 570 
L 979 570 
L 979 -288 
z
" transform="scale(0.015625)"/>
        <path id="STHeitiTC-Medium-95f4" d="M 1786 3898 
Q 1677 4186 1545 4410 
Q 1414 4634 1229 4851 
L 1741 5114 
Q 1926 4870 2064 4672 
Q 2202 4474 2342 4237 
L 1786 3898 
z
M 5715 4806 
Q 5702 4742 5699 4678 
Q 5696 4614 5693 4528 
Q 5690 4442 5690 4323 
Q 5690 4205 5690 4038 
L 5690 -51 
Q 5690 -256 5670 -371 
Q 5651 -486 5558 -553 
Q 5466 -621 5264 -659 
Q 5062 -698 4698 -742 
Q 4678 -576 4633 -432 
Q 4589 -288 4480 -96 
Q 4723 -128 4860 -134 
Q 4998 -141 5065 -112 
Q 5133 -83 5149 -9 
Q 5165 64 5165 198 
L 5165 4282 
L 3680 4282 
Q 3187 4282 2822 4243 
L 2822 4806 
Q 3206 4781 3539 4774 
Q 3872 4768 4275 4768 
Q 4672 4768 5024 4774 
Q 5376 4781 5715 4806 
z
M 4416 467 
Q 4326 474 4233 480 
Q 4141 486 4009 492 
Q 3878 499 3692 499 
Q 3507 499 3238 499 
Q 2970 499 2784 499 
Q 2598 499 2464 492 
Q 2330 486 2234 480 
Q 2138 474 2048 467 
Q 2061 525 2067 662 
Q 2074 800 2074 934 
L 2074 2950 
Q 2074 3078 2067 3216 
Q 2061 3354 2048 3411 
Q 2138 3398 2234 3395 
Q 2330 3392 2464 3385 
Q 2598 3379 2784 3379 
Q 2970 3379 3238 3379 
Q 3507 3379 3692 3379 
Q 3878 3379 4009 3385 
Q 4141 3392 4233 3395 
Q 4326 3398 4416 3411 
Q 4403 3354 4393 3216 
Q 4384 3078 4384 2950 
L 4384 934 
Q 4384 800 4393 662 
Q 4403 525 4416 467 
z
M 1318 3680 
Q 1280 3635 1280 3488 
L 1280 -678 
L 678 -678 
Q 710 -397 723 -137 
Q 736 122 736 448 
L 736 3117 
Q 736 3347 729 3536 
Q 723 3725 710 3898 
Q 877 3866 1001 3856 
Q 1126 3846 1229 3853 
Q 1472 3872 1318 3680 
z
M 3878 2970 
L 2573 2970 
L 2573 2176 
L 3878 2176 
L 3878 2970 
z
M 3878 1760 
L 2573 1760 
L 2573 934 
L 3878 934 
L 3878 1760 
z
" transform="scale(0.015625)"/>
       </defs>
       <use xlink:href="#STHeitiTC-Medium-793e"/>
       <use xlink:href="#STHeitiTC-Medium-4ea4" x="99.999985"/>
       <use xlink:href="#STHeitiTC-Medium-5a92" x="199.999969"/>
       <use xlink:href="#STHeitiTC-Medium-4f53" x="299.999954"/>
       <use xlink:href="#STHeitiTC-Medium-b7" x="399.999939"/>
       <use xlink:href="#STHeitiTC-Medium-4ee3" x="499.999924"/>
       <use xlink:href="#STHeitiTC-Medium-4ef7" x="599.999908"/>
       <use xlink:href="#STHeitiTC-Medium-662f" x="699.999893"/>
       <use xlink:href="#STHeitiTC-Medium-4f60" x="799.999878"/>
       <use xlink:href="#STHeitiTC-Medium-7684" x="899.999863"/>
       <use xlink:href="#STHeitiTC-Medium-65f6" x="999.999847"/>
       <use xlink:href="#STHeitiTC-Medium-95f4" x="1099.999832"/>
      </g>
     </g>
    </g>
    <g id="xtick_3">
     <g id="line2d_3">
      <g>
       <use xlink:href="#mb5637f67bd" x="403.629977" y="219.298084" style="fill: #333333; stroke: #333333; stroke-width: 0.8"/>
      </g>
     </g>
     <g id="text_3">
      <!-- 谄媚 AI·操控你信什么 -->
      <g style="fill: #333333" transform="translate(355.104273 233.993084) scale(0.095 -0.095)">
       <defs>
        <path id="STHeitiTC-Medium-8c04" d="M 3142 1536 
Q 3354 1536 3494 1539 
Q 3635 1542 3734 1545 
Q 3834 1549 3904 1558 
Q 3974 1568 4045 1581 
L 4045 1050 
Q 3904 1062 3702 1072 
Q 3501 1082 3142 1082 
L 3142 243 
L 5427 243 
L 5427 1082 
Q 5171 1082 5014 1078 
Q 4858 1075 4762 1072 
Q 4666 1069 4602 1059 
Q 4538 1050 4467 1037 
L 4467 1574 
Q 4589 1562 4685 1555 
Q 4781 1549 4880 1542 
Q 4979 1536 5107 1536 
Q 5235 1536 5427 1536 
L 5427 2266 
Q 5197 2266 5040 2262 
Q 4883 2259 4768 2249 
Q 4653 2240 4566 2227 
Q 4480 2214 4390 2195 
L 4390 2784 
Q 4480 2765 4557 2755 
Q 4634 2746 4723 2742 
Q 4813 2739 4921 2736 
Q 5030 2733 5184 2733 
Q 5427 2733 5593 2742 
Q 5760 2752 5952 2784 
Q 5939 2598 5936 2393 
Q 5933 2189 5933 1856 
L 5933 448 
Q 5933 173 5939 -76 
Q 5946 -326 5958 -595 
L 5427 -595 
L 5427 -186 
L 3142 -186 
L 3142 -710 
L 2579 -710 
Q 2618 -467 2634 -300 
Q 2650 -134 2650 32 
L 2650 1734 
Q 2650 2054 2634 2300 
Q 2618 2547 2592 2675 
Q 2842 2662 3107 2716 
Q 3373 2771 3718 2931 
Q 3731 2874 3763 2800 
Q 3795 2726 3830 2659 
Q 3866 2592 3901 2534 
Q 3936 2477 3962 2445 
Q 4096 2298 3885 2349 
Q 3866 2355 3821 2355 
Q 3776 2355 3728 2355 
Q 3680 2355 3632 2352 
Q 3584 2349 3558 2342 
Q 3469 2330 3360 2310 
Q 3251 2291 3142 2278 
L 3142 1536 
z
M 1690 -6 
Q 1613 -96 1561 -157 
Q 1510 -218 1472 -275 
Q 1434 -333 1398 -397 
Q 1363 -461 1318 -557 
Q 1229 -378 1123 -275 
Q 1018 -173 870 -77 
Q 941 26 992 118 
Q 1043 211 1075 310 
Q 1107 410 1120 522 
Q 1133 634 1133 774 
L 1133 2784 
Q 870 2784 726 2777 
Q 582 2771 435 2752 
L 435 3328 
Q 576 3302 704 3296 
Q 832 3290 1050 3290 
Q 1312 3290 1443 3299 
Q 1574 3309 1709 3328 
Q 1638 3008 1638 2566 
L 1638 589 
Q 1734 710 1801 793 
Q 1869 877 1920 950 
Q 1971 1024 2019 1094 
Q 2067 1165 2131 1267 
Q 2202 1069 2259 969 
Q 2317 870 2406 800 
L 1690 -6 
z
M 3616 4013 
Q 3546 3872 3475 3747 
Q 3405 3622 3325 3494 
Q 3245 3366 3152 3225 
Q 3059 3085 2944 2925 
Q 2842 3034 2726 3091 
Q 2611 3149 2432 3181 
Q 2656 3430 2832 3667 
Q 3008 3904 3139 4150 
Q 3270 4397 3366 4662 
Q 3462 4928 3533 5235 
Q 3744 5165 3885 5129 
Q 4026 5094 4179 5069 
Q 4314 5050 4173 4947 
Q 4154 4934 4118 4896 
Q 4083 4858 4044 4813 
Q 4006 4768 3974 4720 
Q 3942 4672 3923 4634 
Q 3904 4589 3885 4550 
Q 3866 4512 3846 4474 
L 4531 4474 
Q 4742 4474 4902 4477 
Q 5062 4480 5206 4483 
Q 5350 4486 5491 4496 
Q 5632 4506 5798 4518 
L 5043 2982 
L 4531 3174 
L 4973 4013 
L 3616 4013 
z
M 1395 3942 
Q 1299 4198 1193 4422 
Q 1088 4646 934 4915 
L 1466 5171 
Q 1594 4902 1718 4665 
Q 1843 4429 1971 4198 
L 1395 3942 
z
" transform="scale(0.015625)"/>
        <path id="STHeitiTC-Medium-5a9a" d="M 5894 3219 
Q 5824 3232 5651 3241 
Q 5478 3251 5139 3251 
L 3238 3251 
Q 3251 2029 3110 1069 
Q 2970 109 2598 -627 
Q 2566 -582 2518 -528 
Q 2470 -474 2412 -416 
Q 2355 -358 2294 -310 
Q 2234 -262 2189 -230 
Q 2323 -32 2416 163 
Q 2509 358 2579 620 
Q 2650 883 2698 1241 
Q 2746 1600 2790 2125 
Q 2810 2355 2816 2656 
Q 2822 2957 2819 3302 
Q 2816 3648 2803 4025 
Q 2790 4403 2771 4787 
Q 2829 4774 2928 4768 
Q 3027 4762 3209 4758 
Q 3392 4755 3667 4752 
Q 3942 4749 4358 4749 
Q 4774 4749 5046 4749 
Q 5318 4749 5491 4755 
Q 5664 4762 5753 4768 
Q 5843 4774 5894 4787 
L 5894 3219 
z
M 4122 4352 
L 3238 4352 
L 3238 3654 
L 4122 3654 
L 4122 4352 
z
M 4550 3654 
L 5478 3654 
L 5478 4352 
L 4550 4352 
L 4550 3654 
z
M 3974 -595 
L 3520 -595 
Q 3539 -410 3542 -227 
Q 3546 -45 3546 192 
L 3546 2368 
Q 3546 2509 3546 2617 
Q 3546 2726 3539 2816 
Q 3590 2810 3708 2806 
Q 3827 2803 3990 2800 
Q 4154 2797 4349 2793 
Q 4544 2790 4742 2790 
Q 5146 2790 5437 2796 
Q 5728 2803 5837 2816 
Q 5824 2733 5824 2633 
Q 5824 2534 5824 2368 
L 5824 211 
Q 5824 -13 5830 -192 
Q 5837 -371 5856 -570 
L 5395 -570 
L 5395 -147 
L 3974 -147 
L 3974 -595 
z
M 3974 250 
L 5395 250 
L 5395 691 
L 3974 691 
L 3974 250 
z
M 3974 1555 
L 3974 1088 
L 5395 1088 
L 5395 1555 
L 3974 1555 
z
M 5395 1952 
L 5395 2394 
L 3974 2394 
L 3974 1952 
L 5395 1952 
z
M 2067 1101 
Q 2214 1005 2332 915 
Q 2451 826 2579 730 
Q 2362 557 2253 339 
Q 2176 429 2089 518 
Q 2003 608 1894 698 
Q 1715 307 1484 -6 
Q 1254 -320 998 -570 
Q 890 -467 755 -390 
Q 621 -314 506 -275 
Q 1190 211 1549 954 
Q 1389 1056 1184 1177 
Q 979 1299 704 1453 
Q 832 1869 918 2310 
Q 1005 2752 1075 3251 
Q 928 3245 813 3235 
Q 698 3226 589 3206 
L 589 3706 
Q 698 3693 819 3683 
Q 941 3674 1126 3667 
Q 1178 4109 1210 4445 
Q 1242 4781 1254 5094 
Q 1402 5030 1530 5004 
Q 1658 4979 1811 4966 
Q 2048 4954 1830 4819 
Q 1811 4806 1795 4771 
Q 1779 4736 1750 4621 
Q 1722 4506 1680 4282 
Q 1638 4058 1568 3661 
Q 1946 3661 2157 3670 
Q 2368 3680 2509 3706 
Q 2451 3110 2400 2704 
Q 2349 2298 2301 2006 
Q 2253 1715 2198 1507 
Q 2144 1299 2067 1101 
z
M 1498 3258 
Q 1440 2944 1373 2547 
Q 1306 2150 1216 1645 
Q 1363 1555 1481 1484 
Q 1600 1414 1702 1344 
Q 1837 1741 1910 2208 
Q 1984 2675 2003 3258 
L 1498 3258 
z
" transform="scale(0.015625)"/>
        <path id="STHeitiTC-Medium-20" transform="scale(0.015625)"/>
        <path id="STHeitiTC-Medium-41" d="M 4646 384 
L 4064 384 
L 3341 1952 
L 1408 1952 
L 691 384 
L 83 384 
L 2298 5254 
L 2464 5254 
L 4646 384 
z
M 3091 2509 
L 2381 4090 
L 1664 2509 
L 3091 2509 
z
" transform="scale(0.015625)"/>
        <path id="STHeitiTC-Medium-49" d="M 998 384 
L 448 384 
L 448 5069 
L 998 5069 
L 998 384 
z
" transform="scale(0.015625)"/>
        <path id="STHeitiTC-Medium-4fe1" d="M 5107 1075 
L 3027 1075 
L 3027 314 
L 5107 314 
L 5107 1075 
z
M 3027 -666 
L 2470 -666 
Q 2496 -525 2505 -397 
Q 2515 -269 2515 -102 
L 2515 1018 
Q 2515 1203 2505 1334 
Q 2496 1466 2470 1581 
Q 2541 1568 2656 1558 
Q 2771 1549 2956 1539 
Q 3142 1530 3414 1526 
Q 3686 1523 4064 1523 
Q 4474 1523 4749 1526 
Q 5024 1530 5203 1539 
Q 5382 1549 5488 1558 
Q 5594 1568 5664 1581 
Q 5645 1459 5632 1321 
Q 5619 1184 5619 1018 
L 5619 32 
Q 5619 -275 5664 -538 
L 5107 -538 
L 5107 -134 
L 3027 -134 
L 3027 -666 
z
M 1709 -678 
L 1107 -678 
Q 1146 -397 1165 -109 
Q 1184 179 1184 538 
L 1184 2784 
Q 1088 2618 973 2445 
Q 858 2272 710 2061 
Q 653 2208 557 2320 
Q 461 2432 326 2528 
Q 461 2675 573 2819 
Q 685 2963 781 3123 
Q 877 3283 963 3462 
Q 1050 3642 1133 3853 
Q 1254 4160 1353 4499 
Q 1453 4838 1504 5126 
Q 1670 5037 1801 4989 
Q 1933 4941 2080 4915 
Q 2195 4896 2204 4857 
Q 2214 4819 2112 4749 
Q 2093 4736 2077 4713 
Q 2061 4691 2038 4652 
Q 2016 4614 1987 4547 
Q 1958 4480 1914 4378 
Q 1856 4237 1808 4112 
Q 1760 3987 1709 3878 
L 1709 -678 
z
M 5715 1997 
Q 5408 2022 5021 2035 
Q 4634 2048 4064 2048 
Q 3501 2048 3110 2035 
Q 2720 2022 2419 1997 
L 2419 2541 
Q 2726 2515 3116 2502 
Q 3507 2490 4064 2490 
Q 4634 2490 5021 2502 
Q 5408 2515 5715 2541 
L 5715 1997 
z
M 5683 2880 
Q 5389 2906 5005 2918 
Q 4621 2931 4064 2931 
Q 3514 2931 3130 2921 
Q 2746 2912 2451 2880 
L 2451 3424 
Q 2752 3392 3133 3382 
Q 3514 3373 4064 3373 
Q 4621 3373 5001 3385 
Q 5382 3398 5683 3424 
L 5683 2880 
z
M 6067 3789 
Q 5702 3808 5244 3824 
Q 4787 3840 4122 3840 
Q 3462 3840 3001 3827 
Q 2541 3814 2182 3789 
L 2182 4352 
Q 2547 4320 3004 4304 
Q 3462 4288 4122 4288 
Q 4781 4288 5245 4304 
Q 5709 4320 6067 4352 
L 6067 3789 
z
M 3846 4384 
Q 3814 4544 3756 4717 
Q 3699 4890 3629 5037 
L 4314 5203 
Q 4378 5056 4442 4899 
Q 4506 4742 4563 4589 
L 3846 4384 
z
" transform="scale(0.015625)"/>
       </defs>
       <use xlink:href="#STHeitiTC-Medium-8c04"/>
       <use xlink:href="#STHeitiTC-Medium-5a9a" x="99.999985"/>
       <use xlink:href="#STHeitiTC-Medium-20" x="199.999969"/>
       <use xlink:href="#STHeitiTC-Medium-41" x="224.999954"/>
       <use xlink:href="#STHeitiTC-Medium-49" x="298.999939"/>
       <use xlink:href="#STHeitiTC-Medium-b7" x="321.59993"/>
       <use xlink:href="#STHeitiTC-Medium-64cd" x="421.599915"/>
       <use xlink:href="#STHeitiTC-Medium-63a7" x="521.599899"/>
       <use xlink:href="#STHeitiTC-Medium-4f60" x="621.599884"/>
       <use xlink:href="#STHeitiTC-Medium-4fe1" x="721.599869"/>
       <use xlink:href="#STHeitiTC-Medium-4ec0" x="821.599854"/>
       <use xlink:href="#STHeitiTC-Medium-4e48" x="921.599838"/>
      </g>
     </g>
    </g>
    <g id="xtick_4">
     <g id="line2d_4">
      <g>
       <use xlink:href="#mb5637f67bd" x="560.272742" y="219.298084" style="fill: #333333; stroke: #333333; stroke-width: 0.8"/>
      </g>
     </g>
     <g id="text_4">
      <!-- 谄媚 AI·代价是你的判断 -->
      <g style="fill: #333333" transform="translate(506.997039 233.993084) scale(0.095 -0.095)">
       <defs>
        <path id="STHeitiTC-Medium-5224" d="M 5766 4826 
Q 5734 4794 5718 4701 
Q 5702 4608 5702 4493 
L 5702 141 
Q 5702 -64 5657 -208 
Q 5613 -352 5494 -448 
Q 5376 -544 5168 -605 
Q 4960 -666 4627 -704 
Q 4621 -627 4595 -534 
Q 4570 -442 4531 -346 
Q 4493 -250 4445 -160 
Q 4397 -70 4346 0 
Q 4634 -32 4803 -38 
Q 4973 -45 5059 -16 
Q 5146 13 5171 86 
Q 5197 160 5197 288 
L 5197 3968 
Q 5197 4333 5184 4573 
Q 5171 4813 5146 4986 
Q 5293 4954 5427 4944 
Q 5562 4934 5715 4947 
Q 5805 4954 5817 4915 
Q 5830 4877 5766 4826 
z
M 4576 4122 
Q 4525 4090 4525 3885 
L 4525 1645 
Q 4525 1459 4534 1241 
Q 4544 1024 4570 800 
L 4000 800 
Q 4038 1267 4038 1645 
L 4038 3565 
Q 4038 3795 4028 3987 
Q 4019 4179 3994 4314 
Q 4192 4275 4313 4262 
Q 4435 4250 4544 4256 
Q 4627 4262 4636 4214 
Q 4646 4166 4576 4122 
z
M 1914 2592 
Q 1696 2592 1536 2589 
Q 1376 2586 1251 2579 
Q 1126 2573 1024 2563 
Q 922 2554 826 2541 
L 826 3085 
Q 928 3072 1024 3062 
Q 1120 3053 1245 3046 
Q 1370 3040 1530 3037 
Q 1690 3034 1914 3034 
L 1914 4070 
Q 1914 4294 1898 4524 
Q 1882 4755 1850 4979 
Q 2035 4947 2163 4937 
Q 2291 4928 2451 4934 
Q 2534 4941 2556 4909 
Q 2579 4877 2509 4826 
Q 2445 4774 2422 4688 
Q 2400 4602 2400 4448 
L 2400 3034 
Q 2803 3034 3049 3043 
Q 3296 3053 3475 3078 
L 3475 2534 
Q 3290 2560 3037 2576 
Q 2784 2592 2400 2592 
Q 2394 2349 2384 2134 
Q 2374 1920 2355 1728 
Q 2739 1773 3088 1827 
Q 3437 1882 3699 1939 
Q 3648 1811 3635 1673 
Q 3622 1536 3635 1427 
Q 3405 1408 3049 1366 
Q 2694 1325 2298 1274 
Q 2240 966 2150 707 
Q 2061 448 1920 214 
Q 1779 -19 1590 -236 
Q 1402 -454 1146 -685 
Q 909 -461 570 -326 
Q 1056 -38 1337 323 
Q 1619 685 1754 1190 
Q 1402 1133 1162 1085 
Q 922 1037 742 986 
Q 730 1139 698 1292 
Q 666 1446 608 1613 
Q 851 1600 1171 1619 
Q 1491 1638 1850 1670 
Q 1882 1875 1894 2105 
Q 1907 2336 1914 2592 
z
M 3078 4634 
Q 3219 4557 3350 4502 
Q 3482 4448 3578 4435 
Q 3725 4416 3571 4314 
Q 3552 4301 3485 4192 
Q 3418 4083 3334 3936 
Q 3251 3789 3168 3635 
Q 3085 3482 3040 3386 
Q 2957 3437 2857 3465 
Q 2758 3494 2611 3520 
Q 2688 3642 2765 3782 
Q 2842 3923 2902 4070 
Q 2963 4218 3011 4362 
Q 3059 4506 3078 4634 
z
M 1056 3334 
Q 998 3578 889 3850 
Q 781 4122 659 4326 
L 1158 4499 
Q 1190 4390 1238 4262 
Q 1286 4134 1340 4000 
Q 1395 3866 1449 3741 
Q 1504 3616 1549 3520 
L 1056 3334 
z
" transform="scale(0.015625)"/>
        <path id="STHeitiTC-Medium-65ad" d="M 2989 1190 
Q 2874 1440 2765 1629 
Q 2656 1818 2509 2042 
L 2861 2246 
Q 3008 2042 3123 1875 
Q 3238 1709 3386 1491 
L 2989 1190 
z
M 1312 3456 
Q 1299 3731 1254 3984 
Q 1210 4237 1139 4493 
L 1600 4570 
Q 1619 4301 1664 4038 
Q 1709 3776 1773 3514 
L 1312 3456 
z
M 3475 4358 
Q 3456 4346 3408 4262 
Q 3360 4179 3296 4044 
Q 3232 3910 3155 3737 
Q 3078 3565 3008 3386 
L 2611 3520 
Q 2739 3795 2835 4076 
Q 2931 4358 2976 4634 
Q 3034 4602 3107 4573 
Q 3181 4544 3251 4521 
Q 3322 4499 3379 4480 
Q 3437 4461 3469 4461 
Q 3520 4454 3529 4422 
Q 3539 4390 3475 4358 
z
M 5248 3117 
Q 5466 3117 5690 3133 
Q 5914 3149 6010 3174 
L 6010 2637 
Q 5926 2650 5852 2659 
Q 5779 2669 5692 2672 
Q 5606 2675 5500 2678 
Q 5395 2682 5242 2682 
L 5242 320 
Q 5242 173 5242 54 
Q 5242 -64 5248 -179 
Q 5254 -294 5260 -419 
Q 5267 -544 5280 -698 
L 4685 -698 
Q 4698 -544 4704 -419 
Q 4710 -294 4716 -179 
Q 4723 -64 4723 54 
Q 4723 173 4723 320 
L 4723 2682 
L 4070 2682 
Q 4064 1971 4022 1478 
Q 3981 986 3888 624 
Q 3795 262 3641 -6 
Q 3488 -275 3264 -544 
Q 3066 -346 2765 -262 
L 2765 -320 
Q 2605 -307 2294 -304 
Q 1984 -301 1587 -301 
Q 1222 -301 896 -307 
Q 570 -314 390 -326 
Q 422 -160 438 118 
Q 454 397 454 691 
L 454 3757 
Q 454 4019 448 4211 
Q 442 4403 429 4538 
Q 589 4512 726 4499 
Q 864 4486 986 4493 
Q 1158 4499 1050 4410 
Q 979 4352 956 4301 
Q 934 4250 934 4160 
L 934 160 
L 2182 160 
Q 2381 160 2499 173 
Q 2618 186 2765 224 
L 2765 -224 
Q 2950 -26 3078 131 
Q 3206 288 3292 457 
Q 3379 627 3430 835 
Q 3482 1043 3510 1340 
Q 3539 1638 3555 2054 
Q 3571 2470 3584 3053 
Q 3597 3622 3593 4032 
Q 3590 4442 3571 4685 
Q 3782 4672 4035 4691 
Q 4288 4710 4553 4752 
Q 4819 4794 5068 4854 
Q 5318 4915 5517 4992 
Q 5549 4922 5593 4838 
Q 5638 4755 5680 4681 
Q 5722 4608 5763 4550 
Q 5805 4493 5824 4474 
Q 5894 4410 5881 4374 
Q 5869 4339 5779 4358 
Q 5715 4371 5622 4377 
Q 5530 4384 5347 4371 
Q 5165 4358 4861 4326 
Q 4557 4294 4070 4237 
L 4070 3117 
L 5248 3117 
z
M 1990 4211 
Q 1990 4480 1987 4691 
Q 1984 4902 1971 5037 
Q 2227 4979 2464 4992 
Q 2579 4998 2592 4969 
Q 2605 4941 2528 4864 
Q 2483 4819 2457 4755 
Q 2432 4691 2432 4595 
L 2432 2995 
Q 2605 2995 2736 2995 
Q 2867 2995 2969 3001 
Q 3072 3008 3161 3011 
Q 3251 3014 3347 3027 
L 3347 2573 
Q 3251 2579 3161 2585 
Q 3072 2592 2966 2598 
Q 2861 2605 2733 2605 
Q 2605 2605 2432 2605 
L 2432 1434 
Q 2432 1203 2441 956 
Q 2451 710 2483 422 
L 1946 422 
Q 1971 710 1980 963 
Q 1990 1216 1990 1434 
L 1990 2272 
Q 1862 1843 1696 1459 
Q 1530 1075 1267 640 
Q 1210 787 1146 899 
Q 1082 1011 992 1139 
Q 1107 1280 1209 1427 
Q 1312 1574 1411 1750 
Q 1510 1926 1606 2134 
Q 1702 2342 1811 2605 
Q 1600 2598 1459 2592 
Q 1318 2586 1152 2573 
L 1152 3027 
Q 1254 3014 1340 3011 
Q 1427 3008 1523 3001 
Q 1619 2995 1731 2995 
Q 1843 2995 1990 2995 
L 1990 4211 
z
" transform="scale(0.015625)"/>
       </defs>
       <use xlink:href="#STHeitiTC-Medium-8c04"/>
       <use xlink:href="#STHeitiTC-Medium-5a9a" x="99.999985"/>
       <use xlink:href="#STHeitiTC-Medium-20" x="199.999969"/>
       <use xlink:href="#STHeitiTC-Medium-41" x="224.999954"/>
       <use xlink:href="#STHeitiTC-Medium-49" x="298.999939"/>
       <use xlink:href="#STHeitiTC-Medium-b7" x="321.59993"/>
       <use xlink:href="#STHeitiTC-Medium-4ee3" x="421.599915"/>
       <use xlink:href="#STHeitiTC-Medium-4ef7" x="521.599899"/>
       <use xlink:href="#STHeitiTC-Medium-662f" x="621.599884"/>
       <use xlink:href="#STHeitiTC-Medium-4f60" x="721.599869"/>
       <use xlink:href="#STHeitiTC-Medium-7684" x="821.599854"/>
       <use xlink:href="#STHeitiTC-Medium-5224" x="921.599838"/>
       <use xlink:href="#STHeitiTC-Medium-65ad" x="1021.599823"/>
      </g>
     </g>
    </g>
   </g>
   <g id="matplotlib.axis_2">
    <g id="ytick_1">
     <g id="line2d_5">
      <path d="M 19.463594 219.298084 
L 631.153594 219.298084 
" clip-path="url(#pdb838bf9f9)" style="fill: none; stroke-dasharray: 2.96,1.28; stroke-dashoffset: 0; stroke: #b0b0b0; stroke-opacity: 0.35; stroke-width: 0.8"/>
     </g>
     <g id="line2d_6">
      <defs>
       <path id="mb160a114bd" d="M 0 0 
L -3.5 0 
" style="stroke: #333333; stroke-width: 0.8"/>
      </defs>
      <g>
       <use xlink:href="#mb160a114bd" x="19.463594" y="219.298084" style="fill: #333333; stroke: #333333; stroke-width: 0.8"/>
      </g>
     </g>
     <g id="text_5">
      <!-- 0 -->
      <g style="fill: #333333" transform="translate(7.2 223.145584) scale(0.095 -0.095)">
       <defs>
        <path id="STHeitiTC-Medium-30" d="M 1747 5184 
Q 2502 5184 2944 4547 
Q 3386 3910 3386 2723 
Q 3386 1536 2938 902 
Q 2490 269 1738 269 
Q 986 269 573 893 
Q 160 1517 160 2729 
Q 160 3942 573 4563 
Q 986 5184 1747 5184 
z
M 1760 774 
Q 2285 774 2576 1283 
Q 2867 1792 2867 2726 
Q 2867 3661 2566 4160 
Q 2266 4659 1757 4659 
Q 1248 4659 966 4160 
Q 685 3661 685 2714 
Q 685 774 1760 774 
z
" transform="scale(0.015625)"/>
       </defs>
       <use xlink:href="#STHeitiTC-Medium-30"/>
      </g>
     </g>
    </g>
    <g id="ytick_2">
     <g id="line2d_7">
      <path d="M 19.463594 182.36356 
L 631.153594 182.36356 
" clip-path="url(#pdb838bf9f9)" style="fill: none; stroke-dasharray: 2.96,1.28; stroke-dashoffset: 0; stroke: #b0b0b0; stroke-opacity: 0.35; stroke-width: 0.8"/>
     </g>
     <g id="line2d_8">
      <g>
       <use xlink:href="#mb160a114bd" x="19.463594" y="182.36356" style="fill: #333333; stroke: #333333; stroke-width: 0.8"/>
      </g>
     </g>
     <g id="text_6">
      <!-- 1 -->
      <g style="fill: #333333" transform="translate(7.2 186.21106) scale(0.095 -0.095)">
       <defs>
        <path id="STHeitiTC-Medium-31" d="M 2131 384 
L 1587 384 
L 1587 4531 
L 826 4531 
L 1158 5069 
L 2131 5069 
L 2131 384 
z
" transform="scale(0.015625)"/>
       </defs>
       <use xlink:href="#STHeitiTC-Medium-31"/>
      </g>
     </g>
    </g>
    <g id="ytick_3">
     <g id="line2d_9">
      <path d="M 19.463594 145.429036 
L 631.153594 145.429036 
" clip-path="url(#pdb838bf9f9)" style="fill: none; stroke-dasharray: 2.96,1.28; stroke-dashoffset: 0; stroke: #b0b0b0; stroke-opacity: 0.35; stroke-width: 0.8"/>
     </g>
     <g id="line2d_10">
      <g>
       <use xlink:href="#mb160a114bd" x="19.463594" y="145.429036" style="fill: #333333; stroke: #333333; stroke-width: 0.8"/>
      </g>
     </g>
     <g id="text_7">
      <!-- 2 -->
      <g style="fill: #333333" transform="translate(7.2 149.276536) scale(0.095 -0.095)">
       <defs>
        <path id="STHeitiTC-Medium-32" d="M 3360 384 
L 90 384 
L 1914 2355 
Q 2374 2842 2566 3123 
Q 2758 3405 2758 3763 
Q 2758 4122 2480 4390 
Q 2202 4659 1789 4659 
Q 1376 4659 1101 4368 
Q 826 4077 787 3539 
L 256 3539 
Q 288 4294 736 4739 
Q 1184 5184 1821 5184 
Q 2458 5184 2877 4771 
Q 3296 4358 3296 3763 
Q 3296 3328 3065 2950 
Q 2835 2573 2368 2074 
L 1293 915 
L 3360 915 
L 3360 384 
z
" transform="scale(0.015625)"/>
       </defs>
       <use xlink:href="#STHeitiTC-Medium-32"/>
      </g>
     </g>
    </g>
    <g id="ytick_4">
     <g id="line2d_11">
      <path d="M 19.463594 108.494513 
L 631.153594 108.494513 
" clip-path="url(#pdb838bf9f9)" style="fill: none; stroke-dasharray: 2.96,1.28; stroke-dashoffset: 0; stroke: #b0b0b0; stroke-opacity: 0.35; stroke-width: 0.8"/>
     </g>
     <g id="line2d_12">
      <g>
       <use xlink:href="#mb160a114bd" x="19.463594" y="108.494513" style="fill: #333333; stroke: #333333; stroke-width: 0.8"/>
      </g>
     </g>
     <g id="text_8">
      <!-- 3 -->
      <g style="fill: #333333" transform="translate(7.2 112.342013) scale(0.095 -0.095)">
       <defs>
        <path id="STHeitiTC-Medium-33" d="M 2554 3021 
Q 2931 2835 3139 2508 
Q 3347 2182 3347 1798 
Q 3347 1171 2889 720 
Q 2432 269 1734 269 
Q 1107 269 707 630 
Q 307 992 166 1702 
L 710 1702 
Q 832 1248 1072 1027 
Q 1312 806 1757 806 
Q 2202 806 2502 1084 
Q 2803 1363 2803 1785 
Q 2803 2208 2460 2457 
Q 2118 2707 1453 2720 
L 1453 3232 
Q 1933 3232 2227 3437 
Q 2522 3642 2522 3946 
Q 2522 4250 2294 4451 
Q 2067 4653 1744 4653 
Q 1421 4653 1219 4470 
Q 1018 4288 877 3917 
L 320 3917 
Q 461 4531 832 4857 
Q 1203 5184 1747 5184 
Q 2291 5184 2691 4825 
Q 3091 4467 3091 3955 
Q 3091 3366 2554 3021 
z
" transform="scale(0.015625)"/>
       </defs>
       <use xlink:href="#STHeitiTC-Medium-33"/>
      </g>
     </g>
    </g>
    <g id="ytick_5">
     <g id="line2d_13">
      <path d="M 19.463594 71.559989 
L 631.153594 71.559989 
" clip-path="url(#pdb838bf9f9)" style="fill: none; stroke-dasharray: 2.96,1.28; stroke-dashoffset: 0; stroke: #b0b0b0; stroke-opacity: 0.35; stroke-width: 0.8"/>
     </g>
     <g id="line2d_14">
      <g>
       <use xlink:href="#mb160a114bd" x="19.463594" y="71.559989" style="fill: #333333; stroke: #333333; stroke-width: 0.8"/>
      </g>
     </g>
     <g id="text_9">
      <!-- 4 -->
      <g style="fill: #333333" transform="translate(7.2 75.407489) scale(0.095 -0.095)">
       <defs>
        <path id="STHeitiTC-Medium-34" d="M 3418 1453 
L 2861 1453 
L 2861 384 
L 2317 384 
L 2317 1453 
L 70 1453 
L 2701 5184 
L 2861 5184 
L 2861 1984 
L 3418 1984 
L 3418 1453 
z
M 2317 1984 
L 2317 3712 
L 1094 1984 
L 2317 1984 
z
" transform="scale(0.015625)"/>
       </defs>
       <use xlink:href="#STHeitiTC-Medium-34"/>
      </g>
     </g>
    </g>
    <g id="ytick_6">
     <g id="line2d_15">
      <path d="M 19.463594 34.625465 
L 631.153594 34.625465 
" clip-path="url(#pdb838bf9f9)" style="fill: none; stroke-dasharray: 2.96,1.28; stroke-dashoffset: 0; stroke: #b0b0b0; stroke-opacity: 0.35; stroke-width: 0.8"/>
     </g>
     <g id="line2d_16">
      <g>
       <use xlink:href="#mb160a114bd" x="19.463594" y="34.625465" style="fill: #333333; stroke: #333333; stroke-width: 0.8"/>
      </g>
     </g>
     <g id="text_10">
      <!-- 5 -->
      <g style="fill: #333333" transform="translate(7.2 38.472965) scale(0.095 -0.095)">
       <defs>
        <path id="STHeitiTC-Medium-35" d="M 3194 4544 
L 1549 4544 
L 1338 3398 
Q 1613 3469 1856 3469 
Q 2477 3469 2893 3030 
Q 3309 2592 3309 1913 
Q 3309 1235 2861 752 
Q 2413 269 1664 269 
Q 1088 269 691 621 
Q 294 973 211 1587 
L 768 1587 
Q 851 1203 1107 998 
Q 1363 794 1690 794 
Q 2125 794 2438 1123 
Q 2752 1453 2752 1939 
Q 2752 2374 2480 2656 
Q 2208 2938 1747 2938 
Q 1286 2938 672 2675 
L 1120 5069 
L 3194 5069 
L 3194 4544 
z
" transform="scale(0.015625)"/>
       </defs>
       <use xlink:href="#STHeitiTC-Medium-35"/>
      </g>
     </g>
    </g>
   </g>
   <g id="patch_3">
    <path d="M 19.463594 219.298084 
L 19.463594 25.391834 
" style="fill: none; stroke: #000000; stroke-width: 0.8; stroke-linejoin: miter; stroke-linecap: square"/>
   </g>
   <g id="patch_4">
    <path d="M 19.463594 219.298084 
L 631.153594 219.298084 
" style="fill: none; stroke: #000000; stroke-width: 0.8; stroke-linejoin: miter; stroke-linecap: square"/>
   </g>
   <g id="patch_5">
    <path d="M 47.267685 219.298084 
L 133.421206 219.298084 
L 133.421206 145.429036 
L 47.267685 145.429036 
z
" clip-path="url(#pdb838bf9f9)" style="fill: #1a56db"/>
   </g>
   <g id="patch_6">
    <path d="M 203.91045 219.298084 
L 290.063971 219.298084 
L 290.063971 145.429036 
L 203.91045 145.429036 
z
" clip-path="url(#pdb838bf9f9)" style="fill: #1a56db"/>
   </g>
   <g id="patch_7">
    <path d="M 360.553216 219.298084 
L 446.706737 219.298084 
L 446.706737 34.625465 
L 360.553216 34.625465 
z
" clip-path="url(#pdb838bf9f9)" style="fill: #1a56db"/>
   </g>
   <g id="patch_8">
    <path d="M 517.195982 219.298084 
L 603.349503 219.298084 
L 603.349503 34.625465 
L 517.195982 34.625465 
z
" clip-path="url(#pdb838bf9f9)" style="fill: #1a56db"/>
   </g>
   <g id="text_11">
    <!-- 2 -->
    <g transform="translate(87.712648 125.698571) scale(0.095 -0.095)">
     <use xlink:href="#STHeitiTC-Medium-32"/>
    </g>
   </g>
   <g id="text_12">
    <!-- 2 -->
    <g transform="translate(244.355414 125.698571) scale(0.095 -0.095)">
     <use xlink:href="#STHeitiTC-Medium-32"/>
    </g>
   </g>
   <g id="text_13">
    <!-- 5 -->
    <g transform="translate(400.99818 14.895) scale(0.095 -0.095)">
     <use xlink:href="#STHeitiTC-Medium-35"/>
    </g>
   </g>
   <g id="text_14">
    <!-- 5 -->
    <g transform="translate(557.640945 14.895) scale(0.095 -0.095)">
     <use xlink:href="#STHeitiTC-Medium-35"/>
    </g>
   </g>
  </g>
 </g>
 <defs>
  <clipPath id="pdb838bf9f9">
   <rect x="19.463594" y="25.391834" width="611.69" height="193.90625"/>
  </clipPath>
 </defs>
</svg>
