<?xml version="1.0" encoding="utf-8" standalone="no"?>
<!DOCTYPE svg PUBLIC "-//W3C//DTD SVG 1.1//EN"
  "http://www.w3.org/Graphics/SVG/1.1/DTD/svg11.dtd">
<svg xmlns:xlink="http://www.w3.org/1999/xlink" width="638.328984pt" height="242.32135pt" viewBox="0 0 638.328984 242.32135" xmlns="http://www.w3.org/2000/svg" version="1.1">
 <metadata>
  <rdf:RDF xmlns:dc="http://purl.org/dc/elements/1.1/" xmlns:cc="http://creativecommons.org/ns#" xmlns:rdf="http://www.w3.org/1999/02/22-rdf-syntax-ns#">
   <cc:Work>
    <dc:type rdf:resource="http://purl.org/dc/dcmitype/StillImage"/>
    <dc:date>2026-06-08T08:22:46.969726</dc:date>
    <dc:format>image/svg+xml</dc:format>
    <dc:creator>
     <cc:Agent>
      <dc:title>Matplotlib v3.9.4, https://matplotlib.org/</dc:title>
     </cc:Agent>
    </dc:creator>
   </cc:Work>
  </rdf:RDF>
 </metadata>
 <defs>
  <style type="text/css">*{stroke-linejoin: round; stroke-linecap: butt}</style>
 </defs>
 <g id="figure_1">
  <g id="patch_1">
   <path d="M 0 242.32135 
L 638.328984 242.32135 
L 638.328984 0 
L 0 0 
z
" style="fill: #ffffff"/>
  </g>
  <g id="axes_1">
   <g id="patch_2">
    <path d="M 27.358984 218.820257 
L 631.128984 218.820257 
L 631.128984 29.669007 
L 27.358984 29.669007 
z
" style="fill: #fafafa"/>
   </g>
   <g id="matplotlib.axis_1">
    <g id="xtick_1">
     <g id="line2d_1">
      <defs>
       <path id="m5afbc1cda2" d="M 0 0 
L 0 3.5 
" style="stroke: #333333; stroke-width: 0.8"/>
      </defs>
      <g>
       <use xlink:href="#m5afbc1cda2" x="97.322089" y="218.820257" style="fill: #333333; stroke: #333333; stroke-width: 0.8"/>
      </g>
     </g>
     <g id="text_1">
      <!-- 你点赞 -->
      <g style="fill: #333333" transform="translate(83.072089 233.515257) scale(0.095 -0.095)">
       <defs>
        <path id="STHeitiTC-Medium-4f60" d="M 3264 1690 
Q 3206 1658 3098 1318 
Q 3021 1094 2896 793 
Q 2771 493 2573 58 
Q 2458 109 2314 147 
Q 2170 186 2010 218 
Q 2278 589 2470 1033 
Q 2662 1478 2752 2061 
Q 2880 1997 3008 1949 
Q 3136 1901 3238 1869 
Q 3469 1805 3264 1690 
z
M 5549 179 
Q 5453 467 5363 691 
Q 5274 915 5178 1113 
Q 5082 1312 4976 1491 
Q 4870 1670 4742 1862 
L 5229 2112 
Q 5459 1722 5673 1306 
Q 5888 890 6086 442 
L 5549 179 
z
M 4397 2893 
Q 4326 2822 4326 2637 
L 4326 -70 
Q 4326 -243 4304 -345 
Q 4282 -448 4179 -512 
Q 4077 -576 3862 -617 
Q 3648 -659 3258 -704 
Q 3264 -550 3209 -377 
Q 3155 -205 3046 -58 
Q 3277 -90 3430 -86 
Q 3584 -83 3673 -54 
Q 3763 -26 3798 22 
Q 3834 70 3834 134 
L 3834 2054 
Q 3834 2394 3821 2637 
Q 3808 2880 3776 3053 
Q 4064 2982 4326 2995 
Q 4429 3002 4438 2976 
Q 4448 2950 4397 2893 
z
M 1235 2970 
Q 1107 2758 976 2544 
Q 845 2330 678 2086 
Q 608 2214 515 2336 
Q 422 2458 314 2566 
Q 416 2669 544 2832 
Q 672 2995 800 3187 
Q 928 3379 1043 3580 
Q 1158 3782 1248 3968 
Q 1350 4186 1420 4358 
Q 1491 4531 1542 4668 
Q 1594 4806 1629 4928 
Q 1664 5050 1690 5178 
Q 1837 5107 1981 5056 
Q 2125 5005 2291 4966 
Q 2394 4941 2400 4905 
Q 2406 4870 2285 4781 
Q 2259 4762 2217 4707 
Q 2176 4653 2128 4576 
Q 2080 4499 2029 4409 
Q 1978 4320 1933 4237 
Q 1882 4134 1830 4038 
Q 1779 3942 1728 3853 
L 1728 -570 
L 1165 -570 
Q 1178 -429 1190 -269 
Q 1203 -109 1212 54 
Q 1222 218 1228 368 
Q 1235 518 1235 640 
L 1235 2970 
z
M 3232 3590 
Q 3162 3443 3088 3305 
Q 3014 3168 2937 3030 
Q 2861 2893 2774 2745 
Q 2688 2598 2586 2432 
Q 2458 2522 2339 2573 
Q 2221 2624 2080 2650 
Q 2304 2899 2483 3196 
Q 2662 3494 2806 3817 
Q 2950 4141 3059 4470 
Q 3168 4800 3245 5120 
Q 3418 5030 3584 4976 
Q 3750 4922 3891 4896 
Q 3962 4883 3962 4860 
Q 3962 4838 3885 4787 
Q 3859 4768 3808 4694 
Q 3757 4621 3689 4515 
Q 3622 4410 3555 4285 
Q 3488 4160 3437 4038 
Q 4058 4038 4493 4041 
Q 4928 4045 5232 4054 
Q 5536 4064 5731 4080 
Q 5926 4096 6074 4122 
L 5555 2637 
L 5011 2714 
L 5363 3590 
L 3232 3590 
z
" transform="scale(0.015625)"/>
        <path id="STHeitiTC-Medium-70b9" d="M 4608 2688 
L 1830 2688 
L 1830 1690 
L 4608 1690 
L 4608 2688 
z
M 2266 -486 
Q 2272 -186 2243 57 
Q 2214 301 2131 589 
L 2656 646 
Q 2707 358 2758 102 
Q 2810 -154 2886 -422 
L 2266 -486 
z
M 1530 640 
Q 1363 294 1225 -3 
Q 1088 -301 960 -602 
L 326 -358 
Q 589 -83 765 198 
Q 941 480 1056 832 
L 1530 640 
z
M 3757 -397 
Q 3699 -96 3635 153 
Q 3571 403 3456 698 
L 3974 826 
Q 4070 499 4160 243 
Q 4250 -13 4371 -314 
L 3757 -397 
z
M 5440 -461 
Q 5331 -128 5180 166 
Q 5030 461 4832 749 
L 5318 934 
Q 5504 634 5686 358 
Q 5869 83 6074 -205 
L 5440 -461 
z
M 3290 3142 
Q 3789 3142 4115 3148 
Q 4442 3155 4650 3164 
Q 4858 3174 4976 3184 
Q 5094 3194 5171 3206 
Q 5152 3021 5142 2761 
Q 5133 2502 5133 2240 
Q 5133 1958 5139 1664 
Q 5146 1370 5171 1184 
Q 5005 1197 4841 1206 
Q 4678 1216 4467 1222 
Q 4256 1229 3965 1232 
Q 3674 1235 3258 1235 
Q 2746 1235 2416 1232 
Q 2086 1229 1872 1219 
Q 1658 1210 1523 1197 
Q 1389 1184 1267 1171 
Q 1299 1389 1315 1680 
Q 1331 1971 1331 2259 
Q 1331 2522 1312 2781 
Q 1293 3040 1267 3206 
Q 1376 3194 1485 3184 
Q 1594 3174 1754 3164 
Q 1914 3155 2141 3148 
Q 2368 3142 2714 3142 
L 2714 4160 
Q 2714 4499 2698 4748 
Q 2682 4998 2650 5165 
Q 2733 5146 2838 5130 
Q 2944 5114 3049 5098 
Q 3155 5082 3248 5075 
Q 3341 5069 3405 5069 
Q 3578 5069 3437 4973 
Q 3341 4909 3315 4854 
Q 3290 4800 3290 4691 
L 3290 4365 
L 4410 4365 
Q 4755 4365 5046 4377 
Q 5338 4390 5645 4422 
L 5645 3840 
Q 5357 3872 5056 3885 
Q 4755 3898 4416 3898 
L 3290 3898 
L 3290 3142 
z
" transform="scale(0.015625)"/>
        <path id="STHeitiTC-Medium-8d5e" d="M 5254 -698 
Q 4794 -410 4342 -211 
Q 3891 -13 3411 154 
L 3686 531 
Q 4179 352 4636 166 
Q 5094 -19 5594 -224 
L 5254 -698 
z
M 3558 1043 
Q 3514 998 3450 883 
Q 3386 768 3334 627 
Q 3296 525 3222 413 
Q 3149 301 3056 198 
Q 2963 96 2857 9 
Q 2752 -77 2650 -134 
Q 2464 -237 2281 -313 
Q 2099 -390 1904 -454 
Q 1709 -518 1491 -569 
Q 1274 -621 1018 -666 
Q 992 -518 934 -400 
Q 877 -282 723 -115 
Q 1018 -128 1261 -105 
Q 1504 -83 1709 -35 
Q 1914 13 2086 83 
Q 2259 154 2426 250 
Q 2528 307 2624 409 
Q 2720 512 2797 643 
Q 2874 774 2925 928 
Q 2976 1082 2995 1235 
Q 3104 1203 3257 1184 
Q 3411 1165 3539 1171 
Q 3622 1178 3628 1149 
Q 3635 1120 3558 1043 
z
M 4448 448 
L 4448 1491 
L 1990 1491 
L 1990 333 
L 1446 333 
Q 1472 461 1481 608 
Q 1491 755 1491 851 
L 1491 1389 
Q 1491 1504 1478 1670 
Q 1466 1837 1453 1946 
Q 1549 1933 1686 1926 
Q 1824 1920 2032 1913 
Q 2240 1907 2531 1904 
Q 2822 1901 3226 1901 
Q 3616 1901 3901 1904 
Q 4186 1907 4394 1913 
Q 4602 1920 4742 1926 
Q 4883 1933 4979 1946 
Q 4966 1850 4956 1693 
Q 4947 1536 4947 1389 
L 4947 890 
Q 4947 794 4953 672 
Q 4960 550 4986 448 
L 4448 448 
z
M 4243 4122 
L 3661 4122 
Q 3622 4019 3580 3916 
Q 3539 3814 3488 3693 
Q 3392 3731 3296 3756 
Q 3200 3782 3046 3802 
Q 3149 3962 3209 4093 
Q 3270 4224 3328 4429 
Q 3379 4602 3401 4707 
Q 3424 4813 3443 4960 
Q 3552 4909 3696 4883 
Q 3840 4858 3917 4864 
Q 3968 4870 3977 4851 
Q 3987 4832 3942 4787 
Q 3898 4742 3862 4678 
Q 3827 4614 3782 4493 
L 4243 4493 
Q 4230 4666 4214 4832 
Q 4198 4998 4186 5094 
Q 4250 5082 4336 5072 
Q 4422 5062 4508 5059 
Q 4595 5056 4665 5056 
Q 4736 5056 4774 5056 
Q 4864 5062 4870 5033 
Q 4877 5005 4819 4954 
Q 4768 4909 4733 4806 
Q 4698 4704 4698 4589 
L 4698 4493 
Q 5261 4493 5600 4531 
L 5600 4083 
Q 5427 4096 5196 4109 
Q 4966 4122 4698 4122 
L 4698 3597 
L 5158 3597 
Q 5344 3597 5510 3606 
Q 5677 3616 5843 3642 
L 5843 3162 
Q 5677 3187 5510 3196 
Q 5344 3206 5158 3206 
L 4902 3206 
L 4902 2803 
Q 4902 2669 4976 2621 
Q 5050 2573 5274 2573 
Q 5363 2573 5417 2585 
Q 5472 2598 5507 2649 
Q 5542 2701 5568 2800 
Q 5594 2899 5626 3072 
Q 5728 2950 5824 2886 
Q 5920 2822 6074 2790 
Q 6010 2586 5952 2461 
Q 5894 2336 5808 2269 
Q 5722 2202 5581 2179 
Q 5440 2157 5203 2157 
Q 4941 2157 4793 2163 
Q 4646 2170 4579 2202 
Q 4512 2234 4499 2298 
Q 4486 2362 4486 2477 
L 4486 3206 
L 4128 3206 
Q 4096 2982 4048 2809 
Q 4000 2637 3910 2493 
Q 3821 2349 3677 2221 
Q 3533 2093 3315 1958 
Q 3226 2061 3146 2121 
Q 3066 2182 2918 2253 
Q 3296 2394 3472 2611 
Q 3648 2829 3693 3206 
Q 3552 3200 3414 3190 
Q 3277 3181 3149 3162 
L 3149 3642 
Q 3315 3616 3488 3606 
Q 3661 3597 3834 3597 
L 4243 3597 
L 4243 4122 
z
M 1830 4461 
Q 1824 4666 1808 4854 
Q 1792 5043 1773 5152 
Q 1837 5139 1923 5129 
Q 2010 5120 2090 5117 
Q 2170 5114 2240 5114 
Q 2310 5114 2349 5114 
Q 2426 5120 2438 5094 
Q 2451 5069 2394 5018 
Q 2272 4915 2272 4646 
L 2272 4461 
Q 2477 4467 2633 4476 
Q 2790 4486 2918 4499 
L 2918 4051 
Q 2784 4064 2627 4073 
Q 2470 4083 2272 4090 
L 2272 3546 
Q 2426 3546 2595 3555 
Q 2765 3565 2893 3590 
L 2893 3110 
Q 2688 3149 2451 3149 
L 2451 2637 
Q 2598 2707 2748 2800 
Q 2899 2893 3002 2976 
Q 2957 2720 3034 2541 
L 2477 2221 
Q 2400 2176 2320 2125 
Q 2240 2074 2131 1990 
Q 2080 2080 2025 2169 
Q 1971 2259 1926 2317 
Q 1997 2374 2022 2457 
Q 2048 2541 2048 2765 
L 2048 3155 
L 1651 3155 
Q 1619 2886 1564 2684 
Q 1510 2483 1411 2316 
Q 1312 2150 1152 2006 
Q 992 1862 755 1709 
Q 666 1824 570 1907 
Q 474 1990 320 2061 
Q 582 2163 752 2268 
Q 922 2374 1021 2502 
Q 1120 2630 1171 2790 
Q 1222 2950 1248 3155 
Q 1107 3155 1011 3152 
Q 915 3149 841 3145 
Q 768 3142 707 3132 
Q 646 3123 576 3110 
L 576 3590 
Q 717 3565 867 3555 
Q 1018 3546 1171 3546 
L 1830 3546 
L 1830 4090 
L 1235 4090 
Q 1197 3994 1152 3898 
Q 1107 3802 1043 3674 
Q 960 3725 841 3763 
Q 723 3802 602 3814 
Q 730 3962 797 4090 
Q 864 4218 922 4422 
Q 973 4595 998 4700 
Q 1024 4806 1043 4954 
Q 1152 4902 1289 4876 
Q 1427 4851 1504 4858 
Q 1613 4864 1530 4781 
Q 1485 4736 1446 4662 
Q 1408 4589 1363 4461 
L 1830 4461 
z
" transform="scale(0.015625)"/>
       </defs>
       <use xlink:href="#STHeitiTC-Medium-4f60"/>
       <use xlink:href="#STHeitiTC-Medium-70b9" x="99.999985"/>
       <use xlink:href="#STHeitiTC-Medium-8d5e" x="199.999969"/>
      </g>
     </g>
    </g>
    <g id="xtick_2">
     <g id="line2d_2">
      <g>
       <use xlink:href="#m5afbc1cda2" x="251.936686" y="218.820257" style="fill: #333333; stroke: #333333; stroke-width: 0.8"/>
      </g>
     </g>
     <g id="text_2">
      <!-- 系统记成"这个回答好" -->
      <g style="fill: #333333" transform="translate(206.250592 233.858147) scale(0.095 -0.095)">
       <defs>
        <path id="STHeitiTC-Medium-7cfb" d="M 3418 3142 
Q 3834 3450 4102 3680 
Q 4371 3910 4442 4000 
Q 4736 3763 4902 3667 
Q 5056 3578 5037 3539 
Q 5018 3501 4864 3494 
Q 4838 3494 4585 3356 
Q 4333 3219 3930 2944 
Q 3488 2643 3219 2460 
Q 2950 2278 2793 2172 
Q 2637 2067 2566 2022 
Q 2496 1978 2451 1952 
L 4755 2029 
Q 4589 2163 4425 2275 
Q 4262 2387 4096 2470 
L 4531 2790 
Q 4691 2669 4873 2528 
Q 5056 2387 5241 2243 
Q 5427 2099 5603 1961 
Q 5779 1824 5920 1715 
L 5434 1274 
Q 5382 1357 5318 1440 
Q 5254 1523 5184 1606 
L 3558 1536 
L 3558 262 
Q 3558 0 3574 -201 
Q 3590 -403 3622 -653 
L 2918 -653 
Q 2938 -499 2947 -387 
Q 2957 -275 2963 -172 
Q 2970 -70 2973 32 
Q 2976 134 2976 262 
L 2976 1523 
Q 2470 1504 2144 1485 
Q 1818 1466 1606 1440 
Q 1395 1414 1273 1385 
Q 1152 1357 1056 1325 
Q 1030 1459 969 1632 
Q 909 1805 838 1920 
L 1536 1933 
Q 1638 1984 1740 2038 
Q 1843 2093 1968 2166 
Q 2093 2240 2249 2339 
Q 2406 2438 2630 2586 
Q 2694 2624 2764 2675 
Q 2835 2726 2899 2771 
L 1645 2714 
Q 1498 2707 1334 2684 
Q 1171 2662 1043 2611 
Q 1024 2752 979 2915 
Q 934 3078 877 3181 
Q 986 3168 1117 3165 
Q 1248 3162 1402 3155 
Q 1549 3251 1718 3379 
Q 1888 3507 2061 3657 
Q 2234 3808 2397 3961 
Q 2560 4115 2694 4256 
Q 2240 4218 1926 4186 
Q 1613 4154 1408 4134 
Q 1203 4115 1091 4099 
Q 979 4083 922 4077 
Q 858 4397 736 4595 
Q 902 4582 1142 4582 
Q 1382 4582 1670 4595 
Q 1958 4608 2284 4637 
Q 2611 4666 2957 4704 
Q 3603 4781 4198 4877 
Q 4794 4973 5242 5069 
Q 5325 4902 5392 4784 
Q 5459 4666 5504 4614 
Q 5581 4525 5568 4502 
Q 5555 4480 5459 4493 
Q 5434 4493 5402 4496 
Q 5370 4499 5283 4492 
Q 5197 4486 5037 4473 
Q 4877 4461 4605 4435 
Q 4333 4410 3920 4371 
Q 3507 4333 2918 4275 
Q 2995 4192 3059 4157 
Q 3123 4122 3213 4090 
Q 3309 4058 3309 4019 
Q 3309 3981 3206 3949 
Q 3149 3936 3065 3891 
Q 2982 3846 2784 3674 
Q 2630 3546 2422 3405 
Q 2214 3264 2016 3136 
Q 2387 3130 2758 3130 
Q 3130 3130 3418 3142 
z
M 5395 -269 
Q 5312 -141 5161 19 
Q 5011 179 4835 332 
Q 4659 486 4483 611 
Q 4307 736 4173 806 
L 4576 1222 
Q 4928 954 5286 701 
Q 5645 448 5958 243 
L 5395 -269 
z
M 2240 826 
Q 2317 794 2304 752 
Q 2291 710 2170 691 
Q 2157 691 2073 630 
Q 1990 570 1872 477 
Q 1754 384 1616 269 
Q 1478 154 1344 38 
Q 1210 -77 1094 -176 
Q 979 -275 915 -339 
Q 832 -218 717 -131 
Q 602 -45 435 26 
Q 666 147 883 313 
Q 1101 480 1273 653 
Q 1446 826 1564 982 
Q 1683 1139 1722 1242 
Q 1805 1126 1961 1001 
Q 2118 877 2240 826 
z
" transform="scale(0.015625)"/>
        <path id="STHeitiTC-Medium-7edf" d="M 512 3213 
Q 646 3462 764 3721 
Q 883 3981 982 4227 
Q 1082 4474 1162 4691 
Q 1242 4909 1293 5082 
Q 1517 4973 1635 4931 
Q 1754 4890 1856 4883 
Q 1965 4877 1968 4797 
Q 1971 4717 1830 4691 
Q 1818 4691 1776 4633 
Q 1734 4576 1635 4419 
Q 1536 4262 1363 3974 
Q 1190 3686 915 3219 
Q 1267 3226 1715 3258 
Q 1818 3443 1898 3619 
Q 1978 3795 2035 3955 
Q 2202 3827 2326 3766 
Q 2451 3706 2566 3674 
Q 2662 3648 2668 3603 
Q 2675 3558 2566 3526 
Q 2528 3514 2445 3424 
Q 2362 3334 2202 3123 
Q 2042 2912 1795 2560 
Q 1549 2208 1197 1677 
Q 1363 1690 1539 1706 
Q 1715 1722 1878 1738 
Q 2042 1754 2189 1770 
Q 2336 1786 2451 1805 
Q 2419 1696 2393 1552 
Q 2368 1408 2368 1293 
Q 1978 1293 1686 1280 
Q 1395 1267 1184 1248 
Q 973 1229 838 1203 
Q 704 1178 627 1152 
Q 595 1299 553 1411 
Q 512 1523 442 1632 
Q 493 1632 547 1635 
Q 602 1638 672 1638 
Q 819 1824 1024 2137 
Q 1229 2451 1491 2874 
Q 1267 2861 1110 2848 
Q 954 2835 838 2822 
Q 723 2810 640 2797 
Q 557 2784 493 2765 
Q 467 2886 428 3008 
Q 390 3130 346 3219 
Q 390 3219 428 3219 
Q 467 3219 512 3213 
z
M 3718 3808 
Q 3008 3808 2579 3750 
L 2579 4307 
Q 2848 4275 3213 4259 
Q 3578 4243 4058 4243 
Q 4000 4467 3929 4688 
Q 3859 4909 3795 5043 
L 4390 5165 
Q 4454 4710 4576 4243 
Q 5030 4243 5379 4259 
Q 5728 4275 5984 4307 
L 5984 3750 
Q 5843 3770 5686 3779 
Q 5530 3789 5293 3798 
Q 5056 3808 4707 3811 
Q 4358 3814 3834 3814 
Q 3942 3763 4064 3718 
Q 4186 3674 4275 3648 
Q 4442 3603 4438 3555 
Q 4435 3507 4294 3475 
Q 4262 3469 4208 3427 
Q 4154 3386 4038 3280 
Q 3923 3174 3740 2985 
Q 3558 2797 3277 2496 
Q 3706 2509 4138 2537 
Q 4570 2566 4960 2611 
Q 4858 2752 4755 2886 
Q 4653 3021 4544 3149 
L 4941 3354 
Q 5184 3078 5430 2780 
Q 5677 2483 5869 2227 
L 5408 1914 
Q 5363 1997 5312 2077 
Q 5261 2157 5210 2246 
L 4755 2214 
L 4755 243 
Q 4755 141 4764 83 
Q 4774 26 4812 -3 
Q 4851 -32 4931 -41 
Q 5011 -51 5146 -51 
Q 5222 -51 5276 -28 
Q 5331 -6 5379 61 
Q 5427 128 5468 249 
Q 5510 371 5562 570 
Q 5670 448 5785 377 
Q 5901 307 6048 269 
Q 5958 13 5881 -144 
Q 5805 -301 5705 -387 
Q 5606 -474 5472 -502 
Q 5338 -531 5126 -531 
Q 4819 -531 4643 -505 
Q 4467 -480 4380 -419 
Q 4294 -358 4275 -256 
Q 4256 -154 4256 -6 
L 4256 2176 
L 3795 2138 
Q 3770 1536 3706 1110 
Q 3642 685 3514 365 
Q 3386 45 3171 -201 
Q 2957 -448 2630 -698 
Q 2432 -448 2099 -301 
Q 2458 -154 2688 48 
Q 2918 250 3052 531 
Q 3187 813 3238 1197 
Q 3290 1581 3290 2093 
Q 3187 2080 3078 2067 
Q 2970 2054 2877 2041 
Q 2784 2029 2713 2013 
Q 2643 1997 2611 1990 
Q 2579 2093 2537 2230 
Q 2496 2368 2445 2477 
L 2669 2477 
Q 2944 2758 3129 2966 
Q 3315 3174 3433 3328 
Q 3552 3482 3619 3597 
Q 3686 3712 3718 3808 
z
M 2547 704 
Q 2515 602 2508 499 
Q 2502 397 2528 256 
Q 2074 179 1741 115 
Q 1408 51 1165 0 
Q 922 -51 755 -99 
Q 589 -147 474 -186 
Q 448 -32 409 115 
Q 371 262 307 442 
Q 448 435 633 444 
Q 819 454 1084 483 
Q 1350 512 1708 566 
Q 2067 621 2547 704 
z
" transform="scale(0.015625)"/>
        <path id="STHeitiTC-Medium-8bb0" d="M 5062 4230 
L 3712 4230 
Q 3597 4230 3453 4224 
Q 3309 4218 3168 4205 
Q 3027 4192 2905 4176 
Q 2784 4160 2714 4141 
L 2714 4845 
Q 2893 4794 3245 4778 
Q 3597 4762 4179 4762 
Q 4749 4762 5085 4781 
Q 5421 4800 5619 4845 
Q 5600 4717 5593 4582 
Q 5587 4448 5587 4269 
L 5587 3066 
Q 5587 2790 5596 2550 
Q 5606 2310 5619 2042 
L 5062 2042 
L 5062 2368 
L 3430 2368 
L 3430 499 
Q 3430 326 3452 220 
Q 3475 115 3577 60 
Q 3680 6 3885 -10 
Q 4090 -26 4454 -26 
Q 4768 -26 4953 0 
Q 5139 26 5248 118 
Q 5357 211 5417 393 
Q 5478 576 5536 896 
Q 5683 749 5843 653 
Q 6003 557 6144 518 
Q 6029 160 5929 -48 
Q 5830 -256 5664 -358 
Q 5498 -461 5216 -486 
Q 4934 -512 4454 -512 
Q 3917 -512 3606 -493 
Q 3296 -474 3139 -413 
Q 2982 -352 2940 -233 
Q 2899 -115 2899 83 
L 2899 2323 
Q 2899 2541 2892 2659 
Q 2886 2778 2867 2886 
Q 2938 2874 3011 2867 
Q 3085 2861 3187 2854 
Q 3290 2848 3424 2848 
Q 3558 2848 3757 2848 
L 5062 2848 
L 5062 4230 
z
M 1638 -179 
Q 1600 -211 1552 -265 
Q 1504 -320 1449 -381 
Q 1395 -442 1347 -499 
Q 1299 -557 1274 -602 
Q 1190 -474 1091 -349 
Q 992 -224 870 -102 
Q 998 6 1081 192 
Q 1165 378 1165 640 
L 1165 2765 
Q 819 2765 611 2745 
Q 403 2726 250 2688 
L 250 3296 
Q 397 3277 576 3270 
Q 755 3264 992 3264 
Q 1216 3264 1398 3273 
Q 1581 3283 1728 3296 
Q 1702 3149 1689 2937 
Q 1677 2726 1677 2502 
L 1677 595 
Q 1888 762 2080 931 
Q 2272 1101 2400 1235 
Q 2432 1088 2489 921 
Q 2547 755 2598 666 
L 1638 -179 
z
M 1446 3808 
Q 1357 4070 1197 4361 
Q 1037 4653 851 4896 
L 1382 5178 
Q 1542 4934 1712 4652 
Q 1882 4371 2010 4141 
L 1446 3808 
z
" transform="scale(0.015625)"/>
        <path id="STHeitiTC-Medium-6210" d="M 4781 4147 
Q 4704 4352 4617 4521 
Q 4531 4691 4403 4858 
L 4909 5101 
Q 5024 4947 5136 4755 
Q 5248 4563 5318 4410 
L 4781 4147 
z
M 1478 3546 
L 1478 2656 
Q 2067 2656 2492 2669 
Q 2918 2682 3053 2714 
L 2963 992 
Q 2950 819 2905 704 
Q 2861 589 2749 509 
Q 2637 429 2432 368 
Q 2227 307 1894 230 
Q 1888 371 1840 512 
Q 1792 653 1658 883 
Q 1907 838 2064 828 
Q 2221 819 2313 848 
Q 2406 877 2441 950 
Q 2477 1024 2477 1139 
L 2534 2246 
L 1472 2246 
Q 1459 1709 1424 1337 
Q 1389 966 1318 668 
Q 1248 371 1129 105 
Q 1011 -160 832 -486 
Q 710 -397 572 -326 
Q 435 -256 269 -224 
Q 422 -32 540 166 
Q 659 365 742 605 
Q 826 845 877 1152 
Q 928 1459 950 1875 
Q 973 2291 969 2828 
Q 966 3366 941 4077 
Q 1114 4051 1677 4032 
Q 2240 4013 3334 4013 
Q 3302 4314 3280 4624 
Q 3258 4934 3238 5184 
Q 3386 5158 3555 5145 
Q 3725 5133 3866 5146 
Q 3974 5158 3993 5126 
Q 4013 5094 3930 5005 
Q 3885 4954 3872 4694 
Q 3859 4435 3872 4013 
Q 4307 4013 4627 4019 
Q 4947 4026 5174 4035 
Q 5402 4045 5549 4054 
Q 5696 4064 5786 4077 
L 5786 3482 
Q 5600 3501 5129 3523 
Q 4659 3546 3891 3546 
Q 3904 3302 3936 3033 
Q 3968 2765 4016 2496 
Q 4064 2227 4131 1968 
Q 4198 1709 4288 1485 
Q 4493 1850 4617 2256 
Q 4742 2662 4819 3123 
Q 4973 3040 5120 2979 
Q 5267 2918 5421 2874 
Q 5587 2822 5421 2758 
Q 5402 2752 5373 2710 
Q 5344 2669 5312 2614 
Q 5280 2560 5254 2499 
Q 5229 2438 5210 2387 
Q 5088 1990 4931 1641 
Q 4774 1293 4550 966 
Q 4832 512 5017 285 
Q 5203 58 5318 35 
Q 5434 13 5491 182 
Q 5549 352 5587 691 
Q 5715 531 5862 422 
Q 6010 314 6131 294 
Q 5990 -128 5881 -358 
Q 5773 -589 5654 -659 
Q 5536 -730 5389 -662 
Q 5242 -595 5018 -416 
Q 4928 -346 4822 -237 
Q 4717 -128 4608 0 
Q 4499 128 4396 265 
Q 4294 403 4218 525 
Q 3968 230 3638 -51 
Q 3309 -333 2886 -621 
Q 2816 -461 2697 -342 
Q 2579 -224 2458 -173 
Q 2957 51 3328 342 
Q 3699 634 3974 992 
Q 3859 1235 3779 1440 
Q 3699 1645 3638 1913 
Q 3578 2182 3517 2563 
Q 3456 2944 3379 3546 
L 1478 3546 
z
" transform="scale(0.015625)"/>
        <path id="STHeitiTC-Medium-22" d="M 1875 5504 
L 1798 3968 
L 1389 3968 
L 1318 5504 
L 1875 5504 
z
M 659 5504 
L 589 3968 
L 173 3968 
L 102 5504 
L 659 5504 
z
" transform="scale(0.015625)"/>
        <path id="STHeitiTC-Medium-8fd9" d="M 1286 237 
Q 1178 32 1040 -144 
Q 902 -320 730 -512 
Q 678 -454 643 -416 
Q 608 -378 563 -346 
Q 518 -314 454 -275 
Q 390 -237 294 -186 
Q 506 -6 672 186 
Q 838 378 963 595 
Q 1088 813 1177 1072 
Q 1267 1331 1325 1651 
L 1139 1651 
Q 998 1651 867 1628 
Q 736 1606 608 1536 
Q 595 1702 550 1846 
Q 506 1990 448 2086 
Q 582 2118 665 2185 
Q 749 2253 826 2387 
L 1190 3053 
L 877 3053 
Q 781 3053 633 3040 
Q 486 3027 390 3008 
L 390 3514 
Q 486 3507 556 3500 
Q 627 3494 710 3491 
Q 794 3488 893 3488 
Q 992 3488 1146 3488 
Q 1504 3488 1677 3497 
Q 1850 3507 1978 3526 
L 1133 2048 
L 1472 2048 
Q 1568 2048 1686 2054 
Q 1805 2061 1894 2074 
Q 1786 1606 1693 1267 
Q 1600 928 1491 659 
Q 1638 544 1820 451 
Q 2003 358 2259 291 
Q 2515 224 2857 185 
Q 3200 147 3661 137 
Q 4122 128 4723 153 
Q 5325 179 6099 243 
Q 5971 58 5916 -80 
Q 5862 -218 5843 -410 
Q 4787 -429 4041 -403 
Q 3296 -378 2771 -298 
Q 2246 -218 1897 -86 
Q 1549 45 1286 237 
z
M 1286 3834 
Q 1178 4045 1024 4272 
Q 870 4499 704 4704 
L 1158 4998 
Q 1331 4794 1481 4589 
Q 1632 4384 1798 4128 
L 1286 3834 
z
M 4019 2291 
Q 4115 2445 4192 2595 
Q 4269 2746 4329 2912 
Q 4390 3078 4432 3267 
Q 4474 3456 4493 3693 
Q 4090 3693 3757 3689 
Q 3424 3686 3142 3683 
Q 2861 3680 2627 3670 
Q 2394 3661 2189 3648 
L 2189 4237 
Q 2362 4224 2544 4214 
Q 2726 4205 2944 4198 
Q 3162 4192 3414 4189 
Q 3667 4186 3981 4186 
Q 4608 4186 5056 4198 
Q 5504 4211 5843 4237 
L 5843 3648 
Q 5754 3654 5648 3660 
Q 5542 3667 5433 3673 
Q 5325 3680 5222 3683 
Q 5120 3686 5043 3686 
Q 4992 3379 4934 3142 
Q 4877 2906 4803 2707 
Q 4730 2509 4634 2336 
Q 4538 2163 4410 1984 
Q 4794 1690 5094 1430 
Q 5395 1171 5626 947 
L 5139 474 
Q 4998 653 4873 800 
Q 4749 947 4627 1078 
Q 4506 1210 4378 1338 
Q 4250 1466 4096 1600 
Q 3763 1235 3369 963 
Q 2976 691 2477 461 
Q 2406 614 2288 755 
Q 2170 896 2010 1005 
Q 2496 1101 2950 1344 
Q 3405 1587 3725 1914 
Q 3341 2240 3008 2502 
Q 2675 2765 2374 2976 
L 2758 3283 
Q 3027 3072 3340 2825 
Q 3654 2579 4019 2291 
z
M 3597 4326 
Q 3558 4563 3507 4752 
Q 3456 4941 3366 5126 
L 4006 5274 
Q 4058 5069 4109 4873 
Q 4160 4678 4230 4474 
L 3597 4326 
z
" transform="scale(0.015625)"/>
        <path id="STHeitiTC-Medium-4e2a" d="M 3450 3142 
Q 3571 3142 3587 3107 
Q 3603 3072 3494 3008 
Q 3443 2976 3424 2873 
Q 3405 2771 3405 2541 
L 3405 435 
Q 3405 326 3408 182 
Q 3411 38 3420 -118 
Q 3430 -275 3443 -428 
Q 3456 -582 3469 -717 
L 2784 -717 
Q 2797 -602 2806 -448 
Q 2816 -294 2825 -134 
Q 2835 26 2838 176 
Q 2842 326 2842 435 
L 2842 2227 
Q 2842 2560 2822 2825 
Q 2803 3091 2771 3200 
Q 2957 3168 3117 3155 
Q 3277 3142 3450 3142 
z
M 3162 4378 
Q 2925 4019 2627 3670 
Q 2330 3322 2010 3014 
Q 1690 2707 1363 2448 
Q 1037 2189 736 2003 
Q 550 2310 250 2445 
Q 570 2598 845 2768 
Q 1120 2938 1366 3136 
Q 1613 3334 1840 3561 
Q 2067 3789 2298 4064 
Q 2432 4224 2531 4368 
Q 2630 4512 2697 4649 
Q 2765 4787 2806 4928 
Q 2848 5069 2861 5229 
Q 2925 5197 3021 5171 
Q 3117 5146 3213 5120 
Q 3309 5094 3392 5078 
Q 3475 5062 3507 5062 
Q 3622 5050 3628 5008 
Q 3635 4966 3565 4922 
Q 3533 4902 3481 4844 
Q 3430 4787 3373 4704 
Q 3469 4563 3593 4419 
Q 3718 4275 3859 4131 
Q 4000 3987 4150 3849 
Q 4301 3712 4448 3597 
Q 4589 3482 4755 3370 
Q 4922 3258 5126 3155 
Q 5331 3053 5580 2969 
Q 5830 2886 6144 2829 
Q 5978 2694 5878 2540 
Q 5779 2387 5696 2182 
Q 5126 2470 4748 2732 
Q 4371 2995 4077 3238 
Q 3962 3334 3840 3462 
Q 3718 3590 3596 3740 
Q 3475 3891 3366 4054 
Q 3258 4218 3162 4378 
z
" transform="scale(0.015625)"/>
        <path id="STHeitiTC-Medium-56de" d="M 2554 1709 
L 3802 1709 
L 3802 2880 
L 2554 2880 
L 2554 1709 
z
M 3174 3334 
Q 3546 3341 3798 3350 
Q 4051 3360 4275 3386 
Q 4269 3334 4265 3260 
Q 4262 3187 4259 3100 
Q 4256 3014 4253 2924 
Q 4250 2835 4250 2765 
L 4250 1907 
Q 4250 1683 4256 1523 
Q 4262 1363 4275 1222 
Q 4090 1242 3811 1254 
Q 3533 1267 3136 1267 
Q 2771 1267 2524 1254 
Q 2278 1242 2042 1222 
Q 2061 1370 2070 1533 
Q 2080 1696 2080 1914 
L 2080 2765 
Q 2080 2931 2067 3107 
Q 2054 3283 2042 3386 
Q 2259 3354 2515 3341 
Q 2771 3328 3174 3334 
z
M 5024 4064 
L 1370 4064 
L 1370 448 
L 5024 448 
L 5024 4064 
z
M 1370 -422 
L 781 -422 
Q 813 -186 829 99 
Q 845 384 845 672 
L 845 3648 
Q 845 3782 841 3923 
Q 838 4064 828 4198 
Q 819 4333 809 4441 
Q 800 4550 787 4614 
Q 877 4602 1021 4592 
Q 1165 4582 1424 4572 
Q 1683 4563 2086 4560 
Q 2490 4557 3085 4557 
Q 3770 4557 4218 4563 
Q 4666 4570 4947 4576 
Q 5229 4582 5379 4592 
Q 5530 4602 5619 4614 
Q 5587 4429 5574 4179 
Q 5562 3930 5562 3661 
L 5562 672 
Q 5562 390 5574 131 
Q 5587 -128 5606 -390 
L 5024 -390 
L 5024 -26 
L 1370 -26 
L 1370 -422 
z
" transform="scale(0.015625)"/>
        <path id="STHeitiTC-Medium-7b54" d="M 4544 160 
L 4544 928 
L 2080 928 
L 2080 160 
L 4544 160 
z
M 2080 -230 
L 2080 -666 
L 1555 -666 
Q 1574 -493 1584 -269 
Q 1594 -45 1594 166 
L 1594 787 
Q 1594 954 1587 1110 
Q 1581 1267 1568 1389 
Q 1645 1376 1840 1369 
Q 2035 1363 2284 1353 
Q 2534 1344 2803 1341 
Q 3072 1338 3302 1338 
Q 3552 1338 3837 1341 
Q 4122 1344 4371 1353 
Q 4621 1363 4806 1369 
Q 4992 1376 5056 1389 
Q 5043 1267 5036 1110 
Q 5030 954 5030 787 
L 5030 250 
Q 5030 -6 5040 -211 
Q 5050 -416 5069 -602 
L 4544 -602 
L 4544 -230 
L 2080 -230 
z
M 1626 4083 
Q 1402 3757 1226 3545 
Q 1050 3334 851 3174 
Q 762 3270 643 3344 
Q 525 3418 410 3456 
Q 557 3552 729 3734 
Q 902 3917 1065 4144 
Q 1229 4371 1369 4614 
Q 1510 4858 1587 5082 
Q 1645 5050 1721 5018 
Q 1798 4986 1878 4954 
Q 1958 4922 2032 4899 
Q 2106 4877 2157 4864 
Q 2227 4851 2233 4825 
Q 2240 4800 2170 4768 
Q 2106 4736 2048 4678 
Q 1990 4621 1882 4461 
L 2349 4461 
Q 2810 4461 3050 4473 
Q 3290 4486 3398 4512 
L 3398 4032 
Q 3290 4058 3066 4070 
Q 2842 4083 2426 4083 
Q 2490 3923 2547 3760 
Q 2605 3597 2650 3450 
L 2099 3322 
Q 2086 3501 2057 3693 
Q 2029 3885 1978 4083 
L 1626 4083 
z
M 4205 4122 
Q 4045 3898 3965 3786 
Q 3885 3674 3821 3590 
Q 3699 3680 3587 3731 
Q 3475 3782 3373 3808 
Q 3488 3904 3622 4070 
Q 3757 4237 3872 4429 
Q 3987 4621 4073 4813 
Q 4160 5005 4179 5152 
Q 4294 5088 4464 5024 
Q 4634 4960 4768 4928 
Q 4838 4915 4848 4886 
Q 4858 4858 4787 4826 
Q 4749 4813 4669 4733 
Q 4589 4653 4480 4512 
L 5120 4512 
Q 5350 4512 5510 4515 
Q 5670 4518 5782 4524 
Q 5894 4531 5964 4540 
Q 6035 4550 6093 4563 
L 6093 4070 
Q 6035 4083 5964 4092 
Q 5894 4102 5772 4108 
Q 5651 4115 5472 4118 
Q 5293 4122 5024 4122 
Q 5107 3930 5187 3728 
Q 5267 3526 5318 3386 
L 4762 3238 
Q 4755 3309 4739 3417 
Q 4723 3526 4694 3648 
Q 4666 3770 4634 3891 
Q 4602 4013 4563 4122 
L 4205 4122 
z
M 3405 3162 
Q 3200 2938 2899 2682 
Q 2598 2426 2240 2170 
L 4333 2170 
L 4333 1722 
Q 4237 1728 4141 1734 
Q 4045 1741 3920 1744 
Q 3795 1747 3632 1747 
Q 3469 1747 3245 1747 
Q 3059 1747 2915 1747 
Q 2771 1747 2649 1744 
Q 2528 1741 2425 1734 
Q 2323 1728 2221 1722 
L 2221 2150 
Q 1837 1882 1446 1654 
Q 1056 1427 710 1280 
Q 640 1408 518 1529 
Q 397 1651 282 1715 
Q 627 1830 992 2000 
Q 1357 2170 1686 2362 
Q 2016 2554 2288 2755 
Q 2560 2957 2726 3142 
Q 2867 3296 2992 3475 
Q 3117 3654 3168 3776 
Q 3219 3757 3296 3734 
Q 3373 3712 3456 3689 
Q 3539 3667 3612 3648 
Q 3686 3629 3738 3622 
Q 3789 3610 3801 3578 
Q 3814 3546 3763 3526 
Q 3731 3514 3705 3498 
Q 3680 3482 3648 3450 
Q 3878 3149 4160 2912 
Q 4442 2675 4755 2505 
Q 5069 2336 5411 2240 
Q 5754 2144 6112 2138 
Q 5914 1856 5824 1542 
Q 5018 1715 4429 2124 
Q 3840 2534 3405 3162 
z
" transform="scale(0.015625)"/>
        <path id="STHeitiTC-Medium-597d" d="M 1152 3328 
Q 934 3322 777 3309 
Q 621 3296 480 3277 
L 480 3808 
Q 602 3789 768 3779 
Q 934 3770 1222 3763 
Q 1286 4186 1312 4531 
Q 1338 4877 1344 5133 
Q 1517 5075 1689 5036 
Q 1862 4998 2035 4986 
Q 2150 4979 2147 4947 
Q 2144 4915 2054 4838 
Q 1990 4787 1916 4540 
Q 1843 4294 1728 3763 
Q 2253 3763 2521 3776 
Q 2790 3789 2925 3808 
Q 2861 3213 2800 2771 
Q 2739 2330 2665 1997 
Q 2592 1664 2512 1421 
Q 2432 1178 2330 973 
Q 2534 838 2710 716 
Q 2886 595 3014 499 
Q 2726 275 2554 0 
Q 2349 275 2067 518 
Q 1939 333 1785 150 
Q 1632 -32 1462 -201 
Q 1293 -371 1120 -515 
Q 947 -659 787 -762 
Q 698 -614 570 -492 
Q 442 -371 250 -269 
Q 749 -45 1097 214 
Q 1446 474 1683 819 
Q 1267 1114 666 1427 
Q 832 1914 953 2397 
Q 1075 2880 1152 3328 
z
M 1914 1235 
Q 2093 1638 2185 2147 
Q 2278 2656 2330 3328 
L 1632 3328 
Q 1555 2989 1462 2569 
Q 1370 2150 1261 1619 
Q 1594 1434 1914 1235 
z
M 4787 2483 
Q 5235 2490 5561 2502 
Q 5888 2515 6144 2547 
L 6144 1946 
Q 5888 1978 5561 1990 
Q 5235 2003 4787 2010 
L 4787 -6 
Q 4787 -192 4736 -310 
Q 4685 -429 4560 -505 
Q 4435 -582 4224 -630 
Q 4013 -678 3699 -717 
Q 3699 -582 3622 -380 
Q 3546 -179 3405 6 
Q 3680 -32 3846 -38 
Q 4013 -45 4105 -19 
Q 4198 6 4227 67 
Q 4256 128 4256 230 
L 4256 2010 
Q 3834 2003 3526 1990 
Q 3219 1978 2982 1946 
L 2982 2547 
Q 3226 2515 3533 2502 
Q 3840 2490 4256 2483 
L 4256 3373 
Q 4384 3475 4512 3590 
Q 4640 3706 4752 3814 
Q 4864 3923 4957 4022 
Q 5050 4122 5107 4192 
L 3738 4192 
Q 3546 4192 3389 4189 
Q 3232 4186 3085 4173 
L 3085 4710 
Q 3238 4698 3372 4691 
Q 3507 4685 3667 4678 
Q 3827 4672 4028 4672 
Q 4230 4672 4512 4672 
Q 4858 4672 5098 4675 
Q 5338 4678 5501 4681 
Q 5664 4685 5769 4691 
Q 5875 4698 5946 4710 
L 5946 4173 
Q 5837 4128 5734 4073 
Q 5632 4019 5504 3923 
Q 5376 3827 5203 3670 
Q 5030 3514 4787 3264 
L 4787 2483 
z
" transform="scale(0.015625)"/>
       </defs>
       <use xlink:href="#STHeitiTC-Medium-7cfb"/>
       <use xlink:href="#STHeitiTC-Medium-7edf" x="99.999985"/>
       <use xlink:href="#STHeitiTC-Medium-8bb0" x="199.999969"/>
       <use xlink:href="#STHeitiTC-Medium-6210" x="299.999954"/>
       <use xlink:href="#STHeitiTC-Medium-22" x="399.999939"/>
       <use xlink:href="#STHeitiTC-Medium-8fd9" x="430.899933"/>
       <use xlink:href="#STHeitiTC-Medium-4e2a" x="530.899918"/>
       <use xlink:href="#STHeitiTC-Medium-56de" x="630.899902"/>
       <use xlink:href="#STHeitiTC-Medium-7b54" x="730.899887"/>
       <use xlink:href="#STHeitiTC-Medium-597d" x="830.899872"/>
       <use xlink:href="#STHeitiTC-Medium-22" x="930.899857"/>
      </g>
     </g>
    </g>
    <g id="xtick_3">
     <g id="line2d_3">
      <g>
       <use xlink:href="#m5afbc1cda2" x="406.551283" y="218.820257" style="fill: #333333; stroke: #333333; stroke-width: 0.8"/>
      </g>
     </g>
     <g id="text_3">
      <!-- 模型学到"迎合=高分" -->
      <g style="fill: #333333" transform="translate(362.736986 233.79135) scale(0.095 -0.095)">
       <defs>
        <path id="STHeitiTC-Medium-6a21" d="M 5165 3117 
L 3194 3117 
L 3194 2720 
L 5165 2720 
L 5165 3117 
z
M 3194 1952 
L 5165 1952 
L 5165 2355 
L 3194 2355 
L 3194 1952 
z
M 3808 4013 
L 3808 3482 
L 4506 3482 
L 4506 4013 
L 3808 4013 
z
M 4954 4397 
Q 5299 4397 5593 4406 
Q 5888 4416 6093 4448 
L 6093 3955 
Q 5888 3987 5593 4000 
Q 5299 4013 4954 4013 
L 4954 3482 
Q 5152 3488 5318 3494 
Q 5485 3501 5645 3514 
Q 5632 3322 5625 3078 
Q 5619 2835 5619 2560 
Q 5619 2310 5625 2054 
Q 5632 1798 5645 1562 
Q 5510 1568 5372 1574 
Q 5235 1581 5072 1584 
Q 4909 1587 4710 1587 
Q 4512 1587 4262 1587 
Q 4250 1466 4234 1360 
Q 4218 1254 4192 1152 
Q 4570 1152 4848 1155 
Q 5126 1158 5340 1168 
Q 5555 1178 5731 1187 
Q 5907 1197 6080 1216 
L 6080 717 
Q 5914 736 5744 749 
Q 5574 762 5382 768 
Q 5190 774 4963 777 
Q 4736 781 4461 781 
Q 4762 365 5165 189 
Q 5568 13 6131 -26 
Q 5984 -173 5913 -310 
Q 5843 -448 5830 -634 
Q 5530 -544 5267 -425 
Q 5005 -307 4784 -144 
Q 4563 19 4387 240 
Q 4211 461 4083 762 
Q 3994 525 3853 329 
Q 3712 134 3501 -29 
Q 3290 -192 2998 -336 
Q 2707 -480 2323 -614 
Q 2272 -486 2198 -364 
Q 2125 -243 1997 -115 
Q 2349 -38 2614 48 
Q 2880 134 3075 240 
Q 3270 346 3401 480 
Q 3533 614 3610 781 
Q 3117 781 2790 761 
Q 2464 742 2202 717 
L 2202 1216 
Q 2330 1203 2467 1190 
Q 2605 1178 2777 1171 
Q 2950 1165 3180 1158 
Q 3411 1152 3718 1152 
Q 3731 1254 3740 1360 
Q 3750 1466 3750 1587 
Q 3411 1587 3171 1584 
Q 2931 1581 2726 1568 
Q 2739 1798 2742 2054 
Q 2746 2310 2746 2560 
Q 2746 3091 2726 3514 
Q 2874 3501 3024 3494 
Q 3174 3488 3360 3482 
L 3360 4013 
Q 3091 4000 2864 3990 
Q 2637 3981 2470 3955 
L 2470 4448 
Q 2643 4422 2867 4412 
Q 3091 4403 3360 4397 
Q 3360 4787 3322 5050 
Q 3450 5037 3590 5024 
Q 3731 5011 3853 5011 
Q 3910 5011 3920 4982 
Q 3930 4954 3878 4922 
Q 3834 4896 3821 4870 
Q 3808 4845 3808 4787 
L 3808 4397 
L 4506 4397 
Q 4506 4582 4496 4752 
Q 4486 4922 4467 5050 
Q 4595 5037 4736 5024 
Q 4877 5011 4998 5011 
Q 5056 5011 5065 4982 
Q 5075 4954 5024 4922 
Q 4979 4896 4966 4870 
Q 4954 4845 4954 4787 
L 4954 4397 
z
M 2093 2707 
Q 2362 2240 2566 1786 
L 2150 1568 
Q 2093 1792 1977 2048 
Q 1862 2304 1734 2502 
L 2093 2707 
z
M 1235 2253 
Q 1107 1843 966 1523 
Q 826 1203 659 928 
Q 589 1088 496 1174 
Q 403 1261 262 1344 
Q 422 1517 553 1699 
Q 685 1882 800 2112 
Q 915 2342 1017 2633 
Q 1120 2925 1229 3309 
Q 1005 3302 838 3289 
Q 672 3277 525 3258 
L 525 3750 
Q 672 3725 841 3715 
Q 1011 3706 1235 3699 
Q 1235 3962 1232 4163 
Q 1229 4365 1222 4521 
Q 1216 4678 1206 4800 
Q 1197 4922 1184 5030 
Q 1350 5011 1475 5008 
Q 1600 5005 1747 5018 
Q 1843 5030 1859 4985 
Q 1875 4941 1786 4858 
Q 1741 4819 1728 4780 
Q 1715 4742 1715 4685 
L 1715 3699 
Q 1952 3706 2125 3715 
Q 2298 3725 2445 3750 
L 2445 3258 
Q 2298 3277 2125 3289 
Q 1952 3302 1715 3302 
L 1715 595 
Q 1715 339 1731 22 
Q 1747 -294 1779 -608 
L 1171 -608 
Q 1203 -294 1219 22 
Q 1235 339 1235 595 
L 1235 2253 
z
" transform="scale(0.015625)"/>
        <path id="STHeitiTC-Medium-578b" d="M 3008 768 
Q 2381 768 1926 761 
Q 1472 755 1120 723 
L 1120 1248 
Q 1485 1216 1933 1209 
Q 2381 1203 3008 1203 
Q 3002 1382 2992 1529 
Q 2982 1677 2970 1760 
Q 3110 1741 3251 1731 
Q 3392 1722 3558 1722 
Q 3648 1722 3657 1690 
Q 3667 1658 3590 1606 
Q 3558 1581 3529 1513 
Q 3501 1446 3501 1389 
L 3501 1203 
Q 4109 1203 4550 1212 
Q 4992 1222 5338 1248 
L 5338 723 
Q 4992 749 4550 758 
Q 4109 768 3501 768 
L 3501 58 
Q 4346 58 4954 67 
Q 5562 77 6035 102 
L 6035 -416 
Q 5530 -390 4864 -380 
Q 4198 -371 3251 -371 
Q 2310 -371 1641 -384 
Q 973 -397 474 -416 
L 474 102 
Q 922 77 1539 67 
Q 2157 58 3008 58 
L 3008 768 
z
M 5702 4909 
Q 5670 4877 5657 4841 
Q 5645 4806 5645 4723 
L 5645 2208 
Q 5645 2016 5606 1897 
Q 5568 1779 5462 1708 
Q 5357 1638 5174 1603 
Q 4992 1568 4698 1536 
Q 4685 1715 4637 1852 
Q 4589 1990 4461 2138 
Q 4826 2067 4989 2131 
Q 5152 2195 5152 2374 
L 5152 4038 
Q 5152 4198 5149 4355 
Q 5146 4512 5136 4649 
Q 5126 4787 5116 4899 
Q 5107 5011 5101 5082 
Q 5350 5030 5658 5050 
Q 5747 5056 5756 5011 
Q 5766 4966 5702 4909 
z
M 4557 4525 
Q 4518 4493 4518 4352 
L 4518 3226 
Q 4518 3034 4524 2835 
Q 4531 2637 4550 2419 
L 4019 2419 
Q 4038 2650 4044 2842 
Q 4051 3034 4051 3226 
L 4051 3994 
Q 4051 4237 4038 4406 
Q 4026 4576 4000 4698 
Q 4147 4666 4291 4653 
Q 4435 4640 4531 4646 
Q 4602 4653 4614 4611 
Q 4627 4570 4557 4525 
z
M 1894 4410 
L 1894 3405 
L 2605 3405 
L 2605 4410 
L 1894 4410 
z
M 1408 4410 
Q 1197 4416 1005 4403 
Q 813 4390 710 4365 
L 710 4864 
Q 787 4851 899 4844 
Q 1011 4838 1180 4832 
Q 1350 4826 1590 4822 
Q 1830 4819 2163 4819 
Q 2509 4819 2752 4822 
Q 2995 4826 3161 4829 
Q 3328 4832 3433 4841 
Q 3539 4851 3610 4864 
L 3610 4365 
Q 3520 4378 3382 4387 
Q 3245 4397 3078 4403 
L 3078 3405 
Q 3283 3411 3465 3420 
Q 3648 3430 3731 3443 
L 3731 2950 
Q 3642 2963 3462 2969 
Q 3283 2976 3078 2976 
Q 3072 2746 3085 2461 
Q 3098 2176 3123 1901 
L 2560 1901 
Q 2592 2176 2601 2464 
Q 2611 2752 2605 2982 
L 1875 2982 
Q 1818 2541 1542 2137 
Q 1267 1734 710 1402 
Q 582 1670 358 1786 
Q 870 2118 1100 2400 
Q 1331 2682 1389 2982 
Q 1062 2982 825 2972 
Q 589 2963 480 2950 
L 480 3443 
Q 589 3430 838 3417 
Q 1088 3405 1408 3405 
L 1408 4410 
z
" transform="scale(0.015625)"/>
        <path id="STHeitiTC-Medium-5b66" d="M 1619 3930 
Q 1587 4019 1539 4128 
Q 1491 4237 1440 4349 
Q 1389 4461 1334 4560 
Q 1280 4659 1235 4736 
L 1760 4973 
Q 1856 4806 1977 4572 
Q 2099 4339 2195 4134 
L 1619 3930 
z
M 2995 4096 
Q 2982 4192 2960 4310 
Q 2938 4429 2912 4553 
Q 2886 4678 2860 4793 
Q 2835 4909 2810 4992 
L 3373 5107 
Q 3424 4941 3485 4701 
Q 3546 4461 3590 4237 
L 2995 4096 
z
M 4506 3789 
Q 4947 3789 5276 3798 
Q 5606 3808 5850 3827 
L 5850 2630 
L 5318 2630 
L 5318 3322 
L 1094 3322 
L 1094 2579 
L 563 2579 
L 563 3827 
Q 826 3808 1184 3798 
Q 1542 3789 2022 3789 
L 3987 3789 
Q 4096 3949 4211 4144 
Q 4326 4339 4425 4531 
Q 4525 4723 4605 4889 
Q 4685 5056 4717 5158 
Q 4851 5062 5014 4976 
Q 5178 4890 5293 4845 
Q 5370 4813 5363 4784 
Q 5357 4755 5267 4710 
Q 5210 4678 5030 4467 
Q 4851 4256 4506 3789 
z
M 3014 896 
Q 2592 896 2237 893 
Q 1882 890 1581 880 
Q 1280 870 1017 857 
Q 755 845 525 826 
L 525 1434 
Q 762 1414 1021 1404 
Q 1280 1395 1581 1385 
Q 1882 1376 2237 1373 
Q 2592 1370 3014 1370 
L 3014 1818 
Q 3603 2035 3904 2240 
L 2419 2240 
Q 1837 2240 1510 2221 
L 1510 2701 
Q 1696 2688 1862 2681 
Q 2029 2675 2214 2668 
Q 2400 2662 2633 2662 
Q 2867 2662 3194 2662 
Q 3597 2662 3878 2665 
Q 4160 2669 4355 2672 
Q 4550 2675 4675 2681 
Q 4800 2688 4890 2701 
L 4890 2125 
Q 4806 2131 4704 2108 
Q 4602 2086 4454 2028 
Q 4307 1971 4096 1865 
Q 3885 1760 3584 1594 
L 3584 1370 
Q 4346 1376 4893 1389 
Q 5440 1402 5875 1434 
L 5875 826 
Q 5440 851 4893 870 
Q 4346 890 3584 896 
L 3584 -38 
Q 3584 -186 3545 -282 
Q 3507 -378 3388 -448 
Q 3270 -518 3046 -572 
Q 2822 -627 2451 -691 
Q 2419 -384 2234 -38 
Q 2483 -58 2636 -58 
Q 2790 -58 2873 -29 
Q 2957 0 2985 48 
Q 3014 96 3014 173 
L 3014 896 
z
" transform="scale(0.015625)"/>
        <path id="STHeitiTC-Medium-5230" d="M 5837 4864 
Q 5792 4826 5779 4720 
Q 5766 4614 5766 4320 
L 5766 147 
Q 5766 -109 5744 -256 
Q 5722 -403 5622 -489 
Q 5523 -576 5312 -621 
Q 5101 -666 4730 -717 
Q 4704 -570 4624 -406 
Q 4544 -243 4403 -83 
Q 4691 -102 4857 -102 
Q 5024 -102 5107 -67 
Q 5190 -32 5212 35 
Q 5235 102 5235 218 
L 5235 3904 
Q 5235 4333 5225 4592 
Q 5216 4851 5203 5030 
Q 5331 5005 5504 4995 
Q 5677 4986 5779 4998 
Q 5875 5011 5891 4969 
Q 5907 4928 5837 4864 
z
M 4589 4064 
Q 4576 4051 4569 4028 
Q 4563 4006 4556 3958 
Q 4550 3910 4550 3830 
Q 4550 3750 4550 3622 
L 4550 1581 
Q 4550 1395 4556 1206 
Q 4563 1018 4582 794 
L 4006 794 
Q 4032 1018 4038 1206 
Q 4045 1395 4045 1581 
L 4045 3251 
Q 4045 3590 4035 3817 
Q 4026 4045 4000 4256 
Q 4147 4218 4307 4205 
Q 4467 4192 4557 4205 
Q 4730 4237 4589 4064 
z
M 2080 4205 
Q 1875 4205 1660 4201 
Q 1446 4198 1251 4188 
Q 1056 4179 886 4166 
Q 717 4154 608 4141 
L 608 4723 
Q 717 4710 886 4697 
Q 1056 4685 1257 4675 
Q 1459 4666 1673 4662 
Q 1888 4659 2093 4659 
Q 2304 4659 2521 4662 
Q 2739 4666 2944 4675 
Q 3149 4685 3318 4694 
Q 3488 4704 3603 4723 
L 3603 4141 
Q 3494 4160 3318 4169 
Q 3142 4179 2937 4188 
Q 2733 4198 2509 4201 
Q 2285 4205 2080 4205 
z
M 2989 2970 
Q 2886 3130 2777 3286 
Q 2669 3443 2547 3610 
L 2976 3853 
Q 3149 3578 3363 3248 
Q 3578 2918 3776 2618 
L 3334 2362 
Q 3302 2426 3270 2486 
Q 3238 2547 3206 2611 
L 2310 2528 
L 2310 1658 
Q 2669 1664 2969 1677 
Q 3270 1690 3469 1722 
L 3469 1171 
Q 3283 1190 2976 1200 
Q 2669 1210 2310 1197 
L 2310 410 
Q 2752 480 3133 550 
Q 3514 621 3712 678 
Q 3680 531 3677 409 
Q 3674 288 3686 141 
Q 3341 96 2957 38 
Q 2573 -19 2195 -90 
Q 1971 -128 1747 -173 
Q 1523 -218 1321 -266 
Q 1120 -314 953 -365 
Q 787 -416 678 -467 
Q 666 -314 621 -144 
Q 576 26 506 186 
Q 736 205 1075 243 
Q 1414 282 1792 333 
L 1792 1190 
Q 1466 1184 1194 1168 
Q 922 1152 742 1120 
L 742 1696 
Q 922 1677 1194 1667 
Q 1466 1658 1792 1658 
L 1792 2477 
Q 1549 2451 1369 2428 
Q 1190 2406 1056 2387 
Q 922 2368 822 2345 
Q 723 2323 646 2298 
Q 634 2458 598 2582 
Q 563 2707 493 2854 
Q 602 2842 694 2838 
Q 787 2835 883 2829 
Q 1184 3213 1382 3561 
Q 1581 3910 1632 4154 
Q 1818 4064 1958 4013 
Q 2099 3962 2189 3949 
Q 2310 3923 2313 3875 
Q 2317 3827 2182 3776 
Q 2093 3744 1907 3529 
Q 1722 3315 1370 2848 
L 2989 2970 
z
" transform="scale(0.015625)"/>
        <path id="STHeitiTC-Medium-8fce" d="M 1299 218 
Q 1190 38 1068 -122 
Q 947 -282 781 -467 
Q 672 -365 557 -288 
Q 442 -211 307 -141 
Q 525 51 688 240 
Q 851 429 976 646 
Q 1101 864 1190 1120 
Q 1280 1376 1338 1696 
L 1152 1696 
Q 1011 1696 880 1673 
Q 749 1651 621 1581 
Q 595 1792 563 1907 
Q 531 2022 461 2131 
Q 595 2163 678 2230 
Q 762 2298 838 2432 
L 1203 3098 
L 890 3098 
Q 794 3098 646 3085 
Q 499 3072 403 3053 
L 403 3558 
Q 499 3552 569 3545 
Q 640 3539 723 3536 
Q 806 3533 905 3533 
Q 1005 3533 1158 3533 
Q 1517 3533 1689 3542 
Q 1862 3552 1990 3571 
L 1146 2093 
L 1485 2093 
Q 1581 2093 1699 2102 
Q 1818 2112 1907 2125 
Q 1805 1613 1705 1261 
Q 1606 909 1498 634 
Q 1722 467 2038 348 
Q 2355 230 2873 176 
Q 3392 122 4169 131 
Q 4947 141 6093 237 
Q 5965 51 5910 -86 
Q 5856 -224 5837 -416 
Q 4787 -435 4044 -409 
Q 3302 -384 2780 -307 
Q 2259 -230 1910 -99 
Q 1562 32 1299 218 
z
M 1299 3859 
Q 1152 4128 1011 4349 
Q 870 4570 704 4774 
L 1158 5062 
Q 1312 4858 1469 4624 
Q 1626 4390 1792 4134 
L 1299 3859 
z
M 2874 1587 
Q 3232 1754 3622 2003 
Q 3603 1837 3612 1712 
Q 3622 1587 3648 1510 
L 2938 1146 
Q 2797 1075 2678 1004 
Q 2560 934 2394 826 
Q 2336 973 2272 1094 
Q 2208 1216 2138 1318 
Q 2195 1331 2252 1350 
Q 2310 1370 2368 1389 
L 2368 3994 
Q 2368 4378 2304 4653 
Q 2496 4691 2646 4732 
Q 2797 4774 2925 4819 
Q 3053 4864 3168 4915 
Q 3283 4966 3405 5030 
Q 3469 4902 3549 4764 
Q 3629 4627 3693 4557 
Q 3744 4506 3731 4464 
Q 3718 4422 3629 4435 
Q 3590 4442 3552 4442 
Q 3514 4442 3440 4426 
Q 3366 4410 3235 4374 
Q 3104 4339 2874 4275 
L 2874 1587 
z
M 5728 4742 
Q 5715 4653 5705 4496 
Q 5696 4339 5696 4141 
L 5696 1619 
Q 5696 1504 5677 1421 
Q 5658 1338 5574 1270 
Q 5491 1203 5324 1136 
Q 5158 1069 4864 992 
Q 4832 1139 4774 1280 
Q 4717 1421 4589 1619 
Q 4934 1568 5062 1641 
Q 5190 1715 5190 1920 
L 5190 4250 
L 4378 4250 
L 4378 365 
L 3814 365 
Q 3827 582 3836 764 
Q 3846 947 3852 1120 
Q 3859 1293 3862 1469 
Q 3866 1645 3866 1843 
L 3866 4141 
Q 3866 4314 3856 4483 
Q 3846 4653 3827 4742 
Q 4019 4730 4236 4723 
Q 4454 4717 4794 4717 
Q 5120 4717 5331 4723 
Q 5542 4730 5728 4742 
z
" transform="scale(0.015625)"/>
        <path id="STHeitiTC-Medium-5408" d="M 4614 2502 
Q 4499 2515 4374 2524 
Q 4250 2534 4086 2537 
Q 3923 2541 3705 2544 
Q 3488 2547 3187 2547 
Q 2886 2547 2665 2544 
Q 2445 2541 2275 2537 
Q 2106 2534 1981 2524 
Q 1856 2515 1741 2502 
L 1741 3046 
Q 1856 3034 1984 3027 
Q 2112 3021 2278 3014 
Q 2445 3008 2665 3005 
Q 2886 3002 3187 3002 
Q 3488 3002 3705 3005 
Q 3923 3008 4086 3011 
Q 4250 3014 4374 3024 
Q 4499 3034 4614 3046 
L 4614 2502 
z
M 3149 4518 
Q 2918 4224 2630 3926 
Q 2342 3629 2028 3341 
Q 1715 3053 1385 2787 
Q 1056 2522 749 2298 
Q 717 2342 662 2403 
Q 608 2464 541 2521 
Q 474 2579 400 2630 
Q 326 2682 262 2720 
Q 493 2816 790 3008 
Q 1088 3200 1392 3443 
Q 1696 3686 1974 3952 
Q 2253 4218 2438 4467 
Q 2675 4774 2771 4937 
Q 2867 5101 2880 5203 
Q 2944 5178 3037 5146 
Q 3130 5114 3226 5085 
Q 3322 5056 3405 5037 
Q 3488 5018 3539 5011 
Q 3610 4998 3616 4960 
Q 3622 4922 3565 4909 
Q 3488 4883 3430 4838 
Q 3648 4486 3981 4185 
Q 4314 3885 4688 3657 
Q 5062 3430 5440 3286 
Q 5818 3142 6131 3104 
Q 6022 2995 5910 2819 
Q 5798 2643 5747 2496 
Q 5338 2675 4957 2889 
Q 4576 3104 4240 3357 
Q 3904 3610 3625 3901 
Q 3347 4192 3149 4518 
z
M 4550 358 
L 4550 1376 
L 1843 1376 
L 1843 358 
L 4550 358 
z
M 1843 -83 
L 1843 -659 
L 1235 -659 
Q 1267 -435 1280 -256 
Q 1293 -77 1293 141 
L 1293 1350 
Q 1293 1517 1286 1638 
Q 1280 1760 1267 1862 
Q 1344 1856 1526 1849 
Q 1709 1843 1965 1840 
Q 2221 1837 2537 1837 
Q 2854 1837 3194 1837 
Q 3507 1837 3820 1837 
Q 4134 1837 4403 1840 
Q 4672 1843 4864 1849 
Q 5056 1856 5126 1862 
Q 5114 1779 5107 1667 
Q 5101 1555 5101 1370 
L 5101 160 
Q 5101 -58 5113 -246 
Q 5126 -435 5158 -640 
L 4550 -640 
L 4550 -83 
L 1843 -83 
z
" transform="scale(0.015625)"/>
        <path id="STHeitiTC-Medium-3d" d="M 3565 3475 
L 314 3475 
L 314 3994 
L 3565 3994 
L 3565 3475 
z
M 3565 2099 
L 314 2099 
L 314 2618 
L 3565 2618 
L 3565 2099 
z
" transform="scale(0.015625)"/>
        <path id="STHeitiTC-Medium-9ad8" d="M 2029 2938 
L 4410 2938 
L 4410 3354 
L 2029 3354 
L 2029 2938 
z
M 4941 3782 
Q 4902 3494 4905 3168 
Q 4909 2842 4947 2509 
Q 4557 2534 4118 2540 
Q 3680 2547 3200 2547 
Q 2752 2547 2310 2537 
Q 1869 2528 1466 2496 
Q 1491 2618 1504 2774 
Q 1517 2931 1517 3097 
Q 1517 3264 1507 3437 
Q 1498 3610 1478 3770 
Q 1670 3750 1862 3740 
Q 2054 3731 2262 3724 
Q 2470 3718 2704 3715 
Q 2938 3712 3206 3712 
Q 3667 3712 4112 3731 
Q 4557 3750 4941 3782 
z
M 2470 461 
L 3930 461 
L 3930 928 
L 2470 928 
L 2470 461 
z
M 4448 1376 
Q 4416 1069 4416 736 
Q 4416 403 4454 45 
Q 4307 51 4176 57 
Q 4045 64 3904 67 
Q 3763 70 3596 70 
Q 3430 70 3213 70 
Q 2470 70 1952 32 
Q 1984 358 1987 688 
Q 1990 1018 1958 1363 
Q 2080 1344 2192 1334 
Q 2304 1325 2445 1321 
Q 2586 1318 2768 1315 
Q 2950 1312 3206 1312 
Q 3411 1312 3577 1315 
Q 3744 1318 3888 1324 
Q 4032 1331 4166 1344 
Q 4301 1357 4448 1376 
z
M 3590 4557 
Q 4486 4563 5046 4572 
Q 5606 4582 5875 4608 
L 5875 4083 
Q 5568 4115 4912 4121 
Q 4256 4128 3200 4122 
Q 2246 4115 1580 4102 
Q 915 4090 525 4058 
L 525 4608 
Q 890 4582 1488 4569 
Q 2086 4557 2976 4557 
Q 2925 4723 2867 4867 
Q 2810 5011 2752 5101 
L 3539 5190 
Q 3539 5082 3552 4912 
Q 3565 4742 3590 4557 
z
M 4474 -685 
Q 4512 -557 4477 -429 
Q 4442 -301 4294 -109 
Q 4557 -134 4704 -131 
Q 4851 -128 4924 -99 
Q 4998 -70 5017 -9 
Q 5037 51 5037 141 
L 5037 1747 
L 1382 1747 
L 1382 -640 
L 806 -640 
Q 826 -499 835 -384 
Q 845 -269 851 -166 
Q 858 -64 861 38 
Q 864 141 864 256 
L 864 1600 
Q 864 1747 851 1916 
Q 838 2086 813 2214 
Q 1197 2182 1795 2166 
Q 2394 2150 3232 2150 
Q 3686 2150 4054 2153 
Q 4422 2157 4713 2166 
Q 5005 2176 5232 2189 
Q 5459 2202 5638 2221 
Q 5606 2106 5593 1930 
Q 5581 1754 5581 1600 
L 5581 83 
Q 5581 -128 5558 -262 
Q 5536 -397 5427 -480 
Q 5318 -563 5094 -611 
Q 4870 -659 4474 -685 
z
" transform="scale(0.015625)"/>
        <path id="STHeitiTC-Medium-5206" d="M 6131 2669 
Q 5990 2579 5856 2400 
Q 5722 2221 5664 2054 
Q 5318 2310 5046 2550 
Q 4774 2790 4563 3049 
Q 4352 3309 4205 3606 
Q 4058 3904 3968 4282 
L 3597 4282 
Q 3373 4282 3142 4272 
Q 2912 4262 2726 4243 
L 2726 4768 
Q 2918 4749 3104 4736 
Q 3290 4723 3456 4723 
Q 3744 4723 3981 4732 
Q 4218 4742 4390 4768 
Q 4461 4352 4598 4035 
Q 4736 3718 4947 3472 
Q 5158 3226 5452 3034 
Q 5747 2842 6131 2669 
z
M 2470 4211 
Q 2374 4173 2278 4048 
Q 2182 3923 2131 3808 
Q 1971 3469 1836 3222 
Q 1702 2976 1555 2768 
Q 1408 2560 1222 2361 
Q 1037 2163 781 1920 
Q 691 2042 553 2147 
Q 416 2253 262 2330 
Q 877 2746 1267 3309 
Q 1658 3872 1888 4570 
Q 2035 4486 2185 4425 
Q 2336 4365 2464 4352 
Q 2541 4339 2544 4291 
Q 2547 4243 2470 4211 
z
M 2381 2074 
Q 2106 2074 1920 2064 
Q 1734 2054 1530 2029 
L 1530 2624 
Q 1683 2598 2016 2585 
Q 2349 2573 2854 2573 
Q 3155 2573 3481 2576 
Q 3808 2579 4096 2582 
Q 4384 2586 4614 2589 
Q 4845 2592 4954 2598 
L 4736 109 
Q 4717 -90 4659 -218 
Q 4602 -346 4470 -432 
Q 4339 -518 4121 -576 
Q 3904 -634 3565 -678 
Q 3533 -506 3462 -330 
Q 3392 -154 3270 6 
Q 3539 -19 3712 -12 
Q 3885 -6 3990 58 
Q 4096 122 4147 250 
Q 4198 378 4218 589 
L 4346 2074 
L 2912 2074 
Q 2880 1632 2777 1235 
Q 2675 838 2490 563 
Q 2336 339 2192 163 
Q 2048 -13 1894 -157 
Q 1741 -301 1568 -422 
Q 1395 -544 1184 -666 
Q 1075 -538 921 -426 
Q 768 -314 595 -243 
Q 1126 -26 1475 249 
Q 1824 525 1978 768 
Q 2163 1062 2259 1363 
Q 2355 1664 2381 2074 
z
" transform="scale(0.015625)"/>
       </defs>
       <use xlink:href="#STHeitiTC-Medium-6a21"/>
       <use xlink:href="#STHeitiTC-Medium-578b" x="99.999985"/>
       <use xlink:href="#STHeitiTC-Medium-5b66" x="199.999969"/>
       <use xlink:href="#STHeitiTC-Medium-5230" x="299.999954"/>
       <use xlink:href="#STHeitiTC-Medium-22" x="399.999939"/>
       <use xlink:href="#STHeitiTC-Medium-8fce" x="430.899933"/>
       <use xlink:href="#STHeitiTC-Medium-5408" x="530.899918"/>
       <use xlink:href="#STHeitiTC-Medium-3d" x="630.899902"/>
       <use xlink:href="#STHeitiTC-Medium-9ad8" x="691.499893"/>
       <use xlink:href="#STHeitiTC-Medium-5206" x="791.499878"/>
       <use xlink:href="#STHeitiTC-Medium-22" x="891.499863"/>
      </g>
     </g>
    </g>
    <g id="xtick_4">
     <g id="line2d_4">
      <g>
       <use xlink:href="#m5afbc1cda2" x="561.165879" y="218.820257" style="fill: #333333; stroke: #333333; stroke-width: 0.8"/>
      </g>
     </g>
     <g id="text_4">
      <!-- 下次更会顺着你说 -->
      <g style="fill: #333333" transform="translate(523.165879 233.515257) scale(0.095 -0.095)">
       <defs>
        <path id="STHeitiTC-Medium-4e0b" d="M 5139 1184 
Q 4954 1421 4778 1625 
Q 4602 1830 4416 2016 
Q 4230 2202 4022 2378 
Q 3814 2554 3571 2726 
L 3994 3123 
Q 4314 2874 4547 2678 
Q 4781 2483 4973 2313 
Q 5165 2144 5328 1981 
Q 5491 1818 5664 1632 
L 5139 1184 
z
M 3296 397 
Q 3296 250 3299 134 
Q 3302 19 3305 -96 
Q 3309 -211 3318 -336 
Q 3328 -461 3347 -621 
L 2675 -621 
Q 2688 -467 2694 -342 
Q 2701 -218 2707 -102 
Q 2714 13 2714 131 
Q 2714 250 2714 397 
L 2714 4083 
Q 2336 4083 2019 4076 
Q 1702 4070 1427 4064 
Q 1152 4058 915 4045 
Q 678 4032 461 4019 
L 461 4646 
Q 717 4627 998 4617 
Q 1280 4608 1613 4598 
Q 1946 4589 2336 4585 
Q 2726 4582 3200 4582 
Q 3667 4582 4060 4585 
Q 4454 4589 4787 4598 
Q 5120 4608 5405 4617 
Q 5690 4627 5939 4646 
L 5939 4019 
Q 5696 4038 5421 4048 
Q 5146 4058 4822 4067 
Q 4499 4077 4121 4080 
Q 3744 4083 3296 4083 
L 3296 397 
z
" transform="scale(0.015625)"/>
        <path id="STHeitiTC-Medium-6b21" d="M 1926 1818 
Q 1658 1363 1402 864 
Q 1146 365 858 -243 
Q 717 -77 601 41 
Q 486 160 326 275 
Q 499 493 646 701 
Q 794 909 928 1139 
Q 1062 1370 1193 1642 
Q 1325 1914 1472 2259 
Q 1594 2086 1706 1987 
Q 1818 1888 1926 1818 
z
M 3763 1536 
Q 3667 1139 3507 809 
Q 3347 480 3113 208 
Q 2880 -64 2569 -291 
Q 2259 -518 1856 -710 
Q 1754 -595 1600 -467 
Q 1446 -339 1318 -269 
Q 1798 -128 2160 102 
Q 2522 333 2774 624 
Q 3027 915 3180 1264 
Q 3334 1613 3392 1990 
Q 3411 2131 3411 2409 
Q 3411 2688 3392 3053 
Q 3514 3034 3680 3018 
Q 3846 3002 3974 3002 
Q 4218 3002 4083 2867 
Q 4000 2784 3930 2432 
Q 3936 1939 4077 1552 
Q 4218 1165 4486 867 
Q 4755 570 5152 352 
Q 5549 134 6074 -19 
Q 5939 -166 5836 -326 
Q 5734 -486 5677 -634 
Q 5242 -410 4918 -195 
Q 4595 19 4364 268 
Q 4134 518 3987 822 
Q 3840 1126 3763 1536 
z
M 1318 2976 
Q 1114 3379 912 3712 
Q 710 4045 499 4320 
L 928 4595 
Q 1184 4282 1411 3949 
Q 1638 3616 1811 3302 
L 1318 2976 
z
M 2931 3507 
Q 2765 3181 2621 2921 
Q 2477 2662 2349 2445 
Q 2253 2509 2115 2557 
Q 1978 2605 1824 2624 
Q 2285 3219 2557 3849 
Q 2829 4480 2931 5139 
Q 2995 5120 3084 5091 
Q 3174 5062 3273 5036 
Q 3373 5011 3465 4988 
Q 3558 4966 3622 4960 
Q 3699 4947 3728 4912 
Q 3757 4877 3686 4832 
Q 3597 4781 3539 4713 
Q 3482 4646 3411 4480 
Q 3341 4333 3280 4208 
Q 3219 4083 3155 3955 
L 4659 3955 
Q 4819 3955 5004 3958 
Q 5190 3962 5363 3971 
Q 5536 3981 5670 3987 
Q 5805 3994 5875 4006 
L 5318 2458 
L 4781 2554 
L 5133 3507 
L 2931 3507 
z
" transform="scale(0.015625)"/>
        <path id="STHeitiTC-Medium-66f4" d="M 3507 2464 
Q 3507 2310 3504 2176 
Q 3501 2042 3494 1914 
L 4883 1914 
L 4883 2464 
L 3507 2464 
z
M 3008 1914 
Q 3014 2144 3027 2464 
L 1581 2464 
L 1581 1914 
L 3008 1914 
z
M 3027 3373 
L 1581 3373 
L 1581 2835 
L 3027 2835 
L 3027 3373 
z
M 3507 2835 
L 4883 2835 
L 4883 3373 
L 3507 3373 
L 3507 2835 
z
M 3027 4365 
Q 2214 4365 1584 4349 
Q 954 4333 506 4301 
L 506 4832 
Q 1485 4774 3264 4774 
Q 5062 4774 6022 4832 
L 6022 4301 
Q 5574 4333 4947 4349 
Q 4320 4365 3507 4365 
L 3507 3776 
Q 3910 3776 4220 3782 
Q 4531 3789 4768 3798 
Q 5005 3808 5174 3821 
Q 5344 3834 5466 3846 
Q 5434 3738 5414 3571 
Q 5395 3405 5395 3238 
L 5395 2029 
Q 5395 1875 5408 1715 
Q 5421 1555 5453 1446 
Q 5299 1466 5123 1475 
Q 4947 1485 4716 1494 
Q 4486 1504 4179 1507 
Q 3872 1510 3462 1510 
Q 3424 1120 3347 864 
Q 3270 608 3130 410 
Q 3859 115 4566 32 
Q 5274 -51 6061 58 
Q 6029 6 5993 -80 
Q 5958 -166 5929 -259 
Q 5901 -352 5885 -445 
Q 5869 -538 5869 -602 
Q 5491 -602 5075 -550 
Q 4659 -499 4252 -412 
Q 3846 -326 3472 -204 
Q 3098 -83 2803 64 
Q 2624 -83 2409 -195 
Q 2195 -307 1936 -393 
Q 1677 -480 1376 -550 
Q 1075 -621 723 -685 
Q 672 -531 573 -371 
Q 474 -211 339 -102 
Q 998 -83 1507 16 
Q 2016 115 2355 339 
Q 2061 544 1840 723 
Q 1619 902 1446 1088 
L 1850 1370 
Q 1894 1293 1980 1200 
Q 2067 1107 2179 1011 
Q 2291 915 2419 816 
Q 2547 717 2675 634 
Q 2790 781 2864 982 
Q 2938 1184 2976 1510 
Q 2573 1510 2265 1507 
Q 1958 1504 1728 1494 
Q 1498 1485 1328 1472 
Q 1158 1459 1024 1446 
Q 1056 1594 1065 1706 
Q 1075 1818 1075 1965 
L 1075 3302 
Q 1075 3616 1011 3846 
Q 1165 3827 1341 3814 
Q 1517 3802 1753 3792 
Q 1990 3782 2300 3779 
Q 2611 3776 3027 3776 
L 3027 4365 
z
" transform="scale(0.015625)"/>
        <path id="STHeitiTC-Medium-4f1a" d="M 4544 2541 
Q 4282 2579 3955 2592 
Q 3629 2605 3130 2605 
Q 2630 2605 2304 2592 
Q 1978 2579 1709 2541 
L 1709 3123 
Q 1978 3091 2304 3081 
Q 2630 3072 3130 3072 
Q 3629 3072 3955 3081 
Q 4282 3091 4544 3123 
L 4544 2541 
z
M 4211 192 
Q 4058 358 3904 505 
Q 3750 653 3616 774 
L 4070 1043 
Q 4250 877 4438 691 
Q 4627 506 4806 326 
Q 4986 147 5142 -22 
Q 5299 -192 5414 -333 
L 4928 -678 
Q 4864 -582 4771 -460 
Q 4678 -339 4570 -205 
Q 3866 -262 3350 -307 
Q 2835 -352 2470 -387 
Q 2106 -422 1872 -444 
Q 1638 -467 1494 -489 
Q 1350 -512 1273 -528 
Q 1197 -544 1146 -563 
Q 1101 -371 1059 -236 
Q 1018 -102 966 38 
L 1427 58 
Q 1600 198 1798 393 
Q 1997 589 2173 787 
Q 2349 986 2483 1162 
Q 2618 1338 2669 1446 
Q 2035 1446 1564 1433 
Q 1094 1421 723 1389 
L 723 1971 
Q 1165 1939 1750 1929 
Q 2336 1920 3155 1920 
Q 3974 1920 4563 1929 
Q 5152 1939 5594 1971 
L 5594 1389 
Q 5350 1408 5097 1421 
Q 4845 1434 4525 1437 
Q 4205 1440 3782 1443 
Q 3360 1446 2778 1446 
Q 2925 1344 3008 1299 
Q 3091 1254 3162 1242 
Q 3258 1216 3251 1171 
Q 3245 1126 3155 1069 
Q 3034 986 2890 851 
Q 2746 717 2598 557 
Q 2470 422 2368 320 
Q 2266 218 2138 96 
L 4211 192 
z
M 3123 4582 
Q 2970 4352 2723 4086 
Q 2477 3821 2166 3542 
Q 1856 3264 1497 2982 
Q 1139 2701 762 2438 
Q 685 2573 560 2697 
Q 435 2822 288 2899 
Q 800 3136 1251 3453 
Q 1702 3770 2029 4122 
Q 2182 4288 2297 4422 
Q 2413 4557 2502 4681 
Q 2592 4806 2662 4931 
Q 2733 5056 2803 5210 
Q 2861 5171 2944 5139 
Q 3027 5107 3120 5078 
Q 3213 5050 3302 5030 
Q 3392 5011 3456 5005 
Q 3539 4992 3545 4947 
Q 3552 4902 3430 4858 
Q 3616 4576 3875 4317 
Q 4134 4058 4454 3834 
Q 4646 3699 4867 3587 
Q 5088 3475 5309 3388 
Q 5530 3302 5738 3244 
Q 5946 3187 6106 3168 
Q 5965 3046 5869 2892 
Q 5773 2739 5702 2534 
Q 5427 2662 5200 2774 
Q 4973 2886 4777 3001 
Q 4582 3117 4403 3245 
Q 4224 3373 4038 3526 
Q 3789 3731 3577 3977 
Q 3366 4224 3123 4582 
z
" transform="scale(0.015625)"/>
        <path id="STHeitiTC-Medium-987a" d="M 5683 -557 
Q 5581 -435 5449 -307 
Q 5318 -179 5174 -57 
Q 5030 64 4886 173 
Q 4742 282 4608 371 
L 4928 749 
Q 5197 518 5462 320 
Q 5728 122 6074 -115 
L 5683 -557 
z
M 4800 2739 
Q 4768 2720 4749 2675 
Q 4730 2630 4717 2524 
Q 4704 2419 4691 2220 
Q 4678 2022 4666 1696 
Q 4646 1216 4572 889 
Q 4499 563 4342 313 
Q 4186 64 3933 -153 
Q 3680 -371 3296 -627 
Q 3232 -506 3142 -406 
Q 3053 -307 2906 -198 
Q 3443 26 3776 317 
Q 4109 608 4179 979 
Q 4211 1146 4230 1402 
Q 4250 1658 4256 1926 
Q 4262 2195 4252 2444 
Q 4243 2694 4224 2854 
Q 4352 2822 4496 2809 
Q 4640 2797 4787 2810 
Q 4819 2810 4825 2784 
Q 4832 2758 4800 2739 
z
M 1184 4602 
Q 1165 4563 1149 4521 
Q 1133 4480 1126 4387 
Q 1120 4294 1117 4128 
Q 1114 3962 1120 3686 
Q 1133 3014 1133 2515 
Q 1133 2016 1120 1638 
Q 1107 1261 1084 982 
Q 1062 704 1020 477 
Q 979 250 921 48 
Q 864 -154 787 -371 
Q 698 -294 589 -233 
Q 480 -173 326 -109 
Q 403 51 467 204 
Q 531 358 579 547 
Q 627 736 659 982 
Q 691 1229 707 1574 
Q 723 1920 720 2377 
Q 717 2835 704 3456 
Q 691 3859 668 4169 
Q 646 4480 602 4723 
Q 749 4685 896 4675 
Q 1043 4666 1152 4678 
Q 1203 4685 1206 4665 
Q 1210 4646 1184 4602 
z
M 2861 4678 
Q 2803 4627 2787 4572 
Q 2771 4518 2771 4410 
L 2771 691 
Q 2771 301 2784 41 
Q 2797 -218 2816 -390 
L 2285 -390 
Q 2304 -218 2317 41 
Q 2330 301 2330 691 
L 2330 4083 
Q 2330 4243 2330 4355 
Q 2330 4467 2323 4550 
Q 2317 4634 2310 4698 
Q 2304 4762 2291 4826 
Q 2426 4794 2550 4778 
Q 2675 4762 2803 4774 
Q 2874 4781 2890 4752 
Q 2906 4723 2861 4678 
z
M 2003 4294 
Q 1971 4275 1955 4217 
Q 1939 4160 1939 4045 
L 1939 1299 
Q 1939 858 1948 618 
Q 1958 378 1984 205 
L 1485 205 
Q 1510 378 1520 618 
Q 1530 858 1530 1299 
L 1530 3661 
Q 1530 3930 1520 4112 
Q 1510 4294 1491 4410 
Q 1683 4346 1958 4365 
Q 2029 4371 2035 4348 
Q 2042 4326 2003 4294 
z
M 4179 4307 
Q 3821 4301 3565 4288 
Q 3309 4275 3066 4250 
L 3066 4781 
Q 3219 4768 3366 4755 
Q 3514 4742 3686 4736 
Q 3859 4730 4067 4726 
Q 4275 4723 4538 4723 
Q 4954 4723 5338 4739 
Q 5722 4755 5997 4781 
L 5997 4250 
Q 5734 4275 5376 4291 
Q 5018 4307 4627 4307 
Q 4595 4154 4566 3962 
Q 4538 3770 4512 3622 
Q 4672 3622 4854 3625 
Q 5037 3629 5203 3638 
Q 5370 3648 5501 3654 
Q 5632 3661 5683 3674 
Q 5658 3565 5651 3417 
Q 5645 3270 5645 2950 
L 5645 1773 
Q 5645 1478 5651 1257 
Q 5658 1037 5683 826 
L 5171 826 
L 5171 3219 
L 3757 3219 
L 3757 819 
L 3264 819 
Q 3290 1030 3296 1251 
Q 3302 1472 3302 1766 
L 3302 2950 
Q 3302 3270 3296 3417 
Q 3290 3565 3264 3674 
Q 3373 3654 3565 3641 
Q 3757 3629 4077 3622 
Q 4109 3770 4137 3965 
Q 4166 4160 4179 4307 
z
" transform="scale(0.015625)"/>
        <path id="STHeitiTC-Medium-7740" d="M 2355 4378 
Q 2246 4493 2121 4611 
Q 1997 4730 1875 4832 
L 2355 5101 
Q 2464 4973 2595 4832 
Q 2726 4691 2867 4563 
L 2355 4378 
z
M 2170 6 
L 4672 6 
L 4672 346 
L 2170 346 
L 2170 6 
z
M 4672 1715 
L 2170 1715 
L 2170 1376 
L 4672 1376 
L 4672 1715 
z
M 2170 698 
L 4672 698 
L 4672 1024 
L 2170 1024 
L 2170 698 
z
M 3558 4346 
Q 3712 4531 3830 4764 
Q 3949 4998 4019 5197 
Q 4134 5114 4256 5053 
Q 4378 4992 4595 4909 
Q 4646 4890 4646 4870 
Q 4646 4851 4576 4819 
Q 4512 4787 4390 4672 
Q 4269 4557 4122 4352 
Q 4262 4352 4464 4358 
Q 4666 4365 4877 4374 
Q 5088 4384 5293 4397 
Q 5498 4410 5651 4422 
L 5651 3923 
Q 5248 3949 4675 3961 
Q 4102 3974 3373 3974 
L 3373 3571 
Q 4000 3571 4486 3587 
Q 4973 3603 5318 3635 
L 5318 3174 
Q 4966 3194 4476 3206 
Q 3987 3219 3373 3219 
L 3373 2848 
Q 4224 2848 4861 2861 
Q 5498 2874 5978 2906 
L 5978 2413 
Q 5792 2426 5629 2432 
Q 5466 2438 5280 2444 
Q 5094 2451 4870 2457 
Q 4646 2464 4339 2467 
Q 4032 2470 3622 2470 
Q 3213 2470 2662 2470 
Q 2541 2272 2381 2074 
L 3290 2074 
Q 3578 2074 3859 2077 
Q 4141 2080 4390 2089 
Q 4640 2099 4845 2108 
Q 5050 2118 5197 2131 
Q 5178 1958 5168 1801 
Q 5158 1645 5158 1536 
L 5158 134 
Q 5158 -90 5164 -266 
Q 5171 -442 5190 -646 
L 4672 -646 
L 4672 -346 
L 2170 -346 
L 2170 -678 
L 1651 -678 
Q 1664 -582 1673 -505 
Q 1683 -429 1686 -345 
Q 1690 -262 1693 -156 
Q 1696 -51 1696 109 
L 1696 1363 
Q 1491 1178 1270 1002 
Q 1050 826 806 640 
Q 698 762 614 845 
Q 531 928 422 998 
Q 659 1133 905 1296 
Q 1152 1459 1379 1648 
Q 1606 1837 1808 2041 
Q 2010 2246 2157 2464 
Q 1626 2451 1197 2435 
Q 768 2419 442 2400 
L 442 2899 
Q 909 2874 1513 2861 
Q 2118 2848 2886 2848 
L 2886 3219 
Q 2259 3213 1776 3197 
Q 1293 3181 928 3149 
L 928 3616 
Q 1261 3590 1760 3580 
Q 2259 3571 2886 3571 
L 2886 3974 
Q 2566 3974 2249 3968 
Q 1933 3962 1641 3952 
Q 1350 3942 1097 3932 
Q 845 3923 653 3910 
L 653 4403 
Q 819 4390 956 4380 
Q 1094 4371 1248 4364 
Q 1402 4358 1590 4355 
Q 1779 4352 2048 4349 
Q 2317 4346 2681 4346 
Q 3046 4346 3558 4346 
z
" transform="scale(0.015625)"/>
        <path id="STHeitiTC-Medium-8bf4" d="M 3053 2400 
L 5037 2400 
L 5037 3379 
L 3053 3379 
L 3053 2400 
z
M 2400 890 
Q 2080 550 1869 323 
Q 1658 96 1523 -51 
Q 1389 -198 1312 -288 
Q 1235 -378 1184 -442 
Q 1088 -314 966 -192 
Q 845 -70 755 -13 
Q 909 122 998 352 
Q 1088 582 1088 806 
L 1088 2848 
Q 915 2848 793 2848 
Q 672 2848 582 2845 
Q 493 2842 419 2838 
Q 346 2835 275 2829 
L 275 3373 
Q 422 3354 572 3344 
Q 723 3334 954 3334 
Q 1165 3334 1337 3334 
Q 1510 3334 1638 3347 
Q 1606 3200 1590 2992 
Q 1574 2784 1574 2560 
L 1574 621 
Q 1709 781 1862 969 
Q 2016 1158 2144 1331 
Q 2195 1178 2262 1066 
Q 2330 954 2400 890 
z
M 1459 3718 
Q 1242 4224 838 4755 
L 1338 5050 
Q 1408 4928 1494 4793 
Q 1581 4659 1670 4524 
Q 1760 4390 1846 4259 
Q 1933 4128 2003 4026 
L 1459 3718 
z
M 3296 3949 
Q 3264 4032 3200 4153 
Q 3136 4275 3059 4406 
Q 2982 4538 2905 4653 
Q 2829 4768 2771 4845 
L 3258 5050 
Q 3379 4826 3510 4605 
Q 3642 4384 3782 4179 
L 3296 3949 
z
M 4173 3802 
Q 4358 4154 4483 4470 
Q 4608 4787 4704 5184 
Q 4781 5146 4873 5107 
Q 4966 5069 5062 5033 
Q 5158 4998 5244 4972 
Q 5331 4947 5395 4934 
Q 5472 4922 5478 4899 
Q 5485 4877 5414 4826 
Q 5318 4762 5241 4698 
Q 5165 4634 5078 4525 
Q 4992 4416 4880 4246 
Q 4768 4077 4608 3802 
Q 4806 3802 4950 3805 
Q 5094 3808 5200 3811 
Q 5306 3814 5389 3820 
Q 5472 3827 5555 3834 
Q 5542 3661 5539 3411 
Q 5536 3162 5536 2899 
Q 5536 2637 5539 2381 
Q 5542 2125 5555 1952 
Q 5357 1965 5181 1971 
Q 5005 1978 4742 1978 
L 4742 320 
Q 4742 147 4793 54 
Q 4845 -38 5043 -38 
Q 5184 -38 5280 -16 
Q 5376 6 5440 83 
Q 5504 160 5542 310 
Q 5581 461 5619 723 
Q 5747 582 5862 521 
Q 5978 461 6118 429 
Q 6042 128 5971 -48 
Q 5901 -224 5789 -317 
Q 5677 -410 5501 -435 
Q 5325 -461 5043 -461 
Q 4787 -461 4633 -429 
Q 4480 -397 4397 -329 
Q 4314 -262 4285 -160 
Q 4256 -58 4256 83 
L 4256 1978 
L 3731 1978 
Q 3725 1472 3648 1097 
Q 3571 723 3408 422 
Q 3245 122 2989 -131 
Q 2733 -384 2368 -653 
Q 2317 -576 2208 -493 
Q 2099 -410 1875 -288 
Q 2272 -70 2534 150 
Q 2797 371 2953 636 
Q 3110 902 3174 1228 
Q 3238 1555 3245 1978 
Q 3027 1971 2848 1968 
Q 2669 1965 2502 1952 
Q 2515 2118 2518 2387 
Q 2522 2656 2522 2899 
Q 2522 3142 2518 3404 
Q 2515 3667 2502 3834 
Q 2611 3821 2758 3817 
Q 2906 3814 3104 3808 
Q 3302 3802 3564 3802 
Q 3827 3802 4173 3802 
z
" transform="scale(0.015625)"/>
       </defs>
       <use xlink:href="#STHeitiTC-Medium-4e0b"/>
       <use xlink:href="#STHeitiTC-Medium-6b21" x="99.999985"/>
       <use xlink:href="#STHeitiTC-Medium-66f4" x="199.999969"/>
       <use xlink:href="#STHeitiTC-Medium-4f1a" x="299.999954"/>
       <use xlink:href="#STHeitiTC-Medium-987a" x="399.999939"/>
       <use xlink:href="#STHeitiTC-Medium-7740" x="499.999924"/>
       <use xlink:href="#STHeitiTC-Medium-4f60" x="599.999908"/>
       <use xlink:href="#STHeitiTC-Medium-8bf4" x="699.999893"/>
      </g>
     </g>
    </g>
   </g>
   <g id="matplotlib.axis_2">
    <g id="ytick_1">
     <g id="line2d_5">
      <path d="M 27.358984 218.820257 
L 631.128984 218.820257 
" clip-path="url(#pdc83391a34)" style="fill: none; stroke-dasharray: 2.96,1.28; stroke-dashoffset: 0; stroke: #b0b0b0; stroke-opacity: 0.35; stroke-width: 0.8"/>
     </g>
     <g id="line2d_6">
      <defs>
       <path id="mee96da590b" d="M 0 0 
L -3.5 0 
" style="stroke: #333333; stroke-width: 0.8"/>
      </defs>
      <g>
       <use xlink:href="#mee96da590b" x="27.358984" y="218.820257" style="fill: #333333; stroke: #333333; stroke-width: 0.8"/>
      </g>
     </g>
     <g id="text_5">
      <!-- 0.0 -->
      <g style="fill: #333333" transform="translate(7.2 222.667757) scale(0.095 -0.095)">
       <defs>
        <path id="STHeitiTC-Medium-30" d="M 1747 5184 
Q 2502 5184 2944 4547 
Q 3386 3910 3386 2723 
Q 3386 1536 2938 902 
Q 2490 269 1738 269 
Q 986 269 573 893 
Q 160 1517 160 2729 
Q 160 3942 573 4563 
Q 986 5184 1747 5184 
z
M 1760 774 
Q 2285 774 2576 1283 
Q 2867 1792 2867 2726 
Q 2867 3661 2566 4160 
Q 2266 4659 1757 4659 
Q 1248 4659 966 4160 
Q 685 3661 685 2714 
Q 685 774 1760 774 
z
" transform="scale(0.015625)"/>
        <path id="STHeitiTC-Medium-2e" d="M 966 1478 
Q 1146 1478 1270 1353 
Q 1395 1229 1395 1046 
Q 1395 864 1270 739 
Q 1146 614 970 614 
Q 794 614 666 742 
Q 538 870 538 1049 
Q 538 1229 666 1353 
Q 794 1478 966 1478 
z
" transform="scale(0.015625)"/>
       </defs>
       <use xlink:href="#STHeitiTC-Medium-30"/>
       <use xlink:href="#STHeitiTC-Medium-2e" x="55.399994"/>
       <use xlink:href="#STHeitiTC-Medium-30" x="83.099991"/>
      </g>
     </g>
    </g>
    <g id="ytick_2">
     <g id="line2d_7">
      <path d="M 27.358984 196.302251 
L 631.128984 196.302251 
" clip-path="url(#pdc83391a34)" style="fill: none; stroke-dasharray: 2.96,1.28; stroke-dashoffset: 0; stroke: #b0b0b0; stroke-opacity: 0.35; stroke-width: 0.8"/>
     </g>
     <g id="line2d_8">
      <g>
       <use xlink:href="#mee96da590b" x="27.358984" y="196.302251" style="fill: #333333; stroke: #333333; stroke-width: 0.8"/>
      </g>
     </g>
     <g id="text_6">
      <!-- 0.5 -->
      <g style="fill: #333333" transform="translate(7.2 200.149751) scale(0.095 -0.095)">
       <defs>
        <path id="STHeitiTC-Medium-35" d="M 3194 4544 
L 1549 4544 
L 1338 3398 
Q 1613 3469 1856 3469 
Q 2477 3469 2893 3030 
Q 3309 2592 3309 1913 
Q 3309 1235 2861 752 
Q 2413 269 1664 269 
Q 1088 269 691 621 
Q 294 973 211 1587 
L 768 1587 
Q 851 1203 1107 998 
Q 1363 794 1690 794 
Q 2125 794 2438 1123 
Q 2752 1453 2752 1939 
Q 2752 2374 2480 2656 
Q 2208 2938 1747 2938 
Q 1286 2938 672 2675 
L 1120 5069 
L 3194 5069 
L 3194 4544 
z
" transform="scale(0.015625)"/>
       </defs>
       <use xlink:href="#STHeitiTC-Medium-30"/>
       <use xlink:href="#STHeitiTC-Medium-2e" x="55.399994"/>
       <use xlink:href="#STHeitiTC-Medium-35" x="83.099991"/>
      </g>
     </g>
    </g>
    <g id="ytick_3">
     <g id="line2d_9">
      <path d="M 27.358984 173.784245 
L 631.128984 173.784245 
" clip-path="url(#pdc83391a34)" style="fill: none; stroke-dasharray: 2.96,1.28; stroke-dashoffset: 0; stroke: #b0b0b0; stroke-opacity: 0.35; stroke-width: 0.8"/>
     </g>
     <g id="line2d_10">
      <g>
       <use xlink:href="#mee96da590b" x="27.358984" y="173.784245" style="fill: #333333; stroke: #333333; stroke-width: 0.8"/>
      </g>
     </g>
     <g id="text_7">
      <!-- 1.0 -->
      <g style="fill: #333333" transform="translate(7.2 177.631745) scale(0.095 -0.095)">
       <defs>
        <path id="STHeitiTC-Medium-31" d="M 2131 384 
L 1587 384 
L 1587 4531 
L 826 4531 
L 1158 5069 
L 2131 5069 
L 2131 384 
z
" transform="scale(0.015625)"/>
       </defs>
       <use xlink:href="#STHeitiTC-Medium-31"/>
       <use xlink:href="#STHeitiTC-Medium-2e" x="55.399994"/>
       <use xlink:href="#STHeitiTC-Medium-30" x="83.099991"/>
      </g>
     </g>
    </g>
    <g id="ytick_4">
     <g id="line2d_11">
      <path d="M 27.358984 151.266239 
L 631.128984 151.266239 
" clip-path="url(#pdc83391a34)" style="fill: none; stroke-dasharray: 2.96,1.28; stroke-dashoffset: 0; stroke: #b0b0b0; stroke-opacity: 0.35; stroke-width: 0.8"/>
     </g>
     <g id="line2d_12">
      <g>
       <use xlink:href="#mee96da590b" x="27.358984" y="151.266239" style="fill: #333333; stroke: #333333; stroke-width: 0.8"/>
      </g>
     </g>
     <g id="text_8">
      <!-- 1.5 -->
      <g style="fill: #333333" transform="translate(7.2 155.113739) scale(0.095 -0.095)">
       <use xlink:href="#STHeitiTC-Medium-31"/>
       <use xlink:href="#STHeitiTC-Medium-2e" x="55.399994"/>
       <use xlink:href="#STHeitiTC-Medium-35" x="83.099991"/>
      </g>
     </g>
    </g>
    <g id="ytick_5">
     <g id="line2d_13">
      <path d="M 27.358984 128.748233 
L 631.128984 128.748233 
" clip-path="url(#pdc83391a34)" style="fill: none; stroke-dasharray: 2.96,1.28; stroke-dashoffset: 0; stroke: #b0b0b0; stroke-opacity: 0.35; stroke-width: 0.8"/>
     </g>
     <g id="line2d_14">
      <g>
       <use xlink:href="#mee96da590b" x="27.358984" y="128.748233" style="fill: #333333; stroke: #333333; stroke-width: 0.8"/>
      </g>
     </g>
     <g id="text_9">
      <!-- 2.0 -->
      <g style="fill: #333333" transform="translate(7.2 132.595733) scale(0.095 -0.095)">
       <defs>
        <path id="STHeitiTC-Medium-32" d="M 3360 384 
L 90 384 
L 1914 2355 
Q 2374 2842 2566 3123 
Q 2758 3405 2758 3763 
Q 2758 4122 2480 4390 
Q 2202 4659 1789 4659 
Q 1376 4659 1101 4368 
Q 826 4077 787 3539 
L 256 3539 
Q 288 4294 736 4739 
Q 1184 5184 1821 5184 
Q 2458 5184 2877 4771 
Q 3296 4358 3296 3763 
Q 3296 3328 3065 2950 
Q 2835 2573 2368 2074 
L 1293 915 
L 3360 915 
L 3360 384 
z
" transform="scale(0.015625)"/>
       </defs>
       <use xlink:href="#STHeitiTC-Medium-32"/>
       <use xlink:href="#STHeitiTC-Medium-2e" x="55.399994"/>
       <use xlink:href="#STHeitiTC-Medium-30" x="83.099991"/>
      </g>
     </g>
    </g>
    <g id="ytick_6">
     <g id="line2d_15">
      <path d="M 27.358984 106.230227 
L 631.128984 106.230227 
" clip-path="url(#pdc83391a34)" style="fill: none; stroke-dasharray: 2.96,1.28; stroke-dashoffset: 0; stroke: #b0b0b0; stroke-opacity: 0.35; stroke-width: 0.8"/>
     </g>
     <g id="line2d_16">
      <g>
       <use xlink:href="#mee96da590b" x="27.358984" y="106.230227" style="fill: #333333; stroke: #333333; stroke-width: 0.8"/>
      </g>
     </g>
     <g id="text_10">
      <!-- 2.5 -->
      <g style="fill: #333333" transform="translate(7.2 110.077727) scale(0.095 -0.095)">
       <use xlink:href="#STHeitiTC-Medium-32"/>
       <use xlink:href="#STHeitiTC-Medium-2e" x="55.399994"/>
       <use xlink:href="#STHeitiTC-Medium-35" x="83.099991"/>
      </g>
     </g>
    </g>
    <g id="ytick_7">
     <g id="line2d_17">
      <path d="M 27.358984 83.712221 
L 631.128984 83.712221 
" clip-path="url(#pdc83391a34)" style="fill: none; stroke-dasharray: 2.96,1.28; stroke-dashoffset: 0; stroke: #b0b0b0; stroke-opacity: 0.35; stroke-width: 0.8"/>
     </g>
     <g id="line2d_18">
      <g>
       <use xlink:href="#mee96da590b" x="27.358984" y="83.712221" style="fill: #333333; stroke: #333333; stroke-width: 0.8"/>
      </g>
     </g>
     <g id="text_11">
      <!-- 3.0 -->
      <g style="fill: #333333" transform="translate(7.2 87.559721) scale(0.095 -0.095)">
       <defs>
        <path id="STHeitiTC-Medium-33" d="M 2554 3021 
Q 2931 2835 3139 2508 
Q 3347 2182 3347 1798 
Q 3347 1171 2889 720 
Q 2432 269 1734 269 
Q 1107 269 707 630 
Q 307 992 166 1702 
L 710 1702 
Q 832 1248 1072 1027 
Q 1312 806 1757 806 
Q 2202 806 2502 1084 
Q 2803 1363 2803 1785 
Q 2803 2208 2460 2457 
Q 2118 2707 1453 2720 
L 1453 3232 
Q 1933 3232 2227 3437 
Q 2522 3642 2522 3946 
Q 2522 4250 2294 4451 
Q 2067 4653 1744 4653 
Q 1421 4653 1219 4470 
Q 1018 4288 877 3917 
L 320 3917 
Q 461 4531 832 4857 
Q 1203 5184 1747 5184 
Q 2291 5184 2691 4825 
Q 3091 4467 3091 3955 
Q 3091 3366 2554 3021 
z
" transform="scale(0.015625)"/>
       </defs>
       <use xlink:href="#STHeitiTC-Medium-33"/>
       <use xlink:href="#STHeitiTC-Medium-2e" x="55.399994"/>
       <use xlink:href="#STHeitiTC-Medium-30" x="83.099991"/>
      </g>
     </g>
    </g>
    <g id="ytick_8">
     <g id="line2d_19">
      <path d="M 27.358984 61.194215 
L 631.128984 61.194215 
" clip-path="url(#pdc83391a34)" style="fill: none; stroke-dasharray: 2.96,1.28; stroke-dashoffset: 0; stroke: #b0b0b0; stroke-opacity: 0.35; stroke-width: 0.8"/>
     </g>
     <g id="line2d_20">
      <g>
       <use xlink:href="#mee96da590b" x="27.358984" y="61.194215" style="fill: #333333; stroke: #333333; stroke-width: 0.8"/>
      </g>
     </g>
     <g id="text_12">
      <!-- 3.5 -->
      <g style="fill: #333333" transform="translate(7.2 65.041715) scale(0.095 -0.095)">
       <use xlink:href="#STHeitiTC-Medium-33"/>
       <use xlink:href="#STHeitiTC-Medium-2e" x="55.399994"/>
       <use xlink:href="#STHeitiTC-Medium-35" x="83.099991"/>
      </g>
     </g>
    </g>
    <g id="ytick_9">
     <g id="line2d_21">
      <path d="M 27.358984 38.676209 
L 631.128984 38.676209 
" clip-path="url(#pdc83391a34)" style="fill: none; stroke-dasharray: 2.96,1.28; stroke-dashoffset: 0; stroke: #b0b0b0; stroke-opacity: 0.35; stroke-width: 0.8"/>
     </g>
     <g id="line2d_22">
      <g>
       <use xlink:href="#mee96da590b" x="27.358984" y="38.676209" style="fill: #333333; stroke: #333333; stroke-width: 0.8"/>
      </g>
     </g>
     <g id="text_13">
      <!-- 4.0 -->
      <g style="fill: #333333" transform="translate(7.2 42.523709) scale(0.095 -0.095)">
       <defs>
        <path id="STHeitiTC-Medium-34" d="M 3418 1453 
L 2861 1453 
L 2861 384 
L 2317 384 
L 2317 1453 
L 70 1453 
L 2701 5184 
L 2861 5184 
L 2861 1984 
L 3418 1984 
L 3418 1453 
z
M 2317 1984 
L 2317 3712 
L 1094 1984 
L 2317 1984 
z
" transform="scale(0.015625)"/>
       </defs>
       <use xlink:href="#STHeitiTC-Medium-34"/>
       <use xlink:href="#STHeitiTC-Medium-2e" x="55.399994"/>
       <use xlink:href="#STHeitiTC-Medium-30" x="83.099991"/>
      </g>
     </g>
    </g>
   </g>
   <g id="patch_3">
    <path d="M 27.358984 218.820257 
L 27.358984 29.669007 
" style="fill: none; stroke: #000000; stroke-width: 0.8; stroke-linejoin: miter; stroke-linecap: square"/>
   </g>
   <g id="patch_4">
    <path d="M 27.358984 218.820257 
L 631.128984 218.820257 
" style="fill: none; stroke: #000000; stroke-width: 0.8; stroke-linejoin: miter; stroke-linecap: square"/>
   </g>
   <g id="patch_5">
    <path d="M 54.803075 218.820257 
L 139.841103 218.820257 
L 139.841103 173.784245 
L 54.803075 173.784245 
z
" clip-path="url(#pdc83391a34)" style="fill: #1a56db"/>
   </g>
   <g id="patch_6">
    <path d="M 209.417672 218.820257 
L 294.4557 218.820257 
L 294.4557 128.748233 
L 209.417672 128.748233 
z
" clip-path="url(#pdc83391a34)" style="fill: #1a56db"/>
   </g>
   <g id="patch_7">
    <path d="M 364.032269 218.820257 
L 449.070297 218.820257 
L 449.070297 83.712221 
L 364.032269 83.712221 
z
" clip-path="url(#pdc83391a34)" style="fill: #1a56db"/>
   </g>
   <g id="patch_8">
    <path d="M 518.646865 218.820257 
L 603.684893 218.820257 
L 603.684893 38.676209 
L 518.646865 38.676209 
z
" clip-path="url(#pdc83391a34)" style="fill: #1a56db"/>
   </g>
   <g id="text_14">
    <!-- 1 -->
    <g transform="translate(94.690292 150.003036) scale(0.095 -0.095)">
     <use xlink:href="#STHeitiTC-Medium-31"/>
    </g>
   </g>
   <g id="text_15">
    <!-- 2 -->
    <g transform="translate(249.304889 104.967024) scale(0.095 -0.095)">
     <use xlink:href="#STHeitiTC-Medium-32"/>
    </g>
   </g>
   <g id="text_16">
    <!-- 3 -->
    <g transform="translate(403.919486 59.931012) scale(0.095 -0.095)">
     <use xlink:href="#STHeitiTC-Medium-33"/>
    </g>
   </g>
   <g id="text_17">
    <!-- 4 -->
    <g transform="translate(558.534083 14.895) scale(0.095 -0.095)">
     <use xlink:href="#STHeitiTC-Medium-34"/>
    </g>
   </g>
  </g>
 </g>
 <defs>
  <clipPath id="pdc83391a34">
   <rect x="27.358984" y="29.669007" width="603.77" height="189.15125"/>
  </clipPath>
 </defs>
</svg>
